<?xml version="1.0" encoding="UTF-8"?><!DOCTYPE svg PUBLIC "-//W3C//DTD SVG 1.1//EN" "http://www.w3.org/Graphics/SVG/1.1/DTD/svg11.dtd">
<svg xmlns="http://www.w3.org/2000/svg" version="1.1">
<width>1479</width>
<height>1486</height>
<nclasslabel>50</nclasslabel>
<nclassappear>6</nclassappear>
<class>Bidet-1</class>
<class>Bidet-2</class>
<class>Bidet-3</class>
<class>Bidet-4</class>
<class>Door</class>
<class>Door-1</class>
<class>Door-23</class>
<class>Oven-1</class>
<class>Oven-2</class>
<class>Oven-3</class>
<class>Oven-4</class>
<class>Parking</class>
<class>Roof</class>
<class>Room</class>
<class>Separation</class>
<class>Sink-1</class>
<class>Sink-11</class>
<class>Sink-12</class>
<class>Sink-13</class>
<class>Sink-14</class>
<class>Sink-2</class>
<class>Sink-3</class>
<class>Sink-4</class>
<class>Sink-5</class>
<class>Sink-6</class>
<class>Sofa-1</class>
<class>Sofa-3</class>
<class>Sofa-4</class>
<class>Sofa-5</class>
<class>Sofa-6</class>
<class>Sofa-7</class>
<class>Sofa-8</class>
<class>Sofa-9</class>
<class>Stairs-1</class>
<class>Table-1</class>
<class>Table-2</class>
<class>Table-3</class>
<class>Table-4</class>
<class>Table-5</class>
<class>Table-6</class>
<class>Table-7</class>
<class>Text</class>
<class>Tub-1</class>
<class>Tub-3</class>
<class>TV-1</class>
<class>TV-2</class>
<class>Wall</class>
<class>Wall-1</class>
<class>Wallieee</class>
<class>Window</class>
<polygon class="Wall" fill="#AFD8F8" id="0" transcription="" points="225,667 294,668 292,682 226,682 " />
<polygon class="Wall" fill="#AFD8F8" id="1" transcription="" points="226,790 239,791 240,669 225,668 " />
<polygon class="Wall" fill="#AFD8F8" id="2" transcription="" points="226,827 239,827 239,1074 225,1075 " />
<polygon class="Wall" fill="#AFD8F8" id="3" transcription="" points="254,1061 225,1060 224,1076 254,1076 " />
<polygon class="Wall" fill="#AFD8F8" id="4" transcription="" points="384,1061 425,1061 424,1076 383,1076 " />
<polygon class="Wall" fill="#AFD8F8" id="5" transcription="" points="555,1063 584,1062 585,1077 554,1076 " />
<polygon class="Wall" fill="#AFD8F8" id="6" transcription="" points="571,932 592,931 594,1038 570,1037 " />
<polygon class="Wall" fill="#AFD8F8" id="7" transcription="" points="571,1036 585,1036 585,1078 571,1077 " />
<polygon class="Wall" fill="#AFD8F8" id="8" transcription="" points="629,1016 629,1038 569,1036 568,1014 " />
<polygon class="Wall" fill="#AFD8F8" id="9" transcription="" points="571,887 592,886 592,825 571,825 " />
<polygon class="Wall" fill="#AFD8F8" id="10" transcription="" points="499,762 514,746 592,824 577,839 " />
<polygon class="Wall" fill="#AFD8F8" id="11" transcription="" points="500,652 521,653 523,760 499,761 " />
<polygon class="Wall" fill="#AFD8F8" id="12" transcription="" points="460,668 520,668 521,683 461,682 " />
<polygon class="Wall" fill="#AFD8F8" id="13" transcription="" points="335,668 412,668 413,683 336,682 " />
<polygon class="Wall" fill="#AFD8F8" id="14" transcription="" points="498.5,580.5 621.5,580.5 622.5,603.5 499.5,603.5 " />
<polygon class="Wall" fill="#AFD8F8" id="15" transcription="" points="521,610 499,610 497,581 521,581 " />
<polygon class="Wall" fill="#AFD8F8" id="16" transcription="" points="669,581 715,582 715,604 671,603 " />
<polygon class="Wall" fill="#AFD8F8" id="17" transcription="" points="692,626 706,626 706,598 692,598 " />
<polygon class="Wall" fill="#AFD8F8" id="18" transcription="" points="692,416.5 691,600.5 716,601.5 714,415.5 " />
<polygon class="Wall" fill="#AFD8F8" id="19" transcription="" points="778,439 693,439 691,416 776,418 " />
<polygon class="Wall" fill="#AFD8F8" id="20" transcription="" points="873,418 959,417 959,439 875,440 " />
<polygon class="Wall" fill="#AFD8F8" id="21" transcription="" points="936,452 959,452 959,417 935,417 " />
<polygon class="Wall" fill="#AFD8F8" id="22" transcription="" points="1107,418 1124,418 1124,435 1107,436 " />
<polygon class="Wall" fill="#AFD8F8" id="23" transcription="" points="935,549 959,548 959,604 936,604 " />
<polygon class="Wall" fill="#AFD8F8" id="24" transcription="" points="1123,583 934,581 934,605 1124,604 " />
<polygon class="Wall" fill="#AFD8F8" id="25" transcription="" points="1101,692 1123,692 1123,582 1102,582 " />
<polygon class="Wall" fill="#AFD8F8" id="26" transcription="" points="836,827 1105,827 1105,842 835,840 " />
<polygon class="Wall" fill="#AFD8F8" id="27" transcription="" points="760,826 772,826 771,839 761,839 " />
<polygon class="Wall" fill="#AFD8F8" id="28" transcription="" points="692,762 692,982 715,983 714,763 " />
<polygon class="Wall" fill="#AFD8F8" id="29" transcription="" points="684,961 727,960 729,985 685,984 " />
<polygon class="Wall" fill="#AFD8F8" id="30" transcription="" points="707,1039 706,962 684,959 685,1038 " />
<polygon class="Wall" fill="#AFD8F8" id="31" transcription="" points="670,1015 671,1039 706,1040 705,1015 " />
<polygon class="Wall" fill="#AFD8F8" id="32" transcription="" points="753,984 778,984 777,962 753,960 " />
<polygon class="Wall" fill="#AFD8F8" id="33" transcription="" points="825,961 847,962 848,1176 826,1175 " />
<polygon class="Wall" fill="#AFD8F8" id="34" transcription="" points="921,1153 824,1152 824,1176 921,1176 " />
<polygon class="Wall" fill="#AFD8F8" id="35" transcription="" points="985,1152 1129,1153 1130,1176 985,1177 " />
<polygon class="Wall" fill="#AFD8F8" id="36" transcription="" points="1194,1154 1289,1155 1290,1176 1194,1177 " />
<polygon class="Wall" fill="#AFD8F8" id="37" transcription="" points="1291,818.5 1290,1176.5 1267,1176.5 1267,819.5 " />
<polygon class="Wall" fill="#AFD8F8" id="38" transcription="" points="1222,818 1291,818 1292,842 1224,842 " />
<polygon class="Wall" fill="#AFD8F8" id="39" transcription="" points="1180,819 1100,817 1098,841 1181,841 " />
<polygon class="Wall" fill="#AFD8F8" id="40" transcription="" points="1123,788 1100,788 1102,840 1123,841 " />
<polygon class="Wall" fill="#AFD8F8" id="41" transcription="" points="1122,879 1108,878 1109,834 1122,832 " />
<polygon class="Wall" fill="#AFD8F8" id="42" transcription="" points="1108,920 1121,920 1122,982 1108,983 " />
<polygon class="Wall" fill="#AFD8F8" id="43" transcription="" points="609,825 609,830 586,830 588,825 " />
<polygon class="Wall" fill="#AFD8F8" id="44" transcription="" points="652,825 694,825 694,830 652,830 " />
<polygon class="Wall" fill="#AFD8F8" id="45" transcription="" points="843,895 849,895 849,840 844,839 " />
<polygon class="Wall" fill="#AFD8F8" id="46" transcription="" points="869,889 842,890 842,895 869,894 " />
<polygon class="Wall" fill="#AFD8F8" id="47" transcription="" points="906,888 965,889 965,894 907,894 " />
<polygon class="Wall" fill="#AFD8F8" id="48" transcription="" points="957,898 964,897 963,838 959,839 " />
<polygon class="Wall" fill="#AFD8F8" id="49" transcription="" points="915,942 897,942 898,948 914,948 " />
<polygon class="Wall" fill="#AFD8F8" id="50" transcription="" points="843,940 849,940 850,964 843,965 " />
<polygon class="Wall" fill="#AFD8F8" id="51" transcription="" points="904,983 846,985 845,979 902,978 " />
<polygon class="Wall" fill="#AFD8F8" id="52" transcription="" points="896,944 902,943 902,983 897,983 " />
<polygon class="Wall" fill="#AFD8F8" id="53" transcription="" points="958,942 963,942 963,983 957,983 " />
<polygon class="Wall" fill="#AFD8F8" id="54" transcription="" points="1051,979 954,979 955,985 1051,985 " />
<polygon class="Wall" fill="#AFD8F8" id="55" transcription="" points="1047,945 1053,944 1051,1155 1045,1154 " />
<polygon class="Wall" fill="#AFD8F8" id="56" transcription="" points="1176,930 1182,931 1180,984 1176,984 " />
<polygon class="Wall" fill="#AFD8F8" id="57" transcription="" points="1107,984 1267,986 1266,980 1107,979 " />
<polygon class="Wall" fill="#AFD8F8" id="58" transcription="" points="1234,930 1235,936 1269,936 1267,930 " />
<polygon class="Parking" fill="#F6BD0F" id="59" transcription="" points="253,1062 385,1063 384,1076 254,1077 " />
<polygon class="Parking" fill="#F6BD0F" id="60" transcription="" points="424,1062 424,1077 555,1076 555,1060 " />
<polygon class="Window" fill="#8BBA00" id="61" transcription="" points="225,790 239,790 241,828 224,828 " />
<polygon class="Window" fill="#8BBA00" id="62" transcription="" points="291,667 290,690 339,690 336,667 " />
<polygon class="Door" fill="#FF8E46" id="63" transcription="" points="463,732 460,668 409,666 410,684 414,708 436,727 " />
<polygon class="Window" fill="#8BBA00" id="64" transcription="" points="497,609 522,609 521,653 497,653 " />
<polygon class="Door" fill="#FF8E46" id="65" transcription="" points="671,653 671,581 621,581 621,605 624,629 649,651 " />
<polygon class="Window" fill="#8BBA00" id="66" transcription="" points="776,418 777,440 875,440 874,418 " />
<polygon class="Window" fill="#8BBA00" id="67" transcription="" points="936,550 959,550 959,451 934,450 " />
<polygon class="Window" fill="#8BBA00" id="68" transcription="" points="1101,692 1123,691 1123,789 1099,790 " />
<polygon class="Window" fill="#8BBA00" id="69" transcription="" points="1181,816 1180,841 1224,843 1223,816 " />
<polygon class="Window" fill="#8BBA00" id="70" transcription="" points="1129,1152 1128,1177 1193,1178 1193,1152 " />
<polygon class="Window" fill="#8BBA00" id="71" transcription="" points="920,1153 920,1178 986,1178 985,1152 " />
<polygon class="Door" fill="#FF8E46" id="72" transcription="" points="774,911 777,984 825,984 826,960 822,932 800,915 " />
<polygon class="Window" fill="#8BBA00" id="73" transcription="" points="727,961 729,985 753,985 753,961 " />
<polygon class="Window" fill="#8BBA00" id="74" transcription="" points="629,1015 629,1040 671,1041 670,1014 " />
<polygon class="Door" fill="#FF8E46" id="75" transcription="" points="621,933 571,931 569,887 597,889 620,913 " />
<polygon class="Door" fill="#FF8E46" id="76" transcription="" points="655,875 654,825 607,826 611,852 633,872 " />
<polygon class="Door" fill="#FF8E46" id="77" transcription="" points="869,850 868,893 910,893 909,871 890,851 " />
<polygon class="Door" fill="#FF8E46" id="78" transcription="" points="1008,895 959,894 959,943 980,939 1005,920 " />
<polygon class="Door" fill="#FF8E46" id="79" transcription="" points="1050,993 1053,945 1095,945 1096,969 1076,987 " />
<polygon class="Wall" fill="#AFD8F8" id="80" transcription="" points="1091,945 1110,946 1110,951 1091,950 " />
<polygon class="Door" fill="#FF8E46" id="81" transcription="" points="957,988 956,945 911,945 917,970 933,985 " />
<polygon class="Door" fill="#FF8E46" id="82" transcription="" points="1162,877 1107,876 1107,920 1125,921 1147,915 1160,894 " />
<polygon class="Room" fill="#008E8E" id="83" transcription="" points="715,442 716,824 1096,824 1100,608 932,607 933,442 " />
<polygon class="Room" fill="#008E8E" id="84" transcription="" points="522,605 522,753 591,823 689,822 690,603 " />
<polygon class="Room" fill="#008E8E" id="85" transcription="" points="718,843 716,959 840,959 842,842 " />
<polygon class="Room" fill="#008E8E" id="86" transcription="" points="1266,986 1268,1154 1053,1150 1055,988 " />
<polygon class="Room" fill="#008E8E" id="87" transcription="" points="1268,844 1266,927 1233,927 1234,935 1265,937 1266,978 1182,977 1182,928 1175,927 1174,975 1122,976 1123,843 " />
<polygon class="Room" fill="#008E8E" id="88" transcription="" points="1106,842.5 1105,976.5 1056,978.5 1053,940.5 1043,941.5 1045,975.5 964,975.5 964,841.5 " />
<polygon class="Room" fill="#008E8E" id="89" transcription="" points="955,841 851,843 849,887 957,887 " />
<polygon class="Room" fill="#008E8E" id="90" transcription="" points="850,895 848,974 894,975 893,942 957,942 955,892 " />
<polygon class="Room" fill="#008E8E" id="91" transcription="" points="849,986 849,1150 1045,1149 1046,986 955,986 953,949 902,948 904,984 " />
<polygon class="Room" fill="#008E8E" id="92" transcription="" points="594,1015 594,832 689,832 683,1012 " />
<polygon class="Room" fill="#008E8E" id="93" transcription="" points="241.5,684.5 238.5,1061.5 568.5,1060.5 569.5,834.5 495.5,761.5 496.5,683.5 " />
<polygon class="Separation" fill="#D64646" id="94" transcription="" points="692,625 714,625 714,762 692,762 " />
<polygon class="Separation" fill="#D64646" id="95" transcription="" points="715,824 761,824 761,842 715,842 " />
<polygon class="Separation" fill="#D64646" id="96" transcription="" points="772,824 834,824 834,841 772,841 " />
<polygon class="Separation" fill="#D64646" id="97" transcription="" points="841,893 853,893 853,939 841,939 " />
<relation type="incident" objects="19,18"/>
<relation type="incident" objects="18,17"/>
<relation type="incident" objects="17,16"/>
<relation type="incident" objects="16,18"/>
<relation type="incident" objects="16,65"/>
<relation type="incident" objects="65,14"/>
<relation type="incident" objects="14,15"/>
<relation type="incident" objects="15,64"/>
<relation type="incident" objects="64,11"/>
<relation type="incident" objects="11,12"/>
<relation type="incident" objects="12,63"/>
<relation type="incident" objects="63,13"/>
<relation type="incident" objects="13,62"/>
<relation type="incident" objects="62,0"/>
<relation type="incident" objects="0,1"/>
<relation type="incident" objects="1,61"/>
<relation type="incident" objects="61,2"/>
<relation type="incident" objects="2,3"/>
<relation type="incident" objects="3,59"/>
<relation type="incident" objects="59,4"/>
<relation type="incident" objects="4,60"/>
<relation type="incident" objects="60,5"/>
<relation type="incident" objects="6,8"/>
<relation type="incident" objects="5,7"/>
<relation type="incident" objects="7,8"/>
<relation type="incident" objects="8,74"/>
<relation type="incident" objects="74,31"/>
<relation type="incident" objects="31,30"/>
<relation type="incident" objects="30,28"/>
<relation type="incident" objects="28,29"/>
<relation type="incident" objects="29,30"/>
<relation type="incident" objects="29,73"/>
<relation type="incident" objects="73,32"/>
<relation type="incident" objects="32,72"/>
<relation type="incident" objects="72,33"/>
<relation type="incident" objects="33,34"/>
<relation type="incident" objects="34,71"/>
<relation type="incident" objects="71,35"/>
<relation type="incident" objects="35,70"/>
<relation type="incident" objects="70,36"/>
<relation type="incident" objects="36,37"/>
<relation type="incident" objects="38,37"/>
<relation type="incident" objects="38,69"/>
<relation type="incident" objects="69,39"/>
<relation type="incident" objects="39,40"/>
<relation type="incident" objects="40,68"/>
<relation type="incident" objects="68,25"/>
<relation type="incident" objects="25,24"/>
<relation type="incident" objects="24,23"/>
<relation type="incident" objects="23,67"/>
<relation type="incident" objects="20,21"/>
<relation type="incident" objects="67,21"/>
<relation type="incident" objects="20,66"/>
<relation type="incident" objects="66,19"/>
<relation type="incident" objects="11,10"/>
<relation type="incident" objects="10,9"/>
<relation type="incident" objects="9,75"/>
<relation type="incident" objects="75,6"/>
<relation type="incident" objects="9,43"/>
<relation type="incident" objects="43,10"/>
<relation type="incident" objects="43,76"/>
<relation type="incident" objects="76,44"/>
<relation type="incident" objects="44,28"/>
<relation type="incident" objects="26,39"/>
<relation type="incident" objects="40,26"/>
<relation type="incident" objects="40,41"/>
<relation type="incident" objects="39,41"/>
<relation type="incident" objects="41,82"/>
<relation type="incident" objects="82,42"/>
<relation type="incident" objects="42,80"/>
<relation type="incident" objects="80,79"/>
<relation type="incident" objects="79,55"/>
<relation type="incident" objects="55,54"/>
<relation type="incident" objects="54,53"/>
<relation type="incident" objects="53,81"/>
<relation type="incident" objects="81,49"/>
<relation type="incident" objects="49,52"/>
<relation type="incident" objects="52,51"/>
<relation type="incident" objects="51,33"/>
<relation type="incident" objects="33,50"/>
<relation type="incident" objects="26,45"/>
<relation type="incident" objects="45,46"/>
<relation type="incident" objects="46,77"/>
<relation type="incident" objects="77,47"/>
<relation type="incident" objects="47,48"/>
<relation type="incident" objects="48,26"/>
<relation type="incident" objects="42,57"/>
<relation type="incident" objects="57,56"/>
<relation type="incident" objects="37,58"/>
<relation type="incident" objects="57,37"/>
<relation type="neighbour" objects="83,84"/>
<relation type="neighbour" objects="84,92"/>
<relation type="neighbour" objects="92,93"/>
<relation type="neighbour" objects="93,84"/>
<relation type="neighbour" objects="83,85"/>
<relation type="neighbour" objects="85,89"/>
<relation type="neighbour" objects="89,83"/>
<relation type="neighbour" objects="83,88"/>
<relation type="neighbour" objects="88,89"/>
<relation type="neighbour" objects="89,90"/>
<relation type="neighbour" objects="85,90"/>
<relation type="neighbour" objects="90,91"/>
<relation type="neighbour" objects="91,88"/>
<relation type="neighbour" objects="88,90"/>
<relation type="neighbour" objects="88,87"/>
<relation type="neighbour" objects="87,86"/>
<relation type="neighbour" objects="86,91"/>
<relation type="neighbour" objects="86,88"/>
<relation type="neighbour" objects="85,92"/>
<relation type="access" objects="93,75,92"/>
<relation type="access" objects="84,76,92"/>
<relation type="access" objects="85,72,85"/>
<relation type="access" objects="90,77,89"/>
<relation type="access" objects="90,78,88"/>
<relation type="access" objects="90,81,91"/>
<relation type="access" objects="88,79,86"/>
<relation type="access" objects="88,82,87"/>
<relation type="access" objects="93,63,93"/>
<relation type="access" objects="84,65,84"/>
<relation type="incident" objects="94,17"/>
<relation type="incident" objects="94,28"/>
<relation type="incident" objects="96,26"/>
<relation type="incident" objects="96,27"/>
<relation type="incident" objects="27,95"/>
<relation type="incident" objects="95,28"/>
<relation type="outerP" objects="19,66,20,21,67,23,24,25,68,40,39,69,38,37,36,70,35,71,34,33,72,32,73,29,30,31,74,8,7,5,60,4,59,3,2,61,1,0,62,13,63,12,11,64,15,14,65,16,18"/>
<relation type="surround" objects="18,19,66,20,21,67,23,24,25,68,40,26,96,27,95,28,94,17,18,83"/>
<relation type="surround" objects="14,65,16,17,94,28,44,76,43,10,11,64,15,14,84"/>
<relation type="surround" objects="43,76,44,28,30,31,74,8,6,75,9,43,92"/>
<relation type="surround" objects="0,62,13,63,12,11,10,9,75,6,7,5,60,4,59,3,2,61,1,0,93"/>
<relation type="incident" objects="45,97"/>
<relation type="incident" objects="97,50"/>
<relation type="incident" objects="97,46"/>
<relation type="surround" objects="95,27,96,45,97,50,72,32,73,29,28,95,85"/>
<relation type="surround" objects="26,48,47,77,46,45,26,89"/>
<relation type="surround" objects="51,52,49,81,53,54,55,35,71,34,33,51,91"/>
<relation type="surround" objects="46,77,47,78,81,49,52,51,50,97,46,90"/>
<relation type="surround" objects="26,41,82,42,80,79,55,54,53,78,48,26,88"/>
<relation type="surround" objects="79,80,42,57,37,36,70,35,55,79,86"/>
<relation type="surround" objects="39,69,38,37,57,42,82,41,39,87"/>
<relation type="access" objects="84,94,83"/>
<relation type="access" objects="83,96,85"/>
<relation type="access" objects="85,97,90"/>
</svg>