<?xml version="1.0" encoding="UTF-8"?><!DOCTYPE svg PUBLIC "-//W3C//DTD SVG 1.1//EN" "http://www.w3.org/Graphics/SVG/1.1/DTD/svg11.dtd">
<svg xmlns="http://www.w3.org/2000/svg" version="1.1">
<width>2218</width>
<height>2227</height>
<nclasslabel>50</nclasslabel>
<nclassappear>5</nclassappear>
<class>Bidet-1</class>
<class>Bidet-2</class>
<class>Bidet-3</class>
<class>Bidet-4</class>
<class>Door</class>
<class>Door-1</class>
<class>Door-23</class>
<class>Oven-1</class>
<class>Oven-2</class>
<class>Oven-3</class>
<class>Oven-4</class>
<class>Parking</class>
<class>Roof</class>
<class>Room</class>
<class>Separation</class>
<class>Sink-1</class>
<class>Sink-11</class>
<class>Sink-12</class>
<class>Sink-13</class>
<class>Sink-14</class>
<class>Sink-2</class>
<class>Sink-3</class>
<class>Sink-4</class>
<class>Sink-5</class>
<class>Sink-6</class>
<class>Sofa-1</class>
<class>Sofa-3</class>
<class>Sofa-4</class>
<class>Sofa-5</class>
<class>Sofa-6</class>
<class>Sofa-7</class>
<class>Sofa-8</class>
<class>Sofa-9</class>
<class>Stairs-1</class>
<class>Table-1</class>
<class>Table-2</class>
<class>Table-3</class>
<class>Table-4</class>
<class>Table-5</class>
<class>Table-6</class>
<class>Table-7</class>
<class>Text</class>
<class>Tub-1</class>
<class>Tub-3</class>
<class>TV-1</class>
<class>TV-2</class>
<class>Wall</class>
<class>Wall-1</class>
<class>Wallieee</class>
<class>Window</class>
<polygon class="Wall" fill="#AFD8F8" id="0" transcription="" points="1030,622 1156,623 1156,656 1032,655 " />
<polygon class="Wall" fill="#AFD8F8" id="1" transcription="" points="1303,622 1428,623 1429,657 1302,657 " />
<polygon class="Wall" fill="#AFD8F8" id="2" transcription="" points="1396,675 1430,677 1429,621 1391,621 " />
<polygon class="Wall" fill="#AFD8F8" id="3" transcription="" points="1394,822 1394,902 1429,904 1428,820 " />
<polygon class="Wall" fill="#AFD8F8" id="4" transcription="" points="1676,871 1394,868 1394,905 1675,903 " />
<polygon class="Wall" fill="#AFD8F8" id="5" transcription="" points="1643,1034 1676,1033 1677,870 1642,871 " />
<polygon class="Wall" fill="#AFD8F8" id="6" transcription="" points="1640,1180 1676,1179 1678,1258 1643,1258 " />
<polygon class="Wall" fill="#AFD8F8" id="7" transcription="" points="1762,1226 1641,1222 1640,1259 1761,1259 " />
<polygon class="Wall" fill="#AFD8F8" id="8" transcription="" points="1653,1315 1653,1251 1675,1250 1674,1314 " />
<polygon class="Wall" fill="#AFD8F8" id="9" transcription="" points="1825,1226 1926,1226 1927,1260 1827,1258 " />
<polygon class="Wall" fill="#AFD8F8" id="10" transcription="" points="1245,1235 1646,1236 1647,1258 1245,1257 " />
<polygon class="Wall" fill="#AFD8F8" id="11" transcription="" points="1134,1236 1148,1237 1148,1256 1134,1255 " />
<polygon class="Wall" fill="#AFD8F8" id="12" transcription="" points="1926,1763 1926,1224 1891,1225 1894,1763 " />
<polygon class="Wall" fill="#AFD8F8" id="13" transcription="" points="1784,1729 1926,1727 1926,1763 1783,1761 " />
<polygon class="Wall" fill="#AFD8F8" id="14" transcription="" points="1467,1727 1685,1727 1685,1761 1467,1761 " />
<polygon class="Wall" fill="#AFD8F8" id="15" transcription="" points="1372,1727 1372,1761 1227,1759 1228,1724 " />
<polygon class="Wall" fill="#AFD8F8" id="16" transcription="" points="1230,1438 1228,1758 1263,1761 1265,1438 " />
<polygon class="Wall" fill="#AFD8F8" id="17" transcription="" points="1122,1438 1158,1438 1157,1473 1122,1472 " />
<polygon class="Wall" fill="#AFD8F8" id="18" transcription="" points="1083,1471 1014,1472 1014,1438 1085,1437 " />
<polygon class="Wall" fill="#AFD8F8" id="19" transcription="" points="1050,1553 1015,1553 1016,1442 1049,1440 " />
<polygon class="Wall" fill="#AFD8F8" id="20" transcription="" points="996,1521 1049,1522 1051,1554 997,1554 " />
<polygon class="Wall" fill="#AFD8F8" id="21" transcription="" points="935,1521 846,1520 847,1554 932,1553 " />
<polygon class="Wall" fill="#AFD8F8" id="22" transcription="" points="847,1394 845,1553 878,1552 879,1394 " />
<polygon class="Wall" fill="#AFD8F8" id="23" transcription="" points="868,1610 867,1542 845,1542 845,1610 " />
<polygon class="Wall" fill="#AFD8F8" id="24" transcription="" points="822,1591 869,1591 870,1610 823,1610 " />
<polygon class="Wall" fill="#AFD8F8" id="25" transcription="" points="567,1588 627,1590 627,1610 567,1609 " />
<polygon class="Wall" fill="#AFD8F8" id="26" transcription="" points="372,1609 326,1608 326,1590 372,1590 " />
<polygon class="Wall" fill="#AFD8F8" id="27" transcription="" points="330,1236 350,1237 350,1608 326,1609 " />
<polygon class="Wall" fill="#AFD8F8" id="28" transcription="" points="328,998 328,1181 349,1180 352,997 " />
<polygon class="Wall" fill="#AFD8F8" id="29" transcription="" points="430,1017 329,1017 328,995 428,998 " />
<polygon class="Wall" fill="#AFD8F8" id="30" transcription="" points="610,999 500,998 500,1019 608,1018 " />
<polygon class="Wall" fill="#AFD8F8" id="31" transcription="" points="681,999 773,1000 771,1020 681,1022 " />
<polygon class="Wall" fill="#AFD8F8" id="32" transcription="" points="739,975 773,976 773,1139 740,1140 " />
<polygon class="Wall" fill="#AFD8F8" id="33" transcription="" points="741,867 740,912 773,910 773,867 " />
<polygon class="Wall" fill="#AFD8F8" id="34" transcription="" points="923,900 740,901 741,868 921,868 " />
<polygon class="Wall" fill="#AFD8F8" id="35" transcription="" points="996,900 1063,900 1062,866 996,869 " />
<polygon class="Wall" fill="#AFD8F8" id="36" transcription="" points="1030,936 1048,934 1050,894 1030,893 " />
<polygon class="Wall" fill="#AFD8F8" id="37" transcription="" points="1032,623 1065,622 1062,901 1031,901 " />
<polygon class="Wall" fill="#AFD8F8" id="38" transcription="" points="882,1234 772,1126 742,1141 848,1248 " />
<polygon class="Wall" fill="#AFD8F8" id="39" transcription="" points="848,1327 879,1327 880,1233 848,1248 " />
<polygon class="Wall" fill="#AFD8F8" id="40" transcription="" points="1030,1139 1028,1441 1062,1439 1062,1138 " />
<polygon class="Wall" fill="#AFD8F8" id="41" transcription="" points="971,1233 971,1241 1031,1240 1030,1232 " />
<polygon class="Wall" fill="#AFD8F8" id="42" transcription="" points="902,1233 902,1240 880,1241 880,1232 " />
<polygon class="Wall" fill="#AFD8F8" id="43" transcription="" points="1254,1339 1255,1256 1265,1256 1264,1338 " />
<polygon class="Wall" fill="#AFD8F8" id="44" transcription="" points="1292,1330 1294,1339 1252,1337 1252,1329 " />
<polygon class="Wall" fill="#AFD8F8" id="45" transcription="" points="1351,1328 1431,1328 1435,1339 1353,1339 " />
<polygon class="Wall" fill="#AFD8F8" id="46" transcription="" points="1429,1341 1426,1257 1436,1256 1436,1339 " />
<polygon class="Wall" fill="#AFD8F8" id="47" transcription="" points="1560,1416 1559,1728 1567,1728 1570,1415 " />
<polygon class="Wall" fill="#AFD8F8" id="48" transcription="" points="1579,1424 1559,1424 1559,1416 1578,1416 " />
<polygon class="Wall" fill="#AFD8F8" id="49" transcription="" points="1427,1471 1561,1473 1559,1463 1427,1464 " />
<polygon class="Wall" fill="#AFD8F8" id="50" transcription="" points="1427,1404 1427,1472 1433,1472 1436,1406 " />
<polygon class="Wall" fill="#AFD8F8" id="51" transcription="" points="1419,1412 1434,1412 1434,1419 1420,1419 " />
<polygon class="Wall" fill="#AFD8F8" id="52" transcription="" points="1359,1408 1336,1407 1337,1418 1361,1417 " />
<polygon class="Wall" fill="#AFD8F8" id="53" transcription="" points="1344,1472 1345,1407 1338,1408 1337,1473 " />
<polygon class="Wall" fill="#AFD8F8" id="54" transcription="" points="1262,1466 1344,1463 1343,1472 1260,1472 " />
<polygon class="Wall" fill="#AFD8F8" id="55" transcription="" points="1257,1404 1257,1439 1264,1439 1265,1403 " />
<polygon class="Wall" fill="#AFD8F8" id="56" transcription="" points="1630,1414 1631,1424 1654,1423 1654,1414 " />
<polygon class="Wall" fill="#AFD8F8" id="57" transcription="" points="1651,1374 1653,1472 1675,1473 1673,1373 " />
<polygon class="Wall" fill="#AFD8F8" id="58" transcription="" points="1755,1392 1755,1465 1763,1465 1763,1391 " />
<polygon class="Wall" fill="#AFD8F8" id="59" transcription="" points="1672,1465 1890,1465 1890,1472 1671,1473 " />
<polygon class="Wall" fill="#AFD8F8" id="60" transcription="" points="1842,1391 1891,1392 1893,1400 1843,1399 " />
<polygon class="Window" fill="#F6BD0F" id="61" transcription="" points="1762,1222 1762,1260 1828,1260 1826,1222 " />
<polygon class="Window" fill="#F6BD0F" id="62" transcription="" points="1642,1034 1678,1033 1675,1177 1639,1178 " />
<polygon class="Window" fill="#F6BD0F" id="63" transcription="" points="1395,675 1430,676 1428,821 1393,820 " />
<polygon class="Window" fill="#F6BD0F" id="64" transcription="" points="1157,621 1157,655 1300,659 1303,623 " />
<polygon class="Window" fill="#F6BD0F" id="65" transcription="" points="428,1032 501,1032 501,993 427,993 " />
<polygon class="Window" fill="#F6BD0F" id="66" transcription="" points="326,1182 350,1180 352,1236 328,1237 " />
<polygon class="Window" fill="#F6BD0F" id="67" transcription="" points="373,1588 566,1587 565,1609 372,1610 " />
<polygon class="Window" fill="#F6BD0F" id="68" transcription="" points="628,1590 625,1611 824,1611 822,1588 " />
<polygon class="Window" fill="#F6BD0F" id="69" transcription="" points="935,1558 996,1556 995,1519 934,1518 " />
<polygon class="Window" fill="#F6BD0F" id="70" transcription="" points="1082,1436 1124,1437 1124,1474 1082,1474 " />
<polygon class="Window" fill="#F6BD0F" id="71" transcription="" points="1371,1725 1371,1764 1468,1762 1467,1725 " />
<polygon class="Window" fill="#F6BD0F" id="72" transcription="" points="1685,1727 1686,1763 1783,1763 1782,1726 " />
<polygon class="Door" fill="#8BBA00" id="73" transcription="" points="1154,1364 1157,1474 1232,1475 1233,1437 1227,1398 1189,1367 " />
<polygon class="Door" fill="#8BBA00" id="74" transcription="" points="1424,1482 1424,1410 1358,1408 1364,1447 1390,1474 " />
<polygon class="Door" fill="#8BBA00" id="75" transcription="" points="1573,1483 1573,1417 1634,1417 1633,1442 1614,1473 " />
<polygon class="Door" fill="#8BBA00" id="76" transcription="" points="1735,1310 1653,1313 1649,1377 1676,1376 1707,1368 1734,1337 " />
<polygon class="Door" fill="#8BBA00" id="77" transcription="" points="1503,1339 1430,1336 1427,1414 1478,1401 1502,1373 " />
<polygon class="Door" fill="#8BBA00" id="78" transcription="" points="1293,1268 1292,1338 1358,1339 1354,1300 1316,1268 " />
<polygon class="Door" fill="#8BBA00" id="79" transcription="" points="997,978 996,869 920,868 921,904 932,945 963,971 " />
<polygon class="Window" fill="#F6BD0F" id="80" transcription="" points="737,911 773,910 774,975 737,976 " />
<polygon class="Door" fill="#8BBA00" id="81" transcription="" points="683,1096 682,999 608,997 606,1022 617,1065 652,1092 " />
<polygon class="Door" fill="#8BBA00" id="82" transcription="" points="971,1308 971,1232 901,1233 904,1267 929,1299 " />
<polygon class="Door" fill="#8BBA00" id="83" transcription="" points="926,1396 846,1397 847,1325 886,1330 918,1362 " />
<polygon class="Room" fill="#FF8E46" id="84" transcription="" points="1890,1476 1891,1725 1568,1724 1572,1426 1648,1426 1651,1473 " />
<polygon class="Room" fill="#FF8E46" id="85" transcription="" points="1265,1473 1264,1722 1555,1726 1558,1475 1425,1474 1423,1419 1347,1419 1343,1474 " />
<polygon class="Room" fill="#FF8E46" id="86" transcription="" points="1887,1259 1891,1387 1841,1387 1844,1401 1892,1403 1891,1462 1765,1462 1764,1389 1752,1390 1752,1461 1674,1461 1677,1258 " />
<polygon class="Room" fill="#FF8E46" id="87" transcription="" points="1437,1259 1435,1461 1558,1461 1559,1414 1648,1412 1652,1259 " />
<polygon class="Room" fill="#FF8E46" id="88" transcription="" points="1425,1260 1426,1326 1264,1327 1266,1257 " />
<polygon class="Room" fill="#FF8E46" id="89" transcription="" points="1429,1341 1426,1406 1336,1405 1336,1459 1265,1462 1264,1341 " />
<polygon class="Room" fill="#FF8E46" id="90" transcription="" points="1063,1257.5 1063,1430.5 1254,1436.5 1251,1256.5 " />
<polygon class="Room" fill="#FF8E46" id="91" transcription="" points="1067,658 1064,1234 1639,1234 1639,906 1392,907 1395,659 " />
<polygon class="Room" fill="#FF8E46" id="92" transcription="" points="773,902 773,1124 882,1231 1029,1229 1029,904 " />
<polygon class="Room" fill="#FF8E46" id="93" transcription="" points="1030,1240 1027,1436 1012,1436 1012,1518 878,1519 881,1241 " />
<polygon class="Room" fill="#FF8E46" id="94" transcription="" points="351,1019 352,1588 845,1588 846,1248 739,1141 738,1022 " />
<polygon class="Separation" fill="#008E8E" id="95" transcription="" points="1029,936 1063,936 1062,1139 1029,1136 " />
<polygon class="Separation" fill="#008E8E" id="96" transcription="" points="1063,1235 1132,1235 1132,1256 1063,1256 " />
<polygon class="Separation" fill="#008E8E" id="97" transcription="" points="1150,1231 1241,1231 1241,1256 1150,1256 " />
<polygon class="Separation" fill="#008E8E" id="98" transcription="" points="1252,1335 1267,1334 1267,1405 1251,1403 " />
<relation type="incident" objects="27,26"/>
<relation type="incident" objects="26,67"/>
<relation type="incident" objects="67,25"/>
<relation type="incident" objects="25,68"/>
<relation type="incident" objects="23,24"/>
<relation type="incident" objects="24,68"/>
<relation type="incident" objects="23,21"/>
<relation type="incident" objects="21,22"/>
<relation type="incident" objects="22,23"/>
<relation type="incident" objects="21,69"/>
<relation type="incident" objects="19,20"/>
<relation type="incident" objects="20,69"/>
<relation type="incident" objects="19,18"/>
<relation type="incident" objects="18,70"/>
<relation type="incident" objects="70,17"/>
<relation type="incident" objects="17,73"/>
<relation type="incident" objects="73,16"/>
<relation type="incident" objects="16,15"/>
<relation type="incident" objects="71,15"/>
<relation type="incident" objects="71,14"/>
<relation type="incident" objects="14,72"/>
<relation type="incident" objects="72,13"/>
<relation type="incident" objects="13,12"/>
<relation type="incident" objects="12,9"/>
<relation type="incident" objects="9,61"/>
<relation type="incident" objects="61,7"/>
<relation type="incident" objects="7,6"/>
<relation type="incident" objects="6,62"/>
<relation type="incident" objects="62,5"/>
<relation type="incident" objects="5,4"/>
<relation type="incident" objects="4,3"/>
<relation type="incident" objects="3,63"/>
<relation type="incident" objects="1,2"/>
<relation type="incident" objects="2,63"/>
<relation type="incident" objects="1,64"/>
<relation type="incident" objects="64,0"/>
<relation type="incident" objects="0,37"/>
<relation type="incident" objects="37,36"/>
<relation type="incident" objects="36,35"/>
<relation type="incident" objects="35,37"/>
<relation type="incident" objects="35,79"/>
<relation type="incident" objects="79,34"/>
<relation type="incident" objects="34,33"/>
<relation type="incident" objects="33,80"/>
<relation type="incident" objects="80,32"/>
<relation type="incident" objects="31,32"/>
<relation type="incident" objects="31,81"/>
<relation type="incident" objects="81,30"/>
<relation type="incident" objects="30,65"/>
<relation type="incident" objects="65,29"/>
<relation type="incident" objects="29,28"/>
<relation type="incident" objects="66,27"/>
<relation type="incident" objects="66,28"/>
<relation type="incident" objects="32,38"/>
<relation type="incident" objects="38,39"/>
<relation type="incident" objects="39,83"/>
<relation type="incident" objects="83,22"/>
<relation type="incident" objects="39,42"/>
<relation type="incident" objects="42,38"/>
<relation type="incident" objects="42,82"/>
<relation type="incident" objects="82,41"/>
<relation type="incident" objects="41,40"/>
<relation type="incident" objects="40,18"/>
<relation type="incident" objects="19,40"/>
<relation type="incident" objects="16,55"/>
<relation type="incident" objects="16,54"/>
<relation type="incident" objects="54,53"/>
<relation type="incident" objects="53,52"/>
<relation type="incident" objects="52,74"/>
<relation type="incident" objects="74,50"/>
<relation type="incident" objects="50,77"/>
<relation type="incident" objects="77,46"/>
<relation type="incident" objects="46,45"/>
<relation type="incident" objects="45,77"/>
<relation type="incident" objects="45,78"/>
<relation type="incident" objects="78,44"/>
<relation type="incident" objects="44,43"/>
<relation type="incident" objects="43,10"/>
<relation type="incident" objects="10,46"/>
<relation type="incident" objects="50,49"/>
<relation type="incident" objects="49,47"/>
<relation type="incident" objects="47,75"/>
<relation type="incident" objects="75,56"/>
<relation type="incident" objects="56,57"/>
<relation type="incident" objects="57,59"/>
<relation type="incident" objects="59,12"/>
<relation type="incident" objects="59,58"/>
<relation type="incident" objects="12,60"/>
<relation type="incident" objects="57,76"/>
<relation type="incident" objects="76,8"/>
<relation type="incident" objects="8,7"/>
<relation type="incident" objects="6,8"/>
<relation type="incident" objects="7,10"/>
<relation type="incident" objects="10,6"/>
<relation type="neighbour" objects="94,92"/>
<relation type="neighbour" objects="92,93"/>
<relation type="neighbour" objects="93,94"/>
<relation type="neighbour" objects="92,91"/>
<relation type="neighbour" objects="91,90"/>
<relation type="neighbour" objects="90,93"/>
<relation type="neighbour" objects="90,89"/>
<relation type="neighbour" objects="89,88"/>
<relation type="neighbour" objects="88,90"/>
<relation type="neighbour" objects="88,91"/>
<relation type="neighbour" objects="91,87"/>
<relation type="neighbour" objects="87,85"/>
<relation type="neighbour" objects="85,89"/>
<relation type="neighbour" objects="89,87"/>
<relation type="neighbour" objects="88,87"/>
<relation type="neighbour" objects="87,86"/>
<relation type="neighbour" objects="86,84"/>
<relation type="neighbour" objects="84,87"/>
<relation type="neighbour" objects="84,85"/>
<relation type="access" objects="94,81,94"/>
<relation type="access" objects="93,83,94"/>
<relation type="access" objects="92,82,93"/>
<relation type="access" objects="90,73,90"/>
<relation type="access" objects="89,77,87"/>
<relation type="access" objects="89,78,88"/>
<relation type="access" objects="89,74,85"/>
<relation type="access" objects="87,75,84"/>
<relation type="access" objects="87,76,86"/>
<relation type="access" objects="92,79,92"/>
<relation type="incident" objects="95,36"/>
<relation type="incident" objects="95,40"/>
<relation type="incident" objects="10,97"/>
<relation type="incident" objects="97,11"/>
<relation type="incident" objects="11,96"/>
<relation type="incident" objects="96,40"/>
<relation type="outerP" objects="0,64,1,2,63,3,4,5,62,6,7,61,9,12,13,72,14,71,15,16,73,17,70,18,19,20,69,21,23,24,68,25,67,26,27,66,28,29,65,30,81,31,32,80,33,34,79,35,37"/>
<relation type="incident" objects="43,98"/>
<relation type="incident" objects="98,55"/>
<relation type="incident" objects="98,44"/>
<relation type="surround" objects="0,64,1,2,63,3,4,5,62,6,10,97,11,96,40,95,36,37,0,91"/>
<relation type="surround" objects="34,79,35,36,95,40,41,82,42,38,32,80,33,34,92"/>
<relation type="surround" objects="29,65,30,81,31,32,38,39,83,22,23,24,68,25,67,26,27,66,28,29,94"/>
<relation type="surround" objects="42,82,41,40,19,20,69,21,22,83,39,42,93"/>
<relation type="surround" objects="96,11,97,43,98,55,73,17,70,18,40,96,90"/>
<relation type="surround" objects="10,46,45,78,44,43,10,88"/>
<relation type="surround" objects="44,78,45,77,50,74,52,53,54,55,98,44,89"/>
<relation type="surround" objects="54,53,52,74,50,49,47,14,71,15,16,54,85"/>
<relation type="surround" objects="10,8,76,57,56,75,48,47,49,50,77,46,10,87"/>
<relation type="surround" objects="7,61,9,12,59,57,76,8,7,86"/>
<relation type="surround" objects="48,75,56,57,59,12,13,72,14,47,48,84"/>
<relation type="access" objects="92,95,91"/>
<relation type="access" objects="90,97,91"/>
<relation type="access" objects="90,98,89"/>
</svg>