<?xml version="1.0" encoding="UTF-8"?><!DOCTYPE svg PUBLIC "-//W3C//DTD SVG 1.1//EN" "http://www.w3.org/Graphics/SVG/1.1/DTD/svg11.dtd">
<svg xmlns="http://www.w3.org/2000/svg" version="1.1">
<width>1621</width>
<height>1349</height>
<nclasslabel>50</nclasslabel>
<nclassappear>5</nclassappear>
<class>Bidet-1</class>
<class>Bidet-2</class>
<class>Bidet-3</class>
<class>Bidet-4</class>
<class>Door</class>
<class>Door-1</class>
<class>Door-23</class>
<class>Oven-1</class>
<class>Oven-2</class>
<class>Oven-3</class>
<class>Oven-4</class>
<class>Parking</class>
<class>Roof</class>
<class>Room</class>
<class>Separation</class>
<class>Sink-1</class>
<class>Sink-11</class>
<class>Sink-12</class>
<class>Sink-13</class>
<class>Sink-14</class>
<class>Sink-2</class>
<class>Sink-3</class>
<class>Sink-4</class>
<class>Sink-5</class>
<class>Sink-6</class>
<class>Sofa-1</class>
<class>Sofa-3</class>
<class>Sofa-4</class>
<class>Sofa-5</class>
<class>Sofa-6</class>
<class>Sofa-7</class>
<class>Sofa-8</class>
<class>Sofa-9</class>
<class>Stairs-1</class>
<class>Table-1</class>
<class>Table-2</class>
<class>Table-3</class>
<class>Table-4</class>
<class>Table-5</class>
<class>Table-6</class>
<class>Table-7</class>
<class>Text</class>
<class>Tub-1</class>
<class>Tub-3</class>
<class>TV-1</class>
<class>TV-2</class>
<class>Wall</class>
<class>Wall-1</class>
<class>Wallieee</class>
<class>Window</class>
<polygon class="Wall" fill="#AFD8F8" id="0" transcription="" points="709.5,296.5 744.5,295.5 743.5,1041.5 708.5,1041.5 " />
<polygon class="Wall" fill="#AFD8F8" id="1" transcription="" points="1356,1044 708,1043 706,1013 1357,1013 " />
<polygon class="Wall" fill="#AFD8F8" id="2" transcription="" points="1325,890 1357,888 1357,1042 1324,1045 " />
<polygon class="Wall" fill="#AFD8F8" id="3" transcription="" points="1356,707 1323,705 1325,824 1359,823 " />
<polygon class="Wall" fill="#AFD8F8" id="4" transcription="" points="1359,644 1324,645 1324,463 1359,460 " />
<polygon class="Wall" fill="#AFD8F8" id="5" transcription="" points="1336,340 1338,461 1361,460 1359,340 " />
<polygon class="Wall" fill="#AFD8F8" id="6" transcription="" points="1110,297 1074,295 1074,461 1108,463 " />
<polygon class="Wall" fill="#AFD8F8" id="7" transcription="" points="963,442 1077,441 1080,450 963,451 " />
<polygon class="Wall" fill="#AFD8F8" id="8" transcription="" points="965,570 963,440 975,440 973,569 " />
<polygon class="Wall" fill="#AFD8F8" id="9" transcription="" points="1108,506 963,507 960,496 1110,499 " />
<polygon class="Wall" fill="#AFD8F8" id="10" transcription="" points="1111,504 1110,461 1100,462 1100,505 " />
<polygon class="Wall" fill="#AFD8F8" id="11" transcription="" points="1333,466 1330,479 1111,479 1108,466 " />
<polygon class="Wall" fill="#AFD8F8" id="12" transcription="" points="1049.5,645 1051.5,505 1041.5,506 1040.5,645 " />
<polygon class="Wall" fill="#AFD8F8" id="13" transcription="" points="963,639 1050,637 1053,648 963,648 " />
<polygon class="Wall" fill="#AFD8F8" id="14" transcription="" points="967,627 975,628 974,652 966,654 " />
<polygon class="Wall" fill="#AFD8F8" id="15" transcription="" points="1145,717 1323,715 1323,727 1144,728 " />
<polygon class="Wall" fill="#AFD8F8" id="16" transcription="" points="1154,776 1154,717 1144,719 1144,779 " />
<polygon class="Wall" fill="#AFD8F8" id="17" transcription="" points="965,777 1156,780 1154,770 963,769 " />
<polygon class="Wall" fill="#AFD8F8" id="18" transcription="" points="967,711 976,710 972,781 965,781 " />
<polygon class="Wall" fill="#AFD8F8" id="19" transcription="" points="959,853 1039,854 1037,848 960,846 " />
<polygon class="Wall" fill="#AFD8F8" id="20" transcription="" points="1037,1015 1041,845 1028,848 1028,1019 " />
<polygon class="Wall" fill="#AFD8F8" id="21" transcription="" points="899,855 817,854 816,843 898,844 " />
<polygon class="Wall" fill="#AFD8F8" id="22" transcription="" points="815,810 826,810 827,1012 814,1013 " />
<polygon class="Door" fill="#F6BD0F" id="23" transcription="" points="1041,631 964,636 967,572 1002,568 1032,592 " />
<polygon class="Door" fill="#F6BD0F" id="24" transcription="" points="1035,710 966,712 965,647 1003,652 1029,679 " />
<polygon class="Door" fill="#F6BD0F" id="25" transcription="" points="959,914 962,844 897,844 901,881 926,906 " />
<polygon class="Wall" fill="#AFD8F8" id="26" transcription="" points="874,906 872,918 822,918 822,905 " />
<polygon class="Window" fill="#8BBA00" id="27" transcription="" points="1363,643 1323,645 1323,707 1365,708 " />
<polygon class="Window" fill="#8BBA00" id="28" transcription="" points="1361,824 1323,828 1324,891 1360,890 " />
<polygon class="Room" fill="#FF8E46" id="29" transcription="" points="747.5,297 745.5,1006 809.5,1007 810.5,838 961,842 957.5,442 1069.5,435 1070.5,297 " />
<polygon class="Door" fill="#F6BD0F" id="30" transcription="" points="1043,779 967,780 963,842 1005,834 1032,814 " />
<polygon class="Room" fill="#FF8E46" id="31" transcription="" points="1322,732 1321,1010 1042,1008 1043,841 968,839 977,784 1159,782 1161,733 " />
<polygon class="Room" fill="#FF8E46" id="32" transcription="" points="1036,512 1041,632 979,635 980,513 " />
<polygon class="Room" fill="#FF8E46" id="33" transcription="" points="1321,482 1323,709 1145,714 1142,766 976,763 979,651 1056,649 1059,510 1116,508 1116,485 " />
<polygon class="Room" fill="#FF8E46" id="34" transcription="" points="1030,1009 835,1007 830,858 1022,858 " />
<polygon class="Separation" fill="#008E8E" id="35" transcription="" points="744,284 1074,284 1074,316 744,316 " />
<relation type="incident" objects="0,1"/>
<relation type="incident" objects="28,2"/>
<relation type="incident" objects="0,1"/>
<relation type="incident" objects="1,2"/>
<relation type="incident" objects="2,28"/>
<relation type="incident" objects="28,3"/>
<relation type="incident" objects="3,27"/>
<relation type="incident" objects="27,4"/>
<relation type="incident" objects="4,5"/>
<relation type="incident" objects="1,22"/>
<relation type="incident" objects="22,26"/>
<relation type="incident" objects="22,21"/>
<relation type="incident" objects="21,25"/>
<relation type="incident" objects="25,19"/>
<relation type="incident" objects="19,20"/>
<relation type="incident" objects="20,1"/>
<relation type="incident" objects="19,30"/>
<relation type="incident" objects="18,30"/>
<relation type="incident" objects="18,17"/>
<relation type="incident" objects="17,16"/>
<relation type="incident" objects="16,15"/>
<relation type="incident" objects="15,3"/>
<relation type="incident" objects="18,24"/>
<relation type="incident" objects="24,14"/>
<relation type="incident" objects="14,13"/>
<relation type="incident" objects="13,12"/>
<relation type="incident" objects="14,23"/>
<relation type="incident" objects="23,8"/>
<relation type="incident" objects="8,9"/>
<relation type="incident" objects="9,12"/>
<relation type="incident" objects="8,7"/>
<relation type="incident" objects="7,6"/>
<relation type="incident" objects="6,11"/>
<relation type="incident" objects="11,4"/>
<relation type="incident" objects="9,10"/>
<relation type="incident" objects="10,11"/>
<relation type="neighbour" objects="29,34"/>
<relation type="neighbour" objects="34,31"/>
<relation type="neighbour" objects="31,29"/>
<relation type="neighbour" objects="29,33"/>
<relation type="neighbour" objects="33,31"/>
<relation type="neighbour" objects="33,32"/>
<relation type="neighbour" objects="32,29"/>
<relation type="access" objects="29,23,32"/>
<relation type="access" objects="29,24,33"/>
<relation type="access" objects="29,30,31"/>
<relation type="access" objects="29,25,34"/>
<relation type="incident" objects="35,0"/>
<relation type="incident" objects="35,6"/>
<relation type="surround" objects="35,6,7,8,23,14,24,18,30,19,25,21,22,1,0,35,29"/>
<relation type="outerP" objects="35,6,11,5,4,27,3,28,2,1,0"/>
<relation type="surround" objects="9,12,13,14,23,8,9,32"/>
<relation type="surround" objects="9,10,11,4,27,15,16,17,18,24,14,13,33"/>
<relation type="surround" objects="17,16,15,3,28,2,1,20,19,30,18,17,31"/>
<relation type="surround" objects="21,25,19,20,1,22,21,34"/>
<relation type="access" objects="29,35,29"/>
</svg>