<?xml version="1.0" encoding="UTF-8"?><!DOCTYPE svg PUBLIC "-//W3C//DTD SVG 1.1//EN" "http://www.w3.org/Graphics/SVG/1.1/DTD/svg11.dtd">
<svg xmlns="http://www.w3.org/2000/svg" version="1.1">
<width>2479</width>
<height>3508</height>
<nclasslabel>50</nclasslabel>
<nclassappear>5</nclassappear>
<class>Bidet-1</class>
<class>Bidet-2</class>
<class>Bidet-3</class>
<class>Bidet-4</class>
<class>Door</class>
<class>Door-1</class>
<class>Door-23</class>
<class>Oven-1</class>
<class>Oven-2</class>
<class>Oven-3</class>
<class>Oven-4</class>
<class>Parking</class>
<class>Roof</class>
<class>Room</class>
<class>Separation</class>
<class>Sink-1</class>
<class>Sink-11</class>
<class>Sink-12</class>
<class>Sink-13</class>
<class>Sink-14</class>
<class>Sink-2</class>
<class>Sink-3</class>
<class>Sink-4</class>
<class>Sink-5</class>
<class>Sink-6</class>
<class>Sofa-1</class>
<class>Sofa-3</class>
<class>Sofa-4</class>
<class>Sofa-5</class>
<class>Sofa-6</class>
<class>Sofa-7</class>
<class>Sofa-8</class>
<class>Sofa-9</class>
<class>Stairs-1</class>
<class>Table-1</class>
<class>Table-2</class>
<class>Table-3</class>
<class>Table-4</class>
<class>Table-5</class>
<class>Table-6</class>
<class>Table-7</class>
<class>Text</class>
<class>Tub-1</class>
<class>Tub-3</class>
<class>TV-1</class>
<class>TV-2</class>
<class>Wall</class>
<class>Wall-1</class>
<class>Wallieee</class>
<class>Window</class>
<polygon class="Wall" fill="#AFD8F8" id="0" transcription="" points="1805,1971 1853,1971 1853,2011 1805,2008 " />
<polygon class="Window" fill="#F6BD0F" id="1" transcription="" points="1186,735 1197,701 1197,659 1125,659 1125,698 " />
<polygon class="Window" fill="#F6BD0F" id="2" transcription="" points="639,715 598,712 586,858 598,996 639,994 " />
<polygon class="Window" fill="#F6BD0F" id="3" transcription="" points="681,1267 681,1294 649,1352 598,1349 594,1213 651,1211 " />
<polygon class="Window" fill="#F6BD0F" id="4" transcription="" points="1034,1910 984,1908 989,2115 1029,2115 " />
<polygon class="Window" fill="#F6BD0F" id="5" transcription="" points="1188,2465 1209,2465 1278,2502 1279,2549 1135,2553 1135,2499 " />
<polygon class="Window" fill="#F6BD0F" id="6" transcription="" points="1438,2495 1680,2495 1680,2550 1441,2548 " />
<polygon class="Window" fill="#F6BD0F" id="7" transcription="" points="1770,1889 1802,1833 1858,1831 1856,1969 1803,1971 1771,1910 " />
<polygon class="Window" fill="#F6BD0F" id="8" transcription="" points="1770,2062 1805,2005 1858,2009 1858,2151 1805,2151 1770,2086 " />
<polygon class="Window" fill="#F6BD0F" id="9" transcription="" points="1768,1410 1768,1432 1802,1492 1855,1492 1856,1354 1803,1355 " />
<polygon class="Window" fill="#F6BD0F" id="10" transcription="" points="1767,892 1770,913 1800,969 1858,971 1856,826 1803,828 " />
<polygon class="Window" fill="#F6BD0F" id="11" transcription="" points="1773,1137 1787,1123 1853,1118 1856,1202 1805,1203 " />
<polygon class="Window" fill="#F6BD0F" id="12" transcription="" points="1114,1579 1090,1631 1037,1622 1050,1566 1091,1568 " />
<polygon class="Door" fill="#8BBA00" id="13" transcription="" points="1175,1714 1138,1744 1099,1754 1039,1755 1040,1648 1188,1648 1188,1682 " />
<polygon class="Door" fill="#8BBA00" id="14" transcription="" points="1395,1499 1292,1502 1290,1404 1337,1409 1380,1448 " />
<polygon class="Door" fill="#8BBA00" id="15" transcription="" points="1103,1350 1138,1318 1186,1308 1191,1408 1091,1406 " />
<polygon class="Door" fill="#8BBA00" id="16" transcription="" points="1378,991 1407,1021 1406,1075 1324,1076 1327,979 " />
<polygon class="Door" fill="#8BBA00" id="17" transcription="" points="1515,1101 1505,1145 1476,1178 1420,1194 1419,1101 " />
<polygon class="Door" fill="#8BBA00" id="18" transcription="" points="1233,1432 1181,1414 1186,1521 " />
<polygon class="Wall" fill="#AFD8F8" id="19" transcription="" points="1194,1047 603,1050 603,1078 1196,1075 " />
<polygon class="Wall" fill="#AFD8F8" id="20" transcription="" points="633,1057 604,1052 604,995 630,995 " />
<polygon class="Wall" fill="#AFD8F8" id="21" transcription="" points="604,1078 648,1076 647,1212 603,1211 " />
<polygon class="Wall" fill="#AFD8F8" id="22" transcription="" points="602,1351 650,1348 651,1531 603,1528 " />
<polygon class="Wall" fill="#AFD8F8" id="23" transcription="" points="1032,1487 600,1487 602,1530 1032,1529 " />
<polygon class="Wall" fill="#AFD8F8" id="24" transcription="" points="988,1559 988,1486 1031,1486 1030,1558 " />
<polygon class="Wall" fill="#AFD8F8" id="25" transcription="" points="1088,1516.5 986,1515.5 988,1557.5 1090,1559.5 " />
<polygon class="Wall" fill="#AFD8F8" id="26" transcription="" points="1088,1517 1045,1517 1045,1585 1088,1583 " />
<polygon class="Wall" fill="#AFD8F8" id="27" transcription="" points="1076,1610 1045,1612 1047,1664 1080,1664 " />
<polygon class="Wall" fill="#AFD8F8" id="28" transcription="" points="1090,1756 1090,1883 1049,1883 1046,1755 " />
<polygon class="Wall" fill="#AFD8F8" id="29" transcription="" points="987,1842 1092,1843 1091,1883 994,1887 " />
<polygon class="Wall" fill="#AFD8F8" id="30" transcription="" points="1031,1900 1029,1841 986,1840 987,1900 " />
<polygon class="Wall" fill="#AFD8F8" id="31" transcription="" points="987,2545 988,2113 1030,2114 1030,2545 " />
<polygon class="Wall" fill="#AFD8F8" id="32" transcription="" points="1132,2502 1131,2544 986,2545 987,2500 " />
<polygon class="Wall" fill="#AFD8F8" id="33" transcription="" points="1269,2503 1440,2503 1440,2547 1271,2545 " />
<polygon class="Wall" fill="#AFD8F8" id="34" transcription="" points="1852,2545 1684,2544 1684,2503 1849,2504 " />
<polygon class="Wall" fill="#AFD8F8" id="35" transcription="" points="1808,2154 1850,2154 1852,2543 1809,2545 " />
<polygon class="Wall" fill="#AFD8F8" id="36" transcription="" points="1808,1493 1852,1492 1850,1828 1806,1829 " />
<polygon class="Wall" fill="#AFD8F8" id="37" transcription="" points="1808,1203 1852,1201 1849,1352 1808,1352 " />
<polygon class="Wall" fill="#AFD8F8" id="38" transcription="" points="1807,974 1850,974 1852,1122 1809,1125 " />
<polygon class="Wall" fill="#AFD8F8" id="39" transcription="" points="1849,666 1849,832 1807,831 1807,665 " />
<polygon class="Wall" fill="#AFD8F8" id="40" transcription="" points="1294,708 1847,709 1847,664 1294,666 " />
<polygon class="Wall" fill="#AFD8F8" id="41" transcription="" points="1196.5,664 1294.5,665 1295.5,690 1197.5,690 " />
<polygon class="Wall" fill="#AFD8F8" id="42" transcription="" points="1292.5,1073 1322.5,1073 1319.5,665 1291.5,665 " />
<polygon class="Door" fill="#8BBA00" id="43" transcription="" points="1292,977 1293,1071 1200,1072 1203,1022 1238,988 " />
<polygon class="Wall" fill="#AFD8F8" id="44" transcription="" points="1683,982 1850,986 1852,997 1683,993 " />
<polygon class="Wall" fill="#AFD8F8" id="45" transcription="" points="1681,1099 1694,1099 1693,983 1681,983 " />
<polygon class="Wall" fill="#AFD8F8" id="46" transcription="" points="1419,1036 1695,1039 1695,1050 1418,1047 " />
<polygon class="Wall" fill="#AFD8F8" id="47" transcription="" points="1552,1098 1553,1034 1543,1035 1543,1098 " />
<polygon class="Wall" fill="#AFD8F8" id="48" transcription="" points="1427,1101 1427,1036 1416,1036 1416,1102 " />
<polygon class="Wall" fill="#AFD8F8" id="49" transcription="" points="1417,1197 1414,1257 1430,1257 1427,1195 " />
<polygon class="Wall" fill="#AFD8F8" id="50" transcription="" points="1293,1196 1428,1196 1427,1207 1293,1207 " />
<polygon class="Wall" fill="#AFD8F8" id="51" transcription="" points="1304,1405 1294,1405 1291,1195 1304,1195 " />
<polygon class="Wall" fill="#AFD8F8" id="52" transcription="" points="1290,1591 1850,1594 1852,1581 1289,1580 " />
<polygon class="Wall" fill="#AFD8F8" id="53" transcription="" points="1293,1502 1293,1591 1304,1591 1304,1500 " />
<polygon class="Wall" fill="#AFD8F8" id="54" transcription="" points="1447,1641 1447,1587 1459,1589 1459,1641 " />
<polygon class="Wall" fill="#AFD8F8" id="55" transcription="" points="1511,1641 1500,1641 1499,1588 1512,1589 " />
<polygon class="Wall" fill="#AFD8F8" id="56" transcription="" points="1513,1645 1445,1645 1443,1631 1514,1631 " />
<polygon class="Wall" fill="#AFD8F8" id="57" transcription="" points="1192,1309 1193,1051 1181,1049 1181,1309 " />
<polygon class="Wall" fill="#AFD8F8" id="58" transcription="" points="1018,1407 1183,1406 1184,1419 1021,1419 " />
<polygon class="Wall" fill="#AFD8F8" id="59" transcription="" points="1021,1404 1020,1487 1033,1486 1033,1404 " />
<polygon class="Wall" fill="#AFD8F8" id="60" transcription="" points="1179,1522 1179,1642 1190,1642 1191,1522 " />
<polygon class="Wall" fill="#AFD8F8" id="61" transcription="" points="1188,1632 1045,1635 1043,1643 1186,1643 " />
<polygon class="Wall" fill="#AFD8F8" id="62" transcription="" points="1287,1798 1288,1882 1298,1881 1299,1798 " />
<polygon class="Wall" fill="#AFD8F8" id="63" transcription="" points="1091,1875 1298,1872 1296,1884 1089,1885 " />
<polygon class="Wall" fill="#AFD8F8" id="64" transcription="" points="1362,2137 1362,2547 1375,2541 1373,2136 " />
<polygon class="Room" fill="#FF8E46" id="65" transcription="" points="640,703 1278,699 1278,1037 640,1040 " />
<polygon class="Room" fill="#FF8E46" id="66" transcription="" points="1331,718 1799,718 1799,968 1671,971 1671,1031 1399,1034 1403,1065 1328,1065 " />
<polygon class="Room" fill="#FF8E46" id="67" transcription="" points="649,1087 1171,1081 1171,1396 1015,1393 1015,1477 649,1477 " />
<polygon class="Room" fill="#FF8E46" id="68" transcription="" points="1199,1084 1409,1084 1409,1184 1284,1187 1284,1587 1193,1587 " />
<polygon class="Room" fill="#FF8E46" id="69" transcription="" points="1418,1268 1802,1268 1802,1574 1309,1571 1309,1212 1412,1212 " />
<polygon class="Room" fill="#FF8E46" id="70" transcription="" points="1802,1599 1802,2496 1378,2490 1384,1877 1312,1877 1309,1599 " />
<polygon class="Room" fill="#FF8E46" id="71" transcription="" points="1042.5,1892.5 1358.5,1886.5 1355.5,2486.5 1039.5,2489.5 " />
<polygon class="Room" fill="#FF8E46" id="72" transcription="" points="1271,1602 1281,1862 1096,1865 1099,1656 1199,1652 1199,1602 " />
<polygon class="Room" fill="#FF8E46" id="73" transcription="" points="1044,1432 1176,1432 1173,1619 1100,1620 1098,1507 1040,1507 " />
<polygon class="Wall" fill="#AFD8F8" id="74" transcription="" points="1422,1247 1850,1247 1849,1265 1427,1263 " />
<polygon class="Wall" fill="#AFD8F8" id="75" transcription="" points="604,666 1123,663 1124,694 603,693 " />
<polygon class="Wall" fill="#AFD8F8" id="76" transcription="" points="632,661 630,712 602,715 604,663 " />
<polygon class="Room" fill="#FF8E46" id="77" transcription="" points="1433,1057 1711,1049 1707,1001 1800,1003 1796,1239 1435,1239 " />
<polygon class="Separation" fill="#008E8E" id="78" transcription="" points="1284,1588 1314,1588 1314,1802 1284,1802 " />
<polygon class="Separation" fill="#008E8E" id="79" transcription="" points="1290,1867 1384,1867 1384,1889 1290,1889 " />
<polygon class="Separation" fill="#008E8E" id="80" transcription="" points="1354,1882 1379,1882 1379,2135 1354,2135 " />
<polygon class="Separation" fill="#008E8E" id="81" transcription="" points="1184,1576 1287,1576 1287,1604 1184,1604 " />
<relation type="incident" objects="75,76"/>
<relation type="incident" objects="76,2"/>
<relation type="incident" objects="2,20"/>
<relation type="incident" objects="20,19"/>
<relation type="incident" objects="19,21"/>
<relation type="incident" objects="21,3"/>
<relation type="incident" objects="3,22"/>
<relation type="incident" objects="22,23"/>
<relation type="incident" objects="23,24"/>
<relation type="incident" objects="24,25"/>
<relation type="incident" objects="25,26"/>
<relation type="incident" objects="26,12"/>
<relation type="incident" objects="12,27"/>
<relation type="incident" objects="27,61"/>
<relation type="incident" objects="27,13"/>
<relation type="incident" objects="13,28"/>
<relation type="incident" objects="28,29"/>
<relation type="incident" objects="29,30"/>
<relation type="incident" objects="30,4"/>
<relation type="incident" objects="4,31"/>
<relation type="incident" objects="31,32"/>
<relation type="incident" objects="5,32"/>
<relation type="incident" objects="5,33"/>
<relation type="incident" objects="33,64"/>
<relation type="incident" objects="33,6"/>
<relation type="incident" objects="6,34"/>
<relation type="incident" objects="34,35"/>
<relation type="incident" objects="35,8"/>
<relation type="incident" objects="8,0"/>
<relation type="incident" objects="7,0"/>
<relation type="incident" objects="7,36"/>
<relation type="incident" objects="36,52"/>
<relation type="incident" objects="36,9"/>
<relation type="incident" objects="9,37"/>
<relation type="incident" objects="37,74"/>
<relation type="incident" objects="37,11"/>
<relation type="incident" objects="11,38"/>
<relation type="incident" objects="38,44"/>
<relation type="incident" objects="38,10"/>
<relation type="incident" objects="10,39"/>
<relation type="incident" objects="39,40"/>
<relation type="incident" objects="40,42"/>
<relation type="incident" objects="42,41"/>
<relation type="incident" objects="40,41"/>
<relation type="incident" objects="41,1"/>
<relation type="incident" objects="1,75"/>
<relation type="incident" objects="19,43"/>
<relation type="incident" objects="19,57"/>
<relation type="incident" objects="43,42"/>
<relation type="incident" objects="42,16"/>
<relation type="incident" objects="16,48"/>
<relation type="incident" objects="48,17"/>
<relation type="incident" objects="48,46"/>
<relation type="incident" objects="46,47"/>
<relation type="incident" objects="46,45"/>
<relation type="incident" objects="45,44"/>
<relation type="incident" objects="17,50"/>
<relation type="incident" objects="50,49"/>
<relation type="incident" objects="49,17"/>
<relation type="incident" objects="49,74"/>
<relation type="incident" objects="57,43"/>
<relation type="incident" objects="57,15"/>
<relation type="incident" objects="15,58"/>
<relation type="incident" objects="58,18"/>
<relation type="incident" objects="58,59"/>
<relation type="incident" objects="59,23"/>
<relation type="incident" objects="24,59"/>
<relation type="incident" objects="18,60"/>
<relation type="incident" objects="60,61"/>
<relation type="incident" objects="29,63"/>
<relation type="incident" objects="28,63"/>
<relation type="incident" objects="63,62"/>
<relation type="incident" objects="52,55"/>
<relation type="incident" objects="55,56"/>
<relation type="incident" objects="54,56"/>
<relation type="incident" objects="54,52"/>
<relation type="incident" objects="52,53"/>
<relation type="incident" objects="53,14"/>
<relation type="incident" objects="14,51"/>
<relation type="incident" objects="51,50"/>
<relation type="neighbour" objects="65,66"/>
<relation type="neighbour" objects="66,77"/>
<relation type="neighbour" objects="77,68"/>
<relation type="neighbour" objects="68,66"/>
<relation type="neighbour" objects="68,65"/>
<relation type="neighbour" objects="68,67"/>
<relation type="neighbour" objects="67,65"/>
<relation type="neighbour" objects="68,69"/>
<relation type="neighbour" objects="69,70"/>
<relation type="neighbour" objects="70,72"/>
<relation type="neighbour" objects="72,68"/>
<relation type="neighbour" objects="72,73"/>
<relation type="neighbour" objects="68,73"/>
<relation type="neighbour" objects="73,67"/>
<relation type="neighbour" objects="72,71"/>
<relation type="neighbour" objects="71,70"/>
<relation type="neighbour" objects="69,77"/>
<relation type="access" objects="65,43,68"/>
<relation type="access" objects="66,16,68"/>
<relation type="access" objects="68,17,77"/>
<relation type="access" objects="69,14,68"/>
<relation type="access" objects="68,15,67"/>
<relation type="access" objects="73,18,68"/>
<relation type="access" objects="72,13,72"/>
<relation type="incident" objects="80,79"/>
<relation type="incident" objects="79,62"/>
<relation type="incident" objects="63,79"/>
<relation type="incident" objects="80,64"/>
<relation type="incident" objects="62,78"/>
<relation type="incident" objects="78,52"/>
<relation type="incident" objects="78,53"/>
<relation type="outerP" objects="75,1,41,40,39,10,38,11,37,9,36,7,0,8,35,34,6,33,5,32,31,4,30,29,28,13,27,12,26,25,23,22,3,21,20,2,76"/>
<relation type="surround" objects="75,1,41,42,43,19,20,2,76,75,65"/>
<relation type="surround" objects="40,39,10,44,45,46,48,16,42,40,66"/>
<relation type="surround" objects="19,57,15,58,59,23,22,3,21,19,67"/>
<relation type="surround" objects="46,45,44,38,11,37,74,49,17,48,46,77"/>
<relation type="surround" objects="50,49,74,37,9,36,52,53,14,51,50,69"/>
<relation type="surround" objects="43,42,16,48,17,50,51,14,53,81,60,18,58,15,57,43,68"/>
<relation type="incident" objects="60,81"/>
<relation type="incident" objects="53,81"/>
<relation type="incident" objects="81,78"/>
<relation type="surround" objects="58,18,60,61,27,12,26,25,59,58,73"/>
<relation type="surround" objects="81,78,62,63,28,13,61,72"/>
<relation type="surround" objects="52,36,7,0,8,35,34,6,33,64,80,79,62,78,52,70"/>
<relation type="surround" objects="29,63,79,80,64,33,5,32,31,4,30,29,71"/>
<relation type="access" objects="72,81,68"/>
<relation type="access" objects="72,78,70"/>
<relation type="access" objects="71,80,70"/>
</svg>