<?xml version="1.0" encoding="UTF-8"?><!DOCTYPE svg PUBLIC "-//W3C//DTD SVG 1.1//EN" "http://www.w3.org/Graphics/SVG/1.1/DTD/svg11.dtd">
<svg xmlns="http://www.w3.org/2000/svg" version="1.1">
<width>2479</width>
<height>3508</height>
<nclasslabel>50</nclasslabel>
<nclassappear>5</nclassappear>
<class>Bidet-1</class>
<class>Bidet-2</class>
<class>Bidet-3</class>
<class>Bidet-4</class>
<class>Door</class>
<class>Door-1</class>
<class>Door-23</class>
<class>Oven-1</class>
<class>Oven-2</class>
<class>Oven-3</class>
<class>Oven-4</class>
<class>Parking</class>
<class>Roof</class>
<class>Room</class>
<class>Separation</class>
<class>Sink-1</class>
<class>Sink-11</class>
<class>Sink-12</class>
<class>Sink-13</class>
<class>Sink-14</class>
<class>Sink-2</class>
<class>Sink-3</class>
<class>Sink-4</class>
<class>Sink-5</class>
<class>Sink-6</class>
<class>Sofa-1</class>
<class>Sofa-3</class>
<class>Sofa-4</class>
<class>Sofa-5</class>
<class>Sofa-6</class>
<class>Sofa-7</class>
<class>Sofa-8</class>
<class>Sofa-9</class>
<class>Stairs-1</class>
<class>Table-1</class>
<class>Table-2</class>
<class>Table-3</class>
<class>Table-4</class>
<class>Table-5</class>
<class>Table-6</class>
<class>Table-7</class>
<class>Text</class>
<class>Tub-1</class>
<class>Tub-3</class>
<class>TV-1</class>
<class>TV-2</class>
<class>Wall</class>
<class>Wall-1</class>
<class>Wallieee</class>
<class>Window</class>
<polygon class="Wall" fill="#AFD8F8" id="0" transcription="" points="2055,1913 2055,1679 2007,1678 2007,1915 " />
<polygon class="Window" fill="#F6BD0F" id="1" transcription="" points="1935,1910 2065,1909 2060,2050 1937,2053 " />
<polygon class="Window" fill="#F6BD0F" id="2" transcription="" points="2004,1541 2062,1540 2063,1679 1999,1684 " />
<polygon class="Window" fill="#F6BD0F" id="3" transcription="" points="1579,2260 1579,2313 1795,2311 1794,2260 " />
<polygon class="Window" fill="#F6BD0F" id="4" transcription="" points="1006,2260 1008,2322 1160,2321 1162,2260 " />
<polygon class="Window" fill="#F6BD0F" id="5" transcription="" points="565,2257 564,2319 713,2319 714,2257 " />
<polygon class="Window" fill="#F6BD0F" id="6" transcription="" points="373,1590 431,1585 431,1734 376,1734 " />
<polygon class="Window" fill="#F6BD0F" id="7" transcription="" points="862,1400 941,1402 941,1455 862,1460 " />
<polygon class="Window" fill="#F6BD0F" id="8" transcription="" points="1016,1525 1013,1571 1066,1571 1066,1525 " />
<polygon class="Window" fill="#F6BD0F" id="9" transcription="" points="1269,1373 1325,1375 1325,1472 1268,1476 " />
<polygon class="Window" fill="#F6BD0F" id="10" transcription="" points="1263,930 1314,932 1313,1219 1266,1219 " />
<polygon class="Window" fill="#F6BD0F" id="11" transcription="" points="2020,1264 2063,1262 2061,1343 2025,1339 " />
<polygon class="Door" fill="#8BBA00" id="12" transcription="" points="708,1792 670,1824 662,1880 763,1888 761,1785 " />
<polygon class="Door" fill="#8BBA00" id="13" transcription="" points="769,1937 806,1973 856,1979 860,1877 763,1878 " />
<polygon class="Door" fill="#8BBA00" id="14" transcription="" points="955,1979 957,1878 1059,1877 1053,1925 1013,1966 " />
<polygon class="Door" fill="#8BBA00" id="15" transcription="" points="905,1692 870,1723 856,1782 958,1788 961,1683 " />
<polygon class="Door" fill="#8BBA00" id="16" transcription="" points="1066,1771 966,1771 1045,1830 1062,1806 " />
<polygon class="Door" fill="#8BBA00" id="17" transcription="" points="1218,1662 1160,1674 1159,1557 1264,1554 1263,1609 " />
<polygon class="Door" fill="#8BBA00" id="18" transcription="" points="1377,1484 1322,1469 1322,1577 1415,1580 1418,1530 " />
<polygon class="Door" fill="#8BBA00" id="19" transcription="" points="1790,1347 1798,1397 1705,1399 1704,1302 1749,1306 " />
<polygon class="Wall" fill="#AFD8F8" id="20" transcription="" points="2052,2306 2049,2047 2013,2047 2013,2309 " />
<polygon class="Wall" fill="#AFD8F8" id="21" transcription="" points="1794,2267 2052,2266 2050,2305 1796,2306 " />
<polygon class="Wall" fill="#AFD8F8" id="22" transcription="" points="1163,2267 1577,2269 1577,2311 1160,2308 " />
<polygon class="Wall" fill="#AFD8F8" id="23" transcription="" points="712,2264 1012,2267 1012,2308 715,2308 " />
<polygon class="Wall" fill="#AFD8F8" id="24" transcription="" points="381,2306 567,2308 568,2267 381,2267 " />
<polygon class="Wall" fill="#AFD8F8" id="25" transcription="" points="425,1733 422,2306 379,2306 381,1736 " />
<polygon class="Wall" fill="#AFD8F8" id="26" transcription="" points="383,1409 862,1408 862,1452 381,1450 " />
<polygon class="Wall" fill="#AFD8F8" id="27" transcription="" points="383,1408 379,1586 425,1589 429,1408 " />
<polygon class="Wall" fill="#AFD8F8" id="28" transcription="" points="1006.5,1409 1006.5,1572 958,1572 960,1410 " />
<polygon class="Wall" fill="#AFD8F8" id="29" transcription="" points="940,1409 1001,1411 1000,1453 943,1452 " />
<polygon class="Wall" fill="#AFD8F8" id="30" transcription="" points="1162,1530 1164,1569 1073,1572 1072,1530 " />
<polygon class="Wall" fill="#AFD8F8" id="31" transcription="" points="1030,1527 961,1528 959,1567 1028,1570 " />
<polygon class="Wall" fill="#AFD8F8" id="32" transcription="" points="1268,1531 1323,1531 1323,1574 1268,1572 " />
<polygon class="Wall" fill="#AFD8F8" id="33" transcription="" points="1281,1472 1281,1572 1325,1574 1321,1472 " />
<polygon class="Wall" fill="#AFD8F8" id="34" transcription="" points="1698,1258 1279,1256 1276,1283 1700,1284 " />
<polygon class="Wall" fill="#AFD8F8" id="35" transcription="" points="1675,1417 1671,1258 1701,1258 1701,1414 " />
<polygon class="Wall" fill="#AFD8F8" id="36" transcription="" points="1321,1374 1320,1255 1276,1256 1277,1377 " />
<polygon class="Wall" fill="#AFD8F8" id="37" transcription="" points="1304,1219 1303,1256 1278,1256 1278,1217 " />
<polygon class="Wall" fill="#AFD8F8" id="38" transcription="" points="1279,761 2050,760 2051,788 1279,788 " />
<polygon class="Wall" fill="#AFD8F8" id="39" transcription="" points="1276,931 1304,930 1306,761 1276,763 " />
<polygon class="Wall" fill="#AFD8F8" id="40" transcription="" points="2054,763 2054,1270 2029,1270 2029,760 " />
<polygon class="Wall" fill="#AFD8F8" id="41" transcription="" points="1797,1418 2052,1418 2052,1393 1794,1393 " />
<polygon class="Wall" fill="#AFD8F8" id="42" transcription="" points="2055,1341 2055,1397 2030,1397 2029,1341 " />
<polygon class="Wall" fill="#AFD8F8" id="43" transcription="" points="2011,1414 2010,1538 2055,1535 2054,1414 " />
<polygon class="Wall" fill="#AFD8F8" id="44" transcription="" points="865,1775 753,1775 752,1786 866,1785 " />
<polygon class="Wall" fill="#AFD8F8" id="45" transcription="" points="752,1779 751,1410 764,1410 763,1780 " />
<polygon class="Wall" fill="#AFD8F8" id="46" transcription="" points="1062,1775 1150,1775 1150,1786 1062,1786 " />
<polygon class="Wall" fill="#AFD8F8" id="47" transcription="" points="1066,1677 1067,1530 1075,1530 1076,1675 " />
<polygon class="Wall" fill="#AFD8F8" id="48" transcription="" points="1149,1668 1065,1667 1065,1678 1151,1678 " />
<polygon class="Wall" fill="#AFD8F8" id="49" transcription="" points="1154,1785 1154,1667 1143,1665 1141,1785 " />
<polygon class="Wall" fill="#AFD8F8" id="50" transcription="" points="970,1782 970,1572 959,1571 958,1781 " />
<polygon class="Wall" fill="#AFD8F8" id="51" transcription="" points="1322,1881 1049,1880 1049,1891 1322,1891 " />
<polygon class="Wall" fill="#AFD8F8" id="52" transcription="" points="1322.5,1751.5 1324.5,2310.5 1309.5,2310.5 1311.5,1752.5 " />
<polygon class="Wall" fill="#AFD8F8" id="53" transcription="" points="871,1882 870,2311 857,2311 860,1883 " />
<polygon class="Wall" fill="#AFD8F8" id="54" transcription="" points="872,1880 960,1880 961,1892 871,1891 " />
<polygon class="Wall" fill="#AFD8F8" id="55" transcription="" points="379,1880 762,1881 765,1891 379,1899 " />
<polygon class="Wall" fill="#AFD8F8" id="56" transcription="" points="1685,1570 1683,1415 1671,1415 1673,1572 " />
<polygon class="Wall" fill="#AFD8F8" id="57" transcription="" points="1417,1562 1417,1572 1686,1574 1685,1561 " />
<polygon class="Room" fill="#FF8E46" id="58" transcription="" points="1317,795 2023,795 2021,1387 1709,1385 1704,1246 1314,1244 " />
<polygon class="Room" fill="#FF8E46" id="59" transcription="" points="2004,1431.5 2002,2255.5 1331,2257.5 1328,1581.5 1695,1571.5 1690,1426.5 " />
<polygon class="Room" fill="#FF8E46" id="60" transcription="" points="875,1899 1307,1899 1305,2260 873,2256 " />
<polygon class="Room" fill="#FF8E46" id="61" transcription="" points="436,1899 849,1901 849,2253 431,2258 " />
<polygon class="Room" fill="#FF8E46" id="62" transcription="" points="434,1460 746,1460 746,1868 427,1868 " />
<polygon class="Room" fill="#FF8E46" id="63" transcription="" points="762,1791 1148,1791 1152,1878 760,1875 " />
<polygon class="Room" fill="#FF8E46" id="64" transcription="" points="1306.5,1568 1304.5,1875 1156.5,1875 1156.5,1662 1081.5,1659 1081.5,1572 " />
<polygon class="Room" fill="#FF8E46" id="65" transcription="" points="772,1462 770,1767 950,1765 948,1464 " />
<polygon class="Room" fill="#FF8E46" id="66" transcription="" points="978,1579 981,1763 1133,1765 1133,1676 1061,1680 1056,1581 " />
<polygon class="Room" fill="#FF8E46" id="67" transcription="" points="1323,1287 1328,1554 1668,1554 1665,1287 " />
<polygon class="Separation" fill="#008E8E" id="68" transcription="" points="1303,1570 1327,1570 1327,1752 1303,1752 " />
<polygon class="Separation" fill="#008E8E" id="69" transcription="" points="1143,1783 1162,1783 1162,1880 1143,1880 " />
<relation type="incident" objects="36,9"/>
<relation type="incident" objects="17,32"/>
<relation type="incident" objects="32,33"/>
<relation type="incident" objects="33,9"/>
<relation type="incident" objects="17,30"/>
<relation type="incident" objects="30,8"/>
<relation type="incident" objects="8,31"/>
<relation type="incident" objects="31,28"/>
<relation type="incident" objects="28,29"/>
<relation type="incident" objects="26,7"/>
<relation type="incident" objects="7,29"/>
<relation type="incident" objects="26,27"/>
<relation type="incident" objects="27,6"/>
<relation type="incident" objects="6,25"/>
<relation type="incident" objects="25,24"/>
<relation type="incident" objects="24,5"/>
<relation type="incident" objects="5,23"/>
<relation type="incident" objects="23,4"/>
<relation type="incident" objects="22,4"/>
<relation type="incident" objects="3,22"/>
<relation type="incident" objects="3,21"/>
<relation type="incident" objects="21,20"/>
<relation type="incident" objects="1,20"/>
<relation type="incident" objects="0,2"/>
<relation type="incident" objects="0,1"/>
<relation type="incident" objects="2,43"/>
<relation type="incident" objects="41,43"/>
<relation type="incident" objects="41,42"/>
<relation type="incident" objects="11,40"/>
<relation type="incident" objects="11,42"/>
<relation type="incident" objects="38,40"/>
<relation type="incident" objects="38,39"/>
<relation type="incident" objects="39,10"/>
<relation type="incident" objects="10,36"/>
<relation type="incident" objects="28,50"/>
<relation type="incident" objects="31,50"/>
<relation type="incident" objects="50,16"/>
<relation type="incident" objects="16,46"/>
<relation type="incident" objects="49,46"/>
<relation type="incident" objects="49,48"/>
<relation type="incident" objects="47,30"/>
<relation type="incident" objects="47,8"/>
<relation type="incident" objects="26,45"/>
<relation type="incident" objects="45,44"/>
<relation type="incident" objects="15,44"/>
<relation type="incident" objects="15,50"/>
<relation type="incident" objects="25,55"/>
<relation type="incident" objects="55,13"/>
<relation type="incident" objects="53,13"/>
<relation type="incident" objects="55,12"/>
<relation type="incident" objects="12,45"/>
<relation type="incident" objects="12,44"/>
<relation type="incident" objects="13,54"/>
<relation type="incident" objects="54,14"/>
<relation type="incident" objects="14,51"/>
<relation type="incident" objects="51,52"/>
<relation type="incident" objects="52,22"/>
<relation type="incident" objects="18,32"/>
<relation type="incident" objects="18,32"/>
<relation type="incident" objects="18,33"/>
<relation type="incident" objects="18,57"/>
<relation type="incident" objects="57,56"/>
<relation type="incident" objects="56,35"/>
<relation type="incident" objects="35,34"/>
<relation type="incident" objects="34,36"/>
<relation type="incident" objects="35,19"/>
<relation type="incident" objects="19,41"/>
<relation type="neighbour" objects="62,61"/>
<relation type="neighbour" objects="61,60"/>
<relation type="neighbour" objects="60,63"/>
<relation type="neighbour" objects="63,65"/>
<relation type="neighbour" objects="65,62"/>
<relation type="neighbour" objects="63,66"/>
<relation type="neighbour" objects="63,62"/>
<relation type="neighbour" objects="63,62"/>
<relation type="neighbour" objects="61,63"/>
<relation type="neighbour" objects="66,65"/>
<relation type="neighbour" objects="60,64"/>
<relation type="neighbour" objects="63,64"/>
<relation type="neighbour" objects="66,64"/>
<relation type="neighbour" objects="64,59"/>
<relation type="neighbour" objects="60,59"/>
<relation type="neighbour" objects="59,67"/>
<relation type="neighbour" objects="67,58"/>
<relation type="neighbour" objects="59,58"/>
<relation type="access" objects="62,12,63"/>
<relation type="access" objects="63,15,65"/>
<relation type="access" objects="63,13,61"/>
<relation type="access" objects="60,14,63"/>
<relation type="access" objects="63,16,66"/>
<relation type="access" objects="67,18,59"/>
<relation type="access" objects="59,19,58"/>
<relation type="access" objects="64,17,64"/>
<relation type="incident" objects="68,52"/>
<relation type="incident" objects="68,32"/>
<relation type="incident" objects="68,33"/>
<relation type="incident" objects="69,49"/>
<relation type="incident" objects="69,46"/>
<relation type="incident" objects="69,51"/>
<relation type="outerP" objects="38,40,11,42,43,2,0,1,20,21,3,22,4,23,5,24,25,6,27,26,7,29,28,31,8,30,17,32,33,9,36,37,10,39"/>
<relation type="surround" objects="26,45,12,55,25,6,27,26,62"/>
<relation type="surround" objects="26,7,29,28,50,15,44,45,26,65"/>
<relation type="surround" objects="31,8,47,48,49,46,16,50,31,66"/>
<relation type="surround" objects="44,15,50,16,46,69,51,14,54,13,55,12,44,63"/>
<relation type="surround" objects="55,13,53,23,5,24,25,55,61"/>
<relation type="surround" objects="54,14,51,52,22,4,23,53,54,60"/>
<relation type="surround" objects="30,17,32,68,52,51,63,49,48,47,30,64"/>
<relation type="surround" objects="18,57,56,19,41,43,2,0,1,20,21,3,22,52,68,18,59"/>
<relation type="surround" objects="34,35,56,57,18,33,9,36,34,67"/>
<relation type="surround" objects="38,40,11,42,41,19,35,34,37,10,39,38,58"/>
<relation type="access" objects="63,69,64"/>
<relation type="access" objects="64,68,59"/>
</svg>