<?xml version="1.0" encoding="UTF-8"?><!DOCTYPE svg PUBLIC "-//W3C//DTD SVG 1.1//EN" "http://www.w3.org/Graphics/SVG/1.1/DTD/svg11.dtd">
<svg xmlns="http://www.w3.org/2000/svg" version="1.1">
<width>2480</width>
<height>3508</height>
<nclasslabel>50</nclasslabel>
<nclassappear>5</nclassappear>
<class>Bidet-1</class>
<class>Bidet-2</class>
<class>Bidet-3</class>
<class>Bidet-4</class>
<class>Door</class>
<class>Door-1</class>
<class>Door-23</class>
<class>Oven-1</class>
<class>Oven-2</class>
<class>Oven-3</class>
<class>Oven-4</class>
<class>Parking</class>
<class>Roof</class>
<class>Room</class>
<class>Separation</class>
<class>Sink-1</class>
<class>Sink-11</class>
<class>Sink-12</class>
<class>Sink-13</class>
<class>Sink-14</class>
<class>Sink-2</class>
<class>Sink-3</class>
<class>Sink-4</class>
<class>Sink-5</class>
<class>Sink-6</class>
<class>Sofa-1</class>
<class>Sofa-3</class>
<class>Sofa-4</class>
<class>Sofa-5</class>
<class>Sofa-6</class>
<class>Sofa-7</class>
<class>Sofa-8</class>
<class>Sofa-9</class>
<class>Stairs-1</class>
<class>Table-1</class>
<class>Table-2</class>
<class>Table-3</class>
<class>Table-4</class>
<class>Table-5</class>
<class>Table-6</class>
<class>Table-7</class>
<class>Text</class>
<class>Tub-1</class>
<class>Tub-3</class>
<class>TV-1</class>
<class>TV-2</class>
<class>Wall</class>
<class>Wall-1</class>
<class>Wallieee</class>
<class>Window</class>
<polygon class="Wall" fill="#AFD8F8" id="0" transcription="" points="1269,1027 1802,1025 1805,1076 1268,1078 " />
<polygon class="Wall" fill="#AFD8F8" id="1" transcription="" points="1758,1146 1804,1147 1802,1022 1755,1022 " />
<polygon class="Wall" fill="#AFD8F8" id="2" transcription="" points="1311,1235 1313,1025 1268,1025 1268,1236 " />
<polygon class="Wall" fill="#AFD8F8" id="3" transcription="" points="958,1191 957,1235 1311,1235 1311,1191 " />
<polygon class="Wall" fill="#AFD8F8" id="4" transcription="" points="817.5,1191.5 817.5,1234.5 631.5,1234.5 628.5,1188.5 " />
<polygon class="Wall" fill="#AFD8F8" id="5" transcription="" points="372,1194 561,1194 563,1236 371,1235 " />
<polygon class="Wall" fill="#AFD8F8" id="6" transcription="" points="371,1481 413,1480 415,1196 374,1191 " />
<polygon class="Wall" fill="#AFD8F8" id="7" transcription="" points="369,1555 418,1553 418,1861 368,1861 " />
<polygon class="Wall" fill="#AFD8F8" id="8" transcription="" points="508,1588 508,1566 366,1564 366,1591 " />
<polygon class="Wall" fill="#AFD8F8" id="9" transcription="" points="607,1564 605,1606 1027,1608 1029,1566 " />
<polygon class="Wall" fill="#AFD8F8" id="10" transcription="" points="508,1816 508,1860 363,1860 366,1817 " />
<polygon class="Wall" fill="#AFD8F8" id="11" transcription="" points="627,1817 671,1818 667,2371 621,2370 " />
<polygon class="Wall" fill="#AFD8F8" id="12" transcription="" points="616,1813 612,1861 666,1863 666,1816 " />
<polygon class="Wall" fill="#AFD8F8" id="13" transcription="" points="749,2328 748,2372 621,2370 619,2325 " />
<polygon class="Wall" fill="#AFD8F8" id="14" transcription="" points="1029,2327 1032,2374 1181,2375 1182,2325 " />
<polygon class="Wall" fill="#AFD8F8" id="15" transcription="" points="1138,2269 1182,2269 1180,2361 1138,2362 " />
<polygon class="Wall" fill="#AFD8F8" id="16" transcription="" points="1138,2119 1369,2117 1368,2161 1144,2163 " />
<polygon class="Wall" fill="#AFD8F8" id="17" transcription="" points="1180,2178 1143,2178 1138,2120 1182,2117 " />
<polygon class="Window" fill="#F6BD0F" id="18" transcription="" points="1652,2119 1654,2161 1365,2166 1365,2117 " />
<polygon class="Wall" fill="#AFD8F8" id="19" transcription="" points="1800,2163 1654,2161 1652,2120 1802,2119 " />
<polygon class="Wall" fill="#AFD8F8" id="20" transcription="" points="1758,2013 1802,2014 1805,2164 1757,2164 " />
<polygon class="Wall" fill="#AFD8F8" id="21" transcription="" points="1761,1486 1802,1484 1802,1733 1760,1730 " />
<polygon class="Wall" fill="#AFD8F8" id="22" transcription="" points="1760,1342 1802,1344 1800,1241 1758,1241 " />
<polygon class="Wall" fill="#AFD8F8" id="23" transcription="" points="1127,1561 1310,1563 1311,1589 1127,1589 " />
<polygon class="Wall" fill="#AFD8F8" id="24" transcription="" points="642,1360 653,1359 652,1236 642,1235 " />
<polygon class="Wall" fill="#AFD8F8" id="25" transcription="" points="641,1458 653,1458 653,1563 642,1564 " />
<polygon class="Wall" fill="#AFD8F8" id="26" transcription="" points="653,1456 653,1468 410,1467 410,1456 " />
<polygon class="Wall" fill="#AFD8F8" id="27" transcription="" points="1127,1331 1138,1331 1137,1238 1126,1238 " />
<polygon class="Wall" fill="#AFD8F8" id="28" transcription="" points="1126,1415 1136,1415 1137,1560 1124,1561 " />
<polygon class="Wall" fill="#AFD8F8" id="29" transcription="" points="1314,1561 1302,1562 1301,1234 1315,1232 " />
<polygon class="Wall" fill="#AFD8F8" id="30" transcription="" points="1398,1251 1397,1261 1312,1260 1312,1249 " />
<polygon class="Wall" fill="#AFD8F8" id="31" transcription="" points="1481,1250 1481,1260 1755,1261 1756,1249 " />
<polygon class="Window" fill="#F6BD0F" id="32" transcription="" points="560,1187 631,1187 634,1236 565,1276 559,1237 " />
<polygon class="Window" fill="#F6BD0F" id="33" transcription="" points="817,1187 959,1187 956,1236 900,1278 889,1265 881,1276 818,1234 " />
<polygon class="Door" fill="#8BBA00" id="34" transcription="" points="1395,1165 1395,1261 1484,1262 1482,1211 1443,1167 " />
<polygon class="Door" fill="#8BBA00" id="35" transcription="" points="1656,1240 1804,1239 1809,1142 1718,1144 1674,1183 " />
<polygon class="Window" fill="#F6BD0F" id="36" transcription="" points="1806,1344 1806,1481 1757,1481 1720,1423 1729,1411 1715,1403 1753,1344 " />
<polygon class="Window" fill="#F6BD0F" id="37" transcription="" points="1806,1731 1804,2008 1754,2006 1754,1729 " />
<polygon class="Window" fill="#F6BD0F" id="38" transcription="" points="746,2373 1026,2373 1028,2314 748,2317 " />
<polygon class="Door" fill="#8BBA00" id="39" transcription="" points="509,1718 506,1867 612,1870 610,1776 553,1720 " />
<polygon class="Door" fill="#8BBA00" id="40" transcription="" points="1117,1612 1023,1609 1021,1701 1070,1708 1117,1665 " />
<polygon class="Door" fill="#8BBA00" id="41" transcription="" points="1223,1325 1134,1328 1132,1425 1185,1411 1218,1373 " />
<polygon class="Door" fill="#8BBA00" id="42" transcription="" points="1123,1484 1126,1592 1028,1586 1034,1534 1062,1506 " />
<polygon class="Door" fill="#8BBA00" id="43" transcription="" points="1046,2175 1187,2178 1187,2270 1089,2267 1048,2222 " />
<polygon class="Door" fill="#8BBA00" id="44" transcription="" points="548,1454 657,1451 657,1351 590,1358 562,1392 " />
<polygon class="Wall" fill="#AFD8F8" id="45" transcription="" points="886,1699 886,1709 1025,1708 1026,1698 " />
<polygon class="Room" fill="#FF8E46" id="46" transcription="" points="422,1601 610,1601 608,1817 417,1810 " />
<polygon class="Room" fill="#FF8E46" id="47" transcription="" points="410,1462 636,1471 636,1558 413,1554 " />
<polygon class="Window" fill="#F6BD0F" id="48" transcription="" points="366,1483 410,1481 448,1490 410,1556 366,1554 " />
<polygon class="Room" fill="#FF8E46" id="49" transcription="" points="657,1244 1119,1246 1112,1556 657,1556 " />
<polygon class="Room" fill="#FF8E46" id="50" transcription="" points="1321,1270 1758,1267 1756,1584 1314,1587 " />
<polygon class="Room" fill="#FF8E46" id="51" transcription="" points="1319,1077 1751,1077 1756,1234 1319,1239 " />
<polygon class="Room" fill="#FF8E46" id="52" transcription="" points="1143,1241 1143,1554 1295,1556 1293,1241 " />
<polygon class="Room" fill="#FF8E46" id="53" transcription="" points="422,1246 636,1244 631,1446 420,1448 " />
<polygon class="Room" fill="#FF8E46" id="54" transcription="" points="617,1706 616,1810 678,1813 669,2324 1133,2321 1111,1707 " />
<polygon class="Room" fill="#FF8E46" id="55" transcription="" points="1752,2115 1755,1590 1031,1595 1032,1703 1117,1700 1132,2109 " />
<polygon class="Door" fill="#8BBA00" id="56" transcription="" points="504,1577 618,1583 523,1640 " />
<polygon class="Separation" fill="#008E8E" id="57" transcription="" points="604,1604 613,1605 618,1829 605,1829 " />
<polygon class="Separation" fill="#008E8E" id="58" transcription="" points="601,1696.5 886,1696.5 886,1715.5 601,1715.5 " />
<polygon class="Separation" fill="#008E8E" id="59" transcription="" points="1012,1692 1114,1692 1114,1707 1012,1707 " />
<polygon class="Separation" fill="#008E8E" id="60" transcription="" points="1106,1699 1115,1693 1134,2115 1125,2119 " />
<polygon class="Separation" fill="#008E8E" id="61" transcription="" points="1309,1579 1764,1579 1764,1597 1309,1597 " />
<polygon class="Room" fill="#FF8E46" id="62" transcription="" points="606,1605 1018,1605 1018,1692 606,1692 " />
<relation type="incident" objects="3,2"/>
<relation type="incident" objects="2,0"/>
<relation type="incident" objects="0,1"/>
<relation type="incident" objects="1,35"/>
<relation type="incident" objects="35,22"/>
<relation type="incident" objects="22,36"/>
<relation type="incident" objects="36,21"/>
<relation type="incident" objects="21,37"/>
<relation type="incident" objects="37,20"/>
<relation type="incident" objects="20,19"/>
<relation type="incident" objects="19,18"/>
<relation type="incident" objects="18,16"/>
<relation type="incident" objects="16,17"/>
<relation type="incident" objects="17,43"/>
<relation type="incident" objects="43,15"/>
<relation type="incident" objects="15,14"/>
<relation type="incident" objects="14,38"/>
<relation type="incident" objects="38,13"/>
<relation type="incident" objects="13,11"/>
<relation type="incident" objects="11,12"/>
<relation type="incident" objects="12,39"/>
<relation type="incident" objects="39,10"/>
<relation type="incident" objects="10,7"/>
<relation type="incident" objects="7,48"/>
<relation type="incident" objects="48,6"/>
<relation type="incident" objects="6,5"/>
<relation type="incident" objects="5,32"/>
<relation type="incident" objects="32,4"/>
<relation type="incident" objects="4,33"/>
<relation type="incident" objects="33,3"/>
<relation type="incident" objects="4,24"/>
<relation type="incident" objects="24,44"/>
<relation type="incident" objects="44,26"/>
<relation type="incident" objects="26,6"/>
<relation type="incident" objects="26,25"/>
<relation type="incident" objects="25,9"/>
<relation type="incident" objects="9,42"/>
<relation type="incident" objects="42,23"/>
<relation type="incident" objects="42,28"/>
<relation type="incident" objects="28,41"/>
<relation type="incident" objects="41,27"/>
<relation type="incident" objects="27,3"/>
<relation type="incident" objects="9,56"/>
<relation type="incident" objects="8,56"/>
<relation type="incident" objects="8,7"/>
<relation type="incident" objects="9,40"/>
<relation type="incident" objects="40,45"/>
<relation type="incident" objects="23,29"/>
<relation type="incident" objects="29,3"/>
<relation type="incident" objects="29,30"/>
<relation type="incident" objects="30,34"/>
<relation type="incident" objects="34,31"/>
<relation type="incident" objects="31,22"/>
<relation type="incident" objects="2,29"/>
<relation type="incident" objects="58,45"/>
<relation type="incident" objects="58,57"/>
<relation type="incident" objects="57,12"/>
<relation type="incident" objects="45,59"/>
<relation type="incident" objects="59,60"/>
<relation type="incident" objects="60,17"/>
<relation type="incident" objects="60,16"/>
<relation type="incident" objects="23,61"/>
<relation type="incident" objects="61,21"/>
<relation type="neighbour" objects="55,54"/>
<relation type="neighbour" objects="54,46"/>
<relation type="neighbour" objects="46,47"/>
<relation type="neighbour" objects="47,53"/>
<relation type="neighbour" objects="53,49"/>
<relation type="neighbour" objects="49,47"/>
<relation type="neighbour" objects="49,52"/>
<relation type="neighbour" objects="52,50"/>
<relation type="neighbour" objects="52,51"/>
<relation type="neighbour" objects="51,50"/>
<relation type="neighbour" objects="50,55"/>
<relation type="neighbour" objects="55,52"/>
<relation type="neighbour" objects="55,49"/>
<relation type="access" objects="50,34,51"/>
<relation type="access" objects="51,35,51"/>
<relation type="access" objects="49,41,52"/>
<relation type="access" objects="49,42,55"/>
<relation type="access" objects="46,39,46"/>
<relation type="access" objects="47,56,46"/>
<relation type="access" objects="49,44,53"/>
<relation type="access" objects="62,40,55"/>
<relation type="neighbour" objects="54,62"/>
<relation type="neighbour" objects="62,46"/>
<relation type="neighbour" objects="62,55"/>
<relation type="neighbour" objects="62,47"/>
<relation type="neighbour" objects="62,49"/>
<relation type="incident" objects="57,9"/>
<relation type="access" objects="62,40,55"/>
<relation type="access" objects="55,61,50"/>
<relation type="access" objects="55,60,54"/>
<relation type="access" objects="54,57,46"/>
<relation type="access" objects="54,58,62"/>
<relation type="outerP" objects="5,32,4,33,3,2,0,1,35,22,36,21,37,20,19,18,16,17,43,15,14,38,13,11,12,39,10,7,48,6"/>
<relation type="surround" objects="5,32,24,44,26,6,5,53"/>
<relation type="surround" objects="4,33,3,27,41,28,42,9,25,44,24,4,49"/>
<relation type="surround" objects="3,29,23,28,41,27,3,52"/>
<relation type="surround" objects="0,1,35,31,34,30,2,0,51"/>
<relation type="surround" objects="30,34,31,22,36,21,61,29,30,50"/>
<relation type="surround" objects="26,25,9,56,8,48,26,47"/>
<relation type="surround" objects="8,56,57,39,10,7,8,46"/>
<relation type="surround" objects="9,40,45,58,57,9,62"/>
<relation type="surround" objects="58,45,59,60,17,43,15,14,38,13,11,57,58,54"/>
<relation type="surround" objects="42,23,61,21,37,20,19,18,16,60,59,40,9,42,55"/>
</svg>