<?xml version="1.0" encoding="UTF-8"?><!DOCTYPE svg PUBLIC "-//W3C//DTD SVG 1.1//EN" "http://www.w3.org/Graphics/SVG/1.1/DTD/svg11.dtd">
<svg xmlns="http://www.w3.org/2000/svg" version="1.1">
<width>3508</width>
<height>2480</height>
<nclasslabel>50</nclasslabel>
<nclassappear>5</nclassappear>
<class>Bidet-1</class>
<class>Bidet-2</class>
<class>Bidet-3</class>
<class>Bidet-4</class>
<class>Door</class>
<class>Door-1</class>
<class>Door-23</class>
<class>Oven-1</class>
<class>Oven-2</class>
<class>Oven-3</class>
<class>Oven-4</class>
<class>Parking</class>
<class>Roof</class>
<class>Room</class>
<class>Separation</class>
<class>Sink-1</class>
<class>Sink-11</class>
<class>Sink-12</class>
<class>Sink-13</class>
<class>Sink-14</class>
<class>Sink-2</class>
<class>Sink-3</class>
<class>Sink-4</class>
<class>Sink-5</class>
<class>Sink-6</class>
<class>Sofa-1</class>
<class>Sofa-3</class>
<class>Sofa-4</class>
<class>Sofa-5</class>
<class>Sofa-6</class>
<class>Sofa-7</class>
<class>Sofa-8</class>
<class>Sofa-9</class>
<class>Stairs-1</class>
<class>Table-1</class>
<class>Table-2</class>
<class>Table-3</class>
<class>Table-4</class>
<class>Table-5</class>
<class>Table-6</class>
<class>Table-7</class>
<class>Text</class>
<class>Tub-1</class>
<class>Tub-3</class>
<class>TV-1</class>
<class>TV-2</class>
<class>Wall</class>
<class>Wall-1</class>
<class>Wallieee</class>
<class>Window</class>
<polygon class="Wall" fill="#AFD8F8" id="0" transcription="" points="826,243 850,244 851,269 826,268 " />
<polygon class="Wall" fill="#AFD8F8" id="1" transcription="" points="1493,245 1519,244 1519,269 1493,269 " />
<polygon class="Wall" fill="#AFD8F8" id="2" transcription="" points="826,1194 850,1195 850,1220 826,1218 " />
<polygon class="Wall" fill="#AFD8F8" id="3" transcription="" points="1149,1258 1141,1258 1140,1209 1150,1213 " />
<polygon class="Window" fill="#F6BD0F" id="4" transcription="" points="2523,746 2213,747 2212,792 2521,794 " />
<polygon class="Window" fill="#F6BD0F" id="5" transcription="" points="2120,742 2118,789 2129,829 2191,791 2187,744 " />
<polygon class="Door" fill="#8BBA00" id="6" transcription="" points="2008,879 2011,749 1919,747 1920,806 1936,860 " />
<polygon class="Window" fill="#F6BD0F" id="7" transcription="" points="2859,1358 2862,1539 2914,1538 2912,1361 " />
<polygon class="Window" fill="#F6BD0F" id="8" transcription="" points="2596,2139 2681,2189 2683,2230 2587,2230 2582,2186 " />
<polygon class="Window" fill="#F6BD0F" id="9" transcription="" points="2298,2182 2298,2230 2058,2232 2057,2180 " />
<polygon class="Window" fill="#F6BD0F" id="10" transcription="" points="1991,1841 2038,1843 2038,2168 1988,2170 " />
<polygon class="Window" fill="#F6BD0F" id="11" transcription="" points="1567,1676 1847,1676 1843,1723 1564,1723 " />
<polygon class="Door" fill="#8BBA00" id="12" transcription="" points="1882,1594 1880,1723 1975,1725 1970,1665 1953,1614 1928,1595 " />
<polygon class="Window" fill="#F6BD0F" id="13" transcription="" points="1538,1577 1537,1677 1491,1679 1487,1577 " />
<polygon class="Window" fill="#F6BD0F" id="14" transcription="" points="985,932 1034,933 1039,1143 985,1140 " />
<polygon class="Window" fill="#F6BD0F" id="15" transcription="" points="904,706 868,647 823,649 823,716 875,718 " />
<polygon class="Door" fill="#8BBA00" id="16" transcription="" points="1039,754 1038,840 1125,847 1123,786 1077,752 " />
<polygon class="Door" fill="#8BBA00" id="17" transcription="" points="1391,754 1392,841 1304,845 1307,799 1333,772 " />
<polygon class="Door" fill="#8BBA00" id="18" transcription="" points="1500,1139 1397,1234 1475,1311 1515,1269 1540,1211 1529,1159 " />
<polygon class="Door" fill="#8BBA00" id="19" transcription="" points="1632,986 1632,1077 1534,1085 1548,1036 1570,1005 " />
<polygon class="Door" fill="#8BBA00" id="20" transcription="" points="1782,1338 1880,1336 1880,1238 1821,1258 1790,1298 " />
<polygon class="Door" fill="#8BBA00" id="21" transcription="" points="2555,1066 2552,1166 2654,1163 2649,1107 2594,1065 " />
<polygon class="Room" fill="#FF8E46" id="22" transcription="" points="2538,796 2541,1145 2856,1145 2855,1130 3018,1126 3015,799 " />
<polygon class="Room" fill="#FF8E46" id="23" transcription="" points="2216,795 2212,1150 2521,1151 2514,797 " />
<polygon class="Room" fill="#FF8E46" id="24" transcription="" points="2020.5,1146 2194.5,1145 2193.5,981 1892.5,978 1884.5,1343 1997.5,1347 1998.5,1275 2203.5,1271 2203.5,1176 1986.5,1183 1980.5,1076 2015.5,1074 " />
<polygon class="Room" fill="#FF8E46" id="25" transcription="" points="2198,971 2101,969 2105.5,794.5 2193.5,795.5 " />
<polygon class="Room" fill="#FF8E46" id="26" transcription="" points="1651,797 1648,1067 1874,1067 1872,964 2091,960 2089,796 " />
<polygon class="Room" fill="#FF8E46" id="27" transcription="" points="1549,1333 1871,1331 1869,1108 1645,1103 1651,1180 1630,1182 1625,1080 1542,1085 1540,1105 1505,1105 1425,1189 1430,1199 1548,1310 " />
<polygon class="Room" fill="#FF8E46" id="28" transcription="" points="1543.5,1353.5 1541.5,1671.5 2014.5,1673.5 2006.5,1352.5 " />
<polygon class="Room" fill="#FF8E46" id="29" transcription="" points="2019,1291 2019,1673 2042,1678 2043,1713 2370,1715 2368,1689 2394,1688 2402,1709 2697,1706 2698,1676 2862,1672 2859,1177 2520,1176 2518,1159 2209,1160 2213,1352 2195,1352 2196,1295 " />
<polygon class="Room" fill="#FF8E46" id="30" transcription="" points="2041,1732 2042,2179 2698,2182 2697,1712 2407,1713 2407,1725 " />
<polygon class="Room" fill="#FF8E46" id="31" transcription="" points="874,739 871,833 1201,830 1205,639 867,637 874,719 1025,724 1022,737 " />
<polygon class="Room" fill="#FF8E46" id="32" transcription="" points="1222,638 1219,831 1473,831 1468,643 " />
<polygon class="Wall" fill="#AFD8F8" id="33" transcription="" points="854,593 1473,592 1476,640 853,640 " />
<polygon class="Wall" fill="#AFD8F8" id="34" transcription="" points="827,592 865,590 866,648 825,648 " />
<polygon class="Wall" fill="#AFD8F8" id="35" transcription="" points="1521,595 1517,750 1475,753 1472,590 " />
<polygon class="Wall" fill="#AFD8F8" id="36" transcription="" points="1915,751 1916,794 1474,796 1475,751 " />
<polygon class="Wall" fill="#AFD8F8" id="37" transcription="" points="1535,750 1473,753 1476,850 1538,850 " />
<polygon class="Wall" fill="#AFD8F8" id="38" transcription="" points="1494,955 1493,851 1540,849 1535,954 " />
<polygon class="Wall" fill="#AFD8F8" id="39" transcription="" points="1394,849 1479,850 1480,839 1391,841 " />
<polygon class="Wall" fill="#AFD8F8" id="40" transcription="" points="827,886 827,718 869,722 873,885 " />
<polygon class="Wall" fill="#AFD8F8" id="41" transcription="" points="861,726 1026,725 1029,736 868,738 " />
<polygon class="Wall" fill="#AFD8F8" id="42" transcription="" points="1217,640 1218,838 1208,838 1208,639 " />
<polygon class="Wall" fill="#AFD8F8" id="43" transcription="" points="1129,839 1124,851 1303,850 1303,836 " />
<polygon class="Wall" fill="#AFD8F8" id="44" transcription="" points="992,927 988,841 1033,841 1033,929 " />
<polygon class="Wall" fill="#AFD8F8" id="45" transcription="" points="868,886 872,838 993,840 990,886 " />
<polygon class="Wall" fill="#AFD8F8" id="46" transcription="" points="993,1221 1042,1222 1036,1141 991,1144 " />
<polygon class="Wall" fill="#AFD8F8" id="47" transcription="" points="1038,1221 1035,1174 1390,1174 1388,1220 " />
<polygon class="Wall" fill="#AFD8F8" id="48" transcription="" points="1397,1231 1431,1200 1388,1170 1344,1193 " />
<polygon class="Wall" fill="#AFD8F8" id="49" transcription="" points="1510,1337 1535,1308 1505,1279 1478,1310 " />
<polygon class="Wall" fill="#AFD8F8" id="50" transcription="" points="1495,1578 1535,1577 1537,1310 1493,1313 " />
<polygon class="Wall" fill="#AFD8F8" id="51" transcription="" points="1452,1566 1454,1575 1494,1578 1491,1566 " />
<polygon class="Wall" fill="#AFD8F8" id="52" transcription="" points="1492,1725 1570,1723 1564,1680 1492,1674 " />
<polygon class="Wall" fill="#AFD8F8" id="53" transcription="" points="1370,1721 1396,1719 1394,1888 1369,1888 " />
<polygon class="Wall" fill="#AFD8F8" id="54" transcription="" points="1717,2207 1706,2238 1364,1895 1387,1877 " />
<polygon class="Wall" fill="#AFD8F8" id="55" transcription="" points="1998,2235 1997,2208 1715,2208 1706,2241 " />
<polygon class="Wall" fill="#AFD8F8" id="56" transcription="" points="1989,2231 1992,2172 2040,2168 2043,2187 2058,2188 2057,2231 " />
<polygon class="Wall" fill="#AFD8F8" id="57" transcription="" points="2301,2228 2585,2228 2578,2185 2299,2187 " />
<polygon class="Wall" fill="#AFD8F8" id="58" transcription="" points="2749,2232 2746,2173 2702,2172 2700,2191 2681,2191 2679,2235 " />
<polygon class="Wall" fill="#AFD8F8" id="59" transcription="" points="2745,1722 2703,1719 2704,2174 2748,2176 " />
<polygon class="Wall" fill="#AFD8F8" id="60" transcription="" points="1996,1839 1996,1721 2041,1722 2037,1842 " />
<polygon class="Wall" fill="#AFD8F8" id="61" transcription="" points="2039,1720 2374,1719 2377,1695 2398,1695 2399,1729 2037,1727.5 " />
<polygon class="Wall" fill="#AFD8F8" id="62" transcription="" points="2906,1721 2703,1721 2701,1680 2903,1675 " />
<polygon class="Wall" fill="#AFD8F8" id="63" transcription="" points="2906,1537 2905,1677 2864,1681 2861,1542 " />
<polygon class="Wall" fill="#AFD8F8" id="64" transcription="" points="1846,1724 1876,1727 1880,1678 1844,1675 " />
<polygon class="Wall" fill="#AFD8F8" id="65" transcription="" points="1974,1724 2040,1722 2038,1680 1976,1677 " />
<polygon class="Wall" fill="#AFD8F8" id="66" transcription="" points="3023,754 2524,753 2528,794 3023,795 " />
<polygon class="Wall" fill="#AFD8F8" id="67" transcription="" points="3067,754 3064,872 3023,881 3020,750 " />
<polygon class="Wall" fill="#AFD8F8" id="68" transcription="" points="3064,1053 3064,1179 3023,1180 3023,1053 " />
<polygon class="Wall" fill="#AFD8F8" id="69" transcription="" points="2909,1360 2861,1362 2864,1138 2906,1136 " />
<polygon class="Wall" fill="#AFD8F8" id="70" transcription="" points="3028,1178 2903,1180 2905,1132 3023,1133 " />
<polygon class="Wall" fill="#AFD8F8" id="71" transcription="" points="2865,1177 2651,1179 2648,1152 2862,1152 " />
<polygon class="Wall" fill="#AFD8F8" id="72" transcription="" points="2213,754 2188,753 2191,798 2218,794 " />
<polygon class="Wall" fill="#AFD8F8" id="73" transcription="" points="2047,725 2047,753 2073,751 2073,725 " />
<polygon class="Wall" fill="#AFD8F8" id="74" transcription="" points="2014,750 2119,753 2120,794 2017,794 " />
<polygon class="Wall" fill="#AFD8F8" id="75" transcription="" points="2524,792 2524,1152 2539,1152 2535,790 " />
<polygon class="Wall" fill="#AFD8F8" id="76" transcription="" points="2552,1179 2525,1177 2524,1155 2550,1152 " />
<polygon class="Wall" fill="#AFD8F8" id="77" transcription="" points="2097,803 2093,973 2102,974 2103,798 " />
<polygon class="Wall" fill="#AFD8F8" id="78" transcription="" points="2210,797 2211,1174 2199,1177 2199,792 " />
<polygon class="Wall" fill="#AFD8F8" id="79" transcription="" points="1970.5,969.5 2109.5,967.5 2106.5,977.5 1973.5,978.5 " />
<polygon class="Wall" fill="#AFD8F8" id="80" transcription="" points="1991,1073 1987,1181 2012,1177 2017,1073 " />
<polygon class="Wall" fill="#AFD8F8" id="81" transcription="" points="2011,1179 2015,1150 2199,1150 2199,1176 " />
<polygon class="Wall" fill="#AFD8F8" id="82" transcription="" points="1877,977 1873,1237 1888,1237 1885,974 " />
<polygon class="Wall" fill="#AFD8F8" id="83" transcription="" points="2202,1349 2210,1347 2209,1276 2200,1276 " />
<polygon class="Wall" fill="#AFD8F8" id="84" transcription="" points="2208,1277 2208,1287 2008,1285 2008,1276 " />
<polygon class="Wall" fill="#AFD8F8" id="85" transcription="" points="2008.5,1277 2005.5,1347 2014.5,1347 2015.5,1279 " />
<polygon class="Wall" fill="#AFD8F8" id="86" transcription="" points="1539,1340 1882,1337 1880,1352 1539,1355 " />
<polygon class="Wall" fill="#AFD8F8" id="87" transcription="" points="1635,798 1632,1185 1645,1182 1647,794 " />
<polygon class="Wall" fill="#AFD8F8" id="88" transcription="" points="1879,1078 1642,1076 1641,1104 1880,1103 " />
<polygon class="Room" fill="#FF8E46" id="89" transcription="" points="1034,847 1041,1168 1389,1168 1487,1065 1625,1070 1627,800 1540,801 1542,959 1495,960 1483,856 " />
<polygon class="Wall" fill="#AFD8F8" id="90" transcription="" points="1495,1077 1540,1077 1539,1103 1490,1102 " />
<polygon class="Wall" fill="#AFD8F8" id="91" transcription="" points="1494,1072 1391,1172 1420,1196 1506,1101 " />
<polygon class="Door" fill="#8BBA00" id="92" transcription="" points="1888,969 1980,971 1981,1019 1943,1061 1888,1066 " />
<polygon class="Door" fill="#8BBA00" id="93" transcription="" points="2106,969.5 2200,969.5 2200,1066.5 2153,1064 2108,1010 " />
<polygon class="Window" fill="#F6BD0F" id="94" transcription="" points="3020,872 3073,869 3072,1058 3020,1056 " />
<polygon class="Separation" fill="#008E8E" id="95" transcription="" points="2003,1350 2016,1350 2016,1677 2003,1677 " />
<polygon class="Separation" fill="#008E8E" id="96" transcription="" points="1875,1338 2000,1337 2003,1348 1878,1348 " />
<polygon class="Separation" fill="#008E8E" id="97" transcription="" points="2201,1177 2214,1177 2214,1271 2201,1271 " />
<polygon class="Wall" fill="#AFD8F8" id="98" transcription="" points="2048,244 2073,244 2073,268 2048,268 " />
<polygon class="Separation" fill="#008E8E" id="99" transcription="" points="2211,1146 2523,1146 2523,1159 2211,1159 " />
<polygon class="Room" fill="#FF8E46" id="100" transcription="" points="1397,1722 1994,1727 1994,2207 1723,2204 1403,1890 " />
<polygon class="Separation" fill="#008E8E" id="101" transcription="" points="1383,1710 1498,1710 1498,1720 1383,1720 " />
<polygon class="Separation" fill="#008E8E" id="102" transcription="" points="2394,1705 2700,1705 2700,1717 2394,1717 " />
<relation type="incident" objects="33,34"/>
<relation type="incident" objects="15,40"/>
<relation type="incident" objects="45,44"/>
<relation type="incident" objects="45,40"/>
<relation type="incident" objects="15,34"/>
<relation type="incident" objects="44,14"/>
<relation type="incident" objects="46,14"/>
<relation type="incident" objects="46,47"/>
<relation type="incident" objects="47,48"/>
<relation type="incident" objects="48,91"/>
<relation type="incident" objects="48,18"/>
<relation type="incident" objects="18,49"/>
<relation type="incident" objects="49,50"/>
<relation type="incident" objects="50,13"/>
<relation type="incident" objects="13,52"/>
<relation type="incident" objects="52,11"/>
<relation type="incident" objects="11,64"/>
<relation type="incident" objects="64,12"/>
<relation type="incident" objects="12,65"/>
<relation type="incident" objects="65,60"/>
<relation type="incident" objects="60,10"/>
<relation type="incident" objects="10,56"/>
<relation type="incident" objects="56,55"/>
<relation type="incident" objects="55,54"/>
<relation type="incident" objects="54,53"/>
<relation type="incident" objects="56,9"/>
<relation type="incident" objects="9,57"/>
<relation type="incident" objects="57,8"/>
<relation type="incident" objects="8,58"/>
<relation type="incident" objects="58,59"/>
<relation type="incident" objects="59,62"/>
<relation type="incident" objects="62,63"/>
<relation type="incident" objects="63,7"/>
<relation type="incident" objects="7,69"/>
<relation type="incident" objects="69,70"/>
<relation type="incident" objects="70,68"/>
<relation type="incident" objects="68,94"/>
<relation type="incident" objects="94,67"/>
<relation type="incident" objects="67,66"/>
<relation type="incident" objects="66,4"/>
<relation type="incident" objects="4,72"/>
<relation type="incident" objects="72,5"/>
<relation type="incident" objects="5,74"/>
<relation type="incident" objects="74,73"/>
<relation type="incident" objects="74,6"/>
<relation type="incident" objects="6,36"/>
<relation type="incident" objects="36,35"/>
<relation type="incident" objects="35,33"/>
<relation type="incident" objects="40,41"/>
<relation type="incident" objects="44,16"/>
<relation type="incident" objects="16,43"/>
<relation type="incident" objects="43,17"/>
<relation type="incident" objects="17,39"/>
<relation type="incident" objects="39,37"/>
<relation type="incident" objects="37,35"/>
<relation type="incident" objects="37,36"/>
<relation type="incident" objects="37,38"/>
<relation type="incident" objects="36,87"/>
<relation type="incident" objects="43,42"/>
<relation type="incident" objects="42,33"/>
<relation type="incident" objects="91,90"/>
<relation type="incident" objects="90,19"/>
<relation type="incident" objects="19,87"/>
<relation type="incident" objects="87,88"/>
<relation type="incident" objects="88,82"/>
<relation type="incident" objects="82,92"/>
<relation type="incident" objects="92,79"/>
<relation type="incident" objects="79,77"/>
<relation type="incident" objects="77,74"/>
<relation type="incident" objects="79,93"/>
<relation type="incident" objects="93,78"/>
<relation type="incident" objects="77,93"/>
<relation type="incident" objects="78,81"/>
<relation type="incident" objects="81,80"/>
<relation type="incident" objects="82,20"/>
<relation type="incident" objects="20,86"/>
<relation type="incident" objects="86,50"/>
<relation type="incident" objects="60,61"/>
<relation type="incident" objects="61,65"/>
<relation type="incident" objects="86,96"/>
<relation type="incident" objects="85,95"/>
<relation type="incident" objects="96,85"/>
<relation type="incident" objects="85,84"/>
<relation type="incident" objects="84,83"/>
<relation type="incident" objects="83,97"/>
<relation type="incident" objects="84,97"/>
<relation type="incident" objects="97,78"/>
<relation type="incident" objects="95,65"/>
<relation type="incident" objects="75,4"/>
<relation type="incident" objects="75,66"/>
<relation type="incident" objects="21,71"/>
<relation type="incident" objects="75,76"/>
<relation type="incident" objects="76,21"/>
<relation type="incident" objects="78,99"/>
<relation type="incident" objects="99,75"/>
<relation type="incident" objects="99,76"/>
<relation type="neighbour" objects="31,32"/>
<relation type="neighbour" objects="32,89"/>
<relation type="neighbour" objects="89,31"/>
<relation type="neighbour" objects="89,26"/>
<relation type="neighbour" objects="26,27"/>
<relation type="neighbour" objects="27,89"/>
<relation type="neighbour" objects="27,24"/>
<relation type="neighbour" objects="24,26"/>
<relation type="neighbour" objects="24,23"/>
<relation type="neighbour" objects="23,25"/>
<relation type="neighbour" objects="25,26"/>
<relation type="neighbour" objects="25,24"/>
<relation type="neighbour" objects="23,22"/>
<relation type="neighbour" objects="22,29"/>
<relation type="neighbour" objects="29,23"/>
<relation type="neighbour" objects="29,24"/>
<relation type="neighbour" objects="29,28"/>
<relation type="neighbour" objects="28,27"/>
<relation type="neighbour" objects="28,24"/>
<relation type="neighbour" objects="29,30"/>
<relation type="incident" objects="53,101"/>
<relation type="incident" objects="101,52"/>
<relation type="neighbour" objects="100,30"/>
<relation type="neighbour" objects="100,28"/>
<relation type="neighbour" objects="100,29"/>
<relation type="access" objects="31,16,89"/>
<relation type="access" objects="89,17,32"/>
<relation type="access" objects="27,19,89"/>
<relation type="access" objects="27,18,27"/>
<relation type="access" objects="26,6,26"/>
<relation type="access" objects="24,20,27"/>
<relation type="access" objects="100,12,28"/>
<relation type="access" objects="29,21,22"/>
<relation type="incident" objects="61,102"/>
<relation type="incident" objects="62,102"/>
<relation type="incident" objects="102,59"/>
<relation type="access" objects="28,96,24"/>
<relation type="access" objects="24,97,29"/>
<relation type="access" objects="29,99,23"/>
<relation type="access" objects="29,102,30"/>
<relation type="access" objects="28,95,29"/>
<relation type="access" objects="100,101,100"/>
<relation type="access" objects="26,92,24"/>
<relation type="access" objects="25,93,24"/>
<relation type="outerP" objects="33,35,36,6,74,5,72,4,66,67,94,68,70,69,7,63,62,59,58,8,57,9,56,55,54,53,101,52,13,50,49,18,48,47,46,14,44,45,40,15,34"/>
<relation type="surround" objects="33,42,43,16,44,45,40,15,34,33,31"/>
<relation type="surround" objects="33,35,37,39,17,43,42,33,32"/>
<relation type="surround" objects="16,43,17,39,37,36,87,19,90,91,48,47,46,14,44,16,89"/>
<relation type="surround" objects="36,6,74,77,79,92,82,88,87,36,26"/>
<relation type="surround" objects="74,5,72,78,93,77,74,25"/>
<relation type="surround" objects="72,4,75,99,78,72,23"/>
<relation type="surround" objects="66,67,94,68,70,69,71,21,76,75,66,22"/>
<relation type="surround" objects="92,79,93,78,97,84,85,96,20,82,92,24"/>
<relation type="surround" objects="91,90,19,87,88,82,20,86,49,18,48,91,27"/>
<relation type="surround" objects="86,96,95,65,12,64,11,52,13,50,86,28"/>
<relation type="surround" objects="101,52,11,64,12,65,60,10,56,55,54,53,101,100"/>
<relation type="surround" objects="61,102,59,58,8,57,9,56,10,60,61,30"/>
<relation type="surround" objects="84,97,99,76,21,71,69,7,63,62,102,61,65,95,85,84,29"/>
</svg>