<?xml version="1.0" encoding="UTF-8"?><!DOCTYPE svg PUBLIC "-//W3C//DTD SVG 1.1//EN" "http://www.w3.org/Graphics/SVG/1.1/DTD/svg11.dtd">
<svg xmlns="http://www.w3.org/2000/svg" version="1.1">
<width>2479</width>
<height>3508</height>
<nclasslabel>50</nclasslabel>
<nclassappear>5</nclassappear>
<class>Bidet-1</class>
<class>Bidet-2</class>
<class>Bidet-3</class>
<class>Bidet-4</class>
<class>Door</class>
<class>Door-1</class>
<class>Door-23</class>
<class>Oven-1</class>
<class>Oven-2</class>
<class>Oven-3</class>
<class>Oven-4</class>
<class>Parking</class>
<class>Roof</class>
<class>Room</class>
<class>Separation</class>
<class>Sink-1</class>
<class>Sink-11</class>
<class>Sink-12</class>
<class>Sink-13</class>
<class>Sink-14</class>
<class>Sink-2</class>
<class>Sink-3</class>
<class>Sink-4</class>
<class>Sink-5</class>
<class>Sink-6</class>
<class>Sofa-1</class>
<class>Sofa-3</class>
<class>Sofa-4</class>
<class>Sofa-5</class>
<class>Sofa-6</class>
<class>Sofa-7</class>
<class>Sofa-8</class>
<class>Sofa-9</class>
<class>Stairs-1</class>
<class>Table-1</class>
<class>Table-2</class>
<class>Table-3</class>
<class>Table-4</class>
<class>Table-5</class>
<class>Table-6</class>
<class>Table-7</class>
<class>Text</class>
<class>Tub-1</class>
<class>Tub-3</class>
<class>TV-1</class>
<class>TV-2</class>
<class>Wall</class>
<class>Wall-1</class>
<class>Wallieee</class>
<class>Window</class>
<polygon class="Wall" fill="#AFD8F8" id="0" transcription="" points="704,700 979,702 981,747 704,745 " />
<polygon class="Wall" fill="#AFD8F8" id="1" transcription="" points="1052,702 1112,702 1112,742 1051,741 " />
<polygon class="Wall" fill="#AFD8F8" id="2" transcription="" points="1181,703 1460,702 1460,745 1182,742 " />
<polygon class="Wall" fill="#AFD8F8" id="3" transcription="" points="1416,883 1462,883 1460,705 1416,703 " />
<polygon class="Wall" fill="#AFD8F8" id="4" transcription="" points="748,887 702,884 702,703 752,698 " />
<polygon class="Wall" fill="#AFD8F8" id="5" transcription="" points="704,1027 745,1025 748,1550 702,1544 " />
<polygon class="Wall" fill="#AFD8F8" id="6" transcription="" points="954,1503 952,1536 1420,1530 1418,1503 " />
<polygon class="Wall" fill="#AFD8F8" id="7" transcription="" points="851,1506 853,1531 741,1531 741,1505 " />
<polygon class="Wall" fill="#AFD8F8" id="8" transcription="" points="1420,1381 1461,1381 1462,1545 1420,1545 " />
<polygon class="Wall" fill="#AFD8F8" id="9" transcription="" points="1537,1506 1537,1548 1420,1545 1418,1505 " />
<polygon class="Wall" fill="#AFD8F8" id="10" transcription="" points="1632,1505 1696,1505 1698,1547 1634,1547 " />
<polygon class="Wall" fill="#AFD8F8" id="11" transcription="" points="1655,1689 1696,1689 1698,1547 1652,1548 " />
<polygon class="Wall" fill="#AFD8F8" id="12" transcription="" points="1654,2136 1698,2136 1695,1828 1652,1826 " />
<polygon class="Wall" fill="#AFD8F8" id="13" transcription="" points="1652,2278 1696,2278 1698,2461 1655,2462 " />
<polygon class="Wall" fill="#AFD8F8" id="14" transcription="" points="1573,2419 1573,2461 1699,2461 1696,2419 " />
<polygon class="Wall" fill="#AFD8F8" id="15" transcription="" points="1477,2419 1479,2464 1245,2465 1246,2422 " />
<polygon class="Wall" fill="#AFD8F8" id="16" transcription="" points="915,2419 913,2462 685,2462 687,2420 " />
<polygon class="Wall" fill="#AFD8F8" id="17" transcription="" points="591,2417 591,2464 468,2462 466,2417 " />
<polygon class="Wall" fill="#AFD8F8" id="18" transcription="" points="468,2278 510,2276 510,2461 468,2458 " />
<polygon class="Wall" fill="#AFD8F8" id="19" transcription="" points="468,1828 509,1830 509,2134 470,2136 " />
<polygon class="Wall" fill="#AFD8F8" id="20" transcription="" points="851,1916 851,1941 466,1942 466,1919 " />
<polygon class="Wall" fill="#AFD8F8" id="21" transcription="" points="467.5,1506.5 467.5,1688.5 513,1690 511,1506 " />
<polygon class="Wall" fill="#AFD8F8" id="22" transcription="" points="535,1549 534,1505 466,1503 468,1547 " />
<polygon class="Wall" fill="#AFD8F8" id="23" transcription="" points="627,1502 629,1549 747,1550 743,1503 " />
<polygon class="Wall" fill="#AFD8F8" id="24" transcription="" points="951,1916 951,1941 1179,1942 1176,1914 " />
<polygon class="Wall" fill="#AFD8F8" id="25" transcription="" points="1091,1190 1080,1191 1079,702 1092,702 " />
<polygon class="Wall" fill="#AFD8F8" id="26" transcription="" points="950,1185 950,1195 1091,1194 1091,1185 " />
<polygon class="Wall" fill="#AFD8F8" id="27" transcription="" points="952,1291 953,1301 1423,1300 1422,1292 " />
<polygon class="Wall" fill="#AFD8F8" id="28" transcription="" points="952,1397 952,1407 1176,1405 1177,1397 " />
<polygon class="Wall" fill="#AFD8F8" id="29" transcription="" points="1168,1407 1179,1408 1178,1288 1169,1290 " />
<polygon class="Wall" fill="#AFD8F8" id="30" transcription="" points="862,1183 862,1192 705,1195 706,1185 " />
<polygon class="Wall" fill="#AFD8F8" id="31" transcription="" points="844,1749 854,1748 853,1503 840,1503 " />
<polygon class="Wall" fill="#AFD8F8" id="32" transcription="" points="843,1833 854,1831 855,1915 843,1916 " />
<polygon class="Wall" fill="#AFD8F8" id="33" transcription="" points="950,1841 963,1841 962,1916 950,1917 " />
<polygon class="Wall" fill="#AFD8F8" id="34" transcription="" points="1169,1839 1180,1840 1179,1916 1170,1916 " />
<polygon class="Wall" fill="#AFD8F8" id="35" transcription="" points="1062,1629 1075,1629 1073,1744 1063,1744 " />
<polygon class="Wall" fill="#AFD8F8" id="36" transcription="" points="1168,1747 1180,1748 1182,1503 1165,1505 " />
<polygon class="Window" fill="#F6BD0F" id="37" transcription="" points="693,883 693,1029 750,1031 790,965 773,954 787,947 748,878 " />
<polygon class="Window" fill="#F6BD0F" id="38" transcription="" points="978,694 1054,693 1054,749 992,782 978,751 " />
<polygon class="Window" fill="#F6BD0F" id="39" transcription="" points="1110,693 1182,692 1185,747 1176,783 1111,742 " />
<polygon class="Window" fill="#F6BD0F" id="40" transcription="" points="1468,880 1468,1029 1411,1030 1377,964 1386,953 1378,944 1418,880 " />
<polygon class="Door" fill="#8BBA00" id="41" transcription="" points="948,1096 948,1193 857,1193 858,1149 892,1106 " />
<polygon class="Door" fill="#8BBA00" id="42" transcription="" points="1053,1195 947,1197 948,1287 1014,1274 1043,1238 " />
<polygon class="Door" fill="#8BBA00" id="43" transcription="" points="905,1379 952,1299 951,1393 923,1393 " />
<polygon class="Wall" fill="#AFD8F8" id="44" transcription="" points="1464,1309 1417,1309 1418,1030 1462,1030 " />
<polygon class="Window" fill="#F6BD0F" id="45" transcription="" points="1470,1308 1469,1383 1416,1385 1396,1381 1380,1371 1415,1305 " />
<polygon class="Door" fill="#8BBA00" id="46" transcription="" points="1056,1499 950,1504 950,1408 1000,1414 1034,1445 " />
<polygon class="Door" fill="#8BBA00" id="47" transcription="" points="588,2324 588,2470 685,2471 688,2421 681,2366 633,2328 " />
<polygon class="Door" fill="#8BBA00" id="48" transcription="" points="1576,2315 1577,2462 1474,2462 1474,2413 1484,2365 1519,2329 " />
<polygon class="Window" fill="#F6BD0F" id="49" transcription="" points="914,2472 1249,2471 1248,2409 914,2409 " />
<polygon class="Window" fill="#F6BD0F" id="50" transcription="" points="459,2134 462,2286 511,2284 546,2217 535,2205 549,2200 511,2134 " />
<polygon class="Window" fill="#F6BD0F" id="51" transcription="" points="1706,2135 1706,2276 1648,2276 1616,2217 1625,2205 1613,2201 1652,2133 " />
<polygon class="Window" fill="#F6BD0F" id="52" transcription="" points="1708,1686 1706,1828 1647,1828 1612,1766 1625,1761 1611,1752 1644,1689 " />
<polygon class="Door" fill="#8BBA00" id="53" transcription="" points="1631,1643 1635,1496 1536,1496 1540,1588 1575,1627 " />
<polygon class="Door" fill="#8BBA00" id="54" transcription="" points="1263,1743 1172,1749 1170,1838 1219,1831 1257,1797 " />
<polygon class="Door" fill="#8BBA00" id="55" transcription="" points="1090,1785 1167,1736 1073,1738 1074,1765 " />
<polygon class="Door" fill="#8BBA00" id="56" transcription="" points="758,1741 857,1745 854,1842 795,1823 761,1783 " />
<polygon class="Door" fill="#8BBA00" id="57" transcription="" points="529,1642 532,1504 630,1501 631,1547 622,1593 581,1634 " />
<polygon class="Window" fill="#F6BD0F" id="58" transcription="" points="462,1685 462,1827 513,1831 551,1765 540,1757 554,1751 517,1689 " />
<polygon class="Room" fill="#FF8E46" id="59" transcription="" points="511,1953 1170,1948 1178,2403 516,2413 " />
<polygon class="Room" fill="#FF8E46" id="60" transcription="" points="1185,1549 1187,1939 1645,1936 1643,1549 " />
<polygon class="Room" fill="#FF8E46" id="61" transcription="" points="751,1201 748,1497 859,1502 859,1913 946,1920 941,1201 " />
<polygon class="Room" fill="#FF8E46" id="62" transcription="" points="835,1554 838,1906 516,1910 516,1554 " />
<polygon class="Room" fill="#FF8E46" id="63" transcription="" points="755,748 1075,748 1075,1178 753,1176 " />
<polygon class="Room" fill="#FF8E46" id="64" transcription="" points="1094,753 1408,753 1410,1284 955,1286 955,1204 1096,1192 " />
<polygon class="Room" fill="#FF8E46" id="65" transcription="" points="1413,1310 1415,1494 960,1498 955,1409 1183,1411 1187,1310 " />
<polygon class="Room" fill="#FF8E46" id="66" transcription="" points="1166,1389 960,1387 962,1309 1161,1311 " />
<polygon class="Room" fill="#FF8E46" id="67" transcription="" points="963,1539 1169,1539 1162,1913 969,1913 " />
<polygon class="Room" fill="#FF8E46" id="68" transcription="" points="1181,1953 1641,1950 1638,2405 1184,2405 " />
<polygon class="Separation" fill="#008E8E" id="69" transcription="" points="858,1919 941,1919 941,1947 858,1947 " />
<polygon class="Separation" fill="#008E8E" id="70" transcription="" points="1165,1939 1188,1939 1188,2402 1165,2402 " />
<polygon class="Separation" fill="#008E8E" id="71" transcription="" points="943,1535 955,1535 955,1840 943,1840 " />
<polygon class="Separation" fill="#008E8E" id="72" transcription="" points="1168,1926 1646,1926 1646,1949 1168,1949 " />
<relation type="incident" objects="4,0"/>
<relation type="incident" objects="0,38"/>
<relation type="incident" objects="38,1"/>
<relation type="incident" objects="1,39"/>
<relation type="incident" objects="39,2"/>
<relation type="incident" objects="2,3"/>
<relation type="incident" objects="3,40"/>
<relation type="incident" objects="40,44"/>
<relation type="incident" objects="44,45"/>
<relation type="incident" objects="45,8"/>
<relation type="incident" objects="8,9"/>
<relation type="incident" objects="9,53"/>
<relation type="incident" objects="53,10"/>
<relation type="incident" objects="10,11"/>
<relation type="incident" objects="11,52"/>
<relation type="incident" objects="52,12"/>
<relation type="incident" objects="12,51"/>
<relation type="incident" objects="51,13"/>
<relation type="incident" objects="13,14"/>
<relation type="incident" objects="14,48"/>
<relation type="incident" objects="48,15"/>
<relation type="incident" objects="15,49"/>
<relation type="incident" objects="49,16"/>
<relation type="incident" objects="16,47"/>
<relation type="incident" objects="47,17"/>
<relation type="incident" objects="17,18"/>
<relation type="incident" objects="18,50"/>
<relation type="incident" objects="50,19"/>
<relation type="incident" objects="19,20"/>
<relation type="incident" objects="19,58"/>
<relation type="incident" objects="21,58"/>
<relation type="incident" objects="21,22"/>
<relation type="incident" objects="22,57"/>
<relation type="incident" objects="57,23"/>
<relation type="incident" objects="23,5"/>
<relation type="incident" objects="5,37"/>
<relation type="incident" objects="37,4"/>
<relation type="incident" objects="5,30"/>
<relation type="incident" objects="41,30"/>
<relation type="incident" objects="41,26"/>
<relation type="incident" objects="26,25"/>
<relation type="incident" objects="25,1"/>
<relation type="incident" objects="26,42"/>
<relation type="incident" objects="42,27"/>
<relation type="incident" objects="27,29"/>
<relation type="incident" objects="29,28"/>
<relation type="incident" objects="28,43"/>
<relation type="incident" objects="43,27"/>
<relation type="incident" objects="28,46"/>
<relation type="incident" objects="46,6"/>
<relation type="incident" objects="6,9"/>
<relation type="incident" objects="6,8"/>
<relation type="incident" objects="5,7"/>
<relation type="incident" objects="23,7"/>
<relation type="incident" objects="7,31"/>
<relation type="incident" objects="31,56"/>
<relation type="incident" objects="56,32"/>
<relation type="incident" objects="32,20"/>
<relation type="incident" objects="6,36"/>
<relation type="incident" objects="36,54"/>
<relation type="incident" objects="54,34"/>
<relation type="incident" objects="34,24"/>
<relation type="incident" objects="24,33"/>
<relation type="incident" objects="36,55"/>
<relation type="incident" objects="35,55"/>
<relation type="incident" objects="20,69"/>
<relation type="incident" objects="24,69"/>
<relation type="incident" objects="69,33"/>
<relation type="incident" objects="69,32"/>
<relation type="incident" objects="33,71"/>
<relation type="incident" objects="71,6"/>
<relation type="incident" objects="24,70"/>
<relation type="incident" objects="70,34"/>
<relation type="incident" objects="70,49"/>
<relation type="neighbour" objects="59,68"/>
<relation type="neighbour" objects="68,60"/>
<relation type="neighbour" objects="60,67"/>
<relation type="neighbour" objects="67,68"/>
<relation type="neighbour" objects="59,67"/>
<relation type="neighbour" objects="59,61"/>
<relation type="neighbour" objects="61,67"/>
<relation type="neighbour" objects="59,62"/>
<relation type="neighbour" objects="62,61"/>
<relation type="neighbour" objects="67,65"/>
<relation type="neighbour" objects="65,60"/>
<relation type="neighbour" objects="61,66"/>
<relation type="neighbour" objects="66,65"/>
<relation type="neighbour" objects="66,64"/>
<relation type="neighbour" objects="64,65"/>
<relation type="neighbour" objects="64,63"/>
<relation type="neighbour" objects="63,61"/>
<relation type="access" objects="59,47,59"/>
<relation type="access" objects="68,48,68"/>
<relation type="access" objects="61,56,62"/>
<relation type="access" objects="67,54,60"/>
<relation type="access" objects="62,57,62"/>
<relation type="access" objects="61,46,65"/>
<relation type="access" objects="66,43,61"/>
<relation type="access" objects="60,53,60"/>
<relation type="access" objects="61,42,64"/>
<relation type="access" objects="61,41,63"/>
<relation type="access" objects="59,70,68"/>
<relation type="access" objects="68,72,60"/>
<relation type="incident" objects="72,12"/>
<relation type="incident" objects="72,24"/>
<relation type="incident" objects="72,34"/>
<relation type="access" objects="61,71,67"/>
<relation type="access" objects="59,69,61"/>
<relation type="outerP" objects="0,4,37,5,23,57,22,21,58,19,50,18,17,47,16,49,15,48,14,13,51,12,52,11,10,53,9,8,45,44,40,3,2,39,1,38"/>
<relation type="surround" objects="0,38,1,25,26,41,30,5,37,4,0,63"/>
<relation type="surround" objects="1,39,2,3,40,44,27,42,26,25,1,64"/>
<relation type="surround" objects="27,29,28,43,27,66"/>
<relation type="surround" objects="28,29,27,45,8,6,46,28,65"/>
<relation type="surround" objects="30,41,42,27,43,28,46,6,71,33,69,32,56,31,7,5,30,61"/>
<relation type="surround" objects="6,36,54,34,24,33,71,6,67"/>
<relation type="surround" objects="6,9,53,10,11,52,12,72,34,54,36,6,60"/>
<relation type="surround" objects="22,57,23,7,31,56,32,20,19,58,21,22,62"/>
<relation type="surround" objects="20,69,24,70,49,16,47,17,18,50,19,20,59"/>
<relation type="surround" objects="72,12,51,13,14,48,15,49,70,72,68"/>
</svg>