<?xml version="1.0" encoding="UTF-8"?><!DOCTYPE svg PUBLIC "-//W3C//DTD SVG 1.1//EN" "http://www.w3.org/Graphics/SVG/1.1/DTD/svg11.dtd">
<svg xmlns="http://www.w3.org/2000/svg" version="1.1">
<width>2479</width>
<height>3508</height>
<nclasslabel>50</nclasslabel>
<nclassappear>5</nclassappear>
<class>Bidet-1</class>
<class>Bidet-2</class>
<class>Bidet-3</class>
<class>Bidet-4</class>
<class>Door</class>
<class>Door-1</class>
<class>Door-23</class>
<class>Oven-1</class>
<class>Oven-2</class>
<class>Oven-3</class>
<class>Oven-4</class>
<class>Parking</class>
<class>Roof</class>
<class>Room</class>
<class>Separation</class>
<class>Sink-1</class>
<class>Sink-11</class>
<class>Sink-12</class>
<class>Sink-13</class>
<class>Sink-14</class>
<class>Sink-2</class>
<class>Sink-3</class>
<class>Sink-4</class>
<class>Sink-5</class>
<class>Sink-6</class>
<class>Sofa-1</class>
<class>Sofa-3</class>
<class>Sofa-4</class>
<class>Sofa-5</class>
<class>Sofa-6</class>
<class>Sofa-7</class>
<class>Sofa-8</class>
<class>Sofa-9</class>
<class>Stairs-1</class>
<class>Table-1</class>
<class>Table-2</class>
<class>Table-3</class>
<class>Table-4</class>
<class>Table-5</class>
<class>Table-6</class>
<class>Table-7</class>
<class>Text</class>
<class>Tub-1</class>
<class>Tub-3</class>
<class>TV-1</class>
<class>TV-2</class>
<class>Wall</class>
<class>Wall-1</class>
<class>Wallieee</class>
<class>Window</class>
<polygon class="Wall" fill="#AFD8F8" id="0" transcription="" points="1505,1271 1515,1268 1513,1387 1502,1387 " />
<polygon class="Window" fill="#F6BD0F" id="1" transcription="" points="913,1041 868,963 819,960 819,1056 865,1057 895,1058 " />
<polygon class="Window" fill="#F6BD0F" id="2" transcription="" points="748,1137 780,1173 627,1328 595,1289 " />
<polygon class="Window" fill="#F6BD0F" id="3" transcription="" points="1500,989 1439,957 1436,907 1509,905 1515,955 " />
<polygon class="Door" fill="#8BBA00" id="4" transcription="" points="1508,1392 1651,1394 1657,1494 1609,1497 1550,1482 1514,1431 " />
<polygon class="Window" fill="#F6BD0F" id="5" transcription="" points="1686,1703 1735,1703 1739,1881 1685,1883 " />
<polygon class="Window" fill="#F6BD0F" id="6" transcription="" points="1432,2032 1434,2082 1609,2081 1609,2029 " />
<polygon class="Door" fill="#8BBA00" id="7" transcription="" points="1239,1824 1240,1960 1150,1962 1142,1915 1156,1857 1202,1824 " />
<polygon class="Window" fill="#F6BD0F" id="8" transcription="" points="755,1642 790,1606 586,1406 557,1442 " />
<polygon class="Door" fill="#8BBA00" id="9" transcription="" points="1528,1503 1613,1550 1518,1549 1517,1523 " />
<polygon class="Door" fill="#8BBA00" id="10" transcription="" points="1388,1291 1389,1382 1297,1386 1301,1336 1336,1301 " />
<polygon class="Room" fill="#FF8E46" id="11" transcription="" points="1275,1634 1497,1635 1503,1662 1686,1664 1686,2028 1299,2028 1299,1912 1276,1915 " />
<polygon class="Room" fill="#FF8E46" id="12" transcription="" points="865,1093 571,1388 1098,1912 1271,1912 1267,1390 1158,1393 " />
<polygon class="Room" fill="#FF8E46" id="13" transcription="" points="1286.5,1387.5 1284.5,1621.5 1504.5,1616.5 1499.5,1542.5 1604.5,1541.5 1607.5,1394.5 " />
<polygon class="Door" fill="#8BBA00" id="14" transcription="" points="1418,1428 1503,1380 1399,1379 " />
<polygon class="Room" fill="#FF8E46" id="15" transcription="" points="869,960 870,1078 1162,1372 1251,1374 1249,1349 1284,1351 1284,1370 1385,1372 1388,958 " />
<polygon class="Room" fill="#FF8E46" id="16" transcription="" points="1514,1555 1516,1643 1683,1648 1682,1558 " />
<polygon class="Door" fill="#8BBA00" id="17" transcription="" points="1490,1157 1400,1157 1393,1060 1450,1072 1481,1107 " />
<polygon class="Wall" fill="#AFD8F8" id="18" transcription="" points="505,1386 559,1444 587,1405 537,1355 " />
<polygon class="Wall" fill="#AFD8F8" id="19" transcription="" points="597,1299 534,1358 571,1389 626,1328 " />
<polygon class="Wall" fill="#AFD8F8" id="20" transcription="" points="754,1144 783,1169 863,1094 824,1068 " />
<polygon class="Wall" fill="#AFD8F8" id="21" transcription="" points="819,1090 869,1091 864,1058 819,1053 " />
<polygon class="Wall" fill="#AFD8F8" id="22" transcription="" points="864,1091 1160,1390 1162,1376 871,1084 " />
<polygon class="Wall" fill="#AFD8F8" id="23" transcription="" points="1162,1390 1305,1389 1303,1379 1161,1379 " />
<polygon class="Wall" fill="#AFD8F8" id="24" transcription="" points="1253,1355 1285,1357 1285,1380 1258,1382 " />
<polygon class="Wall" fill="#AFD8F8" id="25" transcription="" points="1078,1959 761,1641 790,1613 1098,1915 " />
<polygon class="Wall" fill="#AFD8F8" id="26" transcription="" points="1149,1966 1077,1964 1099,1914 1141,1918 " />
<polygon class="Wall" fill="#AFD8F8" id="27" transcription="" points="837,2055 860,2055 860,2078 839,2076 " />
<polygon class="Wall" fill="#AFD8F8" id="28" transcription="" points="1241,1961 1298,1959 1298,1917 1242,1917 " />
<polygon class="Wall" fill="#AFD8F8" id="29" transcription="" points="1258,2076 1256,1961 1297,1958 1302,2075 " />
<polygon class="Wall" fill="#AFD8F8" id="30" transcription="" points="1432,2080 1255,2084 1254,2035 1432,2035 " />
<polygon class="Wall" fill="#AFD8F8" id="31" transcription="" points="1728,2078 1610,2079 1607,2035 1732,2034 " />
<polygon class="Wall" fill="#AFD8F8" id="32" transcription="" points="1732,1887 1685,1885 1688,2034 1729,2034 " />
<polygon class="Wall" fill="#AFD8F8" id="33" transcription="" points="1729,1553 1682,1554 1685,1704 1736,1701 " />
<polygon class="Wall" fill="#AFD8F8" id="34" transcription="" points="1684,1653 1512,1650 1514,1660 1682,1663 " />
<polygon class="Wall" fill="#AFD8F8" id="35" transcription="" points="1502.5,1632.5 1273.5,1632.5 1273.5,1618.5 1501.5,1621.5 " />
<polygon class="Wall" fill="#AFD8F8" id="36" transcription="" points="1500,1545 1502,1663 1515,1662 1514,1549 " />
<polygon class="Wall" fill="#AFD8F8" id="37" transcription="" points="1732,1509 1732,1554 1612,1554 1613,1513 " />
<polygon class="Wall" fill="#AFD8F8" id="38" transcription="" points="1657,1495 1657,1553 1617,1553 1610,1496 " />
<polygon class="Wall" fill="#AFD8F8" id="39" transcription="" points="1651,949 1654,1392 1611,1389 1607,949 " />
<polygon class="Wall" fill="#AFD8F8" id="40" transcription="" points="1605,1172 1399,1170 1400,1156 1605,1158 " />
<polygon class="Wall" fill="#AFD8F8" id="41" transcription="" points="1399.5,1386.5 1404.5,1162.5 1392.5,1160.5 1390.5,1383.5 " />
<polygon class="Wall" fill="#AFD8F8" id="42" transcription="" points="1654,915 1509,915 1514,956 1651,959 " />
<polygon class="Room" fill="#FF8E46" id="43" transcription="" points="1604,1150 1405,1147 1402,961 1602,965 " />
<polygon class="Wall" fill="#AFD8F8" id="44" transcription="" points="824,915 1435,915 1437,960 828,958 " />
<polygon class="Wall" fill="#AFD8F8" id="45" transcription="" points="1388,956 1390,1059 1403,1058 1402,961 " />
<polygon class="Separation" fill="#008E8E" id="46" transcription="" points="1264,1388 1281,1388 1281,1540 1264,1540 " />
<polygon class="Separation" fill="#008E8E" id="47" transcription="" points="1267,1631 1279,1631 1279,1912 1267,1912 " />
<polygon class="Wall" fill="#AFD8F8" id="48" transcription="" points="1270,1544 1283,1544 1283,1626 1270,1626 " />
<polygon class="Separation" fill="#008E8E" id="49" transcription="" points="1509,1378 1611,1378 1611,1393 1509,1393 " />
<polygon class="Room" fill="#FF8E46" id="50" transcription="" points="1402,1171 1606,1171 1606,1373 1402,1373 " />
<relation type="incident" objects="20,2"/>
<relation type="incident" objects="2,19"/>
<relation type="incident" objects="19,18"/>
<relation type="incident" objects="18,8"/>
<relation type="incident" objects="8,25"/>
<relation type="incident" objects="25,26"/>
<relation type="incident" objects="26,7"/>
<relation type="incident" objects="7,28"/>
<relation type="incident" objects="28,29"/>
<relation type="incident" objects="29,30"/>
<relation type="incident" objects="30,6"/>
<relation type="incident" objects="6,31"/>
<relation type="incident" objects="31,32"/>
<relation type="incident" objects="32,5"/>
<relation type="incident" objects="5,33"/>
<relation type="incident" objects="33,37"/>
<relation type="incident" objects="37,38"/>
<relation type="incident" objects="38,4"/>
<relation type="incident" objects="4,39"/>
<relation type="incident" objects="39,42"/>
<relation type="incident" objects="42,3"/>
<relation type="incident" objects="3,44"/>
<relation type="incident" objects="44,1"/>
<relation type="incident" objects="1,21"/>
<relation type="incident" objects="21,20"/>
<relation type="incident" objects="33,34"/>
<relation type="incident" objects="9,36"/>
<relation type="incident" objects="36,34"/>
<relation type="incident" objects="9,37"/>
<relation type="incident" objects="9,38"/>
<relation type="incident" objects="36,35"/>
<relation type="incident" objects="35,48"/>
<relation type="incident" objects="48,46"/>
<relation type="incident" objects="48,47"/>
<relation type="incident" objects="47,28"/>
<relation type="incident" objects="46,23"/>
<relation type="incident" objects="23,24"/>
<relation type="incident" objects="23,10"/>
<relation type="incident" objects="10,41"/>
<relation type="incident" objects="41,14"/>
<relation type="incident" objects="14,0"/>
<relation type="incident" objects="0,49"/>
<relation type="incident" objects="49,39"/>
<relation type="incident" objects="23,22"/>
<relation type="incident" objects="22,21"/>
<relation type="incident" objects="40,39"/>
<relation type="incident" objects="40,17"/>
<relation type="incident" objects="41,17"/>
<relation type="incident" objects="17,45"/>
<relation type="incident" objects="45,44"/>
<relation type="incident" objects="47,35"/>
<relation type="incident" objects="47,48"/>
<relation type="neighbour" objects="11,12"/>
<relation type="neighbour" objects="12,13"/>
<relation type="neighbour" objects="13,16"/>
<relation type="neighbour" objects="16,11"/>
<relation type="neighbour" objects="11,13"/>
<relation type="neighbour" objects="13,50"/>
<relation type="neighbour" objects="13,15"/>
<relation type="neighbour" objects="15,12"/>
<relation type="neighbour" objects="50,43"/>
<relation type="neighbour" objects="43,15"/>
<relation type="neighbour" objects="50,15"/>
<relation type="access" objects="12,7,12"/>
<relation type="access" objects="13,9,16"/>
<relation type="access" objects="13,4,13"/>
<relation type="access" objects="13,14,50"/>
<relation type="access" objects="15,17,43"/>
<relation type="access" objects="12,47,11"/>
<relation type="access" objects="12,46,13"/>
<relation type="access" objects="13,10,15"/>
<relation type="outerP" objects="44,3,42,39,4,38,37,33,5,32,31,6,30,29,28,7,26,25,8,18,19,2,20,21,1"/>
<relation type="surround" objects="44,45,17,41,10,23,22,21,1,44,15"/>
<relation type="surround" objects="44,3,42,39,40,17,45,44,43"/>
<relation type="surround" objects="40,39,49,14,41,40,50"/>
<relation type="surround" objects="19,2,20,22,23,46,48,47,28,7,26,25,8,18,19,12"/>
<relation type="surround" objects="23,10,41,14,49,4,38,9,36,35,48,46,23,13"/>
<relation type="surround" objects="9,37,33,34,36,9,16"/>
<relation type="surround" objects="35,36,34,33,5,32,31,6,30,29,28,47,35,11"/>
</svg>