<?xml version="1.0" encoding="UTF-8"?><!DOCTYPE svg PUBLIC "-//W3C//DTD SVG 1.1//EN" "http://www.w3.org/Graphics/SVG/1.1/DTD/svg11.dtd">
<svg xmlns="http://www.w3.org/2000/svg" version="1.1">
<width>2479</width>
<height>3508</height>
<nclasslabel>50</nclasslabel>
<nclassappear>5</nclassappear>
<class>Bidet-1</class>
<class>Bidet-2</class>
<class>Bidet-3</class>
<class>Bidet-4</class>
<class>Door</class>
<class>Door-1</class>
<class>Door-23</class>
<class>Oven-1</class>
<class>Oven-2</class>
<class>Oven-3</class>
<class>Oven-4</class>
<class>Parking</class>
<class>Roof</class>
<class>Room</class>
<class>Separation</class>
<class>Sink-1</class>
<class>Sink-11</class>
<class>Sink-12</class>
<class>Sink-13</class>
<class>Sink-14</class>
<class>Sink-2</class>
<class>Sink-3</class>
<class>Sink-4</class>
<class>Sink-5</class>
<class>Sink-6</class>
<class>Sofa-1</class>
<class>Sofa-3</class>
<class>Sofa-4</class>
<class>Sofa-5</class>
<class>Sofa-6</class>
<class>Sofa-7</class>
<class>Sofa-8</class>
<class>Sofa-9</class>
<class>Stairs-1</class>
<class>Table-1</class>
<class>Table-2</class>
<class>Table-3</class>
<class>Table-4</class>
<class>Table-5</class>
<class>Table-6</class>
<class>Table-7</class>
<class>Text</class>
<class>Tub-1</class>
<class>Tub-3</class>
<class>TV-1</class>
<class>TV-2</class>
<class>Wall</class>
<class>Wall-1</class>
<class>Wallieee</class>
<class>Window</class>
<polygon class="Wall" fill="#AFD8F8" id="0" transcription="" points="577,913 1441,911 1441,955 577,953 " />
<polygon class="Wall" fill="#AFD8F8" id="1" transcription="" points="1511,911 1503,961 1698,956 1693,913 " />
<polygon class="Wall" fill="#AFD8F8" id="2" transcription="" points="1651,1212 1698,1212 1694,914 1648,913 " />
<polygon class="Wall" fill="#AFD8F8" id="3" transcription="" points="1651,1352 1695,1353 1698,1655 1653,1654 " />
<polygon class="Wall" fill="#AFD8F8" id="4" transcription="" points="1654,1799 1697,1798 1695,1953 1653,1953 " />
<polygon class="Wall" fill="#AFD8F8" id="5" transcription="" points="1546,1909 1546,1953 1698,1954 1697,1909 " />
<polygon class="Wall" fill="#AFD8F8" id="6" transcription="" points="1369,1909 1368,1954 1218,1954 1216,1907 " />
<polygon class="Wall" fill="#AFD8F8" id="7" transcription="" points="1220,1808 1264,1808 1263,1755 1218,1756 " />
<polygon class="Wall" fill="#AFD8F8" id="8" transcription="" points="1124.5,1754.5 1125.5,1798.5 1263.5,1798.5 1261.5,1753.5 " />
<polygon class="Wall" fill="#AFD8F8" id="9" transcription="" points="844,1756 695,1755 695,1798 844,1798 " />
<polygon class="Wall" fill="#AFD8F8" id="10" transcription="" points="739,1738 737,1796 695,1798 696,1738 " />
<polygon class="Wall" fill="#AFD8F8" id="11" transcription="" points="737.5,1453 696.5,1452 697.5,1397 736.5,1397 " />
<polygon class="Wall" fill="#AFD8F8" id="12" transcription="" points="576,1253 619,1254 622,1441 575,1434 " />
<polygon class="Wall" fill="#AFD8F8" id="13" transcription="" points="575,1113 620,1115 621,908 575,908 " />
<polygon class="Wall" fill="#AFD8F8" id="14" transcription="" points="1297.5,1271.5 1319.5,1271.5 1320.5,1319.5 1298.5,1318.5 " />
<polygon class="Wall" fill="#AFD8F8" id="15" transcription="" points="1220,1297 1321,1295 1321,1321 1220,1321 " />
<polygon class="Wall" fill="#AFD8F8" id="16" transcription="" points="1219.5,1437 1242.5,1437 1242.5,1298 1218.5,1297 " />
<polygon class="Wall" fill="#AFD8F8" id="17" transcription="" points="1298,1174 1321,1173 1322,952 1296,953 " />
<polygon class="Wall" fill="#AFD8F8" id="18" transcription="" points="1445,1050 1445,1062 1320,1061 1319,1050 " />
<polygon class="Wall" fill="#AFD8F8" id="19" transcription="" points="1528,1050.5 1528,1061.5 1650,1061.5 1650,1051.5 " />
<polygon class="Wall" fill="#AFD8F8" id="20" transcription="" points="1238,1533 1237,1524 1653,1525 1653,1534 " />
<polygon class="Wall" fill="#AFD8F8" id="21" transcription="" points="1237,1437 1246,1437 1245,1534 1237,1535 " />
<polygon class="Window" fill="#F6BD0F" id="22" transcription="" points="1438,910 1512,910 1512,954 1452,995 1436,973 1436,952 " />
<polygon class="Door" fill="#8BBA00" id="23" transcription="" points="1454,1109 1530,1058 1443,1057 1440,1089 " />
<polygon class="Window" fill="#F6BD0F" id="24" transcription="" points="1705,1209 1705,1353 1645,1357 1611,1294 1622,1284 1609,1278 1642,1214 " />
<polygon class="Window" fill="#F6BD0F" id="25" transcription="" points="1706,1652 1706,1797 1643,1801 1609,1734 1621,1728 1606,1718 1640,1655 " />
<polygon class="Window" fill="#F6BD0F" id="26" transcription="" points="1364,1961 1547,1959 1552,1903 1364,1903 " />
<polygon class="Window" fill="#F6BD0F" id="27" transcription="" points="842,1807 1126,1807 1129,1746 841,1746 " />
<polygon class="Window" fill="#F6BD0F" id="28" transcription="" points="690,1735 742,1734 742,1451 689,1448 " />
<polygon class="Wall" fill="#AFD8F8" id="29" transcription="" points="576,1398 742,1398 741,1438 571,1441 " />
<polygon class="Window" fill="#F6BD0F" id="30" transcription="" points="565,1109 628,1110 660,1173 648,1183 660,1187 628,1255 565,1257 " />
<polygon class="Door" fill="#8BBA00" id="31" transcription="" points="1416,1172 1313,1172 1316,1275 1368,1260 1400,1224 " />
<polygon class="Door" fill="#8BBA00" id="32" transcription="" points="1369,1906 1215,1904 1213,1808 1265,1806 1317,1813 1356,1850 " />
<polygon class="Room" fill="#FF8E46" id="33" transcription="" points="628.5,959.5 1290.5,959.5 1297.5,1285.5 1222.5,1287.5 1217,1391 621.5,1386.5 " />
<polygon class="Room" fill="#FF8E46" id="34" transcription="" points="1262,1537 1649.5,1543.5 1647.5,1907.5 1262.5,1902.5 " />
<polygon class="Room" fill="#FF8E46" id="35" transcription="" points="1650,1518 1253,1518 1251,1328 1335,1326 1331,1070 1645,1070 " />
<polygon class="Room" fill="#FF8E46" id="36" transcription="" points="1331,959.5 1641,956.5 1645,1041.5 1331,1048.5 " />
<polygon class="Separation" fill="#008E8E" id="37" transcription="" points="1235,1531 1251,1525 1252,1755 1233,1754 " />
<polygon class="Room" fill="#FF8E46" id="38" transcription="" points="747,1398 1219,1398 1223,1753 747,1750 " />
<polygon class="Separation" fill="#008E8E" id="39" transcription="" points="736,1383 1219,1383 1219,1400 736,1400 " />
<relation type="incident" objects="2,24"/>
<relation type="incident" objects="3,24"/>
<relation type="incident" objects="3,25"/>
<relation type="incident" objects="4,25"/>
<relation type="incident" objects="20,3"/>
<relation type="incident" objects="5,4"/>
<relation type="incident" objects="26,5"/>
<relation type="incident" objects="6,26"/>
<relation type="incident" objects="32,6"/>
<relation type="incident" objects="7,32"/>
<relation type="incident" objects="8,7"/>
<relation type="incident" objects="27,8"/>
<relation type="incident" objects="9,27"/>
<relation type="incident" objects="11,28"/>
<relation type="incident" objects="29,11"/>
<relation type="incident" objects="12,29"/>
<relation type="incident" objects="30,12"/>
<relation type="incident" objects="13,30"/>
<relation type="incident" objects="0,13"/>
<relation type="incident" objects="22,0"/>
<relation type="incident" objects="1,22"/>
<relation type="incident" objects="2,1"/>
<relation type="incident" objects="17,0"/>
<relation type="incident" objects="17,18"/>
<relation type="incident" objects="18,23"/>
<relation type="incident" objects="23,19"/>
<relation type="incident" objects="19,2"/>
<relation type="incident" objects="17,31"/>
<relation type="incident" objects="31,14"/>
<relation type="incident" objects="14,15"/>
<relation type="incident" objects="15,16"/>
<relation type="incident" objects="16,21"/>
<relation type="incident" objects="21,20"/>
<relation type="incident" objects="28,10"/>
<relation type="incident" objects="9,10"/>
<relation type="incident" objects="10,28"/>
<relation type="incident" objects="29,39"/>
<relation type="incident" objects="39,11"/>
<relation type="incident" objects="39,16"/>
<relation type="incident" objects="37,20"/>
<relation type="incident" objects="37,7"/>
<relation type="incident" objects="37,8"/>
<relation type="incident" objects="37,21"/>
<relation type="neighbour" objects="33,38"/>
<relation type="neighbour" objects="38,34"/>
<relation type="neighbour" objects="34,35"/>
<relation type="neighbour" objects="35,38"/>
<relation type="neighbour" objects="35,36"/>
<relation type="neighbour" objects="35,33"/>
<relation type="neighbour" objects="33,36"/>
<relation type="access" objects="34,32,34"/>
<relation type="access" objects="33,31,35"/>
<relation type="access" objects="35,23,36"/>
<relation type="access" objects="38,37,34"/>
<relation type="access" objects="38,39,33"/>
<relation type="outerP" objects="0,22,1,2,24,3,25,4,5,26,6,32,7,8,27,9,10,28,11,29,12,30,13"/>
<relation type="surround" objects="0,13,30,12,29,39,16,15,14,31,17,0,33"/>
<relation type="surround" objects="0,22,1,2,19,23,18,17,0,36"/>
<relation type="surround" objects="18,23,19,2,24,3,20,21,16,15,14,31,17,18,35"/>
<relation type="surround" objects="39,16,21,37,8,27,9,10,28,11,39,38"/>
<relation type="surround" objects="20,3,25,4,5,26,6,32,7,37,20,34"/>
</svg>