<?xml version="1.0" encoding="UTF-8"?><!DOCTYPE svg PUBLIC "-//W3C//DTD SVG 1.1//EN" "http://www.w3.org/Graphics/SVG/1.1/DTD/svg11.dtd">
<svg xmlns="http://www.w3.org/2000/svg" version="1.1">
<width>2480</width>
<height>3508</height>
<nclasslabel>50</nclasslabel>
<nclassappear>6</nclassappear>
<class>Bidet-1</class>
<class>Bidet-2</class>
<class>Bidet-3</class>
<class>Bidet-4</class>
<class>Door</class>
<class>Door-1</class>
<class>Door-23</class>
<class>Oven-1</class>
<class>Oven-2</class>
<class>Oven-3</class>
<class>Oven-4</class>
<class>Parking</class>
<class>Roof</class>
<class>Room</class>
<class>Separation</class>
<class>Sink-1</class>
<class>Sink-11</class>
<class>Sink-12</class>
<class>Sink-13</class>
<class>Sink-14</class>
<class>Sink-2</class>
<class>Sink-3</class>
<class>Sink-4</class>
<class>Sink-5</class>
<class>Sink-6</class>
<class>Sofa-1</class>
<class>Sofa-3</class>
<class>Sofa-4</class>
<class>Sofa-5</class>
<class>Sofa-6</class>
<class>Sofa-7</class>
<class>Sofa-8</class>
<class>Sofa-9</class>
<class>Stairs-1</class>
<class>Table-1</class>
<class>Table-2</class>
<class>Table-3</class>
<class>Table-4</class>
<class>Table-5</class>
<class>Table-6</class>
<class>Table-7</class>
<class>Text</class>
<class>Tub-1</class>
<class>Tub-3</class>
<class>TV-1</class>
<class>TV-2</class>
<class>Wall</class>
<class>Wall-1</class>
<class>Wallieee</class>
<class>Window</class>
<polygon class="Wall" fill="#AFD8F8" id="0" transcription="" points="1524,741 1525,765 1625,766 1625,741 " />
<polygon class="Wall" fill="#AFD8F8" id="1" transcription="" points="1649,739.5 1626,739.5 1625,1460.5 1649,1460.5 " />
<polygon class="Wall" fill="#AFD8F8" id="2" transcription="" points="1626,1544 1649,1544 1649,1615 1625,1615 " />
<polygon class="Wall" fill="#AFD8F8" id="3" transcription="" points="1524,1614 1524,1640 1605,1640 1605,1614 " />
<polygon class="Wall" fill="#AFD8F8" id="4" transcription="" points="1607,1733 1649,1734 1649,1615 1606,1615 " />
<polygon class="Wall" fill="#AFD8F8" id="5" transcription="" points="1607,1887 1649,1887 1648,2014 1607,2014 " />
<polygon class="Wall" fill="#AFD8F8" id="6" transcription="" points="1606,2294 1648,2294 1648,2120 1607,2120 " />
<polygon class="Wall" fill="#AFD8F8" id="7" transcription="" points="1607,2447 1648,2447 1650,2583 1608,2583 " />
<polygon class="Wall" fill="#AFD8F8" id="8" transcription="" points="1649,2626 1649,2583 1418,2583 1418,2626 " />
<polygon class="Wall" fill="#AFD8F8" id="9" transcription="" points="1135,2584 1135,2625 815,2626 815,2583 " />
<polygon class="Wall" fill="#AFD8F8" id="10" transcription="" points="988,2182 988,2253 1028,2253 1028,2182 " />
<polygon class="Wall" fill="#AFD8F8" id="11" transcription="" points="981,2112 987,2111 987,2583 981,2583 " />
<polygon class="Wall" fill="#AFD8F8" id="12" transcription="" points="1014,768 1012,742 976,741 976,766 " />
<polygon class="Wall" fill="#AFD8F8" id="13" transcription="" points="952,740 975,740 975,1261 951,1261 " />
<polygon class="Wall" fill="#AFD8F8" id="14" transcription="" points="976,1367 951,1367 951,1398 976,1398 " />
<polygon class="Wall" fill="#AFD8F8" id="15" transcription="" points="1399,1397 1399,1373 976,1373 976,1397 " />
<polygon class="Wall" fill="#AFD8F8" id="16" transcription="" points="1300,768 1300,741 1454,742 1454,768 " />
<polygon class="Wall" fill="#AFD8F8" id="17" transcription="" points="1424,1639 1401,1639 1399,1373 1424,1373 " />
<polygon class="Wall" fill="#AFD8F8" id="18" transcription="" points="1329,1632 1330,1639 1401,1639 1401,1632 " />
<polygon class="Wall" fill="#AFD8F8" id="19" transcription="" points="1323,1632 1329,1632 1330,1822 1323,1822 " />
<polygon class="Wall" fill="#AFD8F8" id="20" transcription="" points="1330,1822 1330,1828 981,1829 981,1822 " />
<polygon class="Wall" fill="#AFD8F8" id="21" transcription="" points="981,2005 981,2012 1057,2012 1057,2005 " />
<polygon class="Wall" fill="#AFD8F8" id="22" transcription="" points="479.5,1680.5 520.5,1680.5 520.5,1549.5 478.5,1549.5 " />
<polygon class="Wall" fill="#AFD8F8" id="23" transcription="" points="478,1509 478,1550 881,1550 881,1509 " />
<polygon class="Wall" fill="#AFD8F8" id="24" transcription="" points="478,2032 520,2032 520,1833 478,1833 " />
<polygon class="Wall" fill="#AFD8F8" id="25" transcription="" points="662,2626 662,2583 520,2583 520,2625 " />
<polygon class="Wall" fill="#AFD8F8" id="26" transcription="" points="480,2625 521,2626 520,2114 479,2114 " />
<polygon class="Wall" fill="#AFD8F8" id="27" transcription="" points="874,1946 874,2021 881,2021 881,1946 " />
<polygon class="Wall" fill="#AFD8F8" id="28" transcription="" points="519.5,2021.5 518.5,2028.5 880.5,2027.5 880.5,2020.5 " />
<polygon class="Wall" fill="#AFD8F8" id="29" transcription="" points="940,1550 940,1509 993,1509 993,1551 " />
<polygon class="Wall" fill="#AFD8F8" id="30" transcription="" points="980,1721 980,1550 987,1551 987,1721 " />
<polygon class="Wall" fill="#AFD8F8" id="31" transcription="" points="875,1550 880,1549 880,1845 875,1846 " />
<polygon class="Wall" fill="#AFD8F8" id="32" transcription="" points="1058,1828 1064,1828 1065,2011 1058,2012 " />
<polygon class="Wall" fill="#AFD8F8" id="33" transcription="" points="520,2235 520,2242 876,2242 876,2236 " />
<polygon class="Wall" fill="#AFD8F8" id="34" transcription="" points="880,2128 875,2128 876,2241 880,2242 " />
<polygon class="Parking" fill="#F6BD0F" id="35" transcription="" points="1007,726 1007,776 1298,775 1297,725 " />
<polygon class="Window" fill="#8BBA00" id="36" transcription="" points="1462,808 1529,770 1527,735 1451,734 1449,771 1453,791 " />
<polygon class="Window" fill="#8BBA00" id="37" transcription="" points="1580,1478 1619,1545 1653,1543 1653,1463 1619,1463 1596,1467 " />
<polygon class="Window" fill="#8BBA00" id="38" transcription="" points="1570,1801 1605,1737 1653,1735 1654,1883 1604,1883 1568,1818 1581,1810 " />
<polygon class="Door" fill="#FF8E46" id="39" transcription="" points="1510,2018 1647,2017 1651,2119 1602,2120 1543,2102 1514,2061 " />
<polygon class="Window" fill="#8BBA00" id="40" transcription="" points="1535,2300 1651,2296 1651,2447 1535,2445 1539,2404 1581,2370 1542,2340 " />
<polygon class="Window" fill="#8BBA00" id="41" transcription="" points="1137,2580 1136,2628 1416,2628 1416,2581 " />
<polygon class="Window" fill="#8BBA00" id="42" transcription="" points="747,2547 814,2580 813,2628 666,2628 664,2585 728,2547 739,2560 " />
<polygon class="Window" fill="#8BBA00" id="43" transcription="" points="558,2100 521,2035 474,2034 473,2113 520,2111 539,2109 " />
<polygon class="Window" fill="#8BBA00" id="44" transcription="" points="559,1767 522,1831 474,1831 476,1683 522,1682 558,1747 548,1758 " />
<polygon class="Window" fill="#8BBA00" id="45" transcription="" points="942,1550 883,1552 883,1506 944,1507 " />
<polygon class="Window" fill="#8BBA00" id="46" transcription="" points="1041,1483 990,1398 946,1400 946,1505 991,1505 1019,1499 " />
<polygon class="Door" fill="#FF8E46" id="47" transcription="" points="1060,1361 951,1361 948,1265 980,1265 1021,1285 1054,1321 " />
<polygon class="Door" fill="#FF8E46" id="48" transcription="" points="1426,1527 1426,1641 1521,1643 1521,1612 1509,1562 1471,1532 " />
<polygon class="Door" fill="#FF8E46" id="49" transcription="" points="1080,1818 980,1821 980,1725 1024,1727 1066,1766 " />
<polygon class="Door" fill="#FF8E46" id="50" transcription="" points="882,1811 880,1716 981,1717 966,1773 925,1806 " />
<polygon class="Door" fill="#FF8E46" id="51" transcription="" points="1079,2014 983,2017 981,2108 1030,2099 1072,2058 " />
<polygon class="Door" fill="#FF8E46" id="52" transcription="" points="976,2228 978,2129 884,2126 892,2186 926,2218 " />
<polygon class="Door" fill="#FF8E46" id="53" transcription="" points="785,2027 880,2028 880,2131 816,2106 791,2076 " />
<polygon class="Door" fill="#FF8E46" id="54" transcription="" points="786,1942 879,1945 878,1847 823,1862 797,1894 " />
<polygon class="Room" fill="#008E8E" id="55" transcription="" points="527,1555 523,2016 870,2016 871,1555 " />
<polygon class="Room" fill="#008E8E" id="56" transcription="" points="978,1553 978,1714 884,1712 884,1554 " />
<polygon class="Room" fill="#008E8E" id="57" transcription="" points="1392,1398.5 1397,1625.5 1320,1626.5 1318,1817.5 988,1815.5 990,1401.5 " />
<polygon class="Room" fill="#008E8E" id="58" transcription="" points="980,773 982,1367 1425,1371 1430,1604 1621,1609 1620,770 " />
<polygon class="Room" fill="#008E8E" id="59" transcription="" points="1053,1833 1052,1999 980,2001 975,2124 883,2121 886,1715 978,1719 979,1831 " />
<polygon class="Room" fill="#008E8E" id="60" transcription="" points="526,2229 871,2229 871,2030 523,2036 " />
<polygon class="Room" fill="#008E8E" id="61" transcription="" points="527,2247 523,2577 977,2579 972,2132 884,2132 884,2243 " />
<polygon class="Room" fill="#008E8E" id="62" transcription="" points="1333,2009 1606,2013 1602,1643 1332,1642 " />
<polygon class="Room" fill="#008E8E" id="63" transcription="" points="1070,1835 1070,2015 989,2018 991,2176 1031,2176 1031,2256 992,2259 991,2577 1604,2577 1617,2020 1324,2018 1325,1833 " />
<polygon class="Separation" fill="#D64646" id="64" transcription="" points="1325,1830 1324,2018 1619,2023 1617,2007 1339,2008 1339,1832 " />
<relation type="incident" objects="46,14"/>
<relation type="incident" objects="14,47"/>
<relation type="incident" objects="47,13"/>
<relation type="incident" objects="13,12"/>
<relation type="incident" objects="12,35"/>
<relation type="incident" objects="35,16"/>
<relation type="incident" objects="16,36"/>
<relation type="incident" objects="36,0"/>
<relation type="incident" objects="0,1"/>
<relation type="incident" objects="1,37"/>
<relation type="incident" objects="37,2"/>
<relation type="incident" objects="2,4"/>
<relation type="incident" objects="4,3"/>
<relation type="incident" objects="4,38"/>
<relation type="incident" objects="38,5"/>
<relation type="incident" objects="5,39"/>
<relation type="incident" objects="39,6"/>
<relation type="incident" objects="6,40"/>
<relation type="incident" objects="40,7"/>
<relation type="incident" objects="7,8"/>
<relation type="incident" objects="8,41"/>
<relation type="incident" objects="41,9"/>
<relation type="incident" objects="9,42"/>
<relation type="incident" objects="42,25"/>
<relation type="incident" objects="25,26"/>
<relation type="incident" objects="26,43"/>
<relation type="incident" objects="43,24"/>
<relation type="incident" objects="24,44"/>
<relation type="incident" objects="44,22"/>
<relation type="incident" objects="22,23"/>
<relation type="incident" objects="23,45"/>
<relation type="incident" objects="45,29"/>
<relation type="incident" objects="29,46"/>
<relation type="incident" objects="24,28"/>
<relation type="incident" objects="28,27"/>
<relation type="incident" objects="27,54"/>
<relation type="incident" objects="54,31"/>
<relation type="incident" objects="31,23"/>
<relation type="incident" objects="31,50"/>
<relation type="incident" objects="50,30"/>
<relation type="incident" objects="30,29"/>
<relation type="incident" objects="28,53"/>
<relation type="incident" objects="53,34"/>
<relation type="incident" objects="34,33"/>
<relation type="incident" objects="33,26"/>
<relation type="incident" objects="34,52"/>
<relation type="incident" objects="52,11"/>
<relation type="incident" objects="11,51"/>
<relation type="incident" objects="51,21"/>
<relation type="incident" objects="21,32"/>
<relation type="incident" objects="32,20"/>
<relation type="incident" objects="20,49"/>
<relation type="incident" objects="49,30"/>
<relation type="incident" objects="20,19"/>
<relation type="incident" objects="19,18"/>
<relation type="incident" objects="18,17"/>
<relation type="incident" objects="17,15"/>
<relation type="incident" objects="15,14"/>
<relation type="incident" objects="17,48"/>
<relation type="incident" objects="48,3"/>
<relation type="incident" objects="11,10"/>
<relation type="access" objects="56,50,59"/>
<relation type="access" objects="59,54,55"/>
<relation type="access" objects="59,53,60"/>
<relation type="access" objects="59,52,61"/>
<relation type="access" objects="59,51,63"/>
<relation type="access" objects="59,49,57"/>
<relation type="access" objects="62,48,58"/>
<relation type="neighbour" objects="58,57"/>
<relation type="neighbour" objects="58,62"/>
<relation type="neighbour" objects="62,57"/>
<relation type="neighbour" objects="57,56"/>
<relation type="neighbour" objects="57,59"/>
<relation type="neighbour" objects="57,63"/>
<relation type="neighbour" objects="62,63"/>
<relation type="neighbour" objects="63,61"/>
<relation type="neighbour" objects="63,59"/>
<relation type="neighbour" objects="61,60"/>
<relation type="neighbour" objects="61,59"/>
<relation type="neighbour" objects="60,59"/>
<relation type="neighbour" objects="60,55"/>
<relation type="neighbour" objects="55,59"/>
<relation type="neighbour" objects="55,56"/>
<relation type="neighbour" objects="56,59"/>
<relation type="access" objects="63,39,63"/>
<relation type="access" objects="58,47,58"/>
<relation type="outerP" objects="23,45,29,46,14,47,13,12,35,16,36,0,1,37,2,4,38,5,39,6,40,7,8,41,9,42,25,26,43,24,44,22"/>
<relation type="surround" objects="23,31,54,27,28,24,44,22,23,55"/>
<relation type="surround" objects="45,29,30,50,31,45,56"/>
<relation type="surround" objects="15,17,18,19,20,49,30,29,46,15,57"/>
<relation type="surround" objects="12,35,16,36,0,1,37,2,4,3,48,17,15,47,13,12,58"/>
<relation type="surround" objects="28,53,34,33,26,43,28,60"/>
<relation type="surround" objects="50,30,49,20,32,21,51,11,52,34,53,28,27,54,31,50,59"/>
<relation type="surround" objects="33,34,52,11,9,42,25,26,33,61"/>
<relation type="surround" objects="21,32,20,64,39,6,40,7,8,41,9,11,51,21,63"/>
<relation type="surround" objects="18,48,3,4,38,5,64,19,18,62"/>
<relation type="surround" objects="63,64,62"/>
</svg>