<?xml version="1.0" encoding="UTF-8"?><!DOCTYPE svg PUBLIC "-//W3C//DTD SVG 1.1//EN" "http://www.w3.org/Graphics/SVG/1.1/DTD/svg11.dtd">
<svg xmlns="http://www.w3.org/2000/svg" version="1.1">
<width>3508</width>
<height>2479</height>
<nclasslabel>50</nclasslabel>
<nclassappear>6</nclassappear>
<class>Bidet-1</class>
<class>Bidet-2</class>
<class>Bidet-3</class>
<class>Bidet-4</class>
<class>Door</class>
<class>Door-1</class>
<class>Door-23</class>
<class>Oven-1</class>
<class>Oven-2</class>
<class>Oven-3</class>
<class>Oven-4</class>
<class>Parking</class>
<class>Roof</class>
<class>Room</class>
<class>Separation</class>
<class>Sink-1</class>
<class>Sink-11</class>
<class>Sink-12</class>
<class>Sink-13</class>
<class>Sink-14</class>
<class>Sink-2</class>
<class>Sink-3</class>
<class>Sink-4</class>
<class>Sink-5</class>
<class>Sink-6</class>
<class>Sofa-1</class>
<class>Sofa-3</class>
<class>Sofa-4</class>
<class>Sofa-5</class>
<class>Sofa-6</class>
<class>Sofa-7</class>
<class>Sofa-8</class>
<class>Sofa-9</class>
<class>Stairs-1</class>
<class>Table-1</class>
<class>Table-2</class>
<class>Table-3</class>
<class>Table-4</class>
<class>Table-5</class>
<class>Table-6</class>
<class>Table-7</class>
<class>Text</class>
<class>Tub-1</class>
<class>Tub-3</class>
<class>TV-1</class>
<class>TV-2</class>
<class>Wall</class>
<class>Wall-1</class>
<class>Wallieee</class>
<class>Window</class>
<polygon class="Wall" fill="#AFD8F8" id="0" transcription="" points="533,1556 557,1557 558,1579 535,1579 " />
<polygon class="Room" fill="#F6BD0F" id="1" transcription="" points="1082,280 1083,645 1359,925 1557,924 1557,624 1778,622 1779,281 " />
<polygon class="Parking" fill="#8BBA00" id="2" transcription="" points="1830,309 1775,312 1774,594 1829,592 " />
<polygon class="Window" fill="#FF8E46" id="3" transcription="" points="1572,244 1640,242 1642,274 1642,299 1632,314 1569,275 " />
<polygon class="Window" fill="#FF8E46" id="4" transcription="" points="645,650 529,651 526,792 646,791 634,739 598,723 638,696 " />
<polygon class="Window" fill="#FF8E46" id="5" transcription="" points="648,1016 531,1014 528,1159 646,1158 634,1104 607,1088 634,1067 " />
<polygon class="Window" fill="#FF8E46" id="6" transcription="" points="716,1227 716,1342 859,1344 860,1227 809,1235 788,1272 761,1234 " />
<polygon class="Door" fill="#008E8E" id="7" transcription="" points="1123,1454 979,1457 982,1358 1026,1355 1082,1369 1112,1406 " />
<polygon class="Window" fill="#FF8E46" id="8" transcription="" points="1229,1500 1162,1538 1164,1585 1309,1583 1309,1532 1246,1497 1235,1518 " />
<polygon class="Door" fill="#008E8E" id="9" transcription="" points="1604,1320 1608,1462 1502,1463 1502,1415 1513,1366 1546,1335 " />
<polygon class="Window" fill="#FF8E46" id="10" transcription="" points="1800,1649 1729,1628 1695,1663 1790,1759 1829,1728 1812,1660 1791,1664 " />
<polygon class="Window" fill="#FF8E46" id="11" transcription="" points="2026,1871 1957,1852 1923,1882 2019,1985 2057,1951 2037,1885 2021,1885 " />
<polygon class="Window" fill="#FF8E46" id="12" transcription="" points="2576,1575 2555,1643 2588,1677 2689,1581 2656,1547 2590,1564 2591,1579 " />
<polygon class="Window" fill="#FF8E46" id="13" transcription="" points="2178,986 2160,914 2193,880 2245,929 2212,966 2198,977 " />
<polygon class="Window" fill="#FF8E46" id="14" transcription="" points="1840,898 1903,858 1896,814 1824,815 1824,865 1829,884 " />
<polygon class="Window" fill="#FF8E46" id="15" transcription="" points="1731,798 1770,733 1812,733 1813,807 1774,807 1749,804 " />
<polygon class="Door" fill="#008E8E" id="16" transcription="" points="1680,1057 1579,1052 1580,954 1629,965 1671,1003 " />
<polygon class="Door" fill="#008E8E" id="17" transcription="" points="1557,838 1558,938 1464,938 1463,895 1501,852 " />
<polygon class="Door" fill="#008E8E" id="18" transcription="" points="1358,953 1451,952 1454,1134 1364,1131 1377,1073 1427,1044 1383,1017 " />
<polygon class="Door" fill="#008E8E" id="19" transcription="" points="1361,1149 1455,1144 1455,1240 1399,1230 1363,1183 " />
<polygon class="Door" fill="#008E8E" id="20" transcription="" points="1826,1180 1907,1131 1812,1130 1814,1161 " />
<polygon class="Door" fill="#008E8E" id="21" transcription="" points="2066,1168 2002,1234 1941,1173 1973,1142 2030,1146 " />
<polygon class="Door" fill="#008E8E" id="22" transcription="" points="2184,1285 2114,1356 2180,1422 2209,1387 2215,1317 " />
<polygon class="Door" fill="#008E8E" id="23" transcription="" points="2253,1492 2183,1423 2113,1482 2160,1518 2216,1518 " />
<polygon class="Door" fill="#008E8E" id="24" transcription="" points="2040,1554 2113,1489 2048,1421 2025,1449 2015,1510 " />
<polygon class="Room" fill="#F6BD0F" id="25" transcription="" points="1908,1803 2150,2041 2474,1720 2184,1429 2122,1483 2168,1535 " />
<polygon class="Room" fill="#F6BD0F" id="26" transcription="" points="2302,1060 2717,1477 2489,1705 2070,1289 " />
<polygon class="Room" fill="#F6BD0F" id="27" transcription="" points="1668,1246 1666,1560 1893,1788 2147,1539 1855,1248 " />
<polygon class="Room" fill="#F6BD0F" id="28" transcription="" points="1923,868 1923,1139 2057,1272 2133,1203 2086,1155 2096,1138 2151,1189 2290,1048 2112,871 " />
<polygon class="Room" fill="#F6BD0F" id="29" transcription="" points="1905,868 1904,1128 1816,1124 1812,864 " />
<polygon class="Room" fill="#F6BD0F" id="30" transcription="" points="1589,655 1586,1049 1780,1046 1773,657 " />
<polygon class="Room" fill="#F6BD0F" id="31" transcription="" points="1456,955 1462,1413 1647,1411 1650,1231 1863,1231 2109,1480 2172,1425 1903,1141 1784,1138 1782,1066 1594,1065 1592,1135 1573,1140 1573,957 " />
<polygon class="Room" fill="#F6BD0F" id="32" transcription="" points="1020,1151 1449,1152 1445,1532 1029,1531 " />
<polygon class="Room" fill="#F6BD0F" id="33" transcription="" points="580,516 1047,516 1050,662 1348,956 1453,955 1451,1131 1003,1129 1005,1297 578,1292 " />
<polygon class="Wall" fill="#AFD8F8" id="34" transcription="" points="2179,2082 2589,1679 2556,1647 2149,2049 " />
<polygon class="Wall" fill="#AFD8F8" id="35" transcription="" points="2153,2113 2026,1987 2058,1956 2184,2083 " />
<polygon class="Wall" fill="#AFD8F8" id="36" transcription="" points="2789,1480 2689,1580 2654,1547 2750,1444 " />
<polygon class="Wall" fill="#AFD8F8" id="37" transcription="" points="2245,938 2749.5,1445 2716.5,1478 2213,968 " />
<polygon class="Wall" fill="#AFD8F8" id="38" transcription="" points="2129,820 2189,879 2158,911 2106,862 " />
<polygon class="Wall" fill="#AFD8F8" id="39" transcription="" points="2131,821 1899,821 1898,866 2106,866 " />
<polygon class="Wall" fill="#AFD8F8" id="40" transcription="" points="1829,822 1813,823 1813,804 1767,804 1767,864 1830,864 " />
<polygon class="Wall" fill="#AFD8F8" id="41" transcription="" points="1811,862 1815,1137 1782,1139 1780,862 " />
<polygon class="Wall" fill="#AFD8F8" id="42" transcription="" points="1813,731 1770,729 1772,654 1812,654 " />
<polygon class="Wall" fill="#AFD8F8" id="43" transcription="" points="1809,657 1588,657 1586,624 1809,627 " />
<polygon class="Wall" fill="#AFD8F8" id="44" transcription="" points="1812,593 1813,653 1785,653 1787,592 " />
<polygon class="Wall" fill="#AFD8F8" id="45" transcription="" points="1813,249 1812,312 1785,312 1785,249 " />
<polygon class="Wall" fill="#AFD8F8" id="46" transcription="" points="1644,248 1644,277 1786,278 1786,249 " />
<polygon class="Wall" fill="#AFD8F8" id="47" transcription="" points="1053,248 1574,250 1576,276 1055,277 " />
<polygon class="Wall" fill="#AFD8F8" id="48" transcription="" points="1053,271 1079,272 1082,647 1050,662 " />
<polygon class="Wall" fill="#AFD8F8" id="49" transcription="" points="1080,645 1052,660 1351,961 1359,925 " />
<polygon class="Wall" fill="#AFD8F8" id="50" transcription="" points="1562,621 1561,956 1589,955 1588,623 " />
<polygon class="Wall" fill="#AFD8F8" id="51" transcription="" points="1361,929 1349,955 1465,956 1465,928 " />
<polygon class="Wall" fill="#AFD8F8" id="52" transcription="" points="576,468 1052,466 1051,511 578,513 " />
<polygon class="Wall" fill="#AFD8F8" id="53" transcription="" points="532,469 532,653 579,655 578,465 " />
<polygon class="Wall" fill="#AFD8F8" id="54" transcription="" points="534,794 579,793 579,1017 534,1018 " />
<polygon class="Wall" fill="#AFD8F8" id="55" transcription="" points="533,1344 533,1159 576,1158 579,1346 " />
<polygon class="Wall" fill="#AFD8F8" id="56" transcription="" points="576,1300 717,1299 717,1342 576,1345 " />
<polygon class="Wall" fill="#AFD8F8" id="57" transcription="" points="861,1345 983,1345 983,1300 861,1301 " />
<polygon class="Wall" fill="#AFD8F8" id="58" transcription="" points="981.5,1359 981.5,1298 1024.5,1299 1026.5,1359 " />
<polygon class="Wall" fill="#AFD8F8" id="59" transcription="" points="983,1583 983,1453 1026,1453 1028,1583 " />
<polygon class="Wall" fill="#AFD8F8" id="60" transcription="" points="1164,1583 1025,1582 1024,1536 1163,1536 " />
<polygon class="Wall" fill="#AFD8F8" id="61" transcription="" points="1491,1580 1311,1580 1309,1536 1488,1535 " />
<polygon class="Wall" fill="#AFD8F8" id="62" transcription="" points="1491,1582 1447,1580 1447,1457 1497,1459 " />
<polygon class="Wall" fill="#AFD8F8" id="63" transcription="" points="1504,1463 1448,1462 1448,1418 1504,1418 " />
<polygon class="Wall" fill="#AFD8F8" id="64" transcription="" points="1609,1464 1664,1464 1663,1418 1606,1418 " />
<polygon class="Wall" fill="#AFD8F8" id="65" transcription="" points="1622,1582 1620,1460 1663,1462 1669,1557 " />
<polygon class="Wall" fill="#AFD8F8" id="66" transcription="" points="1697,1659 1729,1624 1664,1560 1623,1579 " />
<polygon class="Wall" fill="#AFD8F8" id="67" transcription="" points="1798,1761 1830,1727 1957,1850 1924,1879 " />
<polygon class="Wall" fill="#AFD8F8" id="68" transcription="" points="1015,1148 1456,1151 1453,1136 1016,1132 " />
<polygon class="Wall" fill="#AFD8F8" id="69" transcription="" points="1449,1239 1459,1241 1458,1418 1448,1417 " />
<polygon class="Wall" fill="#AFD8F8" id="70" transcription="" points="1579,1136 1579,1058 1590,1058 1590,1136 " />
<polygon class="Wall" fill="#AFD8F8" id="71" transcription="" points="2048,1422 1869,1234 1858,1246 2039,1428 " />
<polygon class="Wall" fill="#AFD8F8" id="72" transcription="" points="1658,1237 1866,1233 1857,1243 1657,1246 " />
<polygon class="Wall" fill="#AFD8F8" id="73" transcription="" points="1664,1420 1655,1419 1650,1242 1666,1242 " />
<polygon class="Wall" fill="#AFD8F8" id="74" transcription="" points="2159,1533 2122,1489 2110,1498 2153,1542 " />
<polygon class="Wall" fill="#AFD8F8" id="75" transcription="" points="1895,1790 2150,1530 2159,1542 1910,1800 " />
<polygon class="Wall" fill="#AFD8F8" id="76" transcription="" points="2193,1412 2180,1421 2484,1721 2491,1710 " />
<polygon class="Wall" fill="#AFD8F8" id="77" transcription="" points="2295,1047 2304,1057 2066,1296 2054,1283 " />
<polygon class="Wall" fill="#AFD8F8" id="78" transcription="" points="2119,1340 2113,1349 1999,1240 2010,1228 " />
<polygon class="Wall" fill="#AFD8F8" id="79" transcription="" points="2098,1151 2148,1193 2134,1205 2087,1155 " />
<polygon class="Wall" fill="#AFD8F8" id="80" transcription="" points="1913,1134 1902,1142 1934,1178 1949,1167 " />
<polygon class="Wall" fill="#AFD8F8" id="81" transcription="" points="1919,862 1923,1132 1905,1132 1906,861 " />
<polygon class="Wall" fill="#AFD8F8" id="82" transcription="" points="1785,1049 1583,1047 1585,1061 1784,1064 " />
<polygon class="Separation" fill="#D64646" id="83" transcription="" points="1005,1136 1030,1136 1030,1298 1005,1298 " />
<relation type="outerP" objects="52,48,47,3,46,45,2,44,42,15,40,14,39,38,13,37,36,12,34,35,11,67,10,66,65,64,9,63,62,61,8,60,59,7,58,57,6,56,55,5,54,4,53"/>
<relation type="incident" objects="52,48"/>
<relation type="incident" objects="48,47"/>
<relation type="incident" objects="47,3"/>
<relation type="incident" objects="3,46"/>
<relation type="incident" objects="46,45"/>
<relation type="incident" objects="45,2"/>
<relation type="incident" objects="2,44"/>
<relation type="incident" objects="44,42"/>
<relation type="incident" objects="42,15"/>
<relation type="incident" objects="15,40"/>
<relation type="incident" objects="40,14"/>
<relation type="incident" objects="14,39"/>
<relation type="incident" objects="39,38"/>
<relation type="incident" objects="38,13"/>
<relation type="incident" objects="13,37"/>
<relation type="incident" objects="37,36"/>
<relation type="incident" objects="36,12"/>
<relation type="incident" objects="12,34"/>
<relation type="incident" objects="34,35"/>
<relation type="incident" objects="35,11"/>
<relation type="incident" objects="11,67"/>
<relation type="incident" objects="67,10"/>
<relation type="incident" objects="10,66"/>
<relation type="incident" objects="65,66"/>
<relation type="incident" objects="65,64"/>
<relation type="incident" objects="64,9"/>
<relation type="incident" objects="9,63"/>
<relation type="incident" objects="63,62"/>
<relation type="incident" objects="62,61"/>
<relation type="incident" objects="61,8"/>
<relation type="incident" objects="8,60"/>
<relation type="incident" objects="60,59"/>
<relation type="incident" objects="59,7"/>
<relation type="incident" objects="7,58"/>
<relation type="incident" objects="58,57"/>
<relation type="incident" objects="57,6"/>
<relation type="incident" objects="6,56"/>
<relation type="incident" objects="56,55"/>
<relation type="incident" objects="55,5"/>
<relation type="incident" objects="5,54"/>
<relation type="incident" objects="54,4"/>
<relation type="incident" objects="4,53"/>
<relation type="incident" objects="53,52"/>
<relation type="incident" objects="48,49"/>
<relation type="incident" objects="49,51"/>
<relation type="incident" objects="51,18"/>
<relation type="incident" objects="18,68"/>
<relation type="incident" objects="68,19"/>
<relation type="incident" objects="19,69"/>
<relation type="incident" objects="69,63"/>
<relation type="incident" objects="68,83"/>
<relation type="incident" objects="58,83"/>
<relation type="incident" objects="44,43"/>
<relation type="incident" objects="43,42"/>
<relation type="incident" objects="43,50"/>
<relation type="incident" objects="50,17"/>
<relation type="incident" objects="17,51"/>
<relation type="incident" objects="50,16"/>
<relation type="incident" objects="16,70"/>
<relation type="incident" objects="16,82"/>
<relation type="incident" objects="82,41"/>
<relation type="incident" objects="41,40"/>
<relation type="incident" objects="41,20"/>
<relation type="incident" objects="20,81"/>
<relation type="incident" objects="81,39"/>
<relation type="incident" objects="81,14"/>
<relation type="incident" objects="81,80"/>
<relation type="incident" objects="80,21"/>
<relation type="incident" objects="21,78"/>
<relation type="incident" objects="78,77"/>
<relation type="incident" objects="77,37"/>
<relation type="incident" objects="77,79"/>
<relation type="incident" objects="78,22"/>
<relation type="incident" objects="22,76"/>
<relation type="incident" objects="34,76"/>
<relation type="incident" objects="76,23"/>
<relation type="incident" objects="23,74"/>
<relation type="incident" objects="74,75"/>
<relation type="incident" objects="75,67"/>
<relation type="incident" objects="74,24"/>
<relation type="incident" objects="24,71"/>
<relation type="incident" objects="71,72"/>
<relation type="incident" objects="72,73"/>
<relation type="incident" objects="73,64"/>
<relation type="neighbour" objects="33,1"/>
<relation type="neighbour" objects="1,30"/>
<relation type="neighbour" objects="30,31"/>
<relation type="neighbour" objects="31,33"/>
<relation type="neighbour" objects="32,33"/>
<relation type="neighbour" objects="32,31"/>
<relation type="neighbour" objects="31,29"/>
<relation type="neighbour" objects="29,28"/>
<relation type="neighbour" objects="28,26"/>
<relation type="neighbour" objects="26,25"/>
<relation type="neighbour" objects="25,27"/>
<relation type="neighbour" objects="27,31"/>
<relation type="neighbour" objects="30,29"/>
<relation type="neighbour" objects="31,28"/>
<relation type="neighbour" objects="31,26"/>
<relation type="neighbour" objects="31,25"/>
<relation type="access" objects="31,17,1"/>
<relation type="access" objects="31,16,30"/>
<relation type="access" objects="29,20,31"/>
<relation type="access" objects="31,21,28"/>
<relation type="access" objects="31,22,26"/>
<relation type="access" objects="31,23,25"/>
<relation type="access" objects="31,24,27"/>
<relation type="access" objects="31,9,31"/>
<relation type="access" objects="31,19,32"/>
<relation type="access" objects="32,7,32"/>
<relation type="access" objects="31,18,33"/>
<relation type="access" objects="33,83,32"/>
<relation type="surround" objects="47,3,46,45,2,44,43,50,17,51,49,48,47,1"/>
<relation type="surround" objects="52,48,49,51,18,68,83,58,57,6,56,55,5,54,4,53,52,33"/>
<relation type="surround" objects="68,19,69,63,62,61,8,60,59,7,58,83,68,32"/>
<relation type="surround" objects="43,42,15,40,41,82,16,50,43,30"/>
<relation type="surround" objects="40,14,39,81,20,41,40,29"/>
<relation type="surround" objects="39,38,13,37,77,78,21,80,81,39,28"/>
<relation type="surround" objects="51,17,50,16,82,41,20,80,21,78,22,76,23,74,24,71,72,73,64,9,63,69,19,68,18,51,31"/>
<relation type="surround" objects="72,71,24,74,75,67,10,66,65,64,73,72,27"/>
<relation type="surround" objects="75,74,23,76,34,35,11,67,75,25"/>
<relation type="surround" objects="77,37,36,12,34,76,22,78,77,26"/>
</svg>