<?xml version="1.0" encoding="UTF-8"?><!DOCTYPE svg PUBLIC "-//W3C//DTD SVG 1.1//EN" "http://www.w3.org/Graphics/SVG/1.1/DTD/svg11.dtd">
<svg xmlns="http://www.w3.org/2000/svg" version="1.1">
<width>2480</width>
<height>3508</height>
<nclasslabel>50</nclasslabel>
<nclassappear>6</nclassappear>
<class>Bidet-1</class>
<class>Bidet-2</class>
<class>Bidet-3</class>
<class>Bidet-4</class>
<class>Door</class>
<class>Door-1</class>
<class>Door-23</class>
<class>Oven-1</class>
<class>Oven-2</class>
<class>Oven-3</class>
<class>Oven-4</class>
<class>Parking</class>
<class>Roof</class>
<class>Room</class>
<class>Separation</class>
<class>Sink-1</class>
<class>Sink-11</class>
<class>Sink-12</class>
<class>Sink-13</class>
<class>Sink-14</class>
<class>Sink-2</class>
<class>Sink-3</class>
<class>Sink-4</class>
<class>Sink-5</class>
<class>Sink-6</class>
<class>Sofa-1</class>
<class>Sofa-3</class>
<class>Sofa-4</class>
<class>Sofa-5</class>
<class>Sofa-6</class>
<class>Sofa-7</class>
<class>Sofa-8</class>
<class>Sofa-9</class>
<class>Stairs-1</class>
<class>Table-1</class>
<class>Table-2</class>
<class>Table-3</class>
<class>Table-4</class>
<class>Table-5</class>
<class>Table-6</class>
<class>Table-7</class>
<class>Text</class>
<class>Tub-1</class>
<class>Tub-3</class>
<class>TV-1</class>
<class>TV-2</class>
<class>Wall</class>
<class>Wall-1</class>
<class>Wallieee</class>
<class>Window</class>
<polygon class="Wall" fill="#AFD8F8" id="0" transcription="" points="817,1403 905,1402 904,1444 816,1444 " />
<polygon class="Wall" fill="#AFD8F8" id="1" transcription="" points="237,1447 280,1447 279,1603 237,1602 " />
<polygon class="Wall" fill="#AFD8F8" id="2" transcription="" points="279,1946 531,1946 532,1952 278,1953 " />
<polygon class="Wall" fill="#AFD8F8" id="3" transcription="" points="651,1989 656,1995 656,2400 650,2400 " />
<polygon class="Wall" fill="#AFD8F8" id="4" transcription="" points="1784,2293 1825,2293 1827,2400 1785,2400 " />
<polygon class="Wall" fill="#AFD8F8" id="5" transcription="" points="2192,2342 2216,2341 2215,2418 2192,2419 " />
<polygon class="Wall" fill="#AFD8F8" id="6" transcription="" points="1829,2419 1892,2420 1892,2444 1829,2444 " />
<polygon class="Wall" fill="#AFD8F8" id="7" transcription="" points="1317,2402 1519,2401 1519,2444 1319,2444 " />
<polygon class="Wall" fill="#AFD8F8" id="8" transcription="" points="1684,2401 1827,2401 1828,2444 1685,2444 " />
<polygon class="Wall" fill="#AFD8F8" id="9" transcription="" points="1235,649 1260,649 1260,832 1236,833 " />
<polygon class="Wall" fill="#AFD8F8" id="10" transcription="" points="1260,1422 1583,1424 1584,1447 1257,1445 " />
<polygon class="Wall" fill="#AFD8F8" id="11" transcription="" points="1684,1422 1726,1423 1725,1527 1684,1528 " />
<polygon class="Wall" fill="#AFD8F8" id="12" transcription="" points="1235,1516 1276,1515 1276,1570 1235,1570 " />
<polygon class="Wall" fill="#AFD8F8" id="13" transcription="" points="1683,1843 1709,1842 1710,2018 1684,2018 " />
<polygon class="Wall" fill="#AFD8F8" id="14" transcription="" points="746,1406 745,1444 659,1445 237,1446 237,1403 " />
<polygon class="Wall" fill="#AFD8F8" id="15" transcription="" points="397,2400 397,2443 279,2444 279,2402 " />
<polygon class="Wall" fill="#AFD8F8" id="16" transcription="" points="237,2444 279,2445 279,1767 236,1767 " />
<polygon class="Wall" fill="#AFD8F8" id="17" transcription="" points="562,2400 563,2444 763,2443 763,2401 " />
<polygon class="Wall" fill="#AFD8F8" id="18" transcription="" points="658,1759 665,1754 665,1444 659,1445 " />
<polygon class="Wall" fill="#AFD8F8" id="19" transcription="" points="928,1428 928,1402 905,1402 905,1428 " />
<polygon class="Wall" fill="#AFD8F8" id="20" transcription="" points="1017,1526 1017,1568 1040,1569 1040,1527 " />
<polygon class="Wall" fill="#AFD8F8" id="21" transcription="" points="1145,1526 1146,1569 1235,1570 1235,1526 " />
<polygon class="Wall" fill="#AFD8F8" id="22" transcription="" points="905,1526 863,1526 863,1441 905,1441 " />
<polygon class="Wall" fill="#AFD8F8" id="23" transcription="" points="928,2400 929,2444 1152,2445 1152,2400 " />
<polygon class="Wall" fill="#AFD8F8" id="24" transcription="" points="1784,1993 1784,2018 1711,2017 1709,1993 " />
<polygon class="Wall" fill="#AFD8F8" id="25" transcription="" points="1926,2017 1926,1975 1828,1976 1828,2018 " />
<polygon class="Wall" fill="#AFD8F8" id="26" transcription="" points="1784,2129 1827,2128 1829,1976 1784,1976 " />
<polygon class="Wall" fill="#AFD8F8" id="27" transcription="" points="1683,1636 1683,1628 1277,1628 1277,1635 " />
<polygon class="Wall" fill="#AFD8F8" id="28" transcription="" points="1709,1626 1683,1627 1683,1742 1708,1743 " />
<polygon class="Wall" fill="#AFD8F8" id="29" transcription="" points="1027,1882 1035,1883 1035,1978 1034,2399 1027,2399 " />
<polygon class="Wall" fill="#AFD8F8" id="30" transcription="" points="863,1568 863,1526 946,1526 947,1569 922,1569 " />
<polygon class="Wall" fill="#AFD8F8" id="31" transcription="" points="1027,1775 1035,1775 1036,1567 1027,1568 " />
<polygon class="Wall" fill="#AFD8F8" id="32" transcription="" points="2215,1527 2216,1486 1724,1486 1725,1527 " />
<polygon class="Wall" fill="#AFD8F8" id="33" transcription="" points="2215,1235 2190,1235 2191,1484 2214,1484 " />
<polygon class="Wall" fill="#AFD8F8" id="34" transcription="" points="2193,1077 2216,1076 2216,1166 2193,1165 " />
<polygon class="Wall" fill="#AFD8F8" id="35" transcription="" points="1260,1319 1236,1319 1236,1444 1260,1446 " />
<polygon class="Wall" fill="#AFD8F8" id="36" transcription="" points="1210,1427 1210,1403 1236,1402 1235,1427 " />
<polygon class="Wall" fill="#AFD8F8" id="37" transcription="" points="821,1757 821,1764 929,1763 930,1756 " />
<polygon class="Wall" fill="#AFD8F8" id="38" transcription="" points="922,1756 928,1754 929,1568 922,1569 " />
<polygon class="Wall" fill="#AFD8F8" id="39" transcription="" points="716,1759 721,1765 695,1793 688,1787 " />
<polygon class="Wall" fill="#AFD8F8" id="40" transcription="" points="763,1874 773,1883 1033,1883 1034,1875 " />
<polygon class="Wall" fill="#AFD8F8" id="41" transcription="" points="683,1947 688,1940 699,1952 694,1957 " />
<polygon class="Wall" fill="#AFD8F8" id="42" transcription="" points="617,1859 622,1865 532,1952 532,1946 " />
<polygon class="Wall" fill="#AFD8F8" id="43" transcription="" points="656,1994 652,1989 690,1952 694,1956 " />
<polygon class="Wall" fill="#AFD8F8" id="44" transcription="" points="2216,1669 2174,1667 2175,1528 2215,1525 " />
<polygon class="Wall" fill="#AFD8F8" id="45" transcription="" points="2092,1977 2091,2018 2173,2017 2173,1976 " />
<polygon class="Wall" fill="#AFD8F8" id="46" transcription="" points="2215,2016 2174,2016 2174,1833 2216,1834 " />
<polygon class="Wall" fill="#AFD8F8" id="47" transcription="" points="2192,2060 2216,2061 2216,2013 2192,2016 " />
<polygon class="Wall" fill="#AFD8F8" id="48" transcription="" points="2215,2444 2215,2418 2174,2418 2175,2444 " />
<polygon class="Wall" fill="#AFD8F8" id="49" transcription="" points="2192,648 2217,647 2216,1007 2192,1007 " />
<polygon class="Wall" fill="#AFD8F8" id="50" transcription="" points="2216,624 2217,647 1233,647 1233,622 " />
<polygon class="Wall" fill="#AFD8F8" id="51" transcription="" points="665,1755 658,1759 687,1787 691,1783 " />
<polygon class="Wall" fill="#AFD8F8" id="52" transcription="" points="1277,1571 1269,1570 1270,1636 1277,1635 " />
<polygon class="Wall" fill="#AFD8F8" id="53" transcription="" points="1082,1979 1081,1988 1036,1988 1035,1979 " />
<polygon class="Wall" fill="#AFD8F8" id="54" transcription="" points="1080,1935 1088,1935 1088,1988 1081,1988 " />
<polygon class="Wall" fill="#AFD8F8" id="55" transcription="" points="1088,1928 1088,1935 1036,1935 1037,1927 " />
<polygon class="Window" fill="#F6BD0F" id="56" transcription="" points="748,1449 814,1446 814,1399 746,1399 " />
<polygon class="Window" fill="#F6BD0F" id="57" transcription="" points="284,1603 231,1603 231,1767 282,1771 " />
<polygon class="Window" fill="#F6BD0F" id="58" transcription="" points="395,2395 397,2446 561,2447 561,2395 " />
<polygon class="Window" fill="#F6BD0F" id="59" transcription="" points="928,2397 928,2444 763,2444 763,2396 " />
<polygon class="Window" fill="#F6BD0F" id="60" transcription="" points="1156,2322 1156,2445 1320,2445 1313,2318 1264,2325 1235,2377 1205,2322 " />
<polygon class="Window" fill="#F6BD0F" id="61" transcription="" points="1682,2318 1679,2444 1524,2446 1527,2316 1578,2324 1599,2384 1626,2330 " />
<polygon class="Window" fill="#F6BD0F" id="62" transcription="" points="1700,2289 1829,2288 1829,2128 1700,2131 1704,2181 1756,2210 1708,2245 " />
<polygon class="Window" fill="#F6BD0F" id="63" transcription="" points="1929,1894 1926,2020 2095,2019 2087,1893 2019,1909 2009,1953 1976,1899 " />
<polygon class="Window" fill="#F6BD0F" id="64" transcription="" points="2173,1832 2221,1832 2219,1668 2172,1668 " />
<polygon class="Window" fill="#F6BD0F" id="65" transcription="" points="2186,1163 2219,1165 2224,1235 2186,1234 " />
<polygon class="Window" fill="#F6BD0F" id="66" transcription="" points="2189,1008 2221,1008 2224,1079 2188,1080 " />
<polygon class="Parking" fill="#8BBA00" id="67" transcription="" points="1218,833 1217,1312 1269,1314 1272,836 " />
<polygon class="Door" fill="#FF8E46" id="68" transcription="" points="1682,1540 1680,1438 1584,1434 1592,1486 1631,1530 " />
<polygon class="Door" fill="#FF8E46" id="69" transcription="" points="1591,1622 1698,1626 1696,1528 1629,1538 1604,1570 " />
<polygon class="Door" fill="#FF8E46" id="70" transcription="" points="1796,1835 1685,1841 1681,1743 1729,1741 1763,1761 1788,1790 " />
<polygon class="Door" fill="#FF8E46" id="71" transcription="" points="1042,1669 1041,1569 1043,1524 1142,1525 1147,1571 1137,1625 1094,1659 " />
<polygon class="Door" fill="#FF8E46" id="72" transcription="" points="945,1807 1026,1758 931,1761 933,1788 " />
<polygon class="Door" fill="#FF8E46" id="73" transcription="" points="936,1871 1031,1872 1034,1771 980,1788 943,1827 " />
<polygon class="Door" fill="#FF8E46" id="74" transcription="" points="827,1948 761,1877 693,1949 722,1971 777,1977 " />
<polygon class="Door" fill="#FF8E46" id="75" transcription="" points="617,2006 685,1933 621,1866 585,1919 582,1960 " />
<polygon class="Door" fill="#FF8E46" id="76" transcription="" points="558,1794 620,1861 693,1791 650,1762 594,1768 " />
<polygon class="Door" fill="#FF8E46" id="77" transcription="" points="727,1672 721,1763 825,1761 817,1720 770,1670 " />
<polygon class="Room" fill="#008E8E" id="78" transcription="" points="281,1450 281,1940 530,1942 685,1791 651,1762 654,1448 " />
<polygon class="Room" fill="#008E8E" id="79" transcription="" points="669,1450 669,1754 691,1774 711,1753 920,1751 916,1572 859,1570 857,1446 " />
<polygon class="Window" fill="#F6BD0F" id="80" transcription="" points="952,1569 1013,1565 1015,1522 946,1526 " />
<polygon class="Room" fill="#008E8E" id="81" transcription="" points="934,1753 1023,1750 1023,1571 934,1571 " />
<polygon class="Room" fill="#008E8E" id="82" transcription="" points="625,1864 696,1936 761,1870 1024,1866 1024,1759 724,1769 " />
<polygon class="Room" fill="#008E8E" id="83" transcription="" points="284,1956.5 282,2396.5 643,2395.5 645,1987.5 686,1944.5 619,1869.5 536,1955.5 " />
<polygon class="Room" fill="#008E8E" id="84" transcription="" points="661,2398 1024,2394 1020,1888 766,1888 661,1998 " />
<polygon class="Room" fill="#008E8E" id="85" transcription="" points="1270,1740 1037,1741 1040,1572 1267,1574 " />
<polygon class="Room" fill="#008E8E" id="86" transcription="" points="1672,1642 1680,2020 1779,2023 1780,2393 1035,2393 1038,1992 1090,1992 1091,1922 1037,1920 1036,1747 1270,1746 1284,1634 " />
<polygon class="Room" fill="#008E8E" id="87" transcription="" points="2170,1534 1695,1532 1701,1618 1713,1618 1713,1988 1782,1987 1782,1967 2168,1970 " />
<polygon class="Room" fill="#008E8E" id="88" transcription="" points="1279,1450 1280,1622 1680,1619 1689,1538 1674,1535 1677,1440 1588,1437 1587,1448 " />
<polygon class="Room" fill="#008E8E" id="89" transcription="" points="1265,655 1262,1420 1724,1420 1731,1483 2187,1480 2187,645 " />
<polygon class="Window" fill="#F6BD0F" id="90" transcription="" points="1225,1440 1277,1440 1277,1516 1225,1516 " />
<polygon class="Separation" fill="#D64646" id="91" transcription="" points="1265,1633 1279,1633 1279,1743 1265,1743 " />
<polygon class="Separation" fill="#D64646" id="92" transcription="" points="1036,1735 1272,1735 1272,1753 1036,1753 " />
<relation type="outerP" objects="14,56,0,22,30,80,20,71,21,12,90,35,67,9,50,49,66,34,65,33,44,64,46,45,63,25,26,62,4,8,61,7,60,23,59,17,58,15,16,57,1"/>
<relation type="incident" objects="14,56"/>
<relation type="incident" objects="0,56"/>
<relation type="incident" objects="0,22"/>
<relation type="incident" objects="30,22"/>
<relation type="incident" objects="30,80"/>
<relation type="incident" objects="80,20"/>
<relation type="incident" objects="20,71"/>
<relation type="incident" objects="71,21"/>
<relation type="incident" objects="21,12"/>
<relation type="incident" objects="12,90"/>
<relation type="incident" objects="90,35"/>
<relation type="incident" objects="35,67"/>
<relation type="incident" objects="67,9"/>
<relation type="incident" objects="9,50"/>
<relation type="incident" objects="50,49"/>
<relation type="incident" objects="49,66"/>
<relation type="incident" objects="66,34"/>
<relation type="incident" objects="34,65"/>
<relation type="incident" objects="65,33"/>
<relation type="incident" objects="33,44"/>
<relation type="incident" objects="44,64"/>
<relation type="incident" objects="64,46"/>
<relation type="incident" objects="46,45"/>
<relation type="incident" objects="45,63"/>
<relation type="incident" objects="63,25"/>
<relation type="incident" objects="25,26"/>
<relation type="incident" objects="26,62"/>
<relation type="incident" objects="62,4"/>
<relation type="incident" objects="4,8"/>
<relation type="incident" objects="8,61"/>
<relation type="incident" objects="61,7"/>
<relation type="incident" objects="60,7"/>
<relation type="incident" objects="60,23"/>
<relation type="incident" objects="23,59"/>
<relation type="incident" objects="59,17"/>
<relation type="incident" objects="17,58"/>
<relation type="incident" objects="58,15"/>
<relation type="incident" objects="15,16"/>
<relation type="incident" objects="16,57"/>
<relation type="incident" objects="57,1"/>
<relation type="incident" objects="1,14"/>
<relation type="incident" objects="10,35"/>
<relation type="incident" objects="35,36"/>
<relation type="incident" objects="10,68"/>
<relation type="incident" objects="68,11"/>
<relation type="incident" objects="11,32"/>
<relation type="incident" objects="32,33"/>
<relation type="incident" objects="44,32"/>
<relation type="incident" objects="26,24"/>
<relation type="incident" objects="24,13"/>
<relation type="incident" objects="13,70"/>
<relation type="incident" objects="70,28"/>
<relation type="incident" objects="28,69"/>
<relation type="incident" objects="69,11"/>
<relation type="incident" objects="69,27"/>
<relation type="incident" objects="27,52"/>
<relation type="incident" objects="52,12"/>
<relation type="incident" objects="20,31"/>
<relation type="incident" objects="31,72"/>
<relation type="incident" objects="72,38"/>
<relation type="incident" objects="38,30"/>
<relation type="incident" objects="38,37"/>
<relation type="incident" objects="37,72"/>
<relation type="incident" objects="37,77"/>
<relation type="incident" objects="77,39"/>
<relation type="incident" objects="39,51"/>
<relation type="incident" objects="51,18"/>
<relation type="incident" objects="18,14"/>
<relation type="incident" objects="39,76"/>
<relation type="incident" objects="76,42"/>
<relation type="incident" objects="42,2"/>
<relation type="incident" objects="2,16"/>
<relation type="incident" objects="42,75"/>
<relation type="incident" objects="75,41"/>
<relation type="incident" objects="41,74"/>
<relation type="incident" objects="74,40"/>
<relation type="incident" objects="40,73"/>
<relation type="incident" objects="73,31"/>
<relation type="incident" objects="73,29"/>
<relation type="incident" objects="29,53"/>
<relation type="incident" objects="53,54"/>
<relation type="incident" objects="54,55"/>
<relation type="incident" objects="55,29"/>
<relation type="incident" objects="74,43"/>
<relation type="incident" objects="41,43"/>
<relation type="incident" objects="43,3"/>
<relation type="incident" objects="3,17"/>
<relation type="incident" objects="92,31"/>
<relation type="incident" objects="92,91"/>
<relation type="incident" objects="91,27"/>
<relation type="incident" objects="91,52"/>
<relation type="access" objects="85,71,85"/>
<relation type="access" objects="82,77,79"/>
<relation type="access" objects="82,76,78"/>
<relation type="access" objects="82,75,83"/>
<relation type="access" objects="82,74,84"/>
<relation type="access" objects="86,73,82"/>
<relation type="access" objects="81,72,82"/>
<relation type="access" objects="86,70,87"/>
<relation type="access" objects="87,69,88"/>
<relation type="access" objects="89,68,88"/>
<relation type="access" objects="85,92,86"/>
<relation type="neighbour" objects="78,79"/>
<relation type="neighbour" objects="79,81"/>
<relation type="neighbour" objects="81,85"/>
<relation type="neighbour" objects="85,88"/>
<relation type="neighbour" objects="88,89"/>
<relation type="neighbour" objects="89,87"/>
<relation type="neighbour" objects="87,86"/>
<relation type="neighbour" objects="86,84"/>
<relation type="neighbour" objects="84,83"/>
<relation type="neighbour" objects="83,78"/>
<relation type="neighbour" objects="79,82"/>
<relation type="neighbour" objects="82,78"/>
<relation type="neighbour" objects="82,83"/>
<relation type="neighbour" objects="82,84"/>
<relation type="neighbour" objects="82,81"/>
<relation type="neighbour" objects="82,86"/>
<relation type="neighbour" objects="86,85"/>
<relation type="neighbour" objects="87,88"/>
<relation type="surround" objects="14,18,51,76,42,2,16,57,1,14,78"/>
<relation type="surround" objects="14,56,0,22,30,38,37,77,39,51,18,14,79"/>
<relation type="surround" objects="30,80,20,31,72,38,30,81"/>
<relation type="surround" objects="20,71,21,12,52,91,92,31,20,85"/>
<relation type="surround" objects="10,68,11,69,27,52,12,90,10,88"/>
<relation type="surround" objects="76,39,77,37,72,31,73,40,74,41,75,42,76,82"/>
<relation type="surround" objects="2,42,75,41,43,3,17,58,15,16,2,83"/>
<relation type="surround" objects="43,74,40,29,23,59,17,3,43,84"/>
<relation type="surround" objects="92,91,27,28,70,13,24,26,62,4,8,61,7,60,23,29,73,92,86"/>
<relation type="surround" objects="32,44,64,46,45,63,25,24,13,70,28,69,32,87"/>
<relation type="surround" objects="50,49,66,34,65,33,32,11,68,10,35,67,9,50,89"/>
<relation type="neighbour" objects="86,88"/>
</svg>