<?xml version="1.0" encoding="UTF-8"?><!DOCTYPE svg PUBLIC "-//W3C//DTD SVG 1.1//EN" "http://www.w3.org/Graphics/SVG/1.1/DTD/svg11.dtd">
<svg xmlns="http://www.w3.org/2000/svg" version="1.1">
<width>3508</width>
<height>2480</height>
<nclasslabel>50</nclasslabel>
<nclassappear>6</nclassappear>
<class>Bidet-1</class>
<class>Bidet-2</class>
<class>Bidet-3</class>
<class>Bidet-4</class>
<class>Door</class>
<class>Door-1</class>
<class>Door-23</class>
<class>Oven-1</class>
<class>Oven-2</class>
<class>Oven-3</class>
<class>Oven-4</class>
<class>Parking</class>
<class>Roof</class>
<class>Room</class>
<class>Separation</class>
<class>Sink-1</class>
<class>Sink-11</class>
<class>Sink-12</class>
<class>Sink-13</class>
<class>Sink-14</class>
<class>Sink-2</class>
<class>Sink-3</class>
<class>Sink-4</class>
<class>Sink-5</class>
<class>Sink-6</class>
<class>Sofa-1</class>
<class>Sofa-3</class>
<class>Sofa-4</class>
<class>Sofa-5</class>
<class>Sofa-6</class>
<class>Sofa-7</class>
<class>Sofa-8</class>
<class>Sofa-9</class>
<class>Stairs-1</class>
<class>Table-1</class>
<class>Table-2</class>
<class>Table-3</class>
<class>Table-4</class>
<class>Table-5</class>
<class>Table-6</class>
<class>Table-7</class>
<class>Text</class>
<class>Tub-1</class>
<class>Tub-3</class>
<class>TV-1</class>
<class>TV-2</class>
<class>Wall</class>
<class>Wall-1</class>
<class>Wallieee</class>
<class>Window</class>
<polygon class="Wall" fill="#AFD8F8" id="0" transcription="" points="999,502 1030,504 1030,646 998,640 " />
<polygon class="Wall" fill="#AFD8F8" id="1" transcription="" points="932,1172 1087,1172 1087,1212 930,1211 " />
<polygon class="Wall" fill="#AFD8F8" id="2" transcription="" points="734,1170 822,1171 822,1211 734,1212 " />
<polygon class="Wall" fill="#AFD8F8" id="3" transcription="" points="1124,1330 1129,1329 1131,1818 1123,1819 " />
<polygon class="Wall" fill="#AFD8F8" id="4" transcription="" points="2386,1714 2430,1714 2430,1773 2384,1774 " />
<polygon class="Wall" fill="#AFD8F8" id="5" transcription="" points="1021,502 1713,502 1714,527 1022,526 " />
<polygon class="Wall" fill="#AFD8F8" id="6" transcription="" points="2388,591 2430,591 2430,650 2388,649 " />
<polygon class="Wall" fill="#AFD8F8" id="7" transcription="" points="1738,832 1951,832 1950,839 1739,839 " />
<polygon class="Wall" fill="#AFD8F8" id="8" transcription="" points="1697,1247 1703,1246 1703,1729 1695,1730 " />
<polygon class="Wall" fill="#AFD8F8" id="9" transcription="" points="1715,721 1737,722 1737,502 1713,502 " />
<polygon class="Wall" fill="#AFD8F8" id="10" transcription="" points="2388,591 2388,634 1738,632 1737,591 " />
<polygon class="Wall" fill="#AFD8F8" id="11" transcription="" points="2379,878 2387,869 2415,899 2410,906 " />
<polygon class="Wall" fill="#AFD8F8" id="12" transcription="" points="2386,839 2428,840 2428,886 2417,899 2387,869 " />
<polygon class="Wall" fill="#AFD8F8" id="13" transcription="" points="1843,1163 1843,1171 2070,1172 2069,1164 " />
<polygon class="Wall" fill="#AFD8F8" id="14" transcription="" points="1944,718 1951,720 1952,633 1944,633 " />
<polygon class="Wall" fill="#AFD8F8" id="15" transcription="" points="2038,1731 2039,1770 2385,1774 2385,1729 " />
<polygon class="Wall" fill="#AFD8F8" id="16" transcription="" points="1739,1772 1738,1730 1884,1730 1885,1774 " />
<polygon class="Wall" fill="#AFD8F8" id="17" transcription="" points="1696,1731 1738,1731 1738,1864 1694,1862 " />
<polygon class="Wall" fill="#AFD8F8" id="18" transcription="" points="1618,1818 1619,1862 1695,1862 1695,1819 " />
<polygon class="Wall" fill="#AFD8F8" id="19" transcription="" points="1342,1819 1342,1860 1464,1860 1465,1819 " />
<polygon class="Wall" fill="#AFD8F8" id="20" transcription="" points="775,1818 774,1862 1258,1861 1259,1819 " />
<polygon class="Wall" fill="#AFD8F8" id="21" transcription="" points="1129,1211 1087,1212 1088,1164 1129,1164 " />
<polygon class="Wall" fill="#AFD8F8" id="22" transcription="" points="1087,1058 1088,1029 1129,1028 1130,1058 " />
<polygon class="Wall" fill="#AFD8F8" id="23" transcription="" points="1713,832 1738,832 1737,1027 1713,1027 " />
<polygon class="Wall" fill="#AFD8F8" id="24" transcription="" points="1844,939 1851,939 1851,1051 1844,1051 " />
<polygon class="Wall" fill="#AFD8F8" id="25" transcription="" points="1737,1051 1737,1027 1130,1029 1130,1052 " />
<polygon class="Wall" fill="#AFD8F8" id="26" transcription="" points="1024,925 999,925 999,1028 1023,1028 " />
<polygon class="Wall" fill="#AFD8F8" id="27" transcription="" points="999,1052 1000,1028 1088,1029 1086,1052 " />
<polygon class="Wall" fill="#AFD8F8" id="28" transcription="" points="734,1464 775,1465 776,1861 734,1861 " />
<polygon class="Wall" fill="#AFD8F8" id="29" transcription="" points="733,1311 775,1311 776,1212 735,1212 " />
<polygon class="Wall" fill="#AFD8F8" id="30" transcription="" points="2380,1488 2408,1458 2428,1476 2429,1525 2386,1524 2387,1496 " />
<polygon class="Wall" fill="#AFD8F8" id="31" transcription="" points="2228,1336 2209,1318 2210,1288 2253,1289 2253,1300 2258,1308 " />
<polygon class="Wall" fill="#AFD8F8" id="32" transcription="" points="2209,1075 2209,1046 2230,1025 2259,1056 2251,1064 2252,1075 " />
<polygon class="Wall" fill="#AFD8F8" id="33" transcription="" points="1248,1323 1247,1330 1123,1330 1123,1323 " />
<polygon class="Wall" fill="#AFD8F8" id="34" transcription="" points="1239,1518 1239,1524 1132,1525 1132,1518 " />
<polygon class="Wall" fill="#AFD8F8" id="35" transcription="" points="1241,1440 1249,1440 1248,1524 1240,1524 " />
<polygon class="Wall" fill="#AFD8F8" id="36" transcription="" points="1366,1324 1366,1329 1697,1330 1696,1322 " />
<polygon class="Wall" fill="#AFD8F8" id="37" transcription="" points="1360,1246 1365,1246 1366,1329 1360,1329 " />
<polygon class="Wall" fill="#AFD8F8" id="38" transcription="" points="1360,1440 1367,1440 1367,1817 1359,1816 " />
<polygon class="Parking" fill="#F6BD0F" id="39" transcription="" points="1034,631 979,630 978,922 1034,924 " />
<polygon class="Door" fill="#8BBA00" id="40" transcription="" points="1233,1055 1126,1057 1086,1055 1082,1161 1132,1164 1197,1144 1228,1100 " />
<polygon class="Window" fill="#FF8E46" id="41" transcription="" points="838,1259 928,1206 928,1164 824,1164 824,1209 826,1231 " />
<polygon class="Window" fill="#FF8E46" id="42" transcription="" points="811,1379 776,1313 729,1314 727,1465 775,1463 809,1399 793,1388 " />
<polygon class="Window" fill="#FF8E46" id="43" transcription="" points="1273,1783 1339,1821 1341,1866 1261,1867 1260,1819 " />
<polygon class="Window" fill="#FF8E46" id="44" transcription="" points="1533,1783 1465,1819 1468,1865 1620,1865 1618,1815 1551,1782 1542,1797 " />
<polygon class="Window" fill="#FF8E46" id="45" transcription="" points="1953,1694 1885,1731 1885,1774 2036,1776 2033,1728 1971,1693 1962,1708 " />
<polygon class="Window" fill="#FF8E46" id="46" transcription="" points="2383,1526 2433,1526 2436,1710 2383,1708 " />
<polygon class="Window" fill="#FF8E46" id="47" transcription="" points="2230,1341 2257,1303 2414,1455 2378,1487 " />
<polygon class="Window" fill="#FF8E46" id="48" transcription="" points="2204,1288 2254,1288 2257,1075 2202,1076 " />
<polygon class="Window" fill="#FF8E46" id="49" transcription="" points="2228,1022 2260,1056 2415,906 2373,878 " />
<polygon class="Window" fill="#FF8E46" id="50" transcription="" points="2384,653 2432,653 2436,836 2386,837 " />
<polygon class="Door" fill="#8BBA00" id="51" transcription="" points="1837,827 1714,829 1711,723 1743,722 1801,741 1835,781 " />
<polygon class="Door" fill="#8BBA00" id="52" transcription="" points="1890,735 1849,776 1844,823 1953,830 1951,718 " />
<polygon class="Door" fill="#8BBA00" id="53" transcription="" points="1357,1554 1357,1441 1248,1438 1263,1510 1310,1545 " />
<polygon class="Door" fill="#8BBA00" id="54" transcription="" points="1470,1333 1359,1332 1360,1440 1415,1433 1460,1381 " />
<polygon class="Door" fill="#8BBA00" id="55" transcription="" points="1350,1438 1245,1439 1243,1333 1287,1338 1334,1375 " />
<polygon class="Door" fill="#8BBA00" id="56" transcription="" points="1019,1212 1127,1215 1130,1323 1070,1314 1028,1265 " />
<polygon class="Door" fill="#8BBA00" id="57" transcription="" points="1954,1162 1845,1163 1841,1050 1918,1067 1950,1113 " />
<polygon class="Room" fill="#008E8E" id="58" transcription="" points="1029,534 1027,1023 1708,1025 1708,529 " />
<polygon class="Room" fill="#008E8E" id="59" transcription="" points="1942,638 1951,828 1736,825 1739,636 " />
<polygon class="Room" fill="#008E8E" id="60" transcription="" points="1951,635 1954,867 1858,935 1857,1159 2202,1168 2204,1044 2380,865 2380,637 " />
<polygon class="Room" fill="#008E8E" id="61" transcription="" points="1709,1726 2379,1725 2384,1499 2204,1317 2200,1176 1708,1177 " />
<polygon class="Room" fill="#008E8E" id="62" transcription="" points="1131,1321.5 1250,1317.5 1252,1431.5 1361,1433.5 1356,1241.5 1372,1238.5 1371,1317.5 1692,1316.5 1700,1167.5 1840,1168.5 1846,1050.5 1129,1058.5 " />
<polygon class="Room" fill="#008E8E" id="63" transcription="" points="1117,1812 1122,1217 781,1217 778,1814 " />
<polygon class="Room" fill="#008E8E" id="64" transcription="" points="1135,1334 1134,1512 1236,1513 1239,1336 " />
<polygon class="Room" fill="#008E8E" id="65" transcription="" points="1133,1524 1135,1811 1354,1814 1354,1439 1249,1441 1251,1528 " />
<polygon class="Room" fill="#008E8E" id="66" transcription="" points="1691,1336 1693,1811 1371,1814 1371,1335 " />
<polygon class="Separation" fill="#D64646" id="67" transcription="" points="1683,1151 1838,1151 1838,1179 1708,1178 1715,1245 1683,1249 " />
<polygon class="Separation" fill="#D64646" id="68" transcription="" points="2069,1158 2199,1158 2199,1179 2069,1179 " />
<polygon class="Separation" fill="#D64646" id="69" transcription="" points="1845,927 1946,861 1946,836 1965,836 1966,872 1858,946 " />
<polygon class="Separation" fill="#D64646" id="70" transcription="" points="1731,1032 1838,1032 1838,1057 1731,1057 " />
<polygon class="Room" fill="#008E8E" id="71" transcription="" points="1737,842 1948,843 1945,867 1847,939 1837,1043 1740,1036 " />
<relation type="outerP" objects="5,9,10,6,50,12,11,49,49,32,48,31,47,30,46,4,15,45,16,17,18,44,19,43,20,28,42,29,2,41,1,21,40,22,27,26,39,0"/>
<relation type="incident" objects="5,9"/>
<relation type="incident" objects="9,10"/>
<relation type="incident" objects="10,6"/>
<relation type="incident" objects="6,50"/>
<relation type="incident" objects="50,12"/>
<relation type="incident" objects="12,11"/>
<relation type="incident" objects="11,49"/>
<relation type="incident" objects="49,32"/>
<relation type="incident" objects="32,48"/>
<relation type="incident" objects="48,31"/>
<relation type="incident" objects="31,47"/>
<relation type="incident" objects="47,30"/>
<relation type="incident" objects="30,46"/>
<relation type="incident" objects="46,4"/>
<relation type="incident" objects="4,15"/>
<relation type="incident" objects="15,45"/>
<relation type="incident" objects="45,16"/>
<relation type="incident" objects="16,17"/>
<relation type="incident" objects="18,17"/>
<relation type="incident" objects="18,44"/>
<relation type="incident" objects="44,19"/>
<relation type="incident" objects="19,43"/>
<relation type="incident" objects="43,20"/>
<relation type="incident" objects="20,28"/>
<relation type="incident" objects="28,42"/>
<relation type="incident" objects="42,29"/>
<relation type="incident" objects="29,2"/>
<relation type="incident" objects="2,41"/>
<relation type="incident" objects="41,1"/>
<relation type="incident" objects="1,21"/>
<relation type="incident" objects="21,40"/>
<relation type="incident" objects="40,22"/>
<relation type="incident" objects="22,27"/>
<relation type="incident" objects="27,26"/>
<relation type="incident" objects="26,39"/>
<relation type="incident" objects="39,0"/>
<relation type="incident" objects="0,5"/>
<relation type="incident" objects="9,51"/>
<relation type="incident" objects="51,7"/>
<relation type="incident" objects="51,23"/>
<relation type="incident" objects="23,25"/>
<relation type="incident" objects="25,22"/>
<relation type="incident" objects="7,52"/>
<relation type="incident" objects="14,10"/>
<relation type="incident" objects="14,52"/>
<relation type="incident" objects="48,68"/>
<relation type="incident" objects="13,68"/>
<relation type="incident" objects="13,57"/>
<relation type="incident" objects="57,70"/>
<relation type="incident" objects="70,25"/>
<relation type="incident" objects="70,23"/>
<relation type="incident" objects="70,24"/>
<relation type="incident" objects="24,69"/>
<relation type="incident" objects="69,52"/>
<relation type="incident" objects="13,67"/>
<relation type="incident" objects="67,8"/>
<relation type="incident" objects="8,17"/>
<relation type="incident" objects="36,8"/>
<relation type="incident" objects="36,37"/>
<relation type="incident" objects="37,54"/>
<relation type="incident" objects="54,38"/>
<relation type="incident" objects="38,19"/>
<relation type="incident" objects="38,53"/>
<relation type="incident" objects="53,35"/>
<relation type="incident" objects="35,55"/>
<relation type="incident" objects="55,33"/>
<relation type="incident" objects="33,3"/>
<relation type="incident" objects="3,20"/>
<relation type="incident" objects="3,34"/>
<relation type="incident" objects="34,35"/>
<relation type="incident" objects="3,56"/>
<relation type="incident" objects="56,33"/>
<relation type="incident" objects="21,56"/>
<relation type="incident" objects="67,57"/>
<relation type="neighbour" objects="58,59"/>
<relation type="neighbour" objects="59,60"/>
<relation type="neighbour" objects="60,61"/>
<relation type="neighbour" objects="61,66"/>
<relation type="neighbour" objects="66,65"/>
<relation type="neighbour" objects="65,63"/>
<relation type="neighbour" objects="63,64"/>
<relation type="neighbour" objects="64,62"/>
<relation type="neighbour" objects="62,58"/>
<relation type="neighbour" objects="60,62"/>
<relation type="neighbour" objects="62,61"/>
<relation type="neighbour" objects="66,62"/>
<relation type="neighbour" objects="62,65"/>
<relation type="neighbour" objects="65,64"/>
<relation type="neighbour" objects="62,71"/>
<relation type="neighbour" objects="71,59"/>
<relation type="neighbour" objects="71,58"/>
<relation type="neighbour" objects="71,60"/>
<relation type="access" objects="58,51,59"/>
<relation type="access" objects="60,52,59"/>
<relation type="access" objects="62,57,60"/>
<relation type="access" objects="62,70,71"/>
<relation type="access" objects="61,68,60"/>
<relation type="access" objects="61,67,62"/>
<relation type="access" objects="62,54,66"/>
<relation type="access" objects="64,55,62"/>
<relation type="access" objects="65,53,62"/>
<relation type="access" objects="62,56,63"/>
<relation type="access" objects="62,40,62"/>
<relation type="surround" objects="5,9,51,23,25,22,27,26,39,0,5,58"/>
<relation type="surround" objects="10,14,52,7,51,9,10,59"/>
<relation type="surround" objects="10,6,50,12,11,49,32,48,68,13,57,24,69,52,14,10,60"/>
<relation type="surround" objects="67,13,68,48,31,47,30,46,4,15,45,16,17,8,67,61"/>
<relation type="surround" objects="36,8,17,18,44,19,38,54,36,66"/>
<relation type="surround" objects="2,41,1,56,3,20,28,42,29,2,63"/>
<relation type="surround" objects="34,35,53,38,19,43,20,3,34,65"/>
<relation type="surround" objects="33,55,35,34,3,33,64"/>
<relation type="surround" objects="25,70,57,67,8,36,54,38,55,33,56,21,40,22,25,62"/>
</svg>