<?xml version="1.0" encoding="UTF-8"?><!DOCTYPE svg PUBLIC "-//W3C//DTD SVG 1.1//EN" "http://www.w3.org/Graphics/SVG/1.1/DTD/svg11.dtd">
<svg xmlns="http://www.w3.org/2000/svg" version="1.1">
<width>3508</width>
<height>2480</height>
<nclasslabel>50</nclasslabel>
<nclassappear>5</nclassappear>
<class>Bidet-1</class>
<class>Bidet-2</class>
<class>Bidet-3</class>
<class>Bidet-4</class>
<class>Door</class>
<class>Door-1</class>
<class>Door-23</class>
<class>Oven-1</class>
<class>Oven-2</class>
<class>Oven-3</class>
<class>Oven-4</class>
<class>Parking</class>
<class>Roof</class>
<class>Room</class>
<class>Separation</class>
<class>Sink-1</class>
<class>Sink-11</class>
<class>Sink-12</class>
<class>Sink-13</class>
<class>Sink-14</class>
<class>Sink-2</class>
<class>Sink-3</class>
<class>Sink-4</class>
<class>Sink-5</class>
<class>Sink-6</class>
<class>Sofa-1</class>
<class>Sofa-3</class>
<class>Sofa-4</class>
<class>Sofa-5</class>
<class>Sofa-6</class>
<class>Sofa-7</class>
<class>Sofa-8</class>
<class>Sofa-9</class>
<class>Stairs-1</class>
<class>Table-1</class>
<class>Table-2</class>
<class>Table-3</class>
<class>Table-4</class>
<class>Table-5</class>
<class>Table-6</class>
<class>Table-7</class>
<class>Text</class>
<class>Tub-1</class>
<class>Tub-3</class>
<class>TV-1</class>
<class>TV-2</class>
<class>Wall</class>
<class>Wall-1</class>
<class>Wallieee</class>
<class>Window</class>
<polygon class="Wall" fill="#AFD8F8" id="0" transcription="" points="837,766 885,766 885,553 838,553 " />
<polygon class="Wall" fill="#AFD8F8" id="1" transcription="" points="838,506 838,553 1405,553 1405,506 " />
<polygon class="Wall" fill="#AFD8F8" id="2" transcription="" points="1398,883 1398,552 1404,552 1404,884 " />
<polygon class="Wall" fill="#AFD8F8" id="3" transcription="" points="1322,884 1322,890 1405,891 1404,884 " />
<polygon class="Wall" fill="#AFD8F8" id="4" transcription="" points="1487,506 1488,554 1575,554 1575,506 " />
<polygon class="Wall" fill="#AFD8F8" id="5" transcription="" points="1599,1741 1552,1741 1551,1326 1599,1326 " />
<polygon class="Wall" fill="#AFD8F8" id="6" transcription="" points="2155,1739 2201,1740 2202,1327 2154,1326 " />
<polygon class="Wall" fill="#AFD8F8" id="7" transcription="" points="1629,643 1629,595 1574,595 1574,643 " />
<polygon class="Wall" fill="#AFD8F8" id="8" transcription="" points="1622,506 1575,506 1575,595 1622,594 " />
<polygon class="Wall" fill="#AFD8F8" id="9" transcription="" points="1540,637 1540,644 1574,643 1574,636 " />
<polygon class="Wall" fill="#AFD8F8" id="10" transcription="" points="1504,884 1504,890 1618,890 1618,884 " />
<polygon class="Wall" fill="#AFD8F8" id="11" transcription="" points="1718,643 1718,891 1723,891 1723,643 " />
<polygon class="Wall" fill="#AFD8F8" id="12" transcription="" points="1835,594 1835,643 1894,642 1895,594 " />
<polygon class="Wall" fill="#AFD8F8" id="13" transcription="" points="1895,553 1848,553 1848,594 1895,594 " />
<polygon class="Wall" fill="#AFD8F8" id="14" transcription="" points="1712,594 1730,595 1730,643 1712,643 " />
<polygon class="Wall" fill="#AFD8F8" id="15" transcription="" points="1984,506 1983,553 1848,553 1848,507 " />
<polygon class="Wall" fill="#AFD8F8" id="16" transcription="" points="2066,554 2066,506 2467,506 2467,553 " />
<polygon class="Wall" fill="#AFD8F8" id="17" transcription="" points="2467,701 2515,701 2514,506 2467,506 " />
<polygon class="Wall" fill="#AFD8F8" id="18" transcription="" points="2148,902 2148,819 2155,819 2155,902 " />
<polygon class="Wall" fill="#AFD8F8" id="19" transcription="" points="2466,820 2466,826 2155,826 2156,820 " />
<polygon class="Wall" fill="#AFD8F8" id="20" transcription="" points="2515,820 2467,820 2468,1326 2514,1327 " />
<polygon class="Wall" fill="#AFD8F8" id="21" transcription="" points="2377,1327 2378,1372 2515,1374 2515,1327 " />
<polygon class="Wall" fill="#AFD8F8" id="22" transcription="" points="837,885 885,884 886,1386 837,1386 " />
<polygon class="Wall" fill="#AFD8F8" id="23" transcription="" points="884,885 884,890 1215,890 1215,885 " />
<polygon class="Wall" fill="#AFD8F8" id="24" transcription="" points="1216,1067 1216,1327 1221,1327 1222,1067 " />
<polygon class="Wall" fill="#AFD8F8" id="25" transcription="" points="1222,883 1215,884 1215,966 1222,966 " />
<polygon class="Wall" fill="#AFD8F8" id="26" transcription="" points="1321,1073 1328,1073 1328,997 1321,997 " />
<polygon class="Wall" fill="#AFD8F8" id="27" transcription="" points="1888,741 1887,748 1965,749 1965,742 " />
<polygon class="Wall" fill="#AFD8F8" id="28" transcription="" points="1887,895 1887,902 2047,901 2048,894 " />
<polygon class="Wall" fill="#AFD8F8" id="29" transcription="" points="1966,742 1972,742 1971,960 1965,960 " />
<polygon class="Wall" fill="#AFD8F8" id="30" transcription="" points="1931,960 1930,966 1972,967 1971,960 " />
<polygon class="Wall" fill="#AFD8F8" id="31" transcription="" points="1924,902 1930,902 1930,966 1924,966 " />
<polygon class="Wall" fill="#AFD8F8" id="32" transcription="" points="1320,990 1321,997 1723,996 1724,990 " />
<polygon class="Wall" fill="#AFD8F8" id="33" transcription="" points="1682,996 1688,996 1688,1326 1681,1326 " />
<polygon class="Wall" fill="#AFD8F8" id="34" transcription="" points="1599,1333 1599,1326 1688,1326 1688,1333 " />
<polygon class="Wall" fill="#AFD8F8" id="35" transcription="" points="1612,642 1619,642 1618,668 1618,830 1611,830 " />
<polygon class="Wall" fill="#AFD8F8" id="36" transcription="" points="1539,831 1540,837 1618,837 1618,831 " />
<polygon class="Wall" fill="#AFD8F8" id="37" transcription="" points="1587,837 1594,837 1594,885 1587,885 " />
<polygon class="Window" fill="#F6BD0F" id="38" transcription="" points="1470,589 1405,552 1408,501 1482,497 1484,555 1478,575 " />
<polygon class="Window" fill="#F6BD0F" id="39" transcription="" points="1695,678 1632,643 1633,590 1705,589 1708,643 1705,661 " />
<polygon class="Door" fill="#8BBA00" id="40" transcription="" points="1732,742 1730,593 1837,593 1834,646 1827,691 1785,729 " />
<polygon class="Door" fill="#8BBA00" id="41" transcription="" points="1985,736 1885,741 1887,644 1942,653 1972,689 " />
<polygon class="Window" fill="#F6BD0F" id="42" transcription="" points="2052,589 1985,555 1984,503 2063,501 2063,552 2059,573 " />
<polygon class="Door" fill="#8BBA00" id="43" transcription="" points="2357,817 2518,817 2518,706 2464,704 2399,721 2368,763 " />
<polygon class="Window" fill="#F6BD0F" id="44" transcription="" points="2374,1237 2378,1380 2203,1381 2207,1240 2257,1252 2290,1293 2318,1248 " />
<polygon class="Window" fill="#F6BD0F" id="45" transcription="" points="2056,1592 2057,1677 2150,1677 2152,1739 1875,1738 1877,1590 1938,1596 1966,1644 1998,1600 " />
<polygon class="Window" fill="#F6BD0F" id="46" transcription="" points="1698,1591 1697,1680 1600,1680 1598,1744 1873,1743 1875,1589 1817,1602 1786,1643 1747,1596 " />
<polygon class="Window" fill="#F6BD0F" id="47" transcription="" points="1304,1245 1302,1323 1215,1325 1215,1383 1547,1383 1549,1321 1462,1323 1460,1243 1402,1258 1383,1295 1359,1259 " />
<polygon class="Window" fill="#F6BD0F" id="48" transcription="" points="972,1246 969,1324 887,1323 886,1386 1213,1386 1217,1323 1127,1325 1125,1244 1070,1262 1049,1302 1028,1256 " />
<polygon class="Window" fill="#F6BD0F" id="49" transcription="" points="938,785 886,879 834,879 832,768 886,766 913,772 " />
<polygon class="Door" fill="#8BBA00" id="50" transcription="" points="1315,795.5 1319,888.5 1223,887.5 1231,841.5 1267,802.5 " />
<polygon class="Door" fill="#8BBA00" id="51" transcription="" points="1409,792 1407,887 1500,884 1496,843 1457,803 " />
<polygon class="Door" fill="#8BBA00" id="52" transcription="" points="1127,973 1218,971 1219,1068 1159,1054 1129,1004 " />
<polygon class="Door" fill="#8BBA00" id="53" transcription="" points="1226,1166 1223,1068 1321,1069 1319,1103 1279,1151 " />
<polygon class="Door" fill="#8BBA00" id="54" transcription="" points="1715,895 1716,803 1619,803 1629,852 1667,888 " />
<polygon class="Door" fill="#8BBA00" id="55" transcription="" points="1626,986 1725,987 1717,897 1664,904 1637,940 " />
<polygon class="Door" fill="#8BBA00" id="56" transcription="" points="2146,804 2151,902 2048,899 2058,849 2092,814 " />
<polygon class="Room" fill="#FF8E46" id="57" transcription="" points="1897,557 1892,739 1976,736 1973,889 2144,889 2144,814 2465,812 2462,556 " />
<polygon class="Room" fill="#FF8E46" id="58" transcription="" points="2465.5,830 2467.5,1321 2166,1326 2163,826 " />
<polygon class="Room" fill="#FF8E46" id="59" transcription="" points="1964,890 1961,755 1886,754 1886,647 1728,649 1723,893 " />
<polygon class="Room" fill="#FF8E46" id="60" transcription="" points="1623,799 1712,799 1713,650 1622,652 " />
<polygon class="Room" fill="#FF8E46" id="61" transcription="" points="1408,557 1411,881 1583,879 1583,842 1534,840 1533,823 1606,824 1606,647 1534,651 1534,633 1568,633 1568,558 " />
<polygon class="Room" fill="#FF8E46" id="62" transcription="" points="1222.75,892.75 1220.75,1062.75 1314.75,1063.75 1314.75,985.75 1720.75,981.75 1716.25,807.25 1619.25,805.25 1618.25,836.25 1594.25,837.25 1594.25,883.25 1617.25,883.25 1617.25,891.25 " />
<polygon class="Room" fill="#FF8E46" id="63" transcription="" points="890,559 888,880 1392,878 1393,558 " />
<polygon class="Room" fill="#FF8E46" id="64" transcription="" points="891,896 890,1318 1210,1320 1210,895 " />
<polygon class="Room" fill="#FF8E46" id="65" transcription="" points="1679,998.5 1678,1320.5 1224,1318.5 1228,1071.5 1332,1071.5 1333,999.5 " />
<polygon class="Room" fill="#FF8E46" id="66" transcription="" points="2148,902 2150,1674 1601,1677 1603,1336 1690,1336 1693,999 1728,997 1729,903 1921,904 1923,968 1973,969 1974,905 " />
<polygon class="Wall" fill="#AFD8F8" id="67" transcription="" points="2861,1371 2862,1382 2387,1382 2387,1371 " />
<polygon class="Separation" fill="#008E8E" id="68" transcription="" points="2149,902 2163,902 2163,1329 2149,1329 " />
<polygon class="Separation" fill="#008E8E" id="69" transcription="" points="1724,887 1884,887 1884,900 1724,900 " />
<relation type="incident" objects="49,0"/>
<relation type="incident" objects="0,1"/>
<relation type="incident" objects="1,38"/>
<relation type="incident" objects="38,4"/>
<relation type="incident" objects="4,8"/>
<relation type="incident" objects="8,7"/>
<relation type="incident" objects="7,39"/>
<relation type="incident" objects="39,14"/>
<relation type="incident" objects="14,40"/>
<relation type="incident" objects="40,12"/>
<relation type="incident" objects="12,13"/>
<relation type="incident" objects="13,15"/>
<relation type="incident" objects="15,42"/>
<relation type="incident" objects="42,16"/>
<relation type="incident" objects="16,17"/>
<relation type="incident" objects="17,43"/>
<relation type="incident" objects="43,20"/>
<relation type="incident" objects="20,21"/>
<relation type="incident" objects="21,67"/>
<relation type="incident" objects="21,44"/>
<relation type="incident" objects="44,6"/>
<relation type="incident" objects="6,45"/>
<relation type="incident" objects="45,46"/>
<relation type="incident" objects="46,5"/>
<relation type="incident" objects="5,47"/>
<relation type="incident" objects="24,47"/>
<relation type="incident" objects="24,48"/>
<relation type="incident" objects="48,47"/>
<relation type="incident" objects="48,22"/>
<relation type="incident" objects="22,49"/>
<relation type="incident" objects="22,23"/>
<relation type="incident" objects="23,25"/>
<relation type="incident" objects="25,52"/>
<relation type="incident" objects="52,24"/>
<relation type="incident" objects="24,53"/>
<relation type="incident" objects="53,26"/>
<relation type="incident" objects="26,32"/>
<relation type="incident" objects="32,33"/>
<relation type="incident" objects="33,34"/>
<relation type="incident" objects="34,5"/>
<relation type="incident" objects="23,50"/>
<relation type="incident" objects="25,50"/>
<relation type="incident" objects="50,3"/>
<relation type="incident" objects="3,2"/>
<relation type="incident" objects="2,51"/>
<relation type="incident" objects="51,3"/>
<relation type="incident" objects="51,10"/>
<relation type="incident" objects="10,37"/>
<relation type="incident" objects="37,36"/>
<relation type="incident" objects="36,35"/>
<relation type="incident" objects="35,7"/>
<relation type="incident" objects="2,1"/>
<relation type="incident" objects="35,54"/>
<relation type="incident" objects="54,11"/>
<relation type="incident" objects="11,14"/>
<relation type="incident" objects="11,55"/>
<relation type="incident" objects="55,32"/>
<relation type="incident" objects="12,41"/>
<relation type="incident" objects="41,27"/>
<relation type="incident" objects="27,29"/>
<relation type="incident" objects="29,28"/>
<relation type="incident" objects="28,31"/>
<relation type="incident" objects="31,30"/>
<relation type="incident" objects="30,29"/>
<relation type="incident" objects="28,56"/>
<relation type="incident" objects="56,18"/>
<relation type="incident" objects="18,19"/>
<relation type="incident" objects="19,20"/>
<relation type="access" objects="62,50,63"/>
<relation type="access" objects="62,51,61"/>
<relation type="access" objects="60,54,62"/>
<relation type="access" objects="62,52,64"/>
<relation type="access" objects="59,54,62"/>
<relation type="access" objects="66,55,62"/>
<relation type="access" objects="62,53,65"/>
<relation type="access" objects="59,41,57"/>
<relation type="access" objects="66,56,57"/>
<relation type="neighbour" objects="63,61"/>
<relation type="neighbour" objects="63,64"/>
<relation type="neighbour" objects="63,62"/>
<relation type="neighbour" objects="61,60"/>
<relation type="neighbour" objects="61,62"/>
<relation type="neighbour" objects="60,59"/>
<relation type="neighbour" objects="60,62"/>
<relation type="neighbour" objects="62,64"/>
<relation type="neighbour" objects="62,65"/>
<relation type="neighbour" objects="62,66"/>
<relation type="neighbour" objects="64,65"/>
<relation type="neighbour" objects="65,66"/>
<relation type="neighbour" objects="66,59"/>
<relation type="neighbour" objects="59,57"/>
<relation type="neighbour" objects="57,58"/>
<relation type="neighbour" objects="58,66"/>
<relation type="neighbour" objects="66,57"/>
<relation type="access" objects="66,68,58"/>
<relation type="access" objects="59,69,66"/>
<relation type="access" objects="57,43,57"/>
<relation type="access" objects="59,40,59"/>
<relation type="outerP" objects="1,38,4,8,7,39,14,40,12,13,15,42,16,17,43,20,21,44,6,45,46,5,47,48,22,49,0"/>
<relation type="surround" objects="1,2,3,50,23,49,0,1,63"/>
<relation type="surround" objects="38,4,7,35,36,37,10,51,2,38,61"/>
<relation type="surround" objects="7,39,14,11,54,35,7,60"/>
<relation type="surround" objects="14,40,12,41,27,29,28,69,11,14,59"/>
<relation type="surround" objects="15,42,16,17,43,19,18,56,28,29,27,41,12,13,15,57"/>
<relation type="surround" objects="19,20,21,44,68,18,19,58"/>
<relation type="surround" objects="23,25,52,24,48,22,23,64"/>
<relation type="surround" objects="53,26,32,33,34,5,47,24,53,65"/>
<relation type="surround" objects="50,3,2,51,10,37,36,35,54,11,55,32,26,53,24,52,25,50,62"/>
<relation type="surround" objects="34,33,32,55,69,28,56,68,6,45,46,5,34,66"/>
</svg>