<?xml version="1.0" encoding="UTF-8"?><!DOCTYPE svg PUBLIC "-//W3C//DTD SVG 1.1//EN" "http://www.w3.org/Graphics/SVG/1.1/DTD/svg11.dtd">
<svg xmlns="http://www.w3.org/2000/svg" version="1.1">
<width>2480</width>
<height>3508</height>
<nclasslabel>50</nclasslabel>
<nclassappear>6</nclassappear>
<class>Bidet-1</class>
<class>Bidet-2</class>
<class>Bidet-3</class>
<class>Bidet-4</class>
<class>Door</class>
<class>Door-1</class>
<class>Door-23</class>
<class>Oven-1</class>
<class>Oven-2</class>
<class>Oven-3</class>
<class>Oven-4</class>
<class>Parking</class>
<class>Roof</class>
<class>Room</class>
<class>Separation</class>
<class>Sink-1</class>
<class>Sink-11</class>
<class>Sink-12</class>
<class>Sink-13</class>
<class>Sink-14</class>
<class>Sink-2</class>
<class>Sink-3</class>
<class>Sink-4</class>
<class>Sink-5</class>
<class>Sink-6</class>
<class>Sofa-1</class>
<class>Sofa-3</class>
<class>Sofa-4</class>
<class>Sofa-5</class>
<class>Sofa-6</class>
<class>Sofa-7</class>
<class>Sofa-8</class>
<class>Sofa-9</class>
<class>Stairs-1</class>
<class>Table-1</class>
<class>Table-2</class>
<class>Table-3</class>
<class>Table-4</class>
<class>Table-5</class>
<class>Table-6</class>
<class>Table-7</class>
<class>Text</class>
<class>Tub-1</class>
<class>Tub-3</class>
<class>TV-1</class>
<class>TV-2</class>
<class>Wall</class>
<class>Wall-1</class>
<class>Wallieee</class>
<class>Window</class>
<polygon class="Wall" fill="#AFD8F8" id="0" transcription="" points="828,892 829,868 641,867 641,892 " />
<polygon class="Wall" fill="#AFD8F8" id="1" transcription="" points="781,2480 781,2522 1030,2522 1031,2480 " />
<polygon class="Wall" fill="#AFD8F8" id="2" transcription="" points="982,2386 982,2479 988,2479 989,2386 " />
<polygon class="Wall" fill="#AFD8F8" id="3" transcription="" points="1520,1618 1520,1577 1691,1576 1691,1618 " />
<polygon class="Wall" fill="#AFD8F8" id="4" transcription="" points="1539,1718 1539,1724 1609,1724 1609,1717 " />
<polygon class="Wall" fill="#AFD8F8" id="5" transcription="" points="1538,1912 1538,1920 1651,1919 1651,1912 " />
<polygon class="Wall" fill="#AFD8F8" id="6" transcription="" points="1750,1913 1750,1919 1923,1919 1980,1920 1980,1913 " />
<polygon class="Wall" fill="#AFD8F8" id="7" transcription="" points="1773,1576 1773,1619 2322,1618 2322,1577 " />
<polygon class="Wall" fill="#AFD8F8" id="8" transcription="" points="2365,1730 2323,1730 2322,1577 2364,1578 " />
<polygon class="Wall" fill="#AFD8F8" id="9" transcription="" points="1973,2019 1973,2026 2323,2026 2323,2019 " />
<polygon class="Wall" fill="#AFD8F8" id="10" transcription="" points="1815,1818 1815,1825 1897,1826 1897,1818 " />
<polygon class="Wall" fill="#AFD8F8" id="11" transcription="" points="2323,1906 2364,1907 2365,2481 2324,2480 " />
<polygon class="Wall" fill="#AFD8F8" id="12" transcription="" points="2199,2522 2199,2480 2365,2481 2364,2523 " />
<polygon class="Wall" fill="#AFD8F8" id="13" transcription="" points="498,2522 498,2480 310,2479 310,2522 " />
<polygon class="Wall" fill="#AFD8F8" id="14" transcription="" points="268,1944 310,1944 309,2522 269,2523 " />
<polygon class="Wall" fill="#AFD8F8" id="15" transcription="" points="292,1486 268,1484 268,1529 293,1528 " />
<polygon class="Wall" fill="#AFD8F8" id="16" transcription="" points="310,1554 310,1528 1071,1528 1072,1553 775,1553 " />
<polygon class="Wall" fill="#AFD8F8" id="17" transcription="" points="1177,1836 1177,1843 991,1842 990,1836 " />
<polygon class="Wall" fill="#AFD8F8" id="18" transcription="" points="981,1553 989,1553 989,1842 983,1843 " />
<polygon class="Wall" fill="#AFD8F8" id="19" transcription="" points="1126,868 1126,893 1189,893 1190,868 " />
<polygon class="Wall" fill="#AFD8F8" id="20" transcription="" points="1170,1529 1213,1529 1213,1606 1171,1605 " />
<polygon class="Wall" fill="#AFD8F8" id="21" transcription="" points="1213,1688 1171,1688 1172,1737 1213,1736 " />
<polygon class="Wall" fill="#AFD8F8" id="22" transcription="" points="1243,1737 1244,1695 1213,1695 1212,1737 " />
<polygon class="Wall" fill="#AFD8F8" id="23" transcription="" points="1237,2020 1237,2026 988,2027 988,2020 " />
<polygon class="Wall" fill="#AFD8F8" id="24" transcription="" points="983,2285 988,2285 988,2019 983,2020 " />
<polygon class="Wall" fill="#AFD8F8" id="25" transcription="" points="1206,2522 1206,2479 1236,2480 1236,2522 " />
<polygon class="Wall" fill="#AFD8F8" id="26" transcription="" points="1342,2480 1341,2524 1573,2523 1573,2479 " />
<polygon class="Wall" fill="#AFD8F8" id="27" transcription="" points="1751,2523 1751,2480 2021,2480 2020,2523 " />
<polygon class="Wall" fill="#AFD8F8" id="28" transcription="" points="1710,2026 1709,2020 1874,2020 1874,2027 " />
<polygon class="Wall" fill="#AFD8F8" id="29" transcription="" points="1897,1618 1904,1618 1903,1912 1897,1912 " />
<polygon class="Wall" fill="#AFD8F8" id="30" transcription="" points="1633,1664 1632,1618 1638,1618 1638,1664 " />
<polygon class="Wall" fill="#AFD8F8" id="31" transcription="" points="1437,1618 1437,1577 1390,1577 1391,1618 " />
<polygon class="Wall" fill="#AFD8F8" id="32" transcription="" points="1213,867 1189,867 1188,1527 1214,1527 " />
<polygon class="Wall" fill="#AFD8F8" id="33" transcription="" points="1390,1694 1432,1694 1431,1618 1391,1618 " />
<polygon class="Wall" fill="#AFD8F8" id="34" transcription="" points="1348,1737 1347,1694 1431,1694 1431,1736 " />
<polygon class="Wall" fill="#AFD8F8" id="35" transcription="" points="1336,2020 1336,2027 1609,2027 1609,2019 " />
<polygon class="Wall" fill="#AFD8F8" id="36" transcription="" points="1425,2027 1431,2027 1432,2479 1425,2479 " />
<polygon class="Wall" fill="#AFD8F8" id="37" transcription="" points="1353,1919 1360,1919 1361,1843 1354,1843 " />
<polygon class="Wall" fill="#AFD8F8" id="38" transcription="" points="1531,1843 1531,1837 1354,1836 1354,1842 " />
<polygon class="Wall" fill="#AFD8F8" id="39" transcription="" points="1869,2027 1875,2027 1874,2479 1868,2479 " />
<polygon class="Wall" fill="#AFD8F8" id="40" transcription="" points="1531,1618 1537,1618 1537,1919 1531,1919 " />
<polygon class="Wall" fill="#AFD8F8" id="41" transcription="" points="352,893 352,868 292,868 292,894 " />
<polygon class="Wall" fill="#AFD8F8" id="42" transcription="" points="269,868 291,868 294,1226 268,1226 " />
<polygon class="Wall" fill="#AFD8F8" id="43" transcription="" points="293,1399 269,1401 268,1290 293,1290 " />
<polygon class="Wall" fill="#AFD8F8" id="44" transcription="" points="310,1660 268,1659 267,1527 312,1528 " />
<polygon class="Wall" fill="#AFD8F8" id="45" transcription="" points="770,1595 770,1590 841,1590 841,1595 " />
<polygon class="Wall" fill="#AFD8F8" id="46" transcription="" points="834,1554 841,1554 841,1595 833,1595 " />
<polygon class="Wall" fill="#AFD8F8" id="47" transcription="" points="769,1554 775,1553 775,1589 770,1590 " />
<polygon class="Parking" fill="#F6BD0F" id="48" transcription="" points="344,852 345,900 638,902 639,853 " />
<polygon class="Parking" fill="#F6BD0F" id="49" transcription="" points="828,851 831,900 1124,901 1123,854 " />
<polygon class="Window" fill="#8BBA00" id="50" transcription="" points="336,1284 294,1217 260,1217 259,1298 292,1300 313,1294 " />
<polygon class="Door" fill="#FF8E46" id="51" transcription="" points="379,1488 264,1487 263,1394 297,1394 343,1414 371,1454 " />
<polygon class="Door" fill="#FF8E46" id="52" transcription="" points="1167,1645 1166,1532 1076,1532 1073,1561 1083,1604 1118,1635 " />
<polygon class="Door" fill="#FF8E46" id="53" transcription="" points="1134,1624 1150,1611 1174,1609 1175,1690 " />
<polygon class="Window" fill="#8BBA00" id="54" transcription="" points="264,1658 315,1658 317,1944 265,1945 " />
<polygon class="Window" fill="#8BBA00" id="55" transcription="" points="501,2474 497,2524 784,2524 781,2473 " />
<polygon class="Window" fill="#8BBA00" id="56" transcription="" points="1108,2437 1033,2481 1033,2524 1205,2527 1207,2476 1129,2437 1119,2454 " />
<polygon class="Door" fill="#FF8E46" id="57" transcription="" points="1338,2383 1338,2523 1240,2524 1236,2477 1255,2417 1295,2387 " />
<polygon class="Window" fill="#8BBA00" id="58" transcription="" points="1649,2437 1574,2482 1574,2526 1746,2524 1750,2479 1671,2436 1660,2455 " />
<polygon class="Window" fill="#8BBA00" id="59" transcription="" points="2099,2438 2022,2482 2023,2524 2199,2525 2197,2476 2119,2438 2110,2455 " />
<polygon class="Window" fill="#8BBA00" id="60" transcription="" points="2280,1809 2322,1735 2370,1732 2370,1903 2322,1907 2280,1831 2294,1819 " />
<polygon class="Window" fill="#8BBA00" id="61" transcription="" points="1706,1656 1774,1620 1773,1573 1697,1571 1696,1620 1699,1640 " />
<polygon class="Window" fill="#8BBA00" id="62" transcription="" points="1504,1655 1436,1616 1438,1572 1517,1574 1519,1617 1514,1640 " />
<polygon class="Door" fill="#FF8E46" id="63" transcription="" points="1348,1840 1346,1695 1242,1694 1244,1747 1256,1791 1291,1829 " />
<polygon class="Door" fill="#FF8E46" id="64" transcription="" points="1081,1835 1176,1834 1173,1731 1116,1752 1090,1787 " />
<polygon class="Door" fill="#FF8E46" id="65" transcription="" points="1335,2121 1335,2022 1237,2019 1246,2067 1278,2105 " />
<polygon class="Door" fill="#FF8E46" id="66" transcription="" points="1708,2120 1708,2021 1609,2024 1621,2076 1663,2113 " />
<polygon class="Door" fill="#FF8E46" id="67" transcription="" points="1744,1823 1747,1919 1651,1921 1658,1869 1696,1833 " />
<polygon class="Door" fill="#FF8E46" id="68" transcription="" points="1455,1835 1348,1839 1346,1736 1398,1741 1441,1783 " />
<polygon class="Door" fill="#FF8E46" id="69" transcription="" points="1080,2381 984,2384 984,2287 1047,2303 1079,2352 " />
<polygon class="Door" fill="#FF8E46" id="70" transcription="" points="1875,2122 1876,2024 1974,2023 1970,2066 1930,2106 " />
<polygon class="Door" fill="#FF8E46" id="71" transcription="" points="2071,2017 1973,2021 1975,1920 2030,1933 2067,1974 " />
<polygon class="Room" fill="#008E8E" id="72" transcription="" points="297,900 297,1521 1181,1523 1183,896 " />
<polygon class="Room" fill="#008E8E" id="73" transcription="" points="314,1560 312,2018 973,2021 973,1548 847,1558 846,1597 767,1599 764,1556 " />
<polygon class="Room" fill="#008E8E" id="74" transcription="" points="985,1848 983,2014 1349,2013 1349,1741 1176,1740 1180,1846 " />
<polygon class="Room" fill="#008E8E" id="75" transcription="" points="991,1559 993,1829 1172,1828 1165,1561 " />
<polygon class="Room" fill="#008E8E" id="76" transcription="" points="1434,1620 1434,1740 1351,1738 1353,1833 1525,1834 1523,1621 " />
<polygon class="Room" fill="#008E8E" id="77" transcription="" points="1367,1844 1367,2017 1967,2016 1971,1926 1530,1924 1524,1846 " />
<polygon class="Room" fill="#008E8E" id="78" transcription="" points="1890,1623 1892,1812 1807,1810 1807,1830 1890,1833 1894,1907 1541,1908 1540,1728 1614,1728 1614,1710 1539,1708 1542,1623 1628,1623 1629,1668 1643,1668 1641,1623 " />
<polygon class="Room" fill="#008E8E" id="79" transcription="" points="1907,1622 1909,1907 1987,1908 1987,2012 2320,2012 2315,1624 " />
<polygon class="Room" fill="#008E8E" id="80" transcription="" points="2319.5,2032 2317.5,2471 1878.5,2474 1880.5,2030 " />
<polygon class="Room" fill="#008E8E" id="81" transcription="" points="1867,2030 1865,2474 1436,2474 1436,2030 " />
<polygon class="Room" fill="#008E8E" id="82" transcription="" points="993,2033 992,2472 1419,2471 1417,2030 " />
<polygon class="Separation" fill="#D64646" id="83" transcription="" points="974,1836 994,1836 994,2006 974,2006 " />
<polygon class="Separation" fill="#D64646" id="84" transcription="" points="1346,1918 1368,1918 1368,2017 1346,2017 " />
<polygon class="Separation" fill="#D64646" id="85" transcription="" points="311,2017 975,2017 975,2033 311,2033 " />
<polygon class="Room" fill="#008E8E" id="86" transcription="" points="311,2033 974,2033 974,2472 311,2472 " />
<polygon class="Window" fill="#8BBA00" id="87" transcription="" points="1133,1619 1174,1692 1224,1690 1224,1602 1174,1602 1153,1607 " />
<relation type="outerP" objects="41,48,0,49,19,32,20,87,21,22,63,34,33,31,62,3,61,7,8,60,11,12,59,27,58,26,57,25,56,1,55,13,14,54,44,15,51,43,50,42"/>
<relation type="incident" objects="41,48"/>
<relation type="incident" objects="48,0"/>
<relation type="incident" objects="0,49"/>
<relation type="incident" objects="49,19"/>
<relation type="incident" objects="19,32"/>
<relation type="incident" objects="32,20"/>
<relation type="incident" objects="20,87"/>
<relation type="incident" objects="87,21"/>
<relation type="incident" objects="21,22"/>
<relation type="incident" objects="22,63"/>
<relation type="incident" objects="63,34"/>
<relation type="incident" objects="34,33"/>
<relation type="incident" objects="33,31"/>
<relation type="incident" objects="31,62"/>
<relation type="incident" objects="62,3"/>
<relation type="incident" objects="3,61"/>
<relation type="incident" objects="61,7"/>
<relation type="incident" objects="7,8"/>
<relation type="incident" objects="8,60"/>
<relation type="incident" objects="60,11"/>
<relation type="incident" objects="11,12"/>
<relation type="incident" objects="12,59"/>
<relation type="incident" objects="59,27"/>
<relation type="incident" objects="27,58"/>
<relation type="incident" objects="58,26"/>
<relation type="incident" objects="26,57"/>
<relation type="incident" objects="57,25"/>
<relation type="incident" objects="25,56"/>
<relation type="incident" objects="56,1"/>
<relation type="incident" objects="1,55"/>
<relation type="incident" objects="55,13"/>
<relation type="incident" objects="13,14"/>
<relation type="incident" objects="14,54"/>
<relation type="incident" objects="44,54"/>
<relation type="incident" objects="44,15"/>
<relation type="incident" objects="15,51"/>
<relation type="incident" objects="51,43"/>
<relation type="incident" objects="43,50"/>
<relation type="incident" objects="50,42"/>
<relation type="incident" objects="42,41"/>
<relation type="incident" objects="44,16"/>
<relation type="incident" objects="16,52"/>
<relation type="incident" objects="52,20"/>
<relation type="incident" objects="16,46"/>
<relation type="incident" objects="45,46"/>
<relation type="incident" objects="45,47"/>
<relation type="incident" objects="16,47"/>
<relation type="incident" objects="16,18"/>
<relation type="incident" objects="18,17"/>
<relation type="incident" objects="17,64"/>
<relation type="incident" objects="64,21"/>
<relation type="incident" objects="18,83"/>
<relation type="incident" objects="83,17"/>
<relation type="incident" objects="83,85"/>
<relation type="incident" objects="85,24"/>
<relation type="incident" objects="24,83"/>
<relation type="incident" objects="83,23"/>
<relation type="incident" objects="23,24"/>
<relation type="incident" objects="85,14"/>
<relation type="incident" objects="24,69"/>
<relation type="incident" objects="69,2"/>
<relation type="incident" objects="2,1"/>
<relation type="incident" objects="23,65"/>
<relation type="incident" objects="65,35"/>
<relation type="incident" objects="35,36"/>
<relation type="incident" objects="36,26"/>
<relation type="incident" objects="37,84"/>
<relation type="incident" objects="84,35"/>
<relation type="incident" objects="37,38"/>
<relation type="incident" objects="38,68"/>
<relation type="incident" objects="68,34"/>
<relation type="incident" objects="68,37"/>
<relation type="incident" objects="38,40"/>
<relation type="incident" objects="40,3"/>
<relation type="incident" objects="40,62"/>
<relation type="incident" objects="40,4"/>
<relation type="incident" objects="40,5"/>
<relation type="incident" objects="67,5"/>
<relation type="incident" objects="67,6"/>
<relation type="incident" objects="6,29"/>
<relation type="incident" objects="29,10"/>
<relation type="incident" objects="7,29"/>
<relation type="incident" objects="35,66"/>
<relation type="incident" objects="66,28"/>
<relation type="incident" objects="28,70"/>
<relation type="incident" objects="70,39"/>
<relation type="incident" objects="39,28"/>
<relation type="incident" objects="39,27"/>
<relation type="incident" objects="70,9"/>
<relation type="incident" objects="9,11"/>
<relation type="incident" objects="9,71"/>
<relation type="incident" objects="71,6"/>
<relation type="neighbour" objects="72,73"/>
<relation type="neighbour" objects="73,86"/>
<relation type="neighbour" objects="86,82"/>
<relation type="neighbour" objects="82,81"/>
<relation type="neighbour" objects="81,80"/>
<relation type="neighbour" objects="78,79"/>
<relation type="neighbour" objects="79,80"/>
<relation type="neighbour" objects="78,76"/>
<relation type="neighbour" objects="76,74"/>
<relation type="neighbour" objects="74,75"/>
<relation type="neighbour" objects="75,72"/>
<relation type="neighbour" objects="75,73"/>
<relation type="neighbour" objects="74,86"/>
<relation type="neighbour" objects="74,73"/>
<relation type="neighbour" objects="74,82"/>
<relation type="neighbour" objects="74,77"/>
<relation type="neighbour" objects="77,82"/>
<relation type="neighbour" objects="77,81"/>
<relation type="neighbour" objects="77,80"/>
<relation type="neighbour" objects="77,79"/>
<relation type="neighbour" objects="77,78"/>
<relation type="neighbour" objects="77,76"/>
<relation type="access" objects="72,51,72"/>
<relation type="access" objects="72,52,75"/>
<relation type="access" objects="74,64,75"/>
<relation type="access" objects="74,63,74"/>
<relation type="access" objects="74,68,76"/>
<relation type="access" objects="74,84,77"/>
<relation type="access" objects="74,83,73"/>
<relation type="access" objects="73,85,86"/>
<relation type="access" objects="86,69,82"/>
<relation type="access" objects="82,57,82"/>
<relation type="access" objects="74,65,82"/>
<relation type="access" objects="77,66,81"/>
<relation type="access" objects="77,70,80"/>
<relation type="access" objects="77,71,79"/>
<relation type="access" objects="77,67,78"/>
<relation type="surround" objects="41,48,0,49,19,32,20,52,16,15,51,43,50,42,41,72"/>
<relation type="surround" objects="16,18,83,85,14,54,44,16,73"/>
<relation type="surround" objects="16,52,20,87,21,64,17,18,16,75"/>
<relation type="surround" objects="21,22,63,34,68,37,84,65,23,83,17,64,21,74"/>
<relation type="surround" objects="85,24,69,2,1,55,13,14,85,86"/>
<relation type="surround" objects="23,65,35,36,26,57,25,56,1,2,69,24,23,82"/>
<relation type="surround" objects="35,66,28,39,27,58,26,36,35,81"/>
<relation type="surround" objects="70,9,11,12,59,27,39,70,80"/>
<relation type="surround" objects="38,40,5,67,6,71,9,70,28,66,35,84,37,38,77"/>
<relation type="surround" objects="34,33,31,62,40,38,68,34,76"/>
<relation type="surround" objects="3,61,7,29,6,67,5,40,3,78"/>
<relation type="surround" objects="7,8,60,11,9,71,6,29,7,79"/>
</svg>