<?xml version="1.0" encoding="UTF-8"?><!DOCTYPE svg PUBLIC "-//W3C//DTD SVG 1.1//EN" "http://www.w3.org/Graphics/SVG/1.1/DTD/svg11.dtd">
<svg xmlns="http://www.w3.org/2000/svg" version="1.1">
<width>2480</width>
<height>3508</height>
<nclasslabel>50</nclasslabel>
<nclassappear>6</nclassappear>
<class>Bidet-1</class>
<class>Bidet-2</class>
<class>Bidet-3</class>
<class>Bidet-4</class>
<class>Door</class>
<class>Door-1</class>
<class>Door-23</class>
<class>Oven-1</class>
<class>Oven-2</class>
<class>Oven-3</class>
<class>Oven-4</class>
<class>Parking</class>
<class>Roof</class>
<class>Room</class>
<class>Separation</class>
<class>Sink-1</class>
<class>Sink-11</class>
<class>Sink-12</class>
<class>Sink-13</class>
<class>Sink-14</class>
<class>Sink-2</class>
<class>Sink-3</class>
<class>Sink-4</class>
<class>Sink-5</class>
<class>Sink-6</class>
<class>Sofa-1</class>
<class>Sofa-3</class>
<class>Sofa-4</class>
<class>Sofa-5</class>
<class>Sofa-6</class>
<class>Sofa-7</class>
<class>Sofa-8</class>
<class>Sofa-9</class>
<class>Stairs-1</class>
<class>Table-1</class>
<class>Table-2</class>
<class>Table-3</class>
<class>Table-4</class>
<class>Table-5</class>
<class>Table-6</class>
<class>Table-7</class>
<class>Text</class>
<class>Tub-1</class>
<class>Tub-3</class>
<class>TV-1</class>
<class>TV-2</class>
<class>Wall</class>
<class>Wall-1</class>
<class>Wallieee</class>
<class>Window</class>
<polygon class="Wall" fill="#AFD8F8" id="0" transcription="" points="932,736 905,736 904,673 929,673 " />
<polygon class="Wall" fill="#AFD8F8" id="1" transcription="" points="1578,697 1579,673 929,673 929,697 " />
<polygon class="Wall" fill="#AFD8F8" id="2" transcription="" points="930,1049 930,1057 1019,1057 1019,1050 " />
<polygon class="Wall" fill="#AFD8F8" id="3" transcription="" points="1478,1247 1472,1247 1473,1589 1479,1589 " />
<polygon class="Wall" fill="#AFD8F8" id="4" transcription="" points="1562,1238 1562,1246 1472,1247 1472,1238 " />
<polygon class="Wall" fill="#AFD8F8" id="5" transcription="" points="1604,1204 1604,1246 1808,1247 1809,1204 " />
<polygon class="Wall" fill="#AFD8F8" id="6" transcription="" points="1561,1191 1604,1191 1604,1246 1561,1246 " />
<polygon class="Wall" fill="#AFD8F8" id="7" transcription="" points="1603,672 1579,672 1579,1051 1602,1050 " />
<polygon class="Wall" fill="#AFD8F8" id="8" transcription="" points="1561,1092 1602,1092 1602,1050 1561,1050 " />
<polygon class="Wall" fill="#AFD8F8" id="9" transcription="" points="1850,1204 1808,1203 1809,1554 1851,1554 " />
<polygon class="Wall" fill="#AFD8F8" id="10" transcription="" points="1471,1689 1472,1695 1809,1694 1808,1688 " />
<polygon class="Wall" fill="#AFD8F8" id="11" transcription="" points="1472,1797 1479,1797 1481,1904 1472,1900 " />
<polygon class="Wall" fill="#AFD8F8" id="12" transcription="" points="1808,1901 1808,1907 1472,1907 1472,1900 " />
<polygon class="Wall" fill="#AFD8F8" id="13" transcription="" points="1852,1836 1809,1836 1809,2235 1852,2235 " />
<polygon class="Wall" fill="#AFD8F8" id="14" transcription="" points="1615,2236 1615,2279 1850,2281 1852,2236 " />
<polygon class="Wall" fill="#AFD8F8" id="15" transcription="" points="1455,2238 1455,2244 1374,2244 1374,2238 " />
<polygon class="Wall" fill="#AFD8F8" id="16" transcription="" points="1365,1902 1367,2244 1373,2244 1373,1901 " />
<polygon class="Wall" fill="#AFD8F8" id="17" transcription="" points="1454,2396 1497,2396 1497,2590 1454,2590 " />
<polygon class="Wall" fill="#AFD8F8" id="18" transcription="" points="1142,1049 1138,1076 1561,1075 1561,1050 " />
<polygon class="Wall" fill="#AFD8F8" id="19" transcription="" points="1118,1288 1117,1049 1142,1049 1143,1289 " />
<polygon class="Wall" fill="#AFD8F8" id="20" transcription="" points="931,1015 905,1014 906,1262 929,1262 " />
<polygon class="Wall" fill="#AFD8F8" id="21" transcription="" points="1183,1793 1183,1800 1260,1800 1260,1793 " />
<polygon class="Wall" fill="#AFD8F8" id="22" transcription="" points="1261,1553 1259,1800 1266,1800 1266,1715 1267,1554 " />
<polygon class="Wall" fill="#AFD8F8" id="23" transcription="" points="1137,1544 1144,1545 1142,1288 1135,1289 " />
<polygon class="Wall" fill="#AFD8F8" id="24" transcription="" points="1307,2591 1308,2635 1496,2633 1498,2592 " />
<polygon class="Wall" fill="#AFD8F8" id="25" transcription="" points="1025,2592 948,2592 948,2633 1024,2633 " />
<polygon class="Wall" fill="#AFD8F8" id="26" transcription="" points="949,2236 906,2236 904,2633 948,2633 " />
<polygon class="Wall" fill="#AFD8F8" id="27" transcription="" points="906,1919 948,1919 948,2130 905,2130 " />
<polygon class="Wall" fill="#AFD8F8" id="28" transcription="" points="947,1793 948,1800 1016,1801 1018,1793 " />
<polygon class="Wall" fill="#AFD8F8" id="29" transcription="" points="945,1290 948,1264 1019,1264 1019,1288 " />
<polygon class="Wall" fill="#AFD8F8" id="30" transcription="" points="1366,1470 1373,1470 1373,1617 1366,1617 " />
<polygon class="Wall" fill="#AFD8F8" id="31" transcription="" points="1365,1719 1366,1725 1265,1725 1266,1718 " />
<polygon class="Wall" fill="#AFD8F8" id="32" transcription="" points="948,1493 906,1493 906,1262 949,1263 " />
<polygon class="Wall" fill="#AFD8F8" id="33" transcription="" points="904,1601 948,1601 948,1812 904,1811 " />
<polygon class="Wall" fill="#AFD8F8" id="34" transcription="" points="1136,1546 1136,1552 1364,1553 1364,1547 " />
<polygon class="Wall" fill="#AFD8F8" id="35" transcription="" points="1516,2280 1514,2237 1454,2237 1455,2277 " />
<polygon class="Wall" fill="#AFD8F8" id="36" transcription="" points="1455,2278 1496,2279 1496,2297 1455,2298 " />
<polygon class="Wall" fill="#AFD8F8" id="37" transcription="" points="1367,1800 1366,1718 1373,1719 1373,1799 " />
<polygon class="Parking" fill="#F6BD0F" id="38" transcription="" points="891,728 938,729 941,1019 892,1022 " />
<polygon class="Window" fill="#8BBA00" id="39" transcription="" points="998,1582 947,1496 901,1496 900,1602 950,1601 976,1596 " />
<polygon class="Window" fill="#8BBA00" id="40" transcription="" points="1047,1816 902,1815 905,1920 951,1920 1012,1905 1047,1861 " />
<polygon class="Window" fill="#8BBA00" id="41" transcription="" points="996,2220 948,2131 901,2129 900,2233 951,2233 979,2230 " />
<polygon class="Window" fill="#8BBA00" id="42" transcription="" points="1026,2587 1026,2635 1308,2635 1306,2586 " />
<polygon class="Door" fill="#FF8E46" id="43" transcription="" points="1357,2295 1497,2297 1500,2397 1451,2398 1390,2374 1360,2329 " />
<polygon class="Door" fill="#FF8E46" id="44" transcription="" points="1512,2142 1512,2280 1615,2281 1612,2233 1600,2184 1553,2147 " />
<polygon class="Window" fill="#8BBA00" id="45" transcription="" points="1772,1822 1813,1753 1857,1754 1858,1831 1809,1834 1791,1832 " />
<polygon class="Window" fill="#8BBA00" id="46" transcription="" points="1760,1572 1810,1659 1856,1659 1856,1554 1811,1554 1784,1559 " />
<polygon class="Window" fill="#8BBA00" id="47" transcription="" points="1512,1176 1561,1093 1606,1091 1609,1188 1558,1188 1531,1184 " />
<polygon class="Door" fill="#FF8E46" id="48" transcription="" points="1113,1149 1113,1049 1020,1053 1036,1116 1071,1144 " />
<polygon class="Door" fill="#FF8E46" id="49" transcription="" points="1473,1452 1472,1551 1374,1553 1389,1491 1419,1469 " />
<polygon class="Door" fill="#FF8E46" id="50" transcription="" points="1416,1700 1371,1619 1376,1713 1392,1715 " />
<polygon class="Door" fill="#FF8E46" id="51" transcription="" points="1571,1684 1470,1687 1473,1585 1515,1592 1554,1629 " />
<polygon class="Door" fill="#FF8E46" id="52" transcription="" points="1570,1697 1472,1697 1472,1797 1522,1782 1557,1748 " />
<polygon class="Door" fill="#FF8E46" id="53" transcription="" points="1377,2000 1374,1899 1470,1899 1462,1946 1427,1986 " />
<polygon class="Wall" fill="#AFD8F8" id="54" transcription="" points="1827,2609 1851,2609 1851,2633 1827,2633 " />
<polygon class="Room" fill="#008E8E" id="55" transcription="" points="1574,700 1572,1044 933,1041 932,703 " />
<polygon class="Room" fill="#008E8E" id="56" transcription="" points="932.5,1061 932.5,1257 1116,1251 1107.5,1061 " />
<polygon class="Room" fill="#008E8E" id="57" transcription="" points="1146,1080 1148,1539 1361,1546 1362,1466 1376,1465 1378,1541 1471,1541 1467,1236 1559,1230 1558,1078 " />
<polygon class="Room" fill="#008E8E" id="58" transcription="" points="1483,1252 1485,1684 1809,1684 1803,1250 " />
<polygon class="Wall" fill="#AFD8F8" id="59" transcription="" points="1853,1662 1807,1658 1810,1753 1854,1752 " />
<polygon class="Room" fill="#008E8E" id="60" transcription="" points="1804,1700 1805,1895 1480,1894 1479,1699 " />
<polygon class="Room" fill="#008E8E" id="61" transcription="" points="1804,1909 1804,2232 1378,2232 1380,1908 " />
<polygon class="Room" fill="#008E8E" id="62" transcription="" points="1378,1557 1378,1894 1467,1894 1469,1556 " />
<polygon class="Room" fill="#008E8E" id="63" transcription="" points="1271,1559 1270,1712 1363,1713 1363,1561 " />
<polygon class="Room" fill="#008E8E" id="64" transcription="" points="953,1293 951,1789 1255,1787 1257,1559 1130,1555 1130,1293 " />
<polygon class="Room" fill="#008E8E" id="65" transcription="" points="948,2226 1368,2219 1363,1731 1270,1728 1272,1804 955,1809 " />
<polygon class="Door" fill="#FF8E46" id="66" transcription="" points="1114,1262 1116,1170 1063,1184 1031,1218 1024,1262 " />
<polygon class="Separation" fill="#D64646" id="67" transcription="" points="1023,1783 1178,1783 1178,1802 1023,1802 " />
<polygon class="Separation" fill="#D64646" id="68" transcription="" points="1366,1800 1378,1800 1378,1895 1366,1895 " />
<polygon class="Room" fill="#008E8E" id="69" transcription="" points="951,2243 1445,2243 1445,2581 951,2581 " />
<polygon class="Separation" fill="#D64646" id="70" transcription="" points="942,2218 1362,2218 1362,2243 942,2243 " />
<relation type="outerP" objects="1,7,8,47,6,5,9,46,59,45,13,14,44,35,36,43,17,24,42,25,26,41,27,40,33,39,32,20,38,0"/>
<relation type="incident" objects="1,7"/>
<relation type="incident" objects="7,8"/>
<relation type="incident" objects="8,47"/>
<relation type="incident" objects="47,6"/>
<relation type="incident" objects="6,5"/>
<relation type="incident" objects="5,9"/>
<relation type="incident" objects="9,46"/>
<relation type="incident" objects="46,59"/>
<relation type="incident" objects="59,45"/>
<relation type="incident" objects="45,13"/>
<relation type="incident" objects="13,14"/>
<relation type="incident" objects="14,44"/>
<relation type="incident" objects="44,35"/>
<relation type="incident" objects="35,36"/>
<relation type="incident" objects="36,43"/>
<relation type="incident" objects="43,17"/>
<relation type="incident" objects="17,24"/>
<relation type="incident" objects="24,42"/>
<relation type="incident" objects="42,25"/>
<relation type="incident" objects="25,26"/>
<relation type="incident" objects="26,41"/>
<relation type="incident" objects="27,41"/>
<relation type="incident" objects="27,40"/>
<relation type="incident" objects="33,40"/>
<relation type="incident" objects="33,39"/>
<relation type="incident" objects="32,39"/>
<relation type="incident" objects="32,20"/>
<relation type="incident" objects="20,38"/>
<relation type="incident" objects="38,0"/>
<relation type="incident" objects="0,1"/>
<relation type="incident" objects="20,2"/>
<relation type="incident" objects="2,48"/>
<relation type="incident" objects="18,19"/>
<relation type="incident" objects="18,8"/>
<relation type="incident" objects="19,48"/>
<relation type="incident" objects="19,23"/>
<relation type="incident" objects="19,66"/>
<relation type="incident" objects="29,66"/>
<relation type="incident" objects="29,32"/>
<relation type="incident" objects="23,34"/>
<relation type="incident" objects="34,30"/>
<relation type="incident" objects="34,49"/>
<relation type="incident" objects="49,3"/>
<relation type="incident" objects="3,4"/>
<relation type="incident" objects="4,6"/>
<relation type="incident" objects="49,30"/>
<relation type="incident" objects="3,51"/>
<relation type="incident" objects="51,10"/>
<relation type="incident" objects="10,59"/>
<relation type="incident" objects="10,52"/>
<relation type="incident" objects="52,11"/>
<relation type="incident" objects="11,12"/>
<relation type="incident" objects="12,13"/>
<relation type="incident" objects="16,53"/>
<relation type="incident" objects="53,12"/>
<relation type="incident" objects="53,11"/>
<relation type="incident" objects="16,68"/>
<relation type="incident" objects="68,53"/>
<relation type="incident" objects="16,15"/>
<relation type="incident" objects="15,35"/>
<relation type="incident" objects="16,70"/>
<relation type="incident" objects="70,41"/>
<relation type="incident" objects="70,26"/>
<relation type="incident" objects="33,28"/>
<relation type="incident" objects="28,67"/>
<relation type="incident" objects="67,21"/>
<relation type="incident" objects="21,22"/>
<relation type="incident" objects="22,34"/>
<relation type="incident" objects="22,31"/>
<relation type="incident" objects="31,37"/>
<relation type="incident" objects="37,68"/>
<relation type="incident" objects="37,50"/>
<relation type="incident" objects="50,30"/>
<relation type="incident" objects="30,34"/>
<relation type="neighbour" objects="55,56"/>
<relation type="neighbour" objects="56,57"/>
<relation type="neighbour" objects="57,55"/>
<relation type="neighbour" objects="57,64"/>
<relation type="neighbour" objects="64,56"/>
<relation type="neighbour" objects="57,58"/>
<relation type="neighbour" objects="58,60"/>
<relation type="neighbour" objects="60,61"/>
<relation type="neighbour" objects="61,62"/>
<relation type="neighbour" objects="62,60"/>
<relation type="neighbour" objects="62,58"/>
<relation type="neighbour" objects="62,63"/>
<relation type="neighbour" objects="57,63"/>
<relation type="neighbour" objects="63,64"/>
<relation type="neighbour" objects="63,65"/>
<relation type="neighbour" objects="65,64"/>
<relation type="neighbour" objects="65,61"/>
<relation type="neighbour" objects="65,62"/>
<relation type="access" objects="55,48,56"/>
<relation type="access" objects="56,66,56"/>
<relation type="access" objects="64,67,65"/>
<relation type="access" objects="63,50,62"/>
<relation type="access" objects="62,49,57"/>
<relation type="access" objects="62,51,58"/>
<relation type="access" objects="62,52,60"/>
<relation type="access" objects="62,53,61"/>
<relation type="access" objects="61,44,61"/>
<relation type="access" objects="69,43,69"/>
<relation type="access" objects="69,70,65"/>
<relation type="surround" objects="2,48,19,66,29,20,2,56"/>
<relation type="surround" objects="18,8,47,6,4,3,49,34,23,19,18,57"/>
<relation type="surround" objects="29,66,19,23,34,22,21,67,28,33,39,32,29,64"/>
<relation type="surround" objects="4,6,5,9,46,59,10,51,3,4,58"/>
<relation type="surround" objects="34,30,50,31,22,34,63"/>
<relation type="surround" objects="49,3,51,10,52,11,53,68,37,50,30,49,62"/>
<relation type="surround" objects="10,59,45,13,12,11,52,10,60"/>
<relation type="surround" objects="53,12,13,14,44,35,15,16,53,61"/>
<relation type="surround" objects="28,67,21,22,31,37,68,53,16,70,41,27,40,28,65"/>
<relation type="surround" objects="70,15,35,36,43,17,24,42,25,26,70,69"/>
<relation type="surround" objects="1,7,8,18,19,48,2,20,38,0,1,55"/>
</svg>