<?xml version="1.0" encoding="UTF-8"?><!DOCTYPE svg PUBLIC "-//W3C//DTD SVG 1.1//EN" "http://www.w3.org/Graphics/SVG/1.1/DTD/svg11.dtd">
<svg xmlns="http://www.w3.org/2000/svg" version="1.1">
<width>2480</width>
<height>3508</height>
<nclasslabel>50</nclasslabel>
<nclassappear>4</nclassappear>
<class>Bidet-1</class>
<class>Bidet-2</class>
<class>Bidet-3</class>
<class>Bidet-4</class>
<class>Door</class>
<class>Door-1</class>
<class>Door-23</class>
<class>Oven-1</class>
<class>Oven-2</class>
<class>Oven-3</class>
<class>Oven-4</class>
<class>Parking</class>
<class>Roof</class>
<class>Room</class>
<class>Separation</class>
<class>Sink-1</class>
<class>Sink-11</class>
<class>Sink-12</class>
<class>Sink-13</class>
<class>Sink-14</class>
<class>Sink-2</class>
<class>Sink-3</class>
<class>Sink-4</class>
<class>Sink-5</class>
<class>Sink-6</class>
<class>Sofa-1</class>
<class>Sofa-3</class>
<class>Sofa-4</class>
<class>Sofa-5</class>
<class>Sofa-6</class>
<class>Sofa-7</class>
<class>Sofa-8</class>
<class>Sofa-9</class>
<class>Stairs-1</class>
<class>Table-1</class>
<class>Table-2</class>
<class>Table-3</class>
<class>Table-4</class>
<class>Table-5</class>
<class>Table-6</class>
<class>Table-7</class>
<class>Text</class>
<class>Tub-1</class>
<class>Tub-3</class>
<class>TV-1</class>
<class>TV-2</class>
<class>Wall</class>
<class>Wall-1</class>
<class>Wallieee</class>
<class>Window</class>
<polygon class="Wall" fill="#AFD8F8" id="0" transcription="" points="1323,809 1715,806 1718,836 1323,834 " />
<polygon class="Wall" fill="#AFD8F8" id="1" transcription="" points="1285,1011 1285,1051 1346,1051 1346,1009 " />
<polygon class="Wall" fill="#AFD8F8" id="2" transcription="" points="1444.5,1010.5 1445.5,1050.5 1717.5,1050.5 1717.5,1007.5 " />
<polygon class="Wall" fill="#AFD8F8" id="3" transcription="" points="1674,1194 1718,1192 1717,1011 1673,1009 " />
<polygon class="Wall" fill="#AFD8F8" id="4" transcription="" points="1718,808 1692,808 1695,1012 1720,1012 " />
<polygon class="Wall" fill="#AFD8F8" id="5" transcription="" points="1120,809 1145,809 1145,833 1121,834 " />
<polygon class="Wall" fill="#AFD8F8" id="6" transcription="" points="1676,1334 1718,1336 1718,1553 1677,1551 " />
<polygon class="Wall" fill="#AFD8F8" id="7" transcription="" points="1674,1622 1718,1621 1718,1866 1677,1868 " />
<polygon class="Wall" fill="#AFD8F8" id="8" transcription="" points="1676,2006 1717,2005 1720,2408 1677,2409 " />
<polygon class="Wall" fill="#AFD8F8" id="9" transcription="" points="1199,2408 1198,2369 1718,2369 1717,2409 " />
<polygon class="Wall" fill="#AFD8F8" id="10" transcription="" points="1198,2202 1240,2202 1240,2408 1196,2408 " />
<polygon class="Wall" fill="#AFD8F8" id="11" transcription="" points="1182,1009.5 1182,1051.5 771,1052.5 770,1010.5 " />
<polygon class="Wall" fill="#AFD8F8" id="12" transcription="" points="773,1175 817,1177 812,1010 768,1013 " />
<polygon class="Wall" fill="#AFD8F8" id="13" transcription="" points="771,1386 813,1385 813,1736 771,1734 " />
<polygon class="Wall" fill="#AFD8F8" id="14" transcription="" points="771,1877 812,1876 815,2074 774,2074 " />
<polygon class="Wall" fill="#AFD8F8" id="15" transcription="" points="1238,2030 1240,2110 1198,2110 1198,2029 " />
<polygon class="Wall" fill="#AFD8F8" id="16" transcription="" points="774,2029 773,2071 1238,2074 1240,2029 " />
<polygon class="Wall" fill="#AFD8F8" id="17" transcription="" points="1196,1748 1224,1748 1221,2027 1196,2029 " />
<polygon class="Wall" fill="#AFD8F8" id="18" transcription="" points="1320,1301 1343,1301 1345,1648 1324,1648 " />
<polygon class="Wall" fill="#AFD8F8" id="19" transcription="" points="1223.5,1645.5 1195.5,1645.5 1194.5,1623.5 1220.5,1622.5 " />
<polygon class="Wall" fill="#AFD8F8" id="20" transcription="" points="773,2385 796,2387 796,2410 773,2410 " />
<polygon class="Wall" fill="#AFD8F8" id="21" transcription="" points="1314.5,1744.5 1314.5,1755.5 1684.5,1754.5 1683.5,1745.5 " />
<polygon class="Wall" fill="#AFD8F8" id="22" transcription="" points="1676,2080 1679,2091 1234,2089 1234,2081 " />
<polygon class="Wall" fill="#AFD8F8" id="23" transcription="" points="1489,1648 1479,1649 1479,1534 1490,1534 " />
<polygon class="Wall" fill="#AFD8F8" id="24" transcription="" points="1439,1638 1440,1650 1493,1650 1492,1638 " />
<polygon class="Wall" fill="#AFD8F8" id="25" transcription="" points="1341.5,1532 1342.5,1543 1678.5,1544 1676.5,1532 " />
<polygon class="Wall" fill="#AFD8F8" id="26" transcription="" points="812,1621 811,1632 1198,1634 1198,1621 " />
<polygon class="Door" fill="#F6BD0F" id="27" transcription="" points="1333,2110 1192,2109 1193,2201 1244,2202 1298,2185 1322,2153 " />
<polygon class="Window" fill="#8BBA00" id="28" transcription="" points="1727,1867 1727,2004 1672,2005 1671,1867 " />
<polygon class="Door" fill="#F6BD0F" id="29" transcription="" points="1225,1844.5 1223,1747.5 1320,1744.5 1315,1795.5 1277,1835.5 " />
<polygon class="Door" fill="#F6BD0F" id="30" transcription="" points="1548,1745 1447,1743 1440,1651 1499,1658 1535,1692 " />
<polygon class="Door" fill="#F6BD0F" id="31" transcription="" points="1365,1694 1445,1646 1350,1642 1351,1670 " />
<polygon class="Door" fill="#F6BD0F" id="32" transcription="" points="1319.5,1532.5 1319.5,1631.5 1225.5,1629.5 1235.5,1578.5 1272.5,1543.5 " />
<polygon class="Door" fill="#F6BD0F" id="33" transcription="" points="1110,1652 1206,1652 1210,1745 1150,1735 1116,1694 " />
<polygon class="Window" fill="#8BBA00" id="34" transcription="" points="1726,1551 1725,1620 1671,1619 1671,1552 " />
<polygon class="Door" fill="#F6BD0F" id="35" transcription="" points="1725.5,1187.5 1727.5,1333.5 1671.5,1335.5 1670.5,1188.5 " />
<polygon class="Door" fill="#F6BD0F" id="36" transcription="" points="1435,1203 1336,1204 1339,1298 1396,1288 1430,1255 " />
<polygon class="Door" fill="#F6BD0F" id="37" transcription="" points="1285,1152 1288,1007 1181,1007 1182,1059 1200,1113 1240,1145 " />
<polygon class="Door" fill="#F6BD0F" id="38" transcription="" points="1350,1141 1348,1009 1446,1010 1447,1055 1427,1115 1383,1137 " />
<polygon class="Wall" fill="#AFD8F8" id="39" transcription="" points="1323,1200 1345,1199 1347,808 1322,809 " />
<polygon class="Window" fill="#8BBA00" id="40" transcription="" points="765,1735 823,1735 820,1879 765,1879 " />
<polygon class="Window" fill="#8BBA00" id="41" transcription="" points="765,1176 885,1176 863,1232 838,1245 871,1265 890,1315 815,1314 815,1384 763,1384 " />
<polygon class="Room" fill="#FF8E46" id="42" transcription="" points="1350,840 1353,1002 1688,1002 1686,840 " />
<polygon class="Room" fill="#FF8E46" id="43" transcription="" points="819,1057 819,1610 1318,1619 1318,1055 " />
<polygon class="Room" fill="#FF8E46" id="44" transcription="" points="1666,1057 1668,1527 1348,1525 1355,1055 " />
<polygon class="Room" fill="#FF8E46" id="45" transcription="" points="821,1636 817,2024 1193,2026 1186,1638 " />
<polygon class="Room" fill="#FF8E46" id="46" transcription="" points="1673,1760 1673,2071 1244,2075 1244,2020 1227,2020 1229,1757 " />
<polygon class="Room" fill="#FF8E46" id="47" transcription="" points="1673,2095 1671,2364 1244,2366 1244,2092 " />
<polygon class="Room" fill="#FF8E46" id="48" transcription="" points="1668,1548 1668,1738 1444,1740 1444,1646 1496,1649 1496,1544 " />
<polygon class="Room" fill="#FF8E46" id="49" transcription="" points="1202.5,1651 1209.5,1740 1435.5,1738 1437.5,1651 " />
<polygon class="Room" fill="#FF8E46" id="50" transcription="" points="1349,1543 1474,1548 1476,1633 1350,1635 " />
<relation type="incident" objects="0,4"/>
<relation type="incident" objects="39,0"/>
<relation type="incident" objects="2,4"/>
<relation type="incident" objects="3,4"/>
<relation type="incident" objects="2,38"/>
<relation type="incident" objects="39,38"/>
<relation type="incident" objects="1,38"/>
<relation type="incident" objects="37,1"/>
<relation type="incident" objects="39,36"/>
<relation type="incident" objects="36,18"/>
<relation type="incident" objects="3,35"/>
<relation type="incident" objects="35,6"/>
<relation type="incident" objects="18,25"/>
<relation type="incident" objects="25,6"/>
<relation type="incident" objects="6,34"/>
<relation type="incident" objects="34,7"/>
<relation type="incident" objects="25,23"/>
<relation type="incident" objects="24,23"/>
<relation type="incident" objects="24,30"/>
<relation type="incident" objects="31,24"/>
<relation type="incident" objects="18,31"/>
<relation type="incident" objects="30,21"/>
<relation type="incident" objects="21,7"/>
<relation type="incident" objects="7,28"/>
<relation type="incident" objects="8,28"/>
<relation type="incident" objects="8,9"/>
<relation type="incident" objects="9,10"/>
<relation type="incident" objects="10,27"/>
<relation type="incident" objects="15,16"/>
<relation type="incident" objects="27,15"/>
<relation type="incident" objects="16,14"/>
<relation type="incident" objects="14,40"/>
<relation type="incident" objects="40,13"/>
<relation type="incident" objects="13,41"/>
<relation type="incident" objects="41,12"/>
<relation type="incident" objects="12,11"/>
<relation type="incident" objects="11,37"/>
<relation type="incident" objects="1,39"/>
<relation type="incident" objects="13,26"/>
<relation type="incident" objects="26,19"/>
<relation type="incident" objects="19,32"/>
<relation type="incident" objects="32,18"/>
<relation type="incident" objects="19,33"/>
<relation type="incident" objects="33,17"/>
<relation type="incident" objects="17,29"/>
<relation type="incident" objects="29,21"/>
<relation type="incident" objects="16,17"/>
<relation type="incident" objects="15,17"/>
<relation type="incident" objects="15,22"/>
<relation type="incident" objects="22,8"/>
<relation type="access" objects="42,38,44"/>
<relation type="access" objects="44,36,43"/>
<relation type="access" objects="43,32,49"/>
<relation type="access" objects="49,33,45"/>
<relation type="access" objects="50,31,49"/>
<relation type="access" objects="49,30,48"/>
<relation type="access" objects="49,29,46"/>
<relation type="access" objects="43,37,43"/>
<relation type="access" objects="47,27,47"/>
<relation type="neighbour" objects="42,44"/>
<relation type="neighbour" objects="44,43"/>
<relation type="neighbour" objects="43,45"/>
<relation type="neighbour" objects="45,49"/>
<relation type="neighbour" objects="49,43"/>
<relation type="neighbour" objects="43,50"/>
<relation type="neighbour" objects="50,44"/>
<relation type="neighbour" objects="50,49"/>
<relation type="neighbour" objects="50,48"/>
<relation type="neighbour" objects="48,44"/>
<relation type="neighbour" objects="48,49"/>
<relation type="neighbour" objects="48,46"/>
<relation type="neighbour" objects="46,45"/>
<relation type="neighbour" objects="46,47"/>
<relation type="outerP" objects="11,37,1,39,0,4,3,35,6,34,7,28,8,9,10,27,15,16,14,40,13,41,12"/>
<relation type="surround" objects="0,4,2,38,39,0,42"/>
<relation type="surround" objects="11,37,1,39,36,18,32,26,13,41,12,11,43"/>
<relation type="surround" objects="38,2,3,35,6,25,18,36,39,38,44"/>
<relation type="surround" objects="25,34,7,21,30,24,23,25,48"/>
<relation type="surround" objects="25,23,24,31,18,25,50"/>
<relation type="surround" objects="26,33,17,16,14,40,13,26,45"/>
<relation type="surround" objects="19,32,18,31,24,30,21,29,17,33,19,49"/>
<relation type="surround" objects="29,21,7,28,8,22,17,29,46"/>
<relation type="surround" objects="22,8,9,10,27,22,47"/>
</svg>