<?xml version="1.0" encoding="UTF-8"?><!DOCTYPE svg PUBLIC "-//W3C//DTD SVG 1.1//EN" "http://www.w3.org/Graphics/SVG/1.1/DTD/svg11.dtd">
<svg xmlns="http://www.w3.org/2000/svg" version="1.1">
<width>2479</width>
<height>3508</height>
<nclasslabel>50</nclasslabel>
<nclassappear>6</nclassappear>
<class>Bidet-1</class>
<class>Bidet-2</class>
<class>Bidet-3</class>
<class>Bidet-4</class>
<class>Door</class>
<class>Door-1</class>
<class>Door-23</class>
<class>Oven-1</class>
<class>Oven-2</class>
<class>Oven-3</class>
<class>Oven-4</class>
<class>Parking</class>
<class>Roof</class>
<class>Room</class>
<class>Separation</class>
<class>Sink-1</class>
<class>Sink-11</class>
<class>Sink-12</class>
<class>Sink-13</class>
<class>Sink-14</class>
<class>Sink-2</class>
<class>Sink-3</class>
<class>Sink-4</class>
<class>Sink-5</class>
<class>Sink-6</class>
<class>Sofa-1</class>
<class>Sofa-3</class>
<class>Sofa-4</class>
<class>Sofa-5</class>
<class>Sofa-6</class>
<class>Sofa-7</class>
<class>Sofa-8</class>
<class>Sofa-9</class>
<class>Stairs-1</class>
<class>Table-1</class>
<class>Table-2</class>
<class>Table-3</class>
<class>Table-4</class>
<class>Table-5</class>
<class>Table-6</class>
<class>Table-7</class>
<class>Text</class>
<class>Tub-1</class>
<class>Tub-3</class>
<class>TV-1</class>
<class>TV-2</class>
<class>Wall</class>
<class>Wall-1</class>
<class>Wallieee</class>
<class>Window</class>
<polygon class="Wall" fill="#AFD8F8" id="0" transcription="" points="361,1594 404,1594 405,1456 361,1458 " />
<polygon class="Wall" fill="#AFD8F8" id="1" transcription="" points="361,1416 361,1459 872,1459 871,1416 " />
<polygon class="Wall" fill="#AFD8F8" id="2" transcription="" points="404,2272 404,2315 549,2314 549,2272 " />
<polygon class="Wall" fill="#AFD8F8" id="3" transcription="" points="360,1737 405,1734 404,2314 360,2314 " />
<polygon class="Wall" fill="#AFD8F8" id="4" transcription="" points="693,2273 693,2314 993,2315 993,2273 " />
<polygon class="Wall" fill="#AFD8F8" id="5" transcription="" points="1035,1889 1036,1896 1264,1896 1264,1889 " />
<polygon class="Wall" fill="#AFD8F8" id="6" transcription="" points="935,1897 935,1889 848,1889 842,1896 " />
<polygon class="Wall" fill="#AFD8F8" id="7" transcription="" points="1136,2272 1136,2314 1561,2314 1561,2273 " />
<polygon class="Wall" fill="#AFD8F8" id="8" transcription="" points="1271,1889 1264,1889 1264,2271 1272,2271 " />
<polygon class="Wall" fill="#AFD8F8" id="9" transcription="" points="1774,2273 1773,2314 1992,2314 1992,2272 " />
<polygon class="Wall" fill="#AFD8F8" id="10" transcription="" points="1990,2060 2034,2059 2034,2314 1990,2314 " />
<polygon class="Wall" fill="#AFD8F8" id="11" transcription="" points="1991,1919 2033,1919 2034,1605 1991,1605 " />
<polygon class="Wall" fill="#AFD8F8" id="12" transcription="" points="1992,1465 2034,1464 2033,1313 1991,1312 " />
<polygon class="Wall" fill="#AFD8F8" id="13" transcription="" points="2009,1198 2034,1198 2033,1287 2009,1287 " />
<polygon class="Wall" fill="#AFD8F8" id="14" transcription="" points="1413,1287 1413,1311 2033,1312 2033,1287 " />
<polygon class="Wall" fill="#AFD8F8" id="15" transcription="" points="2010,1126 2033,1126 2034,793 2008,792 " />
<polygon class="Wall" fill="#AFD8F8" id="16" transcription="" points="1297,938 1268,940 1271,792 1297,792 " />
<polygon class="Wall" fill="#AFD8F8" id="17" transcription="" points="2034,768 2034,792 1271,793 1271,767 " />
<polygon class="Wall" fill="#AFD8F8" id="18" transcription="" points="1298,1226 1269,1223 1269,1291 1300,1293 " />
<polygon class="Wall" fill="#AFD8F8" id="19" transcription="" points="1270,1369 1270,1286 1312,1286 1313,1369 " />
<polygon class="Wall" fill="#AFD8F8" id="20" transcription="" points="1270,1441 1270,1533 1312,1533 1312,1440 " />
<polygon class="Wall" fill="#AFD8F8" id="21" transcription="" points="1258,1576 1258,1534 1312,1533 1313,1577 " />
<polygon class="Wall" fill="#AFD8F8" id="22" transcription="" points="1278,1675 1271,1675 1271,1576 1278,1576 " />
<polygon class="Wall" fill="#AFD8F8" id="23" transcription="" points="1495,1529 1502,1529 1501,1674 1496,1674 " />
<polygon class="Wall" fill="#AFD8F8" id="24" transcription="" points="1271,1676 1270,1683 1501,1683 1501,1675 " />
<polygon class="Wall" fill="#AFD8F8" id="25" transcription="" points="1495,1426 1501,1426 1501,1369 1501,1312 1495,1312 " />
<polygon class="Wall" fill="#AFD8F8" id="26" transcription="" points="940,1415 942,1459 1034,1459 1033,1414 " />
<polygon class="Wall" fill="#AFD8F8" id="27" transcription="" points="1077,1532 1035,1532 1033,1416 1076,1416 " />
<polygon class="Wall" fill="#AFD8F8" id="28" transcription="" points="1084,1578 1084,1532 1035,1532 1035,1577 " />
<polygon class="Wall" fill="#AFD8F8" id="29" transcription="" points="945,1569 947,1578 1035,1578 1035,1570 " />
<polygon class="Wall" fill="#AFD8F8" id="30" transcription="" points="1130,1534 1154,1535 1153,1577 1130,1576 " />
<polygon class="Wall" fill="#AFD8F8" id="31" transcription="" points="1135,1600 1142,1600 1142,1576 1135,1577 " />
<polygon class="Wall" fill="#AFD8F8" id="32" transcription="" points="740,1888 741,1896 404,1896 404,1888 " />
<polygon class="Wall" fill="#AFD8F8" id="33" transcription="" points="839,1886 848,1887 847,2272 839,2272 " />
<polygon class="Wall" fill="#AFD8F8" id="34" transcription="" points="733,1782 742,1782 742,1458 732,1458 " />
<polygon class="Wall" fill="#AFD8F8" id="35" transcription="" points="947,1788 940,1788 939,1570 947,1570 " />
<polygon class="Wall" fill="#AFD8F8" id="36" transcription="" points="1135,1699 1142,1699 1142,1789 1136,1790 " />
<polygon class="Wall" fill="#AFD8F8" id="37" transcription="" points="840,1783 840,1791 733,1790 733,1782 " />
<polygon class="Wall" fill="#AFD8F8" id="38" transcription="" points="1135,1705 1135,1712 946,1712 946,1706 " />
<polygon class="Window" fill="#F6BD0F" id="39" transcription="" points="2003,1128 2039,1128 2039,1198 2004,1201 " />
<polygon class="Window" fill="#F6BD0F" id="40" transcription="" points="1986,1466 2037,1465 2040,1605 1988,1607 " />
<polygon class="Window" fill="#F6BD0F" id="41" transcription="" points="1921,1923 2036,1922 2039,2061 1921,2056 1926,2008 1961,1991 1929,1964 " />
<polygon class="Window" fill="#F6BD0F" id="42" transcription="" points="1771,2270 1772,2317 1558,2316 1561,2270 " />
<polygon class="Window" fill="#F6BD0F" id="43" transcription="" points="992,2266 995,2318 1136,2320 1134,2265 " />
<polygon class="Window" fill="#F6BD0F" id="44" transcription="" points="550,2267 550,2318 691,2318 694,2268 " />
<polygon class="Door" fill="#8BBA00" id="45" transcription="" points="835,1989 839,1893 742,1891 755,1952 793,1979 " />
<polygon class="Window" fill="#F6BD0F" id="46" transcription="" points="409,1592 358,1593 357,1735 406,1739 " />
<polygon class="Window" fill="#F6BD0F" id="47" transcription="" points="872,1466 942,1460 941,1413 872,1413 " />
<polygon class="Window" fill="#F6BD0F" id="48" transcription="" points="1085,1580 1130,1581 1130,1531 1083,1529 " />
<polygon class="Door" fill="#8BBA00" id="49" transcription="" points="1258,1681 1258,1532 1153,1533 1153,1577 1165,1632 1207,1671 " />
<polygon class="Door" fill="#8BBA00" id="50" transcription="" points="1184,1683 1128,1583 1138,1697 1163,1698 " />
<polygon class="Window" fill="#F6BD0F" id="51" transcription="" points="1316,1444 1266,1441 1266,1373 1314,1371 " />
<polygon class="Door" fill="#8BBA00" id="52" transcription="" points="1320,1401 1317,1289 1413,1288 1416,1321 1393,1370 1356,1393 " />
<polygon class="Parking" fill="#FF8E46" id="53" transcription="" points="1307,938 1255,936 1255,1227 1305,1224 " />
<polygon class="Room" fill="#008E8E" id="54" transcription="" points="1301,795 1299,1282 2004,1283 2003,798 " />
<polygon class="Door" fill="#8BBA00" id="55" transcription="" points="1407,1523 1502,1525 1501,1431 1456,1438 1417,1475 " />
<polygon class="Door" fill="#8BBA00" id="56" transcription="" points="935,1692 938,1788 842,1792 848,1748 884,1705 " />
<polygon class="Door" fill="#8BBA00" id="57" transcription="" points="942,1986 937,1893 1035,1890 1028,1929 990,1972 " />
<polygon class="Door" fill="#8BBA00" id="58" transcription="" points="641,1887 740,1888 741,1791 686,1800 650,1844 " />
<polygon class="Room" fill="#008E8E" id="59" transcription="" points="1492,1669.5 1282,1668.5 1282,1579.5 1316,1578.5 1319,1319.5 1492,1314.5 " />
<polygon class="Room" fill="#008E8E" id="60" transcription="" points="1503.5,1677 1986.5,1675 1985.5,1314 1502.5,1315 " />
<polygon class="Room" fill="#008E8E" id="61" transcription="" points="1276,2266.5 1987,2264.5 1986,1679.5 1286,1688 " />
<polygon class="Room" fill="#008E8E" id="62" transcription="" points="1271,1785 1146,1785 1145,1582 1266,1582 " />
<polygon class="Room" fill="#008E8E" id="63" transcription="" points="951,1581 950,1701 1133,1700 1135,1583 " />
<polygon class="Room" fill="#008E8E" id="64" transcription="" points="744,1794.5 743,1885.5 1267,1889 1272,1795 1133,1790.5 1130,1715.5 950,1715.5 950,1791.5 " />
<polygon class="Room" fill="#008E8E" id="65" transcription="" points="1259,1901 1258,2267 850,2267 851,1903 " />
<polygon class="Room" fill="#008E8E" id="66" transcription="" points="745.5,1464 744.5,1778 932.5,1777 933.5,1567 1030.5,1563 1028.5,1464 " />
<polygon class="Room" fill="#008E8E" id="67" transcription="" points="406,1461 406,1881 729,1883 728,1464 " />
<polygon class="Room" fill="#008E8E" id="68" transcription="" points="409,2267 834,2267 833,1899 408,1898 " />
<polygon class="Separation" fill="#D64646" id="69" transcription="" points="1266,1675 1283,1675 1283,1891 1266,1891 " />
<polygon class="Separation" fill="#D64646" id="70" transcription="" points="1142,1779 1261,1779 1261,1797 1142,1797 " />
<polygon class="Separation" fill="#D64646" id="71" transcription="" points="1501,1670 1987,1670 1986,1685 1501,1686 " />
<relation type="incident" objects="17,15"/>
<relation type="incident" objects="15,39"/>
<relation type="incident" objects="39,13"/>
<relation type="incident" objects="13,14"/>
<relation type="incident" objects="14,12"/>
<relation type="incident" objects="12,40"/>
<relation type="incident" objects="40,11"/>
<relation type="incident" objects="11,41"/>
<relation type="incident" objects="41,10"/>
<relation type="incident" objects="10,9"/>
<relation type="incident" objects="9,42"/>
<relation type="incident" objects="42,7"/>
<relation type="incident" objects="7,43"/>
<relation type="incident" objects="43,4"/>
<relation type="incident" objects="4,44"/>
<relation type="incident" objects="44,2"/>
<relation type="incident" objects="2,3"/>
<relation type="incident" objects="3,46"/>
<relation type="incident" objects="46,0"/>
<relation type="incident" objects="0,1"/>
<relation type="incident" objects="1,47"/>
<relation type="incident" objects="47,26"/>
<relation type="incident" objects="26,27"/>
<relation type="incident" objects="27,28"/>
<relation type="incident" objects="28,48"/>
<relation type="incident" objects="48,30"/>
<relation type="incident" objects="30,49"/>
<relation type="incident" objects="49,21"/>
<relation type="incident" objects="21,20"/>
<relation type="incident" objects="20,51"/>
<relation type="incident" objects="51,19"/>
<relation type="incident" objects="19,18"/>
<relation type="incident" objects="18,53"/>
<relation type="incident" objects="53,16"/>
<relation type="incident" objects="16,17"/>
<relation type="incident" objects="18,52"/>
<relation type="incident" objects="52,19"/>
<relation type="incident" objects="52,14"/>
<relation type="incident" objects="14,25"/>
<relation type="incident" objects="25,55"/>
<relation type="incident" objects="55,23"/>
<relation type="incident" objects="23,24"/>
<relation type="incident" objects="24,22"/>
<relation type="incident" objects="22,21"/>
<relation type="incident" objects="1,34"/>
<relation type="incident" objects="34,37"/>
<relation type="incident" objects="37,56"/>
<relation type="incident" objects="56,35"/>
<relation type="incident" objects="35,29"/>
<relation type="incident" objects="29,28"/>
<relation type="incident" objects="30,31"/>
<relation type="incident" objects="31,50"/>
<relation type="incident" objects="50,38"/>
<relation type="incident" objects="50,36"/>
<relation type="incident" objects="36,38"/>
<relation type="incident" objects="38,35"/>
<relation type="incident" objects="34,58"/>
<relation type="incident" objects="58,37"/>
<relation type="incident" objects="58,32"/>
<relation type="incident" objects="32,45"/>
<relation type="incident" objects="32,3"/>
<relation type="incident" objects="45,33"/>
<relation type="incident" objects="33,4"/>
<relation type="incident" objects="33,6"/>
<relation type="incident" objects="6,57"/>
<relation type="incident" objects="57,5"/>
<relation type="incident" objects="5,8"/>
<relation type="incident" objects="8,7"/>
<relation type="neighbour" objects="54,59"/>
<relation type="neighbour" objects="54,60"/>
<relation type="neighbour" objects="61,59"/>
<relation type="neighbour" objects="61,60"/>
<relation type="neighbour" objects="59,62"/>
<relation type="neighbour" objects="62,61"/>
<relation type="neighbour" objects="64,61"/>
<relation type="neighbour" objects="61,65"/>
<relation type="neighbour" objects="65,68"/>
<relation type="neighbour" objects="68,67"/>
<relation type="neighbour" objects="65,64"/>
<relation type="neighbour" objects="64,68"/>
<relation type="neighbour" objects="63,64"/>
<relation type="neighbour" objects="64,62"/>
<relation type="neighbour" objects="66,64"/>
<relation type="neighbour" objects="67,64"/>
<relation type="neighbour" objects="67,66"/>
<relation type="neighbour" objects="66,63"/>
<relation type="neighbour" objects="63,62"/>
<relation type="access" objects="54,52,59"/>
<relation type="access" objects="64,58,67"/>
<relation type="access" objects="64,45,68"/>
<relation type="access" objects="64,57,65"/>
<relation type="access" objects="62,49,62"/>
<relation type="incident" objects="70,36"/>
<relation type="incident" objects="70,69"/>
<relation type="incident" objects="69,22"/>
<relation type="incident" objects="69,24"/>
<relation type="incident" objects="69,8"/>
<relation type="incident" objects="69,5"/>
<relation type="access" objects="59,55,60"/>
<relation type="access" objects="61,71,60"/>
<relation type="incident" objects="71,24"/>
<relation type="incident" objects="71,23"/>
<relation type="incident" objects="71,11"/>
<relation type="access" objects="64,69,61"/>
<relation type="access" objects="62,69,61"/>
<relation type="access" objects="63,50,62"/>
<relation type="access" objects="64,56,66"/>
<relation type="outerP" objects="17,15,39,13,12,12,40,11,41,10,9,42,7,43,4,44,2,3,46,0,1,47,26,27,28,48,30,49,21,20,51,19,18,53,16"/>
<relation type="surround" objects="17,15,39,13,14,52,18,53,16,17,54"/>
<relation type="surround" objects="52,14,25,55,23,24,22,21,20,51,19,52,59"/>
<relation type="surround" objects="14,12,40,11,71,23,55,25,14,60"/>
<relation type="surround" objects="24,71,11,41,10,9,42,7,8,69,24,61"/>
<relation type="surround" objects="30,49,22,69,70,36,50,31,30,62"/>
<relation type="surround" objects="29,28,48,30,50,38,35,29,63"/>
<relation type="surround" objects="37,56,35,38,36,70,69,5,57,6,45,58,37,64"/>
<relation type="surround" objects="1,47,26,27,28,29,35,56,37,34,1,66"/>
<relation type="surround" objects="1,34,58,32,3,46,0,1,67"/>
<relation type="surround" objects="32,45,33,4,44,2,3,32,68"/>
<relation type="surround" objects="6,57,5,8,7,43,4,33,6,65"/>
</svg>