<?xml version="1.0" encoding="UTF-8"?><!DOCTYPE svg PUBLIC "-//W3C//DTD SVG 1.1//EN" "http://www.w3.org/Graphics/SVG/1.1/DTD/svg11.dtd">
<svg xmlns="http://www.w3.org/2000/svg" version="1.1">
<width>2480</width>
<height>3508</height>
<nclasslabel>50</nclasslabel>
<nclassappear>4</nclassappear>
<class>Bidet-1</class>
<class>Bidet-2</class>
<class>Bidet-3</class>
<class>Bidet-4</class>
<class>Door</class>
<class>Door-1</class>
<class>Door-23</class>
<class>Oven-1</class>
<class>Oven-2</class>
<class>Oven-3</class>
<class>Oven-4</class>
<class>Parking</class>
<class>Roof</class>
<class>Room</class>
<class>Separation</class>
<class>Sink-1</class>
<class>Sink-11</class>
<class>Sink-12</class>
<class>Sink-13</class>
<class>Sink-14</class>
<class>Sink-2</class>
<class>Sink-3</class>
<class>Sink-4</class>
<class>Sink-5</class>
<class>Sink-6</class>
<class>Sofa-1</class>
<class>Sofa-3</class>
<class>Sofa-4</class>
<class>Sofa-5</class>
<class>Sofa-6</class>
<class>Sofa-7</class>
<class>Sofa-8</class>
<class>Sofa-9</class>
<class>Stairs-1</class>
<class>Table-1</class>
<class>Table-2</class>
<class>Table-3</class>
<class>Table-4</class>
<class>Table-5</class>
<class>Table-6</class>
<class>Table-7</class>
<class>Text</class>
<class>Tub-1</class>
<class>Tub-3</class>
<class>TV-1</class>
<class>TV-2</class>
<class>Wall</class>
<class>Wall-1</class>
<class>Wallieee</class>
<class>Window</class>
<polygon class="Wall" fill="#AFD8F8" id="0" transcription="" points="519,1332 478,1332 478,1492 519,1492 " />
<polygon class="Wall" fill="#AFD8F8" id="1" transcription="" points="520,1480 520,1485 689,1485 689,1479 " />
<polygon class="Wall" fill="#AFD8F8" id="2" transcription="" points="519,1574 477,1574 477,1627 519,1627 " />
<polygon class="Wall" fill="#AFD8F8" id="3" transcription="" points="519,1733 477,1733 477,1910 519,1910 " />
<polygon class="Wall" fill="#AFD8F8" id="4" transcription="" points="519,1585 519,1591 785,1591 785,1586 " />
<polygon class="Wall" fill="#AFD8F8" id="5" transcription="" points="690,1410 689,1486 697,1486 697,1409 " />
<polygon class="Wall" fill="#AFD8F8" id="6" transcription="" points="778,1485 778,1409 784,1409 784,1485 " />
<polygon class="Wall" fill="#AFD8F8" id="7" transcription="" points="519,1178 477,1178 477,1102 520,1102 " />
<polygon class="Wall" fill="#AFD8F8" id="8" transcription="" points="502,1055 471,1055 471,1084 502,1084 " />
<polygon class="Wall" fill="#AFD8F8" id="9" transcription="" points="1140,1102 1140,1060 477,1060 477,1102 " />
<polygon class="Wall" fill="#AFD8F8" id="10" transcription="" points="1222,1060 1222,1080.5 1222,1101 1617,1101 1618,1060 " />
<polygon class="Wall" fill="#AFD8F8" id="11" transcription="" points="1281,1380 1280,1102 1287,1102 1286,1380 " />
<polygon class="Wall" fill="#AFD8F8" id="12" transcription="" points="1075,1373 1075,1380 1098,1380 1180,1380 1180,1373 " />
<polygon class="Wall" fill="#AFD8F8" id="13" transcription="" points="1069,1479 1069,1485 1181,1485 1181,1479 " />
<polygon class="Wall" fill="#AFD8F8" id="14" transcription="" points="1098,1380 1104,1380 1103,1479 1097,1479 " />
<polygon class="Wall" fill="#AFD8F8" id="15" transcription="" points="968,1479 968,1486 892,1486 892,1479 " />
<polygon class="Wall" fill="#AFD8F8" id="16" transcription="" points="886,1102 892,1102 892,1486 886,1486 " />
<polygon class="Wall" fill="#AFD8F8" id="17" transcription="" points="1069,1380 1067,1101 1075,1101 1075,1380 " />
<polygon class="Wall" fill="#AFD8F8" id="18" transcription="" points="1618,1391 1660,1391 1658,1574 1617,1574 " />
<polygon class="Wall" fill="#AFD8F8" id="19" transcription="" points="1617,1479 1618,1486 1279,1485 1279,1479 " />
<polygon class="Wall" fill="#AFD8F8" id="20" transcription="" points="1617,1728 1659,1728 1658,2199 1617,2199 " />
<polygon class="Wall" fill="#AFD8F8" id="21" transcription="" points="1511,2200 1512,2242 1659,2241 1658,2199 " />
<polygon class="Wall" fill="#AFD8F8" id="22" transcription="" points="1634,2218 1665,2218 1665,2248 1634,2248 " />
<polygon class="Wall" fill="#AFD8F8" id="23" transcription="" points="1310,2200 1310,2241 944,2241 944,2199 " />
<polygon class="Wall" fill="#AFD8F8" id="24" transcription="" points="1204,1999 1205,2199 1209,2199 1210,1999 " />
<polygon class="Wall" fill="#AFD8F8" id="25" transcription="" points="885,1586 885,1592 1286,1591 1286,1585 " />
<polygon class="Wall" fill="#AFD8F8" id="26" transcription="" points="1204,1899 1203,1591 1209,1591 1209,1899 " />
<polygon class="Wall" fill="#AFD8F8" id="27" transcription="" points="1209,1816 1209,1822 1617,1822 1617,1816 " />
<polygon class="Wall" fill="#AFD8F8" id="28" transcription="" points="1659,1236 1616,1237 1618,1060 1660,1060 " />
<polygon class="Wall" fill="#AFD8F8" id="29" transcription="" points="1635,1085 1665,1086 1666,1055 1635,1054 " />
<polygon class="Wall" fill="#AFD8F8" id="30" transcription="" points="520,2201 520,2241 743,2242 743,2201 " />
<polygon class="Wall" fill="#AFD8F8" id="31" transcription="" points="478,2065 519,2065 520,2242 478,2242 " />
<polygon class="Wall" fill="#AFD8F8" id="32" transcription="" points="501,2217 471,2217 471,2248 502,2248 " />
<polygon class="Wall" fill="#AFD8F8" id="33" transcription="" points="690,1403 690,1410 784,1409 785,1402 " />
<polygon class="Window" fill="#F6BD0F" id="34" transcription="" points="555,1245 517,1181 471,1180 470,1330 518,1331 554,1265 542,1253 " />
<polygon class="Window" fill="#F6BD0F" id="35" transcription="" points="557,1560 522,1492 471,1494 472,1574 516,1572 538,1568 " />
<polygon class="Door" fill="#8BBA00" id="36" transcription="" points="616,1631 475,1625 475,1732 522,1731 582,1714 612,1671 " />
<polygon class="Window" fill="#F6BD0F" id="37" transcription="" points="555,1977 520,1912 471,1914 471,2066 522,2064 558,1999 541,1987 " />
<polygon class="Window" fill="#F6BD0F" id="38" transcription="" points="748,2103 747,2241 941,2241 939,2101 869,2125 843,2170 813,2119 " />
<polygon class="Window" fill="#F6BD0F" id="39" transcription="" points="1506,2102 1508,2242 1312,2241 1314,2103 1379,2122 1410,2172 1438,2124 " />
<polygon class="Window" fill="#F6BD0F" id="40" transcription="" points="1581,1661 1616,1727 1665,1727 1663,1577 1614,1576 1581,1641 1594,1650 " />
<polygon class="Window" fill="#F6BD0F" id="41" transcription="" points="1581,1305 1619,1242 1662,1240 1665,1390 1616,1390 1580,1322 1596,1316 " />
<polygon class="Window" fill="#F6BD0F" id="42" transcription="" points="1151,1139 1219,1100 1222,1054 1144,1055 1141,1100 1143,1120 " />
<polygon class="Door" fill="#8BBA00" id="43" transcription="" points="1275,1282 1277,1376 1184,1377 1192,1326 1230,1288 " />
<polygon class="Door" fill="#8BBA00" id="44" transcription="" points="1376,1475 1280,1477 1278,1380 1334,1392 1370,1432 " />
<polygon class="Door" fill="#8BBA00" id="45" transcription="" points="1378,1487 1280,1486 1283,1583 1338,1573 1372,1535 " />
<polygon class="Door" fill="#8BBA00" id="46" transcription="" points="1064,1385 1064,1481 970,1483 979,1429 1011,1398 " />
<polygon class="Door" fill="#8BBA00" id="47" transcription="" points="881,1389 881,1486 783,1486 793,1434 835,1397 " />
<polygon class="Door" fill="#8BBA00" id="48" transcription="" points="785,1583 689,1583 686,1485 732,1495 780,1540 " />
<polygon class="Door" fill="#8BBA00" id="49" transcription="" points="879,1680 884,1588 785,1585 799,1644 830,1672 " />
<polygon class="Door" fill="#8BBA00" id="50" transcription="" points="1300,1902 1204,1903 1206,1999 1249,1987 1295,1953 " />
<polygon class="Room" fill="#FF8E46" id="51" transcription="" points="524,1104 523,1473 685,1475 685,1400 789,1399 786,1479 876,1479 881,1106 " />
<polygon class="Room" fill="#FF8E46" id="52" transcription="" points="895.5,1106 896.5,1472 1057.5,1477 1097,1473 1093,1384 1065,1383 1062.5,1108 " />
<polygon class="Room" fill="#FF8E46" id="53" transcription="" points="1274,1106 1278,1369 1080,1368 1081,1105 " />
<polygon class="Room" fill="#FF8E46" id="54" transcription="" points="1289,1105 1287,1471 1614,1474 1615,1104 " />
<polygon class="Room" fill="#FF8E46" id="55" transcription="" points="1615,1827.5 1612,2192.5 1213,2192.5 1215,1826.5 " />
<polygon class="Room" fill="#FF8E46" id="56" transcription="" points="1278.5,1380.5 1281.5,1579.5 692.5,1580.5 696.5,1412.5 772.5,1412.5 774.5,1491.5 1186.5,1490.5 1189.5,1474.5 1107.5,1473.5 1109.5,1379.5 " />
<polygon class="Room" fill="#FF8E46" id="57" transcription="" points="685,1491 686,1580 522,1578 527,1491 " />
<polygon class="Room" fill="#FF8E46" id="58" transcription="" points="1202,1597 1199,2193 523,2193 523,1595 " />
<polygon class="Room" fill="#FF8E46" id="59" transcription="" points="1614,1492 1613,1811 1213,1811 1211,1594 1291,1587 1291,1491 " />
<relation type="incident" objects="35,0"/>
<relation type="incident" objects="34,0"/>
<relation type="incident" objects="7,34"/>
<relation type="incident" objects="9,7"/>
<relation type="incident" objects="42,9"/>
<relation type="incident" objects="10,42"/>
<relation type="incident" objects="28,10"/>
<relation type="incident" objects="41,28"/>
<relation type="incident" objects="18,41"/>
<relation type="incident" objects="40,18"/>
<relation type="incident" objects="20,40"/>
<relation type="incident" objects="21,20"/>
<relation type="incident" objects="39,21"/>
<relation type="incident" objects="23,39"/>
<relation type="incident" objects="38,23"/>
<relation type="incident" objects="30,38"/>
<relation type="incident" objects="31,30"/>
<relation type="incident" objects="37,31"/>
<relation type="incident" objects="3,37"/>
<relation type="incident" objects="36,3"/>
<relation type="incident" objects="2,36"/>
<relation type="incident" objects="35,2"/>
<relation type="access" objects="58,50,55"/>
<relation type="access" objects="58,49,56"/>
<relation type="access" objects="56,45,59"/>
<relation type="access" objects="56,43,53"/>
<relation type="access" objects="56,44,54"/>
<relation type="access" objects="56,46,52"/>
<relation type="access" objects="56,47,51"/>
<relation type="access" objects="56,48,57"/>
<relation type="neighbour" objects="51,52"/>
<relation type="neighbour" objects="57,51"/>
<relation type="neighbour" objects="56,51"/>
<relation type="neighbour" objects="57,56"/>
<relation type="neighbour" objects="52,56"/>
<relation type="neighbour" objects="53,52"/>
<relation type="neighbour" objects="54,53"/>
<relation type="neighbour" objects="59,54"/>
<relation type="neighbour" objects="56,59"/>
<relation type="neighbour" objects="56,58"/>
<relation type="neighbour" objects="57,58"/>
<relation type="neighbour" objects="59,58"/>
<relation type="neighbour" objects="59,55"/>
<relation type="neighbour" objects="55,58"/>
<relation type="neighbour" objects="56,54"/>
<relation type="outerP" objects="9,42,10,28,41,18,40,20,21,39,23,38,30,31,37,3,36,2,35,0,34,7"/>
<relation type="incident" objects="9,42"/>
<relation type="incident" objects="42,10"/>
<relation type="incident" objects="10,28"/>
<relation type="incident" objects="28,41"/>
<relation type="incident" objects="41,18"/>
<relation type="incident" objects="18,40"/>
<relation type="incident" objects="40,20"/>
<relation type="incident" objects="20,21"/>
<relation type="incident" objects="21,39"/>
<relation type="incident" objects="39,23"/>
<relation type="incident" objects="23,38"/>
<relation type="incident" objects="38,30"/>
<relation type="incident" objects="30,31"/>
<relation type="incident" objects="31,37"/>
<relation type="incident" objects="3,37"/>
<relation type="incident" objects="3,36"/>
<relation type="incident" objects="36,2"/>
<relation type="incident" objects="2,35"/>
<relation type="incident" objects="35,0"/>
<relation type="incident" objects="0,34"/>
<relation type="incident" objects="34,7"/>
<relation type="incident" objects="7,9"/>
<relation type="incident" objects="9,16"/>
<relation type="incident" objects="16,47"/>
<relation type="incident" objects="47,6"/>
<relation type="incident" objects="6,33"/>
<relation type="incident" objects="33,5"/>
<relation type="incident" objects="5,1"/>
<relation type="incident" objects="1,0"/>
<relation type="incident" objects="16,15"/>
<relation type="incident" objects="46,15"/>
<relation type="incident" objects="46,13"/>
<relation type="incident" objects="13,14"/>
<relation type="incident" objects="14,12"/>
<relation type="incident" objects="12,17"/>
<relation type="incident" objects="17,9"/>
<relation type="incident" objects="12,43"/>
<relation type="incident" objects="43,11"/>
<relation type="incident" objects="11,10"/>
<relation type="incident" objects="11,44"/>
<relation type="incident" objects="18,19"/>
<relation type="incident" objects="19,44"/>
<relation type="incident" objects="19,45"/>
<relation type="incident" objects="45,25"/>
<relation type="incident" objects="25,49"/>
<relation type="incident" objects="49,4"/>
<relation type="incident" objects="4,2"/>
<relation type="incident" objects="4,48"/>
<relation type="incident" objects="48,1"/>
<relation type="incident" objects="48,5"/>
<relation type="incident" objects="25,26"/>
<relation type="incident" objects="26,27"/>
<relation type="incident" objects="27,20"/>
<relation type="incident" objects="23,24"/>
<relation type="incident" objects="24,50"/>
<relation type="incident" objects="26,50"/>
<relation type="neighbour" objects="51,52"/>
<relation type="neighbour" objects="52,53"/>
<relation type="neighbour" objects="53,54"/>
<relation type="neighbour" objects="54,59"/>
<relation type="neighbour" objects="59,55"/>
<relation type="neighbour" objects="55,58"/>
<relation type="neighbour" objects="58,57"/>
<relation type="neighbour" objects="57,51"/>
<relation type="neighbour" objects="56,57"/>
<relation type="neighbour" objects="56,58"/>
<relation type="neighbour" objects="56,59"/>
<relation type="neighbour" objects="56,54"/>
<relation type="neighbour" objects="56,53"/>
<relation type="neighbour" objects="56,52"/>
<relation type="neighbour" objects="56,51"/>
<relation type="neighbour" objects="59,58"/>
<relation type="access" objects="58,36,58"/>
<relation type="access" objects="58,50,55"/>
<relation type="access" objects="56,49,58"/>
<relation type="access" objects="57,48,56"/>
<relation type="access" objects="56,45,59"/>
<relation type="access" objects="56,44,54"/>
<relation type="access" objects="56,43,53"/>
<relation type="access" objects="56,46,52"/>
<relation type="access" objects="56,47,51"/>
<relation type="surround" objects="9,16,47,6,33,5,1,0,34,7,9,51"/>
<relation type="surround" objects="9,17,12,14,13,46,15,16,9,52"/>
<relation type="surround" objects="9,42,10,11,43,12,17,9,53"/>
<relation type="surround" objects="10,28,41,18,19,44,11,10,54"/>
<relation type="surround" objects="19,18,40,20,27,26,25,45,19,59"/>
<relation type="surround" objects="27,20,21,39,23,24,50,26,27,55"/>
<relation type="surround" objects="1,48,4,35,1,57"/>
<relation type="surround" objects="33,6,47,15,46,13,14,12,43,11,44,19,45,25,49,4,48,5,33,56"/>
<relation type="surround" objects="4,49,25,26,50,24,23,38,30,31,37,3,36,2,4,58"/>
</svg>