<?xml version="1.0" encoding="UTF-8"?><!DOCTYPE svg PUBLIC "-//W3C//DTD SVG 1.1//EN" "http://www.w3.org/Graphics/SVG/1.1/DTD/svg11.dtd">
<svg xmlns="http://www.w3.org/2000/svg" version="1.1">
<width>2479</width>
<height>3508</height>
<nclasslabel>50</nclasslabel>
<nclassappear>6</nclassappear>
<class>Bidet-1</class>
<class>Bidet-2</class>
<class>Bidet-3</class>
<class>Bidet-4</class>
<class>Door</class>
<class>Door-1</class>
<class>Door-23</class>
<class>Oven-1</class>
<class>Oven-2</class>
<class>Oven-3</class>
<class>Oven-4</class>
<class>Parking</class>
<class>Roof</class>
<class>Room</class>
<class>Separation</class>
<class>Sink-1</class>
<class>Sink-11</class>
<class>Sink-12</class>
<class>Sink-13</class>
<class>Sink-14</class>
<class>Sink-2</class>
<class>Sink-3</class>
<class>Sink-4</class>
<class>Sink-5</class>
<class>Sink-6</class>
<class>Sofa-1</class>
<class>Sofa-3</class>
<class>Sofa-4</class>
<class>Sofa-5</class>
<class>Sofa-6</class>
<class>Sofa-7</class>
<class>Sofa-8</class>
<class>Sofa-9</class>
<class>Stairs-1</class>
<class>Table-1</class>
<class>Table-2</class>
<class>Table-3</class>
<class>Table-4</class>
<class>Table-5</class>
<class>Table-6</class>
<class>Table-7</class>
<class>Text</class>
<class>Tub-1</class>
<class>Tub-3</class>
<class>TV-1</class>
<class>TV-2</class>
<class>Wall</class>
<class>Wall-1</class>
<class>Wallieee</class>
<class>Window</class>
<polygon class="Wall" fill="#AFD8F8" id="0" transcription="" points="208,613 614,614 613,639 208,637 " />
<polygon class="Wall" fill="#AFD8F8" id="1" transcription="" points="696,613 1126,613 1127,637 898,637 695,637 " />
<polygon class="Wall" fill="#AFD8F8" id="2" transcription="" points="961,992 1151,992 1152,1016 962,1015 " />
<polygon class="Wall" fill="#AFD8F8" id="3" transcription="" points="1110,1016 1152,1016 1152,1198 1108,1197 " />
<polygon class="Wall" fill="#AFD8F8" id="4" transcription="" points="1012,1199 1152,1199 1152,1241 1012,1240 " />
<polygon class="Wall" fill="#AFD8F8" id="5" transcription="" points="1306,1368 1834,1369 1834,1412 1305,1412 " />
<polygon class="Wall" fill="#AFD8F8" id="6" transcription="" points="1442,1742 1833,1741 1833,1748 1442,1748 " />
<polygon class="Wall" fill="#AFD8F8" id="7" transcription="" points="226,1682 696,1681 696,1689 226,1690 " />
<polygon class="Wall" fill="#AFD8F8" id="8" transcription="" points="318,2197 352,2230 322,2261 301,2239 " />
<polygon class="Wall" fill="#AFD8F8" id="9" transcription="" points="1128,667 1152,667 1152,613 1126,613 " />
<polygon class="Wall" fill="#AFD8F8" id="10" transcription="" points="1127,962 1151,962 1152,992 1128,991 " />
<polygon class="Wall" fill="#AFD8F8" id="11" transcription="" points="967,1252 1010,1252 1011,1197 967,1198 " />
<polygon class="Wall" fill="#AFD8F8" id="12" transcription="" points="703,1198 703,1205 860,1205 860,1198 " />
<polygon class="Wall" fill="#AFD8F8" id="13" transcription="" points="704,1015 696,1014 695,1245 704,1244 " />
<polygon class="Wall" fill="#AFD8F8" id="14" transcription="" points="861,1016 861,991 225,991 225,1016 " />
<polygon class="Wall" fill="#AFD8F8" id="15" transcription="" points="181,613 208,613 207,990 182,989 " />
<polygon class="Wall" fill="#AFD8F8" id="16" transcription="" points="183,1104 224,1104 226,992 182,991 " />
<polygon class="Wall" fill="#AFD8F8" id="17" transcription="" points="183,1439 224,1439 224,1257 182,1258 " />
<polygon class="Wall" fill="#AFD8F8" id="18" transcription="" points="702,1345 702,1352 223,1353 225,1345 " />
<polygon class="Wall" fill="#AFD8F8" id="19" transcription="" points="181,1594 225,1594 224,1847 182,1847 " />
<polygon class="Wall" fill="#AFD8F8" id="20" transcription="" points="225,2195 225,2239 301,2239 318,2196 " />
<polygon class="Wall" fill="#AFD8F8" id="21" transcription="" points="183,2036 225,2036 226,2238 183,2238 " />
<polygon class="Wall" fill="#AFD8F8" id="22" transcription="" points="1877,1369 1834,1369 1836,1487 1879,1487 " />
<polygon class="Wall" fill="#AFD8F8" id="23" transcription="" points="1702,2120 1701,2078 1834,2078 1833,2119 " />
<polygon class="Wall" fill="#AFD8F8" id="24" transcription="" points="1878,1642 1834,1642 1835,2120 1878,2121 " />
<polygon class="Wall" fill="#AFD8F8" id="25" transcription="" points="1440,1635 1447,1634 1447,1412 1439,1412 " />
<polygon class="Wall" fill="#AFD8F8" id="26" transcription="" points="967,1358 1009,1358 1010,1368 968,1368 " />
<polygon class="Wall" fill="#AFD8F8" id="27" transcription="" points="1015,1412 1015,1369 968,1369 968,1411 " />
<polygon class="Wall" fill="#AFD8F8" id="28" transcription="" points="975,1641 967,1641 968,1412 975,1413 " />
<polygon class="Wall" fill="#AFD8F8" id="29" transcription="" points="1075,1369 1075,1411 1221,1412 1221,1369 " />
<polygon class="Wall" fill="#AFD8F8" id="30" transcription="" points="1080,1635 1074,1633 1073,1412 1082,1412 " />
<polygon class="Wall" fill="#AFD8F8" id="31" transcription="" points="1333,1635 1334,1642 1446,1642 1447,1635 " />
<polygon class="Wall" fill="#AFD8F8" id="32" transcription="" points="1234,1635 1234,1642 1074,1641 1074,1635 " />
<polygon class="Wall" fill="#AFD8F8" id="33" transcription="" points="1328,2078 1329,2119 1547,2120 1547,2078 " />
<polygon class="Wall" fill="#AFD8F8" id="34" transcription="" points="1221,2119 1221,2078 1150,2078 1150,2119 " />
<polygon class="Wall" fill="#AFD8F8" id="35" transcription="" points="1332,1740 1341,1741 1341,2078 1332,2077 " />
<polygon class="Wall" fill="#AFD8F8" id="36" transcription="" points="975,1740 975,1749 1233,1748 1233,1741 " />
<polygon class="Wall" fill="#AFD8F8" id="37" transcription="" points="975,2077 967,2077 968,1741 975,1740 " />
<polygon class="Wall" fill="#AFD8F8" id="38" transcription="" points="1108,2085 1108,2078 967,2077 967,2086 " />
<polygon class="Wall" fill="#AFD8F8" id="39" transcription="" points="1108,2549 1153,2549 1151,2078 1109,2078 " />
<polygon class="Wall" fill="#AFD8F8" id="40" transcription="" points="696,1453 703,1453 703,1819 696,1818 " />
<polygon class="Wall" fill="#AFD8F8" id="41" transcription="" points="552,2430 520,2459 535,2475 580,2457 " />
<polygon class="Wall" fill="#AFD8F8" id="42" transcription="" points="579,2549 535,2550 536,2475 579,2458 " />
<polygon class="Wall" fill="#AFD8F8" id="43" transcription="" points="731,2551 731,2592 535,2594 535,2550 " />
<polygon class="Wall" fill="#AFD8F8" id="44" transcription="" points="1016,2549 1016,2592 1152,2592 1152,2548 " />
<polygon class="Window" fill="#F6BD0F" id="45" transcription="" points="627,681 693,641 693,605 617,603 613,642 " />
<polygon class="Parking" fill="#8BBA00" id="46" transcription="" points="1113,671 1116,956 1160,958 1164,667 " />
<polygon class="Window" fill="#F6BD0F" id="47" transcription="" points="260,1170 226,1106 177,1107 176,1258 224,1258 260,1190 241,1179 " />
<polygon class="Window" fill="#F6BD0F" id="48" transcription="" points="259,1506 223,1442 176,1440 176,1592 225,1590 259,1526 241,1514 " />
<polygon class="Window" fill="#F6BD0F" id="49" transcription="" points="176,1851 226,1851 229,2032 179,2032 " />
<polygon class="Window" fill="#F6BD0F" id="50" transcription="" points="358,2227 323,2263 514,2459 553,2418 " />
<polygon class="Window" fill="#F6BD0F" id="51" transcription="" points="732,2598 1017,2597 1017,2547 730,2547 " />
<polygon class="Window" fill="#F6BD0F" id="52" transcription="" points="1238,2030 1323,2078 1326,2125 1226,2125 1221,2078 " />
<polygon class="Window" fill="#F6BD0F" id="53" transcription="" points="1614,2043 1552,2078 1551,2121 1700,2122 1696,2070 1632,2042 1622,2054 " />
<polygon class="Window" fill="#F6BD0F" id="54" transcription="" points="1799,1557 1833,1487 1880,1485 1881,1639 1833,1638 1800,1574 1819,1561 " />
<polygon class="Window" fill="#F6BD0F" id="55" transcription="" points="1234,1446 1298,1407 1301,1362 1221,1363 1224,1407 " />
<polygon class="Window" fill="#F6BD0F" id="56" transcription="" points="1026,1435 1071,1405 1073,1365 1019,1365 1015,1409 " />
<polygon class="Door" fill="#FF8E46" id="57" transcription="" points="869,1256 1010,1255 1011,1359 964,1358 910,1341 874,1297 " />
<polygon class="Door" fill="#FF8E46" id="58" transcription="" points="869,1111 867,1204 964,1203 954,1158 909,1115 " />
<polygon class="Door" fill="#FF8E46" id="59" transcription="" points="872,1105 866,999 957,999 955,1046 919,1089 " />
<polygon class="Door" fill="#FF8E46" id="60" transcription="" points="606,1341 701,1342 703,1241 642,1263 614,1292 " />
<polygon class="Door" fill="#FF8E46" id="61" transcription="" points="608,1358 700,1353 703,1453 649,1439 610,1394 " />
<polygon class="Door" fill="#FF8E46" id="62" transcription="" points="1055,1682 972,1638 1073,1638 1069,1663 " />
<polygon class="Door" fill="#FF8E46" id="63" transcription="" points="1064,1735 969,1737 971,1642 1021,1653 1055,1697 " />
<polygon class="Door" fill="#FF8E46" id="64" transcription="" points="1326,1549 1326,1637 1231,1639 1244,1593 1277,1556 " />
<polygon class="Door" fill="#FF8E46" id="65" transcription="" points="1329,1838 1331,1737 1236,1739 1242,1783 1280,1827 " />
<polygon class="Door" fill="#FF8E46" id="66" transcription="" points="1348,1838 1344,1739 1436,1743 1430,1789 1393,1825 " />
<polygon class="Wall" fill="#AFD8F8" id="67" transcription="" points="182,2567 203,2570 203,2592 181,2592 " />
<polygon class="Room" fill="#008E8E" id="68" transcription="" points="210,639 1128,641 1119,986 209,985 " />
<polygon class="Room" fill="#008E8E" id="69" transcription="" points="231,1017 228,1338 695,1341 693,1021 " />
<polygon class="Room" fill="#008E8E" id="70" transcription="" points="710,1021 704,1193 1105,1197 1103,1018 " />
<polygon class="Room" fill="#008E8E" id="71" transcription="" points="707,1822 964,1825 965,1213 706,1207 " />
<polygon class="Room" fill="#008E8E" id="72" transcription="" points="977,1636 1071,1633 1069,1410 978,1411 " />
<polygon class="Room" fill="#008E8E" id="73" transcription="" points="1081,1416 1081,1628 1436,1633 1437,1417 " />
<polygon class="Room" fill="#008E8E" id="74" transcription="" points="1829,1416.5 1451,1413.5 1459,1736 1827,1733.5 " />
<polygon class="Door" fill="#FF8E46" id="75" transcription="" points="1539.5,1731.5 1447.5,1731.5 1442.5,1640.5 1482.5,1643.5 1520.5,1680.5 " />
<polygon class="Room" fill="#008E8E" id="76" transcription="" points="1440,1643 1445,1737 976,1732 976,1639 " />
<polygon class="Room" fill="#008E8E" id="77" transcription="" points="1829,1751 1833,2073 1347,2071 1348,1743 " />
<polygon class="Room" fill="#008E8E" id="78" transcription="" points="980,1753 978,2074 1325,2068 1332,1748 " />
<polygon class="Room" fill="#008E8E" id="79" transcription="" points="230.5,1690 227.5,2187 318.5,2188 689.5,1820 689.5,1690 " />
<polygon class="Room" fill="#008E8E" id="80" transcription="" points="965,1832 695,1829 323,2191 583,2452 584,2542 1105,2543 1100,2090 961,2090 " />
<polygon class="Room" fill="#008E8E" id="81" transcription="" points="231,1360 231,1677 688,1677 697,1361 " />
<polygon class="Separation" fill="#D64646" id="82" transcription="" points="312,2189 688,1813 704,1833 320,2203 " />
<polygon class="Separation" fill="#D64646" id="83" transcription="" points="700,1819 970,1817 966,1835 704,1835 " />
<relation type="incident" objects="0,15"/>
<relation type="incident" objects="15,16"/>
<relation type="incident" objects="16,14"/>
<relation type="incident" objects="14,59"/>
<relation type="incident" objects="59,2"/>
<relation type="incident" objects="2,10"/>
<relation type="incident" objects="10,46"/>
<relation type="incident" objects="46,9"/>
<relation type="incident" objects="9,1"/>
<relation type="incident" objects="1,45"/>
<relation type="incident" objects="45,0"/>
<relation type="incident" objects="16,47"/>
<relation type="incident" objects="17,47"/>
<relation type="incident" objects="17,18"/>
<relation type="incident" objects="18,60"/>
<relation type="incident" objects="60,13"/>
<relation type="incident" objects="13,14"/>
<relation type="incident" objects="13,12"/>
<relation type="incident" objects="12,58"/>
<relation type="incident" objects="58,11"/>
<relation type="incident" objects="11,4"/>
<relation type="incident" objects="4,3"/>
<relation type="incident" objects="3,2"/>
<relation type="incident" objects="17,48"/>
<relation type="incident" objects="48,19"/>
<relation type="incident" objects="19,7"/>
<relation type="incident" objects="7,40"/>
<relation type="incident" objects="40,61"/>
<relation type="incident" objects="61,18"/>
<relation type="incident" objects="19,49"/>
<relation type="incident" objects="49,21"/>
<relation type="incident" objects="21,20"/>
<relation type="incident" objects="20,82"/>
<relation type="incident" objects="82,40"/>
<relation type="incident" objects="82,83"/>
<relation type="incident" objects="83,37"/>
<relation type="incident" objects="37,38"/>
<relation type="incident" objects="38,39"/>
<relation type="incident" objects="39,44"/>
<relation type="incident" objects="44,51"/>
<relation type="incident" objects="51,43"/>
<relation type="incident" objects="43,42"/>
<relation type="incident" objects="42,41"/>
<relation type="incident" objects="41,50"/>
<relation type="incident" objects="50,8"/>
<relation type="incident" objects="8,82"/>
<relation type="incident" objects="8,20"/>
<relation type="incident" objects="39,34"/>
<relation type="incident" objects="34,52"/>
<relation type="incident" objects="52,35"/>
<relation type="incident" objects="35,65"/>
<relation type="incident" objects="65,36"/>
<relation type="incident" objects="37,63"/>
<relation type="incident" objects="37,36"/>
<relation type="incident" objects="52,33"/>
<relation type="incident" objects="33,35"/>
<relation type="incident" objects="33,53"/>
<relation type="incident" objects="53,23"/>
<relation type="incident" objects="23,24"/>
<relation type="incident" objects="24,6"/>
<relation type="incident" objects="6,66"/>
<relation type="incident" objects="35,66"/>
<relation type="incident" objects="24,54"/>
<relation type="incident" objects="54,22"/>
<relation type="incident" objects="22,5"/>
<relation type="incident" objects="5,25"/>
<relation type="incident" objects="75,25"/>
<relation type="incident" objects="75,6"/>
<relation type="incident" objects="25,31"/>
<relation type="incident" objects="31,64"/>
<relation type="incident" objects="64,32"/>
<relation type="incident" objects="32,62"/>
<relation type="incident" objects="62,63"/>
<relation type="incident" objects="62,28"/>
<relation type="incident" objects="28,63"/>
<relation type="incident" objects="5,55"/>
<relation type="incident" objects="55,29"/>
<relation type="incident" objects="29,30"/>
<relation type="incident" objects="30,32"/>
<relation type="incident" objects="30,62"/>
<relation type="incident" objects="28,27"/>
<relation type="incident" objects="27,56"/>
<relation type="incident" objects="56,29"/>
<relation type="incident" objects="56,30"/>
<relation type="incident" objects="27,57"/>
<relation type="incident" objects="57,11"/>
<relation type="incident" objects="40,83"/>
<relation type="incident" objects="31,75"/>
<relation type="neighbour" objects="68,69"/>
<relation type="neighbour" objects="69,70"/>
<relation type="neighbour" objects="70,68"/>
<relation type="neighbour" objects="71,70"/>
<relation type="neighbour" objects="71,81"/>
<relation type="neighbour" objects="81,69"/>
<relation type="neighbour" objects="69,71"/>
<relation type="neighbour" objects="71,79"/>
<relation type="neighbour" objects="79,81"/>
<relation type="neighbour" objects="79,80"/>
<relation type="neighbour" objects="80,71"/>
<relation type="neighbour" objects="80,78"/>
<relation type="neighbour" objects="78,77"/>
<relation type="neighbour" objects="77,74"/>
<relation type="neighbour" objects="74,73"/>
<relation type="neighbour" objects="73,72"/>
<relation type="neighbour" objects="72,71"/>
<relation type="neighbour" objects="71,76"/>
<relation type="neighbour" objects="76,78"/>
<relation type="neighbour" objects="76,77"/>
<relation type="neighbour" objects="76,74"/>
<relation type="neighbour" objects="76,73"/>
<relation type="neighbour" objects="78,71"/>
<relation type="access" objects="68,59,70"/>
<relation type="access" objects="71,58,70"/>
<relation type="access" objects="71,60,69"/>
<relation type="access" objects="71,61,81"/>
<relation type="access" objects="71,57,71"/>
<relation type="access" objects="71,63,76"/>
<relation type="access" objects="72,62,76"/>
<relation type="access" objects="76,64,73"/>
<relation type="access" objects="76,66,77"/>
<relation type="access" objects="76,65,78"/>
<relation type="access" objects="76,75,74"/>
<relation type="access" objects="80,83,71"/>
<relation type="access" objects="80,82,79"/>
<relation type="outerP" objects="0,45,1,9,46,10,3,4,11,57,27,56,29,55,5,22,54,24,23,53,33,52,34,39,44,51,43,42,41,50,8,20,21,49,19,48,17,47,16,15"/>
<relation type="surround" objects="0,45,1,9,46,10,2,59,14,15,0,68"/>
<relation type="surround" objects="14,13,60,18,17,47,16,14,69"/>
<relation type="surround" objects="14,59,2,3,4,11,58,12,13,14,70"/>
<relation type="surround" objects="18,61,40,7,19,48,17,18,81"/>
<relation type="surround" objects="12,58,11,57,27,28,63,37,83,40,61,18,60,13,12,71"/>
<relation type="surround" objects="7,40,82,20,21,49,19,7,79"/>
<relation type="surround" objects="82,83,37,38,39,44,51,43,42,41,50,8,82,80"/>
<relation type="surround" objects="27,56,30,62,28,27,72"/>
<relation type="surround" objects="29,55,5,25,31,64,32,30,29,73"/>
<relation type="surround" objects="5,22,54,24,6,75,25,5,74"/>
<relation type="surround" objects="36,65,35,52,34,38,37,36,78"/>
<relation type="surround" objects="66,6,24,23,53,33,35,66,77"/>
<relation type="surround" objects="62,32,64,31,75,6,66,35,65,36,63,28,62,76"/>
</svg>