<?xml version="1.0" encoding="UTF-8"?><!DOCTYPE svg PUBLIC "-//W3C//DTD SVG 1.1//EN" "http://www.w3.org/Graphics/SVG/1.1/DTD/svg11.dtd">
<svg xmlns="http://www.w3.org/2000/svg" version="1.1">
<width>2479</width>
<height>3508</height>
<nclasslabel>50</nclasslabel>
<nclassappear>6</nclassappear>
<class>Bidet-1</class>
<class>Bidet-2</class>
<class>Bidet-3</class>
<class>Bidet-4</class>
<class>Door</class>
<class>Door-1</class>
<class>Door-23</class>
<class>Oven-1</class>
<class>Oven-2</class>
<class>Oven-3</class>
<class>Oven-4</class>
<class>Parking</class>
<class>Roof</class>
<class>Room</class>
<class>Separation</class>
<class>Sink-1</class>
<class>Sink-11</class>
<class>Sink-12</class>
<class>Sink-13</class>
<class>Sink-14</class>
<class>Sink-2</class>
<class>Sink-3</class>
<class>Sink-4</class>
<class>Sink-5</class>
<class>Sink-6</class>
<class>Sofa-1</class>
<class>Sofa-3</class>
<class>Sofa-4</class>
<class>Sofa-5</class>
<class>Sofa-6</class>
<class>Sofa-7</class>
<class>Sofa-8</class>
<class>Sofa-9</class>
<class>Stairs-1</class>
<class>Table-1</class>
<class>Table-2</class>
<class>Table-3</class>
<class>Table-4</class>
<class>Table-5</class>
<class>Table-6</class>
<class>Table-7</class>
<class>Text</class>
<class>Tub-1</class>
<class>Tub-3</class>
<class>TV-1</class>
<class>TV-2</class>
<class>Wall</class>
<class>Wall-1</class>
<class>Wallieee</class>
<class>Window</class>
<polygon class="Wall" fill="#AFD8F8" id="0" transcription="" points="1729,2489 1772,2489 1772,2567 1729,2567 " />
<polygon class="Wall" fill="#AFD8F8" id="1" transcription="" points="1729,2204 1772,2204 1772,2149 1729,2148 " />
<polygon class="Wall" fill="#AFD8F8" id="2" transcription="" points="1593,1996 1593,2006 1728,2006 1728,1997 " />
<polygon class="Wall" fill="#AFD8F8" id="3" transcription="" points="1982,733 2008,732 2008,670 1981,670 " />
<polygon class="Wall" fill="#AFD8F8" id="4" transcription="" points="1981,1164 2008,1163 2008,1228 1981,1228 " />
<polygon class="Wall" fill="#AFD8F8" id="5" transcription="" points="1889,1525 1847,1525 1846,1631 1890,1631 " />
<polygon class="Wall" fill="#AFD8F8" id="6" transcription="" points="948,670 975,670 975,1070 948,1070 " />
<polygon class="Wall" fill="#AFD8F8" id="7" transcription="" points="948,644 948,670 2008,671 2008,644 " />
<polygon class="Wall" fill="#AFD8F8" id="8" transcription="" points="2008,1304 1981,1304 1981,1371 2008,1371 " />
<polygon class="Wall" fill="#AFD8F8" id="9" transcription="" points="2008,1397 2008,1371 1888,1371 1888,1395 " />
<polygon class="Wall" fill="#AFD8F8" id="10" transcription="" points="1846,1675 1846,1631 2007,1631 2007,1673 " />
<polygon class="Wall" fill="#AFD8F8" id="11" transcription="" points="2008,1774 1964,1774 1964,1673 2008,1673 " />
<polygon class="Wall" fill="#AFD8F8" id="12" transcription="" points="2008,1921 1965,1921 1965,2109 2007,2110 " />
<polygon class="Wall" fill="#AFD8F8" id="13" transcription="" points="1397,999 1397,1026 1518,1026 1518,999 " />
<polygon class="Wall" fill="#AFD8F8" id="14" transcription="" points="1468,1235 1495,1235 1494,1373 1468,1373 " />
<polygon class="Wall" fill="#AFD8F8" id="15" transcription="" points="1468,1415 1468,1371 1846,1371 1846,1415 " />
<polygon class="Wall" fill="#AFD8F8" id="16" transcription="" points="1889,1420 1846,1420 1847,1371 1888,1371 " />
<polygon class="Wall" fill="#AFD8F8" id="17" transcription="" points="991,1512 991,1521 1362,1520 1361,1512 " />
<polygon class="Wall" fill="#AFD8F8" id="18" transcription="" points="1361,1639 1370,1638 1370,1512 1361,1512 " />
<polygon class="Wall" fill="#AFD8F8" id="19" transcription="" points="1361,1738 1370,1738 1370,1786 1361,1783 " />
<polygon class="Wall" fill="#AFD8F8" id="20" transcription="" points="1290,1855 1292,1863 1370,1786 1361,1783 " />
<polygon class="Wall" fill="#AFD8F8" id="21" transcription="" points="991,1856 991,1863 1292,1863 1291,1856 " />
<polygon class="Wall" fill="#AFD8F8" id="22" transcription="" points="948,1760 993,1760 993,1948 948,1948 " />
<polygon class="Wall" fill="#AFD8F8" id="23" transcription="" points="948,1495 992,1494 993,1611 949,1611 " />
<polygon class="Wall" fill="#AFD8F8" id="24" transcription="" points="948,1144 975,1144 975,1372 948,1372 " />
<polygon class="Wall" fill="#AFD8F8" id="25" transcription="" points="992,1418 948,1418 948,1372 992,1372 " />
<polygon class="Wall" fill="#AFD8F8" id="26" transcription="" points="1370,1214 1361,1215 1361,1414 1371,1414 " />
<polygon class="Wall" fill="#AFD8F8" id="27" transcription="" points="1388,1141 1362,1141 1361,1214 1388,1215 " />
<polygon class="Wall" fill="#AFD8F8" id="28" transcription="" points="1238,1372 1238,1414 991,1414 991,1372 " />
<polygon class="Wall" fill="#AFD8F8" id="29" transcription="" points="948,2095 992,2095 992,2523 949,2524 " />
<polygon class="Wall" fill="#AFD8F8" id="30" transcription="" points="950,2566 949,2524 1374,2522 1374,2565 " />
<polygon class="Wall" fill="#AFD8F8" id="31" transcription="" points="1315,2381 1322,2381 1322,2523 1315,2523 " />
<polygon class="Wall" fill="#AFD8F8" id="32" transcription="" points="1589,2523 1589,2567 1729,2567 1728,2523 " />
<polygon class="Wall" fill="#AFD8F8" id="33" transcription="" points="1736,1996 1729,1997 1729,2109 1736,2109 " />
<polygon class="Wall" fill="#AFD8F8" id="34" transcription="" points="1883.5,2109 1883.5,2151 2006.5,2152 2006.5,2109 " />
<polygon class="Wall" fill="#AFD8F8" id="35" transcription="" points="1788,2110 1788,2152 1729,2150 1729,2109 " />
<polygon class="Wall" fill="#AFD8F8" id="36" transcription="" points="1605,1537 1613,1537 1613,1613 1605,1613 " />
<polygon class="Wall" fill="#AFD8F8" id="37" transcription="" points="1846,1614 1846,1621 1593,1621 1593,1613 " />
<polygon class="Window" fill="#F6BD0F" id="38" transcription="" points="944,1071 979,1070 978,1144 945,1144 " />
<polygon class="Window" fill="#F6BD0F" id="39" transcription="" points="944,1420 993,1421 992,1494 948,1497 " />
<polygon class="Window" fill="#F6BD0F" id="40" transcription="" points="944,1615 993,1615 996,1759 945,1760 " />
<polygon class="Window" fill="#F6BD0F" id="41" transcription="" points="946,1952 992,1952 996,2094 946,2094 " />
<polygon class="Window" fill="#F6BD0F" id="42" transcription="" points="1376,2521 1375,2567 1589,2566 1589,2520 " />
<polygon class="Window" fill="#F6BD0F" id="43" transcription="" points="1727,2204 1774,2203 1773,2489 1726,2489 " />
<polygon class="Wall" fill="#AFD8F8" id="44" transcription="" points="1981,2540 2006,2540 2007,2566 1981,2566 " />
<polygon class="Door" fill="#8BBA00" id="45" transcription="" points="1791,2021 1790,2154 1882,2152 1880,2107 1873,2060 1838,2030 " />
<polygon class="Window" fill="#F6BD0F" id="46" transcription="" points="1962,1774 2011,1773 2013,1919 1961,1921 " />
<polygon class="Door" fill="#8BBA00" id="47" transcription="" points="1748,1420 1866,1423 1866,1522 1839,1523 1790,1512 1750,1461 " />
<polygon class="Wall" fill="#AFD8F8" id="48" transcription="" points="1237,1141 1264,1141 1265,1414 1238,1413 " />
<polygon class="Parking" fill="#FF8E46" id="49" transcription="" points="1975,730 2022,730 2023,1163 1973,1163 " />
<polygon class="Window" fill="#F6BD0F" id="50" transcription="" points="1979,1230 2010,1228 2010,1302 1977,1302 " />
<polygon class="Door" fill="#8BBA00" id="51" transcription="" points="1267,1054 1265,1142 1362,1142 1353,1097 1312,1060 " />
<polygon class="Door" fill="#8BBA00" id="52" transcription="" points="1344,1458 1265,1412 1363,1414 1359,1436 " />
<polygon class="Door" fill="#8BBA00" id="53" transcription="" points="1360,1509 1256,1506 1257,1416 1297,1420 1340,1450 " />
<polygon class="Door" fill="#8BBA00" id="54" transcription="" points="1275,1733 1367,1735 1364,1638 1318,1650 1282,1692 " />
<polygon class="Door" fill="#8BBA00" id="55" transcription="" points="1497,1710 1498,1612 1593,1612 1583,1661 1549,1699 " />
<polygon class="Door" fill="#8BBA00" id="56" transcription="" points="1497,1907 1495,2005 1591,2006 1576,1941 1539,1913 " />
<polygon class="Room" fill="#008E8E" id="57" transcription="" points="1407,669 1977,675 1978,1368 1505,1371 1507,1003 1405,1007 " />
<polygon class="Room" fill="#008E8E" id="58" transcription="" points="977,673 1387,673 1387,1035 1491,1031 1494,1234 1393,1215 1388,1135 1233,1138 1234,1368 978,1369 " />
<polygon class="Room" fill="#008E8E" id="59" transcription="" points="993,1420 1256,1419 1255,1507 993,1506 " />
<polygon class="Room" fill="#008E8E" id="60" transcription="" points="1844,1608 1846,1421 1465,1419 1468,1246 1371,1226 1371,1420 1259,1419 1256,1502 1369,1507 1373,1782 1468,1783 1466,1610 1601,1608 1599,1532 1615,1532 1617,1607 " />
<polygon class="Room" fill="#008E8E" id="61" transcription="" points="997,1526 997,1850 1287,1853 1357,1779 1356,1525 " />
<polygon class="Room" fill="#008E8E" id="62" transcription="" points="1840,1624 1842,1678 1958,1678 1961,2104 1740,2101 1741,1992 1501,1990 1500,1624 " />
<polygon class="Room" fill="#008E8E" id="63" transcription="" points="999,1868 995,2519 1312,2519 1310,2376 1321,2375 1327,2516 1724,2518 1723,2009 1466,2006 1462,1793 1372,1793 1296,1868 " />
<polygon class="Wall" fill="#AFD8F8" id="64" transcription="" points="1466,1612 1463,2008 1500,2008 1500,1612 " />
<polygon class="Separation" fill="#D64646" id="65" transcription="" points="1391,669 1405,669 1405,993 1391,993 " />
<polygon class="Separation" fill="#D64646" id="66" transcription="" points="1493,1029 1509,1029 1509,1241 1493,1241 " />
<polygon class="Separation" fill="#D64646" id="67" transcription="" points="1368,1223 1468,1245 1490,1237 1386,1213 " />
<polygon class="Separation" fill="#D64646" id="68" transcription="" points="1372,1780 1469,1780 1469,1794 1372,1794 " />
<polygon class="Room" fill="#008E8E" id="69" transcription="" points="1264,1142 1360,1142 1360,1406 1264,1406 " />
<relation type="outerP" objects="7,3,49,4,50,8,9,16,47,5,10,11,46,12,34,35,1,43,0,32,42,30,29,41,22,40,23,39,25,24,38,6"/>
<relation type="incident" objects="7,3"/>
<relation type="incident" objects="3,49"/>
<relation type="incident" objects="49,4"/>
<relation type="incident" objects="4,50"/>
<relation type="incident" objects="50,8"/>
<relation type="incident" objects="8,9"/>
<relation type="incident" objects="9,16"/>
<relation type="incident" objects="16,47"/>
<relation type="incident" objects="47,5"/>
<relation type="incident" objects="5,10"/>
<relation type="incident" objects="10,11"/>
<relation type="incident" objects="11,46"/>
<relation type="incident" objects="46,12"/>
<relation type="incident" objects="12,34"/>
<relation type="incident" objects="34,45"/>
<relation type="incident" objects="45,35"/>
<relation type="incident" objects="35,1"/>
<relation type="incident" objects="1,43"/>
<relation type="incident" objects="43,0"/>
<relation type="incident" objects="0,32"/>
<relation type="incident" objects="32,42"/>
<relation type="incident" objects="42,30"/>
<relation type="incident" objects="30,29"/>
<relation type="incident" objects="29,41"/>
<relation type="incident" objects="41,22"/>
<relation type="incident" objects="22,40"/>
<relation type="incident" objects="40,23"/>
<relation type="incident" objects="17,23"/>
<relation type="incident" objects="23,39"/>
<relation type="incident" objects="39,25"/>
<relation type="incident" objects="25,24"/>
<relation type="incident" objects="24,38"/>
<relation type="incident" objects="38,6"/>
<relation type="incident" objects="6,7"/>
<relation type="incident" objects="25,28"/>
<relation type="incident" objects="28,48"/>
<relation type="incident" objects="48,51"/>
<relation type="incident" objects="51,27"/>
<relation type="incident" objects="27,26"/>
<relation type="incident" objects="26,52"/>
<relation type="incident" objects="52,48"/>
<relation type="incident" objects="48,53"/>
<relation type="incident" objects="53,17"/>
<relation type="incident" objects="27,67"/>
<relation type="incident" objects="67,26"/>
<relation type="incident" objects="67,14"/>
<relation type="incident" objects="14,15"/>
<relation type="incident" objects="15,16"/>
<relation type="incident" objects="14,66"/>
<relation type="incident" objects="66,13"/>
<relation type="incident" objects="13,65"/>
<relation type="incident" objects="65,7"/>
<relation type="incident" objects="5,37"/>
<relation type="incident" objects="37,36"/>
<relation type="incident" objects="37,55"/>
<relation type="incident" objects="55,64"/>
<relation type="incident" objects="64,56"/>
<relation type="incident" objects="56,2"/>
<relation type="incident" objects="2,33"/>
<relation type="incident" objects="33,35"/>
<relation type="incident" objects="64,68"/>
<relation type="incident" objects="20,21"/>
<relation type="incident" objects="21,22"/>
<relation type="incident" objects="20,68"/>
<relation type="incident" objects="19,20"/>
<relation type="incident" objects="19,68"/>
<relation type="incident" objects="19,54"/>
<relation type="incident" objects="54,18"/>
<relation type="incident" objects="18,17"/>
<relation type="incident" objects="30,31"/>
<relation type="neighbour" objects="58,57"/>
<relation type="neighbour" objects="57,60"/>
<relation type="neighbour" objects="60,69"/>
<relation type="neighbour" objects="69,58"/>
<relation type="neighbour" objects="58,60"/>
<relation type="neighbour" objects="60,59"/>
<relation type="neighbour" objects="59,58"/>
<relation type="neighbour" objects="60,61"/>
<relation type="neighbour" objects="61,59"/>
<relation type="neighbour" objects="61,63"/>
<relation type="neighbour" objects="63,60"/>
<relation type="neighbour" objects="63,62"/>
<relation type="neighbour" objects="62,60"/>
<relation type="access" objects="69,51,58"/>
<relation type="access" objects="58,65,57"/>
<relation type="access" objects="58,66,57"/>
<relation type="access" objects="69,52,60"/>
<relation type="access" objects="59,53,60"/>
<relation type="access" objects="60,47,60"/>
<relation type="access" objects="60,55,62"/>
<relation type="access" objects="62,45,62"/>
<relation type="access" objects="63,56,62"/>
<relation type="access" objects="60,54,61"/>
<relation type="access" objects="60,67,58"/>
<relation type="access" objects="60,68,63"/>
<relation type="surround" objects="7,65,13,66,14,67,27,51,48,28,25,24,38,6,7,58"/>
<relation type="surround" objects="7,3,49,4,50,8,9,16,15,14,66,13,65,7,57"/>
<relation type="surround" objects="51,27,26,52,48,51,69"/>
<relation type="surround" objects="28,48,53,17,23,39,28,59"/>
<relation type="surround" objects="52,26,67,14,15,16,47,5,37,55,64,68,19,54,18,17,53,48,52,60"/>
<relation type="surround" objects="17,18,54,19,20,21,22,40,23,17,61"/>
<relation type="surround" objects="55,37,10,11,46,12,34,45,35,33,2,56,64,55,62"/>
<relation type="surround" objects="21,20,68,64,56,2,33,35,1,43,0,32,42,30,29,41,22,21,63"/>
</svg>