<?xml version="1.0" encoding="UTF-8"?><!DOCTYPE svg PUBLIC "-//W3C//DTD SVG 1.1//EN" "http://www.w3.org/Graphics/SVG/1.1/DTD/svg11.dtd">
<svg xmlns="http://www.w3.org/2000/svg" version="1.1">
<width>2479</width>
<height>3508</height>
<nclasslabel>50</nclasslabel>
<nclassappear>5</nclassappear>
<class>Bidet-1</class>
<class>Bidet-2</class>
<class>Bidet-3</class>
<class>Bidet-4</class>
<class>Door</class>
<class>Door-1</class>
<class>Door-23</class>
<class>Oven-1</class>
<class>Oven-2</class>
<class>Oven-3</class>
<class>Oven-4</class>
<class>Parking</class>
<class>Roof</class>
<class>Room</class>
<class>Separation</class>
<class>Sink-1</class>
<class>Sink-11</class>
<class>Sink-12</class>
<class>Sink-13</class>
<class>Sink-14</class>
<class>Sink-2</class>
<class>Sink-3</class>
<class>Sink-4</class>
<class>Sink-5</class>
<class>Sink-6</class>
<class>Sofa-1</class>
<class>Sofa-3</class>
<class>Sofa-4</class>
<class>Sofa-5</class>
<class>Sofa-6</class>
<class>Sofa-7</class>
<class>Sofa-8</class>
<class>Sofa-9</class>
<class>Stairs-1</class>
<class>Table-1</class>
<class>Table-2</class>
<class>Table-3</class>
<class>Table-4</class>
<class>Table-5</class>
<class>Table-6</class>
<class>Table-7</class>
<class>Text</class>
<class>Tub-1</class>
<class>Tub-3</class>
<class>TV-1</class>
<class>TV-2</class>
<class>Wall</class>
<class>Wall-1</class>
<class>Wallieee</class>
<class>Window</class>
<polygon class="Wall" fill="#AFD8F8" id="0" transcription="" points="1575,1370 1575,1411 2002,1410 2001,1370 " />
<polygon class="Wall" fill="#AFD8F8" id="1" transcription="" points="1590,1411 1597,1410 1597,1705 1590,1705 " />
<polygon class="Wall" fill="#AFD8F8" id="2" transcription="" points="1462,1369 1499,1369 1499,1411 1462,1411 " />
<polygon class="Wall" fill="#AFD8F8" id="3" transcription="" points="1491,1600 1483,1600 1482,1410 1490,1410 " />
<polygon class="Wall" fill="#AFD8F8" id="4" transcription="" points="1225,1369 1225,1410 1388,1411 1388,1370 " />
<polygon class="Wall" fill="#AFD8F8" id="5" transcription="" points="1183,1087 1224,1087 1225,1706 1183,1706 " />
<polygon class="Wall" fill="#AFD8F8" id="6" transcription="" points="1225,1699 1225,1706 1490,1705 1491,1699 " />
<polygon class="Wall" fill="#AFD8F8" id="7" transcription="" points="1225,1806 1225,1812 1485,1813 1484,1807 " />
<polygon class="Wall" fill="#AFD8F8" id="8" transcription="" points="1401,1813 1407,1813 1408,1911 1401,1911 " />
<polygon class="Wall" fill="#AFD8F8" id="9" transcription="" points="1242,1913 1242,1919 1491,1918 1491,1912 " />
<polygon class="Wall" fill="#AFD8F8" id="10" transcription="" points="1224,1044 1224,1086 1037,1086 1037,1044 " />
<polygon class="Wall" fill="#AFD8F8" id="11" transcription="" points="386,1086 386,1044 892,1044 892,1086 " />
<polygon class="Wall" fill="#AFD8F8" id="12" transcription="" points="344,1044 386,1044 386,1216 345,1216 " />
<polygon class="Wall" fill="#AFD8F8" id="13" transcription="" points="385,1358 344,1358 344,1911 386,1911 " />
<polygon class="Wall" fill="#AFD8F8" id="14" transcription="" points="344,1953 344,1911 591,1912 591,1952 " />
<polygon class="Wall" fill="#AFD8F8" id="15" transcription="" points="734,1912 734,1953 1006,1954 1006,1913 " />
<polygon class="Wall" fill="#AFD8F8" id="16" transcription="" points="1117,1806 1125,1806 1124,1911 1117,1911 " />
<polygon class="Wall" fill="#AFD8F8" id="17" transcription="" points="1114,1953 1112,1913 1199,1913 1199,1953 " />
<polygon class="Wall" fill="#AFD8F8" id="18" transcription="" points="1243,2247 1200,2247 1200,1912 1242,1913 " />
<polygon class="Wall" fill="#AFD8F8" id="19" transcription="" points="1201,2291 1200,2248 1358,2248 1358,2291 " />
<polygon class="Wall" fill="#AFD8F8" id="20" transcription="" points="1590,1919 1590,1912 1667,1912 1667,1919 " />
<polygon class="Wall" fill="#AFD8F8" id="21" transcription="" points="1667,1912 1674,1911 1674,2248 1667,2248 " />
<polygon class="Wall" fill="#AFD8F8" id="22" transcription="" points="1759,2291 1759,2249 1504,2248 1504,2291 " />
<polygon class="Wall" fill="#AFD8F8" id="23" transcription="" points="1903,2291 1905,2248 2003,2248 2003,2290 " />
<polygon class="Wall" fill="#AFD8F8" id="24" transcription="" points="2003,1806 2003,1812 1590,1812 1590,1806 " />
<polygon class="Wall" fill="#AFD8F8" id="25" transcription="" points="2046,1369 2002,1370 2004,1525 2045,1525 " />
<polygon class="Wall" fill="#AFD8F8" id="26" transcription="" points="2045,1673 2003,1673 2003,2290 2045,2290 " />
<polygon class="Window" fill="#F6BD0F" id="27" transcription="" points="892,1039 894,1091 1038,1091 1037,1040 " />
<polygon class="Window" fill="#F6BD0F" id="28" transcription="" points="458,1216 342,1216 342,1359 458,1354 451,1306 415,1287 449,1266 " />
<polygon class="Window" fill="#F6BD0F" id="29" transcription="" points="594,1841 592,1953 734,1954 732,1838 685,1852 664,1881 638,1851 " />
<polygon class="Door" fill="#8BBA00" id="30" transcription="" points="1108,1813 1115,1957 1007,1957 1007,1907 1024,1849 1064,1817 " />
<polygon class="Window" fill="#F6BD0F" id="31" transcription="" points="1358,2246 1359,2294 1506,2295 1504,2246 " />
<polygon class="Window" fill="#F6BD0F" id="32" transcription="" points="1761,2243 1761,2294 1906,2294 1900,2244 " />
<polygon class="Window" fill="#F6BD0F" id="33" transcription="" points="2049,1525 2001,1528 2000,1671 2048,1671 " />
<polygon class="Window" fill="#F6BD0F" id="34" transcription="" points="1499,1362 1499,1413 1570,1413 1572,1362 " />
<polygon class="Window" fill="#F6BD0F" id="35" transcription="" points="1391,1366 1389,1410 1459,1409 1459,1366 " />
<polygon class="Door" fill="#8BBA00" id="36" transcription="" points="1394,1697 1493,1700 1489,1600 1434,1610 1398,1655 " />
<polygon class="Door" fill="#8BBA00" id="37" transcription="" points="1585,1692 1587,1595 1489,1597 1504,1647 1537,1677 " />
<polygon class="Door" fill="#8BBA00" id="38" transcription="" points="1689,1803 1588,1805 1593,1707 1638,1716 1679,1764 " />
<polygon class="Door" fill="#8BBA00" id="39" transcription="" points="1688,1818.5 1586,1813.5 1588,1912.5 1643,1898.5 1680,1859.5 " />
<polygon class="Door" fill="#8BBA00" id="40" transcription="" points="1585,2006 1588,1912 1492,1912 1504,1967 1540,1998 " />
<polygon class="Room" fill="#FF8E46" id="41" transcription="" points="1226,1414 1230,1695 1485,1697 1478,1415 " />
<polygon class="Room" fill="#FF8E46" id="42" transcription="" points="1602,1414 1602,1801 1999,1801 1996,1416 " />
<polygon class="Room" fill="#FF8E46" id="43" transcription="" points="1493,1418 1492,1592 1585,1592 1586,1418 " />
<polygon class="Room" fill="#FF8E46" id="44" transcription="" points="1999,1819 1999,2241 1678,2241 1678,1907 1593,1905 1590,1820 " />
<polygon class="Room" fill="#FF8E46" id="45" transcription="" points="1248,1923 1246,2242 1664,2241 1661,1923 " />
<polygon class="Door" fill="#8BBA00" id="46" transcription="" points="1127.5,1899 1121.5,1807 1226.5,1807 1213.5,1857 1174.5,1893 " />
<polygon class="Room" fill="#FF8E46" id="47" transcription="" points="390,1086 389,1904 1109,1906 1112,1802 1180,1803 1179,1087 " />
<polygon class="Room" fill="#FF8E46" id="48" transcription="" points="1191.5,1711 1492.5,1707 1492.5,1603 1582.5,1601 1584.5,1906 1411.5,1905 1408.5,1817 1485.5,1815 1485.5,1803 1194.5,1801 " />
<polygon class="Room" fill="#FF8E46" id="49" transcription="" points="1395,1817 1399,1905 1132,1907 1128,1815 " />
<polygon class="Separation" fill="#008E8E" id="50" transcription="" points="1178,1706 1194,1706 1194,1805 1178,1805 " />
<relation type="incident" objects="11,27"/>
<relation type="incident" objects="27,10"/>
<relation type="incident" objects="10,5"/>
<relation type="incident" objects="5,4"/>
<relation type="incident" objects="4,35"/>
<relation type="incident" objects="35,2"/>
<relation type="incident" objects="2,34"/>
<relation type="incident" objects="34,0"/>
<relation type="incident" objects="0,25"/>
<relation type="incident" objects="25,33"/>
<relation type="incident" objects="33,26"/>
<relation type="incident" objects="26,23"/>
<relation type="incident" objects="23,32"/>
<relation type="incident" objects="32,22"/>
<relation type="incident" objects="22,31"/>
<relation type="incident" objects="31,19"/>
<relation type="incident" objects="19,18"/>
<relation type="incident" objects="30,17"/>
<relation type="incident" objects="17,18"/>
<relation type="incident" objects="30,15"/>
<relation type="incident" objects="15,29"/>
<relation type="incident" objects="29,14"/>
<relation type="incident" objects="14,13"/>
<relation type="incident" objects="13,28"/>
<relation type="incident" objects="28,12"/>
<relation type="incident" objects="12,11"/>
<relation type="incident" objects="2,3"/>
<relation type="incident" objects="3,37"/>
<relation type="incident" objects="37,1"/>
<relation type="incident" objects="1,38"/>
<relation type="incident" objects="3,36"/>
<relation type="incident" objects="36,6"/>
<relation type="incident" objects="6,5"/>
<relation type="incident" objects="38,24"/>
<relation type="incident" objects="24,39"/>
<relation type="incident" objects="24,26"/>
<relation type="incident" objects="39,20"/>
<relation type="incident" objects="20,21"/>
<relation type="incident" objects="39,40"/>
<relation type="incident" objects="40,20"/>
<relation type="incident" objects="40,9"/>
<relation type="incident" objects="9,8"/>
<relation type="incident" objects="8,7"/>
<relation type="incident" objects="21,22"/>
<relation type="incident" objects="9,18"/>
<relation type="incident" objects="17,16"/>
<relation type="incident" objects="16,46"/>
<relation type="incident" objects="46,7"/>
<relation type="incident" objects="1,0"/>
<relation type="access" objects="44,39,48"/>
<relation type="access" objects="48,38,42"/>
<relation type="access" objects="43,37,48"/>
<relation type="access" objects="48,36,41"/>
<relation type="access" objects="48,40,45"/>
<relation type="access" objects="49,46,47"/>
<relation type="neighbour" objects="47,41"/>
<relation type="neighbour" objects="41,43"/>
<relation type="neighbour" objects="43,42"/>
<relation type="neighbour" objects="42,44"/>
<relation type="neighbour" objects="44,45"/>
<relation type="neighbour" objects="45,49"/>
<relation type="neighbour" objects="49,47"/>
<relation type="neighbour" objects="47,48"/>
<relation type="neighbour" objects="48,47"/>
<relation type="neighbour" objects="48,41"/>
<relation type="neighbour" objects="41,48"/>
<relation type="neighbour" objects="48,42"/>
<relation type="neighbour" objects="48,44"/>
<relation type="neighbour" objects="48,49"/>
<relation type="neighbour" objects="48,45"/>
<relation type="incident" objects="46,50"/>
<relation type="incident" objects="5,50"/>
<relation type="access" objects="48,50,47"/>
<relation type="access" objects="47,30,47"/>
<relation type="outerP" objects="11,27,10,5,4,35,2,34,0,25,33,26,23,32,22,31,19,18,17,30,15,29,14,13,28,12"/>
<relation type="surround" objects="11,27,10,5,50,46,16,30,15,29,14,13,28,12,11,47"/>
<relation type="surround" objects="4,35,2,3,36,6,5,4,41"/>
<relation type="surround" objects="2,34,0,1,37,3,2,43"/>
<relation type="surround" objects="0,25,33,26,24,38,1,0,42"/>
<relation type="surround" objects="24,26,23,32,22,21,20,39,24,44"/>
<relation type="surround" objects="9,40,20,21,22,31,19,18,9,45"/>
<relation type="surround" objects="46,7,8,9,18,17,16,46,49"/>
<relation type="surround" objects="5,6,36,3,37,1,38,24,39,20,40,9,8,7,46,50,5,48"/>
</svg>