<?xml version="1.0" encoding="UTF-8"?><!DOCTYPE svg PUBLIC "-//W3C//DTD SVG 1.1//EN" "http://www.w3.org/Graphics/SVG/1.1/DTD/svg11.dtd">
<svg xmlns="http://www.w3.org/2000/svg" version="1.1">
<width>2479</width>
<height>3508</height>
<nclasslabel>50</nclasslabel>
<nclassappear>6</nclassappear>
<class>Bidet-1</class>
<class>Bidet-2</class>
<class>Bidet-3</class>
<class>Bidet-4</class>
<class>Door</class>
<class>Door-1</class>
<class>Door-23</class>
<class>Oven-1</class>
<class>Oven-2</class>
<class>Oven-3</class>
<class>Oven-4</class>
<class>Parking</class>
<class>Roof</class>
<class>Room</class>
<class>Separation</class>
<class>Sink-1</class>
<class>Sink-11</class>
<class>Sink-12</class>
<class>Sink-13</class>
<class>Sink-14</class>
<class>Sink-2</class>
<class>Sink-3</class>
<class>Sink-4</class>
<class>Sink-5</class>
<class>Sink-6</class>
<class>Sofa-1</class>
<class>Sofa-3</class>
<class>Sofa-4</class>
<class>Sofa-5</class>
<class>Sofa-6</class>
<class>Sofa-7</class>
<class>Sofa-8</class>
<class>Sofa-9</class>
<class>Stairs-1</class>
<class>Table-1</class>
<class>Table-2</class>
<class>Table-3</class>
<class>Table-4</class>
<class>Table-5</class>
<class>Table-6</class>
<class>Table-7</class>
<class>Text</class>
<class>Tub-1</class>
<class>Tub-3</class>
<class>TV-1</class>
<class>TV-2</class>
<class>Wall</class>
<class>Wall-1</class>
<class>Wallieee</class>
<class>Window</class>
<polygon class="Wall" fill="#AFD8F8" id="0" transcription="" points="902,541 878,541 878,992 903,992 " />
<polygon class="Wall" fill="#AFD8F8" id="1" transcription="" points="879,1068 902,1068 902,1188 878,1188 " />
<polygon class="Wall" fill="#AFD8F8" id="2" transcription="" points="1582,1225 1710,1226 1711,1232 1582,1231 " />
<polygon class="Wall" fill="#AFD8F8" id="3" transcription="" points="1540,540 1565,540 1566,1000 1540,999 " />
<polygon class="Wall" fill="#AFD8F8" id="4" transcription="" points="1565,515 1565,540 1515,541 1515,516 " />
<polygon class="Wall" fill="#AFD8F8" id="5" transcription="" points="1930,1472 1889,1472 1888,1567 1929,1567 " />
<polygon class="Wall" fill="#AFD8F8" id="6" transcription="" points="1930,1299 1888,1299 1888,1214 1929,1214 " />
<polygon class="Wall" fill="#AFD8F8" id="7" transcription="" points="1930,1116 1888,1116 1888,1042 1930,1042 " />
<polygon class="Wall" fill="#AFD8F8" id="8" transcription="" points="1540,1189 1582,1189 1581,1043 1540,1043 " />
<polygon class="Wall" fill="#AFD8F8" id="9" transcription="" points="1930,1001 1930,1042 1540,1043 1540,999 " />
<polygon class="Wall" fill="#AFD8F8" id="10" transcription="" points="1929,1609 1929,1567 1778,1567 1778,1610 " />
<polygon class="Wall" fill="#AFD8F8" id="11" transcription="" points="1811,1225 1811,1232 1888,1232 1888,1225 " />
<polygon class="Wall" fill="#AFD8F8" id="12" transcription="" points="1665,1631 1622,1631 1622,1609 1665,1609 " />
<polygon class="Wall" fill="#AFD8F8" id="13" transcription="" points="1682,1568 1682,1610 1622,1610 1623,1568 " />
<polygon class="Wall" fill="#AFD8F8" id="14" transcription="" points="878,514 879,541 928,542 928,515 " />
<polygon class="Wall" fill="#AFD8F8" id="15" transcription="" points="1339,1232 1345,1232 1345,1479 1339,1479 " />
<polygon class="Wall" fill="#AFD8F8" id="16" transcription="" points="1233,1189 1233,1232 1582,1233 1582,1189 " />
<polygon class="Wall" fill="#AFD8F8" id="17" transcription="" points="2100,1726 2126,1727 2125,1940 2100,1939 " />
<polygon class="Wall" fill="#AFD8F8" id="18" transcription="" points="1933,1939 1936,1952 1930,1964 2125,1963 2125,1940 " />
<polygon class="Wall" fill="#AFD8F8" id="19" transcription="" points="1665,1939 1665,1963 1904,1964 1900,1952 1904,1939 " />
<polygon class="Wall" fill="#AFD8F8" id="20" transcription="" points="1664,2061 1623,2061 1622,1916 1664,1916 " />
<polygon class="Wall" fill="#AFD8F8" id="21" transcription="" points="1664,2359 1622,2358 1622,2429 1665,2429 " />
<polygon class="Wall" fill="#AFD8F8" id="22" transcription="" points="1208,516 1209,541 1235,541 1234,515 " />
<polygon class="Wall" fill="#AFD8F8" id="23" transcription="" points="1126,1232 1127,1331 1133,1331 1133,1232 " />
<polygon class="Wall" fill="#AFD8F8" id="24" transcription="" points="1132,1189 1132,1231 921,1231 921,1189 " />
<polygon class="Wall" fill="#AFD8F8" id="25" transcription="" points="878,1341 878,1188 920,1189 920,1341 " />
<polygon class="Wall" fill="#AFD8F8" id="26" transcription="" points="878,1417 920,1417 920,1467 878,1467 " />
<polygon class="Wall" fill="#AFD8F8" id="27" transcription="" points="878,1574 879,1626 921,1626 921,1574 " />
<polygon class="Wall" fill="#AFD8F8" id="28" transcription="" points="685,1626 685,1585 877,1586 879,1626 " />
<polygon class="Wall" fill="#AFD8F8" id="29" transcription="" points="642,1636 684,1636 685,1585 642,1585 " />
<polygon class="Wall" fill="#AFD8F8" id="30" transcription="" points="642,1713 684,1713 684,1736 642,1736 " />
<polygon class="Wall" fill="#AFD8F8" id="31" transcription="" points="922,1734 922,1726 684,1726 684,1734 " />
<polygon class="Wall" fill="#AFD8F8" id="32" transcription="" points="642,1813 685,1813 684,2428 642,2428 " />
<polygon class="Wall" fill="#AFD8F8" id="33" transcription="" points="685,1909 685,1933 921,1933 921,1909 " />
<polygon class="Wall" fill="#AFD8F8" id="34" transcription="" points="939,1833 940,1840 921,1840 921,1833 " />
<polygon class="Wall" fill="#AFD8F8" id="35" transcription="" points="914,1834 921,1833 921,1909 914,1910 " />
<polygon class="Wall" fill="#AFD8F8" id="36" transcription="" points="1388,2471 1386,2429 1664,2429 1665,2472 " />
<polygon class="Wall" fill="#AFD8F8" id="37" transcription="" points="1090,2472 1090,2429 950,2429 950,2471 " />
<polygon class="Wall" fill="#AFD8F8" id="38" transcription="" points="1039,1609 1038,1910 1045,1910 1046,1608 " />
<polygon class="Wall" fill="#AFD8F8" id="39" transcription="" points="1038,2075 1045,2075 1045,2428 1038,2428 " />
<polygon class="Wall" fill="#AFD8F8" id="40" transcription="" points="1038,1933 1046,1933 1046,2016 1045,2075 1038,2074 " />
<polygon class="Wall" fill="#AFD8F8" id="41" transcription="" points="1046,2015 1098,2015 1098,2023 1046,2024 " />
<polygon class="Wall" fill="#AFD8F8" id="42" transcription="" points="1045,2068 1044,2075 1099,2076 1098,2069 " />
<polygon class="Wall" fill="#AFD8F8" id="43" transcription="" points="1091,2024 1098,2023 1097,2069 1091,2068 " />
<polygon class="Wall" fill="#AFD8F8" id="44" transcription="" points="772,2471 772,2429 642,2428 642,2471 " />
<polygon class="Parking" fill="#F6BD0F" id="45" transcription="" points="922,500 921,548 1211,549 1211,501 " />
<polygon class="Parking" fill="#F6BD0F" id="46" transcription="" points="1229,502 1232,552 1519,552 1519,502 " />
<polygon class="Window" fill="#8BBA00" id="47" transcription="" points="873,992 906,991 907,1066 874,1066 " />
<polygon class="Window" fill="#8BBA00" id="48" transcription="" points="872,1343 922,1341 922,1416 874,1417 " />
<polygon class="Door" fill="#FF8E46" id="49" transcription="" points="1017,1568 909,1571 909,1469 931,1468 978,1487 1012,1528 " />
<polygon class="Door" fill="#FF8E46" id="50" transcription="" points="1008,1721 918,1724 913,1628 965,1637 1001,1679 " />
<polygon class="Window" fill="#8BBA00" id="51" transcription="" points="637,1638 686,1637 686,1711 638,1714 " />
<polygon class="Window" fill="#8BBA00" id="52" transcription="" points="638,1737 689,1737 688,1810 638,1811 " />
<polygon class="Window" fill="#8BBA00" id="53" transcription="" points="851,2384 771,2429 771,2474 948,2474 949,2426 870,2382 862,2398 " />
<polygon class="Window" fill="#8BBA00" id="54" transcription="" points="1090,2425 1091,2473 1388,2474 1387,2426 " />
<polygon class="Window" fill="#8BBA00" id="55" transcription="" points="1618,2060 1667,2060 1668,2356 1618,2356 " />
<polygon class="Window" fill="#8BBA00" id="56" transcription="" points="1619,1632 1666,1632 1667,1914 1621,1916 " />
<polygon class="Door" fill="#FF8E46" id="57" transcription="" points="1772,1478 1776,1611 1681,1612 1683,1564 1697,1516 1730,1484 " />
<polygon class="Window" fill="#8BBA00" id="58" transcription="" points="1885,1297 1935,1299 1935,1469 1883,1471 " />
<polygon class="Window" fill="#8BBA00" id="59" transcription="" points="1887,1117 1933,1116 1935,1211 1886,1211 " />
<polygon class="Door" fill="#FF8E46" id="60" transcription="" points="1717,1137 1714,1226 1810,1228 1801,1185 1761,1144 " />
<polygon class="Door" fill="#FF8E46" id="61" transcription="" points="1137,1321 1138,1217 1231,1217 1224,1280 1185,1313 " />
<polygon class="Door" fill="#FF8E46" id="62" transcription="" points="823,1736 922,1735 921,1833 864,1817 830,1776 " />
<polygon class="Door" fill="#FF8E46" id="63" transcription="" points="1034,1933 1033,1834 933,1835 954,1893 989,1921 " />
<polygon class="Room" fill="#008E8E" id="64" transcription="" points="907,546 906,1183 1537,1185 1537,545 " />
<polygon class="Room" fill="#008E8E" id="65" transcription="" points="922,1236 924,1826 1035,1829 1032,1236 " />
<polygon class="Room" fill="#008E8E" id="66" transcription="" points="687,1628 687,1721 915,1724 915,1631 " />
<polygon class="Room" fill="#008E8E" id="67" transcription="" points="688,1738 690,1905 913,1906 911,1741 " />
<polygon class="Room" fill="#008E8E" id="68" transcription="" points="690,1936 686,2422 1033,2424 1029,1837 925,1842 927,1936 " />
<polygon class="Room" fill="#008E8E" id="69" transcription="" points="1347,1237 1348,1475 1621,1563 1884,1564 1883,1237 " />
<polygon class="Room" fill="#008E8E" id="70" transcription="" points="1583,1048 1587,1218 1884,1217 1883,1047 " />
<polygon class="Room" fill="#008E8E" id="71" transcription="" points="1043.5,1239 1048.5,2012 1625,2010 1618.5,1579 1339.5,1489 1332.5,1237 " />
<polygon class="Separation" fill="#D64646" id="72" transcription="" points="1031,1232 1048,1232 1048,1599 1031,1599 " />
<polygon class="Separation" fill="#D64646" id="73" transcription="" points="1353,1473 1622,1563 1620,1578 1342,1487 " />
<polygon class="Room" fill="#008E8E" id="74" transcription="" points="1105,2030 1105,2082 1047,2080 1051,2426 1621,2422 1621,2030 " />
<polygon class="Separation" fill="#D64646" id="75" transcription="" points="1093,2012 1617,2012 1617,2032 1093,2032 " />
<relation type="incident" objects="14,45"/>
<relation type="incident" objects="45,22"/>
<relation type="incident" objects="22,46"/>
<relation type="incident" objects="46,4"/>
<relation type="incident" objects="4,3"/>
<relation type="incident" objects="3,9"/>
<relation type="incident" objects="9,7"/>
<relation type="incident" objects="7,59"/>
<relation type="incident" objects="59,6"/>
<relation type="incident" objects="6,58"/>
<relation type="incident" objects="58,5"/>
<relation type="incident" objects="5,10"/>
<relation type="incident" objects="10,57"/>
<relation type="incident" objects="57,13"/>
<relation type="incident" objects="13,12"/>
<relation type="incident" objects="12,56"/>
<relation type="incident" objects="56,20"/>
<relation type="incident" objects="20,19"/>
<relation type="incident" objects="19,18"/>
<relation type="incident" objects="18,17"/>
<relation type="incident" objects="20,55"/>
<relation type="incident" objects="55,21"/>
<relation type="incident" objects="21,36"/>
<relation type="incident" objects="36,54"/>
<relation type="incident" objects="54,37"/>
<relation type="incident" objects="37,53"/>
<relation type="incident" objects="53,44"/>
<relation type="incident" objects="44,32"/>
<relation type="incident" objects="32,52"/>
<relation type="incident" objects="52,30"/>
<relation type="incident" objects="30,51"/>
<relation type="incident" objects="51,29"/>
<relation type="incident" objects="29,28"/>
<relation type="incident" objects="28,27"/>
<relation type="incident" objects="27,49"/>
<relation type="incident" objects="49,26"/>
<relation type="incident" objects="26,48"/>
<relation type="incident" objects="48,25"/>
<relation type="incident" objects="25,1"/>
<relation type="incident" objects="1,47"/>
<relation type="incident" objects="47,0"/>
<relation type="incident" objects="0,14"/>
<relation type="incident" objects="9,8"/>
<relation type="incident" objects="8,16"/>
<relation type="incident" objects="16,2"/>
<relation type="incident" objects="2,60"/>
<relation type="incident" objects="60,11"/>
<relation type="incident" objects="11,6"/>
<relation type="incident" objects="16,15"/>
<relation type="incident" objects="16,61"/>
<relation type="incident" objects="24,61"/>
<relation type="incident" objects="24,25"/>
<relation type="incident" objects="24,23"/>
<relation type="incident" objects="23,61"/>
<relation type="incident" objects="27,50"/>
<relation type="incident" objects="50,31"/>
<relation type="incident" objects="31,30"/>
<relation type="incident" objects="31,62"/>
<relation type="incident" objects="62,34"/>
<relation type="incident" objects="34,35"/>
<relation type="incident" objects="35,62"/>
<relation type="incident" objects="34,63"/>
<relation type="incident" objects="63,38"/>
<relation type="incident" objects="38,40"/>
<relation type="incident" objects="40,41"/>
<relation type="incident" objects="41,43"/>
<relation type="incident" objects="43,42"/>
<relation type="incident" objects="42,40"/>
<relation type="incident" objects="40,39"/>
<relation type="incident" objects="35,33"/>
<relation type="incident" objects="33,32"/>
<relation type="incident" objects="39,37"/>
<relation type="access" objects="64,61,71"/>
<relation type="access" objects="70,60,69"/>
<relation type="access" objects="69,69,71"/>
<relation type="access" objects="71,71,65"/>
<relation type="access" objects="65,50,66"/>
<relation type="access" objects="67,62,65"/>
<relation type="access" objects="65,63,68"/>
<relation type="neighbour" objects="64,70"/>
<relation type="neighbour" objects="70,69"/>
<relation type="neighbour" objects="69,64"/>
<relation type="neighbour" objects="64,71"/>
<relation type="neighbour" objects="71,69"/>
<relation type="neighbour" objects="71,65"/>
<relation type="neighbour" objects="65,64"/>
<relation type="neighbour" objects="65,66"/>
<relation type="neighbour" objects="66,67"/>
<relation type="neighbour" objects="67,65"/>
<relation type="neighbour" objects="65,68"/>
<relation type="neighbour" objects="68,67"/>
<relation type="neighbour" objects="68,71"/>
<relation type="incident" objects="15,73"/>
<relation type="incident" objects="73,13"/>
<relation type="incident" objects="38,72"/>
<relation type="incident" objects="72,24"/>
<relation type="incident" objects="41,75"/>
<relation type="incident" objects="75,43"/>
<relation type="incident" objects="75,20"/>
<relation type="neighbour" objects="74,68"/>
<relation type="neighbour" objects="74,71"/>
<relation type="access" objects="64,61,71"/>
<relation type="access" objects="69,60,70"/>
<relation type="access" objects="69,57,69"/>
<relation type="access" objects="65,49,65"/>
<relation type="access" objects="66,50,65"/>
<relation type="access" objects="65,62,67"/>
<relation type="access" objects="65,63,68"/>
<relation type="access" objects="71,75,74"/>
<relation type="access" objects="71,73,69"/>
<relation type="surround" objects="14,45,22,46,4,3,9,8,16,61,24,25,1,47,0,14,64"/>
<relation type="surround" objects="9,7,59,6,11,60,2,16,8,9,70"/>
<relation type="surround" objects="16,2,60,11,6,58,5,10,57,13,73,15,16,69"/>
<relation type="surround" objects="24,72,38,63,34,62,31,50,27,49,26,48,25,24,65"/>
<relation type="surround" objects="24,61,16,15,73,13,12,56,20,75,41,40,38,72,24,71"/>
<relation type="surround" objects="28,27,50,31,30,51,29,28,66"/>
<relation type="surround" objects="31,62,35,33,32,52,30,31,67"/>
<relation type="surround" objects="33,35,34,63,38,40,39,37,53,44,32,33,68"/>
<relation type="surround" objects="75,20,55,21,36,54,37,39,42,43,75,74"/>
<relation type="outerP" objects="14,45,22,46,4,3,9,7,59,6,58,5,10,57,13,12,56,20,55,21,36,54,37,53,44,32,52,30,51,29,28,27,49,26,48,25,1,47,0"/>
</svg>