<?xml version="1.0" encoding="UTF-8"?><!DOCTYPE svg PUBLIC "-//W3C//DTD SVG 1.1//EN" "http://www.w3.org/Graphics/SVG/1.1/DTD/svg11.dtd">
<svg xmlns="http://www.w3.org/2000/svg" version="1.1">
<width>1298</width>
<height>1506</height>
<nclasslabel>50</nclasslabel>
<nclassappear>6</nclassappear>
<class>Bidet-1</class>
<class>Bidet-2</class>
<class>Bidet-3</class>
<class>Bidet-4</class>
<class>Door</class>
<class>Door-1</class>
<class>Door-23</class>
<class>Oven-1</class>
<class>Oven-2</class>
<class>Oven-3</class>
<class>Oven-4</class>
<class>Parking</class>
<class>Roof</class>
<class>Room</class>
<class>Separation</class>
<class>Sink-1</class>
<class>Sink-11</class>
<class>Sink-12</class>
<class>Sink-13</class>
<class>Sink-14</class>
<class>Sink-2</class>
<class>Sink-3</class>
<class>Sink-4</class>
<class>Sink-5</class>
<class>Sink-6</class>
<class>Sofa-1</class>
<class>Sofa-3</class>
<class>Sofa-4</class>
<class>Sofa-5</class>
<class>Sofa-6</class>
<class>Sofa-7</class>
<class>Sofa-8</class>
<class>Sofa-9</class>
<class>Stairs-1</class>
<class>Table-1</class>
<class>Table-2</class>
<class>Table-3</class>
<class>Table-4</class>
<class>Table-5</class>
<class>Table-6</class>
<class>Table-7</class>
<class>Text</class>
<class>Tub-1</class>
<class>Tub-3</class>
<class>TV-1</class>
<class>TV-2</class>
<class>Wall</class>
<class>Wall-1</class>
<class>Wallieee</class>
<class>Window</class>
<polygon class="Wall" fill="#AFD8F8" id="0" transcription="" points="555,168.5 831,167.5 831,187.5 555,189.5 " />
<polygon class="Wall" fill="#AFD8F8" id="1" transcription="" points="555,236 578,235 575,169 553,167 " />
<polygon class="Wall" fill="#AFD8F8" id="2" transcription="" points="897,167 1016,168 1018,190 896,191 " />
<polygon class="Wall" fill="#AFD8F8" id="3" transcription="" points="995.5,371.5 1017.5,370.5 1018,168 992.5,166.5 " />
<polygon class="Wall" fill="#AFD8F8" id="4" transcription="" points="995,470 1018,470 1018,396 994,397 " />
<polygon class="Wall" fill="#AFD8F8" id="5" transcription="" points="995,535 1016,534 1018,673 994,672 " />
<polygon class="Wall" fill="#AFD8F8" id="6" transcription="" points="995,700 1018,700 1018,741 995,740 " />
<polygon class="Wall" fill="#AFD8F8" id="7" transcription="" points="898,718 1016,718 1018,741 898,739 " />
<polygon class="Wall" fill="#AFD8F8" id="8" transcription="" points="1004,765 1017,766 1018,727 1003,727 " />
<polygon class="Wall" fill="#AFD8F8" id="9" transcription="" points="1003,824 1018,824 1018,792 1004,791 " />
<polygon class="Wall" fill="#AFD8F8" id="10" transcription="" points="1003,872 1016,872 1018,1131 1005,1131 " />
<polygon class="Wall" fill="#AFD8F8" id="11" transcription="" points="976,1117 1018,1118 1019,1131 976,1131 " />
<polygon class="Wall" fill="#AFD8F8" id="12" transcription="" points="846,1117 804,1117 805,1132 846,1131 " />
<polygon class="Wall" fill="#AFD8F8" id="13" transcription="" points="804,1062 817,1062 820,1132 806,1131 " />
<polygon class="Wall" fill="#AFD8F8" id="14" transcription="" points="797,718 799,1064 818,1063 817,718 " />
<polygon class="Wall" fill="#AFD8F8" id="15" transcription="" points="849,741 796,741 795,716 847,718 " />
<polygon class="Wall" fill="#AFD8F8" id="16" transcription="" points="764,1044 818,1044 818,1064 763,1066 " />
<polygon class="Wall" fill="#AFD8F8" id="17" transcription="" points="710,1043 679,1043 679,1066 709,1065 " />
<polygon class="Wall" fill="#AFD8F8" id="18" transcription="" points="681,1034 695,1050 678,1066 665,1050 " />
<polygon class="Wall" fill="#AFD8F8" id="19" transcription="" points="649,1003 626,983 613,997 633,1019 " />
<polygon class="Wall" fill="#AFD8F8" id="20" transcription="" points="606,1010 606,990 635,990 635,1011 " />
<polygon class="Wall" fill="#AFD8F8" id="21" transcription="" points="518,990 557,990 558,1011 518,1011 " />
<polygon class="Wall" fill="#AFD8F8" id="22" transcription="" points="541,1066 539,990 516,989 519,1066 " />
<polygon class="Wall" fill="#AFD8F8" id="23" transcription="" points="461,1044 539,1043 541,1066 460,1066 " />
<polygon class="Wall" fill="#AFD8F8" id="24" transcription="" points="362,1043 285,1043 284,1066 362,1067 " />
<polygon class="Wall" fill="#AFD8F8" id="25" transcription="" points="305,1000 305,1067 284,1066 285,1000 " />
<polygon class="Wall" fill="#AFD8F8" id="26" transcription="" points="276,1003 292,989 306,1002 292,1017 " />
<polygon class="Wall" fill="#AFD8F8" id="27" transcription="" points="207,934 206,827 228,828 228,930 " />
<polygon class="Wall" fill="#AFD8F8" id="28" transcription="" points="214,943 206,932 221,915 230,926 " />
<polygon class="Wall" fill="#AFD8F8" id="29" transcription="" points="216,817 204,827 220,839 229,829 " />
<polygon class="Wall" fill="#AFD8F8" id="30" transcription="" points="276,754 290,738 306,753 292,768 " />
<polygon class="Wall" fill="#AFD8F8" id="31" transcription="" points="283,607 284,746 304,748 304,607 " />
<polygon class="Wall" fill="#AFD8F8" id="32" transcription="" points="396,606.5 282,605.5 283,627.5 394,627.5 " />
<polygon class="Wall" fill="#AFD8F8" id="33" transcription="" points="504,607 578,607 578,630 505,630 " />
<polygon class="Wall" fill="#AFD8F8" id="34" transcription="" points="557,596 578,596 578,630 557,629 " />
<polygon class="Wall" fill="#AFD8F8" id="35" transcription="" points="555,426 556,510 578,508 577,425 " />
<polygon class="Wall" fill="#AFD8F8" id="36" transcription="" points="555,299 556,384 578,382 577,299 " />
<polygon class="Wall" fill="#AFD8F8" id="37" transcription="" points="573,699 749,700 749,705 573,706 " />
<polygon class="Wall" fill="#AFD8F8" id="38" transcription="" points="573,655 579,655 579,626 573,626 " />
<polygon class="Wall" fill="#AFD8F8" id="39" transcription="" points="620,935 627,935 627,989 621,989 " />
<polygon class="Wall" fill="#AFD8F8" id="40" transcription="" points="627,852 621,852 621,807 626,807 " />
<polygon class="Wall" fill="#AFD8F8" id="41" transcription="" points="620,767 630,766 631,807 620,808 " />
<polygon class="Wall" fill="#AFD8F8" id="42" transcription="" points="698,753 704,753 706,811 700,811 " />
<polygon class="Wall" fill="#AFD8F8" id="43" transcription="" points="620,806 798,806 798,811 620,811 " />
<polygon class="Wall" fill="#AFD8F8" id="44" transcription="" points="747,753 747,758 802,758 802,752 " />
<polygon class="Wall" fill="#AFD8F8" id="45" transcription="" points="743,654 749,654 747,424 743,424 " />
<polygon class="Wall" fill="#AFD8F8" id="46" transcription="" points="576,466 576,472 748,471 747,466 " />
<polygon class="Wall" fill="#AFD8F8" id="47" transcription="" points="701,432 706,431 706,471 700,471 " />
<polygon class="Wall" fill="#AFD8F8" id="48" transcription="" points="749,383 720,356 723,351 751,379 " />
<polygon class="Wall" fill="#AFD8F8" id="49" transcription="" points="796,476 802,475 801,560 796,561 " />
<polygon class="Wall" fill="#AFD8F8" id="50" transcription="" points="577,352 724,352 721,357 577,358 " />
<polygon class="Wall" fill="#AFD8F8" id="51" transcription="" points="771,265 771,187 778,187 778,264 " />
<polygon class="Wall" fill="#AFD8F8" id="52" transcription="" points="812,259 769,259 770,265 812,265 " />
<polygon class="Wall" fill="#AFD8F8" id="53" transcription="" points="812,318 805,318 806,258 813,259 " />
<polygon class="Wall" fill="#AFD8F8" id="54" transcription="" points="775,343 806,314 811,318 780,347 " />
<polygon class="Wall" fill="#AFD8F8" id="55" transcription="" points="770,332 774,327 787,340 784,343 " />
<polygon class="Wall" fill="#AFD8F8" id="56" transcription="" points="793,340 791,344 784,334 787,331 " />
<polygon class="Wall" fill="#AFD8F8" id="57" transcription="" points="824,372 865,373 865,378 824,377 " />
<polygon class="Wall" fill="#AFD8F8" id="58" transcription="" points="860,361 999,360 999,366 860,368 " />
<polygon class="Wall" fill="#AFD8F8" id="59" transcription="" points="865,432 859,432 860,361 865,361 " />
<polygon class="Wall" fill="#AFD8F8" id="60" transcription="" points="796,426 900,427 900,432 797,432 " />
<polygon class="Wall" fill="#AFD8F8" id="61" transcription="" points="939,432 996,431 996,426 939,426 " />
<polygon class="Wall" fill="#AFD8F8" id="62" transcription="" points="837,485 837,480 796,480 797,485 " />
<polygon class="Wall" fill="#AFD8F8" id="63" transcription="" points="835,555 796,555 797,561 836,561 " />
<polygon class="Wall" fill="#AFD8F8" id="64" transcription="" points="795,628 997,627 997,633 795,634 " />
<polygon class="Wall" fill="#AFD8F8" id="65" transcription="" points="837,554 830,555 830,634 835,633 " />
<polygon class="Wall" fill="#AFD8F8" id="66" transcription="" points="803,675 796,675 796,627 802,628 " />
<polygon class="Window" fill="#F6BD0F" id="67" transcription="" points="553.5,234.5 578.5,232.5 578.5,299.5 552.5,299.5 " />
<polygon class="Window" fill="#F6BD0F" id="68" transcription="" points="553,382 579,382 579,426 552,426 " />
<polygon class="Window" fill="#F6BD0F" id="69" transcription="" points="556,508 578,508 579,596 556,596 " />
<polygon class="Window" fill="#F6BD0F" id="70" transcription="" points="396,605 505,607 504,631 394,629 " />
<polygon class="Window" fill="#F6BD0F" id="71" transcription="" points="276,753 293,768 230,831 215,815 " />
<polygon class="Window" fill="#F6BD0F" id="72" transcription="" points="230,925 213,944 276,1003 292,987 " />
<polygon class="Window" fill="#F6BD0F" id="73" transcription="" points="362,1043 461,1042 461,1067 362,1067 " />
<polygon class="Door" fill="#8BBA00" id="74" transcription="" points="607,939 606,1011 557,1011 556,987 560,962 580,944 " />
<polygon class="Window" fill="#F6BD0F" id="75" transcription="" points="651,1002 633,1020 664,1052 682,1034 " />
<polygon class="Window" fill="#F6BD0F" id="76" transcription="" points="708,1042 709,1068 764,1067 763,1041 " />
<polygon class="Parking" fill="#FF8E46" id="77" transcription="" points="846,1118 978,1116 977,1131 846,1130 " />
<polygon class="Door" fill="#8BBA00" id="78" transcription="" points="952,822 1018,822 1017,873 1000,874 971,865 955,843 " />
<polygon class="Door" fill="#8BBA00" id="79" transcription="" points="850,779 848,718 897,716 897,740 892,759 871,775 " />
<polygon class="Window" fill="#F6BD0F" id="80" transcription="" points="995,764 1019,764 1021,793 995,795 " />
<polygon class="Window" fill="#F6BD0F" id="81" transcription="" points="994,673 1020,671 1021,700 993,700 " />
<polygon class="Window" fill="#F6BD0F" id="82" transcription="" points="995,470 1020,471 1018,535 994,536 " />
<polygon class="Window" fill="#F6BD0F" id="83" transcription="" points="994,372 1020,370 1020,397 992,398 " />
<polygon class="Window" fill="#F6BD0F" id="84" transcription="" points="831,165 897,164 897,190 831,191 " />
<polygon class="Door" fill="#8BBA00" id="85" transcription="" points="747.5,312 778.5,345 751.5,379 735.5,356 734.5,330 " />
<polygon class="Door" fill="#8BBA00" id="86" transcription="" points="702,384 748,384 748,425 729,425 707,407 " />
<polygon class="Door" fill="#8BBA00" id="87" transcription="" points="851,339 820,370 789,340 806,330 829,326 " />
<polygon class="Door" fill="#8BBA00" id="88" transcription="" points="904,452 940,428 897,427 897,441 " />
<polygon class="Door" fill="#8BBA00" id="89" transcription="" points="845,435 796,431 796,478 827,471 840,454 " />
<polygon class="Door" fill="#8BBA00" id="90" transcription="" points="750,581 748,632 796,634 792,605 776,586 " />
<polygon class="Door" fill="#8BBA00" id="91" transcription="" points="696,702 748,700 749,649 724,653 702,672 " />
<polygon class="Door" fill="#8BBA00" id="92" transcription="" points="849,718 795,718 794,671 818,672 844,691 " />
<polygon class="Door" fill="#8BBA00" id="93" transcription="" points="706,799 704,753 747,753 743,779 727,795 " />
<polygon class="Door" fill="#8BBA00" id="94" transcription="" points="629,699 573,700 573,653 606,658 623,678 " />
<polygon class="Room" fill="#008E8E" id="95" transcription="" points="578,190.5 578,348.5 722,348.5 750,373.5 804,313.5 804,264.5 769,265.5 768,189.5 " />
<polygon class="Room" fill="#008E8E" id="96" transcription="" points="990.5,192 994.5,357 857.5,358 856.5,369 824.5,369 792.5,337 812.5,317 813.5,256 777.5,255 779.5,190 " />
<polygon class="Room" fill="#008E8E" id="97" transcription="" points="867,369 865,425 992,422 994,367 " />
<polygon class="Room" fill="#008E8E" id="98" transcription="" points="995,624 836,625 838,552 802,552 803,486 838,486 840,475 804,477 804,433 993,432 " />
<polygon class="Room" fill="#008E8E" id="99" transcription="" points="580,473 580,696 742,698 741,472 " />
<polygon class="Room" fill="#008E8E" id="100" transcription="" points="578.5,358.5 578.5,462.5 698.5,462.5 698.5,429.5 705.5,428.5 706.5,463.5 740.5,462.5 742.5,376.5 719.5,357.5 " />
<polygon class="Room" fill="#008E8E" id="101" transcription="" points="787,342 749,385 750,625 827,625 828,562 796,561 794,424 858,425 858,380 823,379 " />
<polygon class="Room" fill="#008E8E" id="102" transcription="" points="995,635 994,715 805,715 803,635 " />
<polygon class="Room" fill="#008E8E" id="103" transcription="" points="820,1116.5 1004,1115.5 1002,741.5 818,741.5 " />
<polygon class="Room" fill="#008E8E" id="104" transcription="" points="630,707 750,703 749,631 794,634 795,748 700,749 697,803 631,803 " />
<polygon class="Room" fill="#008E8E" id="105" transcription="" points="708,803 794,802 795,759 708,759 " />
<polygon class="Room" fill="#008E8E" id="106" transcription="" points="628,813 627,981 690,1042 796,1042 795,812 " />
<polygon class="Room" fill="#008E8E" id="107" transcription="" points="306.5,630.5 305.5,752.5 228.5,833.5 229.5,923.5 306.5,999.5 306.5,1039.5 516.5,1040.5 513.5,986.5 618.5,988.5 619.5,705.5 570.5,705.5 569.5,631.5 " />
<polygon class="Separation" fill="#D64646" id="108" transcription="" points="619,702 630,702 630,765 619,765 " />
<polygon class="Separation" fill="#D64646" id="109" transcription="" points="618,851 629,851 629,931 618,931 " />
<relation type="incident" objects="54,56"/>
<relation type="incident" objects="87,56"/>
<relation type="incident" objects="54,55"/>
<relation type="access" objects="107,74,107"/>
<relation type="access" objects="103,78,103"/>
<relation type="incident" objects="108,37"/>
<relation type="incident" objects="108,41"/>
<relation type="incident" objects="109,40"/>
<relation type="incident" objects="109,39"/>
<relation type="incident" objects="0,1"/>
<relation type="incident" objects="67,1"/>
<relation type="incident" objects="67,36"/>
<relation type="incident" objects="36,68"/>
<relation type="incident" objects="68,35"/>
<relation type="incident" objects="35,69"/>
<relation type="incident" objects="69,34"/>
<relation type="incident" objects="34,33"/>
<relation type="incident" objects="33,70"/>
<relation type="incident" objects="70,32"/>
<relation type="incident" objects="32,31"/>
<relation type="incident" objects="31,30"/>
<relation type="incident" objects="30,71"/>
<relation type="incident" objects="27,28"/>
<relation type="incident" objects="28,72"/>
<relation type="incident" objects="72,26"/>
<relation type="incident" objects="26,25"/>
<relation type="incident" objects="25,24"/>
<relation type="incident" objects="24,73"/>
<relation type="incident" objects="71,29"/>
<relation type="incident" objects="29,27"/>
<relation type="incident" objects="73,23"/>
<relation type="incident" objects="23,22"/>
<relation type="incident" objects="22,21"/>
<relation type="incident" objects="21,74"/>
<relation type="incident" objects="74,20"/>
<relation type="incident" objects="20,19"/>
<relation type="incident" objects="19,75"/>
<relation type="incident" objects="75,18"/>
<relation type="incident" objects="18,17"/>
<relation type="incident" objects="17,76"/>
<relation type="incident" objects="76,16"/>
<relation type="incident" objects="16,13"/>
<relation type="incident" objects="13,12"/>
<relation type="incident" objects="12,77"/>
<relation type="incident" objects="77,11"/>
<relation type="incident" objects="11,10"/>
<relation type="incident" objects="10,78"/>
<relation type="incident" objects="78,9"/>
<relation type="incident" objects="9,80"/>
<relation type="incident" objects="80,8"/>
<relation type="incident" objects="8,6"/>
<relation type="incident" objects="6,81"/>
<relation type="incident" objects="81,5"/>
<relation type="incident" objects="5,82"/>
<relation type="incident" objects="82,4"/>
<relation type="incident" objects="83,4"/>
<relation type="incident" objects="83,3"/>
<relation type="incident" objects="3,2"/>
<relation type="incident" objects="2,84"/>
<relation type="incident" objects="84,0"/>
<relation type="incident" objects="0,51"/>
<relation type="incident" objects="51,52"/>
<relation type="incident" objects="52,53"/>
<relation type="incident" objects="53,54"/>
<relation type="incident" objects="54,85"/>
<relation type="incident" objects="85,48"/>
<relation type="incident" objects="48,50"/>
<relation type="incident" objects="50,36"/>
<relation type="incident" objects="48,86"/>
<relation type="incident" objects="86,45"/>
<relation type="incident" objects="45,46"/>
<relation type="incident" objects="46,35"/>
<relation type="incident" objects="46,47"/>
<relation type="incident" objects="3,58"/>
<relation type="incident" objects="57,87"/>
<relation type="incident" objects="57,59"/>
<relation type="incident" objects="58,59"/>
<relation type="incident" objects="59,60"/>
<relation type="incident" objects="60,88"/>
<relation type="incident" objects="88,61"/>
<relation type="incident" objects="61,4"/>
<relation type="incident" objects="60,89"/>
<relation type="incident" objects="89,49"/>
<relation type="incident" objects="49,62"/>
<relation type="incident" objects="49,63"/>
<relation type="incident" objects="63,65"/>
<relation type="incident" objects="65,64"/>
<relation type="incident" objects="64,5"/>
<relation type="incident" objects="64,90"/>
<relation type="incident" objects="90,45"/>
<relation type="incident" objects="45,91"/>
<relation type="incident" objects="91,37"/>
<relation type="incident" objects="37,94"/>
<relation type="incident" objects="94,38"/>
<relation type="incident" objects="38,33"/>
<relation type="incident" objects="38,34"/>
<relation type="incident" objects="90,66"/>
<relation type="incident" objects="66,64"/>
<relation type="incident" objects="66,92"/>
<relation type="incident" objects="92,15"/>
<relation type="incident" objects="15,92"/>
<relation type="incident" objects="14,92"/>
<relation type="incident" objects="14,13"/>
<relation type="incident" objects="14,16"/>
<relation type="incident" objects="15,79"/>
<relation type="incident" objects="79,7"/>
<relation type="incident" objects="7,6"/>
<relation type="incident" objects="7,8"/>
<relation type="incident" objects="14,44"/>
<relation type="incident" objects="44,93"/>
<relation type="incident" objects="93,42"/>
<relation type="incident" objects="42,43"/>
<relation type="incident" objects="43,14"/>
<relation type="incident" objects="43,41"/>
<relation type="incident" objects="43,40"/>
<relation type="incident" objects="41,40"/>
<relation type="incident" objects="39,19"/>
<relation type="incident" objects="39,20"/>
<relation type="access" objects="107,108,104"/>
<relation type="access" objects="107,109,106"/>
<relation type="access" objects="107,94,99"/>
<relation type="access" objects="104,93,105"/>
<relation type="access" objects="104,90,101"/>
<relation type="access" objects="99,91,104"/>
<relation type="access" objects="104,92,102"/>
<relation type="access" objects="102,79,103"/>
<relation type="access" objects="101,89,98"/>
<relation type="access" objects="98,88,97"/>
<relation type="access" objects="101,87,96"/>
<relation type="access" objects="101,85,95"/>
<relation type="access" objects="101,86,100"/>
<relation type="outerP" objects="0,1,67,36,68,35,69,34,33,70,32,31,30,71,29,27,28,72,26,25,24,73,23,22,21,74,20,19,75,18,17,76,16,13,12,77,11,10,78,9,80,8,6,81,5,82,4,83,3,2,84"/>
<relation type="neighbour" objects="95,96"/>
<relation type="neighbour" objects="96,101"/>
<relation type="neighbour" objects="101,97"/>
<relation type="neighbour" objects="97,96"/>
<relation type="neighbour" objects="95,101"/>
<relation type="neighbour" objects="101,100"/>
<relation type="neighbour" objects="100,95"/>
<relation type="neighbour" objects="99,101"/>
<relation type="neighbour" objects="99,100"/>
<relation type="neighbour" objects="101,98"/>
<relation type="neighbour" objects="98,97"/>
<relation type="neighbour" objects="101,102"/>
<relation type="neighbour" objects="102,98"/>
<relation type="neighbour" objects="99,104"/>
<relation type="neighbour" objects="104,101"/>
<relation type="neighbour" objects="104,102"/>
<relation type="neighbour" objects="104,107"/>
<relation type="neighbour" objects="107,99"/>
<relation type="neighbour" objects="107,106"/>
<relation type="neighbour" objects="106,104"/>
<relation type="neighbour" objects="106,105"/>
<relation type="neighbour" objects="105,104"/>
<relation type="neighbour" objects="105,103"/>
<relation type="neighbour" objects="103,102"/>
<relation type="neighbour" objects="103,106"/>
<relation type="surround" objects="0,1,67,36,50,48,85,54,53,52,51,0,95"/>
<relation type="surround" objects="0,84,2,3,58,59,57,87,56,54,53,52,51,0,96"/>
<relation type="surround" objects="50,48,86,45,46,35,68,36,50,100"/>
<relation type="surround" objects="46,45,91,37,94,38,34,69,35,46,99"/>
<relation type="surround" objects="58,3,83,4,61,88,60,59,58,97"/>
<relation type="surround" objects="60,88,61,4,82,5,64,65,63,49,89,60,98"/>
<relation type="surround" objects="85,54,56,87,57,59,60,89,49,63,65,64,90,45,86,48,85,101"/>
<relation type="surround" objects="64,5,81,6,7,79,15,92,66,64,102"/>
<relation type="surround" objects="37,91,45,90,66,92,14,44,93,42,43,41,108,37,104"/>
<relation type="surround" objects="93,44,14,43,42,93,105"/>
<relation type="surround" objects="15,79,7,8,80,9,78,10,11,77,12,13,14,15,103"/>
<relation type="surround" objects="43,14,16,76,17,18,75,19,39,109,40,43,106"/>
<relation type="surround" objects="29,71,30,31,32,70,33,38,94,37,108,41,40,109,39,20,74,21,22,23,73,24,25,26,72,28,27,29,107"/>
</svg>