<?xml version="1.0" encoding="UTF-8"?><!DOCTYPE svg PUBLIC "-//W3C//DTD SVG 1.1//EN" "http://www.w3.org/Graphics/SVG/1.1/DTD/svg11.dtd">
<svg xmlns="http://www.w3.org/2000/svg" version="1.1">
<width>3508</width>
<height>2479</height>
<nclasslabel>50</nclasslabel>
<nclassappear>4</nclassappear>
<class>Bidet-1</class>
<class>Bidet-2</class>
<class>Bidet-3</class>
<class>Bidet-4</class>
<class>Door</class>
<class>Door-1</class>
<class>Door-23</class>
<class>Oven-1</class>
<class>Oven-2</class>
<class>Oven-3</class>
<class>Oven-4</class>
<class>Parking</class>
<class>Roof</class>
<class>Room</class>
<class>Separation</class>
<class>Sink-1</class>
<class>Sink-11</class>
<class>Sink-12</class>
<class>Sink-13</class>
<class>Sink-14</class>
<class>Sink-2</class>
<class>Sink-3</class>
<class>Sink-4</class>
<class>Sink-5</class>
<class>Sink-6</class>
<class>Sofa-1</class>
<class>Sofa-3</class>
<class>Sofa-4</class>
<class>Sofa-5</class>
<class>Sofa-6</class>
<class>Sofa-7</class>
<class>Sofa-8</class>
<class>Sofa-9</class>
<class>Stairs-1</class>
<class>Table-1</class>
<class>Table-2</class>
<class>Table-3</class>
<class>Table-4</class>
<class>Table-5</class>
<class>Table-6</class>
<class>Table-7</class>
<class>Text</class>
<class>Tub-1</class>
<class>Tub-3</class>
<class>TV-1</class>
<class>TV-2</class>
<class>Wall</class>
<class>Wall-1</class>
<class>Wallieee</class>
<class>Window</class>
<polygon class="Window" fill="#AFD8F8" id="-1" transcription="" points="679,545 558,548 560,686 679,687 " />
<polygon class="Window" fill="#AFD8F8" id="0" transcription="" points="677,941.5 553,938.5 553,1082.5 677,1082.5 " />
<polygon class="Window" fill="#AFD8F8" id="1" transcription="" points="709,1454 853,1451 852,1573 711,1574 " />
<polygon class="Window" fill="#AFD8F8" id="2" transcription="" points="1294,1454.5 1435,1451.5 1437,1573.5 1292,1573.5 " />
<polygon class="Window" fill="#AFD8F8" id="3" transcription="" points="1670.5,483.5 1670.5,361.5 1816.5,361.5 1813.5,480.5 " />
<polygon class="Window" fill="#AFD8F8" id="4" transcription="" points="2051,1048 2191,1048 2192,1164 2054,1168 " />
<polygon class="Window" fill="#AFD8F8" id="5" transcription="" points="2401,883 2461,883 2464,1024 2400,1021 " />
<polygon class="Window" fill="#AFD8F8" id="6" transcription="" points="2860,437 2903,434 2905,718 2858,715 " />
<polygon class="Window" fill="#AFD8F8" id="7" transcription="" points="1970,357 2042,359 2044,399 1970,400 " />
<polygon class="Window" fill="#AFD8F8" id="8" transcription="" points="2423,360 2498,359 2501,400 2421,399 " />
<polygon class="Window" fill="#AFD8F8" id="9" transcription="" points="2620,753 2693,756 2700,798 2620,796 " />
<polygon class="Door" fill="#F6BD0F" id="10" transcription="" points="2127,668 2172,702 2185,756 2087,761 2081,662 " />
<polygon class="Door" fill="#F6BD0F" id="11" transcription="" points="1972.5,670.5 2011.5,674.5 2043.5,698.5 2062.5,722.5 2073.5,767.5 1975.5,765.5 " />
<polygon class="Door" fill="#F6BD0F" id="12" transcription="" points="1699,1013 1646,1023 1606,1058 1585,1138 1699,1125 " />
<polygon class="Door" fill="#F6BD0F" id="13" transcription="" points="1436,1045 1463,1075 1494,1096 1529,1099 1531,994 1434,993 " />
<polygon class="Door" fill="#F6BD0F" id="14" transcription="" points="1515,732 1475,695 1428,689 1425,788 1529,790 " />
<polygon class="Door" fill="#F6BD0F" id="15" transcription="" points="1204.5,579.5 1251.5,585.5 1288.5,622.5 1304.5,680.5 1203.5,680.5 " />
<polygon class="Door" fill="#F6BD0F" id="16" transcription="" points="1152,692 1114,723 1101,776 1202,779 1207,673 " />
<polygon class="Door" fill="#F6BD0F" id="17" transcription="" points="1100.5,803.5 1105.5,848.5 1140.5,887.5 1201.5,901.5 1199.5,802.5 " />
<polygon class="Door" fill="#F6BD0F" id="18" transcription="" points="1153.5,909.5 1116.5,938.5 1103.5,997.5 1207.5,999.5 1206.5,900.5 " />
<polygon class="Door" fill="#F6BD0F" id="19" transcription="" points="1876,836.5 1837,877.5 1784,884.5 1784,791.5 1884,789.5 " />
<polygon class="Wall" fill="#8BBA00" id="20" transcription="" points="560,367 1154,369 1153,410 562,413 " />
<polygon class="Window" fill="#AFD8F8" id="21" transcription="" points="1224,360 1226,410 1156,408 1151,363 " />
<polygon class="Wall" fill="#8BBA00" id="22" transcription="" points="1226,366.5 1674,368.5 1674,409.5 1228,407.5 " />
<polygon class="Wall" fill="#8BBA00" id="23" transcription="" points="1886,367 1816,366 1814.5,387 1813,408 1886,413 " />
<polygon class="Wall" fill="#8BBA00" id="24" transcription="" points="1888.75,788 1887,357 1859.25,366 1859.25,788 " />
<polygon class="Wall" fill="#8BBA00" id="25" transcription="" points="1883,366 1974,366 1975,392 1888,392 " />
<polygon class="Wall" fill="#8BBA00" id="26" transcription="" points="2418.5,367 2423.5,394 2044.5,394 2041.5,367 " />
<polygon class="Wall" fill="#8BBA00" id="27" transcription="" points="2895,366.5 2494,368.5 2497,390.5 2897,391.5 " />
<polygon class="Wall" fill="#8BBA00" id="28" transcription="" points="2895,787 2694,787 2694,762 2895,763 " />
<polygon class="Wall" fill="#8BBA00" id="29" transcription="" points="2897,363 2895,435 2867,432 2866,364 " />
<polygon class="Wall" fill="#8BBA00" id="30" transcription="" points="2900,719 2894,788 2867,785 2870,719 " />
<polygon class="Wall" fill="#8BBA00" id="31" transcription="" points="2074,788 2620,786 2619,763 2072,760 " />
<polygon class="Wall" fill="#8BBA00" id="32" transcription="" points="2457,761 2409,763 2412,883 2456,881 " />
<polygon class="Wall" fill="#8BBA00" id="33" transcription="" points="2455,1164 2455,1017 2409,1019 2409,1161 " />
<polygon class="Wall" fill="#8BBA00" id="34" transcription="" points="2191.5,1116 2451.5,1116 2448.5,1163 2194.5,1160 " />
<polygon class="Wall" fill="#8BBA00" id="35" transcription="" points="1699,1114 2055,1116 2052,1156 1702,1158 " />
<polygon class="Wall" fill="#8BBA00" id="36" transcription="" points="1594,1167 1561.5,1156 1520,1167 1529,1136 1530,1116 1563.5,1116.5 1597,1117 " />
<polygon class="Wall" fill="#8BBA00" id="37" transcription="" points="1573,1566 1571,1119 1528,1119 1531,1566 " />
<polygon class="Wall" fill="#8BBA00" id="38" transcription="" points="1433.5,1525 1438.5,1569 1575.5,1569 1572.5,1523 " />
<polygon class="Wall" fill="#8BBA00" id="39" transcription="" points="851,1523 850,1570 1293,1569 1295,1525 " />
<polygon class="Wall" fill="#8BBA00" id="40" transcription="" points="561,1566.5 709,1565.5 709,1524.5 561,1519.5 " />
<polygon class="Wall" fill="#8BBA00" id="41" transcription="" points="561,1079.5 559,1565.5 609,1566 609,1082 " />
<polygon class="Wall" fill="#8BBA00" id="42" transcription="" points="564,685.5 562,936.5 604,938.5 604,688.5 " />
<polygon class="Wall" fill="#8BBA00" id="43" transcription="" points="561,367 562,547 603,547 607,367 " />
<polygon class="Wall" fill="#8BBA00" id="44" transcription="" points="1046,682 1046,409 1058,410 1057,682 " />
<polygon class="Wall" fill="#8BBA00" id="45" transcription="" points="1208,672.5 1209,683.5 1044,682.5 1044,669.5 " />
<polygon class="Wall" fill="#8BBA00" id="46" transcription="" points="1316,676 1316,788 1305,789 1305,676 " />
<polygon class="Wall" fill="#8BBA00" id="47" transcription="" points="1424,779 1424,789 1304,788 1304,777 " />
<polygon class="Wall" fill="#8BBA00" id="48" transcription="" points="1427,405 1415,403 1415,788 1429,788 " />
<polygon class="Wall" fill="#8BBA00" id="49" transcription="" points="603,779 1198,780 1200,789 603,789 " />
<polygon class="Wall" fill="#8BBA00" id="50" transcription="" points="1974,762 1974,786 1883,787 1882,761 " />
<polygon class="Wall" fill="#8BBA00" id="51" transcription="" points="1524,778 1524,789 1861,790 1860,777 " />
<polygon class="Wall" fill="#8BBA00" id="52" transcription="" points="1708,885 1708,897 1792,897 1793,885 " />
<polygon class="Wall" fill="#8BBA00" id="53" transcription="" points="1795.5,1118 1783.5,1118 1783.5,887 1794.5,888 " />
<polygon class="Wall" fill="#8BBA00" id="54" transcription="" points="1539,994 1539,1115 1527,1116 1526,995 " />
<polygon class="Wall" fill="#8BBA00" id="55" transcription="" points="1194,997.5 1437,996.5 1437,1006.5 1194,1006.5 " />
<polygon class="Wall" fill="#8BBA00" id="56" transcription="" points="1192,998.5 1194,1521.5 1205,1521.5 1202,999.5 " />
<polygon class="Wall" fill="#8BBA00" id="57" transcription="" points="1139,1469 1205,1469 1204,1480 1139,1480 " />
<polygon class="Wall" fill="#8BBA00" id="58" transcription="" points="1138,1465 1149,1465 1151,1522 1139,1523 " />
<polygon class="Wall" fill="#8BBA00" id="59" transcription="" points="2084,392 2084,666 2097,667 2095,393 " />
<polygon class="Room" fill="#FF8E46" id="60" transcription="" points="608,797.5 1187,794.5 1190,1508.5 610,1510.5 " />
<polygon class="Room" fill="#FF8E46" id="61" transcription="" points="1211,1014 1213,1516 1523,1516 1521,1014 " />
<polygon class="Room" fill="#FF8E46" id="62" transcription="" points="610,420 1040,417 1035,687 1197,694 1201,772 610,772 " />
<polygon class="Room" fill="#FF8E46" id="63" transcription="" points="1215.5,987.5 1541.5,985.5 1548.5,1109.5 1773.5,1104.5 1771.5,794.5 1301.5,797.5 1294.5,682.5 1210.5,684.5 " />
<polygon class="Room" fill="#FF8E46" id="64" transcription="" points="1800,798 2399,795 2399,1108 1802,1108 " />
<polygon class="Room" fill="#FF8E46" id="65" transcription="" points="2105,402.5 2857,398.5 2861,752.5 2103,747.5 " />
<polygon class="Room" fill="#FF8E46" id="66" transcription="" points="1893.5,401 2076.5,399 2076.5,748 1888.5,753 " />
<polygon class="Room" fill="#FF8E46" id="67" transcription="" points="1847,419.5 1852,761.5 1434,764.5 1429,416.5 " />
<polygon class="Room" fill="#FF8E46" id="68" transcription="" points="1063,417 1406,413 1408,770 1321,770 1317,671 1061,666 " />
<relation type="incident" objects="20,21"/>
<relation type="incident" objects="22,21"/>
<relation type="incident" objects="42,49"/>
<relation type="neighbour" objects="62,68"/>
<relation type="access" objects="62,63,16"/>
<relation type="incident" objects="22,3"/>
<relation type="incident" objects="3,23"/>
<relation type="incident" objects="23,25"/>
<relation type="incident" objects="7,25"/>
<relation type="incident" objects="7,26"/>
<relation type="incident" objects="26,8"/>
<relation type="incident" objects="8,27"/>
<relation type="incident" objects="27,29"/>
<relation type="incident" objects="6,29"/>
<relation type="incident" objects="6,30"/>
<relation type="incident" objects="28,30"/>
<relation type="incident" objects="28,9"/>
<relation type="incident" objects="31,9"/>
<relation type="incident" objects="31,32"/>
<relation type="incident" objects="32,5"/>
<relation type="incident" objects="33,5"/>
<relation type="incident" objects="33,34"/>
<relation type="incident" objects="34,4"/>
<relation type="incident" objects="35,4"/>
<relation type="incident" objects="35,12"/>
<relation type="incident" objects="12,36"/>
<relation type="incident" objects="36,37"/>
<relation type="incident" objects="37,38"/>
<relation type="incident" objects="38,2"/>
<relation type="incident" objects="2,39"/>
<relation type="incident" objects="39,1"/>
<relation type="incident" objects="1,40"/>
<relation type="incident" objects="40,41"/>
<relation type="incident" objects="41,0"/>
<relation type="incident" objects="0,42"/>
<relation type="incident" objects="42,-1"/>
<relation type="incident" objects="-1,43"/>
<relation type="incident" objects="43,20"/>
<relation type="incident" objects="16,45"/>
<relation type="incident" objects="44,45"/>
<relation type="incident" objects="44,20"/>
<relation type="incident" objects="49,16"/>
<relation type="incident" objects="45,15"/>
<relation type="incident" objects="15,46"/>
<relation type="incident" objects="47,46"/>
<relation type="incident" objects="47,48"/>
<relation type="incident" objects="48,22"/>
<relation type="incident" objects="47,14"/>
<relation type="incident" objects="14,51"/>
<relation type="incident" objects="51,24"/>
<relation type="incident" objects="24,25"/>
<relation type="incident" objects="24,23"/>
<relation type="incident" objects="24,50"/>
<relation type="incident" objects="50,11"/>
<relation type="incident" objects="11,31"/>
<relation type="incident" objects="10,31"/>
<relation type="incident" objects="59,26"/>
<relation type="incident" objects="10,59"/>
<relation type="incident" objects="51,19"/>
<relation type="incident" objects="19,53"/>
<relation type="incident" objects="53,35"/>
<relation type="incident" objects="36,13"/>
<relation type="incident" objects="13,55"/>
<relation type="incident" objects="55,56"/>
<relation type="incident" objects="56,39"/>
<relation type="incident" objects="57,56"/>
<relation type="incident" objects="58,57"/>
<relation type="incident" objects="58,39"/>
<relation type="incident" objects="56,55"/>
<relation type="incident" objects="56,18"/>
<relation type="incident" objects="18,55"/>
<relation type="incident" objects="18,17"/>
<relation type="neighbour" objects="68,67"/>
<relation type="neighbour" objects="67,66"/>
<relation type="neighbour" objects="66,65"/>
<relation type="neighbour" objects="65,64"/>
<relation type="neighbour" objects="66,64"/>
<relation type="neighbour" objects="67,64"/>
<relation type="neighbour" objects="67,63"/>
<relation type="neighbour" objects="64,63"/>
<relation type="neighbour" objects="63,68"/>
<relation type="neighbour" objects="63,62"/>
<relation type="neighbour" objects="62,60"/>
<relation type="neighbour" objects="60,63"/>
<relation type="neighbour" objects="60,61"/>
<relation type="neighbour" objects="61,63"/>
<relation type="access" objects="68,63,15"/>
<relation type="access" objects="67,63,14"/>
<relation type="access" objects="66,64,11"/>
<relation type="access" objects="65,66,10"/>
<relation type="access" objects="64,63,19"/>
<relation type="access" objects="63,17,60"/>
<relation type="access" objects="60,63,18"/>
<relation type="access" objects="61,63,13"/>
<relation type="access" objects="63,12,63"/>
<relation type="outerP" objects="20,21,22,3,23,25,7,26,8,27,29,6,30,28,9,31,32,5,33,34,4,35,12,36,37,38,2,39,1,40,41,0,42,-1,43"/>
<relation type="surround" objects="20,44,45,16,49,42,-1,43,20,62"/>
<relation type="surround" objects="49,17,18,56,39,1,40,41,0,42,49,60"/>
<relation type="surround" objects="55,13,54,37,38,2,39,56,55,61"/>
<relation type="surround" objects="20,21,22,48,47,46,15,45,44,20,68"/>
<relation type="surround" objects="22,3,23,24,51,14,48,22,67"/>
<relation type="surround" objects="25,7,26,59,10,31,11,50,24,25,66"/>
<relation type="surround" objects="26,8,27,29,6,30,28,9,31,10,59,26,65"/>
<relation type="surround" objects="51,50,11,31,32,5,33,34,4,35,53,19,51,64"/>
<relation type="surround" objects="15,46,47,14,51,19,53,35,12,36,54,13,55,18,17,49,16,45,15,63"/>
</svg>