<?xml version="1.0" encoding="UTF-8"?><!DOCTYPE svg PUBLIC "-//W3C//DTD SVG 1.1//EN" "http://www.w3.org/Graphics/SVG/1.1/DTD/svg11.dtd">
<svg xmlns="http://www.w3.org/2000/svg" version="1.1">
<width>2479</width>
<height>3508</height>
<nclasslabel>50</nclasslabel>
<nclassappear>5</nclassappear>
<class>Bidet-1</class>
<class>Bidet-2</class>
<class>Bidet-3</class>
<class>Bidet-4</class>
<class>Door</class>
<class>Door-1</class>
<class>Door-23</class>
<class>Oven-1</class>
<class>Oven-2</class>
<class>Oven-3</class>
<class>Oven-4</class>
<class>Parking</class>
<class>Roof</class>
<class>Room</class>
<class>Separation</class>
<class>Sink-1</class>
<class>Sink-11</class>
<class>Sink-12</class>
<class>Sink-13</class>
<class>Sink-14</class>
<class>Sink-2</class>
<class>Sink-3</class>
<class>Sink-4</class>
<class>Sink-5</class>
<class>Sink-6</class>
<class>Sofa-1</class>
<class>Sofa-3</class>
<class>Sofa-4</class>
<class>Sofa-5</class>
<class>Sofa-6</class>
<class>Sofa-7</class>
<class>Sofa-8</class>
<class>Sofa-9</class>
<class>Stairs-1</class>
<class>Table-1</class>
<class>Table-2</class>
<class>Table-3</class>
<class>Table-4</class>
<class>Table-5</class>
<class>Table-6</class>
<class>Table-7</class>
<class>Text</class>
<class>Tub-1</class>
<class>Tub-3</class>
<class>TV-1</class>
<class>TV-2</class>
<class>Wall</class>
<class>Wall-1</class>
<class>Wallieee</class>
<class>Window</class>
<polygon class="Wall" fill="#AFD8F8" id="0" transcription="" points="917,811 944,810 944,857 918,858 " />
<polygon class="Wall" fill="#AFD8F8" id="1" transcription="" points="1699,746 1722,745 1722,772 1699,772 " />
<polygon class="Wall" fill="#AFD8F8" id="2" transcription="" points="641,1340 684,1342 682,1713 641,1715 " />
<polygon class="Window" fill="#F6BD0F" id="4" transcription="" points="1284,406 1354,406 1354,445 1283,447 " />
<polygon class="Window" fill="#F6BD0F" id="5" transcription="" points="910,736 948,735 948,814 913,814 " />
<polygon class="Window" fill="#F6BD0F" id="6" transcription="" points="1687,464 1730,463 1728,745 1689,746 " />
<polygon class="Window" fill="#F6BD0F" id="7" transcription="" points="1683,770 1731,767 1732,1047 1687,1051 " />
<polygon class="Window" fill="#F6BD0F" id="8" transcription="" points="1910,1205 1967,1206 1967,1280 1909,1281 " />
<polygon class="Window" fill="#F6BD0F" id="9" transcription="" points="1908,1427 1966,1424 1967,1575 1908,1576 " />
<polygon class="Window" fill="#F6BD0F" id="10" transcription="" points="1909,2086 1969,2086 1967,2187 1908,2186 " />
<polygon class="Window" fill="#F6BD0F" id="11" transcription="" points="1908,2446 1967,2449 1967,2596 1910,2596 " />
<polygon class="Window" fill="#F6BD0F" id="12" transcription="" points="1166,2790 1313,2790 1312,2853 1166,2854 " />
<polygon class="Window" fill="#F6BD0F" id="13" transcription="" points="910,2048 1037,2052 1024,2097 992,2122 1028,2143 1041,2195 911,2193 " />
<polygon class="Window" fill="#F6BD0F" id="14" transcription="" points="909,2383 970,2383 969,2456 909,2460 " />
<polygon class="Window" fill="#F6BD0F" id="15" transcription="" points="911,851 949,852 952,950 910,954 " />
<polygon class="Window" fill="#F6BD0F" id="16" transcription="" points="635,1128 755,1130 746,1175 709,1201 743,1219 756,1266 688,1270 691,1347 634,1345 " />
<polygon class="Window" fill="#F6BD0F" id="17" transcription="" points="634,1711 755,1715 747,1753 710,1784 746,1807 756,1854 688,1854 686,1930 634,1933 " />
<polygon class="Window" fill="#F6BD0F" id="18" transcription="" points="906,1865 909,1983 690,1986 687,1929 767,1930 769,1860 816,1878 837,1913 862,1872 " />
<polygon class="Door" fill="#8BBA00" id="19" transcription="" points="1749,1789 1709,1824 1695,1883 1815,1883 1814,1775 " />
<polygon class="Window" fill="#F6BD0F" id="20" transcription="" points="1848,1904 1792,1905 1791,1948 1848,1951 " />
<polygon class="Door" fill="#8BBA00" id="21" transcription="" points="1681,2083 1666,2137 1632,2172 1579,2179 1578,2083 " />
<polygon class="Door" fill="#8BBA00" id="22" transcription="" points="1680,2461 1578,2461 1574,2362 1632,2373 1669,2409 " />
<polygon class="Door" fill="#8BBA00" id="23" transcription="" points="1680,2618 1667,2668 1625,2704 1573,2710 1572,2618 " />
<polygon class="Door" fill="#8BBA00" id="24" transcription="" points="1363,2618 1374,2663 1402,2696 1462,2714 1462,2616 " />
<polygon class="Door" fill="#8BBA00" id="25" transcription="" points="1300,2562 1356,2549 1389,2510 1398,2466 1300,2461 " />
<polygon class="Door" fill="#8BBA00" id="26" transcription="" points="1388,2315 1351,2274 1301,2268 1300,2365 1396,2366 " />
<polygon class="Door" fill="#8BBA00" id="27" transcription="" points="1533.5,1980 1484.5,1988 1480.5,1883 1580.5,1884 1572.5,1932 " />
<polygon class="Door" fill="#8BBA00" id="28" transcription="" points="1585,1885 1584,1996 1554,1992 1530,1978 " />
<polygon class="Door" fill="#8BBA00" id="29" transcription="" points="1678,1171 1640,1200 1597,1208 1596,1072 1690,1072 1692,1124 " />
<polygon class="Door" fill="#8BBA00" id="30" transcription="" points="1677,1248 1692,1307 1596,1309 1595,1212 1640,1217 " />
<polygon class="Wall" fill="#AFD8F8" id="31" transcription="" points="918,416 1287,413 1286,443 918,440 " />
<polygon class="Wall" fill="#AFD8F8" id="32" transcription="" points="1721,415 1353,416 1353,440 1721,443 " />
<polygon class="Wall" fill="#AFD8F8" id="33" transcription="" points="917,415 917,740 943,741 945,416 " />
<polygon class="Wall" fill="#AFD8F8" id="34" transcription="" points="1723,413 1698,413 1694,468 1725,468 " />
<polygon class="Wall" fill="#AFD8F8" id="35" transcription="" points="642,1077 1595,1077 1596,1116 640,1118 " />
<polygon class="Wall" fill="#AFD8F8" id="36" transcription="" points="918,952 918,1113 945,1111 943,949 " />
<polygon class="Wall" fill="#AFD8F8" id="37" transcription="" points="1957,1075 1687,1075 1692,1119 1959,1118 " />
<polygon class="Wall" fill="#AFD8F8" id="38" transcription="" points="1723,1052 1725,1119 1696,1118 1696,1054 " />
<polygon class="Wall" fill="#AFD8F8" id="39" transcription="" points="1959,1077 1960,1206 1915,1203 1915,1074 " />
<polygon class="Wall" fill="#AFD8F8" id="40" transcription="" points="1960,1278 1960,1428 1914,1428 1917,1281 " />
<polygon class="Wall" fill="#AFD8F8" id="41" transcription="" points="1915,1580 1920,1761 1960,1761 1959,1577 " />
<polygon class="Wall" fill="#AFD8F8" id="42" transcription="" points="1795,1717 1957,1719 1960,1763 1798,1764 " />
<polygon class="Wall" fill="#AFD8F8" id="43" transcription="" points="1842,1784 1838.5,1715.5 1799.5,1715.5 1794,1790 " />
<polygon class="Wall" fill="#AFD8F8" id="44" transcription="" points="1959,1961 1959,2088 1917,2089 1914,1963 " />
<polygon class="Wall" fill="#AFD8F8" id="45" transcription="" points="1800,2003 1959,2006 1957,1963 1798,1961 " />
<polygon class="Wall" fill="#AFD8F8" id="46" transcription="" points="1839,1945 1840,2003 1795,2000 1796,1944 " />
<polygon class="Wall" fill="#AFD8F8" id="47" transcription="" points="1962,2186 1959,2448 1917,2452 1917,2186 " />
<polygon class="Wall" fill="#AFD8F8" id="48" transcription="" points="1959,2842 1959,2593 1917,2595 1918,2842 " />
<polygon class="Wall" fill="#AFD8F8" id="49" transcription="" points="1311,2804 1960,2801 1959,2843 1312,2843 " />
<polygon class="Wall" fill="#AFD8F8" id="50" transcription="" points="918,2840 1164,2842 1164,2803 918,2798 " />
<polygon class="Wall" fill="#AFD8F8" id="51" transcription="" points="917,2462 920,2840 965,2842 961,2462 " />
<polygon class="Wall" fill="#AFD8F8" id="52" transcription="" points="918,2193 918,2387 961,2387 961,2190 " />
<polygon class="Wall" fill="#AFD8F8" id="53" transcription="" points="961,1939 961,2050 918,2048 912,1939 " />
<polygon class="Wall" fill="#AFD8F8" id="54" transcription="" points="640,1978 690,1978 695,1936 643,1934 " />
<polygon class="Wall" fill="#AFD8F8" id="55" transcription="" points="638,1076 639,1129 684,1129 682,1076 " />
<polygon class="Wall" fill="#AFD8F8" id="56" transcription="" points="1693,1300 1917,1299 1918,1310 1691,1310 " />
<polygon class="Wall" fill="#AFD8F8" id="57" transcription="" points="1580,1114 1579,1306 1590,1308 1592,1115 " />
<polygon class="Wall" fill="#AFD8F8" id="58" transcription="" points="1472,1716 1800,1718 1801,1729 1472,1726 " />
<polygon class="Wall" fill="#AFD8F8" id="59" transcription="" points="1843,1888 1583,1889 1583,1899 1842,1902 " />
<polygon class="Wall" fill="#AFD8F8" id="60" transcription="" points="1581,1995 1798,1995 1798,2007 1580,2007 " />
<polygon class="Wall" fill="#AFD8F8" id="61" transcription="" points="959,1938 1485,1936 1484,1948 958,1947 " />
<polygon class="Wall" fill="#AFD8F8" id="62" transcription="" points="1473,1887 1473,2365 1483,2363 1485,1889 " />
<polygon class="Wall" fill="#AFD8F8" id="63" transcription="" points="1394,2357 1485,2355 1484,2367 1395,2367 " />
<polygon class="Wall" fill="#AFD8F8" id="64" transcription="" points="956,2461 1300,2461 1300,2471 956,2472 " />
<polygon class="Wall" fill="#AFD8F8" id="65" transcription="" points="1288,2368 1300,2369 1302,2283 1289,2283 " />
<polygon class="Wall" fill="#AFD8F8" id="66" transcription="" points="958,2273 1295,2274 1295,2284 958,2284 " />
<polygon class="Door" fill="#8BBA00" id="67" transcription="" points="1198,2457 1307,2459 1304,2364 1259,2371 1214,2407 " />
<polygon class="Wall" fill="#AFD8F8" id="68" transcription="" points="1580,2298 1915,2297 1915,2308 1581,2309 " />
<polygon class="Wall" fill="#AFD8F8" id="69" transcription="" points="1579,2003 1577,2082 1589,2082 1589,2003 " />
<polygon class="Wall" fill="#AFD8F8" id="70" transcription="" points="1578,2174 1577,2298 1590,2300 1589,2174 " />
<polygon class="Wall" fill="#AFD8F8" id="71" transcription="" points="1591,2366 1590,2310 1579,2310 1577,2366 " />
<polygon class="Wall" fill="#AFD8F8" id="72" transcription="" points="1589,2704 1590,2806 1579,2806 1576,2704 " />
<polygon class="Wall" fill="#AFD8F8" id="73" transcription="" points="1453,2713 1452,2801 1466,2801 1466,2712 " />
<polygon class="Room" fill="#FF8E46" id="74" transcription="" points="955,451.5 1683,454.5 1676,1064.5 955,1062.5 " />
<polygon class="Room" fill="#FF8E46" id="75" transcription="" points="692,1128 1572,1126 1572,1309 1908,1314 1913,1711 1469,1708 1469,1929 694,1922 " />
<polygon class="Room" fill="#FF8E46" id="76" transcription="" points="1903,1128 1901,1288 1605,1288 1603,1128 " />
<polygon class="Room" fill="#FF8E46" id="77" transcription="" points="1479,1734 1788,1736 1788,1880 1481,1877 " />
<polygon class="Room" fill="#FF8E46" id="78" transcription="" points="971,1955 1464,1957 1464,2347 1307,2345 1305,2265 969,2260 " />
<polygon class="Room" fill="#FF8E46" id="79" transcription="" points="1913,2314 1910,2793 1596,2793 1596,2314 " />
<polygon class="Room" fill="#FF8E46" id="80" transcription="" points="1906,2016 1908,2286 1596,2293 1598,2016 " />
<polygon class="Room" fill="#FF8E46" id="81" transcription="" points="969,2295 1281,2293 1284,2453 971,2457 " />
<polygon class="Room" fill="#FF8E46" id="82" transcription="" points="970.5,2475.5 1445.5,2475.5 1445.5,2792.5 973.5,2790.5 " />
<polygon class="Room" fill="#FF8E46" id="83" transcription="" points="1462,2553 1572,2553 1575,2793 1469,2798 " />
<polygon class="Room" fill="#FF8E46" id="84" transcription="" points="1307,2368 1490,2368 1488,1891 1582,1887 1572,2535 1474,2537 1467,2460 1305,2457 " />
<polygon class="Room" fill="#FF8E46" id="85" transcription="" points="1589,1906 1784,1906 1788,1988 1589,1988 " />
<polygon class="Wall" fill="#AFD8F8" id="86" transcription="" points="1387,2461 1461,2461 1461,2472 1387,2472 " />
<polygon class="Wall" fill="#AFD8F8" id="87" transcription="" points="1455,2467.5 1465,2467.5 1465,2620.5 1455,2620.5 " />
<polygon class="Wall" fill="#AFD8F8" id="88" transcription="" points="1454,2536.5 1586,2536.5 1586,2553.5 1454,2553.5 " />
<polygon class="Wall" fill="#AFD8F8" id="89" transcription="" points="1579,2460.5 1591,2460.5 1591,2617.5 1579,2617.5 " />
<polygon class="Separation" fill="#008E8E" id="90" transcription="" points="1465,1720 1482,1720 1482,1885 1465,1885 " />
<relation type="incident" objects="31,33"/>
<relation type="incident" objects="33,5"/>
<relation type="incident" objects="5,0"/>
<relation type="incident" objects="0,15"/>
<relation type="incident" objects="36,15"/>
<relation type="incident" objects="36,35"/>
<relation type="incident" objects="35,29"/>
<relation type="incident" objects="35,57"/>
<relation type="incident" objects="29,37"/>
<relation type="incident" objects="37,38"/>
<relation type="incident" objects="38,7"/>
<relation type="incident" objects="7,1"/>
<relation type="incident" objects="6,1"/>
<relation type="incident" objects="6,34"/>
<relation type="incident" objects="34,32"/>
<relation type="incident" objects="32,4"/>
<relation type="incident" objects="31,4"/>
<relation type="incident" objects="37,39"/>
<relation type="incident" objects="39,8"/>
<relation type="incident" objects="8,40"/>
<relation type="incident" objects="40,9"/>
<relation type="incident" objects="40,56"/>
<relation type="incident" objects="56,30"/>
<relation type="incident" objects="30,57"/>
<relation type="incident" objects="9,41"/>
<relation type="incident" objects="41,42"/>
<relation type="incident" objects="42,58"/>
<relation type="incident" objects="42,43"/>
<relation type="incident" objects="43,58"/>
<relation type="incident" objects="43,19"/>
<relation type="incident" objects="59,19"/>
<relation type="incident" objects="59,20"/>
<relation type="incident" objects="46,20"/>
<relation type="incident" objects="45,46"/>
<relation type="incident" objects="45,44"/>
<relation type="incident" objects="45,60"/>
<relation type="incident" objects="46,60"/>
<relation type="incident" objects="44,10"/>
<relation type="incident" objects="10,47"/>
<relation type="incident" objects="47,68"/>
<relation type="incident" objects="47,11"/>
<relation type="incident" objects="11,48"/>
<relation type="incident" objects="48,49"/>
<relation type="incident" objects="49,72"/>
<relation type="incident" objects="49,73"/>
<relation type="incident" objects="49,12"/>
<relation type="incident" objects="12,50"/>
<relation type="incident" objects="50,51"/>
<relation type="incident" objects="51,64"/>
<relation type="incident" objects="51,64"/>
<relation type="incident" objects="14,64"/>
<relation type="incident" objects="14,51"/>
<relation type="incident" objects="14,52"/>
<relation type="incident" objects="66,52"/>
<relation type="incident" objects="66,65"/>
<relation type="incident" objects="65,67"/>
<relation type="incident" objects="67,64"/>
<relation type="incident" objects="64,25"/>
<relation type="incident" objects="25,86"/>
<relation type="incident" objects="86,87"/>
<relation type="incident" objects="87,88"/>
<relation type="incident" objects="88,89"/>
<relation type="incident" objects="87,24"/>
<relation type="incident" objects="24,73"/>
<relation type="incident" objects="89,23"/>
<relation type="incident" objects="23,72"/>
<relation type="incident" objects="52,13"/>
<relation type="incident" objects="13,53"/>
<relation type="incident" objects="53,18"/>
<relation type="incident" objects="18,54"/>
<relation type="incident" objects="53,61"/>
<relation type="incident" objects="54,17"/>
<relation type="incident" objects="17,2"/>
<relation type="incident" objects="2,16"/>
<relation type="incident" objects="16,55"/>
<relation type="incident" objects="55,35"/>
<relation type="incident" objects="61,62"/>
<relation type="incident" objects="62,27"/>
<relation type="incident" objects="27,59"/>
<relation type="incident" objects="59,28"/>
<relation type="incident" objects="28,60"/>
<relation type="incident" objects="60,69"/>
<relation type="incident" objects="69,28"/>
<relation type="incident" objects="69,21"/>
<relation type="incident" objects="21,70"/>
<relation type="incident" objects="70,68"/>
<relation type="incident" objects="68,71"/>
<relation type="incident" objects="71,70"/>
<relation type="incident" objects="71,22"/>
<relation type="incident" objects="62,63"/>
<relation type="incident" objects="63,26"/>
<relation type="incident" objects="26,65"/>
<relation type="incident" objects="22,89"/>
<relation type="neighbour" objects="75,76"/>
<relation type="neighbour" objects="75,77"/>
<relation type="neighbour" objects="77,85"/>
<relation type="neighbour" objects="85,84"/>
<relation type="neighbour" objects="84,77"/>
<relation type="neighbour" objects="84,78"/>
<relation type="neighbour" objects="78,75"/>
<relation type="neighbour" objects="78,81"/>
<relation type="neighbour" objects="81,82"/>
<relation type="neighbour" objects="81,84"/>
<relation type="neighbour" objects="84,82"/>
<relation type="neighbour" objects="82,83"/>
<relation type="neighbour" objects="83,84"/>
<relation type="neighbour" objects="83,79"/>
<relation type="neighbour" objects="79,84"/>
<relation type="neighbour" objects="79,80"/>
<relation type="neighbour" objects="80,84"/>
<relation type="neighbour" objects="80,85"/>
<relation type="neighbour" objects="76,74"/>
<relation type="neighbour" objects="75,74"/>
<relation type="access" objects="74,29,76"/>
<relation type="access" objects="75,30,76"/>
<relation type="access" objects="77,19,77"/>
<relation type="access" objects="77,27,84"/>
<relation type="access" objects="85,28,84"/>
<relation type="access" objects="84,21,80"/>
<relation type="access" objects="84,22,79"/>
<relation type="access" objects="84,26,78"/>
<relation type="access" objects="84,67,81"/>
<relation type="access" objects="84,25,82"/>
<relation type="access" objects="83,23,79"/>
<relation type="access" objects="83,24,82"/>
<relation type="access" objects="77,19,77"/>
<relation type="incident" objects="90,58"/>
<relation type="incident" objects="90,62"/>
<relation type="incident" objects="90,27"/>
<relation type="outerP" objects="31,4,32,34,6,1,7,38,37,39,8,40,9,41,42,43,19,59,20,46,45,44,10,47,11,48,49,12,50,51,14,52,13,53,18,54,17,2,16,55,35,36,15,0,5,33"/>
<relation type="surround" objects="31,4,32,34,6,1,7,38,29,35,36,15,0,5,33,31,74"/>
<relation type="surround" objects="35,57,30,56,40,9,41,42,58,90,62,61,53,18,54,17,2,16,55,35,75"/>
<relation type="surround" objects="29,37,39,8,56,30,57,29,76"/>
<relation type="surround" objects="58,43,19,59,27,90,58,77"/>
<relation type="surround" objects="61,62,63,26,65,66,52,13,53,61,78"/>
<relation type="surround" objects="27,59,20,46,60,69,21,70,71,22,89,88,87,86,25,67,65,26,63,62,27,84"/>
<relation type="surround" objects="60,45,44,10,47,68,70,21,69,60,80"/>
<relation type="surround" objects="68,47,11,48,49,72,23,89,22,71,68,79"/>
<relation type="surround" objects="59,20,46,60,28,59,85"/>
<relation type="surround" objects="66,65,67,64,14,52,66,81"/>
<relation type="surround" objects="64,25,86,87,24,73,49,12,50,51,64,82"/>
<relation type="surround" objects="88,89,23,72,49,73,24,87,88,83"/>
<relation type="access" objects="75,90,77"/>
</svg>