<?xml version="1.0" encoding="UTF-8"?><!DOCTYPE svg PUBLIC "-//W3C//DTD SVG 1.1//EN" "http://www.w3.org/Graphics/SVG/1.1/DTD/svg11.dtd">
<svg xmlns="http://www.w3.org/2000/svg" version="1.1">
<width>2480</width>
<height>3508</height>
<nclasslabel>50</nclasslabel>
<nclassappear>5</nclassappear>
<class>Bidet-1</class>
<class>Bidet-2</class>
<class>Bidet-3</class>
<class>Bidet-4</class>
<class>Door</class>
<class>Door-1</class>
<class>Door-23</class>
<class>Oven-1</class>
<class>Oven-2</class>
<class>Oven-3</class>
<class>Oven-4</class>
<class>Parking</class>
<class>Roof</class>
<class>Room</class>
<class>Separation</class>
<class>Sink-1</class>
<class>Sink-11</class>
<class>Sink-12</class>
<class>Sink-13</class>
<class>Sink-14</class>
<class>Sink-2</class>
<class>Sink-3</class>
<class>Sink-4</class>
<class>Sink-5</class>
<class>Sink-6</class>
<class>Sofa-1</class>
<class>Sofa-3</class>
<class>Sofa-4</class>
<class>Sofa-5</class>
<class>Sofa-6</class>
<class>Sofa-7</class>
<class>Sofa-8</class>
<class>Sofa-9</class>
<class>Stairs-1</class>
<class>Table-1</class>
<class>Table-2</class>
<class>Table-3</class>
<class>Table-4</class>
<class>Table-5</class>
<class>Table-6</class>
<class>Table-7</class>
<class>Text</class>
<class>Tub-1</class>
<class>Tub-3</class>
<class>TV-1</class>
<class>TV-2</class>
<class>Wall</class>
<class>Wall-1</class>
<class>Wallieee</class>
<class>Window</class>
<polygon class="Wall" fill="#AFD8F8" id="11" transcription="" points="1236,1712 1248,1710 1248,1972 1238,1973 " />
<polygon class="Window" fill="#F6BD0F" id="15" transcription="" points="644,1390 600,1405 568,1400 569,1329 597,1326 " />
<polygon class="Window" fill="#F6BD0F" id="16" transcription="" points="564,2127 613,2126 649,2188 628,2195 652,2206 614,2267 563,2266 " />
<polygon class="Window" fill="#F6BD0F" id="17" transcription="" points="760,2579 1091,2581 1088,2530 760,2531 " />
<polygon class="Window" fill="#F6BD0F" id="18" transcription="" points="1166,2482 1285,2483 1283,2337 1163,2337 1176,2388 1222,2406 1183,2428 " />
<polygon class="Window" fill="#F6BD0F" id="19" transcription="" points="1366,2136 1369,2253 1513,2252 1512,2132 1456,2149 1439,2188 1415,2147 " />
<polygon class="Window" fill="#F6BD0F" id="20" transcription="" points="1526,1980 1564,1918 1611,1913 1610,2063 1563,2061 1528,2000 1544,1989 " />
<polygon class="Window" fill="#F6BD0F" id="21" transcription="" points="2026,1358 2064,1298 2115,1295 2113,1439 2067,1437 2030,1376 2048,1365 " />
<polygon class="Window" fill="#F6BD0F" id="22" transcription="" points="2017,945 2062,927 2110,926 2114,1025 2067,1031 " />
<polygon class="Window" fill="#F6BD0F" id="23" transcription="" points="1522,700 1521,755 1530,785 1590,753 1592,699 " />
<polygon class="Window" fill="#F6BD0F" id="24" transcription="" points="1196,867 1248,865 1283,875 1247,938 1197,939 " />
<polygon class="Window" fill="#F6BD0F" id="25" transcription="" points="964,1094 949,1046 952,1001 1033,1003 1028,1048 " />
<polygon class="Door" fill="#8BBA00" id="26" transcription="" points="1087,1265 1087,1124 1191,1127 1190,1172 1186,1219 1137,1267 " />
<polygon class="Door" fill="#8BBA00" id="27" transcription="" points="1250,1069 1249,1169 1343,1171 1346,1126 1304,1083 " />
<polygon class="Door" fill="#8BBA00" id="28" transcription="" points="1619,1067 1621,1168 1531,1168 1535,1106 1572,1078 " />
<polygon class="Door" fill="#8BBA00" id="29" transcription="" points="1629,1070 1631,1170 1729,1173 1724,1147 1719,1121 1675,1078 " />
<polygon class="Door" fill="#8BBA00" id="30" transcription="" points="1821,1174 1730,1174 1724,1267 1785,1259 1825,1204 " />
<polygon class="Door" fill="#8BBA00" id="31" transcription="" points="1725,1366 1723,1271 1633,1267 1636,1320 1668,1350 " />
<polygon class="Door" fill="#8BBA00" id="32" transcription="" points="1718,1584 1715,1727 1623,1726 1623,1678 1631,1620 1671,1586 " />
<polygon class="Door" fill="#8BBA00" id="33" transcription="" points="1332,2058 1238,2058 1239,1969 1285,1968 1328,2016 " />
<polygon class="Door" fill="#8BBA00" id="34" transcription="" points="1336,1615 1236,1614 1238,1707 1287,1707 1329,1664 " />
<polygon class="Door" fill="#8BBA00" id="35" transcription="" points="939,1296 1039,1294 1043,1389 983,1382 952,1343 " />
<polygon class="Door" fill="#8BBA00" id="36" transcription="" points="957,1262 1055,1265 1057,1172 1009,1179 977,1205 " />
<polygon class="Door" fill="#8BBA00" id="37" transcription="" points="1065,1805 1059,1711 1235,1710 1233,1803 1177,1797 1147,1738 1121,1796 " />
<polygon class="Parking" fill="#FF8E46" id="38" transcription="" points="616,1006 902,1005 906,1034 616,1040 " />
<polygon class="Room" fill="#008E8E" id="39" transcription="" points="604.5,1041.5 602.5,1734.5 1025.5,1735.5 1028.5,1302.5 918.5,1297.5 917.5,1036.5 " />
<polygon class="Room" fill="#008E8E" id="40" transcription="" points="1023,1052 1023,1175 1054,1174 1050,1259 957,1259 957,1052 " />
<polygon class="Room" fill="#008E8E" id="41" transcription="" points="1063.5,1704.5 1226.5,1704.5 1230.5,1420.5 1308.5,1417.5 1308.5,1279.5 1230.5,1275.5 1229.5,1259.5 1724.5,1266.5 1723.5,1174.5 1064.5,1173.5 " />
<polygon class="Room" fill="#008E8E" id="42" transcription="" points="1328.5,1280 1321.5,1441 1248.5,1440 1252.5,1594 1481.5,1593 1562.5,1669 1717.5,1675 1717.5,1286 " />
<polygon class="Room" fill="#008E8E" id="43" transcription="" points="1411,757 1409,1155 1254,1149 1249,756 " />
<polygon class="Room" fill="#008E8E" id="44" transcription="" points="1433,760 1432,1152 1614,1153 1617,757 " />
<polygon class="Room" fill="#008E8E" id="45" transcription="" points="1632.5,753.5 1633.5,1160.5 1724.5,1155.5 1725.5,1079.5 1900.5,1079.5 1908.5,1152.5 2054.5,1152.5 2055.5,756.5 " />
<polygon class="Room" fill="#008E8E" id="46" transcription="" points="2063,1673 1740,1674 1740,1095 1890,1094 1891,1174 2062,1174 " />
<polygon class="Room" fill="#008E8E" id="47" transcription="" points="1482,1616 1556,1692 1560,2199 1250,2199 1249,1616 " />
<polygon class="Room" fill="#008E8E" id="48" transcription="" points="618,1771 618,2523 1231,2523 1225,1716 1064,1715 1062,1774 " />
<polygon class="Wall" fill="#AFD8F8" id="49" transcription="" points="572,1034 597,1034 598,1330 572,1329 " />
<polygon class="Wall" fill="#AFD8F8" id="50" transcription="" points="571,1008 621,1008 620,1036 572,1035 " />
<polygon class="Wall" fill="#AFD8F8" id="51" transcription="" points="901,1009 959,1009 958,1036 903,1035 " />
<polygon class="Wall" fill="#AFD8F8" id="52" transcription="" points="925,1033 924,1294 954,1293 951,1034 " />
<polygon class="Wall" fill="#AFD8F8" id="53" transcription="" points="953,1296 1061,1296 1059,1269 954,1269 " />
<polygon class="Wall" fill="#AFD8F8" id="54" transcription="" points="1027,1009 1075,1007 1075,1051 1027,1049 " />
<polygon class="Wall" fill="#AFD8F8" id="55" transcription="" points="1031,1048 1032,1129 1076,1127 1074,1048 " />
<polygon class="Wall" fill="#AFD8F8" id="56" transcription="" points="1032,1126 1088,1127 1088,1170 1032,1170 " />
<polygon class="Wall" fill="#AFD8F8" id="57" transcription="" points="1193,1127 1247,1127 1246,1170 1194,1171 " />
<polygon class="Wall" fill="#AFD8F8" id="58" transcription="" points="1206,937 1205,1126 1247,1127 1248,937 " />
<polygon class="Wall" fill="#AFD8F8" id="59" transcription="" points="1205,708 1205,868 1247,868 1247,708 " />
<polygon class="Wall" fill="#AFD8F8" id="60" transcription="" points="1248,708 1525,708 1526,753 1247,751 " />
<polygon class="Wall" fill="#AFD8F8" id="61" transcription="" points="1594,707 2111,707 2108,752 1594,751 " />
<polygon class="Wall" fill="#AFD8F8" id="62" transcription="" points="2066,751 2066,934 2110,935 2107,751 " />
<polygon class="Wall" fill="#AFD8F8" id="63" transcription="" points="2065,1027 2065,1297 2108,1298 2108,1025 " />
<polygon class="Wall" fill="#AFD8F8" id="64" transcription="" points="2066,1436 2066,1725 2110,1725 2108,1437 " />
<polygon class="Wall" fill="#AFD8F8" id="65" transcription="" points="1717,1682 2066,1682 2065,1726 1718,1725 " />
<polygon class="Wall" fill="#AFD8F8" id="66" transcription="" points="1566,1682 1626,1682 1626,1725 1564,1725 " />
<polygon class="Wall" fill="#AFD8F8" id="67" transcription="" points="1565,1724 1565,1921 1606,1921 1607,1725 " />
<polygon class="Wall" fill="#AFD8F8" id="68" transcription="" points="1564,2060 1566,2250 1607,2250 1606,2058 " />
<polygon class="Wall" fill="#AFD8F8" id="69" transcription="" points="1511,2208 1566,2208 1566,2250 1512,2250 " />
<polygon class="Wall" fill="#AFD8F8" id="70" transcription="" points="1371,2207 1238,2206 1238,2251 1371,2250 " />
<polygon class="Wall" fill="#AFD8F8" id="71" transcription="" points="1238,2251 1241,2338 1284,2338 1284,2250 " />
<polygon class="Wall" fill="#AFD8F8" id="72" transcription="" points="1240,2478 1240,2575 1284,2575 1283,2478 " />
<polygon class="Wall" fill="#AFD8F8" id="73" transcription="" points="1092,2533 1242,2533 1242,2574 1093,2575 " />
<polygon class="Wall" fill="#AFD8F8" id="74" transcription="" points="763,2534 763,2575 573,2575 573,2534 " />
<polygon class="Wall" fill="#AFD8F8" id="75" transcription="" points="573,2266 615,2267 616,2534 574,2535 " />
<polygon class="Wall" fill="#AFD8F8" id="76" transcription="" points="574,2126 616,2127 615,1741 572,1741 " />
<polygon class="Wall" fill="#AFD8F8" id="77" transcription="" points="574,1398 573,1741 597,1741 597,1398 " />
<polygon class="Wall" fill="#AFD8F8" id="78" transcription="" points="615,1741 1057,1742 1056,1766 615,1765 " />
<polygon class="Wall" fill="#AFD8F8" id="79" transcription="" points="1034,1394 1058,1394 1057,1742 1033,1742 " />
<polygon class="Wall" fill="#AFD8F8" id="80" transcription="" points="1417,751 1416,1164 1426,1164 1425,751 " />
<polygon class="Wall" fill="#AFD8F8" id="81" transcription="" points="1345,1162 1525,1163 1525,1170 1345,1170 " />
<polygon class="Wall" fill="#AFD8F8" id="82" transcription="" points="1623,750 1631,750 1629,1170 1623,1170 " />
<polygon class="Wall" fill="#AFD8F8" id="83" transcription="" points="1729,1086 1729,1171 1737,1170 1737,1086 " />
<polygon class="Wall" fill="#AFD8F8" id="84" transcription="" points="1737,1086 1902,1086 1902,1094 1737,1094 " />
<polygon class="Wall" fill="#AFD8F8" id="85" transcription="" points="1895,1094 1895,1170 1903,1171 1902,1094 " />
<polygon class="Wall" fill="#AFD8F8" id="86" transcription="" points="1903,1163 2066,1163 2067,1171 1903,1171 " />
<polygon class="Wall" fill="#AFD8F8" id="87" transcription="" points="1729,1269 1738,1269 1737,1683 1729,1682 " />
<polygon class="Wall" fill="#AFD8F8" id="88" transcription="" points="1487,1605 1566,1681 1566,1695 1485,1613 " />
<polygon class="Wall" fill="#AFD8F8" id="89" transcription="" points="1239,1605 1487,1605 1486,1614 1239,1614 " />
<polygon class="Wall" fill="#AFD8F8" id="90" transcription="" points="1240,1427 1238,1605 1248,1605 1247,1426 " />
<polygon class="Wall" fill="#AFD8F8" id="91" transcription="" points="1247,1427 1324,1427 1324,1436 1247,1436 " />
<polygon class="Wall" fill="#AFD8F8" id="92" transcription="" points="1317,1276 1317,1427 1324,1427 1323,1275 " />
<polygon class="Wall" fill="#AFD8F8" id="93" transcription="" points="1240,1270 1632,1269 1632,1276 1242,1277 " />
<polygon class="Wall" fill="#AFD8F8" id="94" transcription="" points="1239,2065 1247,2065 1247,2206 1239,2205 " />
<relation type="incident" objects="37,11"/>
<relation type="incident" objects="11,34"/>
<relation type="incident" objects="11,33"/>
<relation type="neighbour" objects="39,40"/>
<relation type="neighbour" objects="40,41"/>
<relation type="neighbour" objects="41,42"/>
<relation type="neighbour" objects="42,46"/>
<relation type="neighbour" objects="46,41"/>
<relation type="neighbour" objects="41,44"/>
<relation type="neighbour" objects="44,43"/>
<relation type="neighbour" objects="43,41"/>
<relation type="neighbour" objects="41,45"/>
<relation type="neighbour" objects="45,46"/>
<relation type="neighbour" objects="42,47"/>
<relation type="neighbour" objects="47,48"/>
<relation type="neighbour" objects="48,41"/>
<relation type="neighbour" objects="41,39"/>
<relation type="neighbour" objects="39,48"/>
<relation type="neighbour" objects="45,44"/>
<relation type="access" objects="41,35,39"/>
<relation type="access" objects="41,36,40"/>
<relation type="access" objects="41,26,41"/>
<relation type="access" objects="41,27,43"/>
<relation type="access" objects="41,28,44"/>
<relation type="access" objects="41,29,45"/>
<relation type="access" objects="41,30,46"/>
<relation type="access" objects="41,31,42"/>
<relation type="access" objects="42,32,42"/>
<relation type="access" objects="41,34,47"/>
<relation type="access" objects="41,37,48"/>
<relation type="access" objects="48,33,47"/>
<relation type="incident" objects="60,23"/>
<relation type="incident" objects="23,61"/>
<relation type="incident" objects="61,62"/>
<relation type="incident" objects="62,22"/>
<relation type="incident" objects="22,63"/>
<relation type="incident" objects="63,21"/>
<relation type="incident" objects="21,64"/>
<relation type="incident" objects="64,65"/>
<relation type="incident" objects="65,32"/>
<relation type="incident" objects="32,66"/>
<relation type="incident" objects="66,67"/>
<relation type="incident" objects="67,20"/>
<relation type="incident" objects="20,68"/>
<relation type="incident" objects="68,69"/>
<relation type="incident" objects="69,19"/>
<relation type="incident" objects="19,70"/>
<relation type="incident" objects="70,71"/>
<relation type="incident" objects="71,18"/>
<relation type="incident" objects="18,72"/>
<relation type="incident" objects="72,73"/>
<relation type="incident" objects="73,17"/>
<relation type="incident" objects="17,74"/>
<relation type="incident" objects="74,75"/>
<relation type="incident" objects="75,16"/>
<relation type="incident" objects="16,76"/>
<relation type="incident" objects="76,77"/>
<relation type="incident" objects="77,15"/>
<relation type="incident" objects="15,49"/>
<relation type="incident" objects="49,50"/>
<relation type="incident" objects="50,38"/>
<relation type="incident" objects="38,51"/>
<relation type="incident" objects="51,25"/>
<relation type="incident" objects="25,54"/>
<relation type="incident" objects="54,55"/>
<relation type="incident" objects="55,56"/>
<relation type="incident" objects="56,26"/>
<relation type="incident" objects="26,57"/>
<relation type="incident" objects="57,58"/>
<relation type="incident" objects="24,59"/>
<relation type="incident" objects="59,60"/>
<relation type="incident" objects="24,58"/>
<relation type="incident" objects="51,52"/>
<relation type="incident" objects="52,53"/>
<relation type="incident" objects="53,36"/>
<relation type="incident" objects="36,56"/>
<relation type="incident" objects="53,35"/>
<relation type="incident" objects="35,79"/>
<relation type="incident" objects="79,78"/>
<relation type="incident" objects="78,76"/>
<relation type="incident" objects="78,77"/>
<relation type="incident" objects="78,37"/>
<relation type="incident" objects="33,94"/>
<relation type="incident" objects="94,70"/>
<relation type="incident" objects="34,89"/>
<relation type="incident" objects="89,88"/>
<relation type="incident" objects="88,66"/>
<relation type="incident" objects="34,90"/>
<relation type="incident" objects="89,90"/>
<relation type="incident" objects="90,91"/>
<relation type="incident" objects="91,92"/>
<relation type="incident" objects="92,93"/>
<relation type="incident" objects="93,31"/>
<relation type="incident" objects="31,87"/>
<relation type="incident" objects="87,65"/>
<relation type="incident" objects="87,30"/>
<relation type="incident" objects="30,83"/>
<relation type="incident" objects="83,84"/>
<relation type="incident" objects="84,85"/>
<relation type="incident" objects="85,86"/>
<relation type="incident" objects="86,63"/>
<relation type="incident" objects="83,29"/>
<relation type="incident" objects="29,82"/>
<relation type="incident" objects="82,61"/>
<relation type="incident" objects="82,28"/>
<relation type="incident" objects="28,81"/>
<relation type="incident" objects="81,80"/>
<relation type="incident" objects="80,60"/>
<relation type="incident" objects="81,27"/>
<relation type="incident" objects="27,57"/>
<relation type="outerP" objects="50,38,51,25,54,55,56,26,57,58,24,59,60,23,61,62,22,63,21,64,65,32,66,67,20,68,69,19,70,71,18,72,73,17,74,75,16,76,77,15,49"/>
<relation type="surround" objects="50,38,51,52,53,35,79,78,77,15,49,50,39"/>
<relation type="surround" objects="51,25,54,55,56,36,53,52,51,40"/>
<relation type="surround" objects="60,80,81,27,57,58,24,59,60,43"/>
<relation type="surround" objects="60,23,61,82,28,81,80,60,44"/>
<relation type="surround" objects="61,62,22,63,86,85,84,83,29,82,61,45"/>
<relation type="surround" objects="84,85,86,63,21,64,65,87,30,83,84,46"/>
<relation type="surround" objects="93,31,87,32,66,88,89,90,91,92,93,42"/>
<relation type="surround" objects="89,88,66,67,20,68,69,19,70,94,33,11,34,89,47"/>
<relation type="surround" objects="78,37,11,33,94,70,71,18,72,73,17,74,75,16,76,78,48"/>
<relation type="surround" objects="56,26,57,27,81,28,82,29,83,30,87,31,93,92,91,90,34,11,37,79,35,53,36,56,41"/>
</svg>