<?xml version="1.0" encoding="UTF-8"?><!DOCTYPE svg PUBLIC "-//W3C//DTD SVG 1.1//EN" "http://www.w3.org/Graphics/SVG/1.1/DTD/svg11.dtd">
<svg xmlns="http://www.w3.org/2000/svg" version="1.1">
<width>3508</width>
<height>2479</height>
<nclasslabel>50</nclasslabel>
<nclassappear>6</nclassappear>
<class>Bidet-1</class>
<class>Bidet-2</class>
<class>Bidet-3</class>
<class>Bidet-4</class>
<class>Door</class>
<class>Door-1</class>
<class>Door-23</class>
<class>Oven-1</class>
<class>Oven-2</class>
<class>Oven-3</class>
<class>Oven-4</class>
<class>Parking</class>
<class>Roof</class>
<class>Room</class>
<class>Separation</class>
<class>Sink-1</class>
<class>Sink-11</class>
<class>Sink-12</class>
<class>Sink-13</class>
<class>Sink-14</class>
<class>Sink-2</class>
<class>Sink-3</class>
<class>Sink-4</class>
<class>Sink-5</class>
<class>Sink-6</class>
<class>Sofa-1</class>
<class>Sofa-3</class>
<class>Sofa-4</class>
<class>Sofa-5</class>
<class>Sofa-6</class>
<class>Sofa-7</class>
<class>Sofa-8</class>
<class>Sofa-9</class>
<class>Stairs-1</class>
<class>Table-1</class>
<class>Table-2</class>
<class>Table-3</class>
<class>Table-4</class>
<class>Table-5</class>
<class>Table-6</class>
<class>Table-7</class>
<class>Text</class>
<class>Tub-1</class>
<class>Tub-3</class>
<class>TV-1</class>
<class>TV-2</class>
<class>Wall</class>
<class>Wall-1</class>
<class>Wallieee</class>
<class>Window</class>
<polygon class="Wall" fill="#AFD8F8" id="0" transcription="" points="1549,1692 1549,1702 1508,1703 1508,1648 1569,1647 1568,1690 " />
<polygon class="Wall" fill="#AFD8F8" id="1" transcription="" points="952,1933 1255,1933 1255,1975 952,1974 " />
<polygon class="Window" fill="#F6BD0F" id="2" transcription="" points="1695,656 1768,656 1768,708 1707,743 1695,708 " />
<polygon class="Door" fill="#8BBA00" id="3" transcription="" points="1754,975 1718,1011 1703,1068 1800,1069 1798,967 " />
<polygon class="Window" fill="#F6BD0F" id="4" transcription="" points="1963,744 1953,707 1954,655 2027,655 2027,708 " />
<polygon class="Parking" fill="#FF8E46" id="5" transcription="" points="656,722 696,720 695,1009 657,1008 " />
<polygon class="Door" fill="#8BBA00" id="6" transcription="" points="927,1262 918,1310 883,1352 827,1368 780,1367 778,1264 " />
<polygon class="Door" fill="#8BBA00" id="7" transcription="" points="1073,1148 1041,1160 1016,1161 1018,1066 " />
<polygon class="Window" fill="#F6BD0F" id="8" transcription="" points="776,1078 825,1078 869,1087 830,1154 775,1155 " />
<polygon class="Window" fill="#F6BD0F" id="9" transcription="" points="744,1661 710,1727 659,1727 655,1580 710,1582 744,1642 727,1655 " />
<polygon class="Window" fill="#F6BD0F" id="10" transcription="" points="809,1854 855,1870 883,1900 909,1871 956,1857 957,1983 809,1983 " />
<polygon class="Window" fill="#F6BD0F" id="11" transcription="" points="1249,1855 1298,1870 1325,1901 1350,1871 1399,1857 1397,1981 1252,1981 " />
<polygon class="Window" fill="#F6BD0F" id="12" transcription="" points="1506,1702 1556,1700 1555,1914 1506,1915 " />
<polygon class="Door" fill="#8BBA00" id="13" transcription="" points="1663,1549 1661,1696 1566,1698 1562,1639 1577,1591 1617,1557 " />
<polygon class="Door" fill="#8BBA00" id="14" transcription="" points="1399,1281 1399,1172 1506,1172 1499,1225 1456,1267 " />
<polygon class="Door" fill="#8BBA00" id="15" transcription="" points="1809,1254 1837,1221 1850,1169 1754,1172 1756,1267 " />
<polygon class="Door" fill="#8BBA00" id="16" transcription="" points="2150,1230 2106,1272 2057,1282 2057,1176 2160,1175 " />
<polygon class="Door" fill="#8BBA00" id="17" transcription="" points="2108,966 2065,1012 2052,1068 2157,1065 2157,957 " />
<polygon class="Door" fill="#8BBA00" id="18" transcription="" points="2222,1089 2250,1119 2258,1165 2162,1167 2162,1073 " />
<polygon class="Window" fill="#F6BD0F" id="19" transcription="" points="1237,735 1226,694 1225,655 1303,656 1303,698 " />
<polygon class="Window" fill="#F6BD0F" id="20" transcription="" points="1480,656 1479,708 1493,743 1558,707 1558,656 " />
<polygon class="Door" fill="#8BBA00" id="21" transcription="" points="1319,960 1281,996 1273,1047 1367,1045 1369,950 " />
<polygon class="Door" fill="#8BBA00" id="22" transcription="" points="1458,970 1496,1007 1506,1065 1400,1064 1402,956 " />
<polygon class="Door" fill="#8BBA00" id="23" transcription="" points="1812,1550 1867,1562 1899,1595 1914,1646 1913,1696 1815,1698 " />
<polygon class="Door" fill="#8BBA00" id="24" transcription="" points="2108,1574 2149,1581 2183,1620 2208,1585 2257,1573 2258,1696 2107,1695 " />
<polygon class="Window" fill="#F6BD0F" id="25" transcription="" points="2485,1370 2504,1378 2484,1386 2521,1448 2572,1450 2571,1305 2521,1305 " />
<polygon class="Window" fill="#F6BD0F" id="26" transcription="" points="2483,970 2504,977 2484,981 2519,1048 2572,1050 2572,906 2518,903 " />
<polygon class="Wall" fill="#AFD8F8" id="27" transcription="" points="663,662 1227,662 1227,688 662,688 " />
<polygon class="Wall" fill="#AFD8F8" id="28" transcription="" points="660,662 663,721 688,719 688,665 " />
<polygon class="Wall" fill="#AFD8F8" id="29" transcription="" points="663,1065 1273,1065 1273,1043 663,1041 " />
<polygon class="Wall" fill="#AFD8F8" id="30" transcription="" points="691,1008 691,1065 665,1066 665,1010 " />
<polygon class="Wall" fill="#AFD8F8" id="31" transcription="" points="1485,663 1486,707 1372,707 1372,663 " />
<polygon class="Wall" fill="#AFD8F8" id="32" transcription="" points="1308,660 1486,660 1486,687 1310,688 " />
<polygon class="Wall" fill="#AFD8F8" id="33" transcription="" points="1374,1065 1371,660 1396,658 1399,1063 " />
<polygon class="Wall" fill="#AFD8F8" id="34" transcription="" points="1564,665 1695,663 1695,705 1559,704 " />
<polygon class="Wall" fill="#AFD8F8" id="35" transcription="" points="2566,663 2028,662 2028,704 2566,707 " />
<polygon class="Wall" fill="#AFD8F8" id="36" transcription="" points="2569,662 2567,898 2523,902 2519,662 " />
<polygon class="Wall" fill="#AFD8F8" id="37" transcription="" points="2567,1051 2569,1304 2520,1302 2522,1051 " />
<polygon class="Wall" fill="#AFD8F8" id="38" transcription="" points="2567,1689 2567,1450 2523,1449 2525,1691 " />
<polygon class="Wall" fill="#AFD8F8" id="39" transcription="" points="2255,1649 2567,1650 2566,1691 2259,1689 " />
<polygon class="Wall" fill="#AFD8F8" id="40" transcription="" points="1919,1647 2108,1647 2108,1691 1919,1691 " />
<polygon class="Wall" fill="#AFD8F8" id="41" transcription="" points="1662,1652 1814,1649 1814,1693 1662,1696 " />
<polygon class="Wall" fill="#AFD8F8" id="42" transcription="" points="1550,1973 1395,1972 1397,1931 1550,1934 " />
<polygon class="Wall" fill="#AFD8F8" id="43" transcription="" points="1506,1916 1505,1972 1550,1972 1552,1909 " />
<polygon class="Wall" fill="#AFD8F8" id="44" transcription="" points="1667,1950 1692,1950 1692,1975 1667,1975 " />
<polygon class="Wall" fill="#AFD8F8" id="45" transcription="" points="665,1973 808,1973 808,1933 662,1933 " />
<polygon class="Wall" fill="#AFD8F8" id="46" transcription="" points="662,1730 662,1969 705,1970 704,1730 " />
<polygon class="Wall" fill="#AFD8F8" id="47" transcription="" points="662,1377 662,1581 708,1580 708,1377 " />
<polygon class="Wall" fill="#AFD8F8" id="48" transcription="" points="823,1423 658,1419 662,1375 778,1373 782,1361 827,1364 " />
<polygon class="Wall" fill="#AFD8F8" id="49" transcription="" points="782,1158 782,1263 824,1263 826,1156 " />
<polygon class="Wall" fill="#AFD8F8" id="50" transcription="" points="783,1038 783,1078 821,1080 821,1041 " />
<polygon class="Wall" fill="#AFD8F8" id="51" transcription="" points="1602,1065 1600,704 1612,704 1612,1065 " />
<polygon class="Wall" fill="#AFD8F8" id="52" transcription="" points="1506,1057 1702,1056 1702,1069 1508,1069 " />
<polygon class="Wall" fill="#AFD8F8" id="53" transcription="" points="1813,703 1812,1065 1800,1065 1802,704 " />
<polygon class="Wall" fill="#AFD8F8" id="54" transcription="" points="1765,663 1953,662 1956,705 1768,707 " />
<polygon class="Wall" fill="#AFD8F8" id="55" transcription="" points="1808,1056 2057,1058 2058,1070 1812,1069 " />
<polygon class="Wall" fill="#AFD8F8" id="56" transcription="" points="2173.5,701.5 2170.5,1070.5 2159.5,1069.5 2160.5,702.5 " />
<polygon class="Wall" fill="#AFD8F8" id="57" transcription="" points="2525,1168 2160,1167 2160,1180 2525,1178 " />
<polygon class="Wall" fill="#AFD8F8" id="58" transcription="" points="1848,1168 2053,1167 2053,1180 1847,1180 " />
<polygon class="Wall" fill="#AFD8F8" id="59" transcription="" points="1506,1169 1754,1170 1755,1179 1505,1180 " />
<polygon class="Wall" fill="#AFD8F8" id="60" transcription="" points="1278,1168 1277,1180 1400,1179 1400,1168 " />
<polygon class="Wall" fill="#AFD8F8" id="61" transcription="" points="1198,1521 1210,1522 1211,1250 1198,1248 " />
<polygon class="Wall" fill="#AFD8F8" id="62" transcription="" points="1015,1248 1026,1248 1026,1161 1015,1161 " />
<polygon class="Wall" fill="#AFD8F8" id="63" transcription="" points="825,1163 1025,1162 1025,1172 824,1172 " />
<polygon class="Wall" fill="#AFD8F8" id="64" transcription="" points="2043,1646 2054,1647 2058,1174 2043,1175 " />
<polygon class="Wall" fill="#AFD8F8" id="65" transcription="" points="1744,1650 1743,1176 1755,1177 1754,1649 " />
<polygon class="Wall" fill="#AFD8F8" id="66" transcription="" points="2285,1571 2297,1571 2296,1651 2285,1651 " />
<polygon class="Wall" fill="#AFD8F8" id="67" transcription="" points="1715,251 1739,251 1739,275 1713,275 " />
<polygon class="Wall" fill="#AFD8F8" id="68" transcription="" points="1172,249 1196,252 1196,275 1175,275 " />
<polygon class="Room" fill="#008E8E" id="69" transcription="" points="697,692 1361,692 1363,1037 697,1032 " />
<polygon class="Room" fill="#008E8E" id="70" transcription="" points="1400,708 1601,707 1599,1053 1404,1062 " />
<polygon class="Room" fill="#008E8E" id="71" transcription="" points="1610,708 1798,708 1798,1053 1615,1046 " />
<polygon class="Room" fill="#008E8E" id="72" transcription="" points="1817,713 2155,718 2152,1051 1814,1058 " />
<polygon class="Room" fill="#008E8E" id="73" transcription="" points="2178,713 2516,720 2514,1161 2169,1154 " />
<polygon class="Room" fill="#008E8E" id="74" transcription="" points="2516,1187 2519,1645 2061,1638 2061,1180 " />
<polygon class="Room" fill="#008E8E" id="75" transcription="" points="2044,1185 2037,1636 1758,1638 1760,1187 " />
<polygon class="Room" fill="#008E8E" id="76" transcription="" points="1208,1255.5 1278,1181.5 1734,1179.5 1732,1639.5 1206,1642.5 " />
<polygon class="Room" fill="#008E8E" id="77" transcription="" points="1028,1244 1197,1249 1284,1167 2159,1161 2155,1063 1032,1072 " />
<polygon class="Room" fill="#008E8E" id="78" transcription="" points="1190,1420 1190,1253 1011,1254 1009,1176 831,1178 831,1417 " />
<polygon class="Room" fill="#008E8E" id="79" transcription="" points="713,1426.5 1190,1430.5 1197,1644.5 1497,1649.5 1500,1926.5 711,1923.5 " />
<polygon class="Room" fill="#008E8E" id="80" transcription="" points="1009,1072 1004,1161 833,1159 831,1065 " />
<polygon class="Wall" fill="#AFD8F8" id="81" transcription="" points="1199,1250 1279,1173 1284,1179 1212,1251 " />
<polygon class="Separation" fill="#D64646" id="82" transcription="" points="821,1409 1199,1409 1199,1429 821,1429 " />
<polygon class="Separation" fill="#D64646" id="83" transcription="" points="1197,1517 1209,1517 1209,1645 1197,1645 " />
<polygon class="Separation" fill="#D64646" id="84" transcription="" points="1198,1638 1509,1638 1509,1653 1198,1653 " />
<polygon class="Separation" fill="#D64646" id="85" transcription="" points="1017,1237 1201,1237 1201,1257 1017,1257 " />
<relation type="incident" objects="27,28"/>
<relation type="incident" objects="28,5"/>
<relation type="incident" objects="5,30"/>
<relation type="incident" objects="30,29"/>
<relation type="incident" objects="50,29"/>
<relation type="incident" objects="50,8"/>
<relation type="incident" objects="8,49"/>
<relation type="incident" objects="49,6"/>
<relation type="incident" objects="6,48"/>
<relation type="incident" objects="48,47"/>
<relation type="incident" objects="47,9"/>
<relation type="incident" objects="9,46"/>
<relation type="incident" objects="46,45"/>
<relation type="incident" objects="45,10"/>
<relation type="incident" objects="10,1"/>
<relation type="incident" objects="1,11"/>
<relation type="incident" objects="11,42"/>
<relation type="incident" objects="42,43"/>
<relation type="incident" objects="43,12"/>
<relation type="incident" objects="0,12"/>
<relation type="incident" objects="0,13"/>
<relation type="incident" objects="13,41"/>
<relation type="incident" objects="41,23"/>
<relation type="incident" objects="23,40"/>
<relation type="incident" objects="40,24"/>
<relation type="incident" objects="24,39"/>
<relation type="incident" objects="39,38"/>
<relation type="incident" objects="38,25"/>
<relation type="incident" objects="37,25"/>
<relation type="incident" objects="37,26"/>
<relation type="incident" objects="26,36"/>
<relation type="incident" objects="36,35"/>
<relation type="incident" objects="35,4"/>
<relation type="incident" objects="4,54"/>
<relation type="incident" objects="54,2"/>
<relation type="incident" objects="2,34"/>
<relation type="incident" objects="34,20"/>
<relation type="incident" objects="20,31"/>
<relation type="incident" objects="31,32"/>
<relation type="incident" objects="32,19"/>
<relation type="incident" objects="19,27"/>
<relation type="incident" objects="27,31"/>
<relation type="incident" objects="33,31"/>
<relation type="incident" objects="33,32"/>
<relation type="incident" objects="33,21"/>
<relation type="incident" objects="21,29"/>
<relation type="incident" objects="33,22"/>
<relation type="incident" objects="22,52"/>
<relation type="incident" objects="52,51"/>
<relation type="incident" objects="51,34"/>
<relation type="incident" objects="52,3"/>
<relation type="incident" objects="3,53"/>
<relation type="incident" objects="53,54"/>
<relation type="incident" objects="53,55"/>
<relation type="incident" objects="55,17"/>
<relation type="incident" objects="17,56"/>
<relation type="incident" objects="56,35"/>
<relation type="incident" objects="56,18"/>
<relation type="incident" objects="18,57"/>
<relation type="incident" objects="57,37"/>
<relation type="incident" objects="57,16"/>
<relation type="incident" objects="16,58"/>
<relation type="incident" objects="58,64"/>
<relation type="incident" objects="64,16"/>
<relation type="incident" objects="64,40"/>
<relation type="incident" objects="41,65"/>
<relation type="incident" objects="65,15"/>
<relation type="incident" objects="15,58"/>
<relation type="incident" objects="65,59"/>
<relation type="incident" objects="59,14"/>
<relation type="incident" objects="14,60"/>
<relation type="incident" objects="81,60"/>
<relation type="incident" objects="81,61"/>
<relation type="neighbour" objects="69,70"/>
<relation type="neighbour" objects="70,71"/>
<relation type="neighbour" objects="72,71"/>
<relation type="neighbour" objects="72,73"/>
<relation type="neighbour" objects="73,74"/>
<relation type="neighbour" objects="74,77"/>
<relation type="neighbour" objects="77,72"/>
<relation type="neighbour" objects="77,73"/>
<relation type="neighbour" objects="77,75"/>
<relation type="neighbour" objects="75,74"/>
<relation type="neighbour" objects="75,76"/>
<relation type="neighbour" objects="76,77"/>
<relation type="neighbour" objects="77,69"/>
<relation type="neighbour" objects="77,70"/>
<relation type="neighbour" objects="77,71"/>
<relation type="neighbour" objects="76,78"/>
<relation type="neighbour" objects="78,79"/>
<relation type="neighbour" objects="79,76"/>
<relation type="neighbour" objects="78,77"/>
<relation type="neighbour" objects="69,80"/>
<relation type="neighbour" objects="80,78"/>
<relation type="neighbour" objects="80,77"/>
<relation type="incident" objects="48,82"/>
<relation type="incident" objects="82,61"/>
<relation type="incident" objects="61,83"/>
<relation type="incident" objects="83,84"/>
<relation type="access" objects="77,21,69"/>
<relation type="access" objects="77,22,70"/>
<relation type="access" objects="77,3,71"/>
<relation type="access" objects="77,17,72"/>
<relation type="access" objects="77,18,73"/>
<relation type="access" objects="77,16,74"/>
<relation type="access" objects="77,15,75"/>
<relation type="access" objects="77,14,76"/>
<relation type="access" objects="76,13,76"/>
<relation type="access" objects="80,7,77"/>
<relation type="outerP" objects="27,19,32,20,34,2,54,4,35,36,26,37,25,38,39,24,40,23,41,13,0,12,43,42,11,1,10,45,46,9,47,48,6,49,8,50,29,30,5,28"/>
<relation type="incident" objects="85,62"/>
<relation type="incident" objects="85,81"/>
<relation type="incident" objects="85,61"/>
<relation type="surround" objects="27,19,32,33,21,29,30,5,28,27,69"/>
<relation type="surround" objects="31,20,34,51,52,22,33,31,70"/>
<relation type="surround" objects="34,2,54,53,3,52,51,34,71"/>
<relation type="surround" objects="54,4,35,56,17,55,53,54,72"/>
<relation type="surround" objects="35,36,26,37,57,18,56,35,73"/>
<relation type="surround" objects="29,7,63,8,50,29,80"/>
<relation type="surround" objects="29,21,33,22,52,3,55,17,56,18,57,16,58,15,59,14,60,81,85,62,7,29,77"/>
<relation type="surround" objects="63,62,85,61,82,6,49,63,78"/>
<relation type="surround" objects="48,82,61,83,84,0,12,43,42,11,1,10,45,46,9,47,48,79"/>
<relation type="surround" objects="15,58,64,40,23,41,65,15,75"/>
<relation type="surround" objects="81,60,14,59,65,41,13,0,84,83,61,81,76"/>
<relation type="surround" objects="16,57,37,25,38,39,24,40,64,16,74"/>
<relation type="access" objects="79,84,76"/>
<relation type="access" objects="78,82,79"/>
<relation type="access" objects="78,85,77"/>
</svg>