<?xml version="1.0" encoding="UTF-8"?><!DOCTYPE svg PUBLIC "-//W3C//DTD SVG 1.1//EN" "http://www.w3.org/Graphics/SVG/1.1/DTD/svg11.dtd">
<svg xmlns="http://www.w3.org/2000/svg" version="1.1">
<width>2479</width>
<height>3508</height>
<nclasslabel>50</nclasslabel>
<nclassappear>6</nclassappear>
<class>Bidet-1</class>
<class>Bidet-2</class>
<class>Bidet-3</class>
<class>Bidet-4</class>
<class>Door</class>
<class>Door-1</class>
<class>Door-23</class>
<class>Oven-1</class>
<class>Oven-2</class>
<class>Oven-3</class>
<class>Oven-4</class>
<class>Parking</class>
<class>Roof</class>
<class>Room</class>
<class>Separation</class>
<class>Sink-1</class>
<class>Sink-11</class>
<class>Sink-12</class>
<class>Sink-13</class>
<class>Sink-14</class>
<class>Sink-2</class>
<class>Sink-3</class>
<class>Sink-4</class>
<class>Sink-5</class>
<class>Sink-6</class>
<class>Sofa-1</class>
<class>Sofa-3</class>
<class>Sofa-4</class>
<class>Sofa-5</class>
<class>Sofa-6</class>
<class>Sofa-7</class>
<class>Sofa-8</class>
<class>Sofa-9</class>
<class>Stairs-1</class>
<class>Table-1</class>
<class>Table-2</class>
<class>Table-3</class>
<class>Table-4</class>
<class>Table-5</class>
<class>Table-6</class>
<class>Table-7</class>
<class>Text</class>
<class>Tub-1</class>
<class>Tub-3</class>
<class>TV-1</class>
<class>TV-2</class>
<class>Wall</class>
<class>Wall-1</class>
<class>Wallieee</class>
<class>Window</class>
<polygon class="Wall" fill="#AFD8F8" id="0" transcription="" points="948,566 1661,566 1668,591 948,591 " />
<polygon class="Wall" fill="#AFD8F8" id="1" transcription="" points="280,2345 320,2344 320,1919 279,1919 " />
<polygon class="Wall" fill="#AFD8F8" id="2" transcription="" points="887,2042 946,2042 946,2084 887,2084 " />
<polygon class="Wall" fill="#AFD8F8" id="3" transcription="" points="674,2303 930,2301 930,2344 675,2344 " />
<polygon class="Wall" fill="#AFD8F8" id="4" transcription="" points="1660,802 1685,803 1685,1003 1661,1002 " />
<polygon class="Wall" fill="#AFD8F8" id="5" transcription="" points="1642,1027 1642,1004 1191,1002 1191,1027 " />
<polygon class="Wall" fill="#AFD8F8" id="6" transcription="" points="1643,1110 1686,1111 1685,1002 1642,1003 " />
<polygon class="Wall" fill="#AFD8F8" id="7" transcription="" points="965,1003 1081,1002 1081,1027 964,1029 " />
<polygon class="Wall" fill="#AFD8F8" id="8" transcription="" points="964,1145 922,1146 921,1004 965,1003 " />
<polygon class="Wall" fill="#AFD8F8" id="9" transcription="" points="922,955 947,956 947,1002 921,1004 " />
<polygon class="Wall" fill="#AFD8F8" id="10" transcription="" points="1660,732 1684,732 1684,566 1660,565 " />
<polygon class="Wall" fill="#AFD8F8" id="11" transcription="" points="1684,1238 1643,1238 1643,1205 1684,1205 " />
<polygon class="Wall" fill="#AFD8F8" id="12" transcription="" points="1721,1240 1720,1281 1650,1281 1651,1238 " />
<polygon class="Wall" fill="#AFD8F8" id="13" transcription="" points="1644,1380 1651,1379 1651,1237 1642,1237 " />
<polygon class="Wall" fill="#AFD8F8" id="14" transcription="" points="1191,1380 1191,1388 1366,1389 1366,1380 " />
<polygon class="Wall" fill="#AFD8F8" id="15" transcription="" points="1466,1380 1467,1389 1649,1389 1650,1381 " />
<polygon class="Wall" fill="#AFD8F8" id="16" transcription="" points="1618,2042 1619,2084 1845,2085 1844,2042 " />
<polygon class="Wall" fill="#AFD8F8" id="17" transcription="" points="1478,2085 1478,2042 1265,2042 1267,2085 " />
<polygon class="Wall" fill="#AFD8F8" id="18" transcription="" points="1040,2042 1041,2084 1172,2084 1171,2041 " />
<polygon class="Wall" fill="#AFD8F8" id="19" transcription="" points="887,2300 930,2300 929,2084 886,2084 " />
<polygon class="Wall" fill="#AFD8F8" id="20" transcription="" points="320,2301 320,2344 533,2344 534,2302 " />
<polygon class="Wall" fill="#AFD8F8" id="21" transcription="" points="320,1683 280,1666 279,1777 321,1778 " />
<polygon class="Wall" fill="#AFD8F8" id="22" transcription="" points="464,1481 480,1523 320,1683 280,1665 " />
<polygon class="Wall" fill="#AFD8F8" id="23" transcription="" points="799,1523 800,1481 465,1480 480,1523 " />
<polygon class="Wall" fill="#AFD8F8" id="24" transcription="" points="928,1481 949,1523 972,1497 942,1466 " />
<polygon class="Wall" fill="#AFD8F8" id="25" transcription="" points="869,1481 928,1481 949,1523 869,1523 " />
<polygon class="Wall" fill="#AFD8F8" id="26" transcription="" points="1016,1393 1046,1423 1082,1389 1055,1358 " />
<polygon class="Wall" fill="#AFD8F8" id="27" transcription="" points="920,1285 965,1269 1054,1359 1021,1386 " />
<polygon class="Wall" fill="#AFD8F8" id="28" transcription="" points="922,1215 963,1215 965,1269 921,1284 " />
<polygon class="Wall" fill="#AFD8F8" id="29" transcription="" points="923,566 947,566 946,674 923,674 " />
<polygon class="Wall" fill="#AFD8F8" id="30" transcription="" points="1702,1486 1709,1486 1709,2041 1702,2041 " />
<polygon class="Wall" fill="#AFD8F8" id="31" transcription="" points="1373,1487 1373,1495 1602,1495 1601,1488 " />
<polygon class="Wall" fill="#AFD8F8" id="32" transcription="" points="1373,1486 1365,1489 1366,2041 1372,2042 " />
<polygon class="Wall" fill="#AFD8F8" id="33" transcription="" points="1152,1629 1161,1629 1161,1704 1154,1705 " />
<polygon class="Wall" fill="#AFD8F8" id="34" transcription="" points="1154,1705 1154,1713 1364,1712 1364,1705 " />
<polygon class="Wall" fill="#AFD8F8" id="35" transcription="" points="1054,1706 1054,1713 886,1714 887,1705 " />
<polygon class="Wall" fill="#AFD8F8" id="36" transcription="" points="1984,2042 1985,2085 2063,2085 2063,2042 " />
<polygon class="Wall" fill="#AFD8F8" id="37" transcription="" points="2062,1481 2104,1482 2104,2085 2063,2085 2062,1563 " />
<polygon class="Wall" fill="#AFD8F8" id="38" transcription="" points="2061,1281 2104,1281 2104,1411 2061,1411 " />
<polygon class="Wall" fill="#AFD8F8" id="39" transcription="" points="1790,1238 1790,1281 1823,1281 2104,1281 2103,1238 " />
<polygon class="Wall" fill="#AFD8F8" id="40" transcription="" points="1809,1562 1815,1561 1814,1490 1809,1489 " />
<polygon class="Wall" fill="#AFD8F8" id="41" transcription="" points="2061,1564 2061,1571 1807,1571 1807,1564 " />
<polygon class="Wall" fill="#AFD8F8" id="42" transcription="" points="1749,1380 1750,1388 1806,1389 1806,1381 " />
<polygon class="Wall" fill="#AFD8F8" id="43" transcription="" points="1815,1281 1808,1281 1808,1389 1814,1389 " />
<polygon class="Wall" fill="#AFD8F8" id="44" transcription="" points="1183,1003 1189,1002 1190,1387 1183,1388 " />
<polygon class="Window" fill="#F6BD0F" id="45" transcription="" points="1656,731 1690,730 1693,804 1656,805 " />
<polygon class="Window" fill="#F6BD0F" id="46" transcription="" points="1637,1110 1690,1110 1691,1206 1639,1205 " />
<polygon class="Window" fill="#F6BD0F" id="47" transcription="" points="1717,1231 1719,1284 1791,1285 1790,1232 " />
<polygon class="Window" fill="#F6BD0F" id="48" transcription="" points="2113,1409 2110,1483 2057,1480 2055,1409 " />
<polygon class="Window" fill="#F6BD0F" id="49" transcription="" points="1842,2036 1844,2091 1981,2091 1981,2036 " />
<polygon class="Window" fill="#F6BD0F" id="50" transcription="" points="1479,2036 1477,2091 1612,2094 1616,2034 " />
<polygon class="Wall" fill="#AFD8F8" id="51" transcription="" points="1304,2319 1305,2344 1329,2344 1329,2321 " />
<polygon class="Window" fill="#F6BD0F" id="52" transcription="" points="1174,2040 1174,2088 1266,2088 1266,2040 " />
<polygon class="Door" fill="#8BBA00" id="53" transcription="" points="1037,1954 1040,2088 948,2084 946,2040 955,1999 989,1961 " />
<polygon class="Window" fill="#F6BD0F" id="54" transcription="" points="536,2232 534,2347 674,2345 672,2231 624,2235 603,2277 571,2233 " />
<polygon class="Window" fill="#F6BD0F" id="55" transcription="" points="390,1913 273,1915 274,1778 392,1779 389,1820 344,1847 382,1869 " />
<polygon class="Window" fill="#F6BD0F" id="56" transcription="" points="799,1476 868,1478 868,1526 799,1525 " />
<polygon class="Door" fill="#8BBA00" id="57" transcription="" points="1111,1493 1040,1413 967,1485 999,1525 1071,1523 " />
<polygon class="Window" fill="#F6BD0F" id="58" transcription="" points="969,1141 916,1143 917,1213 968,1213 " />
<polygon class="Parking" fill="#FF8E46" id="59" transcription="" points="907,675 953,674 954,954 907,952 " />
<polygon class="Room" fill="#008E8E" id="60" transcription="" points="952,594 951,993 1655,995 1653,594 " />
<polygon class="Door" fill="#8BBA00" id="61" transcription="" points="1175,1118 1178,1020 1080,1020 1096,1077 1132,1107 " />
<polygon class="Door" fill="#8BBA00" id="62" transcription="" points="1180,1287 1183,1387 1081,1390 1096,1324 1123,1302 " />
<polygon class="Room" fill="#008E8E" id="63" transcription="" points="1195,1034 1194,1374 1639,1375 1636,1032 " />
<polygon class="Door" fill="#8BBA00" id="64" transcription="" points="1459,1295 1461,1391 1369,1391 1377,1324 1413,1294 " />
<polygon class="Door" fill="#8BBA00" id="65" transcription="" points="1652,1412 1650,1383 1753,1380 1665,1434 " />
<polygon class="Door" fill="#8BBA00" id="66" transcription="" points="1901,1394 1811,1393 1806,1486 1859,1478 1896,1439 " />
<polygon class="Door" fill="#8BBA00" id="67" transcription="" points="1714,1587 1714,1486 1804,1487 1797,1545 1754,1578 " />
<polygon class="Door" fill="#8BBA00" id="68" transcription="" points="1697,1588 1696,1490 1598,1488 1605,1533 1654,1578 " />
<polygon class="Door" fill="#8BBA00" id="69" transcription="" points="1146,1800 1151,1707 1055,1703 1061,1746 1099,1792 " />
<polygon class="Room" fill="#008E8E" id="70" transcription="" points="1657,1285 1656,1374 1802,1375 1803,1290 " />
<polygon class="Room" fill="#008E8E" id="71" transcription="" points="2055,1284 2056,1557 1818,1556 1819,1285 " />
<polygon class="Room" fill="#008E8E" id="72" transcription="" points="1713,2036 2059,2037 2055,1574 1804,1574 1802,1500 1718,1495 " />
<polygon class="Room" fill="#008E8E" id="73" transcription="" points="1379,1495 1375,2034 1698,2033 1692,1501 " />
<polygon class="Room" fill="#008E8E" id="74" transcription="" points="1361,1388 1808,1389 1801,1487 1364,1484 " />
<polygon class="Room" fill="#008E8E" id="75" transcription="" points="1361,1395 1357,1696 1165,1698 1164,1624 1145,1623 1147,1699 892,1699 891,1527 952,1527 1085,1393 " />
<polygon class="Room" fill="#008E8E" id="76" transcription="" points="1361.5,1714 1360.5,2034 885.5,2036 884.5,1716 " />
<polygon class="Room" fill="#008E8E" id="77" transcription="" points="482,1526 326,1687 324,2295 881,2298 882,1530 " />
<polygon class="Room" fill="#008E8E" id="78" transcription="" points="963,1033 966,1266 1084,1385 1177,1382 1176,1031 " />
<polygon class="Separation" fill="#D64646" id="79" transcription="" points="869,1521 887,1521 887,2038 869,2038 " />
<polygon class="Separation" fill="#D64646" id="80" transcription="" points="1351,1387 1364,1387 1364,1489 1351,1489 " />
<relation type="incident" objects="8,58"/>
<relation type="incident" objects="58,28"/>
<relation type="incident" objects="28,27"/>
<relation type="incident" objects="27,26"/>
<relation type="incident" objects="26,57"/>
<relation type="incident" objects="57,24"/>
<relation type="incident" objects="24,25"/>
<relation type="incident" objects="25,56"/>
<relation type="incident" objects="56,23"/>
<relation type="incident" objects="23,22"/>
<relation type="incident" objects="22,21"/>
<relation type="incident" objects="55,21"/>
<relation type="incident" objects="55,1"/>
<relation type="incident" objects="1,20"/>
<relation type="incident" objects="20,54"/>
<relation type="incident" objects="54,3"/>
<relation type="incident" objects="3,19"/>
<relation type="incident" objects="19,2"/>
<relation type="incident" objects="2,53"/>
<relation type="incident" objects="53,18"/>
<relation type="incident" objects="18,52"/>
<relation type="incident" objects="52,17"/>
<relation type="incident" objects="50,17"/>
<relation type="incident" objects="50,16"/>
<relation type="incident" objects="16,49"/>
<relation type="incident" objects="49,36"/>
<relation type="incident" objects="37,36"/>
<relation type="incident" objects="37,48"/>
<relation type="incident" objects="48,38"/>
<relation type="incident" objects="38,39"/>
<relation type="incident" objects="39,47"/>
<relation type="incident" objects="47,12"/>
<relation type="incident" objects="12,11"/>
<relation type="incident" objects="11,46"/>
<relation type="incident" objects="46,6"/>
<relation type="incident" objects="6,4"/>
<relation type="incident" objects="4,45"/>
<relation type="incident" objects="45,10"/>
<relation type="incident" objects="10,0"/>
<relation type="incident" objects="0,29"/>
<relation type="incident" objects="29,59"/>
<relation type="incident" objects="59,9"/>
<relation type="incident" objects="9,8"/>
<relation type="incident" objects="8,7"/>
<relation type="incident" objects="7,61"/>
<relation type="incident" objects="61,5"/>
<relation type="incident" objects="44,61"/>
<relation type="incident" objects="44,5"/>
<relation type="incident" objects="26,62"/>
<relation type="incident" objects="62,44"/>
<relation type="incident" objects="44,14"/>
<relation type="incident" objects="14,62"/>
<relation type="incident" objects="14,64"/>
<relation type="incident" objects="64,15"/>
<relation type="incident" objects="15,13"/>
<relation type="incident" objects="13,12"/>
<relation type="incident" objects="13,11"/>
<relation type="incident" objects="5,6"/>
<relation type="incident" objects="39,43"/>
<relation type="incident" objects="43,42"/>
<relation type="incident" objects="42,65"/>
<relation type="incident" objects="65,15"/>
<relation type="incident" objects="65,13"/>
<relation type="incident" objects="43,66"/>
<relation type="incident" objects="66,40"/>
<relation type="incident" objects="40,41"/>
<relation type="incident" objects="37,41"/>
<relation type="incident" objects="40,67"/>
<relation type="incident" objects="67,30"/>
<relation type="incident" objects="30,68"/>
<relation type="incident" objects="68,31"/>
<relation type="incident" objects="31,32"/>
<relation type="incident" objects="30,16"/>
<relation type="incident" objects="32,17"/>
<relation type="incident" objects="32,34"/>
<relation type="incident" objects="34,33"/>
<relation type="incident" objects="34,69"/>
<relation type="incident" objects="69,33"/>
<relation type="incident" objects="69,35"/>
<relation type="neighbour" objects="77,76"/>
<relation type="neighbour" objects="76,75"/>
<relation type="neighbour" objects="75,77"/>
<relation type="neighbour" objects="75,73"/>
<relation type="neighbour" objects="73,76"/>
<relation type="neighbour" objects="73,72"/>
<relation type="neighbour" objects="72,71"/>
<relation type="neighbour" objects="71,74"/>
<relation type="neighbour" objects="74,72"/>
<relation type="neighbour" objects="73,74"/>
<relation type="neighbour" objects="74,75"/>
<relation type="neighbour" objects="75,78"/>
<relation type="neighbour" objects="78,63"/>
<relation type="neighbour" objects="63,74"/>
<relation type="neighbour" objects="63,75"/>
<relation type="neighbour" objects="63,60"/>
<relation type="neighbour" objects="60,78"/>
<relation type="neighbour" objects="74,70"/>
<relation type="neighbour" objects="70,71"/>
<relation type="neighbour" objects="70,63"/>
<relation type="access" objects="78,61,60"/>
<relation type="access" objects="75,62,78"/>
<relation type="access" objects="74,64,63"/>
<relation type="access" objects="74,65,70"/>
<relation type="access" objects="74,66,71"/>
<relation type="access" objects="74,67,72"/>
<relation type="access" objects="74,68,73"/>
<relation type="access" objects="75,57,75"/>
<relation type="access" objects="76,69,75"/>
<relation type="access" objects="76,53,76"/>
<relation type="incident" objects="25,79"/>
<relation type="incident" objects="79,2"/>
<relation type="incident" objects="79,56"/>
<relation type="incident" objects="80,32"/>
<relation type="incident" objects="80,31"/>
<relation type="incident" objects="14,80"/>
<relation type="outerP" objects="0,10,45,4,6,46,11,12,47,39,38,48,37,36,49,16,50,17,52,18,53,2,19,3,54,20,1,55,21,22,23,56,25,24,57,26,27,28,58,8,9,59,29"/>
<relation type="surround" objects="0,10,45,4,5,61,7,9,59,29,0,60"/>
<relation type="surround" objects="7,61,44,62,26,27,28,58,8,7,78"/>
<relation type="surround" objects="5,6,46,11,13,15,64,14,44,5,63"/>
<relation type="surround" objects="24,57,26,62,14,80,32,34,69,35,79,25,24,75"/>
<relation type="surround" objects="23,56,79,19,3,54,20,1,55,21,22,23,77"/>
<relation type="surround" objects="35,69,34,32,17,52,18,53,2,79,35,76"/>
<relation type="surround" objects="64,15,65,42,66,40,67,30,68,31,80,64,74"/>
<relation type="surround" objects="12,47,43,42,65,13,12,70"/>
<relation type="surround" objects="31,68,30,16,50,17,32,31,73"/>
<relation type="surround" objects="39,38,48,37,41,40,66,43,39,71"/>
<relation type="surround" objects="67,40,41,37,36,49,16,30,67,72"/>
<relation type="access" objects="77,79,76"/>
<relation type="access" objects="77,79,75"/>
<relation type="access" objects="75,80,74"/>
</svg>