<?xml version="1.0" encoding="UTF-8"?><!DOCTYPE svg PUBLIC "-//W3C//DTD SVG 1.1//EN" "http://www.w3.org/Graphics/SVG/1.1/DTD/svg11.dtd">
<svg xmlns="http://www.w3.org/2000/svg" version="1.1">
<width>2479</width>
<height>3508</height>
<nclasslabel>50</nclasslabel>
<nclassappear>7</nclassappear>
<class>Bidet-1</class>
<class>Bidet-2</class>
<class>Bidet-3</class>
<class>Bidet-4</class>
<class>Door</class>
<class>Door-1</class>
<class>Door-23</class>
<class>Oven-1</class>
<class>Oven-2</class>
<class>Oven-3</class>
<class>Oven-4</class>
<class>Parking</class>
<class>Roof</class>
<class>Room</class>
<class>Separation</class>
<class>Sink-1</class>
<class>Sink-11</class>
<class>Sink-12</class>
<class>Sink-13</class>
<class>Sink-14</class>
<class>Sink-2</class>
<class>Sink-3</class>
<class>Sink-4</class>
<class>Sink-5</class>
<class>Sink-6</class>
<class>Sofa-1</class>
<class>Sofa-3</class>
<class>Sofa-4</class>
<class>Sofa-5</class>
<class>Sofa-6</class>
<class>Sofa-7</class>
<class>Sofa-8</class>
<class>Sofa-9</class>
<class>Stairs-1</class>
<class>Table-1</class>
<class>Table-2</class>
<class>Table-3</class>
<class>Table-4</class>
<class>Table-5</class>
<class>Table-6</class>
<class>Table-7</class>
<class>Text</class>
<class>Tub-1</class>
<class>Tub-3</class>
<class>TV-1</class>
<class>TV-2</class>
<class>Wall</class>
<class>Wall-1</class>
<class>Wallieee</class>
<class>Window</class>
<polygon class="Wall" fill="#AFD8F8" id="0" transcription="" points="1472,149 1500,149 1499,173 1473,173 " />
<polygon class="Wall" fill="#AFD8F8" id="1" transcription="" points="2065,148 2089,148 2090,175 2067,173 " />
<polygon class="Wall" fill="#AFD8F8" id="2" transcription="" points="1404,669 1735,669 1732,693 1402,693 " />
<polygon class="Wall" fill="#AFD8F8" id="3" transcription="" points="1828,668 1829,690 2159,692 2159,670 " />
<polygon class="Wall" fill="#AFD8F8" id="4" transcription="" points="1402,935 1428,934 1429,667 1401,667 " />
<polygon class="Wall" fill="#AFD8F8" id="5" transcription="" points="2135,787 2159,788 2160,689 2136,689 " />
<polygon class="Wall" fill="#AFD8F8" id="6" transcription="" points="1404,1006 1430,1004 1428,1134 1404,1134 " />
<polygon class="Wall" fill="#AFD8F8" id="7" transcription="" points="1404,1206 1428,1205 1428,1424 1404,1424 " />
<polygon class="Wall" fill="#AFD8F8" id="8" transcription="" points="1428,1553 1163,1552 1160,1596 1427,1597 " />
<polygon class="Wall" fill="#AFD8F8" id="9" transcription="" points="1404,1517 1429,1516 1428,1696 1404,1696 " />
<polygon class="Wall" fill="#AFD8F8" id="10" transcription="" points="276,1554 1020,1552 1020,1597 276,1596 " />
<polygon class="Wall" fill="#AFD8F8" id="11" transcription="" points="318,1745 275,1743 276,1594 319,1595 " />
<polygon class="Wall" fill="#AFD8F8" id="12" transcription="" points="276,2025 318,2026 316,2217 275,2217 " />
<polygon class="Wall" fill="#AFD8F8" id="13" transcription="" points="302,2245 276,2245 275,2214 300,2216 " />
<polygon class="Wall" fill="#AFD8F8" id="14" transcription="" points="394,2177 392,2220 273,2223 271,2175 " />
<polygon class="Wall" fill="#AFD8F8" id="15" transcription="" points="676,2174 677,2218 790,2217 790,2176 " />
<polygon class="Wall" fill="#AFD8F8" id="16" transcription="" points="748,2466 795,2466 791,2218 747,2217 " />
<polygon class="Wall" fill="#AFD8F8" id="17" transcription="" points="814,2422 813,2466 748,2467 747,2424 " />
<polygon class="Wall" fill="#AFD8F8" id="18" transcription="" points="908,2421 908,2466 1072,2466 1072,2421 " />
<polygon class="Wall" fill="#AFD8F8" id="19" transcription="" points="1074,2546 1031,2546 1027,2420 1073,2422 " />
<polygon class="Wall" fill="#AFD8F8" id="20" transcription="" points="1057,2605 1031,2605 1031,2544 1059,2543 " />
<polygon class="Wall" fill="#AFD8F8" id="21" transcription="" points="1168,2504 1170,2551 1026,2552 1025,2504 " />
<polygon class="Wall" fill="#AFD8F8" id="22" transcription="" points="1309,2504 1309,2551 1446,2549 1446,2506 " />
<polygon class="Wall" fill="#AFD8F8" id="23" transcription="" points="1403,2203 1428,2202 1430,2505 1403,2506 " />
<polygon class="Wall" fill="#AFD8F8" id="24" transcription="" points="1403,3018 1403,2547 1446,2550 1446,3018 " />
<polygon class="Wall" fill="#AFD8F8" id="25" transcription="" points="275,2577 274,2607 305,2607 307,2577 " />
<polygon class="Wall" fill="#AFD8F8" id="26" transcription="" points="642,2582 672,2583 676,2611 644,2609 " />
<polygon class="Wall" fill="#AFD8F8" id="27" transcription="" points="1007,2582 1007,2606 1054,2606 1055,2580 " />
<polygon class="Wall" fill="#AFD8F8" id="28" transcription="" points="1589,2978 1589,3021 1401,3021 1403,2975 " />
<polygon class="Wall" fill="#AFD8F8" id="29" transcription="" points="1727,2976 1727,3021 2046,3018 2047,2976 " />
<polygon class="Wall" fill="#AFD8F8" id="30" transcription="" points="2189,2978 2190,3022 2373,3020 2371,2976 " />
<polygon class="Wall" fill="#AFD8F8" id="31" transcription="" points="2330,2512 2373,2512 2374,3021 2330,3020 " />
<polygon class="Wall" fill="#AFD8F8" id="32" transcription="" points="2331,2204 2373,2204 2372,2440 2330,2440 " />
<polygon class="Wall" fill="#AFD8F8" id="33" transcription="" points="2332,2064 2376,2064 2374,1908 2332,1908 " />
<polygon class="Wall" fill="#AFD8F8" id="34" transcription="" points="2119,1955 2377,1952 2374,1909 2117,1905 " />
<polygon class="Wall" fill="#AFD8F8" id="35" transcription="" points="2118,1849 2160,1849 2165,1948 2118,1945 " />
<polygon class="Wall" fill="#AFD8F8" id="36" transcription="" points="2349,1886 2377,1885 2377,1924 2351,1921 " />
<polygon class="Wall" fill="#AFD8F8" id="37" transcription="" points="1829,2127 1854,2127 1853,2541 1829,2541 " />
<polygon class="Wall" fill="#AFD8F8" id="38" transcription="" points="1854,1696 1854,1739 1402,1738 1402,1696 " />
<polygon class="Wall" fill="#AFD8F8" id="39" transcription="" points="1445,1951 1403,1950 1402,1733 1447,1735 " />
<polygon class="Wall" fill="#AFD8F8" id="40" transcription="" points="1950,1697 1952,1738 2160,1742 2160,1695 " />
<polygon class="Wall" fill="#AFD8F8" id="41" transcription="" points="2185,1697 2185,1721 2159,1721 2159,1695 " />
<polygon class="Wall" fill="#AFD8F8" id="42" transcription="" points="2341,1697 2381,1697 2378,1733 2347,1733 " />
<polygon class="Wall" fill="#AFD8F8" id="43" transcription="" points="2136,1513 2159,1512 2161,1693 2134,1693 " />
<polygon class="Wall" fill="#AFD8F8" id="44" transcription="" points="2133,1259 2159,1258 2160,1441 2133,1441 " />
<polygon class="Wall" fill="#AFD8F8" id="45" transcription="" points="1830,2641 1853,2641 1853,2666 1829,2664 " />
<polygon class="Wall" fill="#AFD8F8" id="46" transcription="" points="1953,2641 1976,2641 1977,2663 1953,2663 " />
<polygon class="Text" fill="#F6BD0F" id="47" transcription="" points="1548,1941 1563,1940 1563,1957 1549,1957 " />
<polygon class="Wall" fill="#AFD8F8" id="48" transcription="" points="1656,1951 1667,1950 1665,1736 1655,1736 " />
<polygon class="Wall" fill="#AFD8F8" id="49" transcription="" points="1762,1951 1773,1951 1773,1740 1762,1740 " />
<polygon class="Wall" fill="#AFD8F8" id="50" transcription="" points="1970,2212 1981,2212 1978,1944 1968,1944 " />
<polygon class="Wall" fill="#AFD8F8" id="51" transcription="" points="1965,1943 1967,1954 2118,1954 2118,1942 " />
<polygon class="Wall" fill="#AFD8F8" id="52" transcription="" points="1969,2419 1981,2419 1981,2297 1968,2298 " />
<polygon class="Wall" fill="#AFD8F8" id="53" transcription="" points="2330,2303 2330,2313 1966,2313 1965,2302 " />
<polygon class="Wall" fill="#AFD8F8" id="54" transcription="" points="1970,2545 2327,2545 2328,2557 1968,2557 " />
<polygon class="Wall" fill="#AFD8F8" id="55" transcription="" points="1968,2502 1980,2502 1979,2665 1969,2666 " />
<polygon class="Wall" fill="#AFD8F8" id="56" transcription="" points="1827,2664 1836,2663 1838,2976 1827,2976 " />
<polygon class="Wall" fill="#AFD8F8" id="57" transcription="" points="782,2097 793,2097 793,2177 781,2176 " />
<polygon class="Wall" fill="#AFD8F8" id="58" transcription="" points="1428,2094 1427,2105 780,2107 779,2094 " />
<polygon class="Wall" fill="#AFD8F8" id="59" transcription="" points="1528,2212 1826,2211 1826,2202 1527,2203 " />
<polygon class="Wall" fill="#AFD8F8" id="60" transcription="" points="1428,2457 1427,2467 1827,2467 1826,2457 " />
<polygon class="Wall" fill="#AFD8F8" id="61" transcription="" points="1527,2127 1538,2127 1536,2201 1526,2201 " />
<polygon class="Door" fill="#8BBA00" id="62" transcription="" points="1740,779 1736,689 1833,688 1813,733 1783,766 " />
<polygon class="Parking" fill="#FF8E46" id="63" transcription="" points="2164,785 2125,786 2127,1257 2163,1253 " />
<polygon class="Window" fill="#008E8E" id="64" transcription="" points="1393,1010 1394,932 1435,930 1479,994 1457,1007 " />
<polygon class="Window" fill="#008E8E" id="65" transcription="" points="1393,1132 1435,1133 1474,1197 1450,1210 1397,1208 " />
<polygon class="Door" fill="#8BBA00" id="66" transcription="" points="1513,1513 1397,1513 1397,1424 1465,1430 1499,1462 " />
<polygon class="Door" fill="#8BBA00" id="67" transcription="" points="1947,1826 1947,1694 1852,1693 1861,1783 1885,1815 " />
<polygon class="Window" fill="#008E8E" id="68" transcription="" points="2168,1511 2166,1438 2107,1439 2093,1452 2133,1513 " />
<polygon class="Window" fill="#008E8E" id="69" transcription="" points="1020,1545 1162,1546 1163,1596 1099,1634 1088,1618 1079,1634 1021,1600 " />
<polygon class="Window" fill="#008E8E" id="70" transcription="" points="270,1749 323,1748 321,2024 273,2024 " />
<polygon class="Window" fill="#008E8E" id="71" transcription="" points="395,2223 678,2223 676,2166 393,2166 " />
<polygon class="Door" fill="#8BBA00" id="72" transcription="" points="813,2327 810,2470 909,2471 907,2374 873,2335 " />
<polygon class="Window" fill="#008E8E" id="73" transcription="" points="1168,2554 1307,2555 1309,2499 1249,2465 1238,2477 1231,2462 1168,2501 " />
<polygon class="Door" fill="#8BBA00" id="74" transcription="" points="1303,2108 1409,2111 1409,2199 1362,2191 1317,2146 " />
<polygon class="Door" fill="#8BBA00" id="75" transcription="" points="1431,2303 1429,2203 1531,2206 1520,2256 1493,2288 " />
<polygon class="Door" fill="#8BBA00" id="76" transcription="" points="1642,1999 1553,1950 1653,1947 " />
<polygon class="Door" fill="#8BBA00" id="77" transcription="" points="1753,2000 1660,1949 1760,1949 " />
<polygon class="Door" fill="#8BBA00" id="78" transcription="" points="2012,1749 2163,1741 2168,1849 2084,1846 2017,1796 " />
<polygon class="Door" fill="#8BBA00" id="79" transcription="" points="2072,2298 1966,2301 1964,2207 2019,2206 2057,2237 " />
<polygon class="Door" fill="#8BBA00" id="80" transcription="" points="2072,2506 1968,2506 1964,2411 2014,2417 2044,2440 " />
<polygon class="Door" fill="#8BBA00" id="81" transcription="" points="1733,2543 1839,2548 1843,2637 1772,2628 1743,2581 " />
<polygon class="Door" fill="#8BBA00" id="82" transcription="" points="1855,2753 1855,2662 1955,2662 1947,2718 1897,2747 " />
<polygon class="Window" fill="#008E8E" id="83" transcription="" points="2379,2061 2379,2201 2330,2201 2293,2144 2297,2130 2285,2123 2329,2066 " />
<polygon class="Window" fill="#008E8E" id="84" transcription="" points="2379,2438 2380,2509 2329,2513 2288,2448 2327,2436 " />
<polygon class="Window" fill="#008E8E" id="85" transcription="" points="1591,3023 1730,3026 1725,2968 1668,2940 1657,2951 1649,2934 1590,2967 " />
<polygon class="Window" fill="#008E8E" id="86" transcription="" points="2049,3028 2189,3025 2186,2972 2127,2937 2121,2950 2110,2937 2044,2975 " />
<polygon class="Room" fill="#D64646" id="87" transcription="" points="1438.5,702 2128.5,700 2128.5,1693 1431.5,1690 " />
<polygon class="Room" fill="#D64646" id="88" transcription="" points="326,1599 1399,1601 1399,2097 781,2087 777,2174 321,2169 " />
<polygon class="Room" fill="#D64646" id="89" transcription="" points="795,2118 1396,2115 1401,2496 1079,2493 1075,2406 795,2409 " />
<polygon class="Room" fill="#D64646" id="90" transcription="" points="1450,2477 1450,2970 1819,2972 1824,2475 " />
<polygon class="Room" fill="#D64646" id="91" transcription="" points="2324,2566 2328,2970 1845,2970 1845,2674 1986,2669 1986,2564 " />
<polygon class="Room" fill="#D64646" id="92" transcription="" points="2319,2317 2326,2543 1986,2540 1983,2317 " />
<polygon class="Room" fill="#D64646" id="93" transcription="" points="1988,1958 2328,1956 2326,2291 1988,2291 " />
<polygon class="Room" fill="#D64646" id="94" transcription="" points="1824,2216 1824,2449 1432,2451 1429,2214 " />
<polygon class="Room" fill="#D64646" id="95" transcription="" points="1407.5,1956 1956.5,1951 1973.5,2651 1851.5,2655 1858.5,2120 1823.5,2120 1823.5,2195 1412.5,2198 " />
<polygon class="Room" fill="#D64646" id="96" transcription="" points="1781,1749 2119,1747 2115,1935 1781,1935 " />
<polygon class="Room" fill="#D64646" id="97" transcription="" points="1669,1742 1760,1740 1760,1942 1673,1942 " />
<polygon class="Room" fill="#D64646" id="98" transcription="" points="1450,1735 1652,1742 1645,1944 1448,1944 " />
<polygon class="Separation" fill="#8E468E" id="99" transcription="" points="1444,1939 1548,1939 1548,1954 1444,1954 " />
<polygon class="Separation" fill="#8E468E" id="100" transcription="" points="1776,1937 1970,1937 1970,1952 1776,1952 " />
<polygon class="Separation" fill="#8E468E" id="101" transcription="" points="1395,1945 1407,1945 1407,2094 1395,2094 " />
<relation type="incident" objects="4,64"/>
<relation type="incident" objects="64,6"/>
<relation type="incident" objects="6,65"/>
<relation type="incident" objects="65,7"/>
<relation type="incident" objects="7,66"/>
<relation type="incident" objects="66,9"/>
<relation type="incident" objects="9,8"/>
<relation type="incident" objects="8,69"/>
<relation type="incident" objects="69,10"/>
<relation type="incident" objects="10,11"/>
<relation type="incident" objects="11,70"/>
<relation type="incident" objects="70,12"/>
<relation type="incident" objects="12,14"/>
<relation type="incident" objects="14,71"/>
<relation type="incident" objects="71,15"/>
<relation type="incident" objects="15,16"/>
<relation type="incident" objects="16,17"/>
<relation type="incident" objects="17,72"/>
<relation type="incident" objects="72,18"/>
<relation type="incident" objects="18,19"/>
<relation type="incident" objects="19,21"/>
<relation type="incident" objects="73,21"/>
<relation type="incident" objects="21,20"/>
<relation type="incident" objects="20,27"/>
<relation type="incident" objects="20,19"/>
<relation type="incident" objects="73,22"/>
<relation type="incident" objects="22,24"/>
<relation type="incident" objects="24,28"/>
<relation type="incident" objects="28,85"/>
<relation type="incident" objects="85,29"/>
<relation type="incident" objects="29,86"/>
<relation type="incident" objects="86,30"/>
<relation type="incident" objects="30,31"/>
<relation type="incident" objects="31,84"/>
<relation type="incident" objects="84,32"/>
<relation type="incident" objects="83,32"/>
<relation type="incident" objects="83,33"/>
<relation type="incident" objects="33,34"/>
<relation type="incident" objects="34,35"/>
<relation type="incident" objects="35,78"/>
<relation type="incident" objects="33,36"/>
<relation type="incident" objects="34,36"/>
<relation type="incident" objects="78,40"/>
<relation type="incident" objects="40,43"/>
<relation type="incident" objects="43,68"/>
<relation type="incident" objects="68,44"/>
<relation type="incident" objects="44,63"/>
<relation type="incident" objects="63,5"/>
<relation type="incident" objects="5,3"/>
<relation type="incident" objects="62,3"/>
<relation type="incident" objects="62,2"/>
<relation type="incident" objects="2,4"/>
<relation type="incident" objects="9,38"/>
<relation type="incident" objects="38,67"/>
<relation type="incident" objects="67,40"/>
<relation type="incident" objects="40,41"/>
<relation type="incident" objects="38,39"/>
<relation type="incident" objects="38,48"/>
<relation type="incident" objects="38,49"/>
<relation type="incident" objects="49,77"/>
<relation type="incident" objects="48,77"/>
<relation type="incident" objects="48,76"/>
<relation type="incident" objects="34,51"/>
<relation type="incident" objects="51,50"/>
<relation type="incident" objects="50,79"/>
<relation type="incident" objects="79,53"/>
<relation type="incident" objects="53,32"/>
<relation type="incident" objects="53,52"/>
<relation type="incident" objects="52,80"/>
<relation type="incident" objects="80,55"/>
<relation type="incident" objects="55,54"/>
<relation type="incident" objects="54,31"/>
<relation type="incident" objects="55,82"/>
<relation type="incident" objects="82,45"/>
<relation type="incident" objects="45,56"/>
<relation type="incident" objects="56,29"/>
<relation type="incident" objects="45,81"/>
<relation type="incident" objects="81,37"/>
<relation type="incident" objects="37,60"/>
<relation type="incident" objects="60,23"/>
<relation type="incident" objects="23,22"/>
<relation type="incident" objects="23,75"/>
<relation type="incident" objects="75,59"/>
<relation type="incident" objects="59,37"/>
<relation type="incident" objects="23,74"/>
<relation type="incident" objects="74,58"/>
<relation type="incident" objects="58,57"/>
<relation type="incident" objects="15,57"/>
<relation type="incident" objects="100,51"/>
<relation type="incident" objects="100,50"/>
<relation type="incident" objects="100,49"/>
<relation type="incident" objects="39,99"/>
<relation type="incident" objects="99,76"/>
<relation type="incident" objects="39,101"/>
<relation type="incident" objects="101,58"/>
<relation type="neighbour" objects="87,98"/>
<relation type="neighbour" objects="98,97"/>
<relation type="neighbour" objects="97,96"/>
<relation type="neighbour" objects="96,87"/>
<relation type="neighbour" objects="87,97"/>
<relation type="neighbour" objects="98,88"/>
<relation type="neighbour" objects="88,89"/>
<relation type="neighbour" objects="89,95"/>
<relation type="neighbour" objects="95,88"/>
<relation type="neighbour" objects="95,98"/>
<relation type="neighbour" objects="95,96"/>
<relation type="neighbour" objects="95,93"/>
<relation type="neighbour" objects="93,92"/>
<relation type="neighbour" objects="92,95"/>
<relation type="neighbour" objects="93,96"/>
<relation type="neighbour" objects="92,91"/>
<relation type="neighbour" objects="91,90"/>
<relation type="neighbour" objects="90,94"/>
<relation type="neighbour" objects="94,89"/>
<relation type="neighbour" objects="89,90"/>
<relation type="neighbour" objects="94,95"/>
<relation type="access" objects="87,66,87"/>
<relation type="access" objects="87,62,87"/>
<relation type="access" objects="87,67,96"/>
<relation type="access" objects="96,78,96"/>
<relation type="access" objects="97,77,95"/>
<relation type="access" objects="95,98,76"/>
<relation type="access" objects="95,74,89"/>
<relation type="access" objects="95,75,94"/>
<relation type="access" objects="95,79,93"/>
<relation type="access" objects="95,80,92"/>
<relation type="access" objects="95,82,91"/>
<relation type="access" objects="95,81,90"/>
<relation type="access" objects="89,72,89"/>
<relation type="access" objects="96,100,95"/>
<relation type="access" objects="88,101,95"/>
<relation type="outerP" objects="2,4,64,6,65,7,66,9,8,69,10,11,70,12,14,71,15,16,17,72,18,19,21,73,22,24,28,85,29,86,30,31,84,32,83,33,34,35,78,40,43,68,44,63,5,3,62"/>
<relation type="surround" objects="2,4,64,6,65,7,66,9,38,67,40,43,68,44,63,5,3,62,2,87"/>
<relation type="surround" objects="10,69,8,9,39,101,58,57,15,71,14,12,70,11,10,88"/>
<relation type="surround" objects="38,48,76,99,39,38,98"/>
<relation type="surround" objects="38,49,77,48,38,97"/>
<relation type="surround" objects="38,67,40,78,35,51,100,49,38,96"/>
<relation type="surround" objects="51,34,33,83,32,53,79,50,51,93"/>
<relation type="surround" objects="53,32,84,31,54,55,80,52,53,92"/>
<relation type="surround" objects="54,31,30,86,29,56,45,82,46,55,54,91"/>
<relation type="surround" objects="60,37,81,45,56,29,85,28,24,22,23,60,90"/>
<relation type="surround" objects="75,59,37,60,23,75,94"/>
<relation type="surround" objects="58,74,23,22,73,21,19,18,72,17,16,15,57,58,89"/>
<relation type="surround" objects="39,99,76,48,77,49,100,50,79,52,80,55,82,45,81,37,59,75,23,74,58,101,39,95"/>
</svg>