<?xml version="1.0" encoding="UTF-8"?><!DOCTYPE svg PUBLIC "-//W3C//DTD SVG 1.1//EN" "http://www.w3.org/Graphics/SVG/1.1/DTD/svg11.dtd">
<svg xmlns="http://www.w3.org/2000/svg" version="1.1">
<width>2480</width>
<height>3508</height>
<nclasslabel>50</nclasslabel>
<nclassappear>5</nclassappear>
<class>Bidet-1</class>
<class>Bidet-2</class>
<class>Bidet-3</class>
<class>Bidet-4</class>
<class>Door</class>
<class>Door-1</class>
<class>Door-23</class>
<class>Oven-1</class>
<class>Oven-2</class>
<class>Oven-3</class>
<class>Oven-4</class>
<class>Parking</class>
<class>Roof</class>
<class>Room</class>
<class>Separation</class>
<class>Sink-1</class>
<class>Sink-11</class>
<class>Sink-12</class>
<class>Sink-13</class>
<class>Sink-14</class>
<class>Sink-2</class>
<class>Sink-3</class>
<class>Sink-4</class>
<class>Sink-5</class>
<class>Sink-6</class>
<class>Sofa-1</class>
<class>Sofa-3</class>
<class>Sofa-4</class>
<class>Sofa-5</class>
<class>Sofa-6</class>
<class>Sofa-7</class>
<class>Sofa-8</class>
<class>Sofa-9</class>
<class>Stairs-1</class>
<class>Table-1</class>
<class>Table-2</class>
<class>Table-3</class>
<class>Table-4</class>
<class>Table-5</class>
<class>Table-6</class>
<class>Table-7</class>
<class>Text</class>
<class>Tub-1</class>
<class>Tub-3</class>
<class>TV-1</class>
<class>TV-2</class>
<class>Wall</class>
<class>Wall-1</class>
<class>Wallieee</class>
<class>Window</class>
<polygon class="Wall" fill="#AFD8F8" id="0" transcription="" points="614,1528 655,1527 655,1598 613,1615 " />
<polygon class="Wall" fill="#AFD8F8" id="1" transcription="" points="495,2407 538,2407 537,2502 495,2502 " />
<polygon class="Wall" fill="#AFD8F8" id="2" transcription="" points="989,2461 1092,2460 1092,2502 989,2502 " />
<polygon class="Wall" fill="#AFD8F8" id="3" transcription="" points="1442,2579 1547,2578 1547,2620 1443,2620 " />
<polygon class="Wall" fill="#AFD8F8" id="4" transcription="" points="1375,1692 1621,1692 1621,1699 1375,1698 " />
<polygon class="Wall" fill="#AFD8F8" id="5" transcription="" points="1504,2070 1557,2071 1556,2112 1504,2112 " />
<polygon class="Wall" fill="#AFD8F8" id="6" transcription="" points="1622,1036 1665,1037 1665,1544 1623,1544 " />
<polygon class="Wall" fill="#AFD8F8" id="7" transcription="" points="1664,1652 1622,1652 1622,1699 1664,1699 " />
<polygon class="Wall" fill="#AFD8F8" id="8" transcription="" points="1740,1700 1740,1656 1665,1656 1664,1699 " />
<polygon class="Wall" fill="#AFD8F8" id="9" transcription="" points="1741,1792 1784,1795 1782,1656 1741,1656 " />
<polygon class="Wall" fill="#AFD8F8" id="10" transcription="" points="1740,1981 1782,1982 1782,2070 1740,2071 " />
<polygon class="Wall" fill="#AFD8F8" id="11" transcription="" points="1666,2070 1666,2112 1782,2112 1782,2069 " />
<polygon class="Wall" fill="#AFD8F8" id="12" transcription="" points="1504,2112 1547,2112 1546,2582 1503,2580 " />
<polygon class="Wall" fill="#AFD8F8" id="13" transcription="" points="613,906 654,906 654,747 613,747 " />
<polygon class="Wall" fill="#AFD8F8" id="14" transcription="" points="1084,748 1084,706 613,705 612,747 " />
<polygon class="Wall" fill="#AFD8F8" id="15" transcription="" points="1027,1107 1020,1107 1019,747 1028,747 " />
<polygon class="Wall" fill="#AFD8F8" id="16" transcription="" points="915,1219 915,1227 1066,1226 1066,1219 " />
<polygon class="Wall" fill="#AFD8F8" id="17" transcription="" points="1066,1581 1074,1580 1074,1218 1067,1219 " />
<polygon class="Wall" fill="#AFD8F8" id="18" transcription="" points="863,1700 862,1692 1074,1691 1074,1700 " />
<polygon class="Wall" fill="#AFD8F8" id="19" transcription="" points="915,1294 908,1295 908,1219 915,1220 " />
<polygon class="Wall" fill="#AFD8F8" id="20" transcription="" points="655,1296 655,1304 915,1302 915,1295 " />
<polygon class="Wall" fill="#AFD8F8" id="21" transcription="" points="612,1060 655,1059 655,1373 612,1373 " />
<polygon class="Wall" fill="#AFD8F8" id="22" transcription="" points="704,2459 704,2503 537,2501 537,2459 " />
<polygon class="Wall" fill="#AFD8F8" id="23" transcription="" points="329,2402 355,2400 356,2599 330,2599 " />
<polygon class="Wall" fill="#AFD8F8" id="24" transcription="" points="1051,2596 1052,2620 329,2622 329,2596 " />
<polygon class="Wall" fill="#AFD8F8" id="25" transcription="" points="1091,2620 1051,2619 1050,2503 1092,2501 " />
<polygon class="Wall" fill="#AFD8F8" id="26" transcription="" points="1159,2578 1159,2620 1090,2620 1091,2577 " />
<polygon class="Wall" fill="#AFD8F8" id="27" transcription="" points="749,1692 731,1733 613,1615 656,1598 " />
<polygon class="Wall" fill="#AFD8F8" id="28" transcription="" points="820,1745 861,1745 862,1693 820,1692 " />
<polygon class="Wall" fill="#AFD8F8" id="29" transcription="" points="820,1692 820,1733 731,1733 749,1691 " />
<polygon class="Wall" fill="#AFD8F8" id="30" transcription="" points="354,1935 329,1935 330,2130 354,2130 " />
<polygon class="Wall" fill="#AFD8F8" id="31" transcription="" points="638,1934 329,1934 329,1911 638,1911 " />
<polygon class="Wall" fill="#AFD8F8" id="32" transcription="" points="820,1851 862,1852 862,1953 820,1953 " />
<polygon class="Wall" fill="#AFD8F8" id="33" transcription="" points="682,1961 693,1954 823,1956 823,1909 638,1910 637,1934 654,1933 " />
<polygon class="Wall" fill="#AFD8F8" id="34" transcription="" points="519,2065 546,2095 538,2106 536,2124 495,2123 495,2089 " />
<polygon class="Wall" fill="#AFD8F8" id="35" transcription="" points="1194,705 1193,749 1621,749 1622,706 " />
<polygon class="Wall" fill="#AFD8F8" id="36" transcription="" points="1621,882 1665,882 1664,705 1621,705 " />
<polygon class="Wall" fill="#AFD8F8" id="37" transcription="" points="1285,1099 1292,1100 1293,748 1285,748 " />
<polygon class="Wall" fill="#AFD8F8" id="38" transcription="" points="1180,1888 1180,1894 1256,1894 1256,1888 " />
<polygon class="Wall" fill="#AFD8F8" id="39" transcription="" points="1256,1699 1263,1700 1263,1893 1257,1894 " />
<polygon class="Wall" fill="#AFD8F8" id="40" transcription="" points="1180,1693 1180,1699 1262,1699 1263,1692 " />
<polygon class="Wall" fill="#AFD8F8" id="41" transcription="" points="1186,1378 1186,1386 1250,1386 1285,1386 1284,1378 " />
<polygon class="Wall" fill="#AFD8F8" id="42" transcription="" points="1180,1462 1186,1463 1186,1379 1179,1378 " />
<polygon class="Wall" fill="#AFD8F8" id="43" transcription="" points="1186,1574 1185,1580 1285,1580 1284,1574 " />
<polygon class="Wall" fill="#AFD8F8" id="44" transcription="" points="1293,1379 1285,1378 1286,1579 1292,1580 " />
<polygon class="Wall" fill="#AFD8F8" id="45" transcription="" points="1184,1001 1184,1008 1284,1008 1284,1000 " />
<polygon class="Wall" fill="#AFD8F8" id="46" transcription="" points="1139,1101 1139,1107 1292,1108 1292,1100 " />
<polygon class="Wall" fill="#AFD8F8" id="47" transcription="" points="1286,1218 1286,1227 1621,1226 1621,1218 " />
<polygon class="Window" fill="#F6BD0F" id="48" transcription="" points="1103,796 1193,751 1189,701 1088,700 1087,750 " />
<polygon class="Window" fill="#F6BD0F" id="49" transcription="" points="690,975 656,910 610,910 606,1057 658,1057 689,994 669,981 " />
<polygon class="Window" fill="#F6BD0F" id="50" transcription="" points="1586,948 1622,886 1668,884 1674,1033 1623,1035 1587,969 1608,960 " />
<polygon class="Window" fill="#F6BD0F" id="51" transcription="" points="1573,1567 1618,1648 1668,1646 1669,1544 1622,1546 " />
<polygon class="Window" fill="#F6BD0F" id="52" transcription="" points="1737,1793 1736,1978 1784,1980 1787,1793 " />
<polygon class="Window" fill="#F6BD0F" id="53" transcription="" points="1559,2067 1558,2114 1663,2116 1662,2065 " />
<polygon class="Window" fill="#F6BD0F" id="54" transcription="" points="1439,2573 1158,2571 1158,2621 1443,2623 " />
<polygon class="Window" fill="#F6BD0F" id="55" transcription="" points="707,2456 707,2503 991,2502 990,2458 " />
<polygon class="Window" fill="#F6BD0F" id="56" transcription="" points="543,2405 491,2406 494,2123 541,2125 " />
<polygon class="Window" fill="#F6BD0F" id="57" transcription="" points="517,2060 549,2099 683,1964 649,1933 " />
<polygon class="Door" fill="#8BBA00" id="58" transcription="" points="958,1749 818,1747 818,1851 864,1851 921,1835 957,1792 " />
<polygon class="Window" fill="#F6BD0F" id="59" transcription="" points="690,1458 669,1449 689,1441 655,1377 606,1372 606,1523 656,1520 " />
<polygon class="Door" fill="#8BBA00" id="60" transcription="" points="964,1689 1076,1687 1066,1578 1007,1591 979,1631 " />
<polygon class="Door" fill="#8BBA00" id="61" transcription="" points="1128,1482 1181,1577 1182,1464 " />
<polygon class="Door" fill="#8BBA00" id="62" transcription="" points="1292,1579 1181,1581 1176,1689 1255,1680 1287,1628 " />
<polygon class="Door" fill="#8BBA00" id="63" transcription="" points="1397,1217 1290,1217 1289,1109 1355,1119 1387,1162 " />
<polygon class="Door" fill="#8BBA00" id="64" transcription="" points="1029,998 1025,1100 1148,1109 1127,1039 1078,1004 " />
<polygon class="Door" fill="#8BBA00" id="65" transcription="" points="915,1217 1026,1213 1022,1104 966,1116 924,1159 " />
<polygon class="Door" fill="#8BBA00" id="66" transcription="" points="1262,1807 1264,1697 1373,1689 1371,1745 1318,1797 " />
<polygon class="Room" fill="#FF8E46" id="67" transcription="" points="661,752 660,1289 904,1288 904,1208 1020,1211 1011,752 " />
<polygon class="Room" fill="#FF8E46" id="68" transcription="" points="1277,756 1276,994 1181,993 1180,1011 1277,1011 1282,1093 1032,1095 1031,751 " />
<polygon class="Room" fill="#FF8E46" id="69" transcription="" points="1299,755 1296,1214 1618,1214 1615,755 " />
<polygon class="Room" fill="#FF8E46" id="70" transcription="" points="1292,1233 1298,1584 1186,1587 1183,1687 1615,1686 1614,1229 " />
<polygon class="Room" fill="#FF8E46" id="71" transcription="" points="1026.5,1103.5 1028.5,1209.5 1077.5,1210.5 1077.5,1690.5 1170.5,1690.5 1174.5,1372.5 1283.5,1367.5 1283.5,1110.5 " />
<polygon class="Room" fill="#FF8E46" id="72" transcription="" points="1188,1391 1187,1568 1282,1569 1278,1390 " />
<polygon class="Room" fill="#FF8E46" id="73" transcription="" points="662,1307 658,1596 748,1685 1064,1684 1061,1228 918,1232 920,1306 " />
<polygon class="Room" fill="#FF8E46" id="74" transcription="" points="865,1882.5 1251,1882.5 1253,1705.5 867,1705.5 " />
<polygon class="Room" fill="#FF8E46" id="75" transcription="" points="1742,2064 1736,1703 1267,1708 1275,2056 " />
<polygon class="Room" fill="#FF8E46" id="76" transcription="" points="1093,2065 1097,2570 1495,2570 1494,2066 " />
<polygon class="Room" fill="#FF8E46" id="77" transcription="" points="1261,1894 1266,2056 1093,2060 1087,2452 539,2453 543,2110 690,1956 869,1956 865,1892 " />
<polygon class="Separation" fill="#008E8E" id="78" transcription="" points="1070,1682 1176,1682 1176,1702 1070,1702 " />
<polygon class="Separation" fill="#008E8E" id="79" transcription="" points="863,1879 1176,1879 1176,1898 863,1898 " />
<polygon class="Separation" fill="#008E8E" id="80" transcription="" points="1260,1890 1273,1890 1273,2063 1260,2063 " />
<polygon class="Separation" fill="#008E8E" id="81" transcription="" points="1082,2060 1098,2060 1098,2455 1082,2455 " />
<polygon class="Separation" fill="#008E8E" id="82" transcription="" points="1082,2048 1506,2048 1506,2070 1082,2070 " />
<polygon class="Separation" fill="#008E8E" id="83" transcription="" points="1276,1221 1289,1221 1289,1374 1276,1374 " />
<polygon class="Wall" fill="#AFD8F8" id="84" transcription="" points="1757,2590 1782,2590 1782,2620 1757,2620 " />
<relation type="incident" objects="35,36"/>
<relation type="incident" objects="36,50"/>
<relation type="incident" objects="50,6"/>
<relation type="incident" objects="6,51"/>
<relation type="incident" objects="51,7"/>
<relation type="incident" objects="7,8"/>
<relation type="incident" objects="8,9"/>
<relation type="incident" objects="9,52"/>
<relation type="incident" objects="52,10"/>
<relation type="incident" objects="10,11"/>
<relation type="incident" objects="11,53"/>
<relation type="incident" objects="53,5"/>
<relation type="incident" objects="5,12"/>
<relation type="incident" objects="12,3"/>
<relation type="incident" objects="3,54"/>
<relation type="incident" objects="54,26"/>
<relation type="incident" objects="26,25"/>
<relation type="incident" objects="25,2"/>
<relation type="incident" objects="25,24"/>
<relation type="incident" objects="24,23"/>
<relation type="incident" objects="2,55"/>
<relation type="incident" objects="55,22"/>
<relation type="incident" objects="22,1"/>
<relation type="incident" objects="1,56"/>
<relation type="incident" objects="34,56"/>
<relation type="incident" objects="34,57"/>
<relation type="incident" objects="57,33"/>
<relation type="incident" objects="33,31"/>
<relation type="incident" objects="31,30"/>
<relation type="incident" objects="33,32"/>
<relation type="incident" objects="32,58"/>
<relation type="incident" objects="58,28"/>
<relation type="incident" objects="28,29"/>
<relation type="incident" objects="29,27"/>
<relation type="incident" objects="28,18"/>
<relation type="incident" objects="27,0"/>
<relation type="incident" objects="0,59"/>
<relation type="incident" objects="59,21"/>
<relation type="incident" objects="21,49"/>
<relation type="incident" objects="49,13"/>
<relation type="incident" objects="13,14"/>
<relation type="incident" objects="14,48"/>
<relation type="incident" objects="48,35"/>
<relation type="incident" objects="18,60"/>
<relation type="incident" objects="60,17"/>
<relation type="incident" objects="17,16"/>
<relation type="incident" objects="16,19"/>
<relation type="incident" objects="19,20"/>
<relation type="incident" objects="20,21"/>
<relation type="incident" objects="16,65"/>
<relation type="incident" objects="65,15"/>
<relation type="incident" objects="15,14"/>
<relation type="incident" objects="15,64"/>
<relation type="incident" objects="64,46"/>
<relation type="incident" objects="46,37"/>
<relation type="incident" objects="37,45"/>
<relation type="incident" objects="37,35"/>
<relation type="incident" objects="37,63"/>
<relation type="incident" objects="47,63"/>
<relation type="incident" objects="47,6"/>
<relation type="incident" objects="7,4"/>
<relation type="incident" objects="4,66"/>
<relation type="incident" objects="66,40"/>
<relation type="incident" objects="40,39"/>
<relation type="incident" objects="39,38"/>
<relation type="incident" objects="40,62"/>
<relation type="incident" objects="62,43"/>
<relation type="incident" objects="43,44"/>
<relation type="incident" objects="44,41"/>
<relation type="incident" objects="41,42"/>
<relation type="incident" objects="42,61"/>
<relation type="incident" objects="61,43"/>
<relation type="incident" objects="82,5"/>
<relation type="incident" objects="82,81"/>
<relation type="incident" objects="81,2"/>
<relation type="incident" objects="18,78"/>
<relation type="incident" objects="40,78"/>
<relation type="incident" objects="80,82"/>
<relation type="incident" objects="80,39"/>
<relation type="incident" objects="80,38"/>
<relation type="neighbour" objects="67,68"/>
<relation type="neighbour" objects="68,69"/>
<relation type="neighbour" objects="69,70"/>
<relation type="neighbour" objects="70,72"/>
<relation type="neighbour" objects="72,71"/>
<relation type="neighbour" objects="71,70"/>
<relation type="neighbour" objects="71,69"/>
<relation type="neighbour" objects="71,68"/>
<relation type="neighbour" objects="71,67"/>
<relation type="neighbour" objects="73,71"/>
<relation type="neighbour" objects="67,73"/>
<relation type="neighbour" objects="73,74"/>
<relation type="neighbour" objects="74,71"/>
<relation type="neighbour" objects="74,75"/>
<relation type="neighbour" objects="75,70"/>
<relation type="neighbour" objects="70,74"/>
<relation type="neighbour" objects="75,76"/>
<relation type="neighbour" objects="76,77"/>
<relation type="neighbour" objects="77,74"/>
<relation type="neighbour" objects="77,75"/>
<relation type="access" objects="67,65,71"/>
<relation type="access" objects="71,64,68"/>
<relation type="access" objects="71,63,69"/>
<relation type="access" objects="72,61,71"/>
<relation type="access" objects="71,60,73"/>
<relation type="access" objects="71,62,70"/>
<relation type="access" objects="70,66,75"/>
<relation type="access" objects="74,58,74"/>
<relation type="incident" objects="83,47"/>
<relation type="incident" objects="83,44"/>
<relation type="incident" objects="83,41"/>
<relation type="access" objects="71,83,70"/>
<relation type="access" objects="71,78,74"/>
<relation type="access" objects="74,79,77"/>
<relation type="access" objects="77,81,76"/>
<relation type="access" objects="77,80,75"/>
<relation type="access" objects="76,82,75"/>
<relation type="outerP" objects="14,13,49,21,59,0,27,29,28,58,32,33,57,34,56,1,22,55,2,25,26,54,3,12,5,53,11,10,52,9,8,7,51,6,50,36,35,48"/>
<relation type="surround" objects="14,15,65,16,19,20,21,49,13,14,67"/>
<relation type="surround" objects="14,48,35,37,46,64,15,14,68"/>
<relation type="surround" objects="35,36,50,6,47,63,37,35,69"/>
<relation type="surround" objects="64,46,63,83,41,42,61,43,62,78,60,17,16,65,64,71"/>
<relation type="surround" objects="47,6,51,7,4,66,40,62,43,44,83,47,70"/>
<relation type="surround" objects="41,44,43,61,42,41,72"/>
<relation type="surround" objects="20,19,16,17,60,18,28,29,27,0,59,21,20,73"/>
<relation type="surround" objects="18,78,40,39,38,79,32,58,28,18,74"/>
<relation type="surround" objects="66,4,7,8,9,52,10,11,53,5,82,80,39,66,75"/>
<relation type="surround" objects="82,5,12,3,54,26,25,2,81,82,76"/>
<relation type="surround" objects="79,38,80,82,81,2,55,22,1,56,34,57,33,32,79,77"/>
</svg>