<?xml version="1.0" encoding="UTF-8"?><!DOCTYPE svg PUBLIC "-//W3C//DTD SVG 1.1//EN" "http://www.w3.org/Graphics/SVG/1.1/DTD/svg11.dtd">
<svg xmlns="http://www.w3.org/2000/svg" version="1.1">
<width>2479</width>
<height>3508</height>
<nclasslabel>50</nclasslabel>
<nclassappear>5</nclassappear>
<class>Bidet-1</class>
<class>Bidet-2</class>
<class>Bidet-3</class>
<class>Bidet-4</class>
<class>Door</class>
<class>Door-1</class>
<class>Door-23</class>
<class>Oven-1</class>
<class>Oven-2</class>
<class>Oven-3</class>
<class>Oven-4</class>
<class>Parking</class>
<class>Roof</class>
<class>Room</class>
<class>Separation</class>
<class>Sink-1</class>
<class>Sink-11</class>
<class>Sink-12</class>
<class>Sink-13</class>
<class>Sink-14</class>
<class>Sink-2</class>
<class>Sink-3</class>
<class>Sink-4</class>
<class>Sink-5</class>
<class>Sink-6</class>
<class>Sofa-1</class>
<class>Sofa-3</class>
<class>Sofa-4</class>
<class>Sofa-5</class>
<class>Sofa-6</class>
<class>Sofa-7</class>
<class>Sofa-8</class>
<class>Sofa-9</class>
<class>Stairs-1</class>
<class>Table-1</class>
<class>Table-2</class>
<class>Table-3</class>
<class>Table-4</class>
<class>Table-5</class>
<class>Table-6</class>
<class>Table-7</class>
<class>Text</class>
<class>Tub-1</class>
<class>Tub-3</class>
<class>TV-1</class>
<class>TV-2</class>
<class>Wall</class>
<class>Wall-1</class>
<class>Wallieee</class>
<class>Window</class>
<polygon class="Wall" fill="#AFD8F8" id="0" transcription="" points="518,1079 1032,1079 1032,1122 518,1123 " />
<polygon class="Wall" fill="#AFD8F8" id="1" transcription="" points="1252,1078.5 1415,1077.5 1416,1102.5 1254,1101.5 " />
<polygon class="Wall" fill="#AFD8F8" id="2" transcription="" points="1124,1122 1123,1076 1296,1076 1298,1122 " />
<polygon class="Wall" fill="#AFD8F8" id="3" transcription="" points="1255,1328 1301,1328 1301,1078 1254,1076 " />
<polygon class="Wall" fill="#AFD8F8" id="4" transcription="" points="1255,1422 1298,1422 1298,1482 1255,1481 " />
<polygon class="Wall" fill="#AFD8F8" id="5" transcription="" points="1415,1439 1251,1437 1254,1485 1415,1482 " />
<polygon class="Wall" fill="#AFD8F8" id="6" transcription="" points="1376,1726 1418,1726 1415,1434 1376,1434 " />
<polygon class="Wall" fill="#AFD8F8" id="7" transcription="" points="1376,1870 1416,1870 1415,2175 1373,2173 " />
<polygon class="Wall" fill="#AFD8F8" id="8" transcription="" points="1295,2130 1295,2173 1416,2171 1413,2131 " />
<polygon class="Wall" fill="#AFD8F8" id="9" transcription="" points="1015,2129 1017,2176 870,2173 866,2131 " />
<polygon class="Wall" fill="#AFD8F8" id="10" transcription="" points="590,2129 591,2173 518,2173 518,2132 " />
<polygon class="Wall" fill="#AFD8F8" id="11" transcription="" points="516,1438 562,1439 563,2175 516,2173 " />
<polygon class="Wall" fill="#AFD8F8" id="12" transcription="" points="518,1368 559,1371 562,1272 516,1273 " />
<polygon class="Wall" fill="#AFD8F8" id="13" transcription="" points="518,1204 559,1203 562,1081 515,1081 " />
<polygon class="Wall" fill="#AFD8F8" id="14" transcription="" points="895,1438 920,1438 921,1681 895,1682 " />
<polygon class="Wall" fill="#AFD8F8" id="15" transcription="" points="778,1455 778,1467 556,1466 556,1454 " />
<polygon class="Wall" fill="#AFD8F8" id="16" transcription="" points="772,1561 771,1572 659,1572 659,1560 " />
<polygon class="Wall" fill="#AFD8F8" id="17" transcription="" points="772,1674 772,1685 558,1684 557,1673 " />
<polygon class="Wall" fill="#AFD8F8" id="18" transcription="" points="692,1359 691,1349 557,1349 558,1360 " />
<polygon class="Wall" fill="#AFD8F8" id="20" transcription="" points="802,1332 802,1342 684,1341 683,1330 " />
<polygon class="Wall" fill="#AFD8F8" id="21" transcription="" points="772,1367 783,1367 782,1339 771,1340 " />
<polygon class="Wall" fill="#AFD8F8" id="22" transcription="" points="894,1348 906,1348 906,1123 894,1122 " />
<polygon class="Wall" fill="#AFD8F8" id="23" transcription="" points="1522,1079 1546,1080 1547,1104 1522,1105 " />
<polygon class="Window" fill="#F6BD0F" id="24" transcription="" points="1031,1071 1126,1074 1124,1124 1045,1174 1029,1147 1026,1119 " />
<polygon class="Door" fill="#8BBA00" id="25" transcription="" points="1159,1325 1302,1322 1305,1419 1209,1421 1170,1380 " />
<polygon class="Door" fill="#8BBA00" id="26" transcription="" points="995,1433 890,1436 891,1341 945,1346 985,1377 " />
<polygon class="Window" fill="#F6BD0F" id="27" transcription="" points="590,2180 868,2180 873,2128 595,2125 " />
<polygon class="Window" fill="#F6BD0F" id="28" transcription="" points="1016,2125 1296,2125 1295,2174 1015,2178 " />
<polygon class="Window" fill="#F6BD0F" id="29" transcription="" points="1424,1727 1374,1725 1337,1789 1349,1799 1335,1805 1371,1869 1424,1869 " />
<polygon class="Window" fill="#F6BD0F" id="30" transcription="" points="507,1200 556,1202 596,1264 562,1275 506,1272 " />
<polygon class="Window" fill="#F6BD0F" id="31" transcription="" points="510,1367 509,1439 559,1438 596,1428 563,1369 " />
<polygon class="Wall" fill="#AFD8F8" id="32" transcription="" points="1523,1439 1546,1439 1546,1461 1523,1460 " />
<polygon class="Room" fill="#FF8E46" id="33" transcription="" points="561,1686.5 929,1684.5 924,1489.5 1368,1487.5 1366,2123.5 561,2125.5 " />
<polygon class="Room" fill="#FF8E46" id="34" transcription="" points="912,1126 1248,1129 1241,1486 922,1486 " />
<polygon class="Room" fill="#FF8E46" id="35" transcription="" points="557.5,1123.5 888.5,1128.5 884.5,1327.5 686.5,1326.5 683.5,1346.5 564.5,1342.5 " />
<polygon class="Room" fill="#FF8E46" id="36" transcription="" points="885,1331 887,1676 772,1678 779,1333 " />
<polygon class="Room" fill="#FF8E46" id="37" transcription="" points="561,1363 685,1361 692,1342 772,1346 773,1455 561,1454 " />
<polygon class="Separation" fill="#008E8E" id="38" transcription="" points="771,1666 916,1666 916,1691 771,1691 " />
<polygon class="Separation" fill="#008E8E" id="39" transcription="" points="915,1471 1253,1471 1253,1495 926,1495 " />
<polygon class="Door" fill="#8BBA00" id="40" transcription="" points="769,1359 827,1372 774,1461 " />
<polygon class="Door" fill="#8BBA00" id="41" transcription="" points="824,1255 894,1242 894,1342 789,1343 805,1290 " />
<polygon class="Wall" fill="#AFD8F8" id="42" transcription="" points="684,1334 693,1335 693,1359 684,1359 " />
<polygon class="Room" fill="#FF8E46" id="43" transcription="" points="560,1465.5 762,1465.5 769,1672.5 562,1670.5 " />
<polygon class="Separation" fill="#008E8E" id="44" transcription="" points="762,1462 772,1462 772,1675 762,1675 " />
<relation type="incident" objects="13,0"/>
<relation type="incident" objects="0,24"/>
<relation type="incident" objects="24,2"/>
<relation type="incident" objects="2,1"/>
<relation type="incident" objects="1,3"/>
<relation type="incident" objects="2,3"/>
<relation type="incident" objects="3,25"/>
<relation type="incident" objects="25,4"/>
<relation type="incident" objects="4,5"/>
<relation type="incident" objects="5,6"/>
<relation type="incident" objects="6,29"/>
<relation type="incident" objects="29,7"/>
<relation type="incident" objects="7,8"/>
<relation type="incident" objects="8,28"/>
<relation type="incident" objects="28,9"/>
<relation type="incident" objects="9,27"/>
<relation type="incident" objects="27,10"/>
<relation type="incident" objects="10,11"/>
<relation type="incident" objects="11,31"/>
<relation type="incident" objects="31,12"/>
<relation type="incident" objects="12,30"/>
<relation type="incident" objects="30,13"/>
<relation type="incident" objects="42,18"/>
<relation type="incident" objects="18,12"/>
<relation type="incident" objects="20,41"/>
<relation type="incident" objects="41,22"/>
<relation type="incident" objects="22,0"/>
<relation type="incident" objects="20,21"/>
<relation type="incident" objects="21,40"/>
<relation type="incident" objects="40,15"/>
<relation type="incident" objects="15,11"/>
<relation type="incident" objects="11,17"/>
<relation type="incident" objects="17,38"/>
<relation type="incident" objects="38,14"/>
<relation type="incident" objects="14,26"/>
<relation type="incident" objects="26,22"/>
<relation type="incident" objects="14,39"/>
<relation type="incident" objects="39,5"/>
<relation type="incident" objects="39,4"/>
<relation type="neighbour" objects="33,36"/>
<relation type="neighbour" objects="36,34"/>
<relation type="neighbour" objects="34,33"/>
<relation type="neighbour" objects="34,35"/>
<relation type="neighbour" objects="35,37"/>
<relation type="neighbour" objects="37,36"/>
<relation type="neighbour" objects="36,35"/>
<relation type="access" objects="34,25,34"/>
<relation type="access" objects="36,26,34"/>
<relation type="access" objects="35,41,36"/>
<relation type="access" objects="37,40,36"/>
<relation type="access" objects="36,44,43"/>
<relation type="access" objects="36,38,33"/>
<relation type="access" objects="33,39,34"/>
<relation type="incident" objects="15,44"/>
<relation type="incident" objects="44,17"/>
<relation type="incident" objects="44,38"/>
<relation type="neighbour" objects="43,36"/>
<relation type="neighbour" objects="43,37"/>
<relation type="neighbour" objects="43,33"/>
<relation type="surround" objects="0,24,2,3,25,4,39,14,26,22,0,34"/>
<relation type="surround" objects="15,44,17,11,15,43"/>
<relation type="surround" objects="41,26,14,38,44,40,21,41,36"/>
<relation type="surround" objects="17,38,14,39,5,6,29,7,8,28,9,27,10,11,17,33"/>
<relation type="outerP" objects="0,24,2,3,25,4,5,6,29,7,8,28,9,27,10,11,31,12,30,13"/>
<relation type="incident" objects="20,42"/>
<relation type="incident" objects="42,18"/>
<relation type="surround" objects="0,22,41,20,42,18,12,30,13,0,35"/>
<relation type="surround" objects="18,42,20,21,40,15,11,31,18,37"/>
</svg>