<?xml version="1.0" encoding="UTF-8"?><!DOCTYPE svg PUBLIC "-//W3C//DTD SVG 1.1//EN" "http://www.w3.org/Graphics/SVG/1.1/DTD/svg11.dtd">
<svg xmlns="http://www.w3.org/2000/svg" version="1.1">
<width>3508</width>
<height>2480</height>
<nclasslabel>50</nclasslabel>
<nclassappear>6</nclassappear>
<class>Bidet-1</class>
<class>Bidet-2</class>
<class>Bidet-3</class>
<class>Bidet-4</class>
<class>Door</class>
<class>Door-1</class>
<class>Door-23</class>
<class>Oven-1</class>
<class>Oven-2</class>
<class>Oven-3</class>
<class>Oven-4</class>
<class>Parking</class>
<class>Roof</class>
<class>Room</class>
<class>Separation</class>
<class>Sink-1</class>
<class>Sink-11</class>
<class>Sink-12</class>
<class>Sink-13</class>
<class>Sink-14</class>
<class>Sink-2</class>
<class>Sink-3</class>
<class>Sink-4</class>
<class>Sink-5</class>
<class>Sink-6</class>
<class>Sofa-1</class>
<class>Sofa-3</class>
<class>Sofa-4</class>
<class>Sofa-5</class>
<class>Sofa-6</class>
<class>Sofa-7</class>
<class>Sofa-8</class>
<class>Sofa-9</class>
<class>Stairs-1</class>
<class>Table-1</class>
<class>Table-2</class>
<class>Table-3</class>
<class>Table-4</class>
<class>Table-5</class>
<class>Table-6</class>
<class>Table-7</class>
<class>Text</class>
<class>Tub-1</class>
<class>Tub-3</class>
<class>TV-1</class>
<class>TV-2</class>
<class>Wall</class>
<class>Wall-1</class>
<class>Wallieee</class>
<class>Window</class>
<polygon class="Wall" fill="#AFD8F8" id="0" transcription="" points="1852,408 1867,389 1944,468 1927,483 " />
<polygon class="Wall" fill="#AFD8F8" id="1" transcription="" points="1606,409 1614,408 1613,778 1608,777 " />
<polygon class="Wall" fill="#AFD8F8" id="2" transcription="" points="1355,521 1431,521 1431,527 1355,526 " />
<polygon class="Wall" fill="#AFD8F8" id="3" transcription="" points="1424,527 1432,528 1430,799 1424,799 " />
<polygon class="Wall" fill="#AFD8F8" id="4" transcription="" points="974,1424 1016,1424 1017,1469 975,1470 " />
<polygon class="Wall" fill="#AFD8F8" id="5" transcription="" points="1317,1470 1363,1470 1346,1514 1318,1513 " />
<polygon class="Wall" fill="#AFD8F8" id="6" transcription="" points="2527,1649 2570,1666 2512,1724 2482,1694 " />
<polygon class="Wall" fill="#AFD8F8" id="7" transcription="" points="1642,1748 1660,1766 1640,1807 1613,1779 " />
<polygon class="Wall" fill="#AFD8F8" id="8" transcription="" points="2014,1767 2092,1766 2074,1808 2014,1808 " />
<polygon class="Wall" fill="#AFD8F8" id="9" transcription="" points="975,815 1017,815 1016,1162 974,1162 " />
<polygon class="Wall" fill="#AFD8F8" id="10" transcription="" points="1016,661 975,661 975,526 1017,526 " />
<polygon class="Wall" fill="#AFD8F8" id="11" transcription="" points="1531,779 1531,786 1613,786 1613,779 " />
<polygon class="Wall" fill="#AFD8F8" id="12" transcription="" points="1844,366 1844,405 1852,408 1867,388 " />
<polygon class="Wall" fill="#AFD8F8" id="13" transcription="" points="1819,406 1845,407 1843,778 1818,777 " />
<polygon class="Wall" fill="#AFD8F8" id="14" transcription="" points="1354,408 1354,366 1845,366 1844,408 " />
<polygon class="Wall" fill="#AFD8F8" id="15" transcription="" points="1313,366 1353,366 1354,488 1311,490 " />
<polygon class="Wall" fill="#AFD8F8" id="16" transcription="" points="975,483 975,526 1353,526 1353,485 " />
<polygon class="Wall" fill="#AFD8F8" id="17" transcription="" points="1422,939 1422,946 1017,946 1016,939 " />
<polygon class="Wall" fill="#AFD8F8" id="18" transcription="" points="1406,1104 1431,1104 1431,1228 1407,1228 " />
<polygon class="Wall" fill="#AFD8F8" id="19" transcription="" points="1459,1565 1429,1595 1346,1514 1364,1469 " />
<polygon class="Wall" fill="#AFD8F8" id="20" transcription="" points="975,1512 974,1470 1034,1470 1035,1512 " />
<polygon class="Wall" fill="#AFD8F8" id="21" transcription="" points="2140,698 2158,681 2003,526 1984,544 " />
<polygon class="Wall" fill="#AFD8F8" id="22" transcription="" points="1948,795 1954,800 2098,656 2094,652 " />
<polygon class="Wall" fill="#AFD8F8" id="23" transcription="" points="2349,908 2368,891 2541,1064 2524,1080 " />
<polygon class="Wall" fill="#AFD8F8" id="24" transcription="" points="2476,1130 2505,1160 2570,1093 2540,1063 " />
<polygon class="Wall" fill="#AFD8F8" id="25" transcription="" points="2428,1235 2390,1269 2362,1241 2400,1204 " />
<polygon class="Wall" fill="#AFD8F8" id="26" transcription="" points="2422,1299 2453,1271 2422,1240 2392,1269 " />
<polygon class="Wall" fill="#AFD8F8" id="27" transcription="" points="2700,1223 2683,1241 2701,1258 2718,1242 " />
<polygon class="Wall" fill="#AFD8F8" id="28" transcription="" points="2480,1358 2510,1330 2569,1389 2528,1406 " />
<polygon class="Wall" fill="#AFD8F8" id="29" transcription="" points="2291,1312 2287,1319 2527,1556 2526,1546 " />
<polygon class="Wall" fill="#AFD8F8" id="30" transcription="" points="2529,1407 2569,1388 2570,1666 2528,1649 " />
<polygon class="Wall" fill="#AFD8F8" id="31" transcription="" points="2252,1924 2281,1954 2327,1910 2296,1879 " />
<polygon class="Wall" fill="#AFD8F8" id="32" transcription="" points="2250,1985 2281,1955 2093,1766 2074,1808 " />
<polygon class="Wall" fill="#AFD8F8" id="33" transcription="" points="1732,1765 1731,1808 1641,1808 1661,1766 " />
<polygon class="Wall" fill="#AFD8F8" id="34" transcription="" points="1649,1229 1649,1254 1405,1253 1406,1229 " />
<polygon class="Wall" fill="#AFD8F8" id="35" transcription="" points="1530,1005 1538,1004 1537,1117 1530,1116 " />
<polygon class="Wall" fill="#AFD8F8" id="36" transcription="" points="1423,905 1432,905 1431,1104 1425,1104 " />
<polygon class="Wall" fill="#AFD8F8" id="37" transcription="" points="1648,897 1648,904 1423,905 1423,898 " />
<polygon class="Wall" fill="#AFD8F8" id="38" transcription="" points="1760,779 1761,803 1844,803 1844,779 " />
<polygon class="Wall" fill="#AFD8F8" id="39" transcription="" points="1711,779 1712,786 1759,786 1759,779 " />
<polygon class="Wall" fill="#AFD8F8" id="40" transcription="" points="1759,903 1786,903 1784,1269 1760,1269 " />
<polygon class="Wall" fill="#AFD8F8" id="41" transcription="" points="2081,1270 2092,1293 1759,1295 1759,1270 " />
<polygon class="Wall" fill="#AFD8F8" id="42" transcription="" points="2082,1270 2093,1293 2414,971 2397,955 " />
<polygon class="Wall" fill="#AFD8F8" id="43" transcription="" points="2067,1228 2091,1228 2091,1253 2067,1252 " />
<polygon class="Wall" fill="#AFD8F8" id="44" transcription="" points="934,1803 951,1785 969,1803 952,1820 " />
<polygon class="Wall" fill="#AFD8F8" id="45" transcription="" points="669,1536 685,1518 702,1536 685,1554 " />
<polygon class="Window" fill="#F6BD0F" id="46" transcription="" points="1906,524 1978,541 2005,520 1947,466 1923,488 " />
<polygon class="Parking" fill="#8BBA00" id="47" transcription="" points="2134,714 2335,914 2372,880 2168,675 " />
<polygon class="Door" fill="#FF8E46" id="48" transcription="" points="2400,1063 2507,1162 2427,1237 2398,1201 2367,1151 2377,1091 " />
<polygon class="Window" fill="#F6BD0F" id="49" transcription="" points="2406,1336 2477,1357 2509,1325 2460,1271 2425,1302 " />
<polygon class="Window" fill="#F6BD0F" id="50" transcription="" points="2295,1879 2480,1691 2515,1727 2331,1912 " />
<polygon class="Window" fill="#F6BD0F" id="51" transcription="" points="1734,1757 1734,1809 2011,1814 2010,1760 " />
<polygon class="Window" fill="#F6BD0F" id="52" transcription="" points="1423,1600 1609,1783 1640,1747 1462,1564 " />
<polygon class="Window" fill="#F6BD0F" id="53" transcription="" points="1033,1470 1317,1469 1318,1516 1035,1517 " />
<polygon class="Window" fill="#F6BD0F" id="54" transcription="" points="965,1162 1017,1165 1018,1423 966,1425 " />
<polygon class="Window" fill="#F6BD0F" id="55" transcription="" points="1051,729 1015,663 969,663 968,816 1014,817 1051,748 1033,740 " />
<polygon class="Door" fill="#FF8E46" id="56" transcription="" points="2318,1222 2289,1315 2360,1247 " />
<polygon class="Door" fill="#FF8E46" id="57" transcription="" points="1870,811 1776,807 1782,902 1842,894 1867,851 " />
<polygon class="Door" fill="#FF8E46" id="58" transcription="" points="1846,706 1845,800 1942,802 1928,747 1887,710 " />
<polygon class="Door" fill="#FF8E46" id="59" transcription="" points="1613,689 1612,780 1707,784 1699,728 1654,691 " />
<polygon class="Door" fill="#FF8E46" id="60" transcription="" points="1431,687 1429,785 1528,786 1514,729 1466,695 " />
<polygon class="Door" fill="#FF8E46" id="61" transcription="" points="1336,891 1426,891 1428,800 1374,813 1344,853 " />
<polygon class="Door" fill="#FF8E46" id="62" transcription="" points="1435,1207 1436,1112 1530,1112 1522,1155 1477,1200 " />
<polygon class="Room" fill="#008E8E" id="63" transcription="" points="1355,408 1357,514 1437,517 1433,777 1602,772 1602,408 " />
<polygon class="Room" fill="#008E8E" id="64" transcription="" points="1619,408 1617,774 1813,774 1813,409 " />
<polygon class="Room" fill="#008E8E" id="65" transcription="" points="2086,652 1945,795 1851,796 1848,414 " />
<polygon class="Room" fill="#008E8E" id="66" transcription="" points="2101,664 2390,954 2078,1264 1785,1265 1791,811 1954,807 " />
<polygon class="Room" fill="#008E8E" id="67" transcription="" points="1431,790 1431,892 1650,895 1646,1116 1439,1116 1434,1223 1651,1226 1650,1242 1753,1246 1754,897 1780,895 1781,795 " />
<polygon class="Room" fill="#008E8E" id="68" transcription="" points="1022,530 1020,932 1421,933 1421,533 " />
<polygon class="Room" fill="#008E8E" id="69" transcription="" points="1022,950 1019,1463 1367,1463 1363,1249 1412,1247 1415,948 " />
<polygon class="Room" fill="#008E8E" id="70" transcription="" points="1371.5,1255 1369.5,1467 1661.5,1760 2094.5,1758 2094.5,1297 1754.5,1301 1752.5,1253 " />
<polygon class="Room" fill="#008E8E" id="71" transcription="" points="2255,1924 2524,1641 2529,1552 2180,1213 2097,1296 2099,1765 " />
<polygon class="Room" fill="#008E8E" id="72" transcription="" points="2185,1208 2410.5,976.5 2518.5,1075.5 2290,1310 " />
<polygon class="Room" fill="#008E8E" id="73" transcription="" points="2360,1248 2524,1407 2526,1540 2295,1310 " />
<polygon class="Separation" fill="#D64646" id="74" transcription="" points="1360,1247 1375,1247 1375,1475 1360,1475 " />
<polygon class="Separation" fill="#D64646" id="75" transcription="" points="1360,1245 1412,1245 1412,1257 1360,1257 " />
<polygon class="Separation" fill="#D64646" id="76" transcription="" points="1653,1230 1756,1230 1756,1250 1653,1250 " />
<polygon class="Separation" fill="#D64646" id="77" transcription="" points="2086,1290 2101,1286 2099,1771 2086,1773 " />
<polygon class="Separation" fill="#D64646" id="78" transcription="" points="2175,1210 2288,1318 2294,1310 2183,1204 " />
<polygon class="Room" fill="#008E8E" id="79" transcription="" points="1433,903 1643,903 1643,1109 1433,1109 " />
<polygon class="Separation" fill="#D64646" id="80" transcription="" points="1525,1101 1646,1101 1646,1118 1525,1118 " />
<polygon class="Separation" fill="#D64646" id="81" transcription="" points="1631,900 1646,900 1646,1111 1631,1111 " />
<relation type="incident" objects="10,55"/>
<relation type="incident" objects="9,55"/>
<relation type="incident" objects="9,54"/>
<relation type="incident" objects="4,20"/>
<relation type="incident" objects="4,54"/>
<relation type="incident" objects="20,53"/>
<relation type="incident" objects="53,5"/>
<relation type="incident" objects="5,19"/>
<relation type="incident" objects="19,52"/>
<relation type="incident" objects="52,7"/>
<relation type="incident" objects="7,33"/>
<relation type="incident" objects="33,51"/>
<relation type="incident" objects="51,8"/>
<relation type="incident" objects="8,32"/>
<relation type="incident" objects="32,31"/>
<relation type="incident" objects="31,50"/>
<relation type="incident" objects="50,6"/>
<relation type="incident" objects="6,30"/>
<relation type="incident" objects="30,28"/>
<relation type="incident" objects="28,49"/>
<relation type="incident" objects="49,26"/>
<relation type="incident" objects="26,25"/>
<relation type="incident" objects="25,48"/>
<relation type="incident" objects="48,24"/>
<relation type="incident" objects="24,23"/>
<relation type="incident" objects="23,47"/>
<relation type="incident" objects="47,21"/>
<relation type="incident" objects="21,46"/>
<relation type="incident" objects="46,0"/>
<relation type="incident" objects="12,0"/>
<relation type="incident" objects="12,14"/>
<relation type="incident" objects="14,15"/>
<relation type="incident" objects="15,16"/>
<relation type="incident" objects="10,16"/>
<relation type="incident" objects="9,17"/>
<relation type="incident" objects="17,36"/>
<relation type="incident" objects="36,18"/>
<relation type="incident" objects="18,34"/>
<relation type="incident" objects="34,76"/>
<relation type="incident" objects="76,40"/>
<relation type="incident" objects="40,41"/>
<relation type="incident" objects="41,42"/>
<relation type="incident" objects="42,23"/>
<relation type="incident" objects="42,77"/>
<relation type="incident" objects="77,41"/>
<relation type="incident" objects="77,8"/>
<relation type="incident" objects="77,32"/>
<relation type="incident" objects="75,18"/>
<relation type="incident" objects="75,34"/>
<relation type="incident" objects="75,74"/>
<relation type="incident" objects="74,19"/>
<relation type="incident" objects="74,5"/>
<relation type="incident" objects="40,57"/>
<relation type="incident" objects="57,38"/>
<relation type="incident" objects="38,39"/>
<relation type="incident" objects="39,59"/>
<relation type="incident" objects="59,11"/>
<relation type="incident" objects="11,60"/>
<relation type="incident" objects="60,3"/>
<relation type="incident" objects="3,61"/>
<relation type="incident" objects="61,37"/>
<relation type="incident" objects="37,36"/>
<relation type="incident" objects="61,36"/>
<relation type="incident" objects="59,1"/>
<relation type="incident" objects="38,13"/>
<relation type="incident" objects="38,58"/>
<relation type="incident" objects="58,22"/>
<relation type="incident" objects="22,21"/>
<relation type="incident" objects="18,62"/>
<relation type="incident" objects="62,35"/>
<relation type="incident" objects="1,14"/>
<relation type="incident" objects="13,14"/>
<relation type="incident" objects="30,29"/>
<relation type="incident" objects="29,56"/>
<relation type="incident" objects="56,25"/>
<relation type="incident" objects="3,2"/>
<relation type="incident" objects="2,16"/>
<relation type="neighbour" objects="68,69"/>
<relation type="neighbour" objects="69,70"/>
<relation type="neighbour" objects="70,67"/>
<relation type="neighbour" objects="67,68"/>
<relation type="neighbour" objects="67,69"/>
<relation type="neighbour" objects="67,63"/>
<relation type="neighbour" objects="63,68"/>
<relation type="neighbour" objects="63,64"/>
<relation type="neighbour" objects="64,67"/>
<relation type="neighbour" objects="64,65"/>
<relation type="neighbour" objects="65,66"/>
<relation type="neighbour" objects="66,64"/>
<relation type="neighbour" objects="66,67"/>
<relation type="neighbour" objects="66,70"/>
<relation type="neighbour" objects="66,71"/>
<relation type="neighbour" objects="71,70"/>
<relation type="neighbour" objects="71,73"/>
<relation type="neighbour" objects="73,72"/>
<relation type="neighbour" objects="72,71"/>
<relation type="neighbour" objects="72,66"/>
<relation type="access" objects="70,67,70"/>
<relation type="access" objects="70,71,70"/>
<relation type="access" objects="67,57,66"/>
<relation type="access" objects="66,58,65"/>
<relation type="access" objects="67,59,64"/>
<relation type="access" objects="67,60,63"/>
<relation type="access" objects="67,61,68"/>
<relation type="access" objects="72,48,72"/>
<relation type="incident" objects="42,78"/>
<relation type="incident" objects="78,29"/>
<relation type="incident" objects="78,56"/>
<relation type="neighbour" objects="79,68"/>
<relation type="neighbour" objects="79,67"/>
<relation type="neighbour" objects="79,69"/>
<relation type="access" objects="67,62,79"/>
<relation type="incident" objects="37,81"/>
<relation type="incident" objects="81,80"/>
<relation type="incident" objects="80,62"/>
<relation type="outerP" objects="16,15,14,12,0,46,47,23,24,48,25,26,49,28,30,6,50,31,32,8,51,33,7,52,19,5,53,20,4,54,9,55,10"/>
<relation type="surround" objects="16,2,3,61,36,17,9,55,10,16,68"/>
<relation type="surround" objects="14,1,11,60,3,2,15,14,63"/>
<relation type="surround" objects="14,13,38,59,1,14,64"/>
<relation type="surround" objects="12,0,46,21,22,58,13,12,65"/>
<relation type="surround" objects="37,81,80,62,36,37,79"/>
<relation type="surround" objects="60,11,59,39,57,40,76,34,18,62,80,81,37,61,3,60,67"/>
<relation type="surround" objects="17,36,18,75,74,5,53,20,4,54,9,17,69"/>
<relation type="surround" objects="75,34,76,41,77,8,51,33,7,52,19,74,75,70"/>
<relation type="surround" objects="38,58,22,21,47,23,42,41,40,57,38,66"/>
<relation type="surround" objects="42,23,24,48,25,56,78,42,72"/>
<relation type="surround" objects="56,25,26,49,28,30,29,56,73"/>
<relation type="surround" objects="42,78,29,30,6,50,31,32,77,42,71"/>
<relation type="access" objects="79,62,67"/>
<relation type="access" objects="69,74,70"/>
<relation type="access" objects="71,78,72"/>
<relation type="access" objects="73,56,72"/>
</svg>