<?xml version="1.0" encoding="UTF-8"?><!DOCTYPE svg PUBLIC "-//W3C//DTD SVG 1.1//EN" "http://www.w3.org/Graphics/SVG/1.1/DTD/svg11.dtd">
<svg xmlns="http://www.w3.org/2000/svg" version="1.1">
<width>2480</width>
<height>3508</height>
<nclasslabel>50</nclasslabel>
<nclassappear>6</nclassappear>
<class>Bidet-1</class>
<class>Bidet-2</class>
<class>Bidet-3</class>
<class>Bidet-4</class>
<class>Door</class>
<class>Door-1</class>
<class>Door-23</class>
<class>Oven-1</class>
<class>Oven-2</class>
<class>Oven-3</class>
<class>Oven-4</class>
<class>Parking</class>
<class>Roof</class>
<class>Room</class>
<class>Separation</class>
<class>Sink-1</class>
<class>Sink-11</class>
<class>Sink-12</class>
<class>Sink-13</class>
<class>Sink-14</class>
<class>Sink-2</class>
<class>Sink-3</class>
<class>Sink-4</class>
<class>Sink-5</class>
<class>Sink-6</class>
<class>Sofa-1</class>
<class>Sofa-3</class>
<class>Sofa-4</class>
<class>Sofa-5</class>
<class>Sofa-6</class>
<class>Sofa-7</class>
<class>Sofa-8</class>
<class>Sofa-9</class>
<class>Stairs-1</class>
<class>Table-1</class>
<class>Table-2</class>
<class>Table-3</class>
<class>Table-4</class>
<class>Table-5</class>
<class>Table-6</class>
<class>Table-7</class>
<class>Text</class>
<class>Tub-1</class>
<class>Tub-3</class>
<class>TV-1</class>
<class>TV-2</class>
<class>Wall</class>
<class>Wall-1</class>
<class>Wallieee</class>
<class>Window</class>
<polygon class="Wall" fill="#AFD8F8" id="0" transcription="" points="1665,1706 1706,1706 1706,1819 1664,1820 " />
<polygon class="Wall" fill="#AFD8F8" id="1" transcription="" points="1411,1813 1411,1820 1663,1819 1663,1813 " />
<polygon class="Wall" fill="#AFD8F8" id="2" transcription="" points="1664,2309 1708,2310 1708,2407 1664,2406 " />
<polygon class="Wall" fill="#AFD8F8" id="3" transcription="" points="1664,1903 1708,1903 1708,2155 1664,2156 " />
<polygon class="Wall" fill="#AFD8F8" id="4" transcription="" points="1335,2049 1335,2057 1665,2056 1665,2049 " />
<polygon class="Wall" fill="#AFD8F8" id="5" transcription="" points="1409,1931 1418,1931 1419,2049 1409,2049 " />
<polygon class="Wall" fill="#AFD8F8" id="6" transcription="" points="1334,1932 1334,1938 1409,1938 1409,1932 " />
<polygon class="Wall" fill="#AFD8F8" id="7" transcription="" points="1215,1434 1216,1459 1665,1460 1665,1434 " />
<polygon class="Wall" fill="#AFD8F8" id="8" transcription="" points="1663,1552 1707,1552 1709,1434 1665,1434 " />
<polygon class="Wall" fill="#AFD8F8" id="9" transcription="" points="1681,882 1708,882 1708,1322 1681,1322 " />
<polygon class="Wall" fill="#AFD8F8" id="10" transcription="" points="1292,1458 1300,1458 1299,1643 1292,1644 " />
<polygon class="Wall" fill="#AFD8F8" id="11" transcription="" points="1221,1641 1222,1648 1300,1649 1298,1642 " />
<polygon class="Wall" fill="#AFD8F8" id="12" transcription="" points="1046,2409 1045,2453 1707,2453 1707,2408 " />
<polygon class="Wall" fill="#AFD8F8" id="13" transcription="" points="1708,854 1709,880 673,881 673,856 " />
<polygon class="Wall" fill="#AFD8F8" id="14" transcription="" points="673,931 647,931 648,856 673,857 " />
<polygon class="Wall" fill="#AFD8F8" id="15" transcription="" points="673,1434 673,1460 1104,1460 1103,1434 " />
<polygon class="Wall" fill="#AFD8F8" id="16" transcription="" points="713,2408 712,2452 603,2452 604,2408 " />
<polygon class="Wall" fill="#AFD8F8" id="17" transcription="" points="560,1955 602,1955 601,2452 560,2452 " />
<polygon class="Wall" fill="#AFD8F8" id="18" transcription="" points="559,1551 601,1552 602,1462 558,1461 " />
<polygon class="Wall" fill="#AFD8F8" id="19" transcription="" points="560,1417 674,1417 674,1460 559,1461 " />
<polygon class="Wall" fill="#AFD8F8" id="20" transcription="" points="674,1290 648,1290 647,1460 675,1459 " />
<polygon class="Wall" fill="#AFD8F8" id="21" transcription="" points="1215,1814 1223,1814 1221,1641 1215,1642 " />
<polygon class="Wall" fill="#AFD8F8" id="22" transcription="" points="1299,1811 1299,1839 1037,1839 1037,1811 " />
<polygon class="Wall" fill="#AFD8F8" id="23" transcription="" points="1214,2049 1215,2407 1223,2409 1222,2048 " />
<polygon class="Wall" fill="#AFD8F8" id="24" transcription="" points="1214,1838 1215,1932 1222,1932 1221,1839 " />
<polygon class="Wall" fill="#AFD8F8" id="25" transcription="" points="1162,1891 1168,1891 1168,1837 1162,1838 " />
<polygon class="Wall" fill="#AFD8F8" id="26" transcription="" points="1215,1884 1216,1892 1162,1892 1162,1883 " />
<polygon class="Wall" fill="#AFD8F8" id="27" transcription="" points="559,1753 602,1753 603,1849 560,1848 " />
<polygon class="Wall" fill="#AFD8F8" id="28" transcription="" points="816,1812 816,1837 602,1837 602,1812 " />
<polygon class="Parking" fill="#F6BD0F" id="29" transcription="" points="687,927 688,1288 639,1286 638,926 " />
<polygon class="Window" fill="#8BBA00" id="30" transcription="" points="605,1752 556,1751 554,1553 600,1553 " />
<polygon class="Door" fill="#FF8E46" id="31" transcription="" points="702,1852 559,1850 559,1958 601,1956 655,1947 690,1907 " />
<polygon class="Window" fill="#8BBA00" id="32" transcription="" points="713,2403 710,2455 1047,2456 1046,2405 " />
<polygon class="Window" fill="#8BBA00" id="33" transcription="" points="1627,2243 1662,2309 1711,2309 1713,2157 1664,2156 1628,2222 1642,2233 " />
<polygon class="Window" fill="#8BBA00" id="34" transcription="" points="1629,1887 1667,1826 1710,1820 1712,1900 1664,1901 1641,1895 " />
<polygon class="Window" fill="#8BBA00" id="35" transcription="" points="1625,1642 1666,1705 1711,1706 1711,1553 1662,1555 1627,1617 1638,1628 " />
<polygon class="Door" fill="#FF8E46" id="36" transcription="" points="1596,1421 1708,1424 1705,1323 1639,1341 1608,1368 " />
<polygon class="Door" fill="#FF8E46" id="37" transcription="" points="1210,1563 1213,1436 1104,1432 1104,1461 1115,1507 1157,1556 " />
<polygon class="Door" fill="#FF8E46" id="38" transcription="" points="1301,1715 1300,1823 1405,1824 1410,1789 1373,1728 " />
<polygon class="Door" fill="#FF8E46" id="39" transcription="" points="1522,1823 1411,1826 1410,1928 1477,1920 1514,1870 " />
<polygon class="Door" fill="#FF8E46" id="40" transcription="" points="1226,2159 1222,2045 1338,2046 1325,2108 1281,2154 " />
<polygon class="Room" fill="#008E8E" id="41" transcription="" points="680,887 680,1428 1677,1425 1677,887 " />
<polygon class="Room" fill="#008E8E" id="42" transcription="" points="602,1463 603,1808 1209,1807 1209,1637 1288,1634 1287,1461 " />
<polygon class="Room" fill="#008E8E" id="43" transcription="" points="609,2405 1209,2405 1211,1895 1160,1894 1158,1844 603,1842 " />
<polygon class="Room" fill="#008E8E" id="44" transcription="" points="1660,2059 1660,2402 1226,2403 1228,2060 " />
<polygon class="Room" fill="#008E8E" id="45" transcription="" points="1658,1829 1661,2043 1422,2046 1416,1832 " />
<polygon class="Room" fill="#008E8E" id="46" transcription="" points="1227,1841 1225,2044 1408,2039 1412,1836 " />
<polygon class="Room" fill="#008E8E" id="47" transcription="" points="1305,1462 1660,1464 1658,1809 1226,1804 1225,1654 1305,1652 " />
<polygon class="Separation" fill="#D64646" id="48" transcription="" points="821,1804 1024,1804 1024,1838 821,1838 " />
<polygon class="Separation" fill="#D64646" id="49" transcription="" points="1211,1929 1226,1929 1226,2046 1211,2046 " />
<relation type="outerP" objects="13,9,36,8,35,0,34,3,33,2,12,32,16,17,31,27,30,18,19,20,29,14"/>
<relation type="incident" objects="13,9"/>
<relation type="incident" objects="9,36"/>
<relation type="incident" objects="36,8"/>
<relation type="incident" objects="8,35"/>
<relation type="incident" objects="35,0"/>
<relation type="incident" objects="0,34"/>
<relation type="incident" objects="34,3"/>
<relation type="incident" objects="33,3"/>
<relation type="incident" objects="33,2"/>
<relation type="incident" objects="2,12"/>
<relation type="incident" objects="12,32"/>
<relation type="incident" objects="32,16"/>
<relation type="incident" objects="17,16"/>
<relation type="incident" objects="17,31"/>
<relation type="incident" objects="31,27"/>
<relation type="incident" objects="27,30"/>
<relation type="incident" objects="30,18"/>
<relation type="incident" objects="18,19"/>
<relation type="incident" objects="19,20"/>
<relation type="incident" objects="20,29"/>
<relation type="incident" objects="29,14"/>
<relation type="incident" objects="14,13"/>
<relation type="incident" objects="36,7"/>
<relation type="incident" objects="7,8"/>
<relation type="incident" objects="7,37"/>
<relation type="incident" objects="37,15"/>
<relation type="incident" objects="15,20"/>
<relation type="incident" objects="15,19"/>
<relation type="incident" objects="7,10"/>
<relation type="incident" objects="10,11"/>
<relation type="incident" objects="11,21"/>
<relation type="incident" objects="21,22"/>
<relation type="incident" objects="22,48"/>
<relation type="incident" objects="48,28"/>
<relation type="incident" objects="28,27"/>
<relation type="incident" objects="22,38"/>
<relation type="incident" objects="38,1"/>
<relation type="incident" objects="1,0"/>
<relation type="incident" objects="1,34"/>
<relation type="incident" objects="1,39"/>
<relation type="incident" objects="39,5"/>
<relation type="incident" objects="5,4"/>
<relation type="incident" objects="4,3"/>
<relation type="incident" objects="5,6"/>
<relation type="incident" objects="4,40"/>
<relation type="incident" objects="24,22"/>
<relation type="incident" objects="40,49"/>
<relation type="incident" objects="49,24"/>
<relation type="incident" objects="49,23"/>
<relation type="incident" objects="40,23"/>
<relation type="incident" objects="23,12"/>
<relation type="neighbour" objects="41,42"/>
<relation type="neighbour" objects="42,47"/>
<relation type="neighbour" objects="47,41"/>
<relation type="neighbour" objects="47,45"/>
<relation type="neighbour" objects="45,44"/>
<relation type="neighbour" objects="44,43"/>
<relation type="neighbour" objects="43,46"/>
<relation type="neighbour" objects="46,45"/>
<relation type="neighbour" objects="46,44"/>
<relation type="neighbour" objects="46,47"/>
<relation type="neighbour" objects="46,42"/>
<relation type="neighbour" objects="43,42"/>
<relation type="access" objects="41,36,41"/>
<relation type="access" objects="41,37,42"/>
<relation type="access" objects="42,48,43"/>
<relation type="access" objects="43,31,43"/>
<relation type="access" objects="46,40,44"/>
<relation type="access" objects="46,39,45"/>
<relation type="access" objects="46,38,47"/>
<relation type="access" objects="43,49,46"/>
<relation type="surround" objects="13,9,36,7,37,15,20,29,14,13,41"/>
<relation type="surround" objects="19,15,37,7,10,11,21,22,28,27,30,18,19,42"/>
<relation type="surround" objects="11,10,7,8,35,0,1,38,22,21,11,47"/>
<relation type="surround" objects="28,48,22,24,49,23,12,32,16,17,31,27,28,43"/>
<relation type="surround" objects="22,38,1,39,5,4,40,49,24,22,46"/>
<relation type="surround" objects="1,34,3,4,5,39,1,45"/>
<relation type="surround" objects="40,4,3,33,2,12,23,40,44"/>
</svg>