<?xml version="1.0" encoding="UTF-8"?><!DOCTYPE svg PUBLIC "-//W3C//DTD SVG 1.1//EN" "http://www.w3.org/Graphics/SVG/1.1/DTD/svg11.dtd">
<svg xmlns="http://www.w3.org/2000/svg" version="1.1">
<width>3508</width>
<height>2479</height>
<nclasslabel>50</nclasslabel>
<nclassappear>6</nclassappear>
<class>Bidet-1</class>
<class>Bidet-2</class>
<class>Bidet-3</class>
<class>Bidet-4</class>
<class>Door</class>
<class>Door-1</class>
<class>Door-23</class>
<class>Oven-1</class>
<class>Oven-2</class>
<class>Oven-3</class>
<class>Oven-4</class>
<class>Parking</class>
<class>Roof</class>
<class>Room</class>
<class>Separation</class>
<class>Sink-1</class>
<class>Sink-11</class>
<class>Sink-12</class>
<class>Sink-13</class>
<class>Sink-14</class>
<class>Sink-2</class>
<class>Sink-3</class>
<class>Sink-4</class>
<class>Sink-5</class>
<class>Sink-6</class>
<class>Sofa-1</class>
<class>Sofa-3</class>
<class>Sofa-4</class>
<class>Sofa-5</class>
<class>Sofa-6</class>
<class>Sofa-7</class>
<class>Sofa-8</class>
<class>Sofa-9</class>
<class>Stairs-1</class>
<class>Table-1</class>
<class>Table-2</class>
<class>Table-3</class>
<class>Table-4</class>
<class>Table-5</class>
<class>Table-6</class>
<class>Table-7</class>
<class>Text</class>
<class>Tub-1</class>
<class>Tub-3</class>
<class>TV-1</class>
<class>TV-2</class>
<class>Wall</class>
<class>Wall-1</class>
<class>Wallieee</class>
<class>Window</class>
<polygon class="Wall" fill="#AFD8F8" id="0" transcription="" points="2288,669 2314,671 2315,697 2288,697 " />
<polygon class="Wall" fill="#AFD8F8" id="1" transcription="" points="2288,765 2315,765 2313,1118 2290,1118 " />
<polygon class="Wall" fill="#AFD8F8" id="2" transcription="" points="2313,1144 2313,1118 1926,1119 1927,1143 " />
<polygon class="Wall" fill="#AFD8F8" id="3" transcription="" points="1900,926 1925,926 1927,1143 1901,1143 " />
<polygon class="Wall" fill="#AFD8F8" id="4" transcription="" points="1823,1137 1823,1143 1901,1143 1901,1137 " />
<polygon class="Wall" fill="#AFD8F8" id="5" transcription="" points="1822,900 1825,927 1927,927 1925,900 " />
<polygon class="Wall" fill="#AFD8F8" id="6" transcription="" points="1597,1062 1605,1061 1605,1136 1598,1136 " />
<polygon class="Wall" fill="#AFD8F8" id="7" transcription="" points="1586,1019 1603,1019 1603,1061 1586,1061 " />
<polygon class="Wall" fill="#AFD8F8" id="8" transcription="" points="1646,1008 1603,1008 1604,1061 1646,1061 " />
<polygon class="Wall" fill="#AFD8F8" id="9" transcription="" points="1723,1137 1724,1143 1600,1143 1597,1137 " />
<polygon class="Wall" fill="#AFD8F8" id="10" transcription="" points="2314,546 2314,578 2286,578 2287,572 1628,571 1628,546 " />
<polygon class="Wall" fill="#AFD8F8" id="11" transcription="" points="1629,599 1603,599 1603,546 1628,546 " />
<polygon class="Wall" fill="#AFD8F8" id="12" transcription="" points="1630,896 1603,896 1603,925 1630,925 " />
<polygon class="Wall" fill="#AFD8F8" id="13" transcription="" points="1724,900 1725,927 1629,928 1630,900 " />
<polygon class="Wall" fill="#AFD8F8" id="14" transcription="" points="1664,1686 1664,1730 1835,1728 1835,1686 " />
<polygon class="Wall" fill="#AFD8F8" id="15" transcription="" points="1597,1242 1598,1319 1607,1320 1606,1243 " />
<polygon class="Wall" fill="#AFD8F8" id="16" transcription="" points="1740,1319 1598,1320 1598,1328 1740,1327 " />
<polygon class="Wall" fill="#AFD8F8" id="17" transcription="" points="1989,1729 1988,1687 2147,1685 2147,1729 " />
<polygon class="Wall" fill="#AFD8F8" id="18" transcription="" points="2230,1728 2231,1685 2390,1685 2390,1730 " />
<polygon class="Wall" fill="#AFD8F8" id="19" transcription="" points="2288,1242 2289,1251 2536,1250 2649,1251 2649,1242 " />
<polygon class="Wall" fill="#AFD8F8" id="20" transcription="" points="2691,1115 2649,1114 2649,1685 2692,1685 " />
<polygon class="Wall" fill="#AFD8F8" id="21" transcription="" points="2544,1686 2544,1728 2692,1729 2692,1685 " />
<polygon class="Wall" fill="#AFD8F8" id="22" transcription="" points="2692,959 2650,959 2649,825 2691,825 " />
<polygon class="Wall" fill="#AFD8F8" id="23" transcription="" points="2691,782 2692,824 2313,825 2314,782 " />
<polygon class="Wall" fill="#AFD8F8" id="24" transcription="" points="2297,1350 2290,1350 2288,1685 2296,1684 " />
<polygon class="Wall" fill="#AFD8F8" id="25" transcription="" points="1157,1685 1157,1730 1510,1728 1510,1686 " />
<polygon class="Wall" fill="#AFD8F8" id="26" transcription="" points="1156,901 1156,942 1320,942 1320,902 " />
<polygon class="Wall" fill="#AFD8F8" id="27" transcription="" points="1014,901 1014,943 815,942 814,902 " />
<polygon class="Wall" fill="#AFD8F8" id="28" transcription="" points="774,1067 815,1067 815,901 772,901 " />
<polygon class="Wall" fill="#AFD8F8" id="29" transcription="" points="1977,1251 1977,1242 1747,1243 1747,1251 1872,1250 " />
<polygon class="Wall" fill="#AFD8F8" id="30" transcription="" points="1740,1685 1741,1242 1747,1243 1746,1685 " />
<polygon class="Wall" fill="#AFD8F8" id="31" transcription="" points="1482,1018 1482,1062 1451,1061 1452,1019 " />
<polygon class="Wall" fill="#AFD8F8" id="32" transcription="" points="1410,1062 1450,1061 1452,945 1411,945 " />
<polygon class="Wall" fill="#AFD8F8" id="33" transcription="" points="1452,900 1452,945 1404,945 1404,900 " />
<polygon class="Wall" fill="#AFD8F8" id="34" transcription="" points="1411,1327 1410,1405 1417,1405 1418,1327 " />
<polygon class="Wall" fill="#AFD8F8" id="35" transcription="" points="2183,1351 2190,1351 2190,1433 2183,1431 " />
<polygon class="Wall" fill="#AFD8F8" id="36" transcription="" points="2086,1432 2086,1439 2190,1440 2190,1433 " />
<polygon class="Wall" fill="#AFD8F8" id="37" transcription="" points="2077,1251 2084,1251 2084,1685 2078,1685 " />
<polygon class="Wall" fill="#AFD8F8" id="38" transcription="" points="2190,1243 2190,1250 2077,1250 2077,1244 " />
<polygon class="Wall" fill="#AFD8F8" id="39" transcription="" points="773,1349 815,1349 815,1685 771,1684 " />
<polygon class="Wall" fill="#AFD8F8" id="40" transcription="" points="1014,1727 1012,1685 772,1685 772,1729 " />
<polygon class="Wall" fill="#AFD8F8" id="41" transcription="" points="1303,1160 1302,942 1309,942 1310,1160 " />
<polygon class="Wall" fill="#AFD8F8" id="42" transcription="" points="1418,1160 1302,1160 1303,1168 1418,1168 " />
<polygon class="Wall" fill="#AFD8F8" id="43" transcription="" points="1500,1319 1410,1320 1410,1328 1500,1328 " />
<polygon class="Wall" fill="#AFD8F8" id="44" transcription="" points="594,1432 619,1431 619,1458 595,1456 " />
<polygon class="Wall" fill="#AFD8F8" id="45" transcription="" points="594,960 619,959 621,985 598,985 " />
<polygon class="Window" fill="#F6BD0F" id="46" transcription="" points="1014,1015 1014,902 1156,902 1158,1014 1108,1006 1085,965 1067,1003 " />
<polygon class="Window" fill="#F6BD0F" id="47" transcription="" points="1334,978 1401,941 1401,897 1321,897 1322,944 1326,963 " />
<polygon class="Door" fill="#8BBA00" id="48" transcription="" points="1586,1163 1583,1018 1482,1017 1482,1069 1497,1123 1536,1151 " />
<polygon class="Door" fill="#8BBA00" id="49" transcription="" points="1462,1143 1409,1063 1411,1159 1436,1156 " />
<polygon class="Window" fill="#F6BD0F" id="50" transcription="" points="1688,994 1646,927 1598,926 1598,1007 1645,1008 1665,1003 " />
<polygon class="Parking" fill="#FF8E46" id="51" transcription="" points="1593,603 1637,602 1641,892 1592,892 " />
<polygon class="Door" fill="#8BBA00" id="52" transcription="" points="2200,577 2315,573 2316,675 2282,674 2229,649 2206,617 " />
<polygon class="Window" fill="#F6BD0F" id="53" transcription="" points="2245,705 2281,770 2318,771 2321,688 2287,689 2263,691 " />
<polygon class="Window" fill="#F6BD0F" id="54" transcription="" points="2613,1028 2652,960 2696,961 2698,1115 2648,1116 2612,1046 2629,1036 " />
<polygon class="Window" fill="#F6BD0F" id="55" transcription="" points="2456,1648 2392,1686 2393,1732 2542,1731 2545,1685 2476,1648 2468,1662 " />
<polygon class="Window" fill="#F6BD0F" id="56" transcription="" points="2161,1649 2232,1687 2231,1733 2146,1732 2148,1685 " />
<polygon class="Window" fill="#F6BD0F" id="57" transcription="" points="1919,1648 1988,1688 1986,1731 1838,1732 1834,1682 1902,1648 1913,1660 " />
<polygon class="Window" fill="#F6BD0F" id="58" transcription="" points="1595,1649 1662,1686 1663,1732 1511,1733 1512,1684 1579,1648 1589,1664 " />
<polygon class="Window" fill="#F6BD0F" id="59" transcription="" points="1013,1613 1012,1728 1158,1729 1158,1614 1113,1626 1087,1653 1056,1623 " />
<polygon class="Window" fill="#F6BD0F" id="60" transcription="" points="767,1349 818,1348 822,1066 767,1063 " />
<polygon class="Room" fill="#008E8E" id="61" transcription="" points="1642,576 1644,892 1928,898 1931,1115 2285,1112 2284,578 " />
<polygon class="Door" fill="#8BBA00" id="62" transcription="" points="1731,1013 1728,902 1823,903 1823,932 1805,972 1771,1005 " />
<polygon class="Door" fill="#8BBA00" id="63" transcription="" points="1727,1050 1727,1141 1821,1141 1810,1087 1770,1051 " />
<polygon class="Door" fill="#8BBA00" id="64" transcription="" points="2074,1344 2077,1242 1978,1243 1988,1298 2025,1331 " />
<polygon class="Door" fill="#8BBA00" id="65" transcription="" points="2233,1264 2186,1353 2183,1253 2210,1254 " />
<polygon class="Door" fill="#8BBA00" id="66" transcription="" points="2386,1242 2285,1243 2289,1145 2338,1154 2379,1196 " />
<polygon class="Door" fill="#8BBA00" id="67" transcription="" points="2390,1255 2286,1253 2290,1354 2340,1342 2379,1298 " />
<polygon class="Door" fill="#8BBA00" id="68" transcription="" points="2287,1448 2290,1350 2188,1350 2200,1404 2232,1434 " />
<polygon class="Door" fill="#8BBA00" id="69" transcription="" points="1595,1416 1595,1321 1501,1322 1512,1381 1553,1413 " />
<polygon class="Room" fill="#008E8E" id="70" transcription="" points="819,946 819,1678 1406,1682 1397,1177 1294,1172 1297,945 " />
<polygon class="Door" fill="#8BBA00" id="71" transcription="" points="1361,1315 1417,1312 1412,1262 1380,1274 1363,1292 " />
<polygon class="Door" fill="#8BBA00" id="72" transcription="" points="1319,1226 1353,1260 1415,1269 1414,1177 1310,1176 " />
<polygon class="Room" fill="#008E8E" id="73" transcription="" points="1406,947 1407,1156 1313,1154 1315,951 " />
<polygon class="Room" fill="#008E8E" id="74" transcription="" points="1414.5,1314 1592.5,1312 1588.5,1237 1610.5,1235 1611.5,1313 1737.5,1313 1735.5,1242 2194.5,1236 2191.5,1346 2284.5,1345 2280.5,1153 1592.5,1147 1589.5,1069 1413.5,1066 " />
<polygon class="Room" fill="#008E8E" id="75" transcription="" points="1751,1254 1752,1681 2071,1681 2068,1258 " />
<polygon class="Room" fill="#008E8E" id="76" transcription="" points="2088,1256 2091,1429 2180,1430 2179,1255 " />
<polygon class="Room" fill="#008E8E" id="77" transcription="" points="2089,1444 2089,1681 2283,1679 2284,1352 2191,1355 2195,1441 " />
<polygon class="Room" fill="#008E8E" id="78" transcription="" points="2645,1255 2644,1679 2301,1678 2294,1256 " />
<polygon class="Room" fill="#008E8E" id="79" transcription="" points="2646,830 2645,1237 2318,1236 2320,827 " />
<polygon class="Room" fill="#008E8E" id="80" transcription="" points="1897,927 1896,1131 1610,1132 1609,1064 1649,1064 1649,928 " />
<polygon class="Wall" fill="#AFD8F8" id="81" transcription="" points="2666,545 2690,547 2692,571 2667,571 " />
<polygon class="Room" fill="#008E8E" id="82" transcription="" points="1425,1328 1740,1330 1742,1683 1432,1685 " />
<polygon class="Separation" fill="#D64646" id="83" transcription="" points="1402,1400 1420,1400 1420,1680 1402,1680 " />
<relation type="outerP" objects="27,46,26,47,33,32,31,48,7,8,50,12,51,11,10,52,0,53,23,22,54,20,21,55,18,56,17,57,14,58,25,59,40,39,60,28"/>
<relation type="incident" objects="27,46"/>
<relation type="incident" objects="46,26"/>
<relation type="incident" objects="26,47"/>
<relation type="incident" objects="32,31"/>
<relation type="incident" objects="31,48"/>
<relation type="incident" objects="48,7"/>
<relation type="incident" objects="7,8"/>
<relation type="incident" objects="8,50"/>
<relation type="incident" objects="50,12"/>
<relation type="incident" objects="12,51"/>
<relation type="incident" objects="51,11"/>
<relation type="incident" objects="11,10"/>
<relation type="incident" objects="10,52"/>
<relation type="incident" objects="52,0"/>
<relation type="incident" objects="0,53"/>
<relation type="incident" objects="1,53"/>
<relation type="incident" objects="1,23"/>
<relation type="incident" objects="23,22"/>
<relation type="incident" objects="22,54"/>
<relation type="incident" objects="54,20"/>
<relation type="incident" objects="20,21"/>
<relation type="incident" objects="21,55"/>
<relation type="incident" objects="18,55"/>
<relation type="incident" objects="18,56"/>
<relation type="incident" objects="56,17"/>
<relation type="incident" objects="17,57"/>
<relation type="incident" objects="57,14"/>
<relation type="incident" objects="14,58"/>
<relation type="incident" objects="58,25"/>
<relation type="incident" objects="25,59"/>
<relation type="incident" objects="59,40"/>
<relation type="incident" objects="40,39"/>
<relation type="incident" objects="39,60"/>
<relation type="incident" objects="60,28"/>
<relation type="incident" objects="28,27"/>
<relation type="incident" objects="47,33"/>
<relation type="incident" objects="32,33"/>
<relation type="incident" objects="26,41"/>
<relation type="incident" objects="41,42"/>
<relation type="incident" objects="42,49"/>
<relation type="incident" objects="49,32"/>
<relation type="incident" objects="41,47"/>
<relation type="incident" objects="42,72"/>
<relation type="incident" objects="72,71"/>
<relation type="incident" objects="71,43"/>
<relation type="incident" objects="43,69"/>
<relation type="incident" objects="69,15"/>
<relation type="incident" objects="69,16"/>
<relation type="incident" objects="16,30"/>
<relation type="incident" objects="71,34"/>
<relation type="incident" objects="34,43"/>
<relation type="incident" objects="34,83"/>
<relation type="incident" objects="83,25"/>
<relation type="incident" objects="30,14"/>
<relation type="incident" objects="30,29"/>
<relation type="incident" objects="29,64"/>
<relation type="incident" objects="64,37"/>
<relation type="incident" objects="37,17"/>
<relation type="incident" objects="37,36"/>
<relation type="incident" objects="36,35"/>
<relation type="incident" objects="35,65"/>
<relation type="incident" objects="65,38"/>
<relation type="incident" objects="38,37"/>
<relation type="incident" objects="38,64"/>
<relation type="incident" objects="35,68"/>
<relation type="incident" objects="68,24"/>
<relation type="incident" objects="24,18"/>
<relation type="incident" objects="24,67"/>
<relation type="incident" objects="67,19"/>
<relation type="incident" objects="19,66"/>
<relation type="incident" objects="66,2"/>
<relation type="incident" objects="19,20"/>
<relation type="incident" objects="2,1"/>
<relation type="incident" objects="2,3"/>
<relation type="incident" objects="3,5"/>
<relation type="incident" objects="5,62"/>
<relation type="incident" objects="62,13"/>
<relation type="incident" objects="12,13"/>
<relation type="incident" objects="3,4"/>
<relation type="incident" objects="4,63"/>
<relation type="incident" objects="63,9"/>
<relation type="incident" objects="9,6"/>
<relation type="incident" objects="6,8"/>
<relation type="incident" objects="6,7"/>
<relation type="neighbour" objects="70,73"/>
<relation type="neighbour" objects="73,74"/>
<relation type="neighbour" objects="74,82"/>
<relation type="neighbour" objects="82,70"/>
<relation type="neighbour" objects="70,74"/>
<relation type="neighbour" objects="82,75"/>
<relation type="neighbour" objects="75,77"/>
<relation type="neighbour" objects="77,78"/>
<relation type="neighbour" objects="78,79"/>
<relation type="neighbour" objects="79,61"/>
<relation type="neighbour" objects="61,80"/>
<relation type="neighbour" objects="80,74"/>
<relation type="neighbour" objects="61,74"/>
<relation type="neighbour" objects="74,79"/>
<relation type="neighbour" objects="74,78"/>
<relation type="neighbour" objects="76,74"/>
<relation type="neighbour" objects="76,77"/>
<relation type="neighbour" objects="76,75"/>
<relation type="neighbour" objects="75,74"/>
<relation type="access" objects="61,52,61"/>
<relation type="access" objects="74,66,79"/>
<relation type="access" objects="74,67,78"/>
<relation type="access" objects="74,68,77"/>
<relation type="access" objects="76,65,74"/>
<relation type="access" objects="74,64,75"/>
<relation type="access" objects="74,69,82"/>
<relation type="access" objects="74,72,70"/>
<relation type="access" objects="73,49,74"/>
<relation type="access" objects="74,48,74"/>
<relation type="access" objects="74,63,80"/>
<relation type="access" objects="61,62,80"/>
<relation type="surround" objects="27,46,26,41,42,72,71,34,83,25,59,40,39,60,28,27,70"/>
<relation type="surround" objects="26,47,33,32,49,42,41,47,73"/>
<relation type="surround" objects="43,69,16,30,14,58,25,83,43,82"/>
<relation type="surround" objects="29,64,37,17,57,14,30,29,75"/>
<relation type="surround" objects="32,31,48,7,6,9,63,4,2,66,19,67,24,68,77,65,38,64,29,30,16,69,43,71,72,42,49,32,74"/>
<relation type="surround" objects="38,65,35,36,37,38,76"/>
<relation type="surround" objects="13,62,5,3,4,63,9,6,7,8,50,13,80"/>
<relation type="surround" objects="10,52,53,1,2,3,5,62,13,51,11,10,61"/>
<relation type="surround" objects="23,22,54,20,19,66,1,23,79"/>
<relation type="surround" objects="19,20,21,55,18,24,67,19,78"/>
<relation type="surround" objects="36,35,68,24,18,56,17,37,36,77"/>
</svg>