<?xml version="1.0" encoding="UTF-8"?><!DOCTYPE svg PUBLIC "-//W3C//DTD SVG 1.1//EN" "http://www.w3.org/Graphics/SVG/1.1/DTD/svg11.dtd">
<svg xmlns="http://www.w3.org/2000/svg" version="1.1">
<width>3508</width>
<height>2480</height>
<nclasslabel>50</nclasslabel>
<nclassappear>5</nclassappear>
<class>Bidet-1</class>
<class>Bidet-2</class>
<class>Bidet-3</class>
<class>Bidet-4</class>
<class>Door</class>
<class>Door-1</class>
<class>Door-23</class>
<class>Oven-1</class>
<class>Oven-2</class>
<class>Oven-3</class>
<class>Oven-4</class>
<class>Parking</class>
<class>Roof</class>
<class>Room</class>
<class>Separation</class>
<class>Sink-1</class>
<class>Sink-11</class>
<class>Sink-12</class>
<class>Sink-13</class>
<class>Sink-14</class>
<class>Sink-2</class>
<class>Sink-3</class>
<class>Sink-4</class>
<class>Sink-5</class>
<class>Sink-6</class>
<class>Sofa-1</class>
<class>Sofa-3</class>
<class>Sofa-4</class>
<class>Sofa-5</class>
<class>Sofa-6</class>
<class>Sofa-7</class>
<class>Sofa-8</class>
<class>Sofa-9</class>
<class>Stairs-1</class>
<class>Table-1</class>
<class>Table-2</class>
<class>Table-3</class>
<class>Table-4</class>
<class>Table-5</class>
<class>Table-6</class>
<class>Table-7</class>
<class>Text</class>
<class>Tub-1</class>
<class>Tub-3</class>
<class>TV-1</class>
<class>TV-2</class>
<class>Wall</class>
<class>Wall-1</class>
<class>Wallieee</class>
<class>Window</class>
<polygon class="Wall" fill="#AFD8F8" id="0" transcription="" points="416,457 563,455 565,502 416,500 " />
<polygon class="Wall" fill="#AFD8F8" id="1" transcription="" points="462,893 416,892 414,457 461,457 " />
<polygon class="Wall" fill="#AFD8F8" id="2" transcription="" points="633,459 632,504 691,503 687,457 " />
<polygon class="Wall" fill="#AFD8F8" id="3" transcription="" points="759,457 758,502 1318,500 1318,457 " />
<polygon class="Wall" fill="#AFD8F8" id="4" transcription="" points="1278,563 1321,563 1322,457 1273,459 " />
<polygon class="Wall" fill="#AFD8F8" id="5" transcription="" points="1278,658 1322,656 1322,883 1276,884 " />
<polygon class="Wall" fill="#AFD8F8" id="6" transcription="" points="1368,841 1372,885 1275,884 1273,843 " />
<polygon class="Wall" fill="#AFD8F8" id="7" transcription="" points="1436,838 1436,885 1496,886 1495,839 " />
<polygon class="Wall" fill="#AFD8F8" id="8" transcription="" points="1698,763 1639,767 1638,724 1696,720 " />
<polygon class="Window" fill="#F6BD0F" id="9" transcription="" points="1774,765 1765,807 1695,765 1695,716 1773,714 " />
<polygon class="Wall" fill="#AFD8F8" id="10" transcription="" points="1812,722 1817,767 1771,767 1769,724 " />
<polygon class="Window" fill="#F6BD0F" id="11" transcription="" points="1889,714 1889,765 1887,787 1874,800 1812,767 1808,720 " />
<polygon class="Wall" fill="#AFD8F8" id="12" transcription="" points="1933,722 1932,765 1887,763 1883,724 " />
<polygon class="Window" fill="#F6BD0F" id="13" transcription="" points="2010,763 1941,802 1932,785 1928,759 1928,718 2012,718 " />
<polygon class="Wall" fill="#AFD8F8" id="14" transcription="" points="2204,720 2006,720 2008,769 2207,770 " />
<polygon class="Wall" fill="#AFD8F8" id="15" transcription="" points="2180,461 2206,459 2206,767 2182,763 " />
<polygon class="Wall" fill="#AFD8F8" id="16" transcription="" points="2165,1106 2206,1106 2207,718 2161,718 " />
<polygon class="Wall" fill="#AFD8F8" id="17" transcription="" points="2223,1067 2161,1067 2165,1103 2223,1103 " />
<polygon class="Wall" fill="#AFD8F8" id="18" transcription="" points="2301,1067 2303,1181 2325,1179 2325,1067 " />
<polygon class="Window" fill="#F6BD0F" id="19" transcription="" points="2232,1147 2297,1108 2297,1060 2221,1062 2221,1106 2221,1125 " />
<polygon class="Door" fill="#8BBA00" id="20" transcription="" points="2333,1183 2324,1067 2426,1065 2426,1091 2413,1131 2384,1168 " />
<polygon class="Wall" fill="#AFD8F8" id="21" transcription="" points="2837,1065 2425,1063 2425,1090 2839,1090 " />
<polygon class="Wall" fill="#AFD8F8" id="22" transcription="" points="2839,1437 2837,1069 2813,1065 2815,1437 " />
<polygon class="Wall" fill="#AFD8F8" id="23" transcription="" points="2430,1412 2430,1440 2839,1441 2839,1411 " />
<polygon class="Door" fill="#8BBA00" id="24" transcription="" points="2333,1317 2333,1435 2434,1437 2434,1412 2425,1364 2380,1325 " />
<polygon class="Wall" fill="#AFD8F8" id="25" transcription="" points="2300,1284 2324,1284 2324,1437 2300,1435 " />
<polygon class="Door" fill="#8BBA00" id="26" transcription="" points="2210,1188 2305,1188 2307,1284 2249,1267 2216,1224 " />
<polygon class="Wall" fill="#AFD8F8" id="27" transcription="" points="2163,1396 2322,1396 2322,1439 2163,1440 " />
<polygon class="Wall" fill="#AFD8F8" id="28" transcription="" points="2165,1493 2210,1495 2210,1393 2163,1396 " />
<polygon class="Window" fill="#F6BD0F" id="29" transcription="" points="2111,1511 2163,1595 2212,1595 2212,1496 2165,1496 2132,1496 " />
<polygon class="Wall" fill="#AFD8F8" id="30" transcription="" points="2206,1673 2165,1673 2165,1591 2206,1591 " />
<polygon class="Wall" fill="#AFD8F8" id="31" transcription="" points="2049,1632 2043,1677 2208,1677 2204,1634 " />
<polygon class="Door" fill="#8BBA00" id="32" transcription="" points="2051,1535 2048,1675 1949,1673 1949,1632 1954,1584 2012,1539 " />
<polygon class="Wall" fill="#AFD8F8" id="33" transcription="" points="1896,1636 1898,1697 1943,1697 1943,1634 " />
<polygon class="Door" fill="#8BBA00" id="34" transcription="" points="1801,1793 1941,1793 1943,1694 1896,1694 1842,1712 1814,1750 " />
<polygon class="Wall" fill="#AFD8F8" id="35" transcription="" points="1941,1882 1942,1788 1898,1793 1898,1880 " />
<polygon class="Wall" fill="#AFD8F8" id="36" transcription="" points="1870,1837 1870,1884 1941,1882 1941,1837 " />
<polygon class="Window" fill="#F6BD0F" id="37" transcription="" points="1585,1837 1585,1882 1872,1884 1872,1834 " />
<polygon class="Wall" fill="#AFD8F8" id="38" transcription="" points="1454,1839 1456,1882 1585,1882 1585,1839 " />
<polygon class="Window" fill="#F6BD0F" id="39" transcription="" points="1172,1834 1170,1884 1450,1884 1452,1832 " />
<polygon class="Wall" fill="#AFD8F8" id="40" transcription="" points="1094,1882 1168,1882 1167,1836 1094,1834 " />
<polygon class="Wall" fill="#AFD8F8" id="41" transcription="" points="1096,1750 1137,1752 1135,1884 1096,1882 " />
<polygon class="Window" fill="#F6BD0F" id="42" transcription="" points="1185,1666 1142,1750 1096,1752 1092,1654 1135,1653 1165,1653 " />
<polygon class="Wall" fill="#AFD8F8" id="43" transcription="" points="1096,1557 1139,1557 1137,1651 1092,1653 " />
<polygon class="Window" fill="#F6BD0F" id="44" transcription="" points="1092,1458 1137,1458 1189,1542 1161,1557 1135,1557 1094,1556 " />
<polygon class="Wall" fill="#AFD8F8" id="45" transcription="" points="1142,1318 1142,1460 1093,1457 1091,1320 " />
<polygon class="Wall" fill="#AFD8F8" id="46" transcription="" points="1403,1361 1078,1361 1078,1337 1403,1337 " />
<polygon class="Door" fill="#8BBA00" id="47" transcription="" points="979,1220 981,1360 1082,1363 1085,1320 1074,1266 1031,1231 " />
<polygon class="Wall" fill="#AFD8F8" id="48" transcription="" points="878,1319 879,1362 982,1365 979,1317 " />
<polygon class="Door" fill="#8BBA00" id="49" transcription="" points="878,1221 878,1367 781,1365 777,1315 794,1268 826,1233 " />
<polygon class="Wall" fill="#AFD8F8" id="50" transcription="" points="415,1361 779,1363 781,1317 415,1317 " />
<polygon class="Wall" fill="#AFD8F8" id="51" transcription="" points="415,965 460,964 461,1360 414,1361 " />
<polygon class="Window" fill="#F6BD0F" id="52" transcription="" points="408,892 460,890 481,896 494,905 455,967 408,965 " />
<polygon class="Window" fill="#F6BD0F" id="53" transcription="" points="626,538 559,502 561,450 632,448 636,497 636,519 " />
<polygon class="Window" fill="#F6BD0F" id="54" transcription="" points="688,452 761,454 759,502 697,538 688,519 688,493 " />
<polygon class="Door" fill="#8BBA00" id="55" transcription="" points="1183,562 1324,562 1324,665 1276,663 1216,644 1186,601 " />
<polygon class="Window" fill="#F6BD0F" id="56" transcription="" points="1365,835 1444,836 1442,883 1438,904 1425,920 1365,879 " />
<polygon class="Door" fill="#8BBA00" id="57" transcription="" points="1595,984 1590,890 1589,836 1483,838 1481,877 1498,935 1535,971 " />
<polygon class="Wall" fill="#AFD8F8" id="58" transcription="" points="782,882 793,882 793,498 779,497 " />
<polygon class="Wall" fill="#AFD8F8" id="59" transcription="" points="881,875 880,887 782,886 782,874 " />
<polygon class="Wall" fill="#AFD8F8" id="60" transcription="" points="962,875 962,885 1321,887 1323,875 " />
<polygon class="Wall" fill="#AFD8F8" id="61" transcription="" points="691,874 691,885 457,886 457,874 " />
<polygon class="Wall" fill="#AFD8F8" id="62" transcription="" points="797,981 797,990 453,990 452,981 " />
<polygon class="Wall" fill="#AFD8F8" id="63" transcription="" points="975,1156 964,1156 965,981 975,981.5 " />
<polygon class="Wall" fill="#AFD8F8" id="64" transcription="" points="881,982 881,992 993,991 994,982 " />
<polygon class="Wall" fill="#AFD8F8" id="65" transcription="" points="888,1148 888,1157 978,1156 978,1146 " />
<polygon class="Wall" fill="#AFD8F8" id="66" transcription="" points="888,1145 886,1319 898,1318 897,1146 " />
<polygon class="Wall" fill="#AFD8F8" id="67" transcription="" points="1404,981 1393,982 1395,1337 1406,1337 " />
<polygon class="Wall" fill="#AFD8F8" id="68" transcription="" points="1075,979 1074,989 1404,989 1404,979 " />
<polygon class="Wall" fill="#AFD8F8" id="69" transcription="" points="1597,1004 1596,991 1684,993 1685,1004 " />
<polygon class="Wall" fill="#AFD8F8" id="70" transcription="" points="1780,1001 1790,1002 1788,760 1776,761 " />
<polygon class="Wall" fill="#AFD8F8" id="71" transcription="" points="1780,1097 1781,1111 2166,1111 2163,1098 " />
<polygon class="Wall" fill="#AFD8F8" id="72" transcription="" points="1858,1326 1867,1326 1866,1114 1855,1114 " />
<polygon class="Wall" fill="#AFD8F8" id="73" transcription="" points="1947,1317 1947,1328 1599,1327 1598,1316 " />
<polygon class="Wall" fill="#AFD8F8" id="74" transcription="" points="1595,1100 1607,1101 1608,1325 1596,1324 " />
<polygon class="Wall" fill="#AFD8F8" id="75" transcription="" points="1690,1099 1689,1109 1595,1111 1594,1100 " />
<polygon class="Door" fill="#8BBA00" id="76" transcription="" points="1685,1196 1686,1101 1777,1101 1772,1148 1738,1189 " />
<polygon class="Door" fill="#8BBA00" id="77" transcription="" points="1881,1099 1778,1099 1778,1003 1822,1007 1862,1045 " />
<polygon class="Door" fill="#8BBA00" id="78" transcription="" points="1778,1095 1777,998 1683,999 1691,1051 1720,1081 " />
<polygon class="Wall" fill="#AFD8F8" id="79" transcription="" points="2174,1321 2161,1321 2162,1397 2174,1396 " />
<polygon class="Wall" fill="#AFD8F8" id="80" transcription="" points="2033,1317 2032,1327 2173,1328 2173,1316 " />
<polygon class="Door" fill="#8BBA00" id="81" transcription="" points="1945,1234 1947,1328 2035,1323 2030,1281 1988,1241 " />
<polygon class="Wall" fill="#AFD8F8" id="82" transcription="" points="1248,1402 1260,1402 1261,1361 1248,1360 " />
<polygon class="Wall" fill="#AFD8F8" id="83" transcription="" points="1322,1406 1322,1396 1247,1396 1247,1407 " />
<polygon class="Wall" fill="#AFD8F8" id="84" transcription="" points="1312,1406 1324,1406 1324,1359 1313,1359 " />
<polygon class="Door" fill="#8BBA00" id="85" transcription="" points="780,787 785,883 688,886 692,836 725,800 " />
<polygon class="Door" fill="#8BBA00" id="86" transcription="" points="875,787 878,883 967,884 961,833 915,793 " />
<polygon class="Door" fill="#8BBA00" id="87" transcription="" points="779,976 674,975 671,887 734,899 766,940 " />
<polygon class="Door" fill="#8BBA00" id="88" transcription="" points="886,1080 885,984 795,983 799,1029 830,1069 " />
<polygon class="Door" fill="#8BBA00" id="89" transcription="" points="988,1080 988,984 1080,982 1070,1033 1032,1069 " />
<polygon class="Room" fill="#FF8E46" id="90" transcription="" points="467,507 463,866 774,870 774,507 " />
<polygon class="Room" fill="#FF8E46" id="91" transcription="" points="798,510 796,866 1263,868 1269,505 " />
<polygon class="Room" fill="#FF8E46" id="92" transcription="" points="460,996 460,1310 885,1308 885,1143 962,1139 962,992 " />
<polygon class="Room" fill="#FF8E46" id="93" transcription="" points="1387,992 1389,1314 904,1314 900,1163 981,1158 979,992 " />
<polygon class="Room" fill="#FF8E46" id="94" transcription="" points="672,892 672,981 460,975 458,894 " />
<polygon class="Room" fill="#FF8E46" id="95" transcription="" points="1394,886 1394,979 676,971 672,889 " />
<polygon class="Room" fill="#FF8E46" id="96" transcription="" points="1406,1318 1587,1318 1587,1092 1771,1092 1773,1000 1668,1000 1666,894 1404,885 " />
<polygon class="Room" fill="#FF8E46" id="97" transcription="" points="1773,766 1775,994 1690,994 1688,768 " />
<polygon class="Room" fill="#FF8E46" id="98" transcription="" points="2159,770 2159,1092 1792,1092 1792,770 " />
<polygon class="Room" fill="#FF8E46" id="99" transcription="" points="1607,1314 1856,1314 1852,1116 1609,1111 " />
<polygon class="Room" fill="#FF8E46" id="100" transcription="" points="1871,1111 1873,1312 2176,1314 2180,1389 2297,1389 2293,1109 " />
<polygon class="Room" fill="#FF8E46" id="101" transcription="" points="2808,1099 2812,1402 2332,1406 2334,1101 " />
<polygon class="Room" fill="#FF8E46" id="102" transcription="" points="1906,1326 1906,1632 2161,1626 2154,1331 " />
<polygon class="Wall" fill="#AFD8F8" id="103" transcription="" points="1638,722 1683,725 1683,885 1637,884 " />
<polygon class="Wall" fill="#AFD8F8" id="104" transcription="" points="1592,841 1590,887 1686,885 1688,838 " />
<polygon class="Wall" fill="#AFD8F8" id="105" transcription="" points="1675,845 1675,996 1690,994 1692,845 " />
<polygon class="Room" fill="#FF8E46" id="106" transcription="" points="1143,1365 1141,1829 1894,1829 1888,1333 1410,1333 1410,1365 " />
<polygon class="Separation" fill="#008E8E" id="107" transcription="" points="1398,1303 1595,1303 1595,1335 1398,1331 " />
<polygon class="Separation" fill="#008E8E" id="108" transcription="" points="1885,1328 1903,1328 1903,1633 1885,1633 " />
<polygon class="Separation" fill="#008E8E" id="109" transcription="" points="1391,881 1402,881 1402,984 1391,984 " />
<relation type="outerP" objects="0,53,2,54,3,4,55,5,6,56,7,57,104,103,8,9,10,11,12,13,14,16,17,19,18,20,21,22,23,24,27,28,29,30,31,32,33,34,35,36,37,38,39,40,41,42,43,44,45,47,48,49,50,51,52,1"/>
<relation type="incident" objects="0,53"/>
<relation type="incident" objects="2,53"/>
<relation type="incident" objects="2,54"/>
<relation type="incident" objects="54,3"/>
<relation type="incident" objects="3,4"/>
<relation type="incident" objects="4,55"/>
<relation type="incident" objects="55,5"/>
<relation type="incident" objects="5,6"/>
<relation type="incident" objects="6,56"/>
<relation type="incident" objects="56,7"/>
<relation type="incident" objects="7,57"/>
<relation type="incident" objects="57,104"/>
<relation type="incident" objects="104,103"/>
<relation type="incident" objects="103,8"/>
<relation type="incident" objects="8,9"/>
<relation type="incident" objects="9,10"/>
<relation type="incident" objects="10,11"/>
<relation type="incident" objects="11,12"/>
<relation type="incident" objects="12,13"/>
<relation type="incident" objects="13,14"/>
<relation type="incident" objects="14,16"/>
<relation type="incident" objects="16,17"/>
<relation type="incident" objects="18,19"/>
<relation type="incident" objects="17,19"/>
<relation type="incident" objects="18,20"/>
<relation type="incident" objects="20,21"/>
<relation type="incident" objects="21,22"/>
<relation type="incident" objects="22,23"/>
<relation type="incident" objects="23,24"/>
<relation type="incident" objects="24,27"/>
<relation type="incident" objects="27,28"/>
<relation type="incident" objects="28,29"/>
<relation type="incident" objects="30,29"/>
<relation type="incident" objects="30,31"/>
<relation type="incident" objects="31,32"/>
<relation type="incident" objects="32,33"/>
<relation type="incident" objects="33,34"/>
<relation type="incident" objects="34,35"/>
<relation type="incident" objects="35,36"/>
<relation type="incident" objects="36,37"/>
<relation type="incident" objects="37,38"/>
<relation type="incident" objects="38,39"/>
<relation type="incident" objects="39,40"/>
<relation type="incident" objects="40,41"/>
<relation type="incident" objects="41,42"/>
<relation type="incident" objects="42,43"/>
<relation type="incident" objects="43,44"/>
<relation type="incident" objects="44,45"/>
<relation type="incident" objects="45,47"/>
<relation type="incident" objects="47,48"/>
<relation type="incident" objects="48,49"/>
<relation type="incident" objects="49,50"/>
<relation type="incident" objects="50,51"/>
<relation type="incident" objects="51,52"/>
<relation type="incident" objects="1,52"/>
<relation type="incident" objects="1,0"/>
<relation type="incident" objects="3,58"/>
<relation type="incident" objects="58,85"/>
<relation type="incident" objects="85,61"/>
<relation type="incident" objects="61,1"/>
<relation type="incident" objects="58,59"/>
<relation type="incident" objects="59,85"/>
<relation type="incident" objects="59,86"/>
<relation type="incident" objects="86,60"/>
<relation type="incident" objects="60,6"/>
<relation type="incident" objects="60,5"/>
<relation type="incident" objects="51,62"/>
<relation type="incident" objects="62,87"/>
<relation type="incident" objects="87,61"/>
<relation type="incident" objects="62,88"/>
<relation type="incident" objects="88,64"/>
<relation type="incident" objects="64,89"/>
<relation type="incident" objects="89,68"/>
<relation type="incident" objects="68,109"/>
<relation type="incident" objects="109,56"/>
<relation type="incident" objects="64,63"/>
<relation type="incident" objects="63,65"/>
<relation type="incident" objects="65,66"/>
<relation type="incident" objects="66,48"/>
<relation type="incident" objects="45,46"/>
<relation type="incident" objects="46,67"/>
<relation type="incident" objects="46,47"/>
<relation type="incident" objects="67,68"/>
<relation type="incident" objects="67,109"/>
<relation type="incident" objects="67,107"/>
<relation type="incident" objects="107,73"/>
<relation type="incident" objects="73,81"/>
<relation type="incident" objects="81,80"/>
<relation type="incident" objects="107,74"/>
<relation type="incident" objects="73,74"/>
<relation type="incident" objects="74,75"/>
<relation type="incident" objects="75,76"/>
<relation type="incident" objects="76,71"/>
<relation type="incident" objects="71,72"/>
<relation type="incident" objects="72,73"/>
<relation type="incident" objects="73,108"/>
<relation type="incident" objects="108,33"/>
<relation type="incident" objects="104,105"/>
<relation type="incident" objects="105,69"/>
<relation type="incident" objects="105,103"/>
<relation type="incident" objects="105,78"/>
<relation type="incident" objects="78,70"/>
<relation type="incident" objects="70,10"/>
<relation type="incident" objects="70,9"/>
<relation type="incident" objects="70,77"/>
<relation type="incident" objects="77,71"/>
<relation type="incident" objects="18,26"/>
<relation type="incident" objects="26,25"/>
<relation type="incident" objects="28,79"/>
<relation type="incident" objects="79,80"/>
<relation type="incident" objects="79,27"/>
<relation type="incident" objects="107,46"/>
<relation type="incident" objects="16,15"/>
<relation type="incident" objects="15,14"/>
<relation type="neighbour" objects="90,91"/>
<relation type="neighbour" objects="91,95"/>
<relation type="neighbour" objects="95,94"/>
<relation type="neighbour" objects="94,90"/>
<relation type="neighbour" objects="90,95"/>
<relation type="neighbour" objects="94,92"/>
<relation type="neighbour" objects="92,95"/>
<relation type="neighbour" objects="95,93"/>
<relation type="neighbour" objects="93,92"/>
<relation type="neighbour" objects="93,96"/>
<relation type="neighbour" objects="96,95"/>
<relation type="neighbour" objects="96,97"/>
<relation type="neighbour" objects="97,98"/>
<relation type="neighbour" objects="98,96"/>
<relation type="neighbour" objects="96,99"/>
<relation type="neighbour" objects="99,100"/>
<relation type="neighbour" objects="100,98"/>
<relation type="neighbour" objects="98,99"/>
<relation type="neighbour" objects="96,106"/>
<relation type="neighbour" objects="106,102"/>
<relation type="neighbour" objects="102,100"/>
<relation type="neighbour" objects="100,101"/>
<relation type="neighbour" objects="106,99"/>
<relation type="access" objects="92,49,92"/>
<relation type="access" objects="93,47,93"/>
<relation type="access" objects="91,55,91"/>
<relation type="access" objects="101,20,101"/>
<relation type="access" objects="101,24,101"/>
<relation type="access" objects="106,34,106"/>
<relation type="access" objects="102,32,102"/>
<relation type="access" objects="96,57,96"/>
<relation type="access" objects="94,87,95"/>
<relation type="access" objects="95,85,90"/>
<relation type="access" objects="95,86,91"/>
<relation type="access" objects="95,89,93"/>
<relation type="access" objects="95,88,92"/>
<relation type="access" objects="95,109,96"/>
<relation type="access" objects="97,78,96"/>
<relation type="access" objects="96,77,98"/>
<relation type="access" objects="96,76,99"/>
<relation type="access" objects="102,81,100"/>
<relation type="access" objects="101,26,100"/>
<relation type="access" objects="96,107,106"/>
<relation type="access" objects="106,108,102"/>
<relation type="surround" objects="0,53,2,54,58,85,61,1,0,90"/>
<relation type="surround" objects="3,4,55,5,60,86,59,58,3,91"/>
<relation type="surround" objects="61,87,62,52,61,94"/>
<relation type="surround" objects="62,88,64,63,65,66,49,50,51,62,92"/>
<relation type="surround" objects="64,89,68,67,46,47,48,66,65,63,64,93"/>
<relation type="surround" objects="85,59,86,60,6,56,109,68,89,64,88,62,87,61,95"/>
<relation type="surround" objects="56,7,57,104,105,78,70,77,71,76,75,74,107,67,95,56,96"/>
<relation type="surround" objects="8,9,70,78,105,103,8,97"/>
<relation type="surround" objects="10,11,12,13,14,16,71,77,70,10,98"/>
<relation type="surround" objects="75,76,71,72,73,74,75,99"/>
<relation type="surround" objects="71,17,19,18,26,25,27,79,80,81,73,72,71,100"/>
<relation type="surround" objects="20,21,22,23,24,25,26,18,20,101"/>
<relation type="surround" objects="73,81,80,79,28,29,30,31,32,33,108,73,102"/>
<relation type="surround" objects="46,107,73,108,33,34,35,36,37,38,39,40,41,42,43,44,45,46,106"/>
</svg>