<?xml version="1.0" encoding="UTF-8"?><!DOCTYPE svg PUBLIC "-//W3C//DTD SVG 1.1//EN" "http://www.w3.org/Graphics/SVG/1.1/DTD/svg11.dtd">
<svg xmlns="http://www.w3.org/2000/svg" version="1.1">
<width>3508</width>
<height>2480</height>
<nclasslabel>50</nclasslabel>
<nclassappear>6</nclassappear>
<class>Bidet-1</class>
<class>Bidet-2</class>
<class>Bidet-3</class>
<class>Bidet-4</class>
<class>Door</class>
<class>Door-1</class>
<class>Door-23</class>
<class>Oven-1</class>
<class>Oven-2</class>
<class>Oven-3</class>
<class>Oven-4</class>
<class>Parking</class>
<class>Roof</class>
<class>Room</class>
<class>Separation</class>
<class>Sink-1</class>
<class>Sink-11</class>
<class>Sink-12</class>
<class>Sink-13</class>
<class>Sink-14</class>
<class>Sink-2</class>
<class>Sink-3</class>
<class>Sink-4</class>
<class>Sink-5</class>
<class>Sink-6</class>
<class>Sofa-1</class>
<class>Sofa-3</class>
<class>Sofa-4</class>
<class>Sofa-5</class>
<class>Sofa-6</class>
<class>Sofa-7</class>
<class>Sofa-8</class>
<class>Sofa-9</class>
<class>Stairs-1</class>
<class>Table-1</class>
<class>Table-2</class>
<class>Table-3</class>
<class>Table-4</class>
<class>Table-5</class>
<class>Table-6</class>
<class>Table-7</class>
<class>Text</class>
<class>Tub-1</class>
<class>Tub-3</class>
<class>TV-1</class>
<class>TV-2</class>
<class>Wall</class>
<class>Wall-1</class>
<class>Wallieee</class>
<class>Window</class>
<polygon class="Wall" fill="#AFD8F8" id="0" transcription="" points="1169,327 1169,352 1227,351 1227,327 " />
<polygon class="Wall" fill="#AFD8F8" id="1" transcription="" points="1147,327 1169,327 1169,999 1146,999 " />
<polygon class="Wall" fill="#AFD8F8" id="2" transcription="" points="1133,521 1133,563 1146,563 1146,521 " />
<polygon class="Wall" fill="#AFD8F8" id="3" transcription="" points="1051,522 1050,564 697,563 697,522 " />
<polygon class="Wall" fill="#AFD8F8" id="4" transcription="" points="1028,562.5 1033,563.5 1033,828.5 1028,829.5 " />
<polygon class="Wall" fill="#AFD8F8" id="5" transcription="" points="655,835 697,835 697,522 655,522 " />
<polygon class="Wall" fill="#AFD8F8" id="6" transcription="" points="697,941 656,941 655,1037 697,1037 " />
<polygon class="Wall" fill="#AFD8F8" id="7" transcription="" points="656,1142 697,1142 697,1668 656,1669 " />
<polygon class="Wall" fill="#AFD8F8" id="8" transcription="" points="697,1231 697,1237 1028,1236 1028,1231 " />
<polygon class="Wall" fill="#AFD8F8" id="9" transcription="" points="1029,1136 1034,1136 1033,1236 1028,1235 " />
<polygon class="Wall" fill="#AFD8F8" id="10" transcription="" points="697,1018 697,1025 1028,1024 1028,1018 " />
<polygon class="Wall" fill="#AFD8F8" id="11" transcription="" points="1028,941 1033,941 1033,1024 1028,1023 " />
<polygon class="Wall" fill="#AFD8F8" id="12" transcription="" points="1146.5,1024.5 1145.5,998.5 1771.5,1000.5 1771.5,1023.5 " />
<polygon class="Wall" fill="#AFD8F8" id="13" transcription="" points="1795,929 1771,929 1772,1024 1795,1024 " />
<polygon class="Wall" fill="#AFD8F8" id="14" transcription="" points="1796,817 1772,817 1771,352 1795,352 " />
<polygon class="Wall" fill="#AFD8F8" id="15" transcription="" points="1713,352 1713,327 1796,328 1795,352 " />
<polygon class="Wall" fill="#AFD8F8" id="16" transcription="" points="1808,521 1807,563 1795,563 1795,521 " />
<polygon class="Wall" fill="#AFD8F8" id="17" transcription="" points="2328,1614 2328,1656 2511,1657 2510,1614 " />
<polygon class="Wall" fill="#AFD8F8" id="18" transcription="" points="2220,1614 2220,1657 2186,1657 2186,1614 " />
<polygon class="Wall" fill="#AFD8F8" id="19" transcription="" points="2183.5,2023 2227.5,2023 2226.5,1657 2184.5,1657 " />
<polygon class="Wall" fill="#AFD8F8" id="20" transcription="" points="1597,1657 1643,1657 1643,1614 1597,1614 " />
<polygon class="Wall" fill="#AFD8F8" id="21" transcription="" points="1600,2022 1642,2022 1643,1656 1599,1656 " />
<polygon class="Wall" fill="#AFD8F8" id="22" transcription="" points="1522,1131 1524,1413 1530,1413 1531,1132 " />
<polygon class="Wall" fill="#AFD8F8" id="23" transcription="" points="2511,1485 2551,1486 2552,1656 2510,1657 " />
<polygon class="Wall" fill="#AFD8F8" id="24" transcription="" points="2551.5,1377.5 2509.5,1378.5 2508.5,1248.5 2550.5,1248.5 " />
<polygon class="Wall" fill="#AFD8F8" id="25" transcription="" points="2551,1208 2551,1250 2392,1248 2393,1206 " />
<polygon class="Wall" fill="#AFD8F8" id="26" transcription="" points="2393,1143 2433,1143 2433,1205 2393,1205 " />
<polygon class="Wall" fill="#AFD8F8" id="27" transcription="" points="2391,1036 2433,1036 2434,971 2392,971 " />
<polygon class="Wall" fill="#AFD8F8" id="28" transcription="" points="2393,929 2392,971 2509,971 2510,929 " />
<polygon class="Wall" fill="#AFD8F8" id="29" transcription="" points="2510,800 2552,800 2551,971 2510,971 " />
<polygon class="Wall" fill="#AFD8F8" id="30" transcription="" points="2551,693 2510,692 2510,564 2551,564 " />
<polygon class="Wall" fill="#AFD8F8" id="31" transcription="" points="2068,523 2068,563 2551,564 2551,522 " />
<polygon class="Wall" fill="#AFD8F8" id="32" transcription="" points="2173,562 2180,562 2179,810 2173,810 " />
<polygon class="Wall" fill="#AFD8F8" id="33" transcription="" points="2097,812 2097,818 2180,817 2179,811 " />
<polygon class="Wall" fill="#AFD8F8" id="34" transcription="" points="2097,930 2096,1005 2102,1005 2103,930 " />
<polygon class="Wall" fill="#AFD8F8" id="35" transcription="" points="2096,1006 2096,1012 2391,1012 2391,1006 " />
<polygon class="Wall" fill="#AFD8F8" id="36" transcription="" points="1985,1242 1985,1248 2392,1248 2392,1242 " />
<polygon class="Wall" fill="#AFD8F8" id="37" transcription="" points="1890,563 1890,522 1985,522 1984,563 " />
<polygon class="Wall" fill="#AFD8F8" id="38" transcription="" points="1978,817 1984,817 1984,563 1978,564 " />
<polygon class="Wall" fill="#AFD8F8" id="39" transcription="" points="1796,1019 1795,1025 1978,1025 1978,1018 " />
<polygon class="Wall" fill="#AFD8F8" id="40" transcription="" points="1978,929 1977,1024 1984,1025 1984,928 " />
<polygon class="Wall" fill="#AFD8F8" id="41" transcription="" points="1147,1137 1147,1613 1153,1614 1153,1137 " />
<polygon class="Wall" fill="#AFD8F8" id="42" transcription="" points="1264,1135 1265,1143 1526,1142 1525,1136 " />
<polygon class="Wall" fill="#AFD8F8" id="43" transcription="" points="1600,1422 1601,1612 1607,1612 1606,1422 " />
<polygon class="Wall" fill="#AFD8F8" id="44" transcription="" points="1524,1414 1524,1421 1607,1422 1607,1415 " />
<polygon class="Wall" fill="#AFD8F8" id="45" transcription="" points="1977,1166 1978,1248 1985,1248 1984,1166 " />
<polygon class="Parking" fill="#F6BD0F" id="46" transcription="" points="1231,307 1232,362 1713,363 1713,310 " />
<polygon class="Window" fill="#8BBA00" id="47" transcription="" points="1065,602 1132,562 1132,515 1056,515 1051,565 1056,581 " />
<polygon class="Window" fill="#8BBA00" id="48" transcription="" points="745,852 698,939 649,942 648,839 699,838 721,841 " />
<polygon class="Window" fill="#8BBA00" id="49" transcription="" points="744,1123 697,1039 652,1042 651,1140 700,1140 723,1136 " />
<polygon class="Window" fill="#8BBA00" id="50" transcription="" points="697,1660 1149,1657 1149,1611 697,1612 " />
<polygon class="Window" fill="#8BBA00" id="51" transcription="" points="1595,1613 1595,1657 1150,1657 1150,1610 " />
<polygon class="Window" fill="#8BBA00" id="52" transcription="" points="1641,1966 1640,2013 2182,2016 2182,1967 " />
<polygon class="Door" fill="#FF8E46" id="53" transcription="" points="2226,1519 2225,1656 2324,1655 2327,1611 2312,1555 2276,1525 " />
<polygon class="Window" fill="#8BBA00" id="54" transcription="" points="2461,1468 2510,1381 2557,1379 2557,1483 2508,1483 2479,1478 " />
<polygon class="Door" fill="#FF8E46" id="55" transcription="" points="2294,1041 2436,1040 2435,1142 2388,1141 2333,1128 2299,1088 " />
<polygon class="Window" fill="#8BBA00" id="56" transcription="" points="2461,782 2512,693 2557,693 2557,797 2507,797 2482,794 " />
<polygon class="Window" fill="#8BBA00" id="57" transcription="" points="2051,599 1987,560 1988,518 2064,518 2065,563 2059,584 " />
<polygon class="Window" fill="#8BBA00" id="58" transcription="" points="1874,599 1808,563 1810,517 1888,517 1888,563 1885,585 " />
<polygon class="Door" fill="#FF8E46" id="59" transcription="" points="1671,924 1792,924 1797,815 1772,818 1718,836 1679,873 " />
<polygon class="Door" fill="#FF8E46" id="60" transcription="" points="1878,923 1982,922 1982,819 1920,835 1887,877 " />
<polygon class="Door" fill="#FF8E46" id="61" transcription="" points="1987,708 1985,815 2093,815 2086,759 2041,719 " />
<polygon class="Door" fill="#FF8E46" id="62" transcription="" points="2202,925 2099,923 2097,819 2158,832 2199,880 " />
<polygon class="Door" fill="#FF8E46" id="63" transcription="" points="1140,1244 1142,1134 1033,1133 1043,1185 1074,1227 " />
<polygon class="Door" fill="#FF8E46" id="64" transcription="" points="1155,1246 1154,1137 1265,1137 1252,1194 1209,1234 " />
<polygon class="Door" fill="#FF8E46" id="65" transcription="" points="924.5,1028.5 1029.5,1023.5 1031.5,1135.5 959.5,1110.5 925.5,1067.5 " />
<polygon class="Door" fill="#FF8E46" id="66" transcription="" points="924,936 1029,938 1030,832 982,842 941,879 " />
<polygon class="Door" fill="#FF8E46" id="67" transcription="" points="1079,916 1137,930 1141,827 1038,825 1043,870 " />
<polygon class="Door" fill="#FF8E46" id="68" transcription="" points="1419,1029 1529,1029 1526,1133 1458,1113 1429,1079 " />
<polygon class="Room" fill="#008E8E" id="69" transcription="" points="1174,358 1170,993 1766,993 1765,355 " />
<polygon class="Room" fill="#008E8E" id="70" transcription="" points="1143,566 1140,822 1037,822 1037,567 " />
<polygon class="Room" fill="#008E8E" id="71" transcription="" points="699,565.5 699,1010.5 1022,1010.5 1021,566.5 " />
<polygon class="Room" fill="#008E8E" id="72" transcription="" points="700.5,1229 1022.5,1226 1023.5,1027 701.5,1029 " />
<polygon class="Room" fill="#008E8E" id="73" transcription="" points="702,1241 701,1607 1143,1605 1140,1142 1037,1142 1037,1240 " />
<polygon class="Room" fill="#008E8E" id="74" transcription="" points="1036.5,1127.5 1524.5,1132.5 1521.5,1030.5 1143.5,1026.5 1139.5,827.5 1033.5,830.5 " />
<polygon class="Room" fill="#008E8E" id="75" transcription="" points="1155.5,1605 1594.5,1607 1593.5,1428 1517.5,1424 1521.5,1146 1158.5,1149 " />
<polygon class="Room" fill="#008E8E" id="76" transcription="" points="1798.5,564.5 1796.5,1011.5 1974.5,1013.5 1973.5,565.5 " />
<polygon class="Room" fill="#008E8E" id="77" transcription="" points="2170,567 2170,806 1988,805 1990,568 " />
<polygon class="Room" fill="#008E8E" id="78" transcription="" points="2505,570 2506,923 2388,924 2388,1001 2105,1001 2102,822 2185,816 2184,569 " />
<polygon class="Room" fill="#008E8E" id="79" transcription="" points="1986,821 1985,1237 2386,1237 2387,1014 2095,1011 2093,822 " />
<polygon class="Room" fill="#008E8E" id="80" transcription="" points="2195,1247 2502,1253 2504,1609 2195,1615 " />
<polygon class="Room" fill="#008E8E" id="81" transcription="" points="1534,1030 1533,1408 1609,1411 1611,1608 1646,1609 1645,1959 2177,1960 2179,1251 1976,1251 1977,1030 " />
<polygon class="Separation" fill="#D64646" id="82" transcription="" points="2178,1249 2193,1249 2193,1606 2178,1606 " />
<polygon class="Separation" fill="#D64646" id="83" transcription="" points="1972,1028 1983,1028 1983,1156 1972,1156 " />
<relation type="incident" objects="5,3"/>
<relation type="incident" objects="3,47"/>
<relation type="incident" objects="47,2"/>
<relation type="incident" objects="2,1"/>
<relation type="incident" objects="1,0"/>
<relation type="incident" objects="0,46"/>
<relation type="incident" objects="46,15"/>
<relation type="incident" objects="15,14"/>
<relation type="incident" objects="14,16"/>
<relation type="incident" objects="16,58"/>
<relation type="incident" objects="58,37"/>
<relation type="incident" objects="37,57"/>
<relation type="incident" objects="57,31"/>
<relation type="incident" objects="31,30"/>
<relation type="incident" objects="30,56"/>
<relation type="incident" objects="56,29"/>
<relation type="incident" objects="29,28"/>
<relation type="incident" objects="28,27"/>
<relation type="incident" objects="27,55"/>
<relation type="incident" objects="55,26"/>
<relation type="incident" objects="26,25"/>
<relation type="incident" objects="25,24"/>
<relation type="incident" objects="24,54"/>
<relation type="incident" objects="54,23"/>
<relation type="incident" objects="23,17"/>
<relation type="incident" objects="17,53"/>
<relation type="incident" objects="53,18"/>
<relation type="incident" objects="18,19"/>
<relation type="incident" objects="19,52"/>
<relation type="incident" objects="52,21"/>
<relation type="incident" objects="21,20"/>
<relation type="incident" objects="20,51"/>
<relation type="incident" objects="51,50"/>
<relation type="incident" objects="50,7"/>
<relation type="incident" objects="7,49"/>
<relation type="incident" objects="49,6"/>
<relation type="incident" objects="6,48"/>
<relation type="incident" objects="48,5"/>
<relation type="incident" objects="3,4"/>
<relation type="incident" objects="4,66"/>
<relation type="incident" objects="66,11"/>
<relation type="incident" objects="11,10"/>
<relation type="incident" objects="10,6"/>
<relation type="incident" objects="10,65"/>
<relation type="incident" objects="11,65"/>
<relation type="incident" objects="65,9"/>
<relation type="incident" objects="9,8"/>
<relation type="incident" objects="8,7"/>
<relation type="incident" objects="9,63"/>
<relation type="incident" objects="63,41"/>
<relation type="incident" objects="41,64"/>
<relation type="incident" objects="41,50"/>
<relation type="incident" objects="41,51"/>
<relation type="incident" objects="64,42"/>
<relation type="incident" objects="42,68"/>
<relation type="incident" objects="68,12"/>
<relation type="incident" objects="12,1"/>
<relation type="incident" objects="1,67"/>
<relation type="incident" objects="67,4"/>
<relation type="incident" objects="12,13"/>
<relation type="incident" objects="13,59"/>
<relation type="incident" objects="59,14"/>
<relation type="incident" objects="13,39"/>
<relation type="incident" objects="39,40"/>
<relation type="incident" objects="40,60"/>
<relation type="incident" objects="60,38"/>
<relation type="incident" objects="38,37"/>
<relation type="incident" objects="38,61"/>
<relation type="incident" objects="61,33"/>
<relation type="incident" objects="33,32"/>
<relation type="incident" objects="32,31"/>
<relation type="incident" objects="33,62"/>
<relation type="incident" objects="62,34"/>
<relation type="incident" objects="34,35"/>
<relation type="incident" objects="25,36"/>
<relation type="incident" objects="36,45"/>
<relation type="incident" objects="20,43"/>
<relation type="incident" objects="43,44"/>
<relation type="incident" objects="44,22"/>
<relation type="access" objects="71,66,74"/>
<relation type="access" objects="74,67,70"/>
<relation type="access" objects="74,65,72"/>
<relation type="access" objects="74,63,73"/>
<relation type="access" objects="74,64,75"/>
<relation type="access" objects="81,68,74"/>
<relation type="access" objects="79,62,78"/>
<relation type="access" objects="79,61,77"/>
<relation type="access" objects="79,60,76"/>
<relation type="access" objects="76,59,69"/>
<relation type="neighbour" objects="71,70"/>
<relation type="neighbour" objects="71,74"/>
<relation type="neighbour" objects="71,72"/>
<relation type="neighbour" objects="72,74"/>
<relation type="neighbour" objects="72,73"/>
<relation type="neighbour" objects="70,69"/>
<relation type="neighbour" objects="70,74"/>
<relation type="neighbour" objects="74,73"/>
<relation type="neighbour" objects="74,75"/>
<relation type="neighbour" objects="74,69"/>
<relation type="neighbour" objects="74,81"/>
<relation type="neighbour" objects="69,81"/>
<relation type="neighbour" objects="69,76"/>
<relation type="neighbour" objects="73,75"/>
<relation type="neighbour" objects="75,81"/>
<relation type="neighbour" objects="76,77"/>
<relation type="neighbour" objects="76,79"/>
<relation type="neighbour" objects="76,81"/>
<relation type="neighbour" objects="77,78"/>
<relation type="neighbour" objects="77,79"/>
<relation type="neighbour" objects="79,81"/>
<relation type="neighbour" objects="79,78"/>
<relation type="neighbour" objects="79,80"/>
<relation type="neighbour" objects="80,81"/>
<relation type="access" objects="79,55,79"/>
<relation type="access" objects="80,53,80"/>
<relation type="access" objects="81,82,80"/>
<relation type="access" objects="79,83,81"/>
<relation type="outerP" objects="3,47,2,1,0,46,15,14,16,58,37,57,31,30,56,29,28,27,55,26,25,24,54,23,17,53,18,19,52,21,20,51,50,7,49,6,48,5"/>
<relation type="surround" objects="3,4,66,11,10,6,48,5,3,71"/>
<relation type="surround" objects="3,47,2,1,67,4,3,70"/>
<relation type="surround" objects="0,46,15,14,59,13,12,1,0,69"/>
<relation type="surround" objects="10,65,9,8,7,49,10,72"/>
<relation type="surround" objects="67,1,12,68,42,64,41,63,9,65,10,11,66,4,67,74"/>
<relation type="surround" objects="8,9,63,41,50,7,8,73"/>
<relation type="surround" objects="64,42,22,44,43,51,41,64,75"/>
<relation type="surround" objects="16,58,37,38,60,40,39,13,59,14,16,76"/>
<relation type="surround" objects="57,31,32,33,61,38,57,77"/>
<relation type="surround" objects="31,30,56,29,28,27,35,34,62,33,32,31,78"/>
<relation type="surround" objects="61,33,62,34,35,27,55,26,25,36,45,83,40,60,38,61,79"/>
<relation type="surround" objects="36,25,24,54,23,17,53,82,36,80"/>
<relation type="surround" objects="12,39,83,45,36,82,19,52,21,43,44,22,68,12,81"/>
</svg>