<?xml version="1.0" encoding="UTF-8"?><!DOCTYPE svg PUBLIC "-//W3C//DTD SVG 1.1//EN" "http://www.w3.org/Graphics/SVG/1.1/DTD/svg11.dtd">
<svg xmlns="http://www.w3.org/2000/svg" version="1.1">
<width>3508</width>
<height>2480</height>
<nclasslabel>50</nclasslabel>
<nclassappear>5</nclassappear>
<class>Bidet-1</class>
<class>Bidet-2</class>
<class>Bidet-3</class>
<class>Bidet-4</class>
<class>Door</class>
<class>Door-1</class>
<class>Door-23</class>
<class>Oven-1</class>
<class>Oven-2</class>
<class>Oven-3</class>
<class>Oven-4</class>
<class>Parking</class>
<class>Roof</class>
<class>Room</class>
<class>Separation</class>
<class>Sink-1</class>
<class>Sink-11</class>
<class>Sink-12</class>
<class>Sink-13</class>
<class>Sink-14</class>
<class>Sink-2</class>
<class>Sink-3</class>
<class>Sink-4</class>
<class>Sink-5</class>
<class>Sink-6</class>
<class>Sofa-1</class>
<class>Sofa-3</class>
<class>Sofa-4</class>
<class>Sofa-5</class>
<class>Sofa-6</class>
<class>Sofa-7</class>
<class>Sofa-8</class>
<class>Sofa-9</class>
<class>Stairs-1</class>
<class>Table-1</class>
<class>Table-2</class>
<class>Table-3</class>
<class>Table-4</class>
<class>Table-5</class>
<class>Table-6</class>
<class>Table-7</class>
<class>Text</class>
<class>Tub-1</class>
<class>Tub-3</class>
<class>TV-1</class>
<class>TV-2</class>
<class>Wall</class>
<class>Wall-1</class>
<class>Wallieee</class>
<class>Window</class>
<polygon class="Wall" fill="#AFD8F8" id="0" transcription="" points="1012,545 1444,545 1445,584 1011,584 " />
<polygon class="Wall" fill="#AFD8F8" id="1" transcription="" points="1537,545 1539,586 1823,584 1826,544 " />
<polygon class="Wall" fill="#AFD8F8" id="2" transcription="" points="1783,761 1831,761 1828,541 1780,541 " />
<polygon class="Wall" fill="#AFD8F8" id="3" transcription="" points="1876,761 1783,761 1781,717 1875,719 " />
<polygon class="Wall" fill="#AFD8F8" id="4" transcription="" points="1973,722 1976,761 2050,764 2048,724 " />
<polygon class="Wall" fill="#AFD8F8" id="5" transcription="" points="2003,542 2045,542 2048,766 2004,766 " />
<polygon class="Wall" fill="#AFD8F8" id="6" transcription="" points="2130,544 2589,547 2590,588 2128,586 " />
<polygon class="Wall" fill="#AFD8F8" id="7" transcription="" points="2545,692 2592,691 2590,544 2542,545 " />
<polygon class="Wall" fill="#AFD8F8" id="8" transcription="" points="2545,764 2547,989 2592,988 2587,764 " />
<polygon class="Wall" fill="#AFD8F8" id="9" transcription="" points="2545,1058 2590,1056 2590,1264 2545,1264 " />
<polygon class="Wall" fill="#AFD8F8" id="10" transcription="" points="2545,1361 2590,1361 2587,1505 2550,1508 " />
<polygon class="Wall" fill="#AFD8F8" id="11" transcription="" points="2353,1797 2356,1513 2371,1511 2367,1465 2309,1463 2308,1798 " />
<polygon class="Wall" fill="#AFD8F8" id="12" transcription="" points="1989,1756 2017,1756 2017,1797 1989,1798 " />
<polygon class="Wall" fill="#AFD8F8" id="13" transcription="" points="1653,1797 1700,1797 1698,1466 1650,1466 " />
<polygon class="Wall" fill="#AFD8F8" id="14" transcription="" points="1366,1508 1697,1509 1698,1464 1367,1464 " />
<polygon class="Wall" fill="#AFD8F8" id="15" transcription="" points="1187,1464 1187,1511 1010,1508 1009,1462 " />
<polygon class="Wall" fill="#AFD8F8" id="16" transcription="" points="1012,823 1007,1511 1054,1511 1057,823 " />
<polygon class="Wall" fill="#AFD8F8" id="17" transcription="" points="1009,725 1057,727 1054,542 1010,541 " />
<polygon class="Wall" fill="#AFD8F8" id="18" transcription="" points="1383,903 1394,902 1392,587 1382,587 " />
<polygon class="Wall" fill="#AFD8F8" id="19" transcription="" points="1390,1004 1391,1016 1058,1013 1056,1003 " />
<polygon class="Wall" fill="#AFD8F8" id="20" transcription="" points="1384,1112 1394,1111 1395,1010 1385,1010 " />
<polygon class="Wall" fill="#AFD8F8" id="21" transcription="" points="1783,995 1794,995 1793,764 1782,765 " />
<polygon class="Wall" fill="#AFD8F8" id="22" transcription="" points="1502,992 1502,1001 1863,1001 1862,993 " />
<polygon class="Wall" fill="#AFD8F8" id="23" transcription="" points="1501,887 1510,888 1511,1003 1501,1004 " />
<polygon class="Wall" fill="#AFD8F8" id="24" transcription="" points="1502,1107 1513,1106 1513,1461 1500,1461 " />
<polygon class="Wall" fill="#AFD8F8" id="25" transcription="" points="1588,1113 1589,1104 1500,1104 1500,1112 " />
<polygon class="Wall" fill="#AFD8F8" id="26" transcription="" points="1687,1107 1699,1106 1702,1463 1691,1462 " />
<polygon class="Wall" fill="#AFD8F8" id="27" transcription="" points="1864,1113 1864,1103 1689,1105 1690,1115 " />
<polygon class="Wall" fill="#AFD8F8" id="28" transcription="" points="2156,796 2167,797 2167,587 2155,586 " />
<polygon class="Wall" fill="#AFD8F8" id="29" transcription="" points="2267,895 2267,908 2545,908 2544,895 " />
<polygon class="Wall" fill="#AFD8F8" id="30" transcription="" points="2046,1114 2045,1101 2546,1103 2545,1113 " />
<polygon class="Wall" fill="#AFD8F8" id="31" transcription="" points="2044,899 2055,899 2055,1113 2041,1113 " />
<polygon class="Wall" fill="#AFD8F8" id="32" transcription="" points="2174,908 2172,897 2040,897 2040,908 " />
<polygon class="Window" fill="#F6BD0F" id="33" transcription="" points="1003,723 1003,823 1059,823 1080,819 1103,811 1059,728 " />
<polygon class="Window" fill="#F6BD0F" id="34" transcription="" points="1440,534 1539,533 1542,587 1537,612 1526,633 1444,587 " />
<polygon class="Door" fill="#8BBA00" id="35" transcription="" points="1869,862 1867,716 1976,716 1976,766 1959,820 1922,850 " />
<polygon class="Window" fill="#F6BD0F" id="36" transcription="" points="2064,625 2133,584 2131,534 2045,536 2051,583 2056,603 " />
<polygon class="Door" fill="#8BBA00" id="37" transcription="" points="2154,867 2154,758 2048,755 2054,808 2101,859 " />
<polygon class="Door" fill="#8BBA00" id="38" transcription="" points="2273,897 2167,895 2164,789 2211,797 2251,833 " />
<polygon class="Door" fill="#8BBA00" id="39" transcription="" points="2167,1008 2164,900 2273,903 2259,966 2218,995 " />
<polygon class="Window" fill="#F6BD0F" id="40" transcription="" points="2507,756 2542,691 2600,689 2600,762 2546,762 2525,762 " />
<polygon class="Window" fill="#F6BD0F" id="41" transcription="" points="2507,1051 2543,987 2596,986 2596,1059 2548,1061 2523,1056 " />
<polygon class="Window" fill="#F6BD0F" id="42" transcription="" points="2495,1347 2548,1262 2595,1261 2596,1361 2542,1362 2515,1356 " />
<polygon class="Window" fill="#F6BD0F" id="43" transcription="" points="2304,1808 2020,1807 2015,1751 2307,1751 " />
<polygon class="Window" fill="#F6BD0F" id="44" transcription="" points="1704,1804 1698,1749 1990,1749 1989,1805 " />
<polygon class="Wall" fill="#AFD8F8" id="45" transcription="" points="2465,1466 2465,1505 2589,1505 2589,1463 " />
<polygon class="Door" fill="#8BBA00" id="46" transcription="" points="2467,1368 2470,1507 2368,1508 2365,1460 2376,1410 2414,1377 " />
<polygon class="Window" fill="#F6BD0F" id="47" transcription="" points="1266,1416 1185,1463 1182,1516 1368,1519 1369,1462 1288,1412 1279,1430 " />
<polygon class="Door" fill="#8BBA00" id="48" transcription="" points="1502,1227 1502,1099 1389,1102 1394,1147 1435,1200 " />
<polygon class="Door" fill="#8BBA00" id="49" transcription="" points="1691,1221 1697,1096 1585,1097 1585,1157 1619,1196 " />
<polygon class="Door" fill="#8BBA00" id="50" transcription="" points="1394,783 1393,904 1503,905 1489,833 1444,790 " />
<polygon class="Door" fill="#8BBA00" id="51" transcription="" points="1282,1005 1399,1004 1385,893 1325,910 1291,941 " />
<polygon class="Room" fill="#FF8E46" id="52" transcription="" points="1707,1124 1707,1734 2296,1734 2294,1446 2537,1444 2533,1121 " />
<polygon class="Room" fill="#FF8E46" id="53" transcription="" points="1523,1117 1521,1454 1681,1456 1677,1117 " />
<polygon class="Room" fill="#FF8E46" id="54" transcription="" points="1064,1021 1062,1454 1491,1456 1489,1115 1378,1115 1378,1023 " />
<polygon class="Room" fill="#FF8E46" id="55" transcription="" points="1064,590 1376,592 1374,993 1062,995 " />
<polygon class="Room" fill="#FF8E46" id="56" transcription="" points="1402,592 1773,594 1775,985 1515,987 1517,880 1402,880 " />
<polygon class="Room" fill="#FF8E46" id="57" transcription="" points="1397,914 1393,1094 1863,1096 1858,1000 1496,1006 1491,914 " />
<polygon class="Room" fill="#FF8E46" id="58" transcription="" points="1797,765 1799,985 1871,987 1873,1115 2036,1115 2038,893 2159,889 2153,761 " />
<polygon class="Room" fill="#FF8E46" id="59" transcription="" points="2151,592 2151,750 2055,746 2050,594 " />
<polygon class="Room" fill="#FF8E46" id="60" transcription="" points="2172,592 2535,594 2539,884 2174,887 " />
<polygon class="Room" fill="#FF8E46" id="61" transcription="" points="2059,914 2541,914 2539,1094 2061,1094 " />
<polygon class="Separation" fill="#008E8E" id="62" transcription="" points="1854,996 1871,996 1871,1105 1854,1105 " />
<polygon class="Separation" fill="#008E8E" id="63" transcription="" points="1862,1102 2045,1102 2045,1122 1862,1122 " />
<relation type="incident" objects="17,0"/>
<relation type="incident" objects="0,34"/>
<relation type="incident" objects="34,1"/>
<relation type="incident" objects="1,2"/>
<relation type="incident" objects="2,3"/>
<relation type="incident" objects="3,35"/>
<relation type="incident" objects="35,4"/>
<relation type="incident" objects="4,5"/>
<relation type="incident" objects="5,36"/>
<relation type="incident" objects="36,6"/>
<relation type="incident" objects="6,7"/>
<relation type="incident" objects="7,40"/>
<relation type="incident" objects="40,8"/>
<relation type="incident" objects="8,41"/>
<relation type="incident" objects="41,9"/>
<relation type="incident" objects="9,42"/>
<relation type="incident" objects="42,10"/>
<relation type="incident" objects="10,45"/>
<relation type="incident" objects="45,46"/>
<relation type="incident" objects="46,11"/>
<relation type="incident" objects="11,43"/>
<relation type="incident" objects="12,43"/>
<relation type="incident" objects="12,44"/>
<relation type="incident" objects="44,13"/>
<relation type="incident" objects="13,14"/>
<relation type="incident" objects="14,47"/>
<relation type="incident" objects="47,15"/>
<relation type="incident" objects="15,16"/>
<relation type="incident" objects="16,33"/>
<relation type="incident" objects="33,17"/>
<relation type="incident" objects="0,18"/>
<relation type="incident" objects="18,51"/>
<relation type="incident" objects="51,19"/>
<relation type="incident" objects="19,16"/>
<relation type="incident" objects="18,50"/>
<relation type="incident" objects="50,23"/>
<relation type="incident" objects="23,22"/>
<relation type="incident" objects="22,21"/>
<relation type="incident" objects="21,3"/>
<relation type="incident" objects="2,21"/>
<relation type="incident" objects="22,62"/>
<relation type="incident" objects="62,27"/>
<relation type="incident" objects="27,49"/>
<relation type="incident" objects="49,25"/>
<relation type="incident" objects="25,48"/>
<relation type="incident" objects="48,20"/>
<relation type="incident" objects="20,51"/>
<relation type="incident" objects="48,24"/>
<relation type="incident" objects="24,14"/>
<relation type="incident" objects="24,25"/>
<relation type="incident" objects="49,26"/>
<relation type="incident" objects="26,14"/>
<relation type="incident" objects="26,13"/>
<relation type="incident" objects="27,63"/>
<relation type="incident" objects="63,30"/>
<relation type="incident" objects="30,9"/>
<relation type="incident" objects="30,31"/>
<relation type="incident" objects="31,32"/>
<relation type="incident" objects="32,39"/>
<relation type="incident" objects="39,29"/>
<relation type="incident" objects="29,8"/>
<relation type="incident" objects="28,6"/>
<relation type="incident" objects="28,37"/>
<relation type="incident" objects="37,5"/>
<relation type="incident" objects="37,4"/>
<relation type="incident" objects="28,38"/>
<relation type="incident" objects="38,32"/>
<relation type="neighbour" objects="55,56"/>
<relation type="neighbour" objects="56,57"/>
<relation type="neighbour" objects="57,54"/>
<relation type="neighbour" objects="54,55"/>
<relation type="neighbour" objects="55,57"/>
<relation type="neighbour" objects="57,53"/>
<relation type="neighbour" objects="53,54"/>
<relation type="neighbour" objects="53,52"/>
<relation type="neighbour" objects="52,58"/>
<relation type="neighbour" objects="58,57"/>
<relation type="neighbour" objects="58,56"/>
<relation type="neighbour" objects="58,61"/>
<relation type="neighbour" objects="61,60"/>
<relation type="neighbour" objects="60,59"/>
<relation type="neighbour" objects="59,58"/>
<relation type="neighbour" objects="61,52"/>
<relation type="neighbour" objects="60,58"/>
<relation type="access" objects="57,48,54"/>
<relation type="access" objects="57,49,53"/>
<relation type="access" objects="56,50,57"/>
<relation type="access" objects="57,51,55"/>
<relation type="access" objects="58,35,58"/>
<relation type="access" objects="58,38,60"/>
<relation type="access" objects="59,37,58"/>
<relation type="access" objects="60,39,61"/>
<relation type="access" objects="52,46,52"/>
<relation type="access" objects="58,62,57"/>
<relation type="access" objects="58,63,52"/>
<relation type="outerP" objects="0,34,1,2,3,35,4,5,36,6,7,40,8,41,9,42,10,45,46,11,43,12,44,13,14,47,15,16,33,17"/>
<relation type="surround" objects="0,18,51,19,16,33,17,0,55"/>
<relation type="surround" objects="0,34,1,2,21,22,23,50,18,0,56"/>
<relation type="surround" objects="3,35,4,37,28,38,32,31,63,62,22,21,3,58"/>
<relation type="surround" objects="36,6,28,37,5,36,59"/>
<relation type="surround" objects="6,7,40,8,29,38,28,6,60"/>
<relation type="surround" objects="32,39,29,8,41,9,30,31,32,61"/>
<relation type="surround" objects="27,63,30,9,42,10,45,46,11,43,12,44,13,26,27,52"/>
<relation type="surround" objects="25,49,26,14,24,25,53"/>
<relation type="surround" objects="19,20,48,24,14,47,15,16,19,54"/>
<relation type="surround" objects="18,50,23,22,62,27,49,25,48,20,51,18,57"/>
</svg>