<?xml version="1.0" encoding="UTF-8"?><!DOCTYPE svg PUBLIC "-//W3C//DTD SVG 1.1//EN" "http://www.w3.org/Graphics/SVG/1.1/DTD/svg11.dtd">
<svg xmlns="http://www.w3.org/2000/svg" version="1.1">
<width>3508</width>
<height>2479</height>
<nclasslabel>50</nclasslabel>
<nclassappear>6</nclassappear>
<class>Bidet-1</class>
<class>Bidet-2</class>
<class>Bidet-3</class>
<class>Bidet-4</class>
<class>Door</class>
<class>Door-1</class>
<class>Door-23</class>
<class>Oven-1</class>
<class>Oven-2</class>
<class>Oven-3</class>
<class>Oven-4</class>
<class>Parking</class>
<class>Roof</class>
<class>Room</class>
<class>Separation</class>
<class>Sink-1</class>
<class>Sink-11</class>
<class>Sink-12</class>
<class>Sink-13</class>
<class>Sink-14</class>
<class>Sink-2</class>
<class>Sink-3</class>
<class>Sink-4</class>
<class>Sink-5</class>
<class>Sink-6</class>
<class>Sofa-1</class>
<class>Sofa-3</class>
<class>Sofa-4</class>
<class>Sofa-5</class>
<class>Sofa-6</class>
<class>Sofa-7</class>
<class>Sofa-8</class>
<class>Sofa-9</class>
<class>Stairs-1</class>
<class>Table-1</class>
<class>Table-2</class>
<class>Table-3</class>
<class>Table-4</class>
<class>Table-5</class>
<class>Table-6</class>
<class>Table-7</class>
<class>Text</class>
<class>Tub-1</class>
<class>Tub-3</class>
<class>TV-1</class>
<class>TV-2</class>
<class>Wall</class>
<class>Wall-1</class>
<class>Wallieee</class>
<class>Window</class>
<polygon class="Wall" fill="#AFD8F8" id="0" transcription="" points="509,200 534,201 534,577 508,577 " />
<polygon class="Wall" fill="#AFD8F8" id="1" transcription="" points="988,199 1356,200 1356,225 988,225 " />
<polygon class="Wall" fill="#AFD8F8" id="2" transcription="" points="1701,645 1708,645 1708,860 1700,860 " />
<polygon class="Wall" fill="#AFD8F8" id="3" transcription="" points="2062,645 2069,645 2069,890 2060,891 " />
<polygon class="Wall" fill="#AFD8F8" id="4" transcription="" points="1340,710 1382,709 1382,762 1339,763 " />
<polygon class="Wall" fill="#AFD8F8" id="5" transcription="" points="2068,991 2537,991 2538,998 2068,998 " />
<polygon class="Wall" fill="#AFD8F8" id="6" transcription="" points="2069,1345 2538,1345 2539,1352 2069,1351 " />
<polygon class="Wall" fill="#AFD8F8" id="7" transcription="" points="508,1192 550,1192 550,1214 509,1213 " />
<polygon class="Wall" fill="#AFD8F8" id="8" transcription="" points="833,1215 905,1215 905,1258 833,1258 " />
<polygon class="Wall" fill="#AFD8F8" id="9" transcription="" points="1731,1452 2026,1452 2026,1460 1731,1459 " />
<polygon class="Wall" fill="#AFD8F8" id="10" transcription="" points="862,1433 906,1433 906,1494 862,1494 " />
<polygon class="Wall" fill="#AFD8F8" id="11" transcription="" points="2201,1460 2209,1459 2209,1786 2202,1785 " />
<polygon class="Wall" fill="#AFD8F8" id="12" transcription="" points="903,226 904,199 535,200 534,225 " />
<polygon class="Wall" fill="#AFD8F8" id="13" transcription="" points="508,909 550,909 550,601 509,601 " />
<polygon class="Wall" fill="#AFD8F8" id="14" transcription="" points="1083,859 1074,860 1073,600 1082,601 " />
<polygon class="Wall" fill="#AFD8F8" id="15" transcription="" points="1346,860 1346,869 1074,868 1072,861 " />
<polygon class="Wall" fill="#AFD8F8" id="16" transcription="" points="1358,578 1383,579 1382,549 1359,549 " />
<polygon class="Wall" fill="#AFD8F8" id="17" transcription="" points="1340,625 1382,625 1382,579 1341,579 " />
<polygon class="Wall" fill="#AFD8F8" id="18" transcription="" points="1418,718 1417,761 1382,761 1382,719 " />
<polygon class="Wall" fill="#AFD8F8" id="19" transcription="" points="1523,720 1522,761 1600,761 1601,719 " />
<polygon class="Wall" fill="#AFD8F8" id="20" transcription="" points="1600,643 1559,642 1559,718 1601,717 " />
<polygon class="Wall" fill="#AFD8F8" id="21" transcription="" points="1612,602 1613,644 1559,642 1558,602 " />
<polygon class="Wall" fill="#AFD8F8" id="22" transcription="" points="1593,867 1600,867 1600,760 1594,762 " />
<polygon class="Wall" fill="#AFD8F8" id="23" transcription="" points="1358,253 1383,253 1382,199 1357,199 " />
<polygon class="Wall" fill="#AFD8F8" id="24" transcription="" points="1836,861 1837,869 1700,868 1700,860 " />
<polygon class="Wall" fill="#AFD8F8" id="25" transcription="" points="1938,861 1938,868 2060,867 2060,861 " />
<polygon class="Wall" fill="#AFD8F8" id="26" transcription="" points="1836,601 1837,644 1695,643 1695,602 " />
<polygon class="Wall" fill="#AFD8F8" id="27" transcription="" points="1921,601 1920,644 2538,644 2538,600 " />
<polygon class="Wall" fill="#AFD8F8" id="28" transcription="" points="2539,746 2582,747 2582,601 2538,600 " />
<polygon class="Wall" fill="#AFD8F8" id="29" transcription="" points="2539,889 2582,888 2581,1101 2540,1100 " />
<polygon class="Wall" fill="#AFD8F8" id="30" transcription="" points="2539,1499 2582,1500 2582,1241 2538,1242 " />
<polygon class="Wall" fill="#AFD8F8" id="31" transcription="" points="2538,1641 2582,1642 2581,1787 2539,1786 " />
<polygon class="Wall" fill="#AFD8F8" id="32" transcription="" points="2581,1832 2581,1787 2038,1788 2037,1831 " />
<polygon class="Wall" fill="#AFD8F8" id="33" transcription="" points="2126,1451 2127,1458 2208,1458 2209,1452 " />
<polygon class="Wall" fill="#AFD8F8" id="34" transcription="" points="2062,1174 2068,1174 2069,1351 2061,1351 " />
<polygon class="Wall" fill="#AFD8F8" id="35" transcription="" points="2068,1074 2061,1075 2060,991 2068,992 " />
<polygon class="Wall" fill="#AFD8F8" id="36" transcription="" points="1954,1375 1961,1374 1962,1452 1954,1452 " />
<polygon class="Wall" fill="#AFD8F8" id="37" transcription="" points="1690,1494 1730,1494 1731,1787 1689,1787 " />
<polygon class="Wall" fill="#AFD8F8" id="38" transcription="" points="1678,1452 1678,1493 1730,1494 1730,1452 " />
<polygon class="Wall" fill="#AFD8F8" id="39" transcription="" points="1689,1830 1689,1787 1895,1787 1895,1830 " />
<polygon class="Wall" fill="#AFD8F8" id="40" transcription="" points="1594,1494 1594,1452 1476,1452 1476,1493 " />
<polygon class="Wall" fill="#AFD8F8" id="41" transcription="" points="1582,981 1589,981 1589,1451 1582,1451 " />
<polygon class="Wall" fill="#AFD8F8" id="42" transcription="" points="1954,1276 1962,1275 1961,980 1953,980 " />
<polygon class="Wall" fill="#AFD8F8" id="43" transcription="" points="1230,972 1230,980 1961,980 1961,973 " />
<polygon class="Wall" fill="#AFD8F8" id="44" transcription="" points="1229,1151 1222,1151 1221,972 1229,974 " />
<polygon class="Wall" fill="#AFD8F8" id="45" transcription="" points="1221,1451 1229,1451 1228,1250 1221,1250 " />
<polygon class="Wall" fill="#AFD8F8" id="46" transcription="" points="1334,1452 1334,1493 905,1494 904,1451 1218,1452 " />
<polygon class="Wall" fill="#AFD8F8" id="47" transcription="" points="904,1340 863,1340 862,1258 905,1258 " />
<polygon class="Wall" fill="#AFD8F8" id="48" transcription="" points="574,1215 573,1257 509,1257 509,1213 " />
<polygon class="Window" fill="#F6BD0F" id="49" transcription="" points="918,265 985,229 984,196 905,190 906,227 908,246 " />
<polygon class="Parking" fill="#8BBA00" id="50" transcription="" points="1348,257 1395,258 1393,544 1350,545 " />
<polygon class="Window" fill="#F6BD0F" id="51" transcription="" points="1306,693 1339,632 1387,629 1388,706 1343,707 1319,699 " />
<polygon class="Door" fill="#FF8E46" id="52" transcription="" points="1519,858 1521,719 1417,719 1417,765 1433,815 1470,847 " />
<polygon class="Window" fill="#F6BD0F" id="53" transcription="" points="1628,676 1689,645 1692,599 1616,600 1614,643 " />
<polygon class="Window" fill="#F6BD0F" id="54" transcription="" points="1851,678 1918,643 1919,598 1840,594 1840,645 " />
<polygon class="Window" fill="#F6BD0F" id="55" transcription="" points="2500,806 2536,749 2582,747 2583,890 2537,890 2505,824 2519,817 " />
<polygon class="Window" fill="#F6BD0F" id="56" transcription="" points="2501,1163 2538,1104 2582,1103 2585,1239 2534,1241 2501,1180 2520,1170 " />
<polygon class="Window" fill="#F6BD0F" id="57" transcription="" points="2502,1561 2535,1505 2582,1502 2585,1641 2534,1641 2504,1580 2513,1568 " />
<polygon class="Window" fill="#F6BD0F" id="58" transcription="" points="1959,1752 1894,1784 1893,1834 2039,1833 2038,1786 1974,1751 1964,1765 " />
<polygon class="Window" fill="#F6BD0F" id="59" transcription="" points="1662,1413 1596,1451 1596,1497 1673,1498 1672,1453 " />
<polygon class="Window" fill="#F6BD0F" id="60" transcription="" points="1414,1413 1479,1450 1479,1497 1336,1500 1334,1448 1393,1414 1405,1429 " />
<polygon class="Door" fill="#FF8E46" id="61" transcription="" points="998,1432 858,1433 862,1339 901,1337 945,1341 994,1390 " />
<polygon class="Wall" fill="#AFD8F8" id="62" transcription="" points="505,1468 530,1468 531,1492 507,1492 " />
<polygon class="Window" fill="#F6BD0F" id="63" transcription="" points="576,1214 572,1261 831,1260 829,1212 " />
<polygon class="Window" fill="#F6BD0F" id="64" transcription="" points="554,910 507,910 506,1189 551,1189 " />
<polygon class="Door" fill="#FF8E46" id="65" transcription="" points="1258,645 1340,593 1248,593 1248,622 " />
<polygon class="Wall" fill="#AFD8F8" id="66" transcription="" points="1242,577 1241,600 510,600 506,578 " />
<polygon class="Door" fill="#FF8E46" id="67" transcription="" points="1252,855 1349,860 1346,764 1294,774 1261,816 " />
<polygon class="Door" fill="#FF8E46" id="68" transcription="" points="1617,911 1705,865 1603,864 1606,890 " />
<polygon class="Door" fill="#FF8E46" id="69" transcription="" points="1930,774 1937,863 1838,871 1844,823 1881,780 " />
<polygon class="Door" fill="#FF8E46" id="70" transcription="" points="2160,988 2064,991 2064,895 2117,904 2149,945 " />
<polygon class="Door" fill="#FF8E46" id="71" transcription="" points="2155,1081 2061,1076 2063,1171 2120,1162 2153,1116 " />
<polygon class="Door" fill="#FF8E46" id="72" transcription="" points="2296,1354 2202,1354 2197,1450 2257,1439 2292,1393 " />
<polygon class="Door" fill="#FF8E46" id="73" transcription="" points="2121,1546 2123,1452 2024,1453 2038,1506 2081,1538 " />
<polygon class="Door" fill="#FF8E46" id="74" transcription="" points="1867,1370 1960,1373 1958,1272 1907,1290 1871,1335 " />
<polygon class="Door" fill="#FF8E46" id="75" transcription="" points="1313,1243 1221,1244 1225,1155 1266,1159 1303,1191 " />
<polygon class="Room" fill="#008E8E" id="76" transcription="" points="538,227 536,575 1252,572 1252,586 1334,587 1352,572 1352,230 " />
<polygon class="Room" fill="#008E8E" id="77" transcription="" points="557,602 554,1208 908,1214 909,1446 1218,1445 1216,873 1070,871 1069,604 " />
<polygon class="Room" fill="#008E8E" id="78" transcription="" points="1083,604 1087,854 1341,853 1339,600 1249,594 1248,609 " />
<polygon class="Room" fill="#008E8E" id="79" transcription="" points="1221.5,971 1957.5,971 1960.5,1445 2192.5,1444 2194.5,1355 2059.5,1354 2056.5,875 1591.5,869 1588.5,765 1349.5,765 1349.5,873 1222.5,873 " />
<polygon class="Room" fill="#008E8E" id="80" transcription="" points="1232.5,980.5 1229.5,1444.5 1574.5,1449.5 1575.5,979.5 " />
<polygon class="Room" fill="#008E8E" id="81" transcription="" points="1592,985 1595,1445 1954,1446 1949,989 " />
<polygon class="Room" fill="#008E8E" id="82" transcription="" points="1607,648 1605,858 1696,858 1696,649 " />
<polygon class="Room" fill="#008E8E" id="83" transcription="" points="1714,649 1710,853 2054,857 2059,649 " />
<polygon class="Room" fill="#008E8E" id="84" transcription="" points="2069,648 2065,983 2536,986 2533,648 " />
<polygon class="Room" fill="#008E8E" id="85" transcription="" points="2536,997 2534,1339 2071,1337 2070,997 " />
<polygon class="Room" fill="#008E8E" id="86" transcription="" points="1732,1460 1732,1780 2195,1783 2198,1461 " />
<polygon class="Room" fill="#008E8E" id="87" transcription="" points="2534,1358 2534,1780 2212,1781 2215,1357 " />
<polygon class="Separation" fill="#D64646" id="88" transcription="" points="1214,868 1228,868 1228,968 1214,968 " />
<relation type="incident" objects="12,0"/>
<relation type="incident" objects="0,66"/>
<relation type="incident" objects="66,65"/>
<relation type="incident" objects="65,17"/>
<relation type="incident" objects="17,16"/>
<relation type="incident" objects="16,50"/>
<relation type="incident" objects="50,23"/>
<relation type="incident" objects="23,1"/>
<relation type="incident" objects="1,49"/>
<relation type="incident" objects="49,12"/>
<relation type="incident" objects="66,13"/>
<relation type="incident" objects="13,64"/>
<relation type="incident" objects="48,7"/>
<relation type="incident" objects="7,64"/>
<relation type="incident" objects="48,63"/>
<relation type="incident" objects="63,8"/>
<relation type="incident" objects="8,47"/>
<relation type="incident" objects="47,61"/>
<relation type="incident" objects="61,10"/>
<relation type="incident" objects="10,46"/>
<relation type="incident" objects="46,60"/>
<relation type="incident" objects="60,40"/>
<relation type="incident" objects="40,59"/>
<relation type="incident" objects="59,38"/>
<relation type="incident" objects="38,37"/>
<relation type="incident" objects="37,39"/>
<relation type="incident" objects="39,58"/>
<relation type="incident" objects="32,58"/>
<relation type="incident" objects="32,31"/>
<relation type="incident" objects="31,57"/>
<relation type="incident" objects="57,30"/>
<relation type="incident" objects="30,56"/>
<relation type="incident" objects="56,29"/>
<relation type="incident" objects="29,55"/>
<relation type="incident" objects="55,28"/>
<relation type="incident" objects="28,27"/>
<relation type="incident" objects="27,54"/>
<relation type="incident" objects="54,26"/>
<relation type="incident" objects="26,53"/>
<relation type="incident" objects="53,21"/>
<relation type="incident" objects="21,20"/>
<relation type="incident" objects="20,19"/>
<relation type="incident" objects="19,52"/>
<relation type="incident" objects="52,4"/>
<relation type="incident" objects="4,51"/>
<relation type="incident" objects="51,17"/>
<relation type="incident" objects="66,14"/>
<relation type="incident" objects="14,15"/>
<relation type="incident" objects="15,67"/>
<relation type="incident" objects="67,4"/>
<relation type="incident" objects="88,15"/>
<relation type="incident" objects="88,43"/>
<relation type="incident" objects="88,44"/>
<relation type="incident" objects="44,75"/>
<relation type="incident" objects="75,45"/>
<relation type="incident" objects="45,46"/>
<relation type="incident" objects="40,41"/>
<relation type="incident" objects="41,43"/>
<relation type="incident" objects="43,42"/>
<relation type="incident" objects="42,74"/>
<relation type="incident" objects="74,36"/>
<relation type="incident" objects="36,9"/>
<relation type="incident" objects="9,38"/>
<relation type="incident" objects="19,22"/>
<relation type="incident" objects="22,68"/>
<relation type="incident" objects="68,2"/>
<relation type="incident" objects="2,26"/>
<relation type="incident" objects="2,24"/>
<relation type="incident" objects="24,69"/>
<relation type="incident" objects="69,25"/>
<relation type="incident" objects="25,3"/>
<relation type="incident" objects="3,27"/>
<relation type="incident" objects="3,70"/>
<relation type="incident" objects="70,5"/>
<relation type="incident" objects="5,29"/>
<relation type="incident" objects="5,35"/>
<relation type="incident" objects="35,71"/>
<relation type="incident" objects="71,34"/>
<relation type="incident" objects="34,6"/>
<relation type="incident" objects="6,30"/>
<relation type="incident" objects="6,72"/>
<relation type="incident" objects="72,33"/>
<relation type="incident" objects="33,73"/>
<relation type="incident" objects="73,9"/>
<relation type="incident" objects="72,11"/>
<relation type="incident" objects="11,32"/>
<relation type="incident" objects="11,33"/>
<relation type="incident" objects="70,35"/>
<relation type="neighbour" objects="76,77"/>
<relation type="neighbour" objects="77,78"/>
<relation type="neighbour" objects="77,80"/>
<relation type="neighbour" objects="80,81"/>
<relation type="neighbour" objects="81,86"/>
<relation type="neighbour" objects="86,87"/>
<relation type="neighbour" objects="87,85"/>
<relation type="neighbour" objects="85,84"/>
<relation type="neighbour" objects="84,83"/>
<relation type="neighbour" objects="83,82"/>
<relation type="neighbour" objects="79,82"/>
<relation type="neighbour" objects="76,78"/>
<relation type="neighbour" objects="77,79"/>
<relation type="neighbour" objects="80,79"/>
<relation type="neighbour" objects="81,79"/>
<relation type="neighbour" objects="79,83"/>
<relation type="neighbour" objects="79,84"/>
<relation type="neighbour" objects="79,85"/>
<relation type="neighbour" objects="79,87"/>
<relation type="neighbour" objects="78,79"/>
<relation type="access" objects="76,65,78"/>
<relation type="access" objects="79,67,78"/>
<relation type="access" objects="79,79,52"/>
<relation type="access" objects="77,75,80"/>
<relation type="access" objects="77,61,77"/>
<relation type="access" objects="81,74,79"/>
<relation type="access" objects="79,72,87"/>
<relation type="access" objects="79,71,85"/>
<relation type="access" objects="79,70,84"/>
<relation type="access" objects="79,69,83"/>
<relation type="access" objects="82,68,79"/>
<relation type="access" objects="77,88,79"/>
<relation type="outerP" objects="12,49,1,23,50,16,17,51,4,18,52,19,20,21,53,26,54,27,28,55,29,56,57,31,32,58,39,37,38,59,40,60,46,10,61,47,8,63,48,7,64,13,0"/>
<relation type="surround" objects="12,49,1,23,50,16,17,65,66,0,12,76"/>
<relation type="surround" objects="66,14,15,88,44,75,45,46,10,61,47,8,63,48,7,64,13,66,77"/>
<relation type="surround" objects="66,65,17,51,4,67,15,14,66,78"/>
<relation type="surround" objects="4,18,52,19,22,68,24,69,25,3,70,35,71,34,6,72,33,73,9,36,74,42,43,88,15,67,4,79"/>
<relation type="surround" objects="43,41,40,60,46,45,75,44,43,80"/>
<relation type="surround" objects="43,42,74,36,9,59,41,43,81"/>
<relation type="surround" objects="21,53,2,68,22,19,20,21,82"/>
<relation type="surround" objects="26,54,27,3,25,69,24,2,26,83"/>
<relation type="surround" objects="27,28,55,5,70,3,27,84"/>
<relation type="surround" objects="5,29,56,30,6,34,71,35,5,85"/>
<relation type="surround" objects="6,30,57,31,32,11,72,6,87"/>
<relation type="surround" objects="9,73,33,11,32,58,39,37,9,86"/>
<relation type="access" objects="79,73,86"/>
</svg>