<?xml version="1.0" encoding="UTF-8"?><!DOCTYPE svg PUBLIC "-//W3C//DTD SVG 1.1//EN" "http://www.w3.org/Graphics/SVG/1.1/DTD/svg11.dtd">
<svg xmlns="http://www.w3.org/2000/svg" version="1.1">
<width>2480</width>
<height>3508</height>
<nclasslabel>50</nclasslabel>
<nclassappear>5</nclassappear>
<class>Bidet-1</class>
<class>Bidet-2</class>
<class>Bidet-3</class>
<class>Bidet-4</class>
<class>Door</class>
<class>Door-1</class>
<class>Door-23</class>
<class>Oven-1</class>
<class>Oven-2</class>
<class>Oven-3</class>
<class>Oven-4</class>
<class>Parking</class>
<class>Roof</class>
<class>Room</class>
<class>Separation</class>
<class>Sink-1</class>
<class>Sink-11</class>
<class>Sink-12</class>
<class>Sink-13</class>
<class>Sink-14</class>
<class>Sink-2</class>
<class>Sink-3</class>
<class>Sink-4</class>
<class>Sink-5</class>
<class>Sink-6</class>
<class>Sofa-1</class>
<class>Sofa-3</class>
<class>Sofa-4</class>
<class>Sofa-5</class>
<class>Sofa-6</class>
<class>Sofa-7</class>
<class>Sofa-8</class>
<class>Sofa-9</class>
<class>Stairs-1</class>
<class>Table-1</class>
<class>Table-2</class>
<class>Table-3</class>
<class>Table-4</class>
<class>Table-5</class>
<class>Table-6</class>
<class>Table-7</class>
<class>Text</class>
<class>Tub-1</class>
<class>Tub-3</class>
<class>TV-1</class>
<class>TV-2</class>
<class>Wall</class>
<class>Wall-1</class>
<class>Wallieee</class>
<class>Window</class>
<polygon class="Wall" fill="#AFD8F8" id="0" transcription="" points="859,826 1550,826 1550,851 859,852 " />
<polygon class="Wall" fill="#AFD8F8" id="1" transcription="" points="1634,827 1992,826 1992,851 1634,851 " />
<polygon class="Wall" fill="#AFD8F8" id="2" transcription="" points="835,1181 859,1181 859,1210 835,1209 " />
<polygon class="Wall" fill="#AFD8F8" id="3" transcription="" points="1295,1210 1973,1209 1973,1235 1295,1235 " />
<polygon class="Wall" fill="#AFD8F8" id="4" transcription="" points="1294,1564 1655,1564 1656,1572 1294,1570 " />
<polygon class="Wall" fill="#AFD8F8" id="5" transcription="" points="878,1669 981,1670 981,1676 878,1677 " />
<polygon class="Wall" fill="#AFD8F8" id="6" transcription="" points="1303,1783 1654,1783 1654,1789 1303,1790 " />
<polygon class="Wall" fill="#AFD8F8" id="7" transcription="" points="1189,2118 1418,2119 1418,2126 1189,2126 " />
<polygon class="Wall" fill="#AFD8F8" id="8" transcription="" points="906,2119 912,2119 913,2454 905,2454 " />
<polygon class="Wall" fill="#AFD8F8" id="9" transcription="" points="1347,2456 1462,2456 1463,2498 1347,2498 " />
<polygon class="Wall" fill="#AFD8F8" id="10" transcription="" points="1992,826 2017,827 2016,1210 1992,1210 " />
<polygon class="Wall" fill="#AFD8F8" id="11" transcription="" points="858,884 834,884 835,825 859,825 " />
<polygon class="Wall" fill="#AFD8F8" id="12" transcription="" points="833,1623 877,1623 877,1676 833,1676 " />
<polygon class="Wall" fill="#AFD8F8" id="13" transcription="" points="439,1676 439,1634 831,1634 833,1677 " />
<polygon class="Wall" fill="#AFD8F8" id="14" transcription="" points="397,1635 439,1634 439,1799 398,1799 " />
<polygon class="Wall" fill="#AFD8F8" id="15" transcription="" points="399,2191 441,2191 439,1942 397,1941 " />
<polygon class="Wall" fill="#AFD8F8" id="16" transcription="" points="397,2332 439,2332 439,2455 397,2455 " />
<polygon class="Wall" fill="#AFD8F8" id="17" transcription="" points="632,2456 631,2497 397,2498 397,2455 " />
<polygon class="Wall" fill="#AFD8F8" id="18" transcription="" points="1206,2456 1206,2497 774,2498 774,2455 " />
<polygon class="Wall" fill="#AFD8F8" id="19" transcription="" points="1974,1563 2017,1564 2017,1209 1973,1209 " />
<polygon class="Wall" fill="#AFD8F8" id="20" transcription="" points="1817,1607 1816,1563 2017,1565 2017,1607 " />
<polygon class="Wall" fill="#AFD8F8" id="21" transcription="" points="1419,2276 1460,2276 1462,2455 1418,2455 " />
<polygon class="Wall" fill="#AFD8F8" id="22" transcription="" points="1654,2027 1697,2027 1697,2119 1655,2118 " />
<polygon class="Wall" fill="#AFD8F8" id="23" transcription="" points="1462,2163 1462,2119 1697,2120 1698,2163 " />
<polygon class="Wall" fill="#AFD8F8" id="24" transcription="" points="1418,2178 1462,2178 1462,2118 1418,2118 " />
<polygon class="Wall" fill="#AFD8F8" id="25" transcription="" points="1698,1701 1654,1701 1656,1878 1697,1878 " />
<polygon class="Wall" fill="#AFD8F8" id="26" transcription="" points="1698,1618 1655,1617 1655,1563 1697,1564 " />
<polygon class="Wall" fill="#AFD8F8" id="27" transcription="" points="1166,1670 1166,1676 1188,1676 1188,1670 " />
<polygon class="Wall" fill="#AFD8F8" id="28" transcription="" points="1189,1670 1189,2117 1196,2118 1195,1670 " />
<polygon class="Wall" fill="#AFD8F8" id="29" transcription="" points="1295,1671 1303,1670 1302,1789 1295,1789 " />
<polygon class="Wall" fill="#AFD8F8" id="30" transcription="" points="1295,1463 1303,1463 1302,1234 1295,1235 " />
<polygon class="Wall" fill="#AFD8F8" id="31" transcription="" points="835,1245 876,1245 876,1210 835,1210 " />
<polygon class="Wall" fill="#AFD8F8" id="32" transcription="" points="1195,1210 1195,1234 875,1234 876,1209 " />
<polygon class="Wall" fill="#AFD8F8" id="33" transcription="" points="833,1517 877,1517 876,1327 835,1328 " />
<polygon class="Wall" fill="#AFD8F8" id="34" transcription="" points="977,1500 983,1500 982,1234 976,1234 " />
<polygon class="Wall" fill="#AFD8F8" id="35" transcription="" points="1189,1499 1196,1500 1196,1415 1188,1416 " />
<polygon class="Wall" fill="#AFD8F8" id="36" transcription="" points="1188,1416 1188,1424 982,1424 982,1415 " />
<polygon class="Wall" fill="#AFD8F8" id="37" transcription="" points="1089,2125 1090,2118 911,2118 911,2126 " />
<polygon class="Window" fill="#F6BD0F" id="38" transcription="" points="1563,895 1632,853 1632,824 1553,818 1549,856 1556,878 " />
<polygon class="Window" fill="#F6BD0F" id="39" transcription="" points="1798,1515 1709,1565 1710,1611 1811,1610 1815,1564 1808,1534 " />
<polygon class="Wall" fill="#AFD8F8" id="40" transcription="" points="1712,1606 1655,1604 1652,1557 1711,1560 " />
<polygon class="Window" fill="#F6BD0F" id="41" transcription="" points="1619,1685 1659,1617 1704,1618 1705,1697 1652,1698 1634,1691 " />
<polygon class="Window" fill="#F6BD0F" id="42" transcription="" points="1618,1945 1655,1881 1705,1881 1705,2028 1655,2028 1617,1965 1636,1954 " />
<polygon class="Door" fill="#8BBA00" id="43" transcription="" points="1324,2177 1464,2177 1462,2278 1412,2276 1357,2263 1329,2221 " />
<polygon class="Window" fill="#F6BD0F" id="44" transcription="" points="772,2383 774,2499 631,2501 629,2385 677,2394 698,2427 730,2388 " />
<polygon class="Window" fill="#F6BD0F" id="45" transcription="" points="512,2331 395,2333 394,2192 512,2188 510,2238 459,2261 504,2287 " />
<polygon class="Window" fill="#F6BD0F" id="46" transcription="" points="512,1943 396,1945 395,1800 514,1799 498,1852 465,1871 504,1901 " />
<polygon class="Door" fill="#8BBA00" id="47" transcription="" points="981,1617 830,1619 830,1518 877,1514 919,1528 956,1560 " />
<polygon class="Door" fill="#8BBA00" id="48" transcription="" points="894,1467 978,1417 879,1417 881,1442 " />
<polygon class="Window" fill="#F6BD0F" id="49" transcription="" points="913,1259 878,1326 829,1325 829,1249 875,1247 897,1248 " />
<polygon class="Parking" fill="#FF8E46" id="50" transcription="" points="870,889 820,888 822,1178 869,1177 " />
<polygon class="Door" fill="#8BBA00" id="51" transcription="" points="1289,1323 1297,1214 1196,1210 1197,1242 1208,1282 1240,1312 " />
<polygon class="Door" fill="#8BBA00" id="52" transcription="" points="1294,1321 1290,1419 1196,1416 1199,1384 1236,1336 " />
<polygon class="Door" fill="#8BBA00" id="53" transcription="" points="1398,1561 1293,1560 1297,1465 1339,1473 1377,1506 " />
<polygon class="Door" fill="#8BBA00" id="54" transcription="" points="1397,1572 1294,1571 1295,1668 1344,1665 1381,1625 " />
<polygon class="Door" fill="#8BBA00" id="55" transcription="" points="1200,1767 1197,1664 1298,1669 1283,1720 1247,1758 " />
<polygon class="Door" fill="#8BBA00" id="56" transcription="" points="1158,1764 1162,1671 986,1671 986,1762 1030,1759 1062,1731 1072,1709 1087,1738 1116,1758 " />
<polygon class="Door" fill="#8BBA00" id="57" transcription="" points="1183,2213 1182,2117 1093,2117 1097,2172 1133,2204 " />
<polygon class="Room" fill="#008E8E" id="58" transcription="" points="864,856 861,1203 1986,1201 1987,855 " />
<polygon class="Room" fill="#008E8E" id="59" transcription="" points="1306.5,1237 1304.5,1554 1966.5,1560 1965.5,1239 " />
<polygon class="Room" fill="#008E8E" id="60" transcription="" points="988,1237 985,1410 1287,1412 1290,1240 " />
<polygon class="Room" fill="#008E8E" id="61" transcription="" points="977,1411 973,1238 879,1237 881,1411 " />
<polygon class="Room" fill="#008E8E" id="62" transcription="" points="1288,1661.5 1288,1423.5 1199,1420.5 1201,1502.5 1183,1504.5 1183,1425.5 986,1426.5 987,1504.5 972,1502.5 972,1418.5 883,1415.5 882,1662.5 " />
<polygon class="Room" fill="#008E8E" id="63" transcription="" points="1304,1779 1650,1778 1649,1578 1300,1575 " />
<polygon class="Room" fill="#008E8E" id="64" transcription="" points="1650,2114 1647,1793 1291,1792 1287,1673 1202,1672 1200,2112 " />
<polygon class="Room" fill="#008E8E" id="65" transcription="" points="917,2130 916,2450 1414,2451 1412,2131 " />
<polygon class="Room" fill="#008E8E" id="66" transcription="" points="444.5,1680 442.5,2449 901.5,2449 898.5,2113 1182.5,2110 1181.5,1680 " />
<polygon class="Wall" fill="#AFD8F8" id="67" transcription="" points="1675,2472 1695,2472 1698,2497 1673,2495 " />
<polygon class="Window" fill="#F6BD0F" id="68" transcription="" points="1207,2504 1202,2455 1265,2414 1275,2426 1285,2414 1346,2453 1346,2504 " />
<relation type="access" objects="65,57,66"/>
<relation type="neighbour" objects="65,66"/>
<relation type="neighbour" objects="65,64"/>
<relation type="neighbour" objects="63,64"/>
<relation type="neighbour" objects="64,66"/>
<relation type="neighbour" objects="66,62"/>
<relation type="neighbour" objects="62,60"/>
<relation type="neighbour" objects="60,61"/>
<relation type="neighbour" objects="61,62"/>
<relation type="neighbour" objects="62,59"/>
<relation type="neighbour" objects="59,63"/>
<relation type="neighbour" objects="62,63"/>
<relation type="neighbour" objects="62,64"/>
<relation type="neighbour" objects="60,59"/>
<relation type="neighbour" objects="58,59"/>
<relation type="neighbour" objects="58,60"/>
<relation type="neighbour" objects="58,61"/>
<relation type="access" objects="66,56,62"/>
<relation type="access" objects="62,52,60"/>
<relation type="access" objects="61,48,62"/>
<relation type="access" objects="58,51,60"/>
<relation type="access" objects="59,53,62"/>
<relation type="access" objects="62,54,63"/>
<relation type="access" objects="62,55,64"/>
<relation type="access" objects="65,43,65"/>
<relation type="access" objects="62,47,62"/>
<relation type="incident" objects="18,68"/>
<relation type="incident" objects="18,44"/>
<relation type="incident" objects="18,8"/>
<relation type="incident" objects="68,9"/>
<relation type="incident" objects="9,21"/>
<relation type="incident" objects="21,43"/>
<relation type="incident" objects="43,24"/>
<relation type="incident" objects="24,7"/>
<relation type="incident" objects="24,23"/>
<relation type="incident" objects="7,28"/>
<relation type="incident" objects="7,57"/>
<relation type="incident" objects="28,57"/>
<relation type="incident" objects="57,37"/>
<relation type="incident" objects="37,8"/>
<relation type="incident" objects="44,17"/>
<relation type="incident" objects="17,16"/>
<relation type="incident" objects="16,45"/>
<relation type="incident" objects="45,15"/>
<relation type="incident" objects="15,46"/>
<relation type="incident" objects="46,14"/>
<relation type="incident" objects="14,13"/>
<relation type="incident" objects="13,12"/>
<relation type="incident" objects="12,5"/>
<relation type="incident" objects="12,47"/>
<relation type="incident" objects="5,56"/>
<relation type="incident" objects="56,27"/>
<relation type="incident" objects="27,28"/>
<relation type="incident" objects="28,55"/>
<relation type="incident" objects="55,29"/>
<relation type="incident" objects="29,6"/>
<relation type="incident" objects="6,25"/>
<relation type="incident" objects="25,41"/>
<relation type="incident" objects="41,26"/>
<relation type="incident" objects="26,4"/>
<relation type="incident" objects="4,54"/>
<relation type="incident" objects="53,4"/>
<relation type="incident" objects="26,40"/>
<relation type="incident" objects="40,39"/>
<relation type="outerP" objects="0,38,1,10,19,20,39,26,40,41,25,42,22,23,24,43,21,9,68,18,44,17,16,45,15,46,14,13,12,47,33,49,31,2,50,11"/>
<relation type="surround" objects="0,38,1,10,3,51,32,31,2,50,11,0,58"/>
<relation type="surround" objects="3,19,20,39,26,4,53,30,59"/>
<relation type="surround" objects="31,32,34,48,33,49,61"/>
<relation type="surround" objects="32,51,30,52,60,34,60"/>
<relation type="surround" objects="48,34,36,52,30,53,54,55,27,56,5,12,47,33,62"/>
<relation type="surround" objects="4,26,41,25,6,29,54,63"/>
<relation type="surround" objects="55,29,6,25,42,22,23,24,7,28,55,64"/>
<relation type="surround" objects="13,12,5,56,27,28,57,37,8,18,44,17,16,45,15,46,14,13,66"/>
<relation type="surround" objects="37,57,7,24,43,21,9,68,18,8,65"/>
</svg>