<?xml version="1.0" encoding="UTF-8"?><!DOCTYPE svg PUBLIC "-//W3C//DTD SVG 1.1//EN" "http://www.w3.org/Graphics/SVG/1.1/DTD/svg11.dtd">
<svg xmlns="http://www.w3.org/2000/svg" version="1.1">
<width>2479</width>
<height>3508</height>
<nclasslabel>50</nclasslabel>
<nclassappear>6</nclassappear>
<class>Bidet-1</class>
<class>Bidet-2</class>
<class>Bidet-3</class>
<class>Bidet-4</class>
<class>Door</class>
<class>Door-1</class>
<class>Door-23</class>
<class>Oven-1</class>
<class>Oven-2</class>
<class>Oven-3</class>
<class>Oven-4</class>
<class>Parking</class>
<class>Roof</class>
<class>Room</class>
<class>Separation</class>
<class>Sink-1</class>
<class>Sink-11</class>
<class>Sink-12</class>
<class>Sink-13</class>
<class>Sink-14</class>
<class>Sink-2</class>
<class>Sink-3</class>
<class>Sink-4</class>
<class>Sink-5</class>
<class>Sink-6</class>
<class>Sofa-1</class>
<class>Sofa-3</class>
<class>Sofa-4</class>
<class>Sofa-5</class>
<class>Sofa-6</class>
<class>Sofa-7</class>
<class>Sofa-8</class>
<class>Sofa-9</class>
<class>Stairs-1</class>
<class>Table-1</class>
<class>Table-2</class>
<class>Table-3</class>
<class>Table-4</class>
<class>Table-5</class>
<class>Table-6</class>
<class>Table-7</class>
<class>Text</class>
<class>Tub-1</class>
<class>Tub-3</class>
<class>TV-1</class>
<class>TV-2</class>
<class>Wall</class>
<class>Wall-1</class>
<class>Wallieee</class>
<class>Window</class>
<polygon class="Wall" fill="#AFD8F8" id="0" transcription="" points="1171,707 1340,709 1340,733 1171,732 " />
<polygon class="Wall" fill="#AFD8F8" id="1" transcription="" points="1323,1086 1965,1086 1965,1111 1323,1111 " />
<polygon class="Wall" fill="#AFD8F8" id="2" transcription="" points="900,1275 996,1275 996,1282 900,1282 " />
<polygon class="Wall" fill="#AFD8F8" id="3" transcription="" points="1505,1440 1549,1441 1548,1495 1506,1496 " />
<polygon class="Wall" fill="#AFD8F8" id="4" transcription="" points="1790,1440 1850,1440 1851,1485 1790,1483 " />
<polygon class="Wall" fill="#AFD8F8" id="5" transcription="" points="1116,1493 1124,1493 1122,1848 1116,1848 " />
<polygon class="Wall" fill="#AFD8F8" id="6" transcription="" points="1272,1647 1506,1648 1506,1654 1272,1654 " />
<polygon class="Wall" fill="#AFD8F8" id="7" transcription="" points="1623,1655 1666,1655 1666,1786 1625,1787 " />
<polygon class="Wall" fill="#AFD8F8" id="8" transcription="" points="1265,1852 1272,1851 1271,2060 1265,2059 " />
<polygon class="Wall" fill="#AFD8F8" id="9" transcription="" points="1471,2410 1514,2410 1513,2463 1472,2463 " />
<polygon class="Wall" fill="#AFD8F8" id="10" transcription="" points="1967,708 1991,708 1992,773 1967,769 " />
<polygon class="Wall" fill="#AFD8F8" id="11" transcription="" points="1965,1049 1991,1045 1991,1111 1965,1112 " />
<polygon class="Wall" fill="#AFD8F8" id="12" transcription="" points="633,2420 633,2462 715,2462 715,2420 " />
<polygon class="Wall" fill="#AFD8F8" id="13" transcription="" points="591,1606 633,1606 633,1502 592,1502 " />
<polygon class="Wall" fill="#AFD8F8" id="14" transcription="" points="591,1750 632,1750 633,2463 590,2462 " />
<polygon class="Wall" fill="#AFD8F8" id="15" transcription="" points="1624,1928 1667,1929 1667,2058 1624,2058 " />
<polygon class="Wall" fill="#AFD8F8" id="16" transcription="" points="1612,2102 1666,2102 1667,2059 1612,2060 " />
<polygon class="Wall" fill="#AFD8F8" id="17" transcription="" points="1471,2060 1470,2068 1263,2068 1264,2060 " />
<polygon class="Wall" fill="#AFD8F8" id="18" transcription="" points="1518,2102 1518,2061 1471,2060 1472,2102 " />
<polygon class="Wall" fill="#AFD8F8" id="19" transcription="" points="1471,2127 1513,2127 1514,2102 1471,2101 " />
<polygon class="Wall" fill="#AFD8F8" id="20" transcription="" points="1002,2422 1002,2462 1472,2463 1470,2420 1096,2421 1033,2421 " />
<polygon class="Wall" fill="#AFD8F8" id="21" transcription="" points="1507,1600 1549,1601 1549,1654 1507,1654 " />
<polygon class="Wall" fill="#AFD8F8" id="22" transcription="" points="1666,1611 1666,1655 1549,1654 1549,1611 " />
<polygon class="Wall" fill="#AFD8F8" id="23" transcription="" points="1808,1353 1851,1352 1850,1440 1806,1443 " />
<polygon class="Wall" fill="#AFD8F8" id="24" transcription="" points="1719,1439 1718,1484 1549,1483 1549,1439 " />
<polygon class="Wall" fill="#AFD8F8" id="25" transcription="" points="1337,1439 1338,1447 1504,1449 1505,1440 " />
<polygon class="Wall" fill="#AFD8F8" id="26" transcription="" points="1265,1749 1271,1751 1271,1646 1265,1646 " />
<polygon class="Wall" fill="#AFD8F8" id="27" transcription="" points="1413,708 1413,733 1967,734 1967,708 " />
<polygon class="Wall" fill="#AFD8F8" id="28" transcription="" points="1806,1211 1850,1211 1850,1109 1806,1109 " />
<polygon class="Wall" fill="#AFD8F8" id="29" transcription="" points="1329,1329 1337,1329 1335,1110 1329,1110 " />
<polygon class="Wall" fill="#AFD8F8" id="30" transcription="" points="882,733 881,708 1097,707 1097,733 " />
<polygon class="Wall" fill="#AFD8F8" id="31" transcription="" points="880,1085 856,1085 856,708 881,709 " />
<polygon class="Wall" fill="#AFD8F8" id="32" transcription="" points="999,1385 1006,1386 1006,1274 998,1274 " />
<polygon class="Wall" fill="#AFD8F8" id="33" transcription="" points="899,1492 899,1501 1015,1500 1015,1494 " />
<polygon class="Wall" fill="#AFD8F8" id="34" transcription="" points="855,1373 899,1373 899,1456 856,1456 " />
<polygon class="Wall" fill="#AFD8F8" id="35" transcription="" points="592,1458 592,1501 898,1500 899,1457 " />
<polygon class="Wall" fill="#AFD8F8" id="36" transcription="" points="631,1849 632,1856 1122,1854 1123,1847 " />
<polygon class="Wall" fill="#AFD8F8" id="37" transcription="" points="900,1110 857,1110 857,1191 900,1191 " />
<polygon class="Wall" fill="#AFD8F8" id="38" transcription="" points="1223,1111 1222,1085 853,1084 855,1112 " />
<polygon class="Wall" fill="#AFD8F8" id="39" transcription="" points="856,1268 898,1268 898,1298 857,1298 " />
<polygon class="Wall" fill="#AFD8F8" id="40" transcription="" points="1330,1448 1337,1447 1335,1432 1329,1432 " />
<polygon class="Wall" fill="#AFD8F8" id="41" transcription="" points="1106,1376 1106,1383 1211,1382 1211,1374 " />
<polygon class="Wall" fill="#AFD8F8" id="42" transcription="" points="1217,1382 1211,1381 1212,1111 1218,1112 " />
<polygon class="Wall" fill="#AFD8F8" id="43" transcription="" points="1034,2372 1040,2371 1041,2421 1033,2421 " />
<polygon class="Wall" fill="#AFD8F8" id="44" transcription="" points="1094,2362 1094,2369 1034,2370 1034,2363 " />
<polygon class="Wall" fill="#AFD8F8" id="45" transcription="" points="1094,2369 1087,2369 1087,2421 1094,2420 " />
<polygon class="Window" fill="#F6BD0F" id="46" transcription="" points="1099,738 1170,736 1170,703 1093,704 " />
<polygon class="Window" fill="#F6BD0F" id="47" transcription="" points="1342,738 1414,735 1413,703 1338,701 " />
<polygon class="Parking" fill="#8BBA00" id="48" transcription="" points="1957,766 1956,1059 2009,1059 2005,765 " />
<polygon class="Door" fill="#FF8E46" id="49" transcription="" points="1316,999 1320,1084 1220,1089 1230,1049 1260,1009 " />
<polygon class="Window" fill="#F6BD0F" id="50" transcription="" points="1803,1353 1859,1351 1855,1211 1803,1211 " />
<polygon class="Window" fill="#F6BD0F" id="51" transcription="" points="1719,1435 1788,1439 1790,1486 1718,1486 " />
<polygon class="Door" fill="#FF8E46" id="52" transcription="" points="1408,1498 1549,1497 1553,1601 1505,1600 1447,1586 1408,1537 " />
<polygon class="Window" fill="#F6BD0F" id="53" transcription="" points="1618,1789 1670,1790 1673,1928 1621,1928 " />
<polygon class="Door" fill="#FF8E46" id="54" transcription="" points="1608,1969 1610,2102 1516,2102 1518,2059 1524,2009 1562,1977 " />
<polygon class="Window" fill="#F6BD0F" id="55" transcription="" points="1467,2125 1515,2128 1518,2413 1469,2411 " />
<polygon class="Window" fill="#F6BD0F" id="56" transcription="" points="717,2420 716,2464 1004,2463 1005,2418 " />
<polygon class="Window" fill="#F6BD0F" id="57" transcription="" points="638,1751 586,1752 585,1608 637,1607 " />
<polygon class="Window" fill="#F6BD0F" id="58" transcription="" points="850,1373 902,1374 902,1298 853,1297 " />
<polygon class="Window" fill="#F6BD0F" id="59" transcription="" points="852.5,1189 902.5,1191 903.5,1264 851.5,1263 " />
<polygon class="Door" fill="#FF8E46" id="60" transcription="" points="1008,1285 1005,1386 1106,1378 1091,1319 1049,1291 " />
<polygon class="Door" fill="#FF8E46" id="61" transcription="" points="1095,1390 998,1391 998,1485 1045,1477 1084,1442 " />
<polygon class="Door" fill="#FF8E46" id="62" transcription="" points="1110,1596 1114,1496 1016,1495 1021,1538 1055,1575 " />
<polygon class="Door" fill="#FF8E46" id="63" transcription="" points="1422,1423 1330,1428 1331,1337 1369,1338 1419,1380 " />
<polygon class="Door" fill="#FF8E46" id="64" transcription="" points="1358,1843 1270,1849 1270,1751 1314,1762 1350,1802 " />
<polygon class="Room" fill="#008E8E" id="65" transcription="" points="885,739 881,1081 1960,1080 1961,738 " />
<polygon class="Room" fill="#008E8E" id="66" transcription="" points="1340,1116 1342,1436 1803,1437 1800,1115 " />
<polygon class="Room" fill="#008E8E" id="67" transcription="" points="1211,1117 1204,1367 1015,1370 1013,1271 908,1268 905,1114 " />
<polygon class="Room" fill="#008E8E" id="68" transcription="" points="902,1486 905,1286 993,1285 994,1488 " />
<polygon class="Room" fill="#008E8E" id="69" transcription="" points="1127,1849.5 1267,1849.5 1264,1640.5 1502,1640.5 1501,1453.5 1328,1450.5 1322,1094.5 1221,1098.5 1219,1383.5 1012,1388.5 1015,1487.5 1125,1490.5 " />
<polygon class="Room" fill="#008E8E" id="70" transcription="" points="637,1507 635,1843 1111,1844 1110,1501 " />
<polygon class="Room" fill="#008E8E" id="71" transcription="" points="1617,1662 1622,2053 1275,2055 1275,1656 " />
<polygon class="Room" fill="#008E8E" id="72" transcription="" points="638,1862 637,2414 1028,2415 1029,2360 1100,2358 1098,2414 1464,2414 1466,2071 1259,2072 1258,1857 " />
<polygon class="Wall" fill="#AFD8F8" id="73" transcription="" points="1642,2438 1668,2439 1666,2461 1642,2461 " />
<polygon class="Separation" fill="#D64646" id="74" transcription="" points="1123,1832 1266,1832 1266,1862 1123,1862 " />
<relation type="outerP" objects="30,46,0,47,27,48,11,1,28,50,23,4,51,24,3,52,21,22,7,53,15,16,54,18,19,55,9,20,56,12,14,57,13,35,34,58,39,59,37,31"/>
<relation type="incident" objects="30,46"/>
<relation type="incident" objects="0,46"/>
<relation type="incident" objects="0,47"/>
<relation type="incident" objects="47,27"/>
<relation type="incident" objects="27,10"/>
<relation type="incident" objects="10,48"/>
<relation type="incident" objects="48,11"/>
<relation type="incident" objects="11,1"/>
<relation type="incident" objects="1,28"/>
<relation type="incident" objects="28,50"/>
<relation type="incident" objects="50,23"/>
<relation type="incident" objects="23,4"/>
<relation type="incident" objects="4,51"/>
<relation type="incident" objects="51,24"/>
<relation type="incident" objects="24,3"/>
<relation type="incident" objects="3,52"/>
<relation type="incident" objects="52,21"/>
<relation type="incident" objects="21,22"/>
<relation type="incident" objects="22,7"/>
<relation type="incident" objects="7,53"/>
<relation type="incident" objects="53,15"/>
<relation type="incident" objects="15,16"/>
<relation type="incident" objects="54,16"/>
<relation type="incident" objects="18,54"/>
<relation type="incident" objects="18,19"/>
<relation type="incident" objects="19,55"/>
<relation type="incident" objects="55,9"/>
<relation type="incident" objects="9,20"/>
<relation type="incident" objects="20,56"/>
<relation type="incident" objects="12,56"/>
<relation type="incident" objects="12,14"/>
<relation type="incident" objects="14,57"/>
<relation type="incident" objects="57,13"/>
<relation type="incident" objects="13,35"/>
<relation type="incident" objects="35,34"/>
<relation type="incident" objects="34,58"/>
<relation type="incident" objects="58,39"/>
<relation type="incident" objects="39,59"/>
<relation type="incident" objects="59,37"/>
<relation type="incident" objects="37,31"/>
<relation type="incident" objects="31,30"/>
<relation type="incident" objects="31,38"/>
<relation type="incident" objects="38,49"/>
<relation type="incident" objects="49,1"/>
<relation type="incident" objects="1,29"/>
<relation type="incident" objects="29,63"/>
<relation type="incident" objects="63,40"/>
<relation type="incident" objects="40,25"/>
<relation type="incident" objects="25,3"/>
<relation type="incident" objects="38,37"/>
<relation type="incident" objects="38,42"/>
<relation type="incident" objects="42,41"/>
<relation type="incident" objects="41,60"/>
<relation type="incident" objects="60,32"/>
<relation type="incident" objects="32,2"/>
<relation type="incident" objects="2,39"/>
<relation type="incident" objects="32,61"/>
<relation type="incident" objects="61,33"/>
<relation type="incident" objects="33,35"/>
<relation type="incident" objects="33,62"/>
<relation type="incident" objects="62,5"/>
<relation type="incident" objects="5,36"/>
<relation type="incident" objects="36,14"/>
<relation type="incident" objects="6,21"/>
<relation type="incident" objects="74,36"/>
<relation type="incident" objects="74,5"/>
<relation type="incident" objects="74,8"/>
<relation type="incident" objects="26,6"/>
<relation type="incident" objects="26,64"/>
<relation type="incident" objects="64,8"/>
<relation type="incident" objects="8,17"/>
<relation type="incident" objects="17,18"/>
<relation type="neighbour" objects="65,66"/>
<relation type="neighbour" objects="66,69"/>
<relation type="neighbour" objects="69,67"/>
<relation type="neighbour" objects="67,65"/>
<relation type="neighbour" objects="67,68"/>
<relation type="neighbour" objects="68,70"/>
<relation type="neighbour" objects="70,72"/>
<relation type="neighbour" objects="72,71"/>
<relation type="neighbour" objects="71,69"/>
<relation type="neighbour" objects="69,70"/>
<relation type="neighbour" objects="69,68"/>
<relation type="neighbour" objects="69,72"/>
<relation type="access" objects="69,49,65"/>
<relation type="access" objects="69,60,67"/>
<relation type="access" objects="68,61,69"/>
<relation type="access" objects="69,63,66"/>
<relation type="access" objects="69,52,69"/>
<relation type="access" objects="69,74,72"/>
<relation type="access" objects="69,62,70"/>
<relation type="access" objects="69,64,71"/>
<relation type="access" objects="71,54,71"/>
<relation type="surround" objects="30,46,0,47,27,10,48,11,1,49,38,31,30,65"/>
<relation type="surround" objects="38,42,41,60,32,2,39,59,37,38,67"/>
<relation type="surround" objects="1,28,50,23,4,51,24,3,25,63,29,1,66"/>
<relation type="surround" objects="2,32,61,33,34,58,39,2,68"/>
<relation type="surround" objects="49,29,63,40,25,3,52,21,6,26,64,74,5,62,33,61,32,60,41,42,49,69"/>
<relation type="surround" objects="35,33,62,5,36,14,57,13,35,70"/>
<relation type="surround" objects="36,74,8,17,18,19,55,9,20,56,12,14,36,72"/>
<relation type="surround" objects="6,21,22,7,53,15,16,54,18,17,8,64,26,6,71"/>
</svg>