<?xml version="1.0" encoding="UTF-8"?><!DOCTYPE svg PUBLIC "-//W3C//DTD SVG 1.1//EN" "http://www.w3.org/Graphics/SVG/1.1/DTD/svg11.dtd">
<svg xmlns="http://www.w3.org/2000/svg" version="1.1">
<width>2480</width>
<height>3508</height>
<nclasslabel>50</nclasslabel>
<nclassappear>6</nclassappear>
<class>Bidet-1</class>
<class>Bidet-2</class>
<class>Bidet-3</class>
<class>Bidet-4</class>
<class>Door</class>
<class>Door-1</class>
<class>Door-23</class>
<class>Oven-1</class>
<class>Oven-2</class>
<class>Oven-3</class>
<class>Oven-4</class>
<class>Parking</class>
<class>Roof</class>
<class>Room</class>
<class>Separation</class>
<class>Sink-1</class>
<class>Sink-11</class>
<class>Sink-12</class>
<class>Sink-13</class>
<class>Sink-14</class>
<class>Sink-2</class>
<class>Sink-3</class>
<class>Sink-4</class>
<class>Sink-5</class>
<class>Sink-6</class>
<class>Sofa-1</class>
<class>Sofa-3</class>
<class>Sofa-4</class>
<class>Sofa-5</class>
<class>Sofa-6</class>
<class>Sofa-7</class>
<class>Sofa-8</class>
<class>Sofa-9</class>
<class>Stairs-1</class>
<class>Table-1</class>
<class>Table-2</class>
<class>Table-3</class>
<class>Table-4</class>
<class>Table-5</class>
<class>Table-6</class>
<class>Table-7</class>
<class>Text</class>
<class>Tub-1</class>
<class>Tub-3</class>
<class>TV-1</class>
<class>TV-2</class>
<class>Wall</class>
<class>Wall-1</class>
<class>Wallieee</class>
<class>Window</class>
<polygon class="Wall" fill="#AFD8F8" id="0" transcription="" points="882,923.5 839,923.5 838,1082.5 882,1082.5 " />
<polygon class="Wall" fill="#AFD8F8" id="1" transcription="" points="839,883.5 839,923.5 1441,923.5 1441,882.5 " />
<polygon class="Wall" fill="#AFD8F8" id="2" transcription="" points="1295,924 1301,924 1300,1296 1295,1296 " />
<polygon class="Wall" fill="#AFD8F8" id="3" transcription="" points="1514,884 1514,924 1538,926 1536,884 " />
<polygon class="Wall" fill="#AFD8F8" id="4" transcription="" points="1561,672 1560,647 1588,647 1588,672 " />
<polygon class="Wall" fill="#AFD8F8" id="5" transcription="" points="1886,671 1886,647 1914,647 1914,672 " />
<polygon class="Wall" fill="#AFD8F8" id="6" transcription="" points="1424.5,1314.5 1423.5,1289.5 1535.5,1290.5 1535.5,1313.5 " />
<polygon class="Wall" fill="#AFD8F8" id="7" transcription="" points="1760,2124 1760,2130 1837,2130 1837,2123 " />
<polygon class="Wall" fill="#AFD8F8" id="8" transcription="" points="1536.5,1738.5 1536.5,1763.5 1423.5,1763.5 1423.5,1739.5 " />
<polygon class="Wall" fill="#AFD8F8" id="9" transcription="" points="1401,1764 1424,1764 1425,1290 1400,1290 " />
<polygon class="Wall" fill="#AFD8F8" id="10" transcription="" points="882,1396 882,1403 1301,1403 1301,1396 " />
<polygon class="Wall" fill="#AFD8F8" id="11" transcription="" points="840,1229 881,1229 881,1497 839,1497 " />
<polygon class="Wall" fill="#AFD8F8" id="12" transcription="" points="881,1757 881,1764 1295,1763 1295,1757 " />
<polygon class="Wall" fill="#AFD8F8" id="13" transcription="" points="881,2064 839,2064 839,2206 881,2207 " />
<polygon class="Wall" fill="#AFD8F8" id="14" transcription="" points="839,1642 882,1642 881,1959 840,1959 " />
<polygon class="Wall" fill="#AFD8F8" id="15" transcription="" points="840,2418.5 881,2417.5 882,2529.5 840,2529.5 " />
<polygon class="Wall" fill="#AFD8F8" id="16" transcription="" points="1095,1856 1095,1863 1299,1863 1295,1856 " />
<polygon class="Wall" fill="#AFD8F8" id="17" transcription="" points="1572,2531 1572,2574 840,2572 840,2530 " />
<polygon class="Wall" fill="#AFD8F8" id="18" transcription="" points="1400,1999 1408,1996 1537,2126 1531,2130 " />
<polygon class="Wall" fill="#AFD8F8" id="19" transcription="" points="1637,1739 1637,1764 1914,1763 1914,1739 " />
<polygon class="Wall" fill="#AFD8F8" id="20" transcription="" points="1880,1902 1837,1902 1836,1762 1879,1762 " />
<polygon class="Wall" fill="#AFD8F8" id="21" transcription="" points="1939,1670 1913,1670 1913,1764 1939,1764 " />
<polygon class="Wall" fill="#AFD8F8" id="22" transcription="" points="1939,1238 1914,1238 1914,1597 1939,1597 " />
<polygon class="Wall" fill="#AFD8F8" id="23" transcription="" points="1938,1163 1914,1163 1914,646 1938,646 " />
<polygon class="Wall" fill="#AFD8F8" id="24" transcription="" points="1561,1314 1536,1314 1536,647 1561,647 " />
<polygon class="Wall" fill="#AFD8F8" id="25" transcription="" points="1715,2530 1715,2572 1837,2573 1837,2530 " />
<polygon class="Wall" fill="#AFD8F8" id="26" transcription="" points="1879,2047 1837,2047 1837,2573 1879,2572 " />
<polygon class="Wall" fill="#AFD8F8" id="27" transcription="" points="1294,1503 1294,1764 1300,1764 1300,1503 " />
<polygon class="Wall" fill="#AFD8F8" id="28" transcription="" points="1400.5,1762.5 1406.5,1762.5 1407.5,1991.5 1399.5,1997.5 " />
<polygon class="Window" fill="#F6BD0F" id="29" transcription="" points="834,1083 885,1084 886,1229 835,1230 " />
<polygon class="Window" fill="#F6BD0F" id="30" transcription="" points="834,1496 885,1498 885,1644 834,1645 " />
<polygon class="Door" fill="#8BBA00" id="31" transcription="" points="838.5,1958.5 885.5,1959.5 946.5,1980.5 975.5,2022.5 980.5,2059.5 837.5,2063.5 " />
<polygon class="Window" fill="#F6BD0F" id="32" transcription="" points="950,2281 883,2281 884,2208 839,2209 836,2418 950,2414 940,2368 900,2347 940,2326 " />
<polygon class="Window" fill="#F6BD0F" id="33" transcription="" points="1575,2462 1574,2572 1718,2573 1709,2458 1671,2467 1643,2499 1619,2470 " />
<polygon class="Window" fill="#F6BD0F" id="34" transcription="" points="1834,1903 1884,1903 1885,2047 1834,2049 " />
<polygon class="Door" fill="#8BBA00" id="35" transcription="" points="1541,1652 1538,1758 1632,1760 1635,1736 1623,1690 1588,1657 " />
<polygon class="Window" fill="#F6BD0F" id="36" transcription="" points="1910,1596 1941,1597 1943,1672 1909,1671 " />
<polygon class="Window" fill="#F6BD0F" id="37" transcription="" points="1912,1163 1942,1163 1943,1238 1912,1239 " />
<polygon class="Parking" fill="#FF8E46" id="38" transcription="" points="1591,684 1883,684 1881,632 1592,632 " />
<polygon class="Window" fill="#F6BD0F" id="39" transcription="" points="1442,879 1443,926 1512,926 1512,881 " />
<polygon class="Door" fill="#8BBA00" id="40" transcription="" points="1303,1199 1302,1293 1401,1294 1390,1238 1347,1205 " />
<polygon class="Door" fill="#8BBA00" id="41" transcription="" points="1204,1392 1302,1392 1300,1297 1251,1310 1217,1344 " />
<polygon class="Door" fill="#8BBA00" id="42" transcription="" points="1203.5,1406 1302.5,1405 1301.5,1502 1241.5,1486 1210.5,1444 " />
<polygon class="Door" fill="#8BBA00" id="43" transcription="" points="1346,1845 1296,1762 1299,1860 1322,1859 " />
<polygon class="Room" fill="#008E8E" id="44" transcription="" points="884,926 884,1390 1289,1389 1291,927 " />
<polygon class="Room" fill="#008E8E" id="45" transcription="" points="1306,928 1306,1281 1531,1286 1531,929 " />
<polygon class="Room" fill="#008E8E" id="46" transcription="" points="1564.5,676 1565.5,1317 1428.5,1319 1427.5,1735 1908.5,1734 1909.5,676 " />
<polygon class="Room" fill="#008E8E" id="47" transcription="" points="1413,1770 1412,1993 1536,2120 1834,2116 1829,1767 " />
<polygon class="Room" fill="#008E8E" id="48" transcription="" points="1526.5,2127.5 883.5,2126.5 883,1763 1085,1763 1083,1863 1395.5,1860.5 1395.5,2000.5 " />
<polygon class="Room" fill="#008E8E" id="49" transcription="" points="1400,1299 1399,1852 1300,1853 1304,1297 " />
<polygon class="Room" fill="#008E8E" id="50" transcription="" points="886,1408 884,1751 1288,1751 1288,1407 " />
<polygon class="Room" fill="#008E8E" id="51" transcription="" points="1292,1766 1093,1763 1098,1858 1292,1851 " />
<polygon class="Room" fill="#008E8E" id="52" transcription="" points="886,2139.5 884,2522.5 1833,2522.5 1832,2132.5 " />
<polygon class="Separation" fill="#D64646" id="53" transcription="" points="881,2117 1764,2117 1764,2135 881,2135 " />
<polygon class="Separation" fill="#D64646" id="54" transcription="" points="1298,1848 1397,1848 1397,1863 1298,1863 " />
<polygon class="Separation" fill="#D64646" id="55" transcription="" points="1082,1763 1100,1763 1100,1858 1082,1858 " />
<relation type="outerP" objects="1,39,3,24,4,38,5,23,37,22,36,21,19,20,34,26,25,33,17,15,32,13,31,14,30,11,29,0"/>
<relation type="incident" objects="1,39"/>
<relation type="incident" objects="39,3"/>
<relation type="incident" objects="3,24"/>
<relation type="incident" objects="24,4"/>
<relation type="incident" objects="4,38"/>
<relation type="incident" objects="38,5"/>
<relation type="incident" objects="5,23"/>
<relation type="incident" objects="23,37"/>
<relation type="incident" objects="37,22"/>
<relation type="incident" objects="22,36"/>
<relation type="incident" objects="36,21"/>
<relation type="incident" objects="21,19"/>
<relation type="incident" objects="19,20"/>
<relation type="incident" objects="20,34"/>
<relation type="incident" objects="34,26"/>
<relation type="incident" objects="26,25"/>
<relation type="incident" objects="25,33"/>
<relation type="incident" objects="33,17"/>
<relation type="incident" objects="17,15"/>
<relation type="incident" objects="15,32"/>
<relation type="incident" objects="32,13"/>
<relation type="incident" objects="13,31"/>
<relation type="incident" objects="31,14"/>
<relation type="incident" objects="14,30"/>
<relation type="incident" objects="30,11"/>
<relation type="incident" objects="11,29"/>
<relation type="incident" objects="29,0"/>
<relation type="incident" objects="0,1"/>
<relation type="incident" objects="1,2"/>
<relation type="incident" objects="2,40"/>
<relation type="incident" objects="40,9"/>
<relation type="incident" objects="9,6"/>
<relation type="incident" objects="6,24"/>
<relation type="incident" objects="9,8"/>
<relation type="incident" objects="8,35"/>
<relation type="incident" objects="19,35"/>
<relation type="incident" objects="2,41"/>
<relation type="incident" objects="41,10"/>
<relation type="incident" objects="10,11"/>
<relation type="incident" objects="10,42"/>
<relation type="incident" objects="42,27"/>
<relation type="incident" objects="27,12"/>
<relation type="incident" objects="12,14"/>
<relation type="incident" objects="27,43"/>
<relation type="incident" objects="43,12"/>
<relation type="incident" objects="43,16"/>
<relation type="incident" objects="16,55"/>
<relation type="incident" objects="12,55"/>
<relation type="incident" objects="16,54"/>
<relation type="incident" objects="54,28"/>
<relation type="incident" objects="28,9"/>
<relation type="incident" objects="28,18"/>
<relation type="incident" objects="18,53"/>
<relation type="incident" objects="53,7"/>
<relation type="incident" objects="7,26"/>
<relation type="incident" objects="53,13"/>
<relation type="neighbour" objects="46,45"/>
<relation type="neighbour" objects="45,44"/>
<relation type="neighbour" objects="44,50"/>
<relation type="neighbour" objects="48,50"/>
<relation type="neighbour" objects="48,52"/>
<relation type="neighbour" objects="52,47"/>
<relation type="neighbour" objects="47,48"/>
<relation type="neighbour" objects="48,51"/>
<relation type="neighbour" objects="51,50"/>
<relation type="neighbour" objects="51,49"/>
<relation type="neighbour" objects="49,48"/>
<relation type="neighbour" objects="49,50"/>
<relation type="neighbour" objects="49,44"/>
<relation type="neighbour" objects="49,45"/>
<relation type="neighbour" objects="49,46"/>
<relation type="neighbour" objects="49,47"/>
<relation type="access" objects="52,53,48"/>
<relation type="access" objects="48,31,48"/>
<relation type="access" objects="47,53,52"/>
<relation type="access" objects="48,54,49"/>
<relation type="access" objects="51,43,49"/>
<relation type="access" objects="49,42,50"/>
<relation type="access" objects="49,41,44"/>
<relation type="access" objects="49,40,45"/>
<relation type="access" objects="47,35,46"/>
<relation type="surround" objects="1,2,41,10,11,29,0,1,44"/>
<relation type="surround" objects="1,39,3,24,6,40,2,1,45"/>
<relation type="surround" objects="4,38,5,23,37,22,36,21,19,35,8,9,6,24,4,46"/>
<relation type="surround" objects="10,42,27,12,14,30,11,10,50"/>
<relation type="surround" objects="2,40,9,28,54,43,27,41,2,49"/>
<relation type="surround" objects="12,43,16,55,12,51"/>
<relation type="surround" objects="12,55,16,54,28,18,53,13,31,14,12,48"/>
<relation type="surround" objects="8,35,19,20,34,26,7,53,18,28,8,47"/>
<relation type="surround" objects="7,26,25,33,17,15,32,13,53,52"/>
</svg>