<?xml version="1.0" encoding="UTF-8"?><!DOCTYPE svg PUBLIC "-//W3C//DTD SVG 1.1//EN" "http://www.w3.org/Graphics/SVG/1.1/DTD/svg11.dtd">
<svg xmlns="http://www.w3.org/2000/svg" version="1.1">
<width>3508</width>
<height>2480</height>
<nclasslabel>50</nclasslabel>
<nclassappear>6</nclassappear>
<class>Bidet-1</class>
<class>Bidet-2</class>
<class>Bidet-3</class>
<class>Bidet-4</class>
<class>Door</class>
<class>Door-1</class>
<class>Door-23</class>
<class>Oven-1</class>
<class>Oven-2</class>
<class>Oven-3</class>
<class>Oven-4</class>
<class>Parking</class>
<class>Roof</class>
<class>Room</class>
<class>Separation</class>
<class>Sink-1</class>
<class>Sink-11</class>
<class>Sink-12</class>
<class>Sink-13</class>
<class>Sink-14</class>
<class>Sink-2</class>
<class>Sink-3</class>
<class>Sink-4</class>
<class>Sink-5</class>
<class>Sink-6</class>
<class>Sofa-1</class>
<class>Sofa-3</class>
<class>Sofa-4</class>
<class>Sofa-5</class>
<class>Sofa-6</class>
<class>Sofa-7</class>
<class>Sofa-8</class>
<class>Sofa-9</class>
<class>Stairs-1</class>
<class>Table-1</class>
<class>Table-2</class>
<class>Table-3</class>
<class>Table-4</class>
<class>Table-5</class>
<class>Table-6</class>
<class>Table-7</class>
<class>Text</class>
<class>Tub-1</class>
<class>Tub-3</class>
<class>TV-1</class>
<class>TV-2</class>
<class>Wall</class>
<class>Wall-1</class>
<class>Wallieee</class>
<class>Window</class>
<polygon class="Wall" fill="#AFD8F8" id="0" transcription="" points="728,643 1016,643 1016,650 732,650 " />
<polygon class="Wall" fill="#AFD8F8" id="1" transcription="" points="1238,714 1412,714 1413,755 1193,757 " />
<polygon class="Wall" fill="#AFD8F8" id="2" transcription="" points="1488,713 1627,711 1624,755 1488,755 " />
<polygon class="Wall" fill="#AFD8F8" id="3" transcription="" points="1755,714 1778,715 1779,737 1755,738 " />
<polygon class="Wall" fill="#AFD8F8" id="4" transcription="" points="2078,714 2078,737 1968,738 1967,714 " />
<polygon class="Wall" fill="#AFD8F8" id="5" transcription="" points="2377,714 2488,714 2488,738 2377,737 " />
<polygon class="Wall" fill="#AFD8F8" id="6" transcription="" points="721,731 762,730 763,868 722,867 " />
<polygon class="Wall" fill="#AFD8F8" id="7" transcription="" points="1607,755 1615,755 1613,953 1608,954 " />
<polygon class="Wall" fill="#AFD8F8" id="8" transcription="" points="1838,921 1869,921 1868,963 1838,963 " />
<polygon class="Wall" fill="#AFD8F8" id="9" transcription="" points="763,1139 1088,1138 1089,1145 763,1146 " />
<polygon class="Wall" fill="#AFD8F8" id="10" transcription="" points="2016,1346 2370,1347 2370,1369 2016,1369 " />
<polygon class="Wall" fill="#AFD8F8" id="11" transcription="" points="1649,2073 1690,2072 1689,2133 1648,2133 " />
<polygon class="Wall" fill="#AFD8F8" id="12" transcription="" points="930,201 937,243 977,241 1013,243 1036,247 1047,205 1015,200 972,197 " />
<polygon class="Wall" fill="#AFD8F8" id="13" transcription="" points="1130,287 1154,251 1120,231 1088,218 1046,204 1036,247 1067,255 1105,272 " />
<polygon class="Wall" fill="#AFD8F8" id="14" transcription="" points="819,240 843,277 871,263 897,253 937,244 930,201 894,210 865,219 " />
<polygon class="Wall" fill="#AFD8F8" id="15" transcription="" points="733,314 766,343 791,315 814,296 843,277 819,240 792,260 766,280 " />
<polygon class="Wall" fill="#AFD8F8" id="16" transcription="" points="676,418 715,433 730,395 745,370 765,343 732,314 714,340 695,371 " />
<polygon class="Wall" fill="#AFD8F8" id="17" transcription="" points="657,533 700,532 704,477 714,434 674,418 665,455 659,501 " />
<polygon class="Wall" fill="#AFD8F8" id="18" transcription="" points="694,671 731,649 713,606 704,571 700,533 657,533 662,575 670,620 " />
<polygon class="Wall" fill="#AFD8F8" id="19" transcription="" points="1230,398 1265,379 1252,352 1235,330 1201,354 " />
<polygon class="Wall" fill="#AFD8F8" id="20" transcription="" points="1154,251 1130,287 1157,306 1183,332 1199,354 1234,329 1213,303 1184,273 " />
<polygon class="Wall" fill="#AFD8F8" id="21" transcription="" points="1258,537 1257,547 1300,552 1301,539 " />
<polygon class="Wall" fill="#AFD8F8" id="22" transcription="" points="1229,648 1266,667 1284,625 1295,586 1299,553 1257,547 1252,582 1242,619 " />
<polygon class="Wall" fill="#AFD8F8" id="23" transcription="" points="1195,700 1224,725 1244,705 1266,668 1227,648 1215,672 " />
<polygon class="Wall" fill="#AFD8F8" id="24" transcription="" points="1195,956 1195,964 1388,964 1388,956 1266,956 " />
<polygon class="Wall" fill="#AFD8F8" id="25" transcription="" points="1271,757 1277,757 1276,954 1271,954 " />
<polygon class="Wall" fill="#AFD8F8" id="26" transcription="" points="1490,956 1489,963 1614,963 1613,956 " />
<polygon class="Wall" fill="#AFD8F8" id="27" transcription="" points="1306,1498 1303,1544 1542,1542 1542,1499 " />
<polygon class="Wall" fill="#AFD8F8" id="28" transcription="" points="1299,1062 1299,1070 1530,1069 1529,1062 " />
<polygon class="Wall" fill="#AFD8F8" id="29" transcription="" points="1184,1499 1183,1543 1213,1544 1213,1498 " />
<polygon class="Wall" fill="#AFD8F8" id="30" transcription="" points="1091,1499 1090,1542 762,1544 763,1498 " />
<polygon class="Wall" fill="#AFD8F8" id="31" transcription="" points="719,1546 763,1542 763,938 719,938 " />
<polygon class="Wall" fill="#AFD8F8" id="32" transcription="" points="911,747.5 910,755.5 762,756.5 761,748.5 " />
<polygon class="Wall" fill="#AFD8F8" id="33" transcription="" points="772,707 766,712 786,747 794,748 " />
<polygon class="Wall" fill="#AFD8F8" id="34" transcription="" points="1010,828 1016,827 1016,955 1009,955 " />
<polygon class="Wall" fill="#AFD8F8" id="35" transcription="" points="1010,806 1017,806 1018,757 1010,758 " />
<polygon class="Wall" fill="#AFD8F8" id="36" transcription="" points="1091,748 1091,756 1009,757 1009,748 " />
<polygon class="Wall" fill="#AFD8F8" id="37" transcription="" points="1093,956 1093,963 764,964 765,955 " />
<polygon class="Wall" fill="#AFD8F8" id="38" transcription="" points="1086,1062 1094,1062 1094,1145 1087,1144 " />
<polygon class="Wall" fill="#AFD8F8" id="39" transcription="" points="1194,1062 1201,1062 1200,1498 1194,1498 " />
<polygon class="Wall" fill="#AFD8F8" id="40" transcription="" points="1537,1063 1530,1062 1529,1498 1536,1499 " />
<polygon class="Wall" fill="#AFD8F8" id="41" transcription="" points="1972,920 2014,920 2015,962 1973,962 " />
<polygon class="Wall" fill="#AFD8F8" id="42" transcription="" points="1992,738 2014,738 2014,919 1991,919 " />
<polygon class="Wall" fill="#AFD8F8" id="43" transcription="" points="1990,1239 2019,1242 2019,960 1990,960 " />
<polygon class="Wall" fill="#AFD8F8" id="44" transcription="" points="1767,921 1713,921 1713,963 1768,963 " />
<polygon class="Wall" fill="#AFD8F8" id="45" transcription="" points="1696,714 1696,755 1755,756 1755,715 " />
<polygon class="Wall" fill="#AFD8F8" id="46" transcription="" points="1713,921 1755,921 1755,754 1713,754 " />
<polygon class="Wall" fill="#AFD8F8" id="47" transcription="" points="1636,1062 1636,1069 1672,1068 1873,1068 1874,1063 " />
<polygon class="Wall" fill="#AFD8F8" id="48" transcription="" points="1673,1093 1672,1067 1648,1068 1648,1092 " />
<polygon class="Wall" fill="#AFD8F8" id="49" transcription="" points="1636,1541 1649,1542 1649,1500 1636,1500 " />
<polygon class="Wall" fill="#AFD8F8" id="50" transcription="" points="1692,1554 1649,1553 1648,1497 1692,1498 " />
<polygon class="Wall" fill="#AFD8F8" id="51" transcription="" points="1866,1499 1866,1506 1691,1507 1690,1499 " />
<polygon class="Wall" fill="#AFD8F8" id="52" transcription="" points="1867,1312 1875,1312 1875,1507 1864,1506 " />
<polygon class="Wall" fill="#AFD8F8" id="53" transcription="" points="1799,1304 1800,1311 1874,1310 1872,1303 " />
<polygon class="Wall" fill="#AFD8F8" id="54" transcription="" points="1790,1311 1797,1310 1798,1068 1789,1068 " />
<polygon class="Wall" fill="#AFD8F8" id="55" transcription="" points="1992,1340 1991,1370 2016,1369 2016,1339 " />
<polygon class="Wall" fill="#AFD8F8" id="56" transcription="" points="2392,1340 2368,1341 2368,1369 2393,1369 " />
<polygon class="Wall" fill="#AFD8F8" id="57" transcription="" points="2464,1068 2439,1065 2440,738 2464,738 " />
<polygon class="Wall" fill="#AFD8F8" id="58" transcription="" points="2440,1109 2440,1086 2392,1086 2393,1110 " />
<polygon class="Wall" fill="#AFD8F8" id="59" transcription="" points="2370,1240 2393,1240 2392,1086 2369,1086 " />
<polygon class="Wall" fill="#AFD8F8" id="60" transcription="" points="2476,1111 2475,1067 2439,1067 2440,1109 " />
<polygon class="Wall" fill="#AFD8F8" id="61" transcription="" points="2579,1363 2579,1370 2394,1370 2394,1362 " />
<polygon class="Wall" fill="#AFD8F8" id="62" transcription="" points="2547,1067 2547,1110 2952,1110 2952,1067 " />
<polygon class="Wall" fill="#AFD8F8" id="63" transcription="" points="2576,1261 2583,1261 2583,1110 2575,1109 " />
<polygon class="Wall" fill="#AFD8F8" id="64" transcription="" points="2972,1067 2995,1068 2995,1046 2972,1045 " />
<polygon class="Wall" fill="#AFD8F8" id="65" transcription="" points="2954,1204 2995,1205 2995,1067 2952,1067 " />
<polygon class="Wall" fill="#AFD8F8" id="66" transcription="" points="2953,1346 2996,1346 2996,1440 2953,1439 " />
<polygon class="Wall" fill="#AFD8F8" id="67" transcription="" points="2858.5,1438.5 2860.5,1485.5 2969.5,1481.5 2969.5,1439.5 " />
<polygon class="Wall" fill="#AFD8F8" id="68" transcription="" points="2971,1506 2995,1506 2996,1440 2970,1439 " />
<polygon class="Wall" fill="#AFD8F8" id="69" transcription="" points="2716,1440 2764,1440 2764,1482 2716,1482 " />
<polygon class="Wall" fill="#AFD8F8" id="70" transcription="" points="2717,1600 2759,1601 2761,1483 2717,1482 " />
<polygon class="Wall" fill="#AFD8F8" id="71" transcription="" points="2718,1744 2759,1744 2760,1854 2717,1853 " />
<polygon class="Wall" fill="#AFD8F8" id="72" transcription="" points="2623,1853 2622,1896 2759,1895 2760,1854 " />
<polygon class="Wall" fill="#AFD8F8" id="73" transcription="" points="2970,1758 2995,1758 2996,1832 2970,1831 " />
<polygon class="Wall" fill="#AFD8F8" id="74" transcription="" points="2970,2085 2996,2085 2996,2106 2970,2105 " />
<polygon class="Wall" fill="#AFD8F8" id="75" transcription="" points="2946,2108 2947,2131 2996,2132 2996,2106 " />
<polygon class="Wall" fill="#AFD8F8" id="76" transcription="" points="2523,2107 2523,2131 2549,2133 2547,2107 " />
<polygon class="Wall" fill="#AFD8F8" id="77" transcription="" points="2528,1853 2529,1895 2480,1895 2480,1853 " />
<polygon class="Wall" fill="#AFD8F8" id="78" transcription="" points="2480,2094 2525,2094 2523,1892 2481,1892 " />
<polygon class="Wall" fill="#AFD8F8" id="79" transcription="" points="2221,2090 2222,2132 2522,2133 2523,2091 " />
<polygon class="Wall" fill="#AFD8F8" id="80" transcription="" points="1956,2091 1956,2131 1974,2131 1973,2090 " />
<polygon class="Wall" fill="#AFD8F8" id="81" transcription="" points="1708.5,2132.5 1708.5,2088.5 1687,2087 1686,2134 " />
<polygon class="Wall" fill="#AFD8F8" id="82" transcription="" points="1648,1801 1691,1801 1690,1825 1649,1824 " />
<polygon class="Wall" fill="#AFD8F8" id="83" transcription="" points="2948,714 2948,737 2971,737 2971,714 " />
<polygon class="Wall" fill="#AFD8F8" id="84" transcription="" points="2970,762 2995,762 2995,714 2970,713 " />
<polygon class="Window" fill="#F6BD0F" id="85" transcription="" points="714,866 764,871 798,926 781,934 763,934 713,937 " />
<polygon class="Door" fill="#8BBA00" id="86" transcription="" points="1184,1407 1184,1542 1091,1541 1089,1497 1099,1449 1132,1418 " />
<polygon class="Door" fill="#8BBA00" id="87" transcription="" points="1213,1407 1213,1543 1304,1540 1308,1493 1286,1439 1240,1409 " />
<polygon class="Door" fill="#8BBA00" id="88" transcription="" points="1543,1408 1543,1543 1635,1542 1637,1494 1619,1433 1574,1411 " />
<polygon class="Window" fill="#F6BD0F" id="89" transcription="" points="1695,1554 1697,1804 1640,1804 1639,1555 " />
<polygon class="Window" fill="#F6BD0F" id="90" transcription="" points="1694,2071 1642,2072 1640,1824 1694,1823 " />
<polygon class="Window" fill="#F6BD0F" id="91" transcription="" points="1955,2087 1956,2135 1707,2134 1710,2086 " />
<polygon class="Window" fill="#F6BD0F" id="92" transcription="" points="1976,2085 1978,2133 2223,2134 2220,2085 " />
<polygon class="Door" fill="#8BBA00" id="93" transcription="" points="2619,1765 2624,1897 2529,1898 2529,1849 2541,1802 2575,1770 " />
<polygon class="Window" fill="#F6BD0F" id="94" transcription="" points="2711,1602 2763,1601 2763,1745 2713,1744 " />
<polygon class="Door" fill="#8BBA00" id="95" transcription="" points="2853,1351 2857,1484 2768,1483 2761,1439 2779,1387 2808,1358 " />
<polygon class="Window" fill="#F6BD0F" id="96" transcription="" points="2948,1207 2999,1207 3002,1345 2949,1348 " />
<polygon class="Window" fill="#F6BD0F" id="97" transcription="" points="2534,1145 2478,1112 2476,1065 2544,1064 2548,1110 2544,1127 " />
<polygon class="Parking" fill="#FF8E46" id="98" transcription="" points="2082,751 2373,748 2374,696 2079,698 " />
<polygon class="Door" fill="#8BBA00" id="99" transcription="" points="2480,1333 2372,1338 2367,1242 2398,1242 2443,1253 2475,1292 " />
<polygon class="Door" fill="#8BBA00" id="100" transcription="" points="2532,1274 2492,1310 2485,1355 2583,1358 2581,1263 " />
<polygon class="Door" fill="#8BBA00" id="101" transcription="" points="2107,1338 1991,1336 1988,1241 2019,1240 2068,1257 2096,1289 " />
<polygon class="Door" fill="#8BBA00" id="102" transcription="" points="1972,1063 1969,920 1869,920 1869,962 1882,1023 1917,1050 " />
<polygon class="Window" fill="#F6BD0F" id="103" transcription="" points="1825,997 1769,963 1767,914 1839,915 1839,961 1835,984 " />
<polygon class="Window" fill="#F6BD0F" id="104" transcription="" points="1627,758 1625,707 1698,710 1694,759 " />
<polygon class="Window" fill="#F6BD0F" id="105" transcription="" points="1472,790 1412,758 1412,710 1485,708 1486,750 1481,768 " />
<polygon class="Door" fill="#8BBA00" id="106" transcription="" points="1395,869 1390,958 1485,961 1481,920 1441,878 " />
<polygon class="Door" fill="#8BBA00" id="107" transcription="" points="1621,1055 1615,963 1713,960 1708,1008 1672,1041 " />
<polygon class="Door" fill="#8BBA00" id="108" transcription="" points="1539,1163 1539,1064 1636,1064 1629,1114 1586,1152 " />
<polygon class="Door" fill="#8BBA00" id="109" transcription="" points="1204,1166 1203,1064 1297,1063 1296,1094 1262,1142 " />
<polygon class="Door" fill="#8BBA00" id="110" transcription="" points="1186,1159 1191,1061 1094,1062 1101,1113 1122,1145 " />
<polygon class="Door" fill="#8BBA00" id="111" transcription="" points="998,967 1094,966 1091,1062 1045,1053 1007,1017 " />
<polygon class="Door" fill="#8BBA00" id="112" transcription="" points="1187,869 1191,964 1094,964 1104,907 1141,874 " />
<polygon class="Door" fill="#8BBA00" id="113" transcription="" points="1186,842 1186,752 1097,748 1103,801 1132,831 " />
<polygon class="Door" fill="#8BBA00" id="114" transcription="" points="1006,849 1011,751 911,750 917,799 950,832 " />
<polygon class="Window" fill="#F6BD0F" id="115" transcription="" points="1272,386 1227,403 1255,537 1303,537 " />
<polygon class="Window" fill="#F6BD0F" id="116" transcription="" points="691,675 734,649 774,705 729,736 " />
<polygon class="Room" fill="#008E8E" id="117" transcription="" points="765,1496 1189,1493 1188,1067 1095,1065 1096,1152 766,1150 " />
<polygon class="Room" fill="#008E8E" id="118" transcription="" points="1528,1071 1520,1494 1204,1490 1208,1071 " />
<polygon class="Room" fill="#008E8E" id="119" transcription="" points="1789,1072 1676,1073 1680,1096 1646,1096 1646,1069 1542,1071 1540,1490 1860,1495 1865,1313 1788,1315 " />
<polygon class="Room" fill="#008E8E" id="120" transcription="" points="1606,969 1608,1058 1096,1055 1094,966 " />
<polygon class="Room" fill="#008E8E" id="121" transcription="" points="765,969 765,1135 1086,1132 1089,970 " />
<polygon class="Room" fill="#008E8E" id="122" transcription="" points="766,761 765,948 1003,949 1007,761 " />
<polygon class="Room" fill="#008E8E" id="123" transcription="" points="1022,760 1021,950 1266,952 1266,759 " />
<polygon class="Room" fill="#008E8E" id="124" transcription="" points="1281,757 1279,953 1603,950 1601,759 " />
<polygon class="Room" fill="#008E8E" id="125" transcription="" points="1614,955 1710,956 1708,757 1617,763 " />
<polygon class="Room" fill="#008E8E" id="126" transcription="" points="1880,1363 1985,1365 1985,966 1621,964 1625,1058 1879,1056 1879,1073 1803,1073 1801,1298 1882,1300 " />
<polygon class="Room" fill="#008E8E" id="127" transcription="" points="2437,740 2436,1083 2368,1083 2365,1342 2014,1342 2018,741 " />
<polygon class="Room" fill="#008E8E" id="128" transcription="" points="2586,1116 2583,1367 2711,1438 2952,1433 2948,1115 " />
<polygon class="Room" fill="#008E8E" id="129" transcription="" points="2395,1113 2395,1358 2576,1359 2573,1113 " />
<polygon class="Room" fill="#008E8E" id="130" transcription="" points="1697,1512 1693,2081 2475,2086 2473,1847 2711,1847 2711,1445 2580,1371 1879,1377 1877,1507 " />
<polygon class="Door" fill="#8BBA00" id="131" transcription="" points="1109,746 1012,746 1015,652 1064,665 1093,691 " />
<polygon class="Door" fill="#8BBA00" id="132" transcription="" points="1000,649 904,652 903,748 957,738 994,700 " />
<polygon class="Room" fill="#008E8E" id="133" transcription="" points="737,651 794,741 1007,746 1004,646 " />
<polygon class="Room" fill="#008E8E" id="134" transcription="" points="728,649 705,580 703,531 703,471 715,426 730,391 745,370 809,292 912,250 1010,249 1107,275 1185,339 1224,396 1255,537 1233,626 1190,698 1221,729 1182,744 1013,735 1006,640 " />
<polygon class="Separation" fill="#D64646" id="135" transcription="" points="1873,1352 1987,1352 1987,1375 1873,1375 " />
<polygon class="Separation" fill="#D64646" id="136" transcription="" points="2577,1373 2715,1455 2725,1441 2588,1357 " />
<polygon class="Separation" fill="#D64646" id="137" transcription="" points="1600,962 1619,962 1619,1056 1600,1056 " />
<relation type="outerP" objects="116,18,17,16,15,14,12,13,20,19,115,22,23,1,105,2,104,45,46,44,103,8,102,41,42,4,98,5,57,60,97,62,65,96,66,67,95,69,70,94,71,72,93,77,78,79,92,80,91,91,81,11,90,82,89,50,49,88,27,87,29,86,30,31,85,6"/>
<relation type="incident" objects="116,18"/>
<relation type="incident" objects="18,17"/>
<relation type="incident" objects="17,16"/>
<relation type="incident" objects="16,15"/>
<relation type="incident" objects="15,14"/>
<relation type="incident" objects="14,12"/>
<relation type="incident" objects="12,13"/>
<relation type="incident" objects="13,20"/>
<relation type="incident" objects="20,19"/>
<relation type="incident" objects="19,115"/>
<relation type="incident" objects="115,22"/>
<relation type="incident" objects="23,22"/>
<relation type="incident" objects="23,1"/>
<relation type="incident" objects="1,105"/>
<relation type="incident" objects="105,2"/>
<relation type="incident" objects="2,104"/>
<relation type="incident" objects="104,45"/>
<relation type="incident" objects="45,46"/>
<relation type="incident" objects="46,44"/>
<relation type="incident" objects="45,3"/>
<relation type="incident" objects="44,103"/>
<relation type="incident" objects="8,102"/>
<relation type="incident" objects="102,41"/>
<relation type="incident" objects="41,42"/>
<relation type="incident" objects="42,4"/>
<relation type="incident" objects="4,98"/>
<relation type="incident" objects="98,5"/>
<relation type="incident" objects="5,57"/>
<relation type="incident" objects="57,60"/>
<relation type="incident" objects="60,97"/>
<relation type="incident" objects="97,62"/>
<relation type="incident" objects="62,65"/>
<relation type="incident" objects="65,96"/>
<relation type="incident" objects="96,66"/>
<relation type="incident" objects="66,68"/>
<relation type="incident" objects="68,67"/>
<relation type="incident" objects="67,95"/>
<relation type="incident" objects="95,69"/>
<relation type="incident" objects="69,70"/>
<relation type="incident" objects="70,94"/>
<relation type="incident" objects="94,71"/>
<relation type="incident" objects="71,72"/>
<relation type="incident" objects="72,93"/>
<relation type="incident" objects="93,77"/>
<relation type="incident" objects="77,78"/>
<relation type="incident" objects="78,79"/>
<relation type="incident" objects="79,76"/>
<relation type="incident" objects="79,92"/>
<relation type="incident" objects="92,80"/>
<relation type="incident" objects="80,91"/>
<relation type="incident" objects="11,90"/>
<relation type="incident" objects="91,81"/>
<relation type="incident" objects="81,11"/>
<relation type="incident" objects="44,103"/>
<relation type="incident" objects="103,8"/>
<relation type="incident" objects="8,102"/>
<relation type="incident" objects="102,41"/>
<relation type="incident" objects="65,64"/>
<relation type="incident" objects="90,82"/>
<relation type="incident" objects="82,89"/>
<relation type="incident" objects="89,50"/>
<relation type="incident" objects="50,49"/>
<relation type="incident" objects="49,88"/>
<relation type="incident" objects="88,27"/>
<relation type="incident" objects="27,87"/>
<relation type="incident" objects="87,29"/>
<relation type="incident" objects="29,86"/>
<relation type="incident" objects="86,30"/>
<relation type="incident" objects="30,31"/>
<relation type="incident" objects="31,85"/>
<relation type="incident" objects="85,6"/>
<relation type="incident" objects="6,116"/>
<relation type="incident" objects="116,33"/>
<relation type="incident" objects="33,32"/>
<relation type="incident" objects="32,6"/>
<relation type="incident" objects="32,132"/>
<relation type="incident" objects="132,0"/>
<relation type="incident" objects="0,18"/>
<relation type="incident" objects="0,116"/>
<relation type="incident" objects="0,131"/>
<relation type="incident" objects="131,36"/>
<relation type="incident" objects="36,114"/>
<relation type="incident" objects="114,32"/>
<relation type="incident" objects="35,36"/>
<relation type="incident" objects="35,114"/>
<relation type="incident" objects="36,113"/>
<relation type="incident" objects="113,1"/>
<relation type="incident" objects="35,34"/>
<relation type="incident" objects="34,37"/>
<relation type="incident" objects="37,31"/>
<relation type="incident" objects="37,112"/>
<relation type="incident" objects="112,24"/>
<relation type="incident" objects="24,25"/>
<relation type="incident" objects="25,1"/>
<relation type="incident" objects="31,9"/>
<relation type="incident" objects="9,38"/>
<relation type="incident" objects="38,111"/>
<relation type="incident" objects="111,37"/>
<relation type="incident" objects="37,112"/>
<relation type="incident" objects="112,24"/>
<relation type="incident" objects="38,110"/>
<relation type="incident" objects="110,39"/>
<relation type="incident" objects="39,29"/>
<relation type="incident" objects="39,109"/>
<relation type="incident" objects="109,28"/>
<relation type="incident" objects="28,40"/>
<relation type="incident" objects="40,27"/>
<relation type="incident" objects="24,106"/>
<relation type="incident" objects="106,26"/>
<relation type="incident" objects="26,7"/>
<relation type="incident" objects="7,2"/>
<relation type="incident" objects="26,107"/>
<relation type="incident" objects="107,44"/>
<relation type="incident" objects="7,107"/>
<relation type="incident" objects="40,108"/>
<relation type="incident" objects="108,47"/>
<relation type="incident" objects="47,48"/>
<relation type="incident" objects="47,54"/>
<relation type="incident" objects="54,53"/>
<relation type="incident" objects="53,52"/>
<relation type="incident" objects="52,51"/>
<relation type="incident" objects="51,50"/>
<relation type="incident" objects="135,52"/>
<relation type="incident" objects="135,55"/>
<relation type="incident" objects="55,101"/>
<relation type="incident" objects="101,43"/>
<relation type="incident" objects="43,41"/>
<relation type="incident" objects="55,10"/>
<relation type="incident" objects="10,56"/>
<relation type="incident" objects="56,99"/>
<relation type="incident" objects="99,59"/>
<relation type="incident" objects="59,58"/>
<relation type="incident" objects="58,60"/>
<relation type="incident" objects="62,63"/>
<relation type="incident" objects="63,100"/>
<relation type="incident" objects="100,61"/>
<relation type="incident" objects="61,56"/>
<relation type="incident" objects="61,136"/>
<relation type="incident" objects="136,69"/>
<relation type="incident" objects="136,100"/>
<relation type="neighbour" objects="134,133"/>
<relation type="neighbour" objects="133,122"/>
<relation type="neighbour" objects="122,123"/>
<relation type="neighbour" objects="123,134"/>
<relation type="neighbour" objects="122,121"/>
<relation type="neighbour" objects="121,117"/>
<relation type="neighbour" objects="117,120"/>
<relation type="neighbour" objects="120,121"/>
<relation type="neighbour" objects="120,123"/>
<relation type="neighbour" objects="121,123"/>
<relation type="neighbour" objects="123,124"/>
<relation type="neighbour" objects="124,120"/>
<relation type="neighbour" objects="120,118"/>
<relation type="neighbour" objects="118,117"/>
<relation type="neighbour" objects="118,119"/>
<relation type="neighbour" objects="119,130"/>
<relation type="neighbour" objects="130,126"/>
<relation type="neighbour" objects="126,120"/>
<relation type="neighbour" objects="119,120"/>
<relation type="neighbour" objects="119,126"/>
<relation type="neighbour" objects="126,127"/>
<relation type="neighbour" objects="127,130"/>
<relation type="neighbour" objects="130,129"/>
<relation type="neighbour" objects="129,127"/>
<relation type="neighbour" objects="129,128"/>
<relation type="neighbour" objects="128,130"/>
<relation type="neighbour" objects="126,125"/>
<relation type="neighbour" objects="125,124"/>
<relation type="access" objects="134,132,133"/>
<relation type="access" objects="133,131,134"/>
<relation type="access" objects="133,114,122"/>
<relation type="access" objects="134,113,123"/>
<relation type="access" objects="120,112,123"/>
<relation type="access" objects="120,111,121"/>
<relation type="access" objects="117,110,120"/>
<relation type="access" objects="120,109,118"/>
<relation type="access" objects="120,106,124"/>
<relation type="access" objects="125,107,126"/>
<relation type="incident" objects="7,137"/>
<relation type="incident" objects="47,137"/>
<relation type="incident" objects="137,108"/>
<relation type="access" objects="120,137,126"/>
<relation type="access" objects="126,102,126"/>
<relation type="access" objects="120,108,119"/>
<relation type="access" objects="117,86,117"/>
<relation type="access" objects="118,87,118"/>
<relation type="access" objects="119,88,119"/>
<relation type="access" objects="126,135,130"/>
<relation type="access" objects="126,101,127"/>
<relation type="access" objects="127,99,129"/>
<relation type="access" objects="128,100,129"/>
<relation type="access" objects="128,95,128"/>
<relation type="access" objects="130,93,130"/>
<relation type="access" objects="130,136,128"/>
<relation type="surround" objects="18,17,16,15,14,12,13,20,19,115,22,23,113,36,131,0,18,134"/>
<relation type="surround" objects="0,131,36,114,32,33,116,0,133"/>
<relation type="surround" objects="32,114,35,34,37,85,6,32,122"/>
<relation type="surround" objects="36,113,1,25,24,112,37,34,35,36,123"/>
<relation type="surround" objects="37,111,38,9,31,37,121"/>
<relation type="surround" objects="9,38,110,39,86,30,31,9,117"/>
<relation type="surround" objects="1,105,2,7,26,106,24,25,1,124"/>
<relation type="surround" objects="2,104,45,46,44,107,7,2,125"/>
<relation type="surround" objects="107,44,103,8,102,41,43,101,135,52,53,54,47,137,107,126"/>
<relation type="surround" objects="112,24,106,26,137,108,28,109,39,110,38,111,37,112,120"/>
<relation type="surround" objects="109,28,40,27,87,29,39,109,118"/>
<relation type="surround" objects="108,47,54,53,52,51,50,49,88,40,108,119"/>
<relation type="surround" objects="4,98,5,57,60,58,59,99,56,10,101,43,41,42,4,127"/>
<relation type="surround" objects="58,60,97,63,100,61,56,99,59,58,129"/>
<relation type="surround" objects="62,65,96,66,67,95,69,136,100,63,62,128"/>
<relation type="surround" objects="51,52,135,55,10,61,136,69,70,94,71,72,93,77,78,79,92,80,91,81,11,90,82,89,50,51,130"/>
</svg>