<?xml version="1.0" encoding="UTF-8"?><!DOCTYPE svg PUBLIC "-//W3C//DTD SVG 1.1//EN" "http://www.w3.org/Graphics/SVG/1.1/DTD/svg11.dtd">
<svg xmlns="http://www.w3.org/2000/svg" version="1.1">
<width>3508</width>
<height>2480</height>
<nclasslabel>50</nclasslabel>
<nclassappear>6</nclassappear>
<class>Bidet-1</class>
<class>Bidet-2</class>
<class>Bidet-3</class>
<class>Bidet-4</class>
<class>Door</class>
<class>Door-1</class>
<class>Door-23</class>
<class>Oven-1</class>
<class>Oven-2</class>
<class>Oven-3</class>
<class>Oven-4</class>
<class>Parking</class>
<class>Roof</class>
<class>Room</class>
<class>Separation</class>
<class>Sink-1</class>
<class>Sink-11</class>
<class>Sink-12</class>
<class>Sink-13</class>
<class>Sink-14</class>
<class>Sink-2</class>
<class>Sink-3</class>
<class>Sink-4</class>
<class>Sink-5</class>
<class>Sink-6</class>
<class>Sofa-1</class>
<class>Sofa-3</class>
<class>Sofa-4</class>
<class>Sofa-5</class>
<class>Sofa-6</class>
<class>Sofa-7</class>
<class>Sofa-8</class>
<class>Sofa-9</class>
<class>Stairs-1</class>
<class>Table-1</class>
<class>Table-2</class>
<class>Table-3</class>
<class>Table-4</class>
<class>Table-5</class>
<class>Table-6</class>
<class>Table-7</class>
<class>Text</class>
<class>Tub-1</class>
<class>Tub-3</class>
<class>TV-1</class>
<class>TV-2</class>
<class>Wall</class>
<class>Wall-1</class>
<class>Wallieee</class>
<class>Window</class>
<polygon class="Wall" fill="#AFD8F8" id="0" transcription="" points="1559,921 1583,920 1584,1179 1559,1179 " />
<polygon class="Wall" fill="#AFD8F8" id="1" transcription="" points="1233.5,1178 1233.5,1205 1581.5,1205 1582.5,1178 " />
<polygon class="Wall" fill="#AFD8F8" id="2" transcription="" points="1558.5,541 1582.5,541 1582.5,810 1559.5,807 " />
<polygon class="Wall" fill="#AFD8F8" id="3" transcription="" points="1736,561 1737,520 1583,519 1584,561 " />
<polygon class="Wall" fill="#AFD8F8" id="4" transcription="" points="1545.5,519 1545.5,542 1582.5,543 1582.5,519 " />
<polygon class="Wall" fill="#AFD8F8" id="5" transcription="" points="1520,1728 1520,1771 1629,1771 1628,1729 " />
<polygon class="Wall" fill="#AFD8F8" id="6" transcription="" points="1363,1728 1362,1773 1252,1773 1253,1729 " />
<polygon class="Wall" fill="#AFD8F8" id="7" transcription="" points="1672,1535 1671,1772 1629,1771 1630,1535 " />
<polygon class="Wall" fill="#AFD8F8" id="8" transcription="" points="1692.5,559.5 1693.5,807.5 1701.5,808.5 1701.5,560.5 " />
<polygon class="Wall" fill="#AFD8F8" id="9" transcription="" points="1682,1492 1682,1535 1628,1535 1629,1493 " />
<polygon class="Wall" fill="#AFD8F8" id="10" transcription="" points="1788,1493 1788,1537 1965,1535 1966,1494 " />
<polygon class="Wall" fill="#AFD8F8" id="11" transcription="" points="1966,1447 2009,1446 2010,1535 1964,1536 " />
<polygon class="Wall" fill="#AFD8F8" id="12" transcription="" points="1253,1322 1209,1321 1209,1773 1253,1772 " />
<polygon class="Wall" fill="#AFD8F8" id="13" transcription="" points="1210,907 1236,907 1234,1204 1221.5,1204 1209,1204 " />
<polygon class="Wall" fill="#AFD8F8" id="14" transcription="" points="1233.5,544 1233.5,518 1246.5,518 1246.5,544 " />
<polygon class="Wall" fill="#AFD8F8" id="15" transcription="" points="1209,519 1235,518 1236,819 1210,819 " />
<polygon class="Wall" fill="#AFD8F8" id="16" transcription="" points="1813,803 1812,809 1936,809 1936,801 " />
<polygon class="Wall" fill="#AFD8F8" id="17" transcription="" points="1936,809 1936,561 1943,561 1943,809 " />
<polygon class="Wall" fill="#AFD8F8" id="18" transcription="" points="1818.5,560 1819.5,517 2201.5,518 2199.5,560 " />
<polygon class="Wall" fill="#AFD8F8" id="19" transcription="" points="2202,685 2246,685 2245,519 2201,518 " />
<polygon class="Wall" fill="#AFD8F8" id="20" transcription="" points="2200,920 2200,926 1801,926 1802,921 " />
<polygon class="Wall" fill="#AFD8F8" id="21" transcription="" points="2201,793 2245,793 2245,1038 2202,1038 " />
<polygon class="Wall" fill="#AFD8F8" id="22" transcription="" points="2201,1147 2246,1148 2246,1255 2201,1255 " />
<polygon class="Wall" fill="#AFD8F8" id="23" transcription="" points="2126,1256 2126,1299 2245,1299 2245,1255 " />
<polygon class="Wall" fill="#AFD8F8" id="24" transcription="" points="2018,1257 2018,1299 1966,1298 1966,1256 " />
<polygon class="Wall" fill="#AFD8F8" id="25" transcription="" points="1966,1338 2010,1339 2009,1298 1967,1299 " />
<polygon class="Wall" fill="#AFD8F8" id="26" transcription="" points="1690.5,918.5 1689.5,926.5 1581.5,925.5 1581.5,919.5 " />
<polygon class="Parking" fill="#F6BD0F" id="27" transcription="" points="1248,553 1246,502 1545,505 1541,553 " />
<polygon class="Window" fill="#8BBA00" id="28" transcription="" points="1279,833 1239,902 1205,901 1204,824 1240,822 1257,826 " />
<polygon class="Door" fill="#FF8E46" id="29" transcription="" points="1345,1218 1208,1212 1203,1319 1258,1321 1302,1307 1346,1260 " />
<polygon class="Window" fill="#8BBA00" id="30" transcription="" points="1368,1656 1368,1773 1518,1774 1514,1654 1462,1669 1440,1705 1413,1667 " />
<polygon class="Door" fill="#FF8E46" id="31" transcription="" points="1784,1395 1787,1536 1681,1536 1684,1485 1697,1435 1737,1402 " />
<polygon class="Window" fill="#8BBA00" id="32" transcription="" points="1916,1357 1962,1447 2015,1442 2016,1341 1959,1341 1936,1342 " />
<polygon class="Door" fill="#FF8E46" id="33" transcription="" points="2122,1160 2125,1300 2017,1299 2017,1254 2035,1201 2073,1167 " />
<polygon class="Wall" fill="#AFD8F8" id="34" transcription="" points="2220,1747 2242,1748 2243,1771 2222,1769 " />
<polygon class="Window" fill="#8BBA00" id="35" transcription="" points="2153,1058.5 2200,1143.5 2251,1143.5 2250,1038.5 2195,1037.5 2167,1043.5 " />
<polygon class="Window" fill="#8BBA00" id="36" transcription="" points="1749,597 1817,559 1816,512 1736,510 1739,560 1740,580 " />
<polygon class="Window" fill="#8BBA00" id="37" transcription="" points="2152,705.5 2198,791.5 2249,792.5 2249,689.5 2202,685.5 2174,694.5 " />
<polygon class="Door" fill="#FF8E46" id="38" transcription="" points="1923,917 1814,914 1816,809 1877,820 1911,865 " />
<polygon class="Door" fill="#FF8E46" id="39" transcription="" points="1703,699 1700,805 1816,807 1804,762 1759,711 " />
<polygon class="Door" fill="#FF8E46" id="40" transcription="" points="1581,698 1582,810 1697,810 1683,752 1639,705 " />
<polygon class="Door" fill="#FF8E46" id="41" transcription="" points="1688.5,917.5 1574.5,919.5 1569.5,804.5 1628.5,817.5 1673.5,862.5 " />
<polygon class="Door" fill="#FF8E46" id="42" transcription="" points="1693.5,1024.5 1690.5,921.5 1799.5,922.5 1792.5,974.5 1742.5,1015.5 " />
<polygon class="Room" fill="#008E8E" id="43" transcription="" points="1238,554 1237,1173 1555,1173 1553,553 " />
<polygon class="Room" fill="#008E8E" id="44" transcription="" points="1688.5,563 1586.5,564 1585.5,803 1691.5,803 " />
<polygon class="Room" fill="#008E8E" id="45" transcription="" points="1933,565 1931,794 1704,798 1704,564 " />
<polygon class="Room" fill="#008E8E" id="46" transcription="" points="2194.5,566.5 1945.5,564.5 1947.5,812.5 1816.5,813.5 1817.5,911.5 2195.5,911.5 " />
<polygon class="Room" fill="#008E8E" id="47" transcription="" points="1812,813 1812,914 1574,914 1574,813 " />
<polygon class="Room" fill="#008E8E" id="48" transcription="" points="1969,929 1970,1252 2200.5,1252 2197.5,928 " />
<polygon class="Room" fill="#008E8E" id="49" transcription="" points="1255,1215.5 1256,1723.5 1625,1723.5 1615,1216 " />
<polygon class="Separation" fill="#D64646" id="50" transcription="" points="1950,929 1974,927 1974,1253 1950,1253 " />
<polygon class="Room" fill="#008E8E" id="51" transcription="" points="1585,932 1949,934 1963,1488 1633,1490 1633,1194 1589,1194 " />
<polygon class="Separation" fill="#D64646" id="52" transcription="" points="1585,1196 1637,1194 1637,1494 1621,1492 1623,1216 1585,1216 " />
<relation type="incident" objects="27,4"/>
<relation type="incident" objects="4,3"/>
<relation type="incident" objects="3,36"/>
<relation type="incident" objects="36,18"/>
<relation type="incident" objects="18,19"/>
<relation type="incident" objects="19,37"/>
<relation type="incident" objects="37,21"/>
<relation type="incident" objects="21,35"/>
<relation type="incident" objects="35,22"/>
<relation type="incident" objects="22,23"/>
<relation type="incident" objects="23,33"/>
<relation type="incident" objects="24,33"/>
<relation type="incident" objects="24,25"/>
<relation type="incident" objects="25,32"/>
<relation type="incident" objects="32,11"/>
<relation type="incident" objects="11,10"/>
<relation type="incident" objects="10,31"/>
<relation type="incident" objects="31,9"/>
<relation type="incident" objects="9,7"/>
<relation type="incident" objects="7,5"/>
<relation type="incident" objects="5,30"/>
<relation type="incident" objects="30,6"/>
<relation type="incident" objects="6,12"/>
<relation type="incident" objects="12,29"/>
<relation type="incident" objects="29,13"/>
<relation type="incident" objects="13,28"/>
<relation type="incident" objects="28,15"/>
<relation type="incident" objects="15,14"/>
<relation type="incident" objects="14,27"/>
<relation type="incident" objects="4,2"/>
<relation type="incident" objects="3,2"/>
<relation type="incident" objects="40,2"/>
<relation type="incident" objects="2,41"/>
<relation type="incident" objects="3,8"/>
<relation type="incident" objects="8,40"/>
<relation type="incident" objects="8,39"/>
<relation type="incident" objects="39,16"/>
<relation type="incident" objects="16,17"/>
<relation type="incident" objects="18,17"/>
<relation type="incident" objects="16,38"/>
<relation type="incident" objects="38,20"/>
<relation type="incident" objects="20,42"/>
<relation type="incident" objects="42,26"/>
<relation type="incident" objects="26,41"/>
<relation type="incident" objects="41,0"/>
<relation type="incident" objects="26,0"/>
<relation type="incident" objects="0,1"/>
<relation type="neighbour" objects="43,44"/>
<relation type="neighbour" objects="44,45"/>
<relation type="neighbour" objects="45,46"/>
<relation type="neighbour" objects="46,47"/>
<relation type="neighbour" objects="44,47"/>
<relation type="neighbour" objects="47,43"/>
<relation type="neighbour" objects="45,47"/>
<relation type="neighbour" objects="46,48"/>
<relation type="neighbour" objects="43,49"/>
<relation type="access" objects="43,41,47"/>
<relation type="access" objects="44,40,47"/>
<relation type="access" objects="47,39,45"/>
<relation type="access" objects="47,38,46"/>
<relation type="access" objects="49,52,51"/>
<relation type="access" objects="51,50,48"/>
<relation type="access" objects="48,33,48"/>
<relation type="access" objects="51,31,51"/>
<relation type="access" objects="49,29,49"/>
<relation type="access" objects="47,42,51"/>
<relation type="neighbour" objects="49,51"/>
<relation type="neighbour" objects="51,43"/>
<relation type="neighbour" objects="51,47"/>
<relation type="neighbour" objects="51,48"/>
<relation type="neighbour" objects="51,46"/>
<relation type="outerP" objects="14,27,4,3,36,18,19,37,21,35,22,23,33,24,25,32,11,10,31,9,7,5,30,6,12,29,13,28,15"/>
<relation type="surround" objects="27,4,2,41,0,1,13,28,15,14,27,43"/>
<relation type="surround" objects="3,8,40,2,3,44"/>
<relation type="surround" objects="3,36,18,17,16,39,8,3,45"/>
<relation type="surround" objects="18,19,37,21,20,38,16,17,18,46"/>
<relation type="surround" objects="2,40,8,39,16,38,20,42,26,41,2,47"/>
<relation type="surround" objects="1,52,7,5,30,6,12,29,1,49"/>
<relation type="surround" objects="26,42,20,50,24,25,32,11,10,31,9,52,0,26,51"/>
<relation type="surround" objects="20,21,35,22,23,33,24,50,20,48"/>
<relation type="incident" objects="29,1"/>
<relation type="incident" objects="1,13"/>
<relation type="incident" objects="13,29"/>
</svg>