<?xml version="1.0" encoding="UTF-8"?><!DOCTYPE svg PUBLIC "-//W3C//DTD SVG 1.1//EN" "http://www.w3.org/Graphics/SVG/1.1/DTD/svg11.dtd">
<svg xmlns="http://www.w3.org/2000/svg" version="1.1">
<width>2479</width>
<height>3508</height>
<nclasslabel>50</nclasslabel>
<nclassappear>5</nclassappear>
<class>Bidet-1</class>
<class>Bidet-2</class>
<class>Bidet-3</class>
<class>Bidet-4</class>
<class>Door</class>
<class>Door-1</class>
<class>Door-23</class>
<class>Oven-1</class>
<class>Oven-2</class>
<class>Oven-3</class>
<class>Oven-4</class>
<class>Parking</class>
<class>Roof</class>
<class>Room</class>
<class>Separation</class>
<class>Sink-1</class>
<class>Sink-11</class>
<class>Sink-12</class>
<class>Sink-13</class>
<class>Sink-14</class>
<class>Sink-2</class>
<class>Sink-3</class>
<class>Sink-4</class>
<class>Sink-5</class>
<class>Sink-6</class>
<class>Sofa-1</class>
<class>Sofa-3</class>
<class>Sofa-4</class>
<class>Sofa-5</class>
<class>Sofa-6</class>
<class>Sofa-7</class>
<class>Sofa-8</class>
<class>Sofa-9</class>
<class>Stairs-1</class>
<class>Table-1</class>
<class>Table-2</class>
<class>Table-3</class>
<class>Table-4</class>
<class>Table-5</class>
<class>Table-6</class>
<class>Table-7</class>
<class>Text</class>
<class>Tub-1</class>
<class>Tub-3</class>
<class>TV-1</class>
<class>TV-2</class>
<class>Wall</class>
<class>Wall-1</class>
<class>Wallieee</class>
<class>Window</class>
<polygon class="Wall" fill="#AFD8F8" id="0" transcription="" points="366,542 1027,541 1027,566 366,567 " />
<polygon class="Wall" fill="#AFD8F8" id="1" transcription="" points="341,934 365,934 366,1226 342,1226 " />
<polygon class="Wall" fill="#AFD8F8" id="2" transcription="" points="1091,1209 1333,1208 1333,1216 1091,1216 " />
<polygon class="Wall" fill="#AFD8F8" id="3" transcription="" points="1511,1021 1516,1021 1516,1207 1510,1207 " />
<polygon class="Wall" fill="#AFD8F8" id="4" transcription="" points="1616,1205 1624,1205 1624,1521 1616,1521 " />
<polygon class="Wall" fill="#AFD8F8" id="5" transcription="" points="1209,1521 1340,1522 1341,1530 1209,1528 " />
<polygon class="Wall" fill="#AFD8F8" id="6" transcription="" points="1511,1521 1518,1522 1517,1894 1510,1894 " />
<polygon class="Wall" fill="#AFD8F8" id="7" transcription="" points="1656,2191 1676,2171 1719,2173 1721,2213 1695,2215 1686,2222 " />
<polygon class="Wall" fill="#AFD8F8" id="8" transcription="" points="1933,2172 2019,2172 2019,2214 1933,2213 " />
<polygon class="Wall" fill="#AFD8F8" id="9" transcription="" points="1994,2491 2019,2490 2019,2531 1995,2531 " />
<polygon class="Wall" fill="#AFD8F8" id="10" transcription="" points="1049,2519 1074,2520 1074,2557 1049,2557 " />
<polygon class="Wall" fill="#AFD8F8" id="11" transcription="" points="1552,543 2018,542 2018,584 1552,584 " />
<polygon class="Wall" fill="#AFD8F8" id="12" transcription="" points="1051,1019 1516,1021 1516,1028 1051,1028 " />
<polygon class="Wall" fill="#AFD8F8" id="13" transcription="" points="1403,585 1411,585 1411,913 1405,913 " />
<polygon class="Wall" fill="#AFD8F8" id="14" transcription="" points="1616,584.5 1624,584.5 1623,919.5 1616,919.5 " />
<polygon class="Wall" fill="#AFD8F8" id="15" transcription="" points="1794,1097 1976,1096 1976,1103 1795,1104 " />
<polygon class="Wall" fill="#AFD8F8" id="16" transcription="" points="1976,1776 2019,1777 2019,1385 1976,1385 " />
<polygon class="Wall" fill="#AFD8F8" id="17" transcription="" points="1975,1918 2020,1917 2019,2175 1974,2174 " />
<polygon class="Wall" fill="#AFD8F8" id="18" transcription="" points="2019,2256 1995,2256 1994,2213 2019,2213 " />
<polygon class="Wall" fill="#AFD8F8" id="19" transcription="" points="1954,2531 1954,2557 2019,2557 2019,2531 " />
<polygon class="Wall" fill="#AFD8F8" id="20" transcription="" points="1444,2532 1445,2558 1624,2557 1624,2532 " />
<polygon class="Wall" fill="#AFD8F8" id="21" transcription="" points="1115,2557 1115,2532 1074,2531 1074,2557 " />
<polygon class="Wall" fill="#AFD8F8" id="22" transcription="" points="1177,2390 1177,2349 1092,2349 1092,2390 " />
<polygon class="Wall" fill="#AFD8F8" id="23" transcription="" points="1050,2403 1050,2391 1074,2391 1073,2403 " />
<polygon class="Wall" fill="#AFD8F8" id="24" transcription="" points="1092,2195 1050,2195 1050,2391 1092,2390 " />
<polygon class="Wall" fill="#AFD8F8" id="25" transcription="" points="1091,1893 1091,1900 1339,1900 1339,1895 " />
<polygon class="Wall" fill="#AFD8F8" id="26" transcription="" points="1168,1476 1210,1475 1209,1528 1169,1528 " />
<polygon class="Wall" fill="#AFD8F8" id="27" transcription="" points="1090,1487 1091,1528 1168,1528 1167,1487 " />
<polygon class="Wall" fill="#AFD8F8" id="28" transcription="" points="1049,1639 1092,1640 1092,1487 1048,1487 " />
<polygon class="Wall" fill="#AFD8F8" id="29" transcription="" points="1048,1783 1092,1783 1092,2054 1050,2054 " />
<polygon class="Wall" fill="#AFD8F8" id="30" transcription="" points="1389,2349 1389,2390 1517,2391 1498,2350 " />
<polygon class="Wall" fill="#AFD8F8" id="31" transcription="" points="1536,2371 1507,2340 1497,2350 1518,2391 " />
<polygon class="Wall" fill="#AFD8F8" id="32" transcription="" points="1440,1521 1440,1529 1511,1529 1511,1521 " />
<polygon class="Wall" fill="#AFD8F8" id="33" transcription="" points="1439,1894 1439,1901 1517,1901 1517,1894 " />
<polygon class="Wall" fill="#AFD8F8" id="34" transcription="" points="2018,1240 1976,1240 1977,876 2019,876 " />
<polygon class="Wall" fill="#AFD8F8" id="35" transcription="" points="1975,585 2018,584 2019,729 1976,729 " />
<polygon class="Wall" fill="#AFD8F8" id="36" transcription="" points="1300,542 1300,585 1477,584 1477,542 " />
<polygon class="Wall" fill="#AFD8F8" id="37" transcription="" points="1434,1209 1435,1217 1518,1217 1517,1209 " />
<polygon class="Wall" fill="#AFD8F8" id="38" transcription="" points="1025,1003 1054,1003 1052,584 1026,584 " />
<polygon class="Wall" fill="#AFD8F8" id="39" transcription="" points="1155,541 1155,585 1027,584 1027,541 " />
<polygon class="Wall" fill="#AFD8F8" id="40" transcription="" points="340,860 365,860 365,542 341,542 " />
<polygon class="Wall" fill="#AFD8F8" id="41" transcription="" points="955,1109 980,1110 980,1027 955,1028 " />
<polygon class="Wall" fill="#AFD8F8" id="42" transcription="" points="955,1003 955,1028 1050,1028 1050,1002 " />
<polygon class="Wall" fill="#AFD8F8" id="43" transcription="" points="342,1252 342,1226 417,1226 417,1252 " />
<polygon class="Wall" fill="#AFD8F8" id="44" transcription="" points="1516,915 1404,913 1404,920 1516,922 " />
<polygon class="Wall" fill="#AFD8F8" id="45" transcription="" points="1091,1263 1049,1263 1049,1209 1092,1210 " />
<polygon class="Wall" fill="#AFD8F8" id="46" transcription="" points="1034,1210 1034,1251 1049,1252 1049,1210 " />
<polygon class="Wall" fill="#AFD8F8" id="47" transcription="" points="955,1209 984,1209 984,1251 956,1251 " />
<polygon class="Wall" fill="#AFD8F8" id="48" transcription="" points="904,1227 904,1252 956,1252 956,1227 " />
<polygon class="Wall" fill="#AFD8F8" id="49" transcription="" points="1091,1316 1091,1357 1167,1357 1167,1316 " />
<polygon class="Wall" fill="#AFD8F8" id="50" transcription="" points="1049,1311 1091,1311 1091,1357 1049,1357 " />
<polygon class="Wall" fill="#AFD8F8" id="51" transcription="" points="1210,1369 1167,1369 1167,1315 1210,1316 " />
<polygon class="Wall" fill="#AFD8F8" id="52" transcription="" points="1333,1316 1333,1322 1210,1322 1210,1316 " />
<polygon class="Wall" fill="#AFD8F8" id="53" transcription="" points="1976,1522 1976,1528 1616,1528 1616,1521 " />
<polygon class="Wall" fill="#AFD8F8" id="54" transcription="" points="1788,1027 1794,1027 1795,1104 1788,1104 " />
<polygon class="Wall" fill="#AFD8F8" id="55" transcription="" points="1624,1020 1624,1027 1795,1027 1795,1020 " />
<polygon class="Wall" fill="#AFD8F8" id="56" transcription="" points="1616,1104 1615,1019 1624,1019 1625,1103 " />
<polygon class="Window" fill="#F6BD0F" id="57" transcription="" points="1157,535 1155,587 1295,588 1298,534 " />
<polygon class="Window" fill="#F6BD0F" id="58" transcription="" points="1477,535 1477,589 1550,588 1550,534 " />
<polygon class="Window" fill="#F6BD0F" id="59" transcription="" points="1973,729 2021,729 2022,875 1973,875 " />
<polygon class="Window" fill="#F6BD0F" id="60" transcription="" points="1973,1240 2020,1239 2020,1382 1974,1383 " />
<polygon class="Window" fill="#F6BD0F" id="61" transcription="" points="1906,1780 2018,1779 2021,1916 1905,1914 1923,1862 1952,1846 1914,1821 " />
<polygon class="Window" fill="#F6BD0F" id="62" transcription="" points="1720,2169 1724,2215 1929,2214 1933,2166 " />
<polygon class="Window" fill="#F6BD0F" id="63" transcription="" points="1507,2337 1541,2374 1690,2218 1653,2188 " />
<polygon class="Window" fill="#F6BD0F" id="64" transcription="" points="1175,2343 1179,2393 1390,2394 1388,2343 " />
<polygon class="Window" fill="#F6BD0F" id="65" transcription="" points="1159,2190 1050,2193 1049,2053 1159,2058 1159,2091 1119,2126 1153,2152 " />
<polygon class="Door" fill="#8BBA00" id="66" transcription="" points="1433,1804 1439,1902 1339,1896 1352,1847 1395,1813 " />
<polygon class="Window" fill="#F6BD0F" id="67" transcription="" points="1043,1641 1098,1639 1096,1780 1044,1780 " />
<polygon class="Door" fill="#8BBA00" id="68" transcription="" points="1306,1372 1167,1374 1166,1477 1212,1474 1270,1461 1305,1417 " />
<polygon class="Window" fill="#F6BD0F" id="69" transcription="" points="988,1212 1036,1210 1037,1255 987,1255 " />
<polygon class="Parking" fill="#FF8E46" id="70" transcription="" points="422,1216 419,1270 903,1267 901,1217 " />
<polygon class="Window" fill="#F6BD0F" id="71" transcription="" points="367,935 337,937 337,856 367,858 " />
<polygon class="Door" fill="#8BBA00" id="72" transcription="" points="1068,1116 957,1113 955,1210 985,1206 1047,1182 1066,1142 " />
<polygon class="Door" fill="#8BBA00" id="73" transcription="" points="1426,1122 1432,1211 1335,1212 1343,1162 1386,1127 " />
<polygon class="Door" fill="#8BBA00" id="74" transcription="" points="1414,1018 1517,1015 1517,916 1463,933 1428,971 " />
<polygon class="Door" fill="#8BBA00" id="75" transcription="" points="1613,824 1621,918 1513,922 1524,875 1562,833 " />
<polygon class="Door" fill="#8BBA00" id="76" transcription="" points="1714,1017 1618,1025 1617,918 1672,934 1709,972 " />
<polygon class="Door" fill="#8BBA00" id="77" transcription="" points="1710,1109 1623,1107 1621,1202 1674,1190 1712,1142 " />
<polygon class="Door" fill="#8BBA00" id="78" transcription="" points="1515,1621 1510,1525 1613,1519 1604,1584 1558,1616 " />
<polygon class="Door" fill="#8BBA00" id="79" transcription="" points="1434,1616 1439,1527 1344,1524 1346,1568 1373,1604 " />
<polygon class="Room" fill="#008E8E" id="80" transcription="" points="370,572 369,1219 952,1222 949,1002 1018,1000 1020,574 " />
<polygon class="Room" fill="#008E8E" id="81" transcription="" points="1400,586 1400,920 1512,923 1516,1012 1056,1015 1057,587 " />
<polygon class="Room" fill="#008E8E" id="82" transcription="" points="1610,588 1609,911 1411,905 1415,591 " />
<polygon class="Room" fill="#008E8E" id="83" transcription="" points="1624,589 1630,1017 1795,1015 1801,1091 1970,1091 1970,591 " />
<polygon class="Room" fill="#008E8E" id="84" transcription="" points="1971,1516 1629,1514 1627,1034 1783,1032 1783,1108 1967,1108 " />
<polygon class="Door" fill="#8BBA00" id="85" transcription="" points="1425,1219 1331,1221 1331,1317 1387,1309 1420,1266 " />
<polygon class="Room" fill="#008E8E" id="86" transcription="" points="985,1031 989,1206 1504,1204 1507,1030 " />
<polygon class="Room" fill="#008E8E" id="87" transcription="" points="1326,1219 1326,1310 1096,1309 1096,1222 " />
<polygon class="Room" fill="#008E8E" id="88" transcription="" points="1612,1516 1610,924 1517,924 1522,1219 1334,1222 1335,1326 1215,1330 1212,1513 " />
<polygon class="Room" fill="#008E8E" id="89" transcription="" points="1093,1531 1095,1888 1507,1893 1506,1531 " />
<polygon class="Room" fill="#008E8E" id="90" transcription="" points="1971,1534 1521,1535 1522,1906 1096,1906 1098,2343 1493,2343 1675,2169 1972,2169 " />
<polygon class="Window" fill="#F6BD0F" id="91" transcription="" points="1050,1265 1090,1260 1107,1314 1046,1309 " />
<relation type="outerP" objects="0,39,57,36,58,11,35,59,34,60,16,61,17,8,62,7,63,30,64,22,24,65,29,67,28,27,26,68,51,49,50,91,45,46,69,47,48,70,43,1,71,40"/>
<relation type="incident" objects="0,39"/>
<relation type="incident" objects="39,57"/>
<relation type="incident" objects="57,36"/>
<relation type="incident" objects="36,58"/>
<relation type="incident" objects="58,11"/>
<relation type="incident" objects="11,35"/>
<relation type="incident" objects="35,59"/>
<relation type="incident" objects="59,34"/>
<relation type="incident" objects="34,60"/>
<relation type="incident" objects="60,16"/>
<relation type="incident" objects="61,16"/>
<relation type="incident" objects="61,17"/>
<relation type="incident" objects="17,8"/>
<relation type="incident" objects="8,62"/>
<relation type="incident" objects="8,18"/>
<relation type="incident" objects="62,7"/>
<relation type="incident" objects="7,63"/>
<relation type="incident" objects="63,31"/>
<relation type="incident" objects="30,31"/>
<relation type="incident" objects="30,64"/>
<relation type="incident" objects="64,22"/>
<relation type="incident" objects="22,24"/>
<relation type="incident" objects="24,65"/>
<relation type="incident" objects="65,29"/>
<relation type="incident" objects="29,67"/>
<relation type="incident" objects="67,28"/>
<relation type="incident" objects="28,27"/>
<relation type="incident" objects="27,26"/>
<relation type="incident" objects="26,68"/>
<relation type="incident" objects="68,51"/>
<relation type="incident" objects="51,49"/>
<relation type="incident" objects="49,50"/>
<relation type="incident" objects="50,91"/>
<relation type="incident" objects="91,45"/>
<relation type="incident" objects="45,46"/>
<relation type="incident" objects="46,69"/>
<relation type="incident" objects="69,47"/>
<relation type="incident" objects="47,48"/>
<relation type="incident" objects="48,70"/>
<relation type="incident" objects="70,43"/>
<relation type="incident" objects="43,1"/>
<relation type="incident" objects="1,71"/>
<relation type="incident" objects="71,40"/>
<relation type="incident" objects="40,0"/>
<relation type="incident" objects="39,38"/>
<relation type="incident" objects="42,38"/>
<relation type="incident" objects="42,41"/>
<relation type="incident" objects="41,72"/>
<relation type="incident" objects="72,47"/>
<relation type="incident" objects="13,36"/>
<relation type="incident" objects="13,44"/>
<relation type="incident" objects="44,75"/>
<relation type="incident" objects="75,14"/>
<relation type="incident" objects="14,11"/>
<relation type="incident" objects="44,74"/>
<relation type="incident" objects="74,12"/>
<relation type="incident" objects="12,42"/>
<relation type="incident" objects="14,76"/>
<relation type="incident" objects="76,55"/>
<relation type="incident" objects="55,56"/>
<relation type="incident" objects="56,76"/>
<relation type="incident" objects="56,77"/>
<relation type="incident" objects="77,4"/>
<relation type="incident" objects="55,54"/>
<relation type="incident" objects="54,15"/>
<relation type="incident" objects="15,34"/>
<relation type="incident" objects="74,3"/>
<relation type="incident" objects="3,12"/>
<relation type="incident" objects="3,37"/>
<relation type="incident" objects="37,73"/>
<relation type="incident" objects="2,73"/>
<relation type="incident" objects="2,45"/>
<relation type="incident" objects="2,85"/>
<relation type="incident" objects="85,52"/>
<relation type="incident" objects="52,51"/>
<relation type="incident" objects="26,5"/>
<relation type="incident" objects="5,79"/>
<relation type="incident" objects="79,32"/>
<relation type="incident" objects="32,6"/>
<relation type="incident" objects="6,78"/>
<relation type="incident" objects="32,78"/>
<relation type="incident" objects="78,4"/>
<relation type="incident" objects="78,53"/>
<relation type="incident" objects="6,33"/>
<relation type="incident" objects="66,33"/>
<relation type="incident" objects="66,25"/>
<relation type="incident" objects="25,29"/>
<relation type="incident" objects="53,16"/>
<relation type="neighbour" objects="80,81"/>
<relation type="neighbour" objects="81,82"/>
<relation type="neighbour" objects="82,83"/>
<relation type="neighbour" objects="83,84"/>
<relation type="neighbour" objects="84,90"/>
<relation type="neighbour" objects="90,89"/>
<relation type="neighbour" objects="89,88"/>
<relation type="neighbour" objects="88,86"/>
<relation type="neighbour" objects="86,80"/>
<relation type="neighbour" objects="86,87"/>
<relation type="neighbour" objects="87,88"/>
<relation type="neighbour" objects="84,88"/>
<relation type="neighbour" objects="88,82"/>
<relation type="neighbour" objects="88,83"/>
<relation type="neighbour" objects="86,81"/>
<relation type="neighbour" objects="88,81"/>
<relation type="access" objects="80,72,86"/>
<relation type="access" objects="81,74,88"/>
<relation type="access" objects="88,75,82"/>
<relation type="access" objects="88,76,83"/>
<relation type="access" objects="88,77,84"/>
<relation type="access" objects="87,85,88"/>
<relation type="access" objects="88,73,86"/>
<relation type="access" objects="88,68,88"/>
<relation type="access" objects="88,79,89"/>
<relation type="access" objects="90,66,89"/>
<relation type="access" objects="88,78,90"/>
<relation type="surround" objects="0,38,42,41,72,47,48,70,43,1,71,40,0,80"/>
<relation type="surround" objects="39,57,36,13,44,74,12,38,39,81"/>
<relation type="surround" objects="36,58,11,14,75,44,13,36,82"/>
<relation type="surround" objects="11,35,59,34,15,54,55,76,14,11,83"/>
<relation type="surround" objects="42,12,3,37,73,2,45,46,69,47,72,41,42,86"/>
<relation type="surround" objects="2,85,52,51,49,50,91,45,2,87"/>
<relation type="surround" objects="55,54,15,34,60,16,53,4,77,56,55,84"/>
<relation type="surround" objects="51,52,85,2,73,37,3,74,44,75,14,76,56,77,4,78,32,79,5,26,68,51,88"/>
<relation type="surround" objects="27,26,5,79,32,6,33,66,25,29,67,28,27,89"/>
<relation type="surround" objects="25,66,33,6,78,53,16,61,17,8,62,7,63,30,64,22,24,65,29,25,90"/>
</svg>