<?xml version="1.0" encoding="UTF-8"?><!DOCTYPE svg PUBLIC "-//W3C//DTD SVG 1.1//EN" "http://www.w3.org/Graphics/SVG/1.1/DTD/svg11.dtd">
<svg xmlns="http://www.w3.org/2000/svg" version="1.1">
<width>2479</width>
<height>3508</height>
<nclasslabel>50</nclasslabel>
<nclassappear>6</nclassappear>
<class>Bidet-1</class>
<class>Bidet-2</class>
<class>Bidet-3</class>
<class>Bidet-4</class>
<class>Door</class>
<class>Door-1</class>
<class>Door-23</class>
<class>Oven-1</class>
<class>Oven-2</class>
<class>Oven-3</class>
<class>Oven-4</class>
<class>Parking</class>
<class>Roof</class>
<class>Room</class>
<class>Separation</class>
<class>Sink-1</class>
<class>Sink-11</class>
<class>Sink-12</class>
<class>Sink-13</class>
<class>Sink-14</class>
<class>Sink-2</class>
<class>Sink-3</class>
<class>Sink-4</class>
<class>Sink-5</class>
<class>Sink-6</class>
<class>Sofa-1</class>
<class>Sofa-3</class>
<class>Sofa-4</class>
<class>Sofa-5</class>
<class>Sofa-6</class>
<class>Sofa-7</class>
<class>Sofa-8</class>
<class>Sofa-9</class>
<class>Stairs-1</class>
<class>Table-1</class>
<class>Table-2</class>
<class>Table-3</class>
<class>Table-4</class>
<class>Table-5</class>
<class>Table-6</class>
<class>Table-7</class>
<class>Text</class>
<class>Tub-1</class>
<class>Tub-3</class>
<class>TV-1</class>
<class>TV-2</class>
<class>Wall</class>
<class>Wall-1</class>
<class>Wallieee</class>
<class>Window</class>
<polygon class="Wall" fill="#AFD8F8" id="0" transcription="" points="910,743 886,743 886,653 910,653 " />
<polygon class="Wall" fill="#AFD8F8" id="1" transcription="" points="911,1019 885,1020 886,1081 910,1081 " />
<polygon class="Wall" fill="#AFD8F8" id="2" transcription="" points="929,1204 886,1204 886,1107 928,1107 " />
<polygon class="Wall" fill="#AFD8F8" id="3" transcription="" points="1370,1109 1370,1082 885,1081 885,1107 " />
<polygon class="Wall" fill="#AFD8F8" id="4" transcription="" points="1287,627 1287,652 885,654 886,627 " />
<polygon class="Wall" fill="#AFD8F8" id="5" transcription="" points="1761,966 1736,966 1736,653 1761,653 " />
<polygon class="Wall" fill="#AFD8F8" id="6" transcription="" points="1612,1497 1638,1496 1636,1876 1612,1875 " />
<polygon class="Wall" fill="#AFD8F8" id="7" transcription="" points="1637,1455 1638,1498 1395,1497 1395,1453 " />
<polygon class="Wall" fill="#AFD8F8" id="8" transcription="" points="1287,1562 1295,1562 1295,1479 1288,1479 " />
<polygon class="Wall" fill="#AFD8F8" id="9" transcription="" points="1287,1454 1287,1480 1395,1479 1395,1453 " />
<polygon class="Wall" fill="#AFD8F8" id="10" transcription="" points="1371,1453 1394,1453 1395,1082 1370,1082 " />
<polygon class="Wall" fill="#AFD8F8" id="11" transcription="" points="1760,628 1760,653 1361,652 1361,628 " />
<polygon class="Wall" fill="#AFD8F8" id="12" transcription="" points="1394,1082 1394,1090 1554,1091 1554,1082 " />
<polygon class="Wall" fill="#AFD8F8" id="13" transcription="" points="1762,1065 1736,1065 1736,1246 1762,1245 " />
<polygon class="Wall" fill="#AFD8F8" id="14" transcription="" points="1761,1455 1736,1455 1735,1321 1760,1321 " />
<polygon class="Wall" fill="#AFD8F8" id="15" transcription="" points="1395,1497 1402,1497 1401,1561 1401,1702 1393,1702 " />
<polygon class="Wall" fill="#AFD8F8" id="16" transcription="" points="1295,1701 1295,1709 1401,1709 1402,1701 " />
<polygon class="Wall" fill="#AFD8F8" id="17" transcription="" points="1295,1660 1286,1661 1286,1708 1295,1708 " />
<polygon class="Wall" fill="#AFD8F8" id="18" transcription="" points="928,1453 928,1478 1082,1479 1082,1453 " />
<polygon class="Wall" fill="#AFD8F8" id="19" transcription="" points="886,1565 929,1565 929,1344 886,1344 " />
<polygon class="Wall" fill="#AFD8F8" id="20" transcription="" points="886,1640 929,1640 929,1698 885,1698 " />
<polygon class="Wall" fill="#AFD8F8" id="21" transcription="" points="1029,1708 1069,1709 1069,1655 1029,1655 " />
<polygon class="Wall" fill="#AFD8F8" id="22" transcription="" points="1029,1655 1029,1697 929,1697 929,1655 " />
<polygon class="Wall" fill="#AFD8F8" id="23" transcription="" points="1027,1815 1070,1815 1070,2004 1028,1986 " />
<polygon class="Wall" fill="#AFD8F8" id="24" transcription="" points="898,2178 866,2147 1028,1985 1071,2004 " />
<polygon class="Wall" fill="#AFD8F8" id="25" transcription="" points="976,2252 945,2284 836.5,2174.5 867.5,2143.5 " />
<polygon class="Wall" fill="#AFD8F8" id="26" transcription="" points="1176,2452 1145,2483 1214,2552 1244,2521 " />
<polygon class="Wall" fill="#AFD8F8" id="27" transcription="" points="1311,2588 1282,2619 1323,2661 1365,2619 1335,2587 1324,2599 " />
<polygon class="Wall" fill="#AFD8F8" id="28" transcription="" points="1648,1081 1649,1090 1736,1090 1736,1081 " />
<polygon class="Wall" fill="#AFD8F8" id="29" transcription="" points="1736,1497 1735,1455 2031,1454 2031,1497 " />
<polygon class="Wall" fill="#AFD8F8" id="30" transcription="" points="2073,1453 2030,1453 2031,1637 2073,1637 " />
<polygon class="Wall" fill="#AFD8F8" id="31" transcription="" points="2074,1780 2031,1780 2030,1998 2074,1998 " />
<polygon class="Wall" fill="#AFD8F8" id="32" transcription="" points="2031,2140 2073,2140 2074,2304 2031,2304 " />
<polygon class="Wall" fill="#AFD8F8" id="33" transcription="" points="1984,2348 1984,2304 2074,2304 2074,2348 " />
<polygon class="Wall" fill="#AFD8F8" id="34" transcription="" points="1637,2347 1619,2304 1702,2304 1702,2346 " />
<polygon class="Wall" fill="#AFD8F8" id="35" transcription="" points="1431,2552 1401,2522 1619,2304 1636,2347 " />
<polygon class="Wall" fill="#AFD8F8" id="36" transcription="" points="1069,1695 1069,1703 1181,1703 1182,1694 " />
<polygon class="Wall" fill="#AFD8F8" id="37" transcription="" points="1180,1453 1189,1453 1189,1703 1180,1703 " />
<polygon class="Window" fill="#F6BD0F" id="38" transcription="" points="1287,622 1286,655 1360,655 1359,621 " />
<polygon class="Parking" fill="#8BBA00" id="39" transcription="" points="869,738 914,734 914,1028 870,1026 " />
<polygon class="Door" fill="#FF8E46" id="40" transcription="" points="1649,1060 1764,1061 1762,968 1737,968 1690,980 1658,1012 " />
<polygon class="Window" fill="#F6BD0F" id="41" transcription="" points="1734,1321 1764,1318 1766,1246 1732,1247 " />
<polygon class="Window" fill="#F6BD0F" id="42" transcription="" points="931,1200 882,1201 882,1343 932,1343 " />
<polygon class="Window" fill="#F6BD0F" id="43" transcription="" points="882,1565 930,1566 931,1639 882,1639 " />
<polygon class="Door" fill="#FF8E46" id="44" transcription="" points="1172,1708 1025,1712 1024,1817 1072,1815 1125,1805 1163,1759 " />
<polygon class="Window" fill="#F6BD0F" id="45" transcription="" points="977,2250 946,2284 1142,2484 1177,2451 " />
<polygon class="Window" fill="#F6BD0F" id="46" transcription="" points="1247,2518 1213,2552 1277,2619 1313,2583 " />
<polygon class="Window" fill="#F6BD0F" id="47" transcription="" points="1398,2520 1434,2556 1368,2622 1335,2585 " />
<polygon class="Wall" fill="#AFD8F8" id="48" transcription="" points="1623,2612 1649,2612 1649,2638 1624,2637 " />
<polygon class="Wall" fill="#AFD8F8" id="49" transcription="" points="2049,2611 2074,2611 2074,2637 2049,2637 " />
<polygon class="Window" fill="#F6BD0F" id="50" transcription="" points="1707,2301 1702,2347 1984,2347 1983,2301 " />
<polygon class="Window" fill="#F6BD0F" id="51" transcription="" points="1963,2136 2075,2139 2074,1998 1962,2000 1971,2051 2005,2068 1974,2089 " />
<polygon class="Window" fill="#F6BD0F" id="52" transcription="" points="2027,1639 2077,1638 2076,1780 2029,1779 " />
<polygon class="Door" fill="#FF8E46" id="53" transcription="" points="1640,1493 1641,1583 1698,1576 1726,1534 1733,1493 " />
<polygon class="Door" fill="#FF8E46" id="54" transcription="" points="1243,1643 1290,1563 1293,1661 1265,1659 " />
<polygon class="Door" fill="#FF8E46" id="55" transcription="" points="1281,1366 1285,1455 1190,1458 1202,1410 1237,1375 " />
<polygon class="Door" fill="#FF8E46" id="56" transcription="" points="1177,1570 1176,1474 1082,1475 1092,1528 1135,1561 " />
<polygon class="Door" fill="#FF8E46" id="57" transcription="" points="1646,1176 1646,1087 1552,1086 1559,1131 1599,1167 " />
<polygon class="Room" fill="#008E8E" id="58" transcription="" points="915,654 914,1076 1731,1076 1730,657 " />
<polygon class="Room" fill="#008E8E" id="59" transcription="" points="1400,1095 1400,1447 1734,1449 1731,1093 " />
<polygon class="Room" fill="#008E8E" id="60" transcription="" points="929.5,1110.5 929.5,1449.5 1368.5,1448.5 1364.5,1109.5 " />
<polygon class="Room" fill="#008E8E" id="61" transcription="" points="932,1483 934,1650 1069,1650 1070,1691 1176,1690 1173,1482 " />
<polygon class="Room" fill="#008E8E" id="62" transcription="" points="1190,1457 1188,1702 1290,1701 1286,1458 " />
<polygon class="Room" fill="#008E8E" id="63" transcription="" points="1389,1484 1388,1695 1300,1696 1298,1484 " />
<polygon class="Room" fill="#008E8E" id="64" transcription="" points="2026,1498 2027,1873 1638,1872 1644,1498 " />
<polygon class="Room" fill="#008E8E" id="65" transcription="" points="1607,1502 1613,2308 1323,2590 902,2175 1074,2004 1071,1709 1406,1709 1405,1503 " />
<polygon class="Room" fill="#008E8E" id="66" transcription="" points="1624,1882 2031,1886 2029,2303 1627,2305 " />
<polygon class="Separation" fill="#D64646" id="67" transcription="" points="1613,2304 1612,1872 2033,1877 2033,1890 1627,1880 1630,2304 " />
<polygon class="Separation" fill="#D64646" id="68" transcription="" points="1188,1698 1283,1698 1283,1709 1188,1709 " />
<relation type="outerP" objects="4,38,11,5,40,13,41,14,29,30,52,31,51,32,33,50,34,35,47,27,46,26,45,25,24,23,44,21,22,20,43,19,42,2,1,39,0"/>
<relation type="incident" objects="4,38"/>
<relation type="incident" objects="11,38"/>
<relation type="incident" objects="11,5"/>
<relation type="incident" objects="5,40"/>
<relation type="incident" objects="40,13"/>
<relation type="incident" objects="13,41"/>
<relation type="incident" objects="41,14"/>
<relation type="incident" objects="14,29"/>
<relation type="incident" objects="29,30"/>
<relation type="incident" objects="30,52"/>
<relation type="incident" objects="52,31"/>
<relation type="incident" objects="31,51"/>
<relation type="incident" objects="51,32"/>
<relation type="incident" objects="32,33"/>
<relation type="incident" objects="33,50"/>
<relation type="incident" objects="50,34"/>
<relation type="incident" objects="35,34"/>
<relation type="incident" objects="35,47"/>
<relation type="incident" objects="47,27"/>
<relation type="incident" objects="27,46"/>
<relation type="incident" objects="46,26"/>
<relation type="incident" objects="26,45"/>
<relation type="incident" objects="45,25"/>
<relation type="incident" objects="25,24"/>
<relation type="incident" objects="24,23"/>
<relation type="incident" objects="23,44"/>
<relation type="incident" objects="44,21"/>
<relation type="incident" objects="21,22"/>
<relation type="incident" objects="22,20"/>
<relation type="incident" objects="20,43"/>
<relation type="incident" objects="43,19"/>
<relation type="incident" objects="42,19"/>
<relation type="incident" objects="42,2"/>
<relation type="incident" objects="2,3"/>
<relation type="incident" objects="3,1"/>
<relation type="incident" objects="1,39"/>
<relation type="incident" objects="39,0"/>
<relation type="incident" objects="4,0"/>
<relation type="incident" objects="3,10"/>
<relation type="incident" objects="10,9"/>
<relation type="incident" objects="9,55"/>
<relation type="incident" objects="55,37"/>
<relation type="incident" objects="37,56"/>
<relation type="incident" objects="56,18"/>
<relation type="incident" objects="18,19"/>
<relation type="incident" objects="10,12"/>
<relation type="incident" objects="12,57"/>
<relation type="incident" objects="57,28"/>
<relation type="incident" objects="28,13"/>
<relation type="incident" objects="29,53"/>
<relation type="incident" objects="53,7"/>
<relation type="incident" objects="53,6"/>
<relation type="incident" objects="6,7"/>
<relation type="incident" objects="7,15"/>
<relation type="incident" objects="15,16"/>
<relation type="incident" objects="16,17"/>
<relation type="incident" objects="17,54"/>
<relation type="incident" objects="54,8"/>
<relation type="incident" objects="8,9"/>
<relation type="incident" objects="17,68"/>
<relation type="incident" objects="68,37"/>
<relation type="incident" objects="68,16"/>
<relation type="incident" objects="68,36"/>
<relation type="incident" objects="36,37"/>
<relation type="incident" objects="36,21"/>
<relation type="incident" objects="6,67"/>
<relation type="incident" objects="67,31"/>
<relation type="incident" objects="67,34"/>
<relation type="incident" objects="67,35"/>
<relation type="incident" objects="9,7"/>
<relation type="incident" objects="10,7"/>
<relation type="neighbour" objects="58,60"/>
<relation type="neighbour" objects="60,59"/>
<relation type="neighbour" objects="59,58"/>
<relation type="neighbour" objects="59,64"/>
<relation type="neighbour" objects="64,66"/>
<relation type="neighbour" objects="66,65"/>
<relation type="neighbour" objects="65,61"/>
<relation type="neighbour" objects="61,60"/>
<relation type="neighbour" objects="60,62"/>
<relation type="neighbour" objects="60,63"/>
<relation type="neighbour" objects="61,62"/>
<relation type="neighbour" objects="62,65"/>
<relation type="neighbour" objects="62,63"/>
<relation type="neighbour" objects="63,65"/>
<relation type="neighbour" objects="59,65"/>
<relation type="neighbour" objects="64,65"/>
<relation type="access" objects="58,40,58"/>
<relation type="access" objects="59,57,58"/>
<relation type="access" objects="64,53,59"/>
<relation type="access" objects="62,55,60"/>
<relation type="access" objects="60,56,61"/>
<relation type="access" objects="63,54,62"/>
<relation type="access" objects="65,44,65"/>
<relation type="access" objects="62,68,65"/>
<relation type="access" objects="65,67,66"/>
<relation type="access" objects="66,67,64"/>
<relation type="surround" objects="4,38,11,5,40,13,28,57,12,3,1,39,0,4,58"/>
<relation type="surround" objects="3,10,9,55,37,56,18,19,42,2,3,60"/>
<relation type="surround" objects="12,57,28,13,41,14,53,7,10,12,59"/>
<relation type="surround" objects="18,56,37,36,21,22,20,43,19,18,61"/>
<relation type="surround" objects="55,8,54,17,68,37,55,62"/>
<relation type="surround" objects="9,15,16,17,54,8,9,63"/>
<relation type="surround" objects="53,29,30,52,31,67,6,53,64"/>
<relation type="surround" objects="67,31,51,32,33,50,34,67,66"/>
<relation type="surround" objects="36,68,16,15,7,6,67,35,47,27,46,26,45,25,24,23,44,36,65"/>
</svg>