<?xml version="1.0" encoding="UTF-8"?><!DOCTYPE svg PUBLIC "-//W3C//DTD SVG 1.1//EN" "http://www.w3.org/Graphics/SVG/1.1/DTD/svg11.dtd">
<svg xmlns="http://www.w3.org/2000/svg" version="1.1">
<width>2479</width>
<height>3508</height>
<nclasslabel>50</nclasslabel>
<nclassappear>5</nclassappear>
<class>Bidet-1</class>
<class>Bidet-2</class>
<class>Bidet-3</class>
<class>Bidet-4</class>
<class>Door</class>
<class>Door-1</class>
<class>Door-23</class>
<class>Oven-1</class>
<class>Oven-2</class>
<class>Oven-3</class>
<class>Oven-4</class>
<class>Parking</class>
<class>Roof</class>
<class>Room</class>
<class>Separation</class>
<class>Sink-1</class>
<class>Sink-11</class>
<class>Sink-12</class>
<class>Sink-13</class>
<class>Sink-14</class>
<class>Sink-2</class>
<class>Sink-3</class>
<class>Sink-4</class>
<class>Sink-5</class>
<class>Sink-6</class>
<class>Sofa-1</class>
<class>Sofa-3</class>
<class>Sofa-4</class>
<class>Sofa-5</class>
<class>Sofa-6</class>
<class>Sofa-7</class>
<class>Sofa-8</class>
<class>Sofa-9</class>
<class>Stairs-1</class>
<class>Table-1</class>
<class>Table-2</class>
<class>Table-3</class>
<class>Table-4</class>
<class>Table-5</class>
<class>Table-6</class>
<class>Table-7</class>
<class>Text</class>
<class>Tub-1</class>
<class>Tub-3</class>
<class>TV-1</class>
<class>TV-2</class>
<class>Wall</class>
<class>Wall-1</class>
<class>Wallieee</class>
<class>Window</class>
<polygon class="Wall" fill="#AFD8F8" id="0" transcription="" points="514,945 514,902 1052,902 1052,946 " />
<polygon class="Wall" fill="#AFD8F8" id="1" transcription="" points="1194,902 1195,946 1593,946 1593,902 " />
<polygon class="Wall" fill="#AFD8F8" id="2" transcription="" points="1636,902 1636,948 1592,948 1592,902 " />
<polygon class="Wall" fill="#AFD8F8" id="3" transcription="" points="1637,1023 1592,1023 1593,1162 1636,1162 " />
<polygon class="Wall" fill="#AFD8F8" id="4" transcription="" points="1487,1145 1487,1152 1593,1152 1593,1144 " />
<polygon class="Wall" fill="#AFD8F8" id="5" transcription="" points="1636,1236 1593,1236 1593,1329 1637,1329 " />
<polygon class="Wall" fill="#AFD8F8" id="6" transcription="" points="1487,1177 1494,1177 1494,1151 1487,1151 " />
<polygon class="Wall" fill="#AFD8F8" id="7" transcription="" points="1380,945 1389,945 1389,1177 1380,1176 " />
<polygon class="Wall" fill="#AFD8F8" id="8" transcription="" points="1682,1510 1682,1536 1765,1536 1765,1510 " />
<polygon class="Wall" fill="#AFD8F8" id="9" transcription="" points="1765,1435 1808,1435 1808,1703 1765,1704 " />
<polygon class="Wall" fill="#AFD8F8" id="10" transcription="" points="1764,1874 1808,1874 1808,1978 1764,1977 " />
<polygon class="Wall" fill="#AFD8F8" id="11" transcription="" points="1808,2020 1808,1977 1641,1976 1641,2020 " />
<polygon class="Wall" fill="#AFD8F8" id="12" transcription="" points="1764,1329 1764,1286 1636,1287 1637,1329 " />
<polygon class="Wall" fill="#AFD8F8" id="13" transcription="" points="1583,1510 1583,1536 1486,1536 1486,1511 " />
<polygon class="Wall" fill="#AFD8F8" id="14" transcription="" points="926,944 933,944 933,1276 925,1276 " />
<polygon class="Wall" fill="#AFD8F8" id="15" transcription="" points="471,902 515,902 515,1371 470,1370 " />
<polygon class="Wall" fill="#AFD8F8" id="16" transcription="" points="521,1771 490,1800 470,1783 471,1513 514,1513 513,1719 514,1763 " />
<polygon class="Wall" fill="#AFD8F8" id="17" transcription="" points="689,2000 707,2021 854,2021 854,1977 725,1977 719,1970 " />
<polygon class="Wall" fill="#AFD8F8" id="18" transcription="" points="1180,1493 966,1492 965,1530 986,1531 985,1537 1181,1537 " />
<polygon class="Wall" fill="#AFD8F8" id="19" transcription="" points="1428,1977 1428,2021 1140,2020 1140,1977 " />
<polygon class="Wall" fill="#AFD8F8" id="20" transcription="" points="926,1531 969,1531 970,1281 926,1280 " />
<polygon class="Wall" fill="#AFD8F8" id="21" transcription="" points="1807,1287 1763,1286 1765,1363 1807,1364 " />
<polygon class="Wall" fill="#AFD8F8" id="22" transcription="" points="1370,1536 1363,1536 1362,1977 1370,1977 " />
<polygon class="Wall" fill="#AFD8F8" id="23" transcription="" points="1389,1511 1389,1535 1363,1535 1363,1511 " />
<polygon class="Wall" fill="#AFD8F8" id="24" transcription="" points="1494,1322 1495,1330 1593,1329 1593,1321 " />
<polygon class="Wall" fill="#AFD8F8" id="25" transcription="" points="1486,1274 1487,1511 1495,1511 1495,1274 " />
<polygon class="Wall" fill="#AFD8F8" id="26" transcription="" points="1388,1274 1388,1282 925,1283 925,1274 " />
<polygon class="Window" fill="#F6BD0F" id="27" transcription="" points="1051,898 1052,949 1196,949 1196,898 " />
<polygon class="Window" fill="#F6BD0F" id="28" transcription="" points="464,1373 517,1375 517,1513 466,1514 " />
<polygon class="Window" fill="#F6BD0F" id="29" transcription="" points="522,1768 486,1803 682,2002 718,1964 " />
<polygon class="Window" fill="#F6BD0F" id="30" transcription="" points="852,1972 853,2020 1140,2023 1140,1975 " />
<polygon class="Window" fill="#F6BD0F" id="31" transcription="" points="1640,1973 1642,2020 1430,2019 1430,1973 " />
<polygon class="Window" fill="#F6BD0F" id="32" transcription="" points="1763,1706 1810,1700 1810,1871 1763,1876 " />
<polygon class="Window" fill="#F6BD0F" id="33" transcription="" points="1813,1364 1762,1361 1763,1435 1813,1434 " />
<polygon class="Window" fill="#F6BD0F" id="34" transcription="" points="1642,1162 1588,1164 1590,1236 1640,1236 " />
<polygon class="Window" fill="#F6BD0F" id="35" transcription="" points="1640,948 1588,951 1590,1019 1637,1021 " />
<polygon class="Door" fill="#8BBA00" id="36" transcription="" points="1289,1271 1388,1276 1385,1174 1329,1188 1298,1223 " />
<polygon class="Door" fill="#8BBA00" id="37" transcription="" points="1386,1053 1388,1151 1490,1151 1471,1091 1437,1062 " />
<polygon class="Door" fill="#8BBA00" id="38" transcription="" points="1394,1179 1488,1180 1493,1273 1441,1262 1408,1224 " />
<polygon class="Door" fill="#8BBA00" id="39" transcription="" points="1677,1420 1677,1519 1584,1522 1590,1473 1623,1435 " />
<polygon class="Door" fill="#8BBA00" id="40" transcription="" points="1389,1625 1386,1524 1481,1524 1479,1571 1441,1612 " />
<polygon class="Room" fill="#FF8E46" id="41" transcription="" points="1755.5,1544.5 1755.5,1972.5 1372.5,1972.5 1370.5,1545.5 " />
<polygon class="Room" fill="#FF8E46" id="42" transcription="" points="741,1970 1356,1970 1361,1542 935,1548 " />
<polygon class="Room" fill="#FF8E46" id="43" transcription="" points="938,952 935,1265 1377,1267 1374,949 " />
<polygon class="Room" fill="#FF8E46" id="44" transcription="" points="1585,952 1588,1138 1392,1145 1392,951 " />
<polygon class="Room" fill="#FF8E46" id="45" transcription="" points="1584,1159 1590,1315 1494,1315 1497,1157 " />
<polygon class="Room" fill="#FF8E46" id="46" transcription="" points="1499,1334 1500,1507 1759,1504 1759,1334 " />
<polygon class="Room" fill="#FF8E46" id="47" transcription="" points="972,1287 972,1487 1184,1492 1184,1516 1479,1519 1484,1157 1392,1156 1391,1282 " />
<polygon class="Room" fill="#FF8E46" id="48" transcription="" points="514,946 927,946 925,1526 725,1968 516,1761 " />
<polygon class="Separation" fill="#008E8E" id="49" transcription="" points="1366,1546 1183,1544 1183,1516 1366,1516 " />
<polygon class="Separation" fill="#008E8E" id="50" transcription="" points="923,1529 722,1966 748,1974 946,1537 " />
<relation type="outerP" objects="0,27,1,2,35,3,34,5,12,21,33,9,32,10,11,31,19,30,17,29,16,28,15"/>
<relation type="incident" objects="15,0"/>
<relation type="incident" objects="0,27"/>
<relation type="incident" objects="27,1"/>
<relation type="incident" objects="1,2"/>
<relation type="incident" objects="2,35"/>
<relation type="incident" objects="35,3"/>
<relation type="incident" objects="3,34"/>
<relation type="incident" objects="34,5"/>
<relation type="incident" objects="5,12"/>
<relation type="incident" objects="12,21"/>
<relation type="incident" objects="21,33"/>
<relation type="incident" objects="33,9"/>
<relation type="incident" objects="9,32"/>
<relation type="incident" objects="32,10"/>
<relation type="incident" objects="10,11"/>
<relation type="incident" objects="11,31"/>
<relation type="incident" objects="31,19"/>
<relation type="incident" objects="19,30"/>
<relation type="incident" objects="30,17"/>
<relation type="incident" objects="17,29"/>
<relation type="incident" objects="29,16"/>
<relation type="incident" objects="16,28"/>
<relation type="incident" objects="28,15"/>
<relation type="incident" objects="0,14"/>
<relation type="incident" objects="20,14"/>
<relation type="incident" objects="20,50"/>
<relation type="incident" objects="50,17"/>
<relation type="incident" objects="20,18"/>
<relation type="incident" objects="49,18"/>
<relation type="incident" objects="49,22"/>
<relation type="incident" objects="22,19"/>
<relation type="incident" objects="22,23"/>
<relation type="incident" objects="23,49"/>
<relation type="incident" objects="23,40"/>
<relation type="incident" objects="40,13"/>
<relation type="incident" objects="13,39"/>
<relation type="incident" objects="39,8"/>
<relation type="incident" objects="8,9"/>
<relation type="incident" objects="13,25"/>
<relation type="incident" objects="25,24"/>
<relation type="incident" objects="24,5"/>
<relation type="incident" objects="25,38"/>
<relation type="incident" objects="38,6"/>
<relation type="incident" objects="6,4"/>
<relation type="incident" objects="4,3"/>
<relation type="incident" objects="4,37"/>
<relation type="incident" objects="37,7"/>
<relation type="incident" objects="7,1"/>
<relation type="incident" objects="7,36"/>
<relation type="incident" objects="36,26"/>
<relation type="incident" objects="26,20"/>
<relation type="incident" objects="26,14"/>
<relation type="neighbour" objects="48,42"/>
<relation type="neighbour" objects="48,43"/>
<relation type="neighbour" objects="48,47"/>
<relation type="neighbour" objects="42,41"/>
<relation type="neighbour" objects="42,47"/>
<relation type="neighbour" objects="41,46"/>
<relation type="neighbour" objects="41,47"/>
<relation type="neighbour" objects="43,44"/>
<relation type="neighbour" objects="43,47"/>
<relation type="neighbour" objects="46,47"/>
<relation type="neighbour" objects="46,45"/>
<relation type="neighbour" objects="47,44"/>
<relation type="neighbour" objects="45,47"/>
<relation type="neighbour" objects="45,44"/>
<relation type="access" objects="41,39,46"/>
<relation type="access" objects="47,40,41"/>
<relation type="access" objects="47,49,42"/>
<relation type="access" objects="42,50,48"/>
<relation type="access" objects="47,36,43"/>
<relation type="access" objects="45,38,47"/>
<relation type="access" objects="47,37,44"/>
<relation type="surround" objects="0,14,20,50,29,16,28,15,0,48"/>
<relation type="surround" objects="0,27,1,7,36,26,14,0,43"/>
<relation type="surround" objects="1,2,35,3,4,37,7,1,44"/>
<relation type="surround" objects="4,3,34,5,24,25,38,6,4,45"/>
<relation type="surround" objects="26,36,7,37,6,38,25,40,23,49,18,20,26,47"/>
<relation type="surround" objects="24,5,12,21,33,9,8,39,13,25,24,46"/>
<relation type="surround" objects="18,49,22,19,30,17,50,18,42"/>
<relation type="surround" objects="23,40,13,39,8,9,32,10,11,31,19,22,23,41"/>
</svg>