<?xml version="1.0" encoding="UTF-8"?><!DOCTYPE svg PUBLIC "-//W3C//DTD SVG 1.1//EN" "http://www.w3.org/Graphics/SVG/1.1/DTD/svg11.dtd">
<svg xmlns="http://www.w3.org/2000/svg" version="1.1">
<width>2479</width>
<height>3508</height>
<nclasslabel>50</nclasslabel>
<nclassappear>5</nclassappear>
<class>Bidet-1</class>
<class>Bidet-2</class>
<class>Bidet-3</class>
<class>Bidet-4</class>
<class>Door</class>
<class>Door-1</class>
<class>Door-23</class>
<class>Oven-1</class>
<class>Oven-2</class>
<class>Oven-3</class>
<class>Oven-4</class>
<class>Parking</class>
<class>Roof</class>
<class>Room</class>
<class>Separation</class>
<class>Sink-1</class>
<class>Sink-11</class>
<class>Sink-12</class>
<class>Sink-13</class>
<class>Sink-14</class>
<class>Sink-2</class>
<class>Sink-3</class>
<class>Sink-4</class>
<class>Sink-5</class>
<class>Sink-6</class>
<class>Sofa-1</class>
<class>Sofa-3</class>
<class>Sofa-4</class>
<class>Sofa-5</class>
<class>Sofa-6</class>
<class>Sofa-7</class>
<class>Sofa-8</class>
<class>Sofa-9</class>
<class>Stairs-1</class>
<class>Table-1</class>
<class>Table-2</class>
<class>Table-3</class>
<class>Table-4</class>
<class>Table-5</class>
<class>Table-6</class>
<class>Table-7</class>
<class>Text</class>
<class>Tub-1</class>
<class>Tub-3</class>
<class>TV-1</class>
<class>TV-2</class>
<class>Wall</class>
<class>Wall-1</class>
<class>Wallieee</class>
<class>Window</class>
<polygon class="Wall" fill="#AFD8F8" id="0" transcription="" points="2016,1020 2060,1020 2060,1118 2016,1118 " />
<polygon class="Wall" fill="#AFD8F8" id="1" transcription="" points="1445,1211 1524,1212 1523,1256 1444,1255 " />
<polygon class="Wall" fill="#AFD8F8" id="2" transcription="" points="2017,1212 2061,1212 2060,1471 2016,1471 " />
<polygon class="Wall" fill="#AFD8F8" id="3" transcription="" points="2017,1755 2060,1756 2059,1897 2016,1897 " />
<polygon class="Wall" fill="#AFD8F8" id="4" transcription="" points="2060,1940 2060,1897 1917,1896 1917,1940 " />
<polygon class="Wall" fill="#AFD8F8" id="5" transcription="" points="1824,1896 1824,1940 1781,1940 1780,1897 " />
<polygon class="Wall" fill="#AFD8F8" id="6" transcription="" points="1739,1896 1783,1896 1783,2209 1739,2209 " />
<polygon class="Wall" fill="#AFD8F8" id="7" transcription="" points="1646,2209 1645,2254 1783,2254 1783,2209 " />
<polygon class="Wall" fill="#AFD8F8" id="8" transcription="" points="333,1359 378,1359 378,1255 334,1255 " />
<polygon class="Wall" fill="#AFD8F8" id="9" transcription="" points="333,1211 333,1255 965,1256 965,1211 " />
<polygon class="Wall" fill="#AFD8F8" id="10" transcription="" points="1039,1211 1039,1254 1100,1255 1124,1255 1124,1211 " />
<polygon class="Wall" fill="#AFD8F8" id="11" transcription="" points="1107,1459 1116,1459 1116,1255 1107,1255 " />
<polygon class="Wall" fill="#AFD8F8" id="12" transcription="" points="1067,1786 1067,1565 1110,1565 1108,1785 " />
<polygon class="Wall" fill="#AFD8F8" id="13" transcription="" points="1198,1211 1339,1211 1339,1255 1198,1255 " />
<polygon class="Wall" fill="#AFD8F8" id="14" transcription="" points="1044,1460 1043,1467 1115,1466 1116,1459 " />
<polygon class="Wall" fill="#AFD8F8" id="15" transcription="" points="1066,1863 1074,1862 1074,1785 1067,1785 " />
<polygon class="Wall" fill="#AFD8F8" id="16" transcription="" points="1067,1955 1066,2034 1074,2034 1074,1955 " />
<polygon class="Wall" fill="#AFD8F8" id="17" transcription="" points="1269,2209 1361,2209 1362,2253 1269,2253 " />
<polygon class="Wall" fill="#AFD8F8" id="18" transcription="" points="1225,2076 1270,2075 1269,2253 1225,2254 " />
<polygon class="Wall" fill="#AFD8F8" id="19" transcription="" points="711,1256 720,1255 720,1460 711,1461 " />
<polygon class="Wall" fill="#AFD8F8" id="20" transcription="" points="944,1459 945,1467 712,1468 709,1459 " />
<polygon class="Wall" fill="#AFD8F8" id="21" transcription="" points="780,1566 788,1575 967,1575 967,1566 " />
<polygon class="Wall" fill="#AFD8F8" id="22" transcription="" points="2061,975 2060,1020 1524,1020 1523,975 " />
<polygon class="Wall" fill="#AFD8F8" id="23" transcription="" points="968,2032 968,2077 1270,2075 1270,2032 " />
<polygon class="Wall" fill="#AFD8F8" id="24" transcription="" points="1480,975 1524,975 1524,1211 1480,1211 " />
<polygon class="Wall" fill="#AFD8F8" id="25" transcription="" points="1515,1374 1524,1374 1524,1254 1514,1255 " />
<polygon class="Wall" fill="#AFD8F8" id="26" transcription="" points="464,2032 464,2076 377,2077 377,2032 " />
<polygon class="Wall" fill="#AFD8F8" id="27" transcription="" points="333,1505 378,1505 377,2076 333,2077 " />
<polygon class="Wall" fill="#AFD8F8" id="28" transcription="" points="377,1559 377,1569 507,1568 505,1559 " />
<polygon class="Wall" fill="#AFD8F8" id="29" transcription="" points="609,2032 609,2076 823,2077 823,2033 " />
<polygon class="Wall" fill="#AFD8F8" id="30" transcription="" points="705,1640 713,1648 714,2033 705,2033 " />
<polygon class="Wall" fill="#AFD8F8" id="31" transcription="" points="783,1567 787,1572 713,1647 708,1640 " />
<polygon class="Wall" fill="#AFD8F8" id="32" transcription="" points="1213,1568.5 1221,1568.5 1221,1683.5 1213,1683.5 " />
<polygon class="Wall" fill="#AFD8F8" id="33" transcription="" points="1319,1565 1319,1779 1329,1779 1329,1565 " />
<polygon class="Wall" fill="#AFD8F8" id="34" transcription="" points="1109,1779 1108,1787 1381,1787 1381,1778 " />
<polygon class="Wall" fill="#AFD8F8" id="35" transcription="" points="1260,1787 1269,1787 1270,2031 1261,2032 " />
<polygon class="Wall" fill="#AFD8F8" id="36" transcription="" points="1214,1254 1222,1254 1222,1461 1213,1461 " />
<polygon class="Wall" fill="#AFD8F8" id="37" transcription="" points="1298,1468 1299,1459 1213,1460 1212,1468 " />
<polygon class="Wall" fill="#AFD8F8" id="38" transcription="" points="1329,1725 1329,1733 1374,1733 1374,1725 " />
<polygon class="Wall" fill="#AFD8F8" id="39" transcription="" points="1381,1726 1381,1777 1374,1777 1374,1726 " />
<polygon class="Wall" fill="#AFD8F8" id="40" transcription="" points="513,1514 505,1514 505,1569 514,1568 " />
<polygon class="Wall" fill="#AFD8F8" id="41" transcription="" points="503,1506 503,1514 610,1515 613,1507 " />
<polygon class="Wall" fill="#AFD8F8" id="42" transcription="" points="634,1568 643,1568 642,1535 634,1539 " />
<polygon class="Wall" fill="#AFD8F8" id="43" transcription="" points="613,1507 643,1537 633,1539 611,1517 " />
<polygon class="Wall" fill="#AFD8F8" id="44" transcription="" points="1067,976 1090,976 1090,999 1067,999 " />
<polygon class="Window" fill="#F6BD0F" id="45" transcription="" points="328,1506 381,1506 380,1360 329,1361 " />
<polygon class="Window" fill="#F6BD0F" id="46" transcription="" points="462,2030 463,2080 610,2080 607,2029 " />
<polygon class="Window" fill="#F6BD0F" id="47" transcription="" points="824,2029 824,2080 967,2080 967,2029 " />
<polygon class="Window" fill="#F6BD0F" id="48" transcription="" points="1362,2207 1365,2254 1644,2254 1645,2208 " />
<polygon class="Door" fill="#8BBA00" id="49" transcription="" points="1824,1811 1826,1941 1917,1940 1916,1889 1902,1840 1867,1814 " />
<polygon class="Window" fill="#F6BD0F" id="50" transcription="" points="2013,1468 2064,1469 2062,1753 2014,1753 " />
<polygon class="Door" fill="#8BBA00" id="51" transcription="" points="1928,1122 2061,1120 2061,1213 2015,1212 1969,1200 1935,1167 " />
<polygon class="Door" fill="#8BBA00" id="52" transcription="" points="1341,1352 1341,1236 1441,1235 1442,1298 1398,1345 " />
<polygon class="Window" fill="#F6BD0F" id="53" transcription="" points="1198,1255 1125,1256 1124,1208 1194,1209 " />
<polygon class="Window" fill="#F6BD0F" id="54" transcription="" points="966,1209 965,1257 1035,1258 1034,1209 " />
<polygon class="Door" fill="#8BBA00" id="55" transcription="" points="642,1405 708,1468 642,1539 615,1490 616,1435 " />
<polygon class="Door" fill="#8BBA00" id="56" transcription="" points="1037,1372 1040,1462 946,1464 959,1409 993,1377 " />
<polygon class="Door" fill="#8BBA00" id="57" transcription="" points="640,1701 705,1639 643,1565 619,1599 611,1656 " />
<polygon class="Door" fill="#8BBA00" id="58" transcription="" points="1062,1664 1064,1567 968,1569 976,1622 1016,1656 " />
<polygon class="Door" fill="#8BBA00" id="59" transcription="" points="1303,1523 1226,1564 1316,1564 1315,1540 " />
<polygon class="Door" fill="#8BBA00" id="60" transcription="" points="1195,1511 1114,1462 1211,1465 1209,1489 " />
<polygon class="Room" fill="#FF8E46" id="61" transcription="" points="1530,1023 1528,1372 2012,1372 2011,1025 " />
<polygon class="Room" fill="#FF8E46" id="62" transcription="" points="712,1471 645,1537 648,1564 708,1635 779,1563 1326,1562 1294,1465 " />
<polygon class="Room" fill="#FF8E46" id="63" transcription="" points="382,1261 381,1553 502,1554 500,1504 610,1501 643,1529 704,1465 707,1262 " />
<polygon class="Room" fill="#FF8E46" id="64" transcription="" points="380,1570 379,2027 700,2027 702,1644 632,1568 629,1539 606,1517 516,1518 518,1569 " />
<polygon class="Room" fill="#FF8E46" id="65" transcription="" points="791,1578 718,1648 718,2026 1060,2028 1057,1583 " />
<polygon class="Room" fill="#FF8E46" id="66" transcription="" points="1079,1792 1075,2026 1252,2028 1255,1794 " />
<polygon class="Room" fill="#FF8E46" id="67" transcription="" points="723,1259 723,1452 1101,1453 1104,1257 " />
<polygon class="Room" fill="#FF8E46" id="68" transcription="" points="1122,1260 1124,1455 1210,1458 1212,1260 " />
<polygon class="Room" fill="#FF8E46" id="69" transcription="" points="1223,1259 1220,1453 1315,1454 1339,1560 1339,1724 1378,1720 1386,1788 1270,1794 1272,2204 1736,2201 1738,1896 2014,1891 2015,1384 1513,1385 1511,1259 " />
<polygon class="Separation" fill="#008E8E" id="70" transcription="" points="1525,1370 2013,1370 2013,1388 1525,1388 " />
<polygon class="Separation" fill="#008E8E" id="71" transcription="" points="1295,1464 1325,1568 1341,1568 1315,1456 " />
<polygon class="Separation" fill="#008E8E" id="72" transcription="" points="1057,1862 1075,1862 1075,1952 1057,1952 " />
<polygon class="Room" fill="#FF8E46" id="73" transcription="" points="1111,1574 1314,1576 1312,1772 1110,1772 " />
<polygon class="Separation" fill="#008E8E" id="74" transcription="" points="1105,1557.5 1211,1557.5 1211,1576.5 1105,1576.5 " />
<relation type="outerP" objects="9,54,10,53,13,52,1,24,22,0,51,2,50,3,4,49,5,6,7,48,17,18,23,47,29,46,26,27,45,8"/>
<relation type="incident" objects="9,54"/>
<relation type="incident" objects="54,10"/>
<relation type="incident" objects="10,53"/>
<relation type="incident" objects="53,13"/>
<relation type="incident" objects="52,13"/>
<relation type="incident" objects="52,1"/>
<relation type="incident" objects="1,24"/>
<relation type="incident" objects="24,22"/>
<relation type="incident" objects="22,0"/>
<relation type="incident" objects="0,51"/>
<relation type="incident" objects="51,2"/>
<relation type="incident" objects="2,50"/>
<relation type="incident" objects="50,3"/>
<relation type="incident" objects="3,4"/>
<relation type="incident" objects="4,49"/>
<relation type="incident" objects="49,5"/>
<relation type="incident" objects="5,6"/>
<relation type="incident" objects="6,7"/>
<relation type="incident" objects="7,48"/>
<relation type="incident" objects="48,17"/>
<relation type="incident" objects="17,18"/>
<relation type="incident" objects="18,23"/>
<relation type="incident" objects="23,47"/>
<relation type="incident" objects="47,29"/>
<relation type="incident" objects="29,46"/>
<relation type="incident" objects="46,26"/>
<relation type="incident" objects="26,27"/>
<relation type="incident" objects="27,45"/>
<relation type="incident" objects="45,8"/>
<relation type="incident" objects="9,8"/>
<relation type="incident" objects="9,19"/>
<relation type="incident" objects="19,55"/>
<relation type="incident" objects="55,43"/>
<relation type="incident" objects="43,41"/>
<relation type="incident" objects="41,40"/>
<relation type="incident" objects="40,28"/>
<relation type="incident" objects="28,27"/>
<relation type="incident" objects="42,55"/>
<relation type="incident" objects="42,43"/>
<relation type="incident" objects="42,57"/>
<relation type="incident" objects="57,30"/>
<relation type="incident" objects="30,31"/>
<relation type="incident" objects="31,57"/>
<relation type="incident" objects="30,29"/>
<relation type="incident" objects="31,21"/>
<relation type="incident" objects="21,58"/>
<relation type="incident" objects="58,12"/>
<relation type="incident" objects="12,34"/>
<relation type="incident" objects="34,33"/>
<relation type="incident" objects="33,38"/>
<relation type="incident" objects="38,39"/>
<relation type="incident" objects="39,34"/>
<relation type="incident" objects="32,59"/>
<relation type="incident" objects="59,33"/>
<relation type="incident" objects="12,15"/>
<relation type="incident" objects="15,72"/>
<relation type="incident" objects="72,16"/>
<relation type="incident" objects="16,23"/>
<relation type="incident" objects="34,35"/>
<relation type="incident" objects="23,35"/>
<relation type="incident" objects="10,11"/>
<relation type="incident" objects="14,11"/>
<relation type="incident" objects="19,20"/>
<relation type="incident" objects="20,55"/>
<relation type="incident" objects="20,56"/>
<relation type="incident" objects="56,14"/>
<relation type="incident" objects="14,60"/>
<relation type="incident" objects="60,37"/>
<relation type="incident" objects="37,36"/>
<relation type="incident" objects="36,13"/>
<relation type="incident" objects="36,60"/>
<relation type="incident" objects="37,71"/>
<relation type="incident" objects="71,33"/>
<relation type="incident" objects="1,25"/>
<relation type="incident" objects="25,70"/>
<relation type="incident" objects="70,2"/>
<relation type="incident" objects="74,12"/>
<relation type="incident" objects="74,32"/>
<relation type="neighbour" objects="63,64"/>
<relation type="neighbour" objects="64,65"/>
<relation type="neighbour" objects="64,62"/>
<relation type="neighbour" objects="63,67"/>
<relation type="neighbour" objects="63,62"/>
<relation type="neighbour" objects="65,66"/>
<relation type="neighbour" objects="65,62"/>
<relation type="neighbour" objects="65,73"/>
<relation type="neighbour" objects="66,69"/>
<relation type="neighbour" objects="73,69"/>
<relation type="neighbour" objects="73,62"/>
<relation type="neighbour" objects="69,62"/>
<relation type="neighbour" objects="66,73"/>
<relation type="neighbour" objects="62,67"/>
<relation type="neighbour" objects="62,68"/>
<relation type="neighbour" objects="68,67"/>
<relation type="neighbour" objects="68,69"/>
<relation type="neighbour" objects="69,61"/>
<relation type="access" objects="62,55,63"/>
<relation type="access" objects="62,57,64"/>
<relation type="access" objects="62,58,65"/>
<relation type="access" objects="62,56,67"/>
<relation type="access" objects="68,60,62"/>
<relation type="access" objects="73,59,62"/>
<relation type="access" objects="65,72,66"/>
<relation type="access" objects="62,71,69"/>
<relation type="access" objects="69,52,69"/>
<relation type="access" objects="69,70,61"/>
<relation type="access" objects="69,49,69"/>
<relation type="access" objects="61,51,61"/>
<relation type="surround" objects="9,19,55,43,41,40,28,27,45,8,9,63"/>
<relation type="surround" objects="9,54,10,11,14,56,20,19,9,67"/>
<relation type="surround" objects="10,53,13,36,60,11,10,68"/>
<relation type="surround" objects="28,40,41,43,42,57,30,29,46,26,27,28,64"/>
<relation type="surround" objects="31,21,58,12,15,72,16,23,47,29,30,31,65"/>
<relation type="surround" objects="55,20,56,14,60,37,71,33,59,32,74,12,58,21,31,57,42,55,62"/>
<relation type="surround" objects="12,34,35,23,16,72,15,12,66"/>
<relation type="surround" objects="74,32,59,33,34,12,74,73"/>
<relation type="surround" objects="34,39,38,33,71,37,36,13,52,1,25,70,2,50,3,4,49,5,6,7,48,17,18,23,35,34,69"/>
<relation type="surround" objects="22,0,51,2,70,25,1,24,22,61"/>
</svg>