<?xml version="1.0" encoding="UTF-8"?><!DOCTYPE svg PUBLIC "-//W3C//DTD SVG 1.1//EN" "http://www.w3.org/Graphics/SVG/1.1/DTD/svg11.dtd">
<svg xmlns="http://www.w3.org/2000/svg" version="1.1">
<width>2479</width>
<height>3508</height>
<nclasslabel>50</nclasslabel>
<nclassappear>6</nclassappear>
<class>Bidet-1</class>
<class>Bidet-2</class>
<class>Bidet-3</class>
<class>Bidet-4</class>
<class>Door</class>
<class>Door-1</class>
<class>Door-23</class>
<class>Oven-1</class>
<class>Oven-2</class>
<class>Oven-3</class>
<class>Oven-4</class>
<class>Parking</class>
<class>Roof</class>
<class>Room</class>
<class>Separation</class>
<class>Sink-1</class>
<class>Sink-11</class>
<class>Sink-12</class>
<class>Sink-13</class>
<class>Sink-14</class>
<class>Sink-2</class>
<class>Sink-3</class>
<class>Sink-4</class>
<class>Sink-5</class>
<class>Sink-6</class>
<class>Sofa-1</class>
<class>Sofa-3</class>
<class>Sofa-4</class>
<class>Sofa-5</class>
<class>Sofa-6</class>
<class>Sofa-7</class>
<class>Sofa-8</class>
<class>Sofa-9</class>
<class>Stairs-1</class>
<class>Table-1</class>
<class>Table-2</class>
<class>Table-3</class>
<class>Table-4</class>
<class>Table-5</class>
<class>Table-6</class>
<class>Table-7</class>
<class>Text</class>
<class>Tub-1</class>
<class>Tub-3</class>
<class>TV-1</class>
<class>TV-2</class>
<class>Wall</class>
<class>Wall-1</class>
<class>Wallieee</class>
<class>Window</class>
<polygon class="Wall" fill="#AFD8F8" id="0" transcription="" points="1108,786 1107,761 1380,761 1381,785 " />
<polygon class="Wall" fill="#AFD8F8" id="1" transcription="" points="1380,941 1404,941 1404,761 1380,761 " />
<polygon class="Wall" fill="#AFD8F8" id="2" transcription="" points="1380,1019 1404,1019 1404,1202 1379,1204 " />
<polygon class="Wall" fill="#AFD8F8" id="3" transcription="" points="1362,1319 1404,1319 1404,1202 1363,1204 " />
<polygon class="Wall" fill="#AFD8F8" id="4" transcription="" points="1156,1204 1157,1228 1362,1228 1363,1204 " />
<polygon class="Wall" fill="#AFD8F8" id="5" transcription="" points="1132,1319 1156,1320 1156,1205 1132,1205 " />
<polygon class="Wall" fill="#AFD8F8" id="6" transcription="" points="827,761 828,786 778,784 778,761 " />
<polygon class="Wall" fill="#AFD8F8" id="7" transcription="" points="802,1433 778,1433 778,784 803,784 " />
<polygon class="Wall" fill="#AFD8F8" id="8" transcription="" points="778,1569 820,1569 821,1434 778,1433 " />
<polygon class="Wall" fill="#AFD8F8" id="9" transcription="" points="1133,1419 1156,1419 1156,1476 1132,1476 " />
<polygon class="Wall" fill="#AFD8F8" id="10" transcription="" points="819,1676 818,1682 1051,1683 1050,1677 " />
<polygon class="Wall" fill="#AFD8F8" id="11" transcription="" points="820,1783 820,1807 1156,1806 1157,1783 " />
<polygon class="Wall" fill="#AFD8F8" id="12" transcription="" points="1363,1782 1363,1806 1605,1808 1604,1783 " />
<polygon class="Wall" fill="#AFD8F8" id="13" transcription="" points="1604,1764 1664,1764 1663,1806 1605,1806 " />
<polygon class="Wall" fill="#AFD8F8" id="14" transcription="" points="1604,1963 1647,1964 1647,1804 1605,1803 " />
<polygon class="Wall" fill="#AFD8F8" id="15" transcription="" points="1604,2178 1647,2177 1647,2279 1604,2278 " />
<polygon class="Wall" fill="#AFD8F8" id="16" transcription="" points="1251,2278 1252,2321 1648,2321 1646,2278 " />
<polygon class="Wall" fill="#AFD8F8" id="17" transcription="" points="1014,2278 1012,2321 1190,2321 1191,2278 " />
<polygon class="Wall" fill="#AFD8F8" id="18" transcription="" points="1191,2283 1189,2321 1254,2321 1252,2283 " />
<polygon class="Wall" fill="#AFD8F8" id="19" transcription="" points="731,2278 731,2321 872,2321 872,2278 " />
<polygon class="Wall" fill="#AFD8F8" id="20" transcription="" points="690,2321 731,2321 731,1824 689,1825 " />
<polygon class="Wall" fill="#AFD8F8" id="21" transcription="" points="689,1781 689,1825 777,1825 776,1781 " />
<polygon class="Wall" fill="#AFD8F8" id="22" transcription="" points="777,1646 819,1646 818,1691 777,1691 " />
<polygon class="Wall" fill="#AFD8F8" id="23" transcription="" points="821,1434 820,1476 1132,1476 1132,1435 " />
<polygon class="Wall" fill="#AFD8F8" id="24" transcription="" points="1404,1426 1363,1426 1363,1476 1405,1475 " />
<polygon class="Wall" fill="#AFD8F8" id="25" transcription="" points="1404,1433 1404,1476 1841,1476 1841,1434 " />
<polygon class="Wall" fill="#AFD8F8" id="26" transcription="" points="1883,1434 1840,1434 1840,1546 1883,1546 " />
<polygon class="Wall" fill="#AFD8F8" id="27" transcription="" points="1841,1695 1883,1695 1882,1807 1841,1806 " />
<polygon class="Wall" fill="#AFD8F8" id="28" transcription="" points="1759,1765 1840,1765 1841,1807 1759,1806 " />
<polygon class="Wall" fill="#AFD8F8" id="29" transcription="" points="1363,1476 1369,1476 1369,1683 1362,1683 " />
<polygon class="Wall" fill="#AFD8F8" id="30" transcription="" points="1148,1477 1155,1476 1156,1683 1149,1683 " />
<polygon class="Wall" fill="#AFD8F8" id="31" transcription="" points="821,1825 775,1825 776,1767 820,1767 " />
<polygon class="Parking" fill="#F6BD0F" id="32" transcription="" points="819,746 821,792 1113,794 1113,746 " />
<polygon class="Window" fill="#8BBA00" id="33" transcription="" points="1375,941 1407,941 1408,1018 1377,1019 " />
<polygon class="Window" fill="#8BBA00" id="34" transcription="" points="773,1569 822,1570 824,1645 775,1648 " />
<polygon class="Window" fill="#8BBA00" id="35" transcription="" points="771,1692 821,1691 821,1767 773,1765 " />
<polygon class="Window" fill="#8BBA00" id="36" transcription="" points="875,2206 874,2324 1013,2323 1010,2207 971,2212 944,2247 913,2212 " />
<polygon class="Window" fill="#8BBA00" id="37" transcription="" points="1533,1964 1648,1963 1649,2178 1602,2180 1601,2102 1534,2102 1547,2054 1579,2036 1543,2007 " />
<polygon class="Door" fill="#FF8E46" id="38" transcription="" points="1755,1674 1758,1806 1665,1808 1665,1760 1682,1710 1716,1682 " />
<polygon class="Window" fill="#8BBA00" id="39" transcription="" points="1836,1547 1887,1546 1887,1691 1835,1689 " />
<polygon class="Door" fill="#FF8E46" id="40" transcription="" points="1263,1322 1377,1321 1378,1422 1357,1422 1305,1408 1271,1367 " />
<polygon class="Door" fill="#FF8E46" id="41" transcription="" points="1194,1408 1238,1370 1245,1321 1154,1320 1150,1418 " />
<polygon class="Door" fill="#FF8E46" id="42" transcription="" points="1462,1781 1361,1782 1363,1687 1415,1698 1451,1736 " />
<polygon class="Door" fill="#FF8E46" id="43" transcription="" points="1140,1778 1044,1779 1042,1684 1094,1697 1133,1738 " />
<polygon class="Door" fill="#FF8E46" id="44" transcription="" points="1145,1585 1149,1681 1053,1678 1060,1632 1097,1594 " />
<polygon class="Room" fill="#008E8E" id="45" transcription="" points="808,791 807,1430 1130,1431 1128,1203 1373,1198 1372,789 " />
<polygon class="Room" fill="#008E8E" id="46" transcription="" points="1159,1232 1157,1684 1048,1685 1050,1776 1156,1779 1158,1803 1360,1801 1359,1235 " />
<polygon class="Room" fill="#008E8E" id="47" transcription="" points="1836,1482 1835,1759 1599,1760 1599,1777 1371,1777 1373,1479 " />
<polygon class="Room" fill="#008E8E" id="48" transcription="" points="824,1480 822,1671 1144,1671 1143,1479 " />
<polygon class="Room" fill="#008E8E" id="49" transcription="" points="827,1685 827,1776 1043,1777 1040,1686 " />
<polygon class="Room" fill="#008E8E" id="50" transcription="" points="734,1828 734,2271 1599,2273 1600,1811 823,1813 823,1825 " />
<polygon class="Separation" fill="#D64646" id="51" transcription="" points="1155,1796 1359,1796 1359,1811 1155,1811 " />
<relation type="incident" objects="6,32"/>
<relation type="incident" objects="32,0"/>
<relation type="incident" objects="0,1"/>
<relation type="incident" objects="1,33"/>
<relation type="incident" objects="33,2"/>
<relation type="incident" objects="2,3"/>
<relation type="incident" objects="3,40"/>
<relation type="incident" objects="40,24"/>
<relation type="incident" objects="24,25"/>
<relation type="incident" objects="25,26"/>
<relation type="incident" objects="26,39"/>
<relation type="incident" objects="39,27"/>
<relation type="incident" objects="27,28"/>
<relation type="incident" objects="28,38"/>
<relation type="incident" objects="38,13"/>
<relation type="incident" objects="13,14"/>
<relation type="incident" objects="14,37"/>
<relation type="incident" objects="37,15"/>
<relation type="incident" objects="15,16"/>
<relation type="incident" objects="16,18"/>
<relation type="incident" objects="18,17"/>
<relation type="incident" objects="17,36"/>
<relation type="incident" objects="36,19"/>
<relation type="incident" objects="19,20"/>
<relation type="incident" objects="20,21"/>
<relation type="incident" objects="21,31"/>
<relation type="incident" objects="31,35"/>
<relation type="incident" objects="35,22"/>
<relation type="incident" objects="22,34"/>
<relation type="incident" objects="34,8"/>
<relation type="incident" objects="8,7"/>
<relation type="incident" objects="7,6"/>
<relation type="incident" objects="3,4"/>
<relation type="incident" objects="4,5"/>
<relation type="incident" objects="5,41"/>
<relation type="incident" objects="41,9"/>
<relation type="incident" objects="23,9"/>
<relation type="incident" objects="23,8"/>
<relation type="incident" objects="9,30"/>
<relation type="incident" objects="30,44"/>
<relation type="incident" objects="44,10"/>
<relation type="incident" objects="10,43"/>
<relation type="incident" objects="10,22"/>
<relation type="incident" objects="43,11"/>
<relation type="incident" objects="11,31"/>
<relation type="incident" objects="24,29"/>
<relation type="incident" objects="29,42"/>
<relation type="incident" objects="42,12"/>
<relation type="incident" objects="12,13"/>
<relation type="access" objects="45,41,46"/>
<relation type="access" objects="46,42,47"/>
<relation type="access" objects="49,43,46"/>
<relation type="access" objects="48,44,46"/>
<relation type="neighbour" objects="45,46"/>
<relation type="neighbour" objects="45,48"/>
<relation type="neighbour" objects="48,49"/>
<relation type="neighbour" objects="49,50"/>
<relation type="neighbour" objects="50,47"/>
<relation type="neighbour" objects="47,46"/>
<relation type="neighbour" objects="46,50"/>
<relation type="neighbour" objects="46,49"/>
<relation type="neighbour" objects="48,46"/>
<relation type="incident" objects="12,51"/>
<relation type="incident" objects="11,51"/>
<relation type="access" objects="46,51,50"/>
<relation type="access" objects="47,38,47"/>
<relation type="access" objects="46,40,46"/>
<relation type="outerP" objects="6,32,0,1,33,2,3,40,24,25,26,39,27,28,38,13,14,37,15,16,18,17,36,19,20,21,31,35,22,34,8,7"/>
<relation type="surround" objects="6,32,0,1,33,2,4,5,41,9,23,7,6,45"/>
<relation type="surround" objects="23,9,30,44,10,22,34,8,23,48"/>
<relation type="surround" objects="10,43,11,31,35,22,10,49"/>
<relation type="surround" objects="24,25,26,39,27,28,38,13,12,42,29,24,47"/>
<relation type="surround" objects="4,3,40,24,29,42,12,51,11,43,10,44,30,9,41,5,4,46"/>
<relation type="surround" objects="21,31,11,51,12,13,14,37,15,16,18,17,36,19,20,21,50"/>
</svg>