<?xml version="1.0" encoding="UTF-8"?><!DOCTYPE svg PUBLIC "-//W3C//DTD SVG 1.1//EN" "http://www.w3.org/Graphics/SVG/1.1/DTD/svg11.dtd">
<svg xmlns="http://www.w3.org/2000/svg" version="1.1">
<width>2479</width>
<height>3508</height>
<nclasslabel>50</nclasslabel>
<nclassappear>6</nclassappear>
<class>Bidet-1</class>
<class>Bidet-2</class>
<class>Bidet-3</class>
<class>Bidet-4</class>
<class>Door</class>
<class>Door-1</class>
<class>Door-23</class>
<class>Oven-1</class>
<class>Oven-2</class>
<class>Oven-3</class>
<class>Oven-4</class>
<class>Parking</class>
<class>Roof</class>
<class>Room</class>
<class>Separation</class>
<class>Sink-1</class>
<class>Sink-11</class>
<class>Sink-12</class>
<class>Sink-13</class>
<class>Sink-14</class>
<class>Sink-2</class>
<class>Sink-3</class>
<class>Sink-4</class>
<class>Sink-5</class>
<class>Sink-6</class>
<class>Sofa-1</class>
<class>Sofa-3</class>
<class>Sofa-4</class>
<class>Sofa-5</class>
<class>Sofa-6</class>
<class>Sofa-7</class>
<class>Sofa-8</class>
<class>Sofa-9</class>
<class>Stairs-1</class>
<class>Table-1</class>
<class>Table-2</class>
<class>Table-3</class>
<class>Table-4</class>
<class>Table-5</class>
<class>Table-6</class>
<class>Table-7</class>
<class>Text</class>
<class>Tub-1</class>
<class>Tub-3</class>
<class>TV-1</class>
<class>TV-2</class>
<class>Wall</class>
<class>Wall-1</class>
<class>Wallieee</class>
<class>Window</class>
<polygon class="Wall" fill="#AFD8F8" id="0" transcription="" points="608,555 608,578 1593,578 1593,554 " />
<polygon class="Wall" fill="#AFD8F8" id="1" transcription="" points="1593,554 1594,670 1618,670 1618,554 " />
<polygon class="Wall" fill="#AFD8F8" id="2" transcription="" points="1594,1101 1594,1167 1617,1167 1617,1101 " />
<polygon class="Wall" fill="#AFD8F8" id="3" transcription="" points="1192,1169 1192,1192 1575,1193 1575,1168 " />
<polygon class="Wall" fill="#AFD8F8" id="4" transcription="" points="584,555 608,555 607,1197 583,1197 " />
<polygon class="Wall" fill="#AFD8F8" id="5" transcription="" points="583,1241 624,1241 625,1376 583,1376 " />
<polygon class="Wall" fill="#AFD8F8" id="6" transcription="" points="583,1523 583,1700 625,1700 624,1523 " />
<polygon class="Wall" fill="#AFD8F8" id="7" transcription="" points="625,1658 814,1658 814,1700 625,1700 " />
<polygon class="Wall" fill="#AFD8F8" id="8" transcription="" points="814,1786 813,1940 856,1940 856,1786 " />
<polygon class="Wall" fill="#AFD8F8" id="9" transcription="" points="813,2087 813,2412 813,2621 855,2621 856,2087 " />
<polygon class="Wall" fill="#AFD8F8" id="10" transcription="" points="1168,2621 1168,2662 1541,2662 1540,2619 " />
<polygon class="Wall" fill="#AFD8F8" id="11" transcription="" points="1498,2517 1499,2619 1540,2619 1540,2517 " />
<polygon class="Wall" fill="#AFD8F8" id="12" transcription="" points="1499,2267 1498,2372 1540,2372 1540,2268 " />
<polygon class="Wall" fill="#AFD8F8" id="13" transcription="" points="1655,2225 1655,2266 1794,2266 1794,2225 " />
<polygon class="Wall" fill="#AFD8F8" id="14" transcription="" points="1793,2063 1794,2266 1836,2267 1836,2063 " />
<polygon class="Wall" fill="#AFD8F8" id="15" transcription="" points="1793,1755 1793,1916 1836,1916 1835,1755 " />
<polygon class="Wall" fill="#AFD8F8" id="16" transcription="" points="1439,1711 1439,1754 1835,1755 1835,1711 " />
<polygon class="Wall" fill="#AFD8F8" id="17" transcription="" points="1398,1676 1398,1754 1439,1754 1439,1676 " />
<polygon class="Wall" fill="#AFD8F8" id="18" transcription="" points="1257,1747 1257,1753 1398,1754 1398,1748 " />
<polygon class="Wall" fill="#AFD8F8" id="19" transcription="" points="1398,1754 1398,1989 1405,1989 1405,1754 " />
<polygon class="Wall" fill="#AFD8F8" id="20" transcription="" points="1399,1416 1398,1459 1576,1458 1575,1416 " />
<polygon class="Wall" fill="#AFD8F8" id="21" transcription="" points="1575,1337 1576,1458 1617,1457 1617,1337 " />
<polygon class="Wall" fill="#AFD8F8" id="22" transcription="" points="1575,1168 1575,1261 1618,1261 1617,1168 " />
<polygon class="Wall" fill="#AFD8F8" id="23" transcription="" points="1398,1459 1398,1570 1439,1571 1440,1459 " />
<polygon class="Wall" fill="#AFD8F8" id="24" transcription="" points="1191,1476 1191,1552 1198,1552 1198,1476 " />
<polygon class="Wall" fill="#AFD8F8" id="25" transcription="" points="583,1196.5 583,1240.5 943,1238.5 943,1197.5 " />
<polygon class="Wall" fill="#AFD8F8" id="26" transcription="" points="943,1198 943,1284 967,1284 968,1198 " />
<polygon class="Wall" fill="#AFD8F8" id="27" transcription="" points="943,1284 943,1457 986,1457 986,1284 " />
<polygon class="Wall" fill="#AFD8F8" id="28" transcription="" points="978,1457 978,1482 986,1482 986,1457 " />
<polygon class="Wall" fill="#AFD8F8" id="29" transcription="" points="1068,1168 1067,1351 1092,1352 1092,1168 " />
<polygon class="Wall" fill="#AFD8F8" id="30" transcription="" points="1085,1352 1085,1468 1092,1468 1092,1352 " />
<polygon class="Wall" fill="#AFD8F8" id="31" transcription="" points="1191,1292 1191,1434 1215,1434 1216,1292 " />
<polygon class="Wall" fill="#AFD8F8" id="32" transcription="" points="1215,1417 1215,1423 1398,1423 1399,1416 " />
<polygon class="Wall" fill="#AFD8F8" id="33" transcription="" points="1191,1435 1191,1476 1398,1476 1398,1436 " />
<polygon class="Wall" fill="#AFD8F8" id="34" transcription="" points="857,1788 857,1795 1092,1795 1092,1788 " />
<polygon class="Wall" fill="#AFD8F8" id="35" transcription="" points="1086,1581 1085,1787 1092,1787 1092,1581 " />
<polygon class="Wall" fill="#AFD8F8" id="36" transcription="" points="849,1581 841,1676 856,1658 856,1581 " />
<polygon class="Wall" fill="#AFD8F8" id="37" transcription="" points="856,1581 856,1588 987,1587 987,1581 " />
<polygon class="Wall" fill="#AFD8F8" id="38" transcription="" points="814,1709 856,1709 856,1658 814,1658 " />
<polygon class="Wall" fill="#AFD8F8" id="39" transcription="" points="1499,2225 1556,2226 1556,2267 1499,2267 " />
<polygon class="Wall" fill="#AFD8F8" id="40" transcription="" points="883,2622 883,2662 813,2662 812,2621 " />
<polygon class="Wall" fill="#AFD8F8" id="41" transcription="" points="1209,2568 1209,2620 1217,2621 1217,2576 " />
<polygon class="Wall" fill="#AFD8F8" id="42" transcription="" points="1268,2567 1261,2575 1216,2576 1208,2568 " />
<polygon class="Wall" fill="#AFD8F8" id="43" transcription="" points="1268,2619 1262,2620 1262,2575 1268,2567 " />
<polygon class="Parking" fill="#F6BD0F" id="44" transcription="" points="1579.5,672 1576.5,1099 1634.5,1099 1632.5,668 " />
<polygon class="Window" fill="#8BBA00" id="45" transcription="" points="1571,1261 1622,1261 1622,1335 1571,1336 " />
<polygon class="Door" fill="#FF8E46" id="46" transcription="" points="1298,1573 1406,1572 1407,1672 1352,1671 1304,1620 " />
<polygon class="Window" fill="#8BBA00" id="47" transcription="" points="1790,1916 1839,1916 1841,2064 1792,2064 " />
<polygon class="Door" fill="#FF8E46" id="48" transcription="" points="1561,2134 1556,2265 1653,2268 1653,2220 1638,2170 1590,2136 " />
<polygon class="Window" fill="#8BBA00" id="49" transcription="" points="1427,2376 1541,2375 1544,2516 1427,2512 1435,2466 1470,2441 1434,2413 " />
<polygon class="Window" fill="#8BBA00" id="50" transcription="" points="883,2618 883,2664 1166,2663 1168,2618 " />
<polygon class="Window" fill="#8BBA00" id="51" transcription="" points="860,1939 808,1941 809,2083 860,2084 " />
<polygon class="Window" fill="#8BBA00" id="52" transcription="" points="809,1783 857,1782 859,1708 810,1708 " />
<polygon class="Window" fill="#8BBA00" id="53" transcription="" points="577,1373 627,1373 627,1518 578,1516 " />
<polygon class="Door" fill="#FF8E46" id="54" transcription="" points="1094,1281 1091,1187 1190,1183 1177,1239 1140,1274 " />
<polygon class="Door" fill="#FF8E46" id="55" transcription="" points="1306,1195 1208,1193 1209,1293 1266,1278 1301,1233 " />
<polygon class="Door" fill="#FF8E46" id="56" transcription="" points="1186,1567 1189,1470 1091,1468 1102,1523 1130,1553 " />
<polygon class="Door" fill="#FF8E46" id="57" transcription="" points="887,1576 986,1577 984,1477 925,1500 895,1530 " />
<polygon class="Door" fill="#FF8E46" id="58" transcription="" points="1084,1683 1086,1580 985,1579 992,1624 1023,1662 " />
<polygon class="Room" fill="#008E8E" id="59" transcription="" points="613,585 609,1193 1064,1193 1061,1165 1586,1161 1587,579 " />
<polygon class="Room" fill="#008E8E" id="60" transcription="" points="1570,1197 1568,1420 1217,1409 1221,1199 " />
<polygon class="Room" fill="#008E8E" id="61" transcription="" points="1094,1465 1185,1465 1191,1186 1091,1185 " />
<polygon class="Room" fill="#008E8E" id="62" transcription="" points="1394,1479.5 1393,1743.5 1253,1741.5 1095,1790.5 1094,1575.5 989,1573.5 987,1279.5 969,1277.5 971,1207 1063,1208 1062,1352.5 1081,1354.5 1084,1472.5 1183,1481.5 1183,1553.5 1201,1552.5 1202,1480.5 " />
<polygon class="Room" fill="#008E8E" id="63" transcription="" points="627.5,1245 626.5,1653 843.5,1650 847.5,1574 979.5,1573 979.5,1459 940.5,1459 936.5,1241 " />
<polygon class="Room" fill="#008E8E" id="64" transcription="" points="864,1591 862,1780 1079,1782 1082,1589 " />
<polygon class="Room" fill="#008E8E" id="65" transcription="" points="1411,1760 1412,1987 1507,2223 1789,2217 1786,1758 " />
<polygon class="Room" fill="#008E8E" id="66" transcription="" points="859,1798.5 859,2614.5 1205,2614.5 1206,2563.5 1272,2563.5 1274,2613.5 1493,2611.5 1495,2238 1395,1988.5 1392,1758.5 1253,1757 1096,1801 " />
<polygon class="Separation" fill="#D64646" id="67" transcription="" points="969,1190 1068,1193 1068,1209 968,1207 " />
<polygon class="Separation" fill="#D64646" id="68" transcription="" points="1093,1790 1254,1741 1253,1758 1099,1801 " />
<polygon class="Separation" fill="#D64646" id="69" transcription="" points="1398,1992 1497,2236 1508,2224 1413,1989 " />
<relation type="incident" objects="0,1"/>
<relation type="incident" objects="1,44"/>
<relation type="incident" objects="44,2"/>
<relation type="incident" objects="2,3"/>
<relation type="incident" objects="2,22"/>
<relation type="incident" objects="22,3"/>
<relation type="incident" objects="22,45"/>
<relation type="incident" objects="45,21"/>
<relation type="incident" objects="21,20"/>
<relation type="incident" objects="20,23"/>
<relation type="incident" objects="23,46"/>
<relation type="incident" objects="46,17"/>
<relation type="incident" objects="17,16"/>
<relation type="incident" objects="16,15"/>
<relation type="incident" objects="15,47"/>
<relation type="incident" objects="47,14"/>
<relation type="incident" objects="14,13"/>
<relation type="incident" objects="13,48"/>
<relation type="incident" objects="48,39"/>
<relation type="incident" objects="39,12"/>
<relation type="incident" objects="12,49"/>
<relation type="incident" objects="49,11"/>
<relation type="incident" objects="11,10"/>
<relation type="incident" objects="10,50"/>
<relation type="incident" objects="50,40"/>
<relation type="incident" objects="40,9"/>
<relation type="incident" objects="9,51"/>
<relation type="incident" objects="51,8"/>
<relation type="incident" objects="8,52"/>
<relation type="incident" objects="52,38"/>
<relation type="incident" objects="38,7"/>
<relation type="incident" objects="7,6"/>
<relation type="incident" objects="6,53"/>
<relation type="incident" objects="53,5"/>
<relation type="incident" objects="5,25"/>
<relation type="incident" objects="25,4"/>
<relation type="incident" objects="4,0"/>
<relation type="incident" objects="3,54"/>
<relation type="incident" objects="3,55"/>
<relation type="incident" objects="54,29"/>
<relation type="incident" objects="29,30"/>
<relation type="incident" objects="30,56"/>
<relation type="incident" objects="56,24"/>
<relation type="incident" objects="24,33"/>
<relation type="incident" objects="56,33"/>
<relation type="incident" objects="31,33"/>
<relation type="incident" objects="31,55"/>
<relation type="incident" objects="33,20"/>
<relation type="incident" objects="25,26"/>
<relation type="incident" objects="26,27"/>
<relation type="incident" objects="27,57"/>
<relation type="incident" objects="37,57"/>
<relation type="incident" objects="36,37"/>
<relation type="incident" objects="34,52"/>
<relation type="incident" objects="34,8"/>
<relation type="incident" objects="34,35"/>
<relation type="incident" objects="35,58"/>
<relation type="incident" objects="58,37"/>
<relation type="incident" objects="28,57"/>
<relation type="incident" objects="28,27"/>
<relation type="incident" objects="17,18"/>
<relation type="incident" objects="17,19"/>
<relation type="incident" objects="10,43"/>
<relation type="incident" objects="43,42"/>
<relation type="incident" objects="42,41"/>
<relation type="incident" objects="41,10"/>
<relation type="neighbour" objects="59,63"/>
<relation type="neighbour" objects="59,60"/>
<relation type="neighbour" objects="61,59"/>
<relation type="neighbour" objects="59,62"/>
<relation type="neighbour" objects="63,62"/>
<relation type="neighbour" objects="63,64"/>
<relation type="neighbour" objects="62,61"/>
<relation type="neighbour" objects="62,60"/>
<relation type="neighbour" objects="64,66"/>
<relation type="neighbour" objects="66,62"/>
<relation type="neighbour" objects="66,65"/>
<relation type="access" objects="59,54,61"/>
<relation type="access" objects="61,55,60"/>
<relation type="access" objects="62,58,64"/>
<relation type="incident" objects="34,68"/>
<relation type="incident" objects="68,35"/>
<relation type="incident" objects="68,18"/>
<relation type="incident" objects="19,69"/>
<relation type="incident" objects="69,39"/>
<relation type="incident" objects="26,67"/>
<relation type="incident" objects="67,29"/>
<relation type="access" objects="62,57,63"/>
<relation type="access" objects="62,46,62"/>
<relation type="access" objects="61,56,62"/>
<relation type="access" objects="62,67,59"/>
<relation type="access" objects="62,68,66"/>
<relation type="access" objects="66,69,65"/>
<relation type="access" objects="65,48,65"/>
<relation type="neighbour" objects="62,64"/>
<relation type="outerP" objects="0,1,44,2,22,45,21,20,23,46,17,16,15,47,14,13,48,39,12,49,11,10,50,40,9,51,8,52,38,7,6,53,5,4"/>
<relation type="surround" objects="0,1,44,2,3,54,29,67,25,4,0,59"/>
<relation type="surround" objects="25,26,27,28,57,37,36,38,7,6,53,5,25,63"/>
<relation type="surround" objects="3,22,45,21,20,33,31,55,3,60"/>
<relation type="surround" objects="54,3,55,31,33,24,56,30,29,54,61"/>
<relation type="surround" objects="67,29,30,56,24,33,23,46,17,18,68,35,58,37,57,27,25,67,62"/>
<relation type="surround" objects="37,58,35,34,52,38,36,37,64"/>
<relation type="surround" objects="16,15,47,14,13,48,39,69,19,17,16,65"/>
<relation type="surround" objects="34,68,18,19,69,39,12,49,11,10,50,40,9,51,8,34,66"/>
<relation type="incident" objects="38,36"/>
</svg>