<?xml version="1.0" encoding="UTF-8"?><!DOCTYPE svg PUBLIC "-//W3C//DTD SVG 1.1//EN" "http://www.w3.org/Graphics/SVG/1.1/DTD/svg11.dtd">
<svg xmlns="http://www.w3.org/2000/svg" version="1.1">
<width>2479</width>
<height>3508</height>
<nclasslabel>50</nclasslabel>
<nclassappear>6</nclassappear>
<class>Bidet-1</class>
<class>Bidet-2</class>
<class>Bidet-3</class>
<class>Bidet-4</class>
<class>Door</class>
<class>Door-1</class>
<class>Door-23</class>
<class>Oven-1</class>
<class>Oven-2</class>
<class>Oven-3</class>
<class>Oven-4</class>
<class>Parking</class>
<class>Roof</class>
<class>Room</class>
<class>Separation</class>
<class>Sink-1</class>
<class>Sink-11</class>
<class>Sink-12</class>
<class>Sink-13</class>
<class>Sink-14</class>
<class>Sink-2</class>
<class>Sink-3</class>
<class>Sink-4</class>
<class>Sink-5</class>
<class>Sink-6</class>
<class>Sofa-1</class>
<class>Sofa-3</class>
<class>Sofa-4</class>
<class>Sofa-5</class>
<class>Sofa-6</class>
<class>Sofa-7</class>
<class>Sofa-8</class>
<class>Sofa-9</class>
<class>Stairs-1</class>
<class>Table-1</class>
<class>Table-2</class>
<class>Table-3</class>
<class>Table-4</class>
<class>Table-5</class>
<class>Table-6</class>
<class>Table-7</class>
<class>Text</class>
<class>Tub-1</class>
<class>Tub-3</class>
<class>TV-1</class>
<class>TV-2</class>
<class>Wall</class>
<class>Wall-1</class>
<class>Wallieee</class>
<class>Window</class>
<polygon class="Wall" fill="#AFD8F8" id="0" transcription="" points="1537,571 1563,571 1564,694 1538,697 " />
<polygon class="Wall" fill="#AFD8F8" id="1" transcription="" points="575,1069 600,1069 601,1373 575,1374 " />
<polygon class="Wall" fill="#AFD8F8" id="2" transcription="" points="1514,1189 1563,1189 1563,1233 1513,1232 " />
<polygon class="Wall" fill="#AFD8F8" id="3" transcription="" points="2069,1374 2113,1374 2112,1909 2069,1909 " />
<polygon class="Wall" fill="#AFD8F8" id="4" transcription="" points="1260,1686 1285,1686 1285,1904 1260,1904 " />
<polygon class="Wall" fill="#AFD8F8" id="5" transcription="" points="1762,1951 1786,1951 1786,1969 1762,1969 " />
<polygon class="Wall" fill="#AFD8F8" id="6" transcription="" points="2047,1909 2112,1909 2112,1952 2047,1952 " />
<polygon class="Wall" fill="#AFD8F8" id="7" transcription="" points="1384,2079 1520,2079 1519,2087 1384,2086 " />
<polygon class="Wall" fill="#AFD8F8" id="8" transcription="" points="339,2204 420,2204 420,2247 339,2247 " />
<polygon class="Wall" fill="#AFD8F8" id="9" transcription="" points="829,2204 872,2204 872,2291 829,2290 " />
<polygon class="Wall" fill="#AFD8F8" id="10" transcription="" points="1744,2496 1786,2496 1787,2583 1744,2583 " />
<polygon class="Wall" fill="#AFD8F8" id="11" transcription="" points="830,2504 872,2504 872,2583 829,2583 " />
<polygon class="Wall" fill="#AFD8F8" id="12" transcription="" points="704,2204 704,2247 828,2247 828,2204 " />
<polygon class="Wall" fill="#AFD8F8" id="13" transcription="" points="1762,2145 1787,2145 1787,2128 1762,2128 " />
<polygon class="Wall" fill="#AFD8F8" id="14" transcription="" points="1786,2255 1745,2255 1745,2187 1786,2186 " />
<polygon class="Wall" fill="#AFD8F8" id="15" transcription="" points="1563,2145 1563,2187 1787,2187 1787,2146 " />
<polygon class="Wall" fill="#AFD8F8" id="16" transcription="" points="2113,1330 2114,1374 2019,1372 2019,1330 " />
<polygon class="Wall" fill="#AFD8F8" id="17" transcription="" points="1943,1330 1943,1372 1894,1372 1894,1330 " />
<polygon class="Wall" fill="#AFD8F8" id="18" transcription="" points="1963,1909 1963,1952 1757,1952 1757,1909 " />
<polygon class="Wall" fill="#AFD8F8" id="19" transcription="" points="599,576 576,576 574,885 601,883 " />
<polygon class="Wall" fill="#AFD8F8" id="20" transcription="" points="576,551 576,576 1296,579 1293,550 " />
<polygon class="Wall" fill="#AFD8F8" id="21" transcription="" points="1362,549 1363,578 1566,578 1563,550 " />
<polygon class="Wall" fill="#AFD8F8" id="22" transcription="" points="1537,1116 1563,1117 1563,1190 1538,1192 " />
<polygon class="Wall" fill="#AFD8F8" id="23" transcription="" points="1563,1327 1520,1327 1520,1372 1563,1373 " />
<polygon class="Wall" fill="#AFD8F8" id="24" transcription="" points="1520,1450 1527,1450 1527,1372 1520,1372 " />
<polygon class="Wall" fill="#AFD8F8" id="25" transcription="" points="1402,1330 1409,1330 1409,1478 1402,1478 " />
<polygon class="Wall" fill="#AFD8F8" id="26" transcription="" points="1415,1189 1415,1231 1303,1231 1303,1189 " />
<polygon class="Wall" fill="#AFD8F8" id="27" transcription="" points="1260,1189 1303,1189 1302,1479 1260,1479 " />
<polygon class="Wall" fill="#AFD8F8" id="28" transcription="" points="1260,1585 1260,1479 1285,1479 1285,1585 " />
<polygon class="Wall" fill="#AFD8F8" id="29" transcription="" points="1427,2541 1426,2584 1744,2583 1744,2541 " />
<polygon class="Wall" fill="#AFD8F8" id="30" transcription="" points="1563,2068 1520,2068 1521,2187 1563,2187 " />
<polygon class="Wall" fill="#AFD8F8" id="31" transcription="" points="1597,1580 1604,1580 1605,1910 1596,1910 " />
<polygon class="Wall" fill="#AFD8F8" id="32" transcription="" points="1521,1572 1521,1579 1681,1580 1681,1572 " />
<polygon class="Wall" fill="#AFD8F8" id="33" transcription="" points="1780,1572 1780,1579 2069,1580 2069,1572 " />
<polygon class="Wall" fill="#AFD8F8" id="34" transcription="" points="1898,1371.5 1904,1371.5 1904,1464.5 1898,1464.5 " />
<polygon class="Wall" fill="#AFD8F8" id="35" transcription="" points="1863,1466 1862,1472 1907,1475 1905,1466 " />
<polygon class="Wall" fill="#AFD8F8" id="36" transcription="" points="1520,1909 1521,1962 1562,1962 1562,1908 " />
<polygon class="Wall" fill="#AFD8F8" id="37" transcription="" points="1661,1909 1661,1951 1562,1951 1562,1908 " />
<polygon class="Wall" fill="#AFD8F8" id="38" transcription="" points="1819,1330 1819,1372 1562,1372 1562,1329 " />
<polygon class="Wall" fill="#AFD8F8" id="39" transcription="" points="1739,1442 1747,1441 1746,1372 1738,1372 " />
<polygon class="Wall" fill="#AFD8F8" id="40" transcription="" points="1261,2080 1261,2169 1284,2169 1286,2080 " />
<polygon class="Wall" fill="#AFD8F8" id="41" transcription="" points="871,1731 872,1739 1260,1739 1260,1732 " />
<polygon class="Wall" fill="#AFD8F8" id="42" transcription="" points="829,1665 871,1665 871,1739 829,1739 " />
<polygon class="Wall" fill="#AFD8F8" id="43" transcription="" points="339,2115 382,2115 382,2203 339,2204 " />
<polygon class="Wall" fill="#AFD8F8" id="44" transcription="" points="1094,2542 1095,2584 871,2584 872,2541 " />
<polygon class="Wall" fill="#AFD8F8" id="45" transcription="" points="575,1396 575,1372 828,1372 828,1396 " />
<polygon class="Wall" fill="#AFD8F8" id="46" transcription="" points="873,1372 873,1414 1259,1414 1259,1372 " />
<polygon class="Wall" fill="#AFD8F8" id="47" transcription="" points="828,1423 872,1423 872,1372 828,1372 " />
<polygon class="Wall" fill="#AFD8F8" id="48" transcription="" points="829.5,1696.5 828.5,1738.5 434.5,1737.5 434.5,1695.5 " />
<polygon class="Wall" fill="#AFD8F8" id="49" transcription="" points="339,1830 382,1830 382,1791 339,1792 " />
<polygon class="Wall" fill="#AFD8F8" id="50" transcription="" points="376,1731 339,1732 339,1792 376,1791 " />
<polygon class="Wall" fill="#AFD8F8" id="51" transcription="" points="339,1696 339,1732 434,1734 435,1696 " />
<polygon class="Wall" fill="#AFD8F8" id="52" transcription="" points="1756,1451 1756,1472 1763,1472 1762,1450 " />
<polygon class="Wall" fill="#AFD8F8" id="53" transcription="" points="1739,1442 1762,1442 1762,1450 1739,1450 " />
<polygon class="Window" fill="#F6BD0F" id="54" transcription="" points="697,882 574,881 571,1071 697,1069 678,1002 633,974 684,949 " />
<polygon class="Window" fill="#F6BD0F" id="55" transcription="" points="825,1427 873,1426 875,1663 823,1666 " />
<polygon class="Window" fill="#F6BD0F" id="56" transcription="" points="336,1829 383,1830 385,2118 337,2119 " />
<polygon class="Window" fill="#F6BD0F" id="57" transcription="" points="698,2201 701,2251 424,2250 424,2202 " />
<polygon class="Window" fill="#F6BD0F" id="58" transcription="" points="827,2294 872,2294 872,2507 826,2505 " />
<polygon class="Window" fill="#F6BD0F" id="59" transcription="" points="1090,2540 1094,2583 1425,2582 1425,2537 " />
<polygon class="Window" fill="#F6BD0F" id="60" transcription="" points="1740,2258 1789,2255 1791,2492 1740,2492 " />
<polygon class="Door" fill="#8BBA00" id="61" transcription="" points="1288,2180 1287,2081 1384,2077 1375,2134 1337,2167 " />
<polygon class="Door" fill="#8BBA00" id="62" transcription="" points="1418,2066 1533,2066 1534,1966 1516,1966 1481,1974 1439,2009 " />
<polygon class="Door" fill="#8BBA00" id="63" transcription="" points="1664,1820 1662,1951 1758,1953 1757,1908 1750,1857 1707,1822 " />
<polygon class="Window" fill="#F6BD0F" id="64" transcription="" points="1962,1908 2046,1906 2049,1954 1965,1955 " />
<polygon class="Window" fill="#F6BD0F" id="65" transcription="" points="1948,1375 1947,1330 2020,1329 2017,1377 " />
<polygon class="Window" fill="#F6BD0F" id="66" transcription="" points="1820,1327 1822,1375 1894,1376 1893,1327 " />
<polygon class="Window" fill="#F6BD0F" id="67" transcription="" points="1565,1227 1517,1227 1516,1328 1565,1327 " />
<polygon class="Parking" fill="#FF8E46" id="68" transcription="" points="1529,694 1583,692 1582,1116 1527,1119 " />
<polygon class="Window" fill="#F6BD0F" id="69" transcription="" points="1290,579 1291,546 1362,545 1363,579 " />
<polygon class="Door" fill="#8BBA00" id="70" transcription="" points="1512,1324 1514,1222 1413,1221 1429,1282 1461,1312 " />
<polygon class="Door" fill="#8BBA00" id="71" transcription="" points="1170,1681 1270,1681 1270,1585 1212,1594 1180,1634 " />
<polygon class="Door" fill="#8BBA00" id="72" transcription="" points="1308,1569 1308,1471 1403,1473 1393,1523 1355,1561 " />
<polygon class="Door" fill="#8BBA00" id="73" transcription="" points="1684,1668 1681,1574 1780,1572 1771,1623 1736,1658 " />
<polygon class="Room" fill="#008E8E" id="74" transcription="" points="1534,580 1535,1183 1258,1187 1255,1369 602,1367 603,578 " />
<polygon class="Room" fill="#008E8E" id="75" transcription="" points="878,1418 874,1727 1255,1729 1256,1417 " />
<polygon class="Room" fill="#008E8E" id="76" transcription="" points="2062.5,1584.5 2064.5,1901.5 1606.5,1903.5 1607.5,1583.5 " />
<polygon class="Door" fill="#8BBA00" id="77" transcription="" points="1962,1568 1867,1570 1864,1474 1922,1486 1952,1524 " />
<polygon class="Door" fill="#8BBA00" id="78" transcription="" points="1861,1563 1863,1468 1762,1474 1772,1518 1810,1548 " />
<polygon class="Room" fill="#008E8E" id="79" transcription="" points="1288.5,2076 1512.5,2074 1516.5,1905 1590.5,1902 1593.5,1584 1517.5,1583 1512.5,1564 1856.5,1565 1860.5,1470 1764.5,1470 1735.5,1379 1532.5,1376 1532.5,1453 1510.5,1456 1511.5,1231 1411.5,1235 1411.5,1484 1289.5,1488 " />
<polygon class="Room" fill="#008E8E" id="80" transcription="" points="1751,1377 1895,1380 1896,1463 1761,1464 " />
<polygon class="Room" fill="#008E8E" id="81" transcription="" points="2063,1380 2064,1567 1868,1564 1868,1477 1908,1478 1908,1375 " />
<polygon class="Room" fill="#008E8E" id="82" transcription="" points="1742,2190 1740,2533 1294,2541 1294,2094 1515,2087 1517,2191 " />
<polygon class="Room" fill="#008E8E" id="83" transcription="" points="383,1735.5 384,2198.5 872,2198.5 876,2535.5 1265,2536.5 1255,1742.5 " />
<polygon class="Room" fill="#008E8E" id="84" transcription="" points="1306,1229.5 1401,1228.5 1401,1471.5 1306,1468.5 " />
<polygon class="Separation" fill="#D64646" id="85" transcription="" points="1399,1226 1413,1226 1413,1327 1399,1327 " />
<polygon class="Separation" fill="#D64646" id="86" transcription="" points="1258,1904 1284,1904 1284,2069 1258,2069 " />
<polygon class="Separation" fill="#D64646" id="87" transcription="" points="1258,2172 1289,2172 1289,2526 1258,2526 " />
<relation type="access" objects="74,70,79"/>
<relation type="access" objects="79,78,80"/>
<relation type="access" objects="79,77,81"/>
<relation type="access" objects="79,73,76"/>
<relation type="access" objects="79,71,75"/>
<relation type="access" objects="79,61,82"/>
<relation type="neighbour" objects="74,79"/>
<relation type="neighbour" objects="74,75"/>
<relation type="neighbour" objects="75,79"/>
<relation type="neighbour" objects="75,83"/>
<relation type="neighbour" objects="79,80"/>
<relation type="neighbour" objects="80,81"/>
<relation type="neighbour" objects="81,79"/>
<relation type="neighbour" objects="79,76"/>
<relation type="neighbour" objects="76,81"/>
<relation type="neighbour" objects="79,82"/>
<relation type="neighbour" objects="82,83"/>
<relation type="outerP" objects="20,69,21,0,68,22,2,67,23,38,66,17,65,16,3,6,64,18,63,37,36,62,30,15,14,60,10,29,59,44,11,58,9,12,57,8,43,56,49,50,51,48,42,55,47,45,1,54,19"/>
<relation type="incident" objects="20,69"/>
<relation type="incident" objects="69,21"/>
<relation type="incident" objects="21,0"/>
<relation type="incident" objects="0,68"/>
<relation type="incident" objects="68,22"/>
<relation type="incident" objects="22,2"/>
<relation type="incident" objects="2,67"/>
<relation type="incident" objects="67,23"/>
<relation type="incident" objects="23,38"/>
<relation type="incident" objects="38,66"/>
<relation type="incident" objects="66,17"/>
<relation type="incident" objects="17,65"/>
<relation type="incident" objects="65,16"/>
<relation type="incident" objects="16,3"/>
<relation type="incident" objects="3,6"/>
<relation type="incident" objects="6,64"/>
<relation type="incident" objects="64,18"/>
<relation type="incident" objects="18,63"/>
<relation type="incident" objects="63,37"/>
<relation type="incident" objects="37,36"/>
<relation type="incident" objects="36,62"/>
<relation type="incident" objects="62,30"/>
<relation type="incident" objects="30,15"/>
<relation type="incident" objects="15,14"/>
<relation type="incident" objects="14,60"/>
<relation type="incident" objects="15,13"/>
<relation type="incident" objects="18,5"/>
<relation type="incident" objects="60,10"/>
<relation type="incident" objects="10,29"/>
<relation type="incident" objects="29,59"/>
<relation type="incident" objects="59,44"/>
<relation type="incident" objects="44,11"/>
<relation type="incident" objects="11,58"/>
<relation type="incident" objects="58,9"/>
<relation type="incident" objects="9,12"/>
<relation type="incident" objects="12,57"/>
<relation type="incident" objects="57,8"/>
<relation type="incident" objects="8,43"/>
<relation type="incident" objects="43,56"/>
<relation type="incident" objects="56,49"/>
<relation type="incident" objects="49,50"/>
<relation type="incident" objects="50,51"/>
<relation type="incident" objects="51,48"/>
<relation type="incident" objects="48,42"/>
<relation type="incident" objects="42,55"/>
<relation type="incident" objects="55,47"/>
<relation type="incident" objects="47,45"/>
<relation type="incident" objects="45,1"/>
<relation type="incident" objects="1,54"/>
<relation type="incident" objects="54,19"/>
<relation type="incident" objects="19,20"/>
<relation type="incident" objects="47,46"/>
<relation type="incident" objects="46,27"/>
<relation type="incident" objects="27,28"/>
<relation type="incident" objects="28,71"/>
<relation type="incident" objects="71,4"/>
<relation type="incident" objects="4,41"/>
<relation type="incident" objects="41,42"/>
<relation type="incident" objects="4,86"/>
<relation type="incident" objects="86,40"/>
<relation type="incident" objects="40,61"/>
<relation type="incident" objects="61,7"/>
<relation type="incident" objects="7,30"/>
<relation type="incident" objects="7,62"/>
<relation type="incident" objects="40,87"/>
<relation type="incident" objects="87,59"/>
<relation type="incident" objects="27,26"/>
<relation type="incident" objects="26,70"/>
<relation type="incident" objects="70,2"/>
<relation type="incident" objects="26,85"/>
<relation type="incident" objects="85,25"/>
<relation type="incident" objects="25,72"/>
<relation type="incident" objects="72,27"/>
<relation type="incident" objects="23,24"/>
<relation type="incident" objects="38,39"/>
<relation type="incident" objects="39,53"/>
<relation type="incident" objects="53,52"/>
<relation type="incident" objects="52,78"/>
<relation type="incident" objects="78,35"/>
<relation type="incident" objects="35,34"/>
<relation type="incident" objects="34,17"/>
<relation type="incident" objects="34,66"/>
<relation type="incident" objects="35,77"/>
<relation type="incident" objects="77,33"/>
<relation type="incident" objects="33,3"/>
<relation type="incident" objects="33,73"/>
<relation type="incident" objects="73,32"/>
<relation type="incident" objects="32,31"/>
<relation type="incident" objects="31,37"/>
<relation type="access" objects="76,63,76"/>
<relation type="access" objects="79,62,79"/>
<relation type="access" objects="84,72,79"/>
<relation type="access" objects="83,86,79"/>
<relation type="access" objects="83,87,82"/>
<relation type="neighbour" objects="83,79"/>
<relation type="neighbour" objects="84,74"/>
<relation type="neighbour" objects="84,75"/>
<relation type="neighbour" objects="84,79"/>
<relation type="surround" objects="20,69,21,0,68,22,2,70,26,27,46,47,45,1,54,19,20,74"/>
<relation type="surround" objects="46,27,28,71,4,41,42,55,47,46,75"/>
<relation type="surround" objects="26,85,25,72,27,26,84"/>
<relation type="surround" objects="72,25,70,2,67,23,38,39,53,52,78,35,77,33,73,32,31,37,36,62,30,7,61,86,4,71,28,72,79"/>
<relation type="surround" objects="38,66,34,35,78,52,53,39,38,80"/>
<relation type="surround" objects="17,65,16,3,33,77,35,34,17,81"/>
<relation type="surround" objects="32,73,33,3,6,64,18,63,37,31,32,76"/>
<relation type="surround" objects="61,7,30,15,14,60,10,29,59,87,40,61,82"/>
<relation type="surround" objects="51,48,42,41,4,86,40,87,59,44,11,58,9,12,57,8,43,56,49,51,83"/>
</svg>