<?xml version="1.0" encoding="UTF-8"?><!DOCTYPE svg PUBLIC "-//W3C//DTD SVG 1.1//EN" "http://www.w3.org/Graphics/SVG/1.1/DTD/svg11.dtd">
<svg xmlns="http://www.w3.org/2000/svg" version="1.1">
<width>2480</width>
<height>3508</height>
<nclasslabel>50</nclasslabel>
<nclassappear>5</nclassappear>
<class>Bidet-1</class>
<class>Bidet-2</class>
<class>Bidet-3</class>
<class>Bidet-4</class>
<class>Door</class>
<class>Door-1</class>
<class>Door-23</class>
<class>Oven-1</class>
<class>Oven-2</class>
<class>Oven-3</class>
<class>Oven-4</class>
<class>Parking</class>
<class>Roof</class>
<class>Room</class>
<class>Separation</class>
<class>Sink-1</class>
<class>Sink-11</class>
<class>Sink-12</class>
<class>Sink-13</class>
<class>Sink-14</class>
<class>Sink-2</class>
<class>Sink-3</class>
<class>Sink-4</class>
<class>Sink-5</class>
<class>Sink-6</class>
<class>Sofa-1</class>
<class>Sofa-3</class>
<class>Sofa-4</class>
<class>Sofa-5</class>
<class>Sofa-6</class>
<class>Sofa-7</class>
<class>Sofa-8</class>
<class>Sofa-9</class>
<class>Stairs-1</class>
<class>Table-1</class>
<class>Table-2</class>
<class>Table-3</class>
<class>Table-4</class>
<class>Table-5</class>
<class>Table-6</class>
<class>Table-7</class>
<class>Text</class>
<class>Tub-1</class>
<class>Tub-3</class>
<class>TV-1</class>
<class>TV-2</class>
<class>Wall</class>
<class>Wall-1</class>
<class>Wallieee</class>
<class>Window</class>
<polygon class="Wall" fill="#AFD8F8" id="0" transcription="" points="683,749 640,750 639,826 682,828 " />
<polygon class="Wall" fill="#AFD8F8" id="1" transcription="" points="640,709 640,750 1614,751 1614,709 " />
<polygon class="Wall" fill="#AFD8F8" id="2" transcription="" points="1656,825 1614,825 1614,709 1656,709 " />
<polygon class="Wall" fill="#AFD8F8" id="3" transcription="" points="1655,971 1614,971 1615,1268 1656,1268 " />
<polygon class="Wall" fill="#AFD8F8" id="4" transcription="" points="1656,1343 1614,1343 1614,1435 1656,1435 " />
<polygon class="Wall" fill="#AFD8F8" id="5" transcription="" points="1615,1469 1615,1478 1389,1478 1390,1470 " />
<polygon class="Wall" fill="#AFD8F8" id="6" transcription="" points="1172,751 1178,750 1178,998 1171,998 " />
<polygon class="Wall" fill="#AFD8F8" id="7" transcription="" points="1170,1141 1170,1147 1283,1146 1283,1141 " />
<polygon class="Wall" fill="#AFD8F8" id="8" transcription="" points="1755,1807 1755,1814 1844,1814 1844,1807 " />
<polygon class="Wall" fill="#AFD8F8" id="9" transcription="" points="1844,1477 1886,1477 1887,1615 1844,1615 " />
<polygon class="Wall" fill="#AFD8F8" id="10" transcription="" points="1887,1436 1887,1477 1614,1477 1613,1435 " />
<polygon class="Wall" fill="#AFD8F8" id="11" transcription="" points="1383,1140 1383,1147 1615,1147 1614,1140 " />
<polygon class="Wall" fill="#AFD8F8" id="12" transcription="" points="640,973 681,973 682,1198 640,1198 " />
<polygon class="Wall" fill="#AFD8F8" id="13" transcription="" points="1064,1088 1064,1081 681,1081 681,1088 " />
<polygon class="Wall" fill="#AFD8F8" id="14" transcription="" points="1064,1147 1064,1082 1071,1081 1072,1147 " />
<polygon class="Wall" fill="#AFD8F8" id="15" transcription="" points="640,1339 682,1339 683,1418 639,1419 " />
<polygon class="Wall" fill="#AFD8F8" id="16" transcription="" points="640,1462 639,1416 1030,1418 1031,1461 " />
<polygon class="Wall" fill="#AFD8F8" id="17" transcription="" points="1070,1507 1029,1509 1030,1417 1072,1417 " />
<polygon class="Wall" fill="#AFD8F8" id="18" transcription="" points="1064,1246 1072,1246 1072,1417 1064,1417 " />
<polygon class="Wall" fill="#AFD8F8" id="19" transcription="" points="1071,1470 1071,1477 1171,1477 1171,1470 " />
<polygon class="Wall" fill="#AFD8F8" id="20" transcription="" points="1177,1246 1171,1246 1171,1477 1178,1477 " />
<polygon class="Wall" fill="#AFD8F8" id="21" transcription="" points="1074,1608 1029,1609 1028,1891 1074,1889 " />
<polygon class="Wall" fill="#AFD8F8" id="22" transcription="" points="1072,2105 1030,2105 1030,2201 1072,2201 " />
<polygon class="Wall" fill="#AFD8F8" id="23" transcription="" points="1030,2244 1030,2201 1504,2203 1504,2245 " />
<polygon class="Wall" fill="#AFD8F8" id="24" transcription="" points="1248,1006 1249,1140 1255,1140 1255,1006 " />
<polygon class="Wall" fill="#AFD8F8" id="25" transcription="" points="1171,999 1171,1005 1254,1005 1255,998 " />
<polygon class="Wall" fill="#AFD8F8" id="26" transcription="" points="1278,1476 1284,1476 1283,1254 1277,1254 " />
<polygon class="Wall" fill="#AFD8F8" id="27" transcription="" points="1277,1246 1278,1253 1385,1253 1384,1246 " />
<polygon class="Wall" fill="#AFD8F8" id="28" transcription="" points="1460,1476 1467,1476 1467,1621 1467,1814 1461,1814 " />
<polygon class="Wall" fill="#AFD8F8" id="29" transcription="" points="1384,1594 1384,1600 1460,1600 1460,1594 " />
<polygon class="Wall" fill="#AFD8F8" id="30" transcription="" points="1384,1239 1391,1239 1391,1502 1383,1502 " />
<polygon class="Wall" fill="#AFD8F8" id="31" transcription="" points="1887,1763 1844,1763 1844,2201 1886,2201 " />
<polygon class="Wall" fill="#AFD8F8" id="32" transcription="" points="1886,2244 1886,2201 1651,2202 1653,2244 " />
<polygon class="Window" fill="#F6BD0F" id="33" transcription="" points="634,827 685,826 687,970 636,968 " />
<polygon class="Window" fill="#F6BD0F" id="34" transcription="" points="633,1197 685,1199 687,1340 632,1340 " />
<polygon class="Wall" fill="#AFD8F8" id="35" transcription="" points="893,1749 919,1747 920,1775 894,1776 " />
<polygon class="Door" fill="#8BBA00" id="36" transcription="" points="1169,1507 1027,1508 1026,1616 1074,1614 1133,1597 1167,1556 1168,1531.5 " />
<polygon class="Wall" fill="#AFD8F8" id="37" transcription="" points="893,2219 918,2219 918,2245 892,2246 " />
<polygon class="Window" fill="#F6BD0F" id="38" transcription="" points="1140,2027 1073,2028 1075,2104 1028,2106 1026,1892 1138,1893 1136,1935 1101,1960 1131,1985 " />
<polygon class="Window" fill="#F6BD0F" id="39" transcription="" points="1506,2199 1507,2246 1652,2248 1651,2200 " />
<polygon class="Window" fill="#F6BD0F" id="40" transcription="" points="1840,1615 1891,1613 1892,1761 1842,1763 " />
<polygon class="Window" fill="#F6BD0F" id="41" transcription="" points="1609,1266 1659,1266 1659,1342 1611,1343 " />
<polygon class="Window" fill="#F6BD0F" id="42" transcription="" points="1610,821 1660,822 1661,968 1610,970 " />
<polygon class="Door" fill="#8BBA00" id="43" transcription="" points="1377.5,1051 1379.5,1141 1284.5,1142 1291.5,1096 1326.5,1059 " />
<polygon class="Door" fill="#8BBA00" id="44" transcription="" points="1481,1148 1381,1147 1383,1249 1437,1238 1476,1193 " />
<polygon class="Door" fill="#8BBA00" id="45" transcription="" points="1166,1050 1167,1148 1071,1146 1081,1099 1116,1061 " />
<polygon class="Door" fill="#8BBA00" id="46" transcription="" points="973,1149 1067,1146 1072,1244 1022,1234 987,1200 " />
<polygon class="Door" fill="#8BBA00" id="47" transcription="" points="1168,1345 1170,1245 1068,1241 1085,1302 1125,1337 " />
<polygon class="Door" fill="#8BBA00" id="48" transcription="" points="1298,1523 1385,1470 1282,1473 1286,1501 " />
<polygon class="Door" fill="#8BBA00" id="49" transcription="" points="1338,1581 1388,1487 1383,1592 1357,1589 " />
<polygon class="Room" fill="#FF8E46" id="50" transcription="" points="684.5,752.5 684.5,1073.5 1068.5,1073.5 1073.5,1133.5 1243.5,1137.5 1241.5,1009.5 1167.5,1007.5 1165.5,755.5 " />
<polygon class="Room" fill="#FF8E46" id="51" transcription="" points="1183,757 1182,990 1259,995 1258,1133 1608,1134 1609,755 " />
<polygon class="Room" fill="#FF8E46" id="52" transcription="" points="687,1093 684,1410 1061,1412 1059,1093 " />
<polygon class="Room" fill="#FF8E46" id="53" transcription="" points="1608,1150 1609,1465 1396,1464 1392,1150 " />
<polygon class="Room" fill="#FF8E46" id="54" transcription="" points="1069,1147 1376,1145 1380,1240 1273,1239 1277,1467 1178,1467 1180,1240 1067,1238 " />
<polygon class="Room" fill="#FF8E46" id="55" transcription="" points="1076,1465 1167,1466 1166,1248 1076,1247 " />
<polygon class="Room" fill="#FF8E46" id="56" transcription="" points="1379.5,1256.5 1379.5,1463.5 1286.5,1469.5 1284.5,1257.5 " />
<polygon class="Room" fill="#FF8E46" id="57" transcription="" points="1467.5,1480.5 1468,1802 1840.5,1802.5 1840.5,1479.5 " />
<polygon class="Room" fill="#FF8E46" id="58" transcription="" points="1073,1619 1075,2195.5 1838,2196.5 1836,1815.5 1458,1814.5 1460,1615 " />
<polygon class="Room" fill="#FF8E46" id="59" transcription="" points="1075.5,1482 1074.5,1608 1378.5,1603 1380.5,1478 " />
<polygon class="Room" fill="#FF8E46" id="60" transcription="" points="1391,1479 1459,1478 1459,1595 1387,1596 " />
<polygon class="Separation" fill="#008E8E" id="61" transcription="" points="1468,1801 1751,1801 1751,1817 1468,1817 " />
<polygon class="Separation" fill="#008E8E" id="62" transcription="" points="1071,1605 1383,1603 1383,1618 1071,1619 " />
<polygon class="Separation" fill="#008E8E" id="63" transcription="" points="1178,1464 1275,1464 1275,1479 1178,1479 " />
<relation type="neighbour" objects="51,50"/>
<relation type="neighbour" objects="52,50"/>
<relation type="neighbour" objects="51,53"/>
<relation type="neighbour" objects="53,57"/>
<relation type="neighbour" objects="57,58"/>
<relation type="neighbour" objects="58,59"/>
<relation type="neighbour" objects="56,59"/>
<relation type="neighbour" objects="59,54"/>
<relation type="neighbour" objects="56,54"/>
<relation type="neighbour" objects="54,55"/>
<relation type="neighbour" objects="55,59"/>
<relation type="neighbour" objects="55,52"/>
<relation type="neighbour" objects="52,54"/>
<relation type="neighbour" objects="54,53"/>
<relation type="neighbour" objects="53,56"/>
<relation type="neighbour" objects="54,50"/>
<relation type="neighbour" objects="51,54"/>
<relation type="incident" objects="1,2"/>
<relation type="incident" objects="2,42"/>
<relation type="incident" objects="3,42"/>
<relation type="incident" objects="3,41"/>
<relation type="incident" objects="41,4"/>
<relation type="incident" objects="4,10"/>
<relation type="incident" objects="10,9"/>
<relation type="incident" objects="9,40"/>
<relation type="incident" objects="40,31"/>
<relation type="incident" objects="31,32"/>
<relation type="incident" objects="32,39"/>
<relation type="incident" objects="39,23"/>
<relation type="incident" objects="23,22"/>
<relation type="incident" objects="22,38"/>
<relation type="incident" objects="38,21"/>
<relation type="incident" objects="21,36"/>
<relation type="incident" objects="36,17"/>
<relation type="incident" objects="17,16"/>
<relation type="incident" objects="16,15"/>
<relation type="incident" objects="15,34"/>
<relation type="incident" objects="34,12"/>
<relation type="incident" objects="12,33"/>
<relation type="incident" objects="33,0"/>
<relation type="incident" objects="0,1"/>
<relation type="incident" objects="1,6"/>
<relation type="incident" objects="6,25"/>
<relation type="incident" objects="25,24"/>
<relation type="incident" objects="24,7"/>
<relation type="incident" objects="11,3"/>
<relation type="incident" objects="11,43"/>
<relation type="incident" objects="43,7"/>
<relation type="incident" objects="11,44"/>
<relation type="incident" objects="44,43"/>
<relation type="incident" objects="44,30"/>
<relation type="incident" objects="30,27"/>
<relation type="incident" objects="27,44"/>
<relation type="incident" objects="27,26"/>
<relation type="incident" objects="26,48"/>
<relation type="incident" objects="48,30"/>
<relation type="incident" objects="30,5"/>
<relation type="incident" objects="30,49"/>
<relation type="incident" objects="29,49"/>
<relation type="incident" objects="29,28"/>
<relation type="incident" objects="28,5"/>
<relation type="incident" objects="5,10"/>
<relation type="incident" objects="5,49"/>
<relation type="incident" objects="8,31"/>
<relation type="incident" objects="19,17"/>
<relation type="incident" objects="19,20"/>
<relation type="incident" objects="20,47"/>
<relation type="incident" objects="47,46"/>
<relation type="incident" objects="46,18"/>
<relation type="incident" objects="18,47"/>
<relation type="incident" objects="18,17"/>
<relation type="incident" objects="46,14"/>
<relation type="incident" objects="14,13"/>
<relation type="incident" objects="13,12"/>
<relation type="incident" objects="46,45"/>
<relation type="incident" objects="45,14"/>
<relation type="incident" objects="45,7"/>
<relation type="access" objects="51,43,54"/>
<relation type="access" objects="50,45,54"/>
<relation type="access" objects="52,46,54"/>
<relation type="access" objects="53,44,54"/>
<relation type="access" objects="54,47,55"/>
<relation type="access" objects="59,48,56"/>
<relation type="incident" objects="19,63"/>
<relation type="incident" objects="63,20"/>
<relation type="incident" objects="63,26"/>
<relation type="incident" objects="21,62"/>
<relation type="incident" objects="62,29"/>
<relation type="incident" objects="28,61"/>
<relation type="incident" objects="61,8"/>
<relation type="neighbour" objects="59,60"/>
<relation type="neighbour" objects="60,57"/>
<relation type="neighbour" objects="60,53"/>
<relation type="neighbour" objects="60,58"/>
<relation type="access" objects="59,36,59"/>
<relation type="access" objects="59,63,54"/>
<relation type="access" objects="59,62,58"/>
<relation type="access" objects="60,49,59"/>
<relation type="access" objects="58,61,57"/>
<relation type="outerP" objects="1,2,42,3,41,4,10,9,40,31,32,39,23,22,38,21,36,17,16,15,34,12,33,0"/>
<relation type="surround" objects="1,6,25,24,7,45,14,13,12,33,0,1,50"/>
<relation type="surround" objects="1,2,42,3,11,43,7,24,25,6,1,51"/>
<relation type="surround" objects="13,14,46,18,17,16,15,34,12,13,52"/>
<relation type="surround" objects="45,7,43,11,44,27,26,63,20,47,18,46,14,45,54"/>
<relation type="surround" objects="47,20,19,17,18,47,55"/>
<relation type="surround" objects="11,3,41,4,10,5,30,44,11,53"/>
<relation type="surround" objects="27,30,48,26,27,56"/>
<relation type="surround" objects="5,28,29,49,30,5,60"/>
<relation type="surround" objects="5,10,9,40,31,8,61,28,5,57"/>
<relation type="surround" objects="19,63,26,48,30,49,29,62,36,17,19,59"/>
<relation type="surround" objects="62,29,28,61,8,31,32,39,23,22,38,21,62,58"/>
</svg>