<?xml version="1.0" encoding="UTF-8"?><!DOCTYPE svg PUBLIC "-//W3C//DTD SVG 1.1//EN" "http://www.w3.org/Graphics/SVG/1.1/DTD/svg11.dtd">
<svg xmlns="http://www.w3.org/2000/svg" version="1.1">
<width>5671</width>
<height>7383</height>
<nclasslabel>6</nclasslabel>
<nclassappear>5</nclassappear>
<class>Door</class>
<class>Parking</class>
<class>Room</class>
<class>Separation</class>
<class>Wall</class>
<class>Window</class>
<polygon class="Wall" fill="#AFD8F8" id="14" transcription="" points="4343,4654 4332,4653 4331,4662 4158,4661 4159,4600 4170,4601 4169,4588 4343,4588 " />
<polygon class="Wall" fill="#AFD8F8" id="22" transcription="" points="3849,3759 3849,3714 3837,3714 3837,3759 " />
<polygon class="Wall" fill="#AFD8F8" id="23" transcription="" points="3567,4591 3678,4592 3679,4603 3689,4603 3688,4664 3569,4664 " />
<polygon class="Wall" fill="#AFD8F8" id="24" transcription="" points="4327,4057 4344,4058 4343,4591 4327,4590 " />
<polygon class="Wall" fill="#AFD8F8" id="25" transcription="" points="4748,4068 4342,4068 4342,4086 4749,4085 " />
<polygon class="Wall" fill="#AFD8F8" id="26" transcription="" points="4655,4839 4664,4839 4665,4827 4950,4827 4951,4901 4654,4901 " />
<polygon class="Wall" fill="#AFD8F8" id="27" transcription="" points="4949,1225 4987,1226 4988,5371 4948,5369 " />
<polygon class="Wall" fill="#AFD8F8" id="28" transcription="" points="3569,5409 4987,5409 4987,5371 3568,5371 " />
<polygon class="Wall" fill="#AFD8F8" id="29" transcription="" points="4937,4069 4950,4069 4950,4086 4937,4086 " />
<polygon class="Wall" fill="#AFD8F8" id="30" transcription="" points="3532,1367 3570,1366 3569,5410 3532,5410.5 " />
<polygon class="Wall" fill="#AFD8F8" id="31" transcription="" points="3677,1331 3677,1369 3532,1368 3532,1332 " />
<polygon class="Wall" fill="#AFD8F8" id="32" transcription="" points="3532,1166 3571,1166 3571,1192 3532,1192 " />
<polygon class="Wall" fill="#AFD8F8" id="33" transcription="" points="3532,1191 3559,1192 3558,1332 3532,1332 " />
<polygon class="Wall" fill="#AFD8F8" id="34" transcription="" points="4843,1154 4987,1154 4987,1227 4852,1227 4852,1216 4844,1216 " />
<polygon class="Wall" fill="#AFD8F8" id="35" transcription="" points="3851,2063.5 3888,2063.5 3888,2450.5 3851,2450.5 " />
<polygon class="Wall" fill="#AFD8F8" id="36" transcription="" points="3888,2412 4590,2412 4590,2451 3888,2451 " />
<polygon class="Wall" fill="#AFD8F8" id="37" transcription="" points="4714,2271 4733,2271 4733,2430 4714,2430 " />
<polygon class="Wall" fill="#AFD8F8" id="38" transcription="" points="4589,2412 4714,2412 4714,2431 4589,2431 " />
<polygon class="Wall" fill="#AFD8F8" id="39" transcription="" points="4557,2449 4590,2450 4590,2946 4557,2945 " />
<polygon class="Wall" fill="#AFD8F8" id="40" transcription="" points="4600,2453 4611,2452 4622,2457 4628,2470 4625,2482 4617,2489 4607,2490 4598,2489 4590,2480 4589,2467 4593,2457 " />
<polygon class="Wall" fill="#AFD8F8" id="41" transcription="" points="4589,2966 4732,2966 4732,2983 4589,2983 " />
<polygon class="Wall" fill="#AFD8F8" id="42" transcription="" points="4715,2982 4715,3155 4733,3155 4732,2981 " />
<polygon class="Wall" fill="#AFD8F8" id="43" transcription="" points="3886,2945 4590,2945 4590,2984 3888,2983 " />
<polygon class="Wall" fill="#AFD8F8" id="44" transcription="" points="4315,2450 4351,2449 4351,2945 4315,2946 " />
<polygon class="Wall" fill="#AFD8F8" id="45" transcription="" points="4263,2983 4264,3336 4302,3336 4302,2982 " />
<polygon class="Wall" fill="#AFD8F8" id="46" transcription="" points="4301.5,3354.5 4715.5,3355.5 4714.5,3371.5 4300.5,3371.5 " />
<polygon class="Wall" fill="#AFD8F8" id="47" transcription="" points="4714,3343 4732,3343 4732,3499 4714,3499 " />
<polygon class="Wall" fill="#AFD8F8" id="48" transcription="" points="4370,2983 4408,2983 4408,3136 4370,3136 " />
<polygon class="Wall" fill="#AFD8F8" id="49" transcription="" points="4302,3098 4370,3098 4370,3136 4302,3136 " />
<polygon class="Wall" fill="#AFD8F8" id="50" transcription="" points="3569,3335 4302,3335 4302,3372 3569,3372 " />
<polygon class="Wall" fill="#AFD8F8" id="51" transcription="" points="3851,3299 3888,3299 3888,3335 3851,3335 " />
<polygon class="Wall" fill="#AFD8F8" id="52" transcription="" points="3780,3717 4716,3717 4716,3701 3780,3701 " />
<polygon class="Wall" fill="#AFD8F8" id="53" transcription="" points="3772,3842 3794,3842 3794,3859 3772,3859 " />
<polygon class="Wall" fill="#AFD8F8" id="54" transcription="" points="3780,3716 3780,3843 3795,3843 3794,3716 " />
<polygon class="Wall" fill="#AFD8F8" id="55" transcription="" points="3794,3759 3849,3759 3849,3770 3794,3770 " />
<polygon class="Wall" fill="#AFD8F8" id="56" transcription="" points="4325,3716 4342,3717 4342,3867 4325,3867 " />
<polygon class="Wall" fill="#AFD8F8" id="57" transcription="" points="4715,3689 4715,3859 4732,3859 4732,3689 " />
<polygon class="Wall" fill="#AFD8F8" id="58" transcription="" points="4204,3372 4205,3701 4222,3701 4222,3372 " />
<polygon class="Wall" fill="#AFD8F8" id="59" transcription="" points="1660.5,839.5 1660.5,763.5 1479,764 1479,841 " />
<polygon class="Wall" fill="#AFD8F8" id="60" transcription="" points="1441,767 1479,765 1480,893 1440,894 " />
<polygon class="Wall" fill="#AFD8F8" id="61" transcription="" points="1949,762 2330,765 2330,840 1947,839 " />
<polygon class="Wall" fill="#AFD8F8" id="62" transcription="" points="2235,838 2254,839 2254,897 2234,896 " />
<polygon class="Wall" fill="#AFD8F8" id="63" transcription="" points="2539,765 2859,763 2858,841 2540,840 " />
<polygon class="Wall" fill="#AFD8F8" id="64" transcription="" points="2858,766 2897,768 2896,895 2857,895 " />
<polygon class="Wall" fill="#AFD8F8" id="65" transcription="" points="2056,1128.5 2330,1128.5 2330,1189.5 2320,1189.5 2320,1201.5 2067,1202.5 2066,1189.5 2056,1189.5 " />
<polygon class="Wall" fill="#AFD8F8" id="66" transcription="" points="2237,1201.5 2254,1202.5 2253,1734.5 2237,1734.5 " />
<polygon class="Wall" fill="#AFD8F8" id="67" transcription="" points="1442,1127 1481,1127 1480,4637 1442,4637 " />
<polygon class="Wall" fill="#AFD8F8" id="68" transcription="" points="1477.5,4567 1595.5,4567 1595.5,4641 1476.5,4641 " />
<polygon class="Wall" fill="#AFD8F8" id="69" transcription="" points="2236,4226 2252,4226 2252,4570 2236,4570 " />
<polygon class="Wall" fill="#AFD8F8" id="70" transcription="" points="2856.5,1131 2895.5,1131 2895.5,4805 2857.5,4805 " />
<polygon class="Wall" fill="#AFD8F8" id="71" transcription="" points="2564,4802 2897,4802 2897,4876 2564,4876 " />
<polygon class="Wall" fill="#AFD8F8" id="72" transcription="" points="2068,4566.5 2252,4566.5 2252,4639.5 2068,4639.5 " />
<polygon class="Wall" fill="#AFD8F8" id="73" transcription="" points="2845,3852.5 2859,3852.5 2859,3869.5 2845,3869.5 " />
<polygon class="Wall" fill="#AFD8F8" id="74" transcription="" points="2237,3853.5 2659,3853.5 2659,3869.5 2237,3870.5 " />
<polygon class="Wall" fill="#AFD8F8" id="75" transcription="" points="2236,3873 2252,3874 2252,4039 2236,4039 " />
<polygon class="Wall" fill="#AFD8F8" id="76" transcription="" points="2375,3425 2413,3425 2413,3499 2375,3499 " />
<polygon class="Wall" fill="#AFD8F8" id="77" transcription="" points="2387,3498.5 2401,3498.5 2401,3851.5 2387,3851.5 " />
<polygon class="Wall" fill="#AFD8F8" id="78" transcription="" points="2553,3427.5 2861,3427.5 2861,3500.5 2553,3500.5 " />
<polygon class="Wall" fill="#AFD8F8" id="79" transcription="" points="2173.5,3426.5 2235.5,3426.5 2235.5,3499.5 2172.5,3499.5 " />
<polygon class="Wall" fill="#AFD8F8" id="80" transcription="" points="1836,3486 2174,3486 2174,3500 1836,3500 " />
<polygon class="Wall" fill="#AFD8F8" id="81" transcription="" points="1821.5,3344 1821.5,3497 1836.5,3497 1836.5,3344 " />
<polygon class="Wall" fill="#AFD8F8" id="82" transcription="" points="1716,3309 2175,3308 2175,3347 1716,3347 " />
<polygon class="Wall" fill="#AFD8F8" id="83" transcription="" points="1760,3274.5 1798,3274.5 1798,3309.5 1760,3309.5 " />
<polygon class="Wall" fill="#AFD8F8" id="84" transcription="" points="1478,3309 1503,3309 1503,3347 1478,3347 " />
<polygon class="Wall" fill="#AFD8F8" id="85" transcription="" points="1760,2921 2247,2919 2247,2957 1760,2959 " />
<polygon class="Wall" fill="#AFD8F8" id="86" transcription="" points="1761,2958.5 1799,2958.5 1799,2993.5 1761,2993.5 " />
<polygon class="Wall" fill="#AFD8F8" id="88" transcription="" points="2173,2954 2211,2954 2212,3427 2174,3429 " />
<polygon class="Wall" fill="#AFD8F8" id="90" transcription="" points="2819,2727.5 2858,2727.5 2858,2654.5 2819,2654.5 " />
<polygon class="Wall" fill="#AFD8F8" id="91" transcription="" points="2468,2420 2501,2420 2501,2798 2468,2798 " />
<polygon class="Wall" fill="#AFD8F8" id="92" transcription="" points="2498,2652.5 2537,2652.5 2537,2725.5 2498,2725.5 " />
<polygon class="Wall" fill="#AFD8F8" id="93" transcription="" points="1715,2388.5 2498,2388.5 2498,2425.5 1715,2425.5 " />
<polygon class="Wall" fill="#AFD8F8" id="94" transcription="" points="2253,2090 2659,2090 2660,2106 2253,2106 " />
<polygon class="Wall" fill="#AFD8F8" id="95" transcription="" points="2483,2105.5 2499,2105.5 2499,2388.5 2483,2388.5 " />
<polygon class="Wall" fill="#AFD8F8" id="96" transcription="" points="2377,2107 2377,2389 2391,2389 2391,2107 " />
<polygon class="Wall" fill="#AFD8F8" id="97" transcription="" points="2236,1925.5 2252,1925.5 2252,2106.5 2236,2106.5 " />
<polygon class="Wall" fill="#AFD8F8" id="98" transcription="" points="1481.5,1127.5 1763.5,1127.5 1763.5,1188.5 1753.5,1188.5 1753.5,1200.5 1480.5,1200.5 " />
<polygon class="Wall" fill="#AFD8F8" id="99" transcription="" points="2540,1128.5 2858,1128.5 2858,1202.5 2549,1201.5 2549,1189.5 2540,1189.5 " />
<polygon class="Window" fill="#F6BD0F" id="100" transcription="" points="1762.5,1124.5 2059.5,1124.5 2058.5,1201.5 1763.5,1201.5 " />
<polygon class="Window" fill="#F6BD0F" id="101" transcription="" points="2325,1123.5 2541,1123.5 2538,1200.5 2325,1200.5 " />
<polygon class="Window" fill="#F6BD0F" id="102" transcription="" points="1653.5,763.5 1954,764 1953,839 1653,838 " />
<polygon class="Window" fill="#F6BD0F" id="103" transcription="" points="2328,766 2544,765 2544,841 2327,839 " />
<polygon class="Window" fill="#F6BD0F" id="104" transcription="" points="1596,4566 2069,4566 2069,4644 1594,4644 " />
<polygon class="Window" fill="#F6BD0F" id="105" transcription="" points="2175,4641 2253,4641 2252,4804 2566,4804 2566,4882 2175,4883 " />
<polygon class="Window" fill="#F6BD0F" id="106" transcription="" points="4418,1150 4845,1150 4846,1228 4417,1227 " />
<polygon class="Door" fill="#8BBA00" id="107" transcription="" points="3677,1352 3700,1464 3806,1568 3907,1585 3906,1353 " />
<polygon class="Door" fill="#8BBA00" id="108" transcription="" points="3870,1848 4096,1848 4077,1968 3983,2048 3869,2065 " />
<polygon class="Door" fill="#8BBA00" id="109" transcription="" points="4539,3348 4734,3346 4733,3155 4624,3168 4554,3240 " />
<polygon class="Door" fill="#8BBA00" id="110" transcription="" points="4541,3690 4734,3690 4733,3497 4642,3505 4554,3583 " />
<polygon class="Door" fill="#8BBA00" id="111" transcription="" points="4150,3865 4344,3865 4345,4061 4229,4049 4165,3963 " />
<polygon class="Window" fill="#F6BD0F" id="112" transcription="" points="3686,4591 3686,4669 4160,4669 4160,4591 " />
<polygon class="Window" fill="#F6BD0F" id="113" transcription="" points="4264,4662 4342,4662 4342,4828 4656,4828 4656,4905 4264,4905 " />
<polygon class="Door" fill="#8BBA00" id="114" transcription="" points="3577,3668 3581,3860 3773,3861 3765,3777 3696,3679 " />
<polygon class="Wall" fill="#AFD8F8" id="115" transcription="" points="3569,3843 3580,3843 3581,3859 3569,3859 " />
<polygon class="Door" fill="#8BBA00" id="116" transcription="" points="2241.5,4026 2437.5,4024 2417.5,4125 2337.5,4186 2244.5,4216 " />
<polygon class="Door" fill="#8BBA00" id="117" transcription="" points="2848,3678 2846,3868 2656,3868 2667,3784 2736,3692 " />
<polygon class="Window" fill="#F6BD0F" id="118" transcription="" points="2234,3424.5 2378,3423.5 2378,3500.5 2234,3501.5 " />
<polygon class="Window" fill="#F6BD0F" id="119" transcription="" points="2410,3423 2553,3424 2553,3501 2410,3501 " />
<polygon class="Window" fill="#F6BD0F" id="120" transcription="" points="2536,2655.5 2820,2655.5 2820,2732.5 2534,2732.5 " />
<polygon class="Wall" fill="#AFD8F8" id="121" transcription="" points="3851,2945 3851,3018 3888,3018 3887,2945 " />
<polygon class="Window" fill="#F6BD0F" id="122" transcription="" points="2243,2918 2466,2918 2467,2802 2505,2802 2504,2962 2244,2960 " />
<polygon class="Door" fill="#8BBA00" id="123" transcription="" points="2656.5,2090.5 2851.5,2089.5 2850.5,2284.5 2740.5,2270.5 2679.5,2195.5 " />
<polygon class="Wall" fill="#AFD8F8" id="124" transcription="" points="2847.5,2090 2847.5,2106 2858.5,2106 2858.5,2090 " />
<polygon class="Door" fill="#8BBA00" id="125" transcription="" points="2232,1930.5 2430,1930.5 2409,1819.5 2329,1754.5 2232,1739.5 " />
<polygon class="Wall" fill="#AFD8F8" id="126" transcription="" points="1477,2387.5 1503,2387.5 1503,2426.5 1477,2426.5 " />
<polygon class="Door" fill="#8BBA00" id="127" transcription="" points="1492.5,2179.5 1492.5,2403.5 1719.5,2402.5 1710.5,2307.5 1609.5,2182.5 " />
<polygon class="Door" fill="#8BBA00" id="128" transcription="" points="1504,3320 1726,3320 1718,3443 1620,3545 1490,3552 " />
<polygon class="Room" fill="#FF8E46" id="129" transcription="" points="1485,1200.5 2240,1200.5 2237,2105.5 2381,2105.5 2381,2383.5 1487,2383.5 " />
<polygon class="Room" fill="#FF8E46" id="130" transcription="" points="2257,1198.5 2866,1200.5 2865,2087.5 2257,2087.5 " />
<polygon class="Room" fill="#FF8E46" id="131" transcription="" points="2500.5,2108 2859.5,2107 2859.5,2653 2501.5,2654 " />
<polygon class="Room" fill="#FF8E46" id="132" transcription="" points="1495,2432.5 1777,2433.5 1774,3316.5 1495,3315.5 " />
<polygon class="Room" fill="#FF8E46" id="133" transcription="" points="1479,3346 1813,3348 1819,3506 2382,3500 2382,3851 2233,3851 2233,4566 1479,4566 " />
<polygon class="Room" fill="#FF8E46" id="134" transcription="" points="2402,3500 2860,3500 2860,3852 2402,3852 " />
<polygon class="Room" fill="#FF8E46" id="135" transcription="" points="2253,3872.5 2859,3872.5 2859,4805.5 2253,4805.5 " />
<polygon class="Room" fill="#FF8E46" id="136" transcription="" points="3571,1370.5 4083,1368.5 4080,1543 3961,1543 3961,1562 4081,1561.5 4080,1790.5 3851,1789 3848,3333.5 3571,3333.5 " />
<polygon class="Separation" fill="#008E8E" id="137" transcription="" points="4733,2273 4950,2273 4951,2288 4731,2288 " />
<polygon class="Room" fill="#FF8E46" id="138" transcription="" points="4119,1226 4949,1229 4947,2275 4717,2271 4713,2415 3891,2413 3889,1827 4123,1827 " />
<polygon class="Room" fill="#FF8E46" id="139" transcription="" points="4736,2290 4949,2290 4949,4067 4349,4070 4343,3717 4716,3717 4716,3864 4736,3860 4736,2964 4599,2964 4593,2500 4643,2500 4646,2434 4736,2437 " />
<polygon class="Room" fill="#FF8E46" id="140" transcription="" points="4409,2983 4716,2983 4715,3356 4303,3355 4302,3136 4408,3136 " />
<polygon class="Room" fill="#FF8E46" id="141" transcription="" points="4224,3371 4716,3371 4716,3703 4224,3703 " />
<polygon class="Door" fill="#8BBA00" id="142" transcription="" points="4937,4068 4939,4262 4825,4250 4757,4177 4747,4070 " />
<polygon class="Room" fill="#FF8E46" id="143" transcription="" points="4342,4085 4948,4085 4948,4829 4342,4829 " />
<polygon class="Room" fill="#FF8E46" id="144" transcription="" points="3570,3371 4206,3372 4205,3701 3780,3701 3780,3842 3569,3842 " />
<polygon class="Room" fill="#FF8E46" id="145" transcription="" points="3568,3860 3797,3860 3796,3770 3853,3770 3851,3717 4326,3716 4326,4592 3571,4592 " />
<polygon class="Wall" fill="#AFD8F8" id="146" transcription="" points="4112,1152 4419,1154 4419,1216 4410,1216 4410,1227 4116,1232 " />
<polygon class="Wall" fill="#AFD8F8" id="148" transcription="" points="4080,1192 4118,1192 4118,1826 4080,1826 " />
<polygon class="Wall" fill="#AFD8F8" id="149" transcription="" points="3850,1851 3889,1851 3889,1789 3851,1789 " />
<polygon class="Wall" fill="#AFD8F8" id="150" transcription="" points="3889,1789 4081,1789 4081,1826 3888,1826 " />
<polygon class="Wall" fill="#AFD8F8" id="151" transcription="" points="3962,1543.5 4081,1544 4081,1560 3962,1560.5 " />
<polygon class="Wall" fill="#AFD8F8" id="152" transcription="" points="3957,1353 4081,1353 4080,1369 3957,1369 " />
<polygon class="Wall" fill="#AFD8F8" id="153" transcription="" points="3957,1154 4118,1154 4118,1192 3957,1192 " />
<polygon class="Wall" fill="#AFD8F8" id="154" transcription="" points="4628,2430 4627,2491 4639,2491 4639,2430 " />
<polygon class="Wall" fill="#AFD8F8" id="155" transcription="" points="4589,2489 4639,2490 4639,2503 4590,2502 " />
<relation type="incident" objects="98,100"/>
<relation type="incident" objects="100,65"/>
<relation type="incident" objects="65,101"/>
<relation type="incident" objects="101,99"/>
<relation type="incident" objects="99,70"/>
<relation type="incident" objects="65,66"/>
<relation type="incident" objects="66,125"/>
<relation type="incident" objects="125,97"/>
<relation type="incident" objects="97,94"/>
<relation type="incident" objects="94,123"/>
<relation type="incident" objects="123,70"/>
<relation type="incident" objects="94,95"/>
<relation type="incident" objects="95,93"/>
<relation type="incident" objects="93,96"/>
<relation type="incident" objects="96,94"/>
<relation type="incident" objects="93,127"/>
<relation type="incident" objects="127,126"/>
<relation type="incident" objects="126,67"/>
<relation type="incident" objects="93,91"/>
<relation type="incident" objects="91,92"/>
<relation type="incident" objects="92,120"/>
<relation type="incident" objects="120,90"/>
<relation type="incident" objects="90,70"/>
<relation type="incident" objects="67,98"/>
<relation type="incident" objects="91,122"/>
<relation type="incident" objects="122,85"/>
<relation type="incident" objects="85,86"/>
<relation type="incident" objects="88,85"/>
<relation type="incident" objects="88,82"/>
<relation type="incident" objects="82,83"/>
<relation type="incident" objects="82,128"/>
<relation type="incident" objects="128,84"/>
<relation type="incident" objects="84,67"/>
<relation type="incident" objects="82,81"/>
<relation type="incident" objects="81,80"/>
<relation type="incident" objects="80,79"/>
<relation type="incident" objects="79,88"/>
<relation type="incident" objects="79,118"/>
<relation type="incident" objects="118,76"/>
<relation type="incident" objects="76,119"/>
<relation type="incident" objects="119,78"/>
<relation type="incident" objects="78,70"/>
<relation type="incident" objects="76,77"/>
<relation type="incident" objects="77,74"/>
<relation type="incident" objects="74,117"/>
<relation type="incident" objects="117,73"/>
<relation type="incident" objects="73,70"/>
<relation type="incident" objects="74,75"/>
<relation type="incident" objects="75,116"/>
<relation type="incident" objects="116,69"/>
<relation type="incident" objects="69,72"/>
<relation type="incident" objects="72,104"/>
<relation type="incident" objects="104,68"/>
<relation type="incident" objects="68,67"/>
<relation type="incident" objects="72,105"/>
<relation type="incident" objects="105,71"/>
<relation type="incident" objects="71,70"/>
<relation type="incident" objects="60,59"/>
<relation type="incident" objects="59,102"/>
<relation type="incident" objects="102,61"/>
<relation type="incident" objects="61,62"/>
<relation type="incident" objects="61,103"/>
<relation type="incident" objects="103,63"/>
<relation type="incident" objects="63,64"/>
<relation type="incident" objects="32,33"/>
<relation type="incident" objects="33,31"/>
<relation type="incident" objects="31,30"/>
<relation type="incident" objects="31,107"/>
<relation type="incident" objects="107,152"/>
<relation type="incident" objects="152,148"/>
<relation type="incident" objects="148,151"/>
<relation type="incident" objects="148,150"/>
<relation type="incident" objects="150,149"/>
<relation type="incident" objects="148,153"/>
<relation type="incident" objects="149,108"/>
<relation type="incident" objects="146,106"/>
<relation type="incident" objects="106,34"/>
<relation type="incident" objects="34,27"/>
<relation type="incident" objects="27,137"/>
<relation type="incident" objects="137,37"/>
<relation type="incident" objects="37,38"/>
<relation type="incident" objects="38,154"/>
<relation type="incident" objects="154,155"/>
<relation type="incident" objects="155,39"/>
<relation type="incident" objects="39,36"/>
<relation type="incident" objects="36,38"/>
<relation type="incident" objects="36,35"/>
<relation type="incident" objects="35,108"/>
<relation type="incident" objects="36,44"/>
<relation type="incident" objects="44,43"/>
<relation type="incident" objects="43,39"/>
<relation type="incident" objects="43,121"/>
<relation type="incident" objects="43,45"/>
<relation type="incident" objects="43,48"/>
<relation type="incident" objects="48,49"/>
<relation type="incident" objects="49,45"/>
<relation type="incident" objects="43,41"/>
<relation type="incident" objects="41,42"/>
<relation type="incident" objects="42,109"/>
<relation type="incident" objects="109,47"/>
<relation type="incident" objects="47,46"/>
<relation type="incident" objects="46,50"/>
<relation type="incident" objects="50,51"/>
<relation type="incident" objects="50,30"/>
<relation type="incident" objects="47,110"/>
<relation type="incident" objects="110,57"/>
<relation type="incident" objects="57,52"/>
<relation type="incident" objects="52,58"/>
<relation type="incident" objects="58,50"/>
<relation type="incident" objects="52,22"/>
<relation type="incident" objects="22,55"/>
<relation type="incident" objects="55,54"/>
<relation type="incident" objects="54,52"/>
<relation type="incident" objects="54,53"/>
<relation type="incident" objects="53,114"/>
<relation type="incident" objects="114,115"/>
<relation type="incident" objects="115,30"/>
<relation type="incident" objects="52,56"/>
<relation type="incident" objects="56,111"/>
<relation type="incident" objects="111,24"/>
<relation type="incident" objects="24,25"/>
<relation type="incident" objects="25,142"/>
<relation type="incident" objects="142,27"/>
<relation type="incident" objects="113,26"/>
<relation type="incident" objects="26,27"/>
<relation type="incident" objects="27,28"/>
<relation type="incident" objects="112,23"/>
<relation type="incident" objects="23,30"/>
<relation type="incident" objects="30,28"/>
<relation type="neighbour" objects="129,130"/>
<relation type="neighbour" objects="130,131"/>
<relation type="neighbour" objects="129,132"/>
<relation type="neighbour" objects="132,133"/>
<relation type="neighbour" objects="133,134"/>
<relation type="neighbour" objects="134,135"/>
<relation type="neighbour" objects="135,133"/>
<relation type="neighbour" objects="136,138"/>
<relation type="neighbour" objects="138,139"/>
<relation type="neighbour" objects="139,140"/>
<relation type="neighbour" objects="139,141"/>
<relation type="neighbour" objects="141,140"/>
<relation type="neighbour" objects="139,143"/>
<relation type="neighbour" objects="143,145"/>
<relation type="neighbour" objects="145,139"/>
<relation type="neighbour" objects="145,141"/>
<relation type="neighbour" objects="145,144"/>
<relation type="neighbour" objects="144,141"/>
<relation type="neighbour" objects="144,136"/>
<relation type="access" objects="136,107,136"/>
<relation type="access" objects="136,108,138"/>
<relation type="access" objects="138,137,139"/>
<relation type="access" objects="139,109,140"/>
<relation type="access" objects="139,110,141"/>
<relation type="access" objects="139,142,143"/>
<relation type="access" objects="139,111,145"/>
<relation type="access" objects="145,114,144"/>
<relation type="access" objects="132,127,129"/>
<relation type="access" objects="129,125,130"/>
<relation type="access" objects="130,123,131"/>
<relation type="access" objects="132,128,133"/>
<relation type="access" objects="135,117,134"/>
<relation type="access" objects="133,116,135"/>
<relation type="surround" objects="98,100,65,66,125,97,94,96,93,127,126,67,98,129"/>
<relation type="surround" objects="65,101,99,70,123,94,97,125,66,65,130"/>
<relation type="surround" objects="94,123,70,90,120,92,91,93,95,94,131"/>
<relation type="surround" objects="126,127,93,91,122,85,88,82,128,84,67,126,132"/>
<relation type="surround" objects="76,119,78,70,117,74,77,76,134"/>
<relation type="surround" objects="74,117,70,71,105,72,69,116,75,74,135"/>
<relation type="surround" objects="84,128,82,81,80,79,118,76,77,74,75,116,69,72,104,68,67,84,133"/>
<relation type="surround" objects="31,107,152,148,150,149,108,35,36,44,43,45,50,30,31,136"/>
<relation type="surround" objects="49,48,43,41,42,109,47,46,50,45,49,140"/>
<relation type="surround" objects="155,154,38,37,137,27,142,25,24,111,56,52,57,110,47,109,42,41,43,39,155,139"/>
<relation type="surround" objects="50,46,47,110,57,52,58,50,141"/>
<relation type="surround" objects="50,58,52,54,53,114,115,30,50,144"/>
<relation type="surround" objects="146,106,34,27,137,37,38,36,35,108,149,150,148,146,138"/>
<relation type="outerP" objects="98,100,65,101,99,70,71,105,72,104,68,67"/>
<relation type="outerP" objects="31,107,152,148,146,106,34,27,28,30"/>
<relation type="surround" objects="114,54,55,22,52,56,111,24,14,112,23,30,115,114,145"/>
<relation type="surround" objects="25,142,29,27,26,113,14,24,25,143"/>
<relation type="incident" objects="113,14"/>
<relation type="incident" objects="14,112"/>
<relation type="incident" objects="14,24"/>
</svg>