<?xml version="1.0" encoding="UTF-8"?><!DOCTYPE svg PUBLIC "-//W3C//DTD SVG 1.1//EN" "http://www.w3.org/Graphics/SVG/1.1/DTD/svg11.dtd">
<svg xmlns="http://www.w3.org/2000/svg" version="1.1">
<width>5671</width>
<height>7383</height>
<nclasslabel>6</nclasslabel>
<nclassappear>6</nclassappear>
<class>Door</class>
<class>Parking</class>
<class>Room</class>
<class>Separation</class>
<class>Wall</class>
<class>Window</class>
<polygon class="Wall" fill="#AFD8F8" id="65" transcription="" points="4144,1200.625 4206,1199.625 4206,1260.625 4196,1262.625 4194,1273.625 4154,1273.625 4154,1262.375 4142,1261.375 " />
<polygon class="Wall" fill="#AFD8F8" id="67" transcription="" points="3692,1197 3731,1197 3730,4707 3692,4707 " />
<polygon class="Wall" fill="#AFD8F8" id="68" transcription="" points="3729.5,4635 3847.5,4635 3847.5,4709 3728.5,4709 " />
<polygon class="Wall" fill="#AFD8F8" id="69" transcription="" points="4488,4290 4504,4290 4504,4634 4488,4634 " />
<polygon class="Wall" fill="#AFD8F8" id="70" transcription="" points="5108.5,1197 5147.5,1197 5147.5,4871 5109.5,4871 " />
<polygon class="Wall" fill="#AFD8F8" id="71" transcription="" points="4819,4871 5152,4871 5152,4945 4819,4945 " />
<polygon class="Wall" fill="#AFD8F8" id="72" transcription="" points="4321,4635.5 4505,4635.5 4505,4708.5 4321,4708.5 " />
<polygon class="Wall" fill="#AFD8F8" id="73" transcription="" points="5101,3923.5 5115,3923.5 5115,3940.5 5101,3940.5 " />
<polygon class="Wall" fill="#AFD8F8" id="74" transcription="" points="4490,3921.5 4912,3921.5 4912,3939 4490,3938.5 " />
<polygon class="Wall" fill="#AFD8F8" id="75" transcription="" points="4488,3937 4505,3937 4504,4103 4488,4103 " />
<polygon class="Wall" fill="#AFD8F8" id="76" transcription="" points="4628,3495 4666,3495 4666,3569 4628,3569 " />
<polygon class="Wall" fill="#AFD8F8" id="77" transcription="" points="4640,3567.75 4654,3567.75 4654,3920.75 4640,3922.25 " />
<polygon class="Wall" fill="#AFD8F8" id="78" transcription="" points="4803,3496.5 5111,3496.5 5111,3569.5 4803,3569.5 " />
<polygon class="Wall" fill="#AFD8F8" id="79" transcription="" points="4425.5,3494.5 4487.5,3494.5 4487.5,3567.5 4424.5,3567.5 " />
<polygon class="Wall" fill="#AFD8F8" id="80" transcription="" points="4091,3556 4429,3556 4429,3570 4091,3570 " />
<polygon class="Wall" fill="#AFD8F8" id="81" transcription="" points="4073.5,3416 4073.5,3569 4088.5,3569 4088.5,3416 " />
<polygon class="Wall" fill="#AFD8F8" id="82" transcription="" points="3969,3378 4428,3377 4428,3416 3969,3416 " />
<polygon class="Wall" fill="#AFD8F8" id="83" transcription="" points="4012,3344.5 4050,3344.5 4050,3379.5 4012,3379.5 " />
<polygon class="Wall" fill="#AFD8F8" id="84" transcription="" points="3730,3379 3755,3379 3755,3417 3730,3417 " />
<polygon class="Wall" fill="#AFD8F8" id="85" transcription="" points="4013,2988 4570,2987 4570,3026 4013,3026 " />
<polygon class="Wall" fill="#AFD8F8" id="86" transcription="" points="4013,3026.5 4051,3026.5 4051,3061.5 4013,3061.5 " />
<polygon class="Wall" fill="#AFD8F8" id="87" transcription="" points="4533,3025.5 4570,3025.5 4570,3178.5 4533,3178.5 " />
<polygon class="Wall" fill="#AFD8F8" id="88" transcription="" points="4425.5,3024 4463.5,3024 4464.5,3495 4426.5,3496 " />
<polygon class="Wall" fill="#AFD8F8" id="89" transcription="" points="4463,3140 4534,3141 4536,3179 4463,3179.5 " />
<polygon class="Wall" fill="#AFD8F8" id="90" transcription="" points="5087,2802.5 5126,2802.5 5126,2729.5 5087,2729.5 " />
<polygon class="Wall" fill="#AFD8F8" id="91" transcription="" points="4719,2491 4752,2491 4752,2869 4719,2869 " />
<polygon class="Wall" fill="#AFD8F8" id="92" transcription="" points="4751,2720.5 4790,2720.5 4790,2793.5 4751,2793.5 " />
<polygon class="Wall" fill="#AFD8F8" id="94" transcription="" points="4489.5,2159.5 4911.5,2159.5 4911.5,2176.5 4490.5,2176.5 " />
<polygon class="Wall" fill="#AFD8F8" id="95" transcription="" points="4735.5,2174.25 4752.5,2174.75 4752.5,2457.75 4736.5,2457.75 " />
<polygon class="Wall" fill="#AFD8F8" id="96" transcription="" points="4630,2175 4630,2457 4644,2457 4644,2175 " />
<polygon class="Wall" fill="#AFD8F8" id="98" transcription="" points="3730,1197 3930.5,1197.5 3930.5,1258.5 3920.5,1258.5 3920.5,1270.5 3730,1271 " />
<polygon class="Wall" fill="#AFD8F8" id="99" transcription="" points="4497,1195.5 5110,1197 5110,1270 4507,1270 4506,1256.5 4497,1256.5 " />
<polygon class="Window" fill="#F6BD0F" id="100" transcription="" points="3928,1194 4144.5,1192.5 4143.5,1269.5 3928,1270 " />
<polygon class="Window" fill="#F6BD0F" id="101" transcription="" points="4201,1197.5 4497,1197 4499,1276 4201,1274.5 " />
<polygon class="Window" fill="#F6BD0F" id="104" transcription="" points="3849,4632 4322,4632 4322,4710 3847,4710 " />
<polygon class="Window" fill="#F6BD0F" id="105" transcription="" points="4427,4708 4505,4708 4504,4871 4818,4871 4818,4949 4427,4950 " />
<polygon class="Door" fill="#8BBA00" id="116" transcription="" points="4498.5,4106 4694.5,4104 4674.5,4205 4594.5,4266 4501.5,4296 " />
<polygon class="Door" fill="#8BBA00" id="117" transcription="" points="5106,3751 5104,3941 4914,3941 4925,3857 4994,3765 " />
<polygon class="Window" fill="#F6BD0F" id="118" transcription="" points="4486,3494.5 4630,3493.5 4630,3570.5 4486,3571.5 " />
<polygon class="Window" fill="#F6BD0F" id="119" transcription="" points="4663,3490 4806,3491 4806,3568 4663,3568 " />
<polygon class="Window" fill="#F6BD0F" id="120" transcription="" points="4789,2722.5 5073,2722.5 5073,2799.5 4787,2799.5 " />
<polygon class="Window" fill="#F6BD0F" id="122" transcription="" points="4568,2988 4720,2989 4720,2870 4758,2870 4757,3030 4568,3030 " />
<polygon class="Door" fill="#8BBA00" id="123" transcription="" points="4919.5,2164.5 5114.5,2163.5 5113.5,2358.5 5003.5,2344.5 4942.5,2269.5 " />
<polygon class="Wall" fill="#AFD8F8" id="124" transcription="" points="5100.5,2159 5100.5,2175 5111.5,2175 5111.5,2159 " />
<polygon class="Wall" fill="#AFD8F8" id="126" transcription="" points="3747,2712.5 3773,2712.5 3773,2732 3773,2751.5 3747,2751.5 " />
<polygon class="Door" fill="#8BBA00" id="127" transcription="" points="3764.5,2529.5 3764.5,2753.5 3991.5,2752.5 3982.5,2657.5 3881.5,2532.5 " />
<polygon class="Door" fill="#8BBA00" id="128" transcription="" points="3768,3406 3990,3406 3982,3529 3884,3631 3754,3638 " />
<polygon class="Room" fill="#FF8E46" id="133" transcription="" points="3746,3426 4080,3428 4086,3586 4649,3580 4649,3931 4500,3931 4500,4646 3746,4646 " />
<polygon class="Room" fill="#FF8E46" id="134" transcription="" points="4664,3580 5122,3580 5122,3932 4664,3932 " />
<polygon class="Room" fill="#FF8E46" id="135" transcription="" points="4516,3947.5 5122,3947.5 5122,4880.5 4516,4880.5 " />
<polygon class="Wall" fill="#AFD8F8" id="136" transcription="" points="4900,1725.5 4918,1738.5 4916,1940 4900,1938.5 " />
<polygon class="Wall" fill="#AFD8F8" id="137" transcription="" points="4900,1957 4925,1957 4924,1939 4901,1939 " />
<polygon class="Wall" fill="#AFD8F8" id="138" transcription="" points="5113,1941 5125,1941 5125,1955 5113,1955 " />
<polygon class="Wall" fill="#AFD8F8" id="139" transcription="" points="4112,2456.5 4752,2456.5 4752,2493.5 4112,2493.5 " />
<polygon class="Wall" fill="#AFD8F8" id="140" transcription="" points="4087,2465 4126,2465 4126,2751 4087,2751 " />
<polygon class="Wall" fill="#AFD8F8" id="141" transcription="" points="3982,2712 4088,2712 4088,2750 3982,2750 " />
<polygon class="Room" fill="#FF8E46" id="143" transcription="" points="4753,2178 5108,2178 5108,2724 4753,2724 " />
<polygon class="Room" fill="#FF8E46" id="144" transcription="" points="3732,2750.5 4011,2750.5 4011,3381.5 3732,3381.5 " />
<polygon class="Room" fill="#FF8E46" id="145" transcription="" points="3733,2710.5 4073,2711.5 4074,2464.5 4627,2462.5 4627,2182.5 3731,2185.5 " />
<polygon class="Separation" fill="#008E8E" id="146" transcription="" points="3734,2164 4488,2164 4488,2176 3734,2176 " />
<polygon class="Room" fill="#FF8E46" id="147" transcription="" points="3745,1279 5117,1279 5121,2162 3745,2162 " />
<polygon class="Door" fill="#8BBA00" id="148" transcription="" points="5115,1765 5112,1959 4925,1957 4927,1879 5005,1777 " />
<polygon class="Wall" fill="#AFD8F8" id="149" transcription="" points="3267,1279.5 3304,1278 3304,2728 3266,2728 " />
<polygon class="Wall" fill="#AFD8F8" id="150" transcription="" points="2718,1206 3304,1206 3304,1280 2719,1280 " />
<polygon class="Wall" fill="#AFD8F8" id="151" transcription="" points="3228,2740 3236,2740 3236,2729 3303,2727 3303,2803 3228,2801 " />
<polygon class="Wall" fill="#AFD8F8" id="152" transcription="" points="2839,2729 2839,2870 2850,2870 2851,2880 2908,2880 2908,2729 " />
<polygon class="Wall" fill="#AFD8F8" id="153" transcription="" points="2906,2729 3078,2730 3078,2739 3087,2739 3086,2802 2906,2803 " />
<polygon class="Wall" fill="#AFD8F8" id="154" transcription="" points="2880,2478 2907,2478 2907,2728 2881,2728 " />
<polygon class="Wall" fill="#AFD8F8" id="155" transcription="" points="2890,2167 2908,2167 2906,2480 2890,2480 " />
<polygon class="Wall" fill="#AFD8F8" id="156" transcription="" points="2796,2167 2891,2167 2892,2184 2798,2184 " />
<polygon class="Wall" fill="#AFD8F8" id="157" transcription="" points="2784,2167 2784,2480 2798,2479 2798,2168 " />
<polygon class="Wall" fill="#AFD8F8" id="158" transcription="" points="2798,2465 2891,2465 2890,2480 2798,2478 " />
<polygon class="Wall" fill="#AFD8F8" id="159" transcription="" points="2509,2167 2785,2168 2784,2193 2510,2193 " />
<polygon class="Wall" fill="#AFD8F8" id="160" transcription="" points="2663,2158 2681,2158 2681,2169 2663,2169 " />
<polygon class="Wall" fill="#AFD8F8" id="161" transcription="" points="2483,2166.5 2510,2165.5 2512,2596 2485,2595.5 " />
<polygon class="Wall" fill="#AFD8F8" id="162" transcription="" points="2718,1846 2718,1957 2792,1957 2792,1855 2780,1855 2780,1845 " />
<polygon class="Wall" fill="#AFD8F8" id="163" transcription="" points="2461.5,1881 2718.5,1881 2717.5,1957 2471.5,1957 2471.5,1946 2462.5,1945 " />
<polygon class="Wall" fill="#AFD8F8" id="164" transcription="" points="2664,1953 2682,1953 2682,1970 2664,1970 " />
<polygon class="Wall" fill="#AFD8F8" id="165" transcription="" points="1848,1880 1992,1881 1992,1945 1983,1945 1983,1958 1848,1958 " />
<polygon class="Wall" fill="#AFD8F8" id="166" transcription="" points="2718,1279 2792,1279 2791,1504 2778,1503 2778,1514 2718,1514 " />
<polygon class="Wall" fill="#AFD8F8" id="167" transcription="" points="1848,1957.5 1886,1958 1886,4715 1848,4716.5 " />
<polygon class="Wall" fill="#AFD8F8" id="168" transcription="" points="1885,4677.5 2581,4678 2581,4716 1885,4716.5 " />
<polygon class="Wall" fill="#AFD8F8" id="169" transcription="" points="2581,4035 2592,4033 2593,4024 2618,4024 2618,4717 2581,4717 " />
<polygon class="Wall" fill="#AFD8F8" id="170" transcription="" points="1884,2994.5 2581,2995 2581,3034 1884,3033.5 " />
<polygon class="Wall" fill="#AFD8F8" id="171" transcription="" points="2580,2961 2715,2961 2715,2973 2725,2973 2725,3035 2581,3033 " />
<polygon class="Wall" fill="#AFD8F8" id="172" transcription="" points="2582,3033 2617,3033 2618,3554 2594,3554 2592,3544 2581,3543 " />
<polygon class="Wall" fill="#AFD8F8" id="173" transcription="" points="2243,3528 2584,3528 2584,3543 2243,3543 " />
<polygon class="Wall" fill="#AFD8F8" id="174" transcription="" points="2229,3409 2243,3409 2243,3541 2229,3541 " />
<polygon class="Wall" fill="#AFD8F8" id="175" transcription="" points="2242,3410 2582,3410 2582,3424 2242,3424 " />
<polygon class="Wall" fill="#AFD8F8" id="176" transcription="" points="2687,3034 2687,3187 2725,3187 2725,3032 " />
<polygon class="Wall" fill="#AFD8F8" id="177" transcription="" points="2617,3151.5 2687,3151.5 2688,3187 2617,3188.5 " />
<polygon class="Wall" fill="#AFD8F8" id="178" transcription="" points="2484,2997 2485,2783 2510,2784 2510,2997 " />
<polygon class="Window" fill="#F6BD0F" id="179" transcription="" points="2711,1511 2791,1511 2791,1850 2711,1850 " />
<polygon class="Window" fill="#F6BD0F" id="180" transcription="" points="1991,1876 2465,1876 2465,1959 1991,1959 " />
<polygon class="Window" fill="#F6BD0F" id="181" transcription="" points="3085,2728 3229,2728 3229,2807 3085,2807 " />
<polygon class="Window" fill="#F6BD0F" id="182" transcription="" points="2838,2878 2912,2878 2912,3041 2723,3039 2723,2960 2839,2961 " />
<polygon class="Parking" fill="#D64646" id="183" transcription="" points="2582,3560 2625,3560 2624,4030 2582,4030 " />
<polygon class="Door" fill="#8BBA00" id="184" transcription="" points="2485,2784 2690,2786 2675,2663 2563,2606 2485,2595 " />
<polygon class="Door" fill="#8BBA00" id="185" transcription="" points="2681,1971 2683,2160 2569,2154 2512,2097 2483,1966 " />
<polygon class="Room" fill="#FF8E46" id="186" transcription="" points="1889,1956 2664,1958 2665,2166 2482,2166 2485,2993 1889,2995 " />
<polygon class="Room" fill="#FF8E46" id="187" transcription="" points="2512,2193 2780,2193 2784,2480 2881,2482 2879,2728 2836,2729 2839,2962 2581,2962 2579,2996 2509,2993 " />
<polygon class="Room" fill="#FF8E46" id="188" transcription="" points="2791,1284 3255,1281 3271,2728 2911,2728 2901,2164 2681,2161 2678,1954 2798,1958 " />
<relation type="incident" objects="98,100"/>
<relation type="incident" objects="101,99"/>
<relation type="incident" objects="99,70"/>
<relation type="incident" objects="94,123"/>
<relation type="incident" objects="94,95"/>
<relation type="incident" objects="96,94"/>
<relation type="incident" objects="127,126"/>
<relation type="incident" objects="126,67"/>
<relation type="incident" objects="91,92"/>
<relation type="incident" objects="92,120"/>
<relation type="incident" objects="120,90"/>
<relation type="incident" objects="90,70"/>
<relation type="incident" objects="67,98"/>
<relation type="incident" objects="91,122"/>
<relation type="incident" objects="122,85"/>
<relation type="incident" objects="85,86"/>
<relation type="incident" objects="85,87"/>
<relation type="incident" objects="87,89"/>
<relation type="incident" objects="89,88"/>
<relation type="incident" objects="88,85"/>
<relation type="incident" objects="88,82"/>
<relation type="incident" objects="82,83"/>
<relation type="incident" objects="82,128"/>
<relation type="incident" objects="128,84"/>
<relation type="incident" objects="84,67"/>
<relation type="incident" objects="82,81"/>
<relation type="incident" objects="81,80"/>
<relation type="incident" objects="80,79"/>
<relation type="incident" objects="79,88"/>
<relation type="incident" objects="79,118"/>
<relation type="incident" objects="118,76"/>
<relation type="incident" objects="76,119"/>
<relation type="incident" objects="119,78"/>
<relation type="incident" objects="78,70"/>
<relation type="incident" objects="76,77"/>
<relation type="incident" objects="77,74"/>
<relation type="incident" objects="74,117"/>
<relation type="incident" objects="117,73"/>
<relation type="incident" objects="73,70"/>
<relation type="incident" objects="74,75"/>
<relation type="incident" objects="75,116"/>
<relation type="incident" objects="116,69"/>
<relation type="incident" objects="69,72"/>
<relation type="incident" objects="72,104"/>
<relation type="incident" objects="104,68"/>
<relation type="incident" objects="68,67"/>
<relation type="incident" objects="72,105"/>
<relation type="incident" objects="105,71"/>
<relation type="incident" objects="71,70"/>
<relation type="neighbour" objects="133,134"/>
<relation type="neighbour" objects="134,135"/>
<relation type="neighbour" objects="135,133"/>
<relation type="access" objects="135,117,134"/>
<relation type="access" objects="133,116,135"/>
<relation type="surround" objects="76,119,78,70,117,74,77,76,134"/>
<relation type="surround" objects="74,117,70,71,105,72,69,116,75,74,135"/>
<relation type="surround" objects="84,128,82,81,80,79,118,76,77,74,75,116,69,72,104,68,67,84,133"/>
<relation type="incident" objects="96,139"/>
<relation type="incident" objects="139,140"/>
<relation type="incident" objects="140,141"/>
<relation type="incident" objects="141,127"/>
<relation type="incident" objects="91,139"/>
<relation type="incident" objects="139,95"/>
<relation type="incident" objects="70,138"/>
<relation type="incident" objects="124,123"/>
<relation type="incident" objects="70,138"/>
<relation type="incident" objects="138,148"/>
<relation type="incident" objects="148,137"/>
<relation type="incident" objects="137,136"/>
<relation type="incident" objects="94,146"/>
<relation type="incident" objects="146,67"/>
<relation type="neighbour" objects="133,144"/>
<relation type="neighbour" objects="144,145"/>
<relation type="neighbour" objects="145,147"/>
<relation type="neighbour" objects="147,143"/>
<relation type="access" objects="144,128,133"/>
<relation type="access" objects="144,127,145"/>
<relation type="access" objects="147,123,143"/>
<relation type="access" objects="145,146,147"/>
<relation type="surround" objects="126,127,141,140,139,91,122,85,88,82,128,67,126,144"/>
<relation type="surround" objects="146,94,96,139,140,141,127,126,67,146,145"/>
<relation type="surround" objects="94,123,124,70,90,120,92,91,139,95,94,143"/>
<relation type="outerP" objects="165,180,163,162,179,166,150,149,151,181,153,152,182,171,176,177,172,183,169,168,167"/>
<relation type="incident" objects="150,149"/>
<relation type="incident" objects="149,151"/>
<relation type="incident" objects="151,181"/>
<relation type="incident" objects="181,153"/>
<relation type="incident" objects="153,152"/>
<relation type="incident" objects="152,154"/>
<relation type="incident" objects="154,155"/>
<relation type="incident" objects="154,158"/>
<relation type="incident" objects="158,155"/>
<relation type="incident" objects="155,156"/>
<relation type="incident" objects="156,157"/>
<relation type="incident" objects="157,158"/>
<relation type="incident" objects="157,159"/>
<relation type="incident" objects="159,160"/>
<relation type="incident" objects="160,185"/>
<relation type="incident" objects="185,164"/>
<relation type="incident" objects="164,163"/>
<relation type="incident" objects="163,162"/>
<relation type="incident" objects="162,179"/>
<relation type="incident" objects="163,180"/>
<relation type="incident" objects="179,166"/>
<relation type="incident" objects="166,150"/>
<relation type="incident" objects="180,165"/>
<relation type="incident" objects="165,167"/>
<relation type="incident" objects="159,161"/>
<relation type="incident" objects="161,184"/>
<relation type="incident" objects="184,178"/>
<relation type="incident" objects="152,182"/>
<relation type="incident" objects="182,171"/>
<relation type="incident" objects="171,176"/>
<relation type="incident" objects="176,182"/>
<relation type="incident" objects="176,177"/>
<relation type="incident" objects="177,172"/>
<relation type="incident" objects="172,171"/>
<relation type="incident" objects="171,170"/>
<relation type="incident" objects="172,170"/>
<relation type="incident" objects="170,178"/>
<relation type="incident" objects="170,167"/>
<relation type="incident" objects="172,183"/>
<relation type="incident" objects="172,175"/>
<relation type="incident" objects="175,174"/>
<relation type="incident" objects="174,173"/>
<relation type="incident" objects="173,172"/>
<relation type="incident" objects="168,169"/>
<relation type="incident" objects="168,167"/>
<relation type="incident" objects="169,183"/>
<relation type="neighbour" objects="186,187"/>
<relation type="neighbour" objects="187,188"/>
<relation type="neighbour" objects="188,186"/>
<relation type="access" objects="188,185,186"/>
<relation type="access" objects="186,184,187"/>
<relation type="surround" objects="165,180,163,185,159,161,184,178,170,167,165,186"/>
<relation type="surround" objects="159,157,158,154,152,182,171,170,178,184,161,159,187"/>
<relation type="surround" objects="163,162,179,166,150,149,151,181,153,154,155,156,159,185,163,188"/>
<relation type="incident" objects="101,65"/>
<relation type="incident" objects="65,100"/>
<relation type="surround" objects="98,100,65,101,99,70,123,94,146,67,98,147"/>
<relation type="surround" objects="98,100,65,101,99,70,71,105,72,104,68,67"/>
<relation type="outerP" objects="98,100,65,101,99,70,71,105,72,104,68,67"/>
</svg>