<?xml version="1.0" encoding="UTF-8"?><!DOCTYPE svg PUBLIC "-//W3C//DTD SVG 1.1//EN" "http://www.w3.org/Graphics/SVG/1.1/DTD/svg11.dtd">
<svg xmlns="http://www.w3.org/2000/svg" version="1.1">
<width>5671</width>
<height>7383</height>
<nclasslabel>6</nclasslabel>
<nclassappear>5</nclassappear>
<class>Door</class>
<class>Parking</class>
<class>Room</class>
<class>Separation</class>
<class>Wall</class>
<class>Window</class>
<polygon class="Wall" fill="#AFD8F8" id="14" transcription="" points="4599,4619 4588,4618 4587,4627 4414,4626 4415,4565 4426,4566 4425,4553 4599,4553 " />
<polygon class="Wall" fill="#AFD8F8" id="22" transcription="" points="4106,3722 4106,3677 4094,3677 4094,3722 " />
<polygon class="Wall" fill="#AFD8F8" id="23" transcription="" points="3824,4554 3935,4555 3936,4566 3946,4566 3945,4627 3826,4627 " />
<polygon class="Wall" fill="#AFD8F8" id="24" transcription="" points="4584,4020 4601,4021 4600,4554 4584,4553 " />
<polygon class="Wall" fill="#AFD8F8" id="25" transcription="" points="5005,4031 4599,4031 4599,4049 5006,4048 " />
<polygon class="Wall" fill="#AFD8F8" id="26" transcription="" points="4912,4802 4921,4802 4922,4790 5207,4790 5208,4864 4911,4864 " />
<polygon class="Wall" fill="#AFD8F8" id="27" transcription="" points="5206,1188 5244,1189 5245,5334 5205,5332 " />
<polygon class="Wall" fill="#AFD8F8" id="28" transcription="" points="3826,5372 5244,5372 5244,5334 3825,5334 " />
<polygon class="Wall" fill="#AFD8F8" id="29" transcription="" points="5194,4032 5207,4032 5207,4049 5194,4049 " />
<polygon class="Wall" fill="#AFD8F8" id="30" transcription="" points="3789,1330 3827,1329 3826,5373 3789,5373.5 " />
<polygon class="Wall" fill="#AFD8F8" id="31" transcription="" points="3934,1294 3934,1332 3789,1331 3789,1295 " />
<polygon class="Wall" fill="#AFD8F8" id="32" transcription="" points="3789,1129 3828,1129 3828,1155 3789,1155 " />
<polygon class="Wall" fill="#AFD8F8" id="33" transcription="" points="3789,1154 3816,1155 3815,1295 3789,1295 " />
<polygon class="Wall" fill="#AFD8F8" id="34" transcription="" points="5100,1117 5244,1117 5244,1190 5109,1190 5109,1179 5101,1179 " />
<polygon class="Wall" fill="#AFD8F8" id="35" transcription="" points="4108,2026.5 4145,2026.5 4145,2413.5 4108,2413.5 " />
<polygon class="Wall" fill="#AFD8F8" id="36" transcription="" points="4145,2375 4847,2375 4847,2414 4145,2414 " />
<polygon class="Wall" fill="#AFD8F8" id="37" transcription="" points="4971,2234 4990,2234 4990,2393 4971,2393 " />
<polygon class="Wall" fill="#AFD8F8" id="38" transcription="" points="4846,2375 4971,2375 4971,2394 4846,2394 " />
<polygon class="Wall" fill="#AFD8F8" id="39" transcription="" points="4814,2412 4847,2413 4847,2909 4814,2908 " />
<polygon class="Wall" fill="#AFD8F8" id="40" transcription="" points="4857,2416 4868,2415 4879,2420 4885,2433 4882,2445 4874,2452 4864,2453 4855,2452 4847,2443 4846,2430 4850,2420 " />
<polygon class="Wall" fill="#AFD8F8" id="41" transcription="" points="4846,2929 4989,2929 4989,2946 4846,2946 " />
<polygon class="Wall" fill="#AFD8F8" id="42" transcription="" points="4972,2945 4972,3118 4990,3118 4989,2944 " />
<polygon class="Wall" fill="#AFD8F8" id="43" transcription="" points="4143,2908 4847,2908 4847,2947 4145,2946 " />
<polygon class="Wall" fill="#AFD8F8" id="44" transcription="" points="4572,2413 4608,2412 4608,2908 4572,2909 " />
<polygon class="Wall" fill="#AFD8F8" id="45" transcription="" points="4520,2946 4521,3299 4559,3299 4559,2945 " />
<polygon class="Wall" fill="#AFD8F8" id="46" transcription="" points="4558.5,3317.5 4972.5,3318.5 4971.5,3334.5 4557.5,3334.5 " />
<polygon class="Wall" fill="#AFD8F8" id="47" transcription="" points="4971,3306 4989,3306 4989,3462 4971,3462 " />
<polygon class="Wall" fill="#AFD8F8" id="48" transcription="" points="4627,2946 4665,2946 4665,3099 4627,3099 " />
<polygon class="Wall" fill="#AFD8F8" id="49" transcription="" points="4559,3061 4627,3061 4627,3099 4559,3099 " />
<polygon class="Wall" fill="#AFD8F8" id="50" transcription="" points="3826,3298 4559,3298 4559,3335 3826,3335 " />
<polygon class="Wall" fill="#AFD8F8" id="51" transcription="" points="4108,3262 4145,3262 4145,3298 4108,3298 " />
<polygon class="Wall" fill="#AFD8F8" id="52" transcription="" points="4037,3680 4973,3680 4973,3664 4037,3664 " />
<polygon class="Wall" fill="#AFD8F8" id="53" transcription="" points="4029,3805 4051,3805 4051,3822 4029,3822 " />
<polygon class="Wall" fill="#AFD8F8" id="54" transcription="" points="4037,3679 4037,3806 4052,3806 4051,3679 " />
<polygon class="Wall" fill="#AFD8F8" id="55" transcription="" points="4051,3722 4106,3722 4106,3733 4051,3733 " />
<polygon class="Wall" fill="#AFD8F8" id="56" transcription="" points="4582,3679 4599,3680 4599,3830 4582,3830 " />
<polygon class="Wall" fill="#AFD8F8" id="57" transcription="" points="4972,3652 4972,3822 4989,3822 4989,3652 " />
<polygon class="Wall" fill="#AFD8F8" id="58" transcription="" points="4461,3335 4462,3664 4479,3664 4479,3335 " />
<polygon class="Wall" fill="#AFD8F8" id="59" transcription="" points="1952,827 1951,753 1736,754 1736,828 " />
<polygon class="Wall" fill="#AFD8F8" id="60" transcription="" points="1736,827 1774,827 1774,882 1736,882 " />
<polygon class="Wall" fill="#AFD8F8" id="61" transcription="" points="2244,754 2624,754 2623,827 2243,827 " />
<polygon class="Wall" fill="#AFD8F8" id="62" transcription="" points="2530,826 2546,826 2546,882 2530,882 " />
<polygon class="Wall" fill="#AFD8F8" id="63" transcription="" points="2835,754 3191,754 3191,828 2835,827 " />
<polygon class="Wall" fill="#AFD8F8" id="64" transcription="" points="3152,827 3191,827 3191,882 3152,882 " />
<polygon class="Wall" fill="#AFD8F8" id="65" transcription="" points="2350,1117 2624,1117 2624,1178 2614,1178 2614,1190 2361,1191 2360,1178 2350,1178 " />
<polygon class="Wall" fill="#AFD8F8" id="66" transcription="" points="2530,1189 2547,1190 2546,1722 2530,1722 " />
<polygon class="Wall" fill="#AFD8F8" id="67" transcription="" points="1736,1117 1775,1117 1774,4627 1736,4627 " />
<polygon class="Wall" fill="#AFD8F8" id="68" transcription="" points="1774,4553 1892,4553 1892,4627 1773,4627 " />
<polygon class="Wall" fill="#AFD8F8" id="69" transcription="" points="2530,4211 2546,4211 2546,4555 2530,4555 " />
<polygon class="Wall" fill="#AFD8F8" id="70" transcription="" points="3152,1117 3191,1117 3191,4791 3153,4791 " />
<polygon class="Wall" fill="#AFD8F8" id="71" transcription="" points="2858,4789 3191,4789 3191,4863 2858,4863 " />
<polygon class="Wall" fill="#AFD8F8" id="72" transcription="" points="2362,4554 2546,4554 2546,4627 2362,4627 " />
<polygon class="Wall" fill="#AFD8F8" id="73" transcription="" points="3142,3840 3156,3840 3156,3857 3142,3857 " />
<polygon class="Wall" fill="#AFD8F8" id="74" transcription="" points="2530,3840 2952,3840 2952,3856 2530,3857 " />
<polygon class="Wall" fill="#AFD8F8" id="75" transcription="" points="2530,3856 2546,3857 2546,4022 2530,4022 " />
<polygon class="Wall" fill="#AFD8F8" id="76" transcription="" points="2669,3414 2707,3414 2707,3488 2669,3488 " />
<polygon class="Wall" fill="#AFD8F8" id="77" transcription="" points="2681,3487 2695,3487 2695,3840 2681,3840 " />
<polygon class="Wall" fill="#AFD8F8" id="78" transcription="" points="2846,3415 3154,3415 3154,3488 2846,3488 " />
<polygon class="Wall" fill="#AFD8F8" id="79" transcription="" points="2468,3415 2530,3415 2530,3488 2467,3488 " />
<polygon class="Wall" fill="#AFD8F8" id="80" transcription="" points="2131,3474 2469,3474 2469,3488 2131,3488 " />
<polygon class="Wall" fill="#AFD8F8" id="81" transcription="" points="2116,3335 2116,3488 2131,3488 2131,3335 " />
<polygon class="Wall" fill="#AFD8F8" id="82" transcription="" points="2011,3297 2470,3296 2470,3335 2011,3335 " />
<polygon class="Wall" fill="#AFD8F8" id="83" transcription="" points="2055,3262 2093,3262 2093,3297 2055,3297 " />
<polygon class="Wall" fill="#AFD8F8" id="84" transcription="" points="1774,3297 1799,3297 1799,3335 1774,3335 " />
<polygon class="Wall" fill="#AFD8F8" id="85" transcription="" points="2055,2907 2612,2906 2612,2945 2055,2945 " />
<polygon class="Wall" fill="#AFD8F8" id="86" transcription="" points="2055,2945 2093,2945 2093,2980 2055,2980 " />
<polygon class="Wall" fill="#AFD8F8" id="87" transcription="" points="2575,2945 2612,2945 2612,3098 2575,3098 " />
<polygon class="Wall" fill="#AFD8F8" id="88" transcription="" points="2468,2945 2506,2945 2506,3415 2468,3415 " />
<polygon class="Wall" fill="#AFD8F8" id="89" transcription="" points="2506,3061 2575,3061 2575,3098 2506,3098 " />
<polygon class="Wall" fill="#AFD8F8" id="90" transcription="" points="3114,2713 3153,2713 3153,2640 3114,2640 " />
<polygon class="Wall" fill="#AFD8F8" id="91" transcription="" points="2761,2413 2794,2413 2794,2791 2761,2791 " />
<polygon class="Wall" fill="#AFD8F8" id="92" transcription="" points="2794,2640 2833,2640 2833,2713 2794,2713 " />
<polygon class="Wall" fill="#AFD8F8" id="93" transcription="" points="2011,2376 2794,2376 2794,2413 2011,2413 " />
<polygon class="Wall" fill="#AFD8F8" id="94" transcription="" points="2545,2078 2951,2078 2952,2094 2545,2094 " />
<polygon class="Wall" fill="#AFD8F8" id="95" transcription="" points="2778,2094 2794,2094 2794,2377 2778,2377 " />
<polygon class="Wall" fill="#AFD8F8" id="96" transcription="" points="2672,2094 2672,2376 2686,2376 2686,2094 " />
<polygon class="Wall" fill="#AFD8F8" id="97" transcription="" points="2530,1913 2546,1913 2546,2094 2530,2094 " />
<polygon class="Wall" fill="#AFD8F8" id="98" transcription="" points="1775,1117 2057,1117 2057,1178 2047,1178 2047,1190 1774,1190 " />
<polygon class="Wall" fill="#AFD8F8" id="99" transcription="" points="2835,1117 3153,1117 3153,1191 2844,1190 2844,1178 2835,1178 " />
<polygon class="Window" fill="#F6BD0F" id="100" transcription="" points="2055,1112 2352,1112 2351,1189 2056,1189 " />
<polygon class="Window" fill="#F6BD0F" id="101" transcription="" points="2622,1112 2838,1112 2835,1189 2622,1189 " />
<polygon class="Window" fill="#F6BD0F" id="102" transcription="" points="1949,749 2246,749 2246,826 1948,826 " />
<polygon class="Window" fill="#F6BD0F" id="103" transcription="" points="2622,749 2837,749 2837,826 2621,826 " />
<polygon class="Window" fill="#F6BD0F" id="104" transcription="" points="1891,4553 2364,4553 2364,4631 1889,4631 " />
<polygon class="Window" fill="#F6BD0F" id="105" transcription="" points="2469,4626 2547,4626 2546,4789 2860,4789 2860,4867 2469,4868 " />
<polygon class="Window" fill="#F6BD0F" id="106" transcription="" points="4675,1113 5102,1113 5103,1191 4674,1190 " />
<polygon class="Door" fill="#8BBA00" id="107" transcription="" points="3934,1315 3957,1427 4063,1531 4164,1548 4163,1316 " />
<polygon class="Door" fill="#8BBA00" id="108" transcription="" points="4127,1811 4353,1811 4334,1931 4240,2011 4126,2028 " />
<polygon class="Door" fill="#8BBA00" id="109" transcription="" points="4796,3311 4991,3309 4990,3118 4881,3131 4811,3203 " />
<polygon class="Door" fill="#8BBA00" id="110" transcription="" points="4798,3653 4991,3653 4990,3460 4899,3468 4811,3546 " />
<polygon class="Door" fill="#8BBA00" id="111" transcription="" points="4407,3828 4601,3828 4602,4024 4486,4012 4422,3926 " />
<polygon class="Window" fill="#F6BD0F" id="112" transcription="" points="3943,4554 3943,4632 4417,4632 4417,4554 " />
<polygon class="Window" fill="#F6BD0F" id="113" transcription="" points="4521,4625 4599,4625 4599,4791 4913,4791 4913,4868 4521,4868 " />
<polygon class="Door" fill="#8BBA00" id="114" transcription="" points="3834,3631 3838,3823 4030,3824 4022,3740 3953,3642 " />
<polygon class="Wall" fill="#AFD8F8" id="115" transcription="" points="3826,3806 3837,3806 3838,3822 3826,3822 " />
<polygon class="Door" fill="#8BBA00" id="116" transcription="" points="2528,4021 2724,4019 2704,4120 2624,4181 2531,4211 " />
<polygon class="Door" fill="#8BBA00" id="117" transcription="" points="3143,3667 3141,3857 2951,3857 2962,3773 3031,3681 " />
<polygon class="Window" fill="#F6BD0F" id="118" transcription="" points="2527,3411 2671,3410 2671,3487 2527,3488 " />
<polygon class="Window" fill="#F6BD0F" id="119" transcription="" points="2705,3410 2848,3411 2848,3488 2705,3488 " />
<polygon class="Window" fill="#F6BD0F" id="120" transcription="" points="2832,2641 3116,2641 3116,2718 2830,2718 " />
<polygon class="Wall" fill="#AFD8F8" id="121" transcription="" points="4108,2908 4108,2981 4145,2981 4144,2908 " />
<polygon class="Window" fill="#F6BD0F" id="122" transcription="" points="2610,2907 2762,2908 2762,2789 2800,2789 2799,2949 2610,2949 " />
<polygon class="Door" fill="#8BBA00" id="123" transcription="" points="2949,2077 3144,2076 3143,2271 3033,2257 2972,2182 " />
<polygon class="Wall" fill="#AFD8F8" id="124" transcription="" points="3142,2078 3142,2094 3153,2094 3153,2078 " />
<polygon class="Door" fill="#8BBA00" id="125" transcription="" points="2529,1914 2727,1914 2706,1803 2626,1738 2529,1723 " />
<polygon class="Wall" fill="#AFD8F8" id="126" transcription="" points="1773,2375 1799,2375 1799,2414 1773,2414 " />
<polygon class="Door" fill="#8BBA00" id="127" transcription="" points="1787,2167 1787,2391 2014,2390 2005,2295 1904,2170 " />
<polygon class="Door" fill="#8BBA00" id="128" transcription="" points="1798,3314 2020,3314 2012,3437 1914,3539 1784,3546 " />
<polygon class="Room" fill="#FF8E46" id="129" transcription="" points="1776,1191 2531,1191 2528,2096 2672,2096 2672,2374 1778,2374 " />
<polygon class="Room" fill="#FF8E46" id="130" transcription="" points="2546,1189 3155,1191 3154,2078 2546,2078 " />
<polygon class="Room" fill="#FF8E46" id="131" transcription="" points="2795,2095 3154,2094 3154,2640 2796,2641 " />
<polygon class="Room" fill="#FF8E46" id="132" transcription="" points="1776,2414 2058,2415 2055,3298 1776,3297 " />
<polygon class="Room" fill="#FF8E46" id="133" transcription="" points="1778,3334 2112,3336 2118,3494 2681,3488 2681,3839 2532,3839 2532,4554 1778,4554 " />
<polygon class="Room" fill="#FF8E46" id="134" transcription="" points="2696,3488 3154,3488 3154,3840 2696,3840 " />
<polygon class="Room" fill="#FF8E46" id="135" transcription="" points="2548,3855.5 3154,3855.5 3154,4788.5 2548,4788.5 " />
<polygon class="Room" fill="#FF8E46" id="136" transcription="" points="3828,1333.5 4340,1331.5 4337,1506 4218,1506 4218,1525 4338,1524.5 4337,1753.5 4108,1752 4105,3296.5 3828,3296.5 " />
<polygon class="Separation" fill="#008E8E" id="137" transcription="" points="4990,2236 5207,2236 5208,2251 4988,2251 " />
<polygon class="Room" fill="#FF8E46" id="138" transcription="" points="4376,1228 4556,1228 4554,1192 5206,1192 5204,2238 4974,2234 4970,2378 4148,2376 4146,1790 4380,1790 " />
<polygon class="Room" fill="#FF8E46" id="139" transcription="" points="4993,2253 5206,2253 5206,4030 4606,4033 4600,3680 4973,3680 4973,3827 4993,3823 4993,2927 4856,2927 4850,2463 4900,2463 4903,2397 4993,2400 " />
<polygon class="Room" fill="#FF8E46" id="140" transcription="" points="4666,2946 4973,2946 4972,3319 4560,3318 4559,3099 4665,3099 " />
<polygon class="Room" fill="#FF8E46" id="141" transcription="" points="4481,3334 4973,3334 4973,3666 4481,3666 " />
<polygon class="Door" fill="#8BBA00" id="142" transcription="" points="5194,4031 5196,4225 5082,4213 5014,4140 5004,4033 " />
<polygon class="Room" fill="#FF8E46" id="143" transcription="" points="4599,4048 5205,4048 5205,4792 4599,4792 " />
<polygon class="Room" fill="#FF8E46" id="144" transcription="" points="3827,3334 4463,3335 4462,3664 4037,3664 4037,3805 3826,3805 " />
<polygon class="Room" fill="#FF8E46" id="145" transcription="" points="3825,3823 4054,3823 4053,3733 4110,3733 4108,3680 4583,3679 4583,4555 3828,4555 " />
<polygon class="Wall" fill="#AFD8F8" id="146" transcription="" points="4513,1116 4676,1117 4676,1179 4667,1179 4667,1190 4514,1190 " />
<polygon class="Wall" fill="#AFD8F8" id="147" transcription="" points="4375,1188 4552,1189 4552,1227 4375,1226 " />
<polygon class="Wall" fill="#AFD8F8" id="148" transcription="" points="4337,1155 4375,1155 4375,1789 4337,1789 " />
<polygon class="Wall" fill="#AFD8F8" id="149" transcription="" points="4107,1814 4146,1814 4146,1752 4108,1752 " />
<polygon class="Wall" fill="#AFD8F8" id="150" transcription="" points="4146,1752 4338,1752 4338,1789 4145,1789 " />
<polygon class="Wall" fill="#AFD8F8" id="151" transcription="" points="4219,1506.5 4338,1507 4338,1523 4219,1523.5 " />
<polygon class="Wall" fill="#AFD8F8" id="152" transcription="" points="4214,1316 4338,1316 4337,1332 4214,1332 " />
<polygon class="Wall" fill="#AFD8F8" id="153" transcription="" points="4214,1117 4375,1117 4375,1155 4214,1155 " />
<polygon class="Wall" fill="#AFD8F8" id="154" transcription="" points="4885,2393 4884,2454 4896,2454 4896,2393 " />
<polygon class="Wall" fill="#AFD8F8" id="155" transcription="" points="4846,2452 4896,2453 4896,2466 4847,2465 " />
<relation type="outerP" objects="98,100,65,101,99,70,71,105,72,104,68,67"/>
<relation type="outerP" objects="31,107,152,148,147,146,106,34,27,28,30"/>
<relation type="incident" objects="98,100"/>
<relation type="incident" objects="100,65"/>
<relation type="incident" objects="65,101"/>
<relation type="incident" objects="101,99"/>
<relation type="incident" objects="99,70"/>
<relation type="incident" objects="65,66"/>
<relation type="incident" objects="66,125"/>
<relation type="incident" objects="125,97"/>
<relation type="incident" objects="97,94"/>
<relation type="incident" objects="94,123"/>
<relation type="incident" objects="123,70"/>
<relation type="incident" objects="94,95"/>
<relation type="incident" objects="95,93"/>
<relation type="incident" objects="93,96"/>
<relation type="incident" objects="96,94"/>
<relation type="incident" objects="93,127"/>
<relation type="incident" objects="127,126"/>
<relation type="incident" objects="126,67"/>
<relation type="incident" objects="93,91"/>
<relation type="incident" objects="91,92"/>
<relation type="incident" objects="92,120"/>
<relation type="incident" objects="120,90"/>
<relation type="incident" objects="90,70"/>
<relation type="incident" objects="67,98"/>
<relation type="incident" objects="91,122"/>
<relation type="incident" objects="122,85"/>
<relation type="incident" objects="85,86"/>
<relation type="incident" objects="85,87"/>
<relation type="incident" objects="87,89"/>
<relation type="incident" objects="89,88"/>
<relation type="incident" objects="88,85"/>
<relation type="incident" objects="88,82"/>
<relation type="incident" objects="82,83"/>
<relation type="incident" objects="82,128"/>
<relation type="incident" objects="128,84"/>
<relation type="incident" objects="84,67"/>
<relation type="incident" objects="82,81"/>
<relation type="incident" objects="81,80"/>
<relation type="incident" objects="80,79"/>
<relation type="incident" objects="79,88"/>
<relation type="incident" objects="79,118"/>
<relation type="incident" objects="118,76"/>
<relation type="incident" objects="76,119"/>
<relation type="incident" objects="119,78"/>
<relation type="incident" objects="78,70"/>
<relation type="incident" objects="76,77"/>
<relation type="incident" objects="77,74"/>
<relation type="incident" objects="74,117"/>
<relation type="incident" objects="117,73"/>
<relation type="incident" objects="73,70"/>
<relation type="incident" objects="74,75"/>
<relation type="incident" objects="75,116"/>
<relation type="incident" objects="116,69"/>
<relation type="incident" objects="69,72"/>
<relation type="incident" objects="72,104"/>
<relation type="incident" objects="104,68"/>
<relation type="incident" objects="68,67"/>
<relation type="incident" objects="72,105"/>
<relation type="incident" objects="105,71"/>
<relation type="incident" objects="71,70"/>
<relation type="incident" objects="60,59"/>
<relation type="incident" objects="59,102"/>
<relation type="incident" objects="102,61"/>
<relation type="incident" objects="61,62"/>
<relation type="incident" objects="61,103"/>
<relation type="incident" objects="103,63"/>
<relation type="incident" objects="63,64"/>
<relation type="incident" objects="32,33"/>
<relation type="incident" objects="33,31"/>
<relation type="incident" objects="31,30"/>
<relation type="incident" objects="31,107"/>
<relation type="incident" objects="107,152"/>
<relation type="incident" objects="152,148"/>
<relation type="incident" objects="148,151"/>
<relation type="incident" objects="148,150"/>
<relation type="incident" objects="150,149"/>
<relation type="incident" objects="148,153"/>
<relation type="incident" objects="148,147"/>
<relation type="incident" objects="147,146"/>
<relation type="incident" objects="149,108"/>
<relation type="incident" objects="146,106"/>
<relation type="incident" objects="106,34"/>
<relation type="incident" objects="34,27"/>
<relation type="incident" objects="27,137"/>
<relation type="incident" objects="137,37"/>
<relation type="incident" objects="37,38"/>
<relation type="incident" objects="38,154"/>
<relation type="incident" objects="154,155"/>
<relation type="incident" objects="155,39"/>
<relation type="incident" objects="39,36"/>
<relation type="incident" objects="36,38"/>
<relation type="incident" objects="36,35"/>
<relation type="incident" objects="35,108"/>
<relation type="incident" objects="36,44"/>
<relation type="incident" objects="44,43"/>
<relation type="incident" objects="43,39"/>
<relation type="incident" objects="43,121"/>
<relation type="incident" objects="43,45"/>
<relation type="incident" objects="43,48"/>
<relation type="incident" objects="48,49"/>
<relation type="incident" objects="49,45"/>
<relation type="incident" objects="43,41"/>
<relation type="incident" objects="41,42"/>
<relation type="incident" objects="42,109"/>
<relation type="incident" objects="109,47"/>
<relation type="incident" objects="47,46"/>
<relation type="incident" objects="46,50"/>
<relation type="incident" objects="50,51"/>
<relation type="incident" objects="50,30"/>
<relation type="incident" objects="47,110"/>
<relation type="incident" objects="110,57"/>
<relation type="incident" objects="57,52"/>
<relation type="incident" objects="52,58"/>
<relation type="incident" objects="58,50"/>
<relation type="incident" objects="52,22"/>
<relation type="incident" objects="22,55"/>
<relation type="incident" objects="55,54"/>
<relation type="incident" objects="54,52"/>
<relation type="incident" objects="54,53"/>
<relation type="incident" objects="53,114"/>
<relation type="incident" objects="114,115"/>
<relation type="incident" objects="115,30"/>
<relation type="incident" objects="52,56"/>
<relation type="incident" objects="56,111"/>
<relation type="incident" objects="111,24"/>
<relation type="incident" objects="24,25"/>
<relation type="incident" objects="25,142"/>
<relation type="incident" objects="142,27"/>
<relation type="incident" objects="24,14"/>
<relation type="incident" objects="14,113"/>
<relation type="incident" objects="113,26"/>
<relation type="incident" objects="26,27"/>
<relation type="incident" objects="27,28"/>
<relation type="incident" objects="14,112"/>
<relation type="incident" objects="112,23"/>
<relation type="incident" objects="23,30"/>
<relation type="incident" objects="30,28"/>
<relation type="neighbour" objects="129,130"/>
<relation type="neighbour" objects="130,131"/>
<relation type="neighbour" objects="129,132"/>
<relation type="neighbour" objects="132,133"/>
<relation type="neighbour" objects="133,134"/>
<relation type="neighbour" objects="134,135"/>
<relation type="neighbour" objects="135,133"/>
<relation type="neighbour" objects="136,138"/>
<relation type="neighbour" objects="138,139"/>
<relation type="neighbour" objects="139,140"/>
<relation type="neighbour" objects="139,141"/>
<relation type="neighbour" objects="141,140"/>
<relation type="neighbour" objects="139,143"/>
<relation type="neighbour" objects="143,145"/>
<relation type="neighbour" objects="145,139"/>
<relation type="neighbour" objects="145,141"/>
<relation type="neighbour" objects="145,144"/>
<relation type="neighbour" objects="144,141"/>
<relation type="neighbour" objects="144,136"/>
<relation type="access" objects="136,107,136"/>
<relation type="access" objects="136,108,138"/>
<relation type="access" objects="138,137,139"/>
<relation type="access" objects="139,109,140"/>
<relation type="access" objects="139,110,141"/>
<relation type="access" objects="139,142,143"/>
<relation type="access" objects="139,111,145"/>
<relation type="access" objects="145,114,144"/>
<relation type="access" objects="132,127,129"/>
<relation type="access" objects="129,125,130"/>
<relation type="access" objects="130,123,131"/>
<relation type="access" objects="132,128,133"/>
<relation type="access" objects="135,117,134"/>
<relation type="access" objects="133,116,135"/>
<relation type="surround" objects="98,100,65,66,125,97,94,96,93,127,126,67,98,129"/>
<relation type="surround" objects="65,101,99,70,123,94,97,125,66,65,130"/>
<relation type="surround" objects="94,123,70,90,120,92,91,93,95,94,131"/>
<relation type="surround" objects="126,127,93,91,122,85,88,82,128,84,67,126,132"/>
<relation type="surround" objects="76,119,78,70,117,74,77,76,134"/>
<relation type="surround" objects="74,117,70,71,105,72,69,116,75,74,135"/>
<relation type="surround" objects="84,128,82,81,80,79,118,76,77,74,75,116,69,72,104,68,67,84,133"/>
<relation type="surround" objects="31,107,152,148,150,149,108,35,36,44,43,45,50,30,31,136"/>
<relation type="surround" objects="150,148,147,146,106,34,27,137,37,38,36,35,108,149,150,138"/>
<relation type="surround" objects="25,142,29,27,26,113,14,24,25,143"/>
<relation type="surround" objects="49,48,43,41,42,109,47,46,50,45,49,140"/>
<relation type="surround" objects="155,154,38,37,137,27,142,25,24,111,56,52,57,110,47,109,42,41,43,39,155,139"/>
<relation type="surround" objects="50,46,47,110,57,52,58,50,141"/>
<relation type="surround" objects="50,58,52,54,53,114,115,30,50,144"/>
<relation type="surround" objects="114,53,54,55,22,52,56,111,24,14,112,23,30,115,114,145"/>
</svg>