<?xml version="1.0" encoding="UTF-8"?><!DOCTYPE svg PUBLIC "-//W3C//DTD SVG 1.1//EN" "http://www.w3.org/Graphics/SVG/1.1/DTD/svg11.dtd">
<svg xmlns="http://www.w3.org/2000/svg" version="1.1">
<width>5671</width>
<height>7383</height>
<nclasslabel>6</nclasslabel>
<nclassappear>5</nclassappear>
<class>Door</class>
<class>Parking</class>
<class>Room</class>
<class>Separation</class>
<class>Wall</class>
<class>Window</class>
<polygon class="Wall" fill="#AFD8F8" id="14" transcription="" points="4501,5582 4490,5581 4489,5590 4316,5589 4317,5528 4328,5529 4327,5516 4501,5516 " />
<polygon class="Wall" fill="#AFD8F8" id="22" transcription="" points="4009,4684 4009,4639 3997,4639 3997,4684 " />
<polygon class="Wall" fill="#AFD8F8" id="23" transcription="" points="3727,5515.75 3838,5516.75 3839,5527.75 3849,5527.75 3848,5588.75 3728,5590 " />
<polygon class="Wall" fill="#AFD8F8" id="24" transcription="" points="4485,4982.5 4502,4983.5 4501,5516.5 4485,5515.5 " />
<polygon class="Wall" fill="#AFD8F8" id="25" transcription="" points="4906.5,4993.5 4500.5,4993.5 4500.5,5011.5 4907.5,5010.5 " />
<polygon class="Wall" fill="#AFD8F8" id="26" transcription="" points="4812.5,5764 4821.5,5764 4822.5,5752 5107.5,5752 5108.5,5826 4811.5,5826 " />
<polygon class="Wall" fill="#AFD8F8" id="27" transcription="" points="5108.5,2151 5146.5,2152 5147.5,6297 5107.5,6295 " />
<polygon class="Wall" fill="#AFD8F8" id="28" transcription="" points="3726.5,6333 5144.5,6333 5144.5,6295 3725.5,6295 " />
<polygon class="Wall" fill="#AFD8F8" id="29" transcription="" points="5096,4993.5 5109,4993.5 5109,5010.5 5096,5010.5 " />
<polygon class="Wall" fill="#AFD8F8" id="30" transcription="" points="3691,2290.25 3729,2289.25 3728,6333.25 3691,6333.75 " />
<polygon class="Wall" fill="#AFD8F8" id="31" transcription="" points="3837,2255 3836.5,2294.5 3691.5,2293.5 3691,2256 " />
<polygon class="Wall" fill="#AFD8F8" id="32" transcription="" points="3691,2092 3730,2092 3730,2118 3691,2118 " />
<polygon class="Wall" fill="#AFD8F8" id="33" transcription="" points="3691,2114.5 3718,2115.5 3717,2255.5 3691,2255.5 " />
<polygon class="Wall" fill="#AFD8F8" id="34" transcription="" points="5002.5,2079 5146.5,2079 5146.5,2152 5011.5,2152 5011.5,2141 5003.5,2141 " />
<polygon class="Wall" fill="#AFD8F8" id="35" transcription="" points="4011,2989.5 4048,2989.5 4048,3376.5 4011,3376.5 " />
<polygon class="Wall" fill="#AFD8F8" id="36" transcription="" points="4047,3337 4751,3337.5 4751,3376.5 4047,3376 " />
<polygon class="Wall" fill="#AFD8F8" id="37" transcription="" points="4873,3194.5 4892,3194.5 4892,3353.5 4873,3353.5 " />
<polygon class="Wall" fill="#AFD8F8" id="38" transcription="" points="4749,3337.5 4874,3337.5 4874,3356.5 4749,3356.5 " />
<polygon class="Wall" fill="#AFD8F8" id="39" transcription="" points="4717,3374 4750,3375 4750,3871 4717,3870 " />
<polygon class="Wall" fill="#AFD8F8" id="40" transcription="" points="4759.5,3377 4770.5,3376 4781.5,3381 4787.5,3394 4784.5,3406 4776.5,3413 4766.5,3414 4757.5,3413 4749.5,3404 4748.5,3391 4752.5,3381 " />
<polygon class="Wall" fill="#AFD8F8" id="41" transcription="" points="4749,3889.5 4892,3889.5 4892,3906.5 4749,3906.5 " />
<polygon class="Wall" fill="#AFD8F8" id="42" transcription="" points="4874.5,3907.5 4874.5,4080.5 4892.5,4080.5 4891.5,3906.5 " />
<polygon class="Wall" fill="#AFD8F8" id="43" transcription="" points="4045,3869 4749,3869 4749,3908 4047,3907 " />
<polygon class="Wall" fill="#AFD8F8" id="44" transcription="" points="4474,3376 4512,3373 4512,3873 4471,3874 " />
<polygon class="Wall" fill="#AFD8F8" id="45" transcription="" points="4423,3908 4423.5,4262.5 4461.5,4262.5 4461.5,3908.5 " />
<polygon class="Wall" fill="#AFD8F8" id="46" transcription="" points="4461.5,4279.5 4875.5,4280.5 4874.5,4296.5 4460.5,4296.5 " />
<polygon class="Wall" fill="#AFD8F8" id="47" transcription="" points="4874,4267 4892,4267 4892,4423 4874,4423 " />
<polygon class="Wall" fill="#AFD8F8" id="48" transcription="" points="4530,3906.5 4568,3906.5 4568,4061 4530,4061 " />
<polygon class="Wall" fill="#AFD8F8" id="49" transcription="" points="4461,4023 4532,4023 4532,4061 4461,4061 " />
<polygon class="Wall" fill="#AFD8F8" id="50" transcription="" points="3727,4260 4463,4259 4463,4297.5 3727,4297 " />
<polygon class="Wall" fill="#AFD8F8" id="51" transcription="" points="4011,4224 4048,4224 4048,4260 4011,4260 " />
<polygon class="Wall" fill="#AFD8F8" id="52" transcription="" points="3942,4642 4876,4642 4877,4625 3942,4626 " />
<polygon class="Wall" fill="#AFD8F8" id="53" transcription="" points="3932,4766.5 3954,4766.5 3954,4783.5 3932,4783.5 " />
<polygon class="Wall" fill="#AFD8F8" id="54" transcription="" points="3940,4642 3940,4769 3955,4769 3954,4642 " />
<polygon class="Wall" fill="#AFD8F8" id="55" transcription="" points="3952,4684.5 4007,4684.5 4007,4695.5 3952,4695.5 " />
<polygon class="Wall" fill="#AFD8F8" id="56" transcription="" points="4485,4640.5 4502,4641.5 4502,4791.5 4485,4791.5 " />
<polygon class="Wall" fill="#AFD8F8" id="57" transcription="" points="4875.5,4614 4875.5,4784 4892.5,4784 4892.5,4614 " />
<polygon class="Wall" fill="#AFD8F8" id="58" transcription="" points="4365,4297 4365,4628 4382,4628 4381,4296 " />
<polygon class="Wall" fill="#AFD8F8" id="59" transcription="" points="2095,1777.5 2092,1703 1910,1703 1912,1779 " />
<polygon class="Wall" fill="#AFD8F8" id="60" transcription="" points="1875,1707 1914,1707 1913,1831.5 1875,1831.5 " />
<polygon class="Wall" fill="#AFD8F8" id="61" transcription="" points="2385.5,1702.5 2764,1705 2764.5,1775.5 2386,1779 " />
<polygon class="Wall" fill="#AFD8F8" id="62" transcription="" points="2668,1779 2690,1777 2685,1832 2669,1832 " />
<polygon class="Wall" fill="#AFD8F8" id="63" transcription="" points="2973,1706.5 3331,1703 3329,1780.5 2979,1781 " />
<polygon class="Wall" fill="#AFD8F8" id="64" transcription="" points="3294,1779 3331,1779 3331,1831.5 3292,1831.5 " />
<polygon class="Wall" fill="#AFD8F8" id="65" transcription="" points="2486,2068.5 2760,2068.5 2760,2129.5 2750,2129.5 2750,2141.5 2497,2142.5 2496,2129.5 2486,2129.5 " />
<polygon class="Wall" fill="#AFD8F8" id="66" transcription="" points="2668,2139.5 2685,2140.5 2684,2672.5 2668,2672.5 " />
<polygon class="Wall" fill="#AFD8F8" id="67" transcription="" points="1875,2067 1914,2067 1913,5577 1875,5577 " />
<polygon class="Wall" fill="#AFD8F8" id="68" transcription="" points="1912.5,5503 2030.5,5503 2030.5,5577 1911.5,5577 " />
<polygon class="Wall" fill="#AFD8F8" id="69" transcription="" points="2668,5161 2684,5161 2684,5505 2668,5505 " />
<polygon class="Wall" fill="#AFD8F8" id="70" transcription="" points="3290.5,2067 3329.5,2067 3329.5,5741 3291.5,5741 " />
<polygon class="Wall" fill="#AFD8F8" id="71" transcription="" points="2999,5739 3332,5739 3332,5813 2999,5813 " />
<polygon class="Wall" fill="#AFD8F8" id="72" transcription="" points="2500,5505.5 2684,5505.5 2684,5578.5 2500,5578.5 " />
<polygon class="Wall" fill="#AFD8F8" id="73" transcription="" points="3279,4791.5 3293,4791.5 3293,4808.5 3279,4808.5 " />
<polygon class="Wall" fill="#AFD8F8" id="74" transcription="" points="2670,4790.5 3092,4790.5 3092,4806.5 2670,4807.5 " />
<polygon class="Wall" fill="#AFD8F8" id="75" transcription="" points="2669,4806 2685,4807 2685,4972 2669,4972 " />
<polygon class="Wall" fill="#AFD8F8" id="76" transcription="" points="2808,4364 2846,4364 2846,4438 2808,4438 " />
<polygon class="Wall" fill="#AFD8F8" id="77" transcription="" points="2821,4439.5 2835,4439.5 2835,4792.5 2821,4792.5 " />
<polygon class="Wall" fill="#AFD8F8" id="78" transcription="" points="2986,4365.5 3294,4365.5 3294,4438.5 2986,4438.5 " />
<polygon class="Wall" fill="#AFD8F8" id="79" transcription="" points="2606.5,4366.5 2668.5,4366.5 2668.5,4439.5 2605.5,4439.5 " />
<polygon class="Wall" fill="#AFD8F8" id="80" transcription="" points="2267,4424 2605,4424 2605,4438 2267,4438 " />
<polygon class="Wall" fill="#AFD8F8" id="81" transcription="" points="2254.5,4285 2254.5,4438 2269.5,4438 2269.5,4285 " />
<polygon class="Wall" fill="#AFD8F8" id="82" transcription="" points="2150,4247 2609,4246 2609,4285 2150,4285 " />
<polygon class="Wall" fill="#AFD8F8" id="83" transcription="" points="2194,4212.5 2232,4212.5 2232,4247.5 2194,4247.5 " />
<polygon class="Wall" fill="#AFD8F8" id="84" transcription="" points="1910,4248 1935,4248 1935,4286 1910,4286 " />
<polygon class="Wall" fill="#AFD8F8" id="85" transcription="" points="2195,3857 2752,3856 2752,3895 2195,3895 " />
<polygon class="Wall" fill="#AFD8F8" id="86" transcription="" points="2193,3894 2232,3895 2232,3930.5 2194,3930.5 " />
<polygon class="Wall" fill="#AFD8F8" id="87" transcription="" points="2713,3895 2751,3894 2751,4048.5 2714,4048.5 " />
<polygon class="Wall" fill="#AFD8F8" id="88" transcription="" points="2608,3894 2645,3894 2645,4366 2607,4366 " />
<polygon class="Wall" fill="#AFD8F8" id="89" transcription="" points="2645,4011.5 2714,4011.5 2714,4048.5 2645,4048.5 " />
<polygon class="Wall" fill="#AFD8F8" id="90" transcription="" points="3254,3664.5 3293,3664.5 3293,3591.5 3254,3591.5 " />
<polygon class="Wall" fill="#AFD8F8" id="91" transcription="" points="2901,3361 2934,3361 2934,3739 2901,3739 " />
<polygon class="Wall" fill="#AFD8F8" id="92" transcription="" points="2931,3590.5 2970,3590.5 2970,3663.5 2931,3663.5 " />
<polygon class="Wall" fill="#AFD8F8" id="93" transcription="" points="2151,3326.5 2934,3326.5 2934,3363.5 2151,3363.5 " />
<polygon class="Wall" fill="#AFD8F8" id="94" transcription="" points="2686,3029 3092,3029 3093,3045 2686,3045 " />
<polygon class="Wall" fill="#AFD8F8" id="95" transcription="" points="2809,3043.5 2825,3043.5 2825,3326.5 2809,3326.5 " />
<polygon class="Wall" fill="#AFD8F8" id="96" transcription="" points="2918,3046 2918,3328 2932,3328 2932,3046 " />
<polygon class="Wall" fill="#AFD8F8" id="97" transcription="" points="2670,2865.5 2686,2865.5 2686,3046.5 2670,3046.5 " />
<polygon class="Wall" fill="#AFD8F8" id="98" transcription="" points="1915.5,2068.5 2197.5,2068.5 2197.5,2129.5 2187.5,2129.5 2187.5,2141.5 1914.5,2141.5 " />
<polygon class="Wall" fill="#AFD8F8" id="99" transcription="" points="2973,2068.5 3291,2068.5 3291,2142.5 2982,2141.5 2982,2129.5 2973,2129.5 " />
<polygon class="Window" fill="#F6BD0F" id="100" transcription="" points="2193.5,2062.5 2490.5,2062.5 2489.5,2139.5 2194.5,2139.5 " />
<polygon class="Window" fill="#F6BD0F" id="101" transcription="" points="2762,2063.5 2978,2063.5 2975,2140.5 2762,2140.5 " />
<polygon class="Window" fill="#F6BD0F" id="102" transcription="" points="2089.5,1698.5 2388,1701 2386.5,1775.5 2092,1777 " />
<polygon class="Window" fill="#F6BD0F" id="103" transcription="" points="2763.5,1697.5 2981,1699 2978.5,1774.5 2764,1777 " />
<polygon class="Window" fill="#F6BD0F" id="104" transcription="" points="2028,5503 2501,5503 2501,5581 2026,5581 " />
<polygon class="Window" fill="#F6BD0F" id="105" transcription="" points="2610,5578 2688,5578 2687,5741 3001,5741 3001,5819 2610,5820 " />
<polygon class="Window" fill="#F6BD0F" id="106" transcription="" points="4579.5,2072.5 5006.5,2072.5 5007.5,2150.5 4579,2152 " />
<polygon class="Door" fill="#8BBA00" id="107" transcription="" points="3837.5,2280.5 3860.5,2392.5 3966.5,2496.5 4067.5,2513.5 4066.5,2281.5 " />
<polygon class="Door" fill="#8BBA00" id="108" transcription="" points="4034.5,2761.5 4260.5,2761.5 4241.5,2881.5 4155,2968 4032,2986 " />
<polygon class="Door" fill="#8BBA00" id="109" transcription="" points="4698.5,4274 4893.5,4272 4892.5,4081 4783.5,4094 4713.5,4166 " />
<polygon class="Door" fill="#8BBA00" id="110" transcription="" points="4701.5,4615.5 4894.5,4615.5 4893.5,4422.5 4802.5,4430.5 4714.5,4508.5 " />
<polygon class="Door" fill="#8BBA00" id="111" transcription="" points="4310.5,4790 4504.5,4790 4505.5,4986 4389.5,4974 4325.5,4888 " />
<polygon class="Window" fill="#F6BD0F" id="112" transcription="" points="3847,5515 3847,5593 4321,5593 4321,5515 " />
<polygon class="Window" fill="#F6BD0F" id="113" transcription="" points="4422,5586.5 4500,5586.5 4500,5752.5 4814,5752.5 4814,5829.5 4422,5829.5 " />
<polygon class="Door" fill="#8BBA00" id="114" transcription="" points="3734.5,4588.5 3738.5,4780.5 3930.5,4781.5 3922.5,4697.5 3853.5,4599.5 " />
<polygon class="Wall" fill="#AFD8F8" id="115" transcription="" points="3727,4768 3738,4768 3739,4784 3727,4784 " />
<polygon class="Door" fill="#8BBA00" id="116" transcription="" points="2668.5,4967 2864.5,4965 2844.5,5066 2764.5,5127 2671.5,5157 " />
<polygon class="Door" fill="#8BBA00" id="117" transcription="" points="3284,4614 3282,4804 3092,4804 3103,4720 3172,4628 " />
<polygon class="Window" fill="#F6BD0F" id="118" transcription="" points="2665,4361.5 2809,4360.5 2809,4437.5 2665,4438.5 " />
<polygon class="Window" fill="#F6BD0F" id="119" transcription="" points="2843,4360 2986,4361 2986,4438 2843,4438 " />
<polygon class="Window" fill="#F6BD0F" id="120" transcription="" points="2970,3588 3256,3588.5 3256,3665.5 2970,3665.5 " />
<polygon class="Wall" fill="#AFD8F8" id="121" transcription="" points="4010,3869 4010,3942 4047,3942 4046,3869 " />
<polygon class="Window" fill="#F6BD0F" id="122" transcription="" points="2748,3858 2900,3859 2900,3740 2938,3740 2937,3900 2748,3900 " />
<polygon class="Door" fill="#8BBA00" id="123" transcription="" points="3088.5,3030.5 3283.5,3029.5 3282.5,3224.5 3172.5,3210.5 3111.5,3135.5 " />
<polygon class="Wall" fill="#AFD8F8" id="124" transcription="" points="3281.5,3030 3281.5,3046 3292.5,3046 3292.5,3030 " />
<polygon class="Door" fill="#8BBA00" id="125" transcription="" points="2670,2866.5 2868,2866.5 2847,2755.5 2767,2690.5 2670,2675.5 " />
<polygon class="Wall" fill="#AFD8F8" id="126" transcription="" points="1911,3326.5 1937,3326.5 1937,3365.5 1911,3365.5 " />
<polygon class="Door" fill="#8BBA00" id="127" transcription="" points="1925,3127 1928.5,3347.5 2155.5,3346.5 2146.5,3251.5 2045.5,3126.5 " />
<polygon class="Door" fill="#8BBA00" id="128" transcription="" points="1932,4258 2154,4258 2146,4381 2048,4483 1918,4490 " />
<polygon class="Room" fill="#FF8E46" id="129" transcription="" points="1913,2146.5 2668,2146.5 2665,3051.5 2809,3051.5 2809,3329.5 1915,3329.5 " />
<polygon class="Room" fill="#FF8E46" id="130" transcription="" points="2691,2144.5 3300,2146.5 3299,3033.5 2691,3033.5 " />
<polygon class="Room" fill="#FF8E46" id="131" transcription="" points="2932.5,3045 3291.5,3044 3291.5,3590 2933.5,3591 " />
<polygon class="Room" fill="#FF8E46" id="132" transcription="" points="1916,3361.5 2198,3362.5 2195,4245.5 1916,4244.5 " />
<polygon class="Room" fill="#FF8E46" id="133" transcription="" points="1915,4287 2249,4289 2255,4447 2818,4441 2818,4792 2669,4792 2669,5507 1915,5507 " />
<polygon class="Room" fill="#FF8E46" id="134" transcription="" points="2836,4443 3294,4443 3294,4795 2836,4795 " />
<polygon class="Room" fill="#FF8E46" id="135" transcription="" points="2685,4808.5 3291,4808.5 3291,5741.5 2685,5741.5 " />
<polygon class="Room" fill="#FF8E46" id="136" transcription="" points="3728,2296.5 4240,2294.5 4237,2469 4118,2469 4118,2488 4238,2487.5 4237,2716.5 4008,2715 4005,4259.5 3728,4259.5 " />
<polygon class="Separation" fill="#008E8E" id="137" transcription="" points="4895,3193.5 5112,3193.5 5113,3208.5 4893,3208.5 " />
<polygon class="Room" fill="#FF8E46" id="138" transcription="" points="4278,2196 4458,2196 4456,2160 5108,2160 5106,3206 4876,3202 4872,3346 4050,3344 4048,2758 4282,2758 " />
<polygon class="Room" fill="#FF8E46" id="139" transcription="" points="4893,3210.5 5106,3210.5 5106,4987.5 4506,4990.5 4500,4637.5 4873,4637.5 4873,4784.5 4893,4780.5 4893,3884.5 4756,3884.5 4750,3420.5 4800,3420.5 4803,3354.5 4893,3357.5 " />
<polygon class="Room" fill="#FF8E46" id="140" transcription="" points="4568.5,3906.5 4875.5,3906.5 4874.5,4279.5 4462.5,4278.5 4461.5,4059.5 4567.5,4059.5 " />
<polygon class="Room" fill="#FF8E46" id="141" transcription="" points="4383,4299 4875,4299 4875,4631 4383,4631 " />
<polygon class="Door" fill="#8BBA00" id="142" transcription="" points="5098,4991 5100,5185 4986,5173 4918,5100 4908,4993 " />
<polygon class="Room" fill="#FF8E46" id="143" transcription="" points="4499,5008 5105,5008 5105,5752 4499,5752 " />
<polygon class="Room" fill="#FF8E46" id="144" transcription="" points="3726.5,4299.5 4362.5,4300.5 4361.5,4629.5 3936.5,4629.5 3936.5,4770.5 3725.5,4770.5 " />
<polygon class="Room" fill="#FF8E46" id="145" transcription="" points="3722.5,4786 3951.5,4786 3950.5,4696 4007.5,4696 4005.5,4643 4480.5,4642 4480.5,5518 3725.5,5518 " />
<polygon class="Wall" fill="#AFD8F8" id="146" transcription="" points="4417.5,2078 4580.5,2079 4580.5,2141 4571.5,2141 4571,2153 4418.5,2152 " />
<polygon class="Wall" fill="#AFD8F8" id="147" transcription="" points="4278,2149 4455,2150 4455,2188 4278,2187 " />
<polygon class="Wall" fill="#AFD8F8" id="148" transcription="" points="4240,2118 4278,2118 4278,2752 4240,2752 " />
<polygon class="Wall" fill="#AFD8F8" id="149" transcription="" points="4009.5,2774 4048.5,2774 4048.5,2712 4010.5,2712 " />
<polygon class="Wall" fill="#AFD8F8" id="150" transcription="" points="4047.5,2713.5 4239.5,2713.5 4239.5,2750.5 4046.5,2750.5 " />
<polygon class="Wall" fill="#AFD8F8" id="151" transcription="" points="4123,2468.5 4242,2469 4242,2485 4123,2485.5 " />
<polygon class="Wall" fill="#AFD8F8" id="152" transcription="" points="4118,2278 4242,2278 4241,2294 4118,2294 " />
<polygon class="Wall" fill="#AFD8F8" id="153" transcription="" points="4117,2080 4278,2080 4278,2118 4117,2118 " />
<polygon class="Wall" fill="#AFD8F8" id="154" transcription="" points="4788.5,3354 4787.5,3415 4799.5,3415 4799.5,3354 " />
<polygon class="Wall" fill="#AFD8F8" id="155" transcription="" points="4749.5,3414.5 4799.5,3415.5 4799.5,3428.5 4750.5,3427.5 " />
<relation type="outerP" objects="31,107,152,148,147,146,106,34,27,28,30"/>
<relation type="incident" objects="98,100"/>
<relation type="incident" objects="100,65"/>
<relation type="incident" objects="65,101"/>
<relation type="incident" objects="101,99"/>
<relation type="incident" objects="99,70"/>
<relation type="incident" objects="65,66"/>
<relation type="incident" objects="66,125"/>
<relation type="incident" objects="125,97"/>
<relation type="incident" objects="97,94"/>
<relation type="incident" objects="94,123"/>
<relation type="incident" objects="123,70"/>
<relation type="incident" objects="94,95"/>
<relation type="incident" objects="95,93"/>
<relation type="incident" objects="93,96"/>
<relation type="incident" objects="96,94"/>
<relation type="incident" objects="93,127"/>
<relation type="incident" objects="127,126"/>
<relation type="incident" objects="126,67"/>
<relation type="incident" objects="93,91"/>
<relation type="incident" objects="91,92"/>
<relation type="incident" objects="92,120"/>
<relation type="incident" objects="120,90"/>
<relation type="incident" objects="90,70"/>
<relation type="incident" objects="67,98"/>
<relation type="incident" objects="91,122"/>
<relation type="incident" objects="122,85"/>
<relation type="incident" objects="85,86"/>
<relation type="incident" objects="85,87"/>
<relation type="incident" objects="87,89"/>
<relation type="incident" objects="89,88"/>
<relation type="incident" objects="88,85"/>
<relation type="incident" objects="88,82"/>
<relation type="incident" objects="82,83"/>
<relation type="incident" objects="82,128"/>
<relation type="incident" objects="128,84"/>
<relation type="incident" objects="84,67"/>
<relation type="incident" objects="82,81"/>
<relation type="incident" objects="81,80"/>
<relation type="incident" objects="80,79"/>
<relation type="incident" objects="79,88"/>
<relation type="incident" objects="79,118"/>
<relation type="incident" objects="118,76"/>
<relation type="incident" objects="76,119"/>
<relation type="incident" objects="119,78"/>
<relation type="incident" objects="78,70"/>
<relation type="incident" objects="76,77"/>
<relation type="incident" objects="77,74"/>
<relation type="incident" objects="74,117"/>
<relation type="incident" objects="117,73"/>
<relation type="incident" objects="73,70"/>
<relation type="incident" objects="74,75"/>
<relation type="incident" objects="75,116"/>
<relation type="incident" objects="116,69"/>
<relation type="incident" objects="69,72"/>
<relation type="incident" objects="72,104"/>
<relation type="incident" objects="104,68"/>
<relation type="incident" objects="68,67"/>
<relation type="incident" objects="72,105"/>
<relation type="incident" objects="105,71"/>
<relation type="incident" objects="71,70"/>
<relation type="incident" objects="60,59"/>
<relation type="incident" objects="59,102"/>
<relation type="incident" objects="102,61"/>
<relation type="incident" objects="61,62"/>
<relation type="incident" objects="61,103"/>
<relation type="incident" objects="103,63"/>
<relation type="incident" objects="63,64"/>
<relation type="incident" objects="32,33"/>
<relation type="incident" objects="33,31"/>
<relation type="incident" objects="31,30"/>
<relation type="incident" objects="31,107"/>
<relation type="incident" objects="107,152"/>
<relation type="incident" objects="152,148"/>
<relation type="incident" objects="148,151"/>
<relation type="incident" objects="148,150"/>
<relation type="incident" objects="150,149"/>
<relation type="incident" objects="148,153"/>
<relation type="incident" objects="148,147"/>
<relation type="incident" objects="147,146"/>
<relation type="incident" objects="149,108"/>
<relation type="incident" objects="146,106"/>
<relation type="incident" objects="106,34"/>
<relation type="incident" objects="34,27"/>
<relation type="incident" objects="27,137"/>
<relation type="incident" objects="137,37"/>
<relation type="incident" objects="37,38"/>
<relation type="incident" objects="38,154"/>
<relation type="incident" objects="154,155"/>
<relation type="incident" objects="155,39"/>
<relation type="incident" objects="39,36"/>
<relation type="incident" objects="36,38"/>
<relation type="incident" objects="36,35"/>
<relation type="incident" objects="35,108"/>
<relation type="incident" objects="36,44"/>
<relation type="incident" objects="44,43"/>
<relation type="incident" objects="43,39"/>
<relation type="incident" objects="43,121"/>
<relation type="incident" objects="43,45"/>
<relation type="incident" objects="43,48"/>
<relation type="incident" objects="48,49"/>
<relation type="incident" objects="49,45"/>
<relation type="incident" objects="43,41"/>
<relation type="incident" objects="41,42"/>
<relation type="incident" objects="42,109"/>
<relation type="incident" objects="109,47"/>
<relation type="incident" objects="47,46"/>
<relation type="incident" objects="46,50"/>
<relation type="incident" objects="50,51"/>
<relation type="incident" objects="50,30"/>
<relation type="incident" objects="47,110"/>
<relation type="incident" objects="110,57"/>
<relation type="incident" objects="57,52"/>
<relation type="incident" objects="52,58"/>
<relation type="incident" objects="58,50"/>
<relation type="incident" objects="52,22"/>
<relation type="incident" objects="22,55"/>
<relation type="incident" objects="55,54"/>
<relation type="incident" objects="54,52"/>
<relation type="incident" objects="54,53"/>
<relation type="incident" objects="53,114"/>
<relation type="incident" objects="114,115"/>
<relation type="incident" objects="115,30"/>
<relation type="incident" objects="52,56"/>
<relation type="incident" objects="56,111"/>
<relation type="incident" objects="111,24"/>
<relation type="incident" objects="24,25"/>
<relation type="incident" objects="25,142"/>
<relation type="incident" objects="142,27"/>
<relation type="incident" objects="113,26"/>
<relation type="incident" objects="26,27"/>
<relation type="incident" objects="27,28"/>
<relation type="incident" objects="112,23"/>
<relation type="incident" objects="23,30"/>
<relation type="incident" objects="30,28"/>
<relation type="neighbour" objects="129,130"/>
<relation type="neighbour" objects="130,131"/>
<relation type="neighbour" objects="129,132"/>
<relation type="neighbour" objects="132,133"/>
<relation type="neighbour" objects="133,134"/>
<relation type="neighbour" objects="134,135"/>
<relation type="neighbour" objects="135,133"/>
<relation type="neighbour" objects="136,138"/>
<relation type="neighbour" objects="138,139"/>
<relation type="neighbour" objects="139,140"/>
<relation type="neighbour" objects="139,141"/>
<relation type="neighbour" objects="141,140"/>
<relation type="neighbour" objects="139,143"/>
<relation type="neighbour" objects="143,145"/>
<relation type="neighbour" objects="145,139"/>
<relation type="neighbour" objects="145,141"/>
<relation type="neighbour" objects="145,144"/>
<relation type="neighbour" objects="144,141"/>
<relation type="neighbour" objects="144,136"/>
<relation type="access" objects="136,107,136"/>
<relation type="access" objects="136,108,138"/>
<relation type="access" objects="138,137,139"/>
<relation type="access" objects="139,109,140"/>
<relation type="access" objects="139,110,141"/>
<relation type="access" objects="139,142,143"/>
<relation type="access" objects="139,111,145"/>
<relation type="access" objects="145,114,144"/>
<relation type="access" objects="132,127,129"/>
<relation type="access" objects="129,125,130"/>
<relation type="access" objects="130,123,131"/>
<relation type="access" objects="132,128,133"/>
<relation type="access" objects="135,117,134"/>
<relation type="access" objects="133,116,135"/>
<relation type="surround" objects="98,100,65,66,125,97,94,96,93,127,126,67,98,129"/>
<relation type="surround" objects="65,101,99,70,123,94,97,125,66,65,130"/>
<relation type="surround" objects="94,123,70,90,120,92,91,93,95,94,131"/>
<relation type="surround" objects="126,127,93,91,122,85,88,82,128,84,67,126,132"/>
<relation type="surround" objects="76,119,78,70,117,74,77,76,134"/>
<relation type="surround" objects="74,117,70,71,105,72,69,116,75,74,135"/>
<relation type="surround" objects="84,128,82,81,80,79,118,76,77,74,75,116,69,72,104,68,67,84,133"/>
<relation type="surround" objects="31,107,152,148,150,149,108,35,36,44,43,45,50,30,31,136"/>
<relation type="surround" objects="150,148,147,146,106,34,27,137,37,38,36,35,108,149,150,138"/>
<relation type="surround" objects="49,48,43,41,42,109,47,46,50,45,49,140"/>
<relation type="surround" objects="155,154,38,37,137,27,142,25,24,111,56,52,57,110,47,109,42,41,43,39,155,139"/>
<relation type="surround" objects="50,46,47,110,57,52,58,50,141"/>
<relation type="surround" objects="50,58,52,54,53,114,115,30,50,144"/>
<relation type="incident" objects="113,14"/>
<relation type="incident" objects="14,112"/>
<relation type="incident" objects="14,24"/>
<relation type="outerP" objects="98,100,65,101,99,70,71,105,72,104,68,67"/>
<relation type="surround" objects="114,53,54,55,22,52,56,111,24,14,112,23,30,115,114,145"/>
<relation type="surround" objects="25,142,29,27,26,113,14,24,25,143"/>
</svg>