<?xml version="1.0" encoding="UTF-8"?><!DOCTYPE svg PUBLIC "-//W3C//DTD SVG 1.1//EN" "http://www.w3.org/Graphics/SVG/1.1/DTD/svg11.dtd">
<svg xmlns="http://www.w3.org/2000/svg" version="1.1">
<width>5671</width>
<height>7383</height>
<nclasslabel>6</nclasslabel>
<nclassappear>5</nclassappear>
<class>Door</class>
<class>Parking</class>
<class>Room</class>
<class>Separation</class>
<class>Wall</class>
<class>Window</class>
<polygon class="Wall" fill="#AFD8F8" id="14" transcription="" points="4502,5549 4491,5548 4490,5557 4317,5556 4317,5495 4329,5496 4328,5483 4502,5483 " />
<polygon class="Wall" fill="#AFD8F8" id="22" transcription="" points="4007,4654 4007,4609 3995,4609 3995,4654 " />
<polygon class="Wall" fill="#AFD8F8" id="23" transcription="" points="3727,5482 3838,5483 3837,5496 3848,5498 3848,5558 3726,5559.5 " />
<polygon class="Wall" fill="#AFD8F8" id="24" transcription="" points="4485,4949.5 4502,4950.5 4502,5483 4485,5483 " />
<polygon class="Wall" fill="#AFD8F8" id="25" transcription="" points="4908,4961 4502,4961 4502,4979 4909,4979 " />
<polygon class="Wall" fill="#AFD8F8" id="26" transcription="" points="4813.5,5732 4822.5,5732 4823.5,5720 5108.5,5720 5109.5,5794 4812.5,5794 " />
<polygon class="Wall" fill="#AFD8F8" id="27" transcription="" points="5108.5,2117 5146.5,2118 5147.5,6263 5109,6263 " />
<polygon class="Wall" fill="#AFD8F8" id="28" transcription="" points="3728,6303 5147,6302 5147.5,6263 3728.5,6263 " />
<polygon class="Wall" fill="#AFD8F8" id="29" transcription="" points="5097,4960.5 5110,4960.5 5110,4979 5097,4979 " />
<polygon class="Wall" fill="#AFD8F8" id="30" transcription="" points="3691,2259.25 3730,2258 3730,6302 3691,6302.75 " />
<polygon class="Wall" fill="#AFD8F8" id="31" transcription="" points="3836.5,2224.5 3836.5,2262.5 3691.5,2261.5 3691.5,2225.5 " />
<polygon class="Wall" fill="#AFD8F8" id="32" transcription="" points="3691,2059 3730,2059 3730,2085 3691,2085 " />
<polygon class="Wall" fill="#AFD8F8" id="33" transcription="" points="3691,2085 3718,2084 3717,2227.5 3691,2227.5 " />
<polygon class="Wall" fill="#AFD8F8" id="34" transcription="" points="5001.5,2046 5147,2046 5147,2121 5012,2121 5012,2108 5002,2108 " />
<polygon class="Wall" fill="#AFD8F8" id="35" transcription="" points="4012,2956.5 4049,2956.5 4049,3343.5 4010,3345 " />
<polygon class="Wall" fill="#AFD8F8" id="36" transcription="" points="4047,3304.5 4751,3305 4751,3344 4048,3344 " />
<polygon class="Wall" fill="#AFD8F8" id="37" transcription="" points="4875,3164 4892,3164 4892,3323 4875,3323 " />
<polygon class="Wall" fill="#AFD8F8" id="38" transcription="" points="4749,3305.5 4876,3305 4877,3323 4749,3324.5 " />
<polygon class="Wall" fill="#AFD8F8" id="39" transcription="" points="4716,3341 4751,3342 4751,3876 4716,3876 " />
<polygon class="Wall" fill="#AFD8F8" id="40" transcription="" points="4760.5,3346 4771.5,3345 4782.5,3350 4788.5,3363 4785.5,3375 4777.5,3382 4767.5,3383 4758.5,3382 4750.5,3373 4749.5,3360 4753.5,3350 " />
<polygon class="Wall" fill="#AFD8F8" id="41" transcription="" points="4751,3858 4892,3858 4892,3876 4751,3876 " />
<polygon class="Wall" fill="#AFD8F8" id="42" transcription="" points="4875,3876 4875,4047 4892,4047 4892,3876 " />
<polygon class="Wall" fill="#AFD8F8" id="43" transcription="" points="4048,3837 4511,3836 4512,3876 4049,3876 " />
<polygon class="Wall" fill="#AFD8F8" id="44" transcription="" points="4473,3342 4509,3341 4512,3838 4473,3838 " />
<polygon class="Wall" fill="#AFD8F8" id="45" transcription="" points="4421.5,3875.5 4422.5,4228.5 4460.5,4228.5 4460.5,3874.5 " />
<polygon class="Wall" fill="#AFD8F8" id="46" transcription="" points="4459.5,4247.5 4877,4248 4877,4266 4460,4266 " />
<polygon class="Wall" fill="#AFD8F8" id="47" transcription="" points="4874,4238 4892,4238 4892,4392 4875,4394 " />
<polygon class="Wall" fill="#AFD8F8" id="50" transcription="" points="3729,4227.5 4462,4227 4462,4266 3729,4264.5 " />
<polygon class="Wall" fill="#AFD8F8" id="51" transcription="" points="4010,4192 4049,4191 4049,4229 4010,4228 " />
<polygon class="Wall" fill="#AFD8F8" id="52" transcription="" points="3939,4611 4875,4611 4875,4593 3939,4593 " />
<polygon class="Wall" fill="#AFD8F8" id="53" transcription="" points="3931,4735 3954,4735.5 3954,4752.5 3931,4752 " />
<polygon class="Wall" fill="#AFD8F8" id="54" transcription="" points="3939,4611 3939,4735 3954,4736 3954,4611 " />
<polygon class="Wall" fill="#AFD8F8" id="55" transcription="" points="3953,4650.5 4009,4651 4009,4664 3953,4664 " />
<polygon class="Wall" fill="#AFD8F8" id="56" transcription="" points="4484,4609.5 4503,4610 4503,4761 4484,4760.5 " />
<polygon class="Wall" fill="#AFD8F8" id="57" transcription="" points="4874.5,4582 4874.5,4752 4892,4752 4891.5,4582 " />
<polygon class="Wall" fill="#AFD8F8" id="58" transcription="" points="4364,4266 4364,4594 4382,4594 4382,4265 " />
<polygon class="Wall" fill="#AFD8F8" id="59" transcription="" points="2213.5,1746.25 2213.5,1670.75 1997.5,1671.25 1998.5,1745.75 " />
<polygon class="Wall" fill="#AFD8F8" id="60" transcription="" points="1998,1744.5 2037,1745 2037,1800 1998,1799.5 " />
<polygon class="Wall" fill="#AFD8F8" id="61" transcription="" points="2506,1670 2887.5,1671.5 2889,1746 2506,1746 " />
<polygon class="Wall" fill="#AFD8F8" id="62" transcription="" points="2792,1745 2810,1745 2810,1801 2792,1801 " />
<polygon class="Wall" fill="#AFD8F8" id="63" transcription="" points="3097,1669.75 3455,1670.25 3455,1746.25 3097,1746.25 " />
<polygon class="Wall" fill="#AFD8F8" id="64" transcription="" points="3415,1746.5 3454,1746.5 3454,1801.5 3415,1801.5 " />
<polygon class="Wall" fill="#AFD8F8" id="65" transcription="" points="2613,2034 2888,2033 2888,2097 2878,2097 2878,2109 2624,2110.5 2623,2097.5 2613,2097.5 " />
<polygon class="Wall" fill="#AFD8F8" id="66" transcription="" points="2792,2108.5 2810,2109 2810,2641 2792,2641.5 " />
<polygon class="Wall" fill="#AFD8F8" id="67" transcription="" points="1998,2034 2038,2033 2036,5544 1998,5544 " />
<polygon class="Wall" fill="#AFD8F8" id="68" transcription="" points="2036.5,5470 2154.5,5470 2155,5547 2036,5547 " />
<polygon class="Wall" fill="#AFD8F8" id="69" transcription="" points="2792,5129 2811,5129 2810,5473 2792,5473 " />
<polygon class="Wall" fill="#AFD8F8" id="70" transcription="" points="3415.5,2035 3454.5,2035 3454.5,5709 3416.5,5709 " />
<polygon class="Wall" fill="#AFD8F8" id="71" transcription="" points="3121,5709 3454,5709 3454,5783 3121,5783 " />
<polygon class="Wall" fill="#AFD8F8" id="72" transcription="" points="2637,5470 2811,5473.5 2811,5546.5 2624,5546 2624,5485 2634,5484 " />
<polygon class="Wall" fill="#AFD8F8" id="73" transcription="" points="3405,4758.5 3419,4758.5 3419,4775.5 3405,4775.5 " />
<polygon class="Wall" fill="#AFD8F8" id="74" transcription="" points="2793,4758 3216,4757.5 3217,4776 2793,4776 " />
<polygon class="Wall" fill="#AFD8F8" id="75" transcription="" points="2792,4775 2810,4775 2810,4942 2792,4941 " />
<polygon class="Wall" fill="#AFD8F8" id="76" transcription="" points="2932,4333 2970,4333 2970,4407 2932,4407 " />
<polygon class="Wall" fill="#AFD8F8" id="77" transcription="" points="2945,4406.5 2959,4406.5 2959,4759.5 2943,4759 " />
<polygon class="Wall" fill="#AFD8F8" id="78" transcription="" points="3109,4332.5 3417,4332.5 3416,4407 3110,4407 " />
<polygon class="Wall" fill="#AFD8F8" id="79" transcription="" points="2731.25,4333.25 2793,4333 2793.75,4406.75 2730.75,4406.75 " />
<polygon class="Wall" fill="#AFD8F8" id="80" transcription="" points="2393,4392 2731,4392 2731,4407 2393,4407 " />
<polygon class="Wall" fill="#AFD8F8" id="81" transcription="" points="2378.5,4252 2379,4407 2394,4407 2393.5,4252 " />
<polygon class="Wall" fill="#AFD8F8" id="82" transcription="" points="2279,4215 2738,4214 2738,4253 2279,4253 " />
<polygon class="Wall" fill="#AFD8F8" id="83" transcription="" points="2317,4180.5 2355,4180.5 2355,4215.5 2317,4215.5 " />
<polygon class="Wall" fill="#AFD8F8" id="84" transcription="" points="2035,4215 2060,4215 2060,4253 2035,4253 " />
<polygon class="Wall" fill="#AFD8F8" id="85" transcription="" points="2317,3825 2806,3825 2805,3865 2317,3864 " />
<polygon class="Wall" fill="#AFD8F8" id="86" transcription="" points="2317,3864 2356,3863 2356,3899 2317,3899.5 " />
<polygon class="Wall" fill="#AFD8F8" id="88" transcription="" points="2731,3863 2769,3863 2770,4333 2731,4333 " />
<polygon class="Wall" fill="#AFD8F8" id="90" transcription="" points="3377,3632 3417,3632 3416,3557.5 3377,3557.5 " />
<polygon class="Wall" fill="#AFD8F8" id="91" transcription="" points="3024,3332 3058,3332 3058,3710 3024,3710 " />
<polygon class="Wall" fill="#AFD8F8" id="92" transcription="" points="3057,3558 3097,3557.5 3097,3632 3057,3632 " />
<polygon class="Wall" fill="#AFD8F8" id="93" transcription="" points="2273,3293 3058,3293.5 3058,3332 2273,3332 " />
<polygon class="Wall" fill="#AFD8F8" id="94" transcription="" points="2805,2997 3212,2996 3212,3013 2805,3013 " />
<polygon class="Wall" fill="#AFD8F8" id="95" transcription="" points="3040,3012.5 3058,3012 3058,3296 3040,3295.5 " />
<polygon class="Wall" fill="#AFD8F8" id="96" transcription="" points="2934,3013 2934,3293 2949,3293 2949,3013 " />
<polygon class="Wall" fill="#AFD8F8" id="97" transcription="" points="2796,2832.5 2812,2832.5 2812,3013.5 2796,3013.5 " />
<polygon class="Wall" fill="#AFD8F8" id="98" transcription="" points="2038.5,2033.5 2321,2033 2322,2096 2311,2097 2310,2109 2037,2110 " />
<polygon class="Wall" fill="#AFD8F8" id="99" transcription="" points="3097,2034.5 3416,2034 3416,2109 3107,2109 3106,2095.5 3097,2095.5 " />
<polygon class="Window" fill="#F6BD0F" id="100" transcription="" points="2316.5,2034.5 2613.5,2034.5 2612.5,2111.5 2317.5,2111.5 " />
<polygon class="Window" fill="#F6BD0F" id="101" transcription="" points="2886,2031.5 3102,2031.5 3099,2108.5 2886,2108.5 " />
<polygon class="Window" fill="#F6BD0F" id="102" transcription="" points="2213.5,1667.5 2510.5,1667.5 2510.5,1744.5 2212.5,1744.5 " />
<polygon class="Window" fill="#F6BD0F" id="103" transcription="" points="2885.5,1669.5 3100.5,1669.5 3100.5,1746.5 2884.5,1746.5 " />
<polygon class="Window" fill="#F6BD0F" id="104" transcription="" points="2156,5473 2629,5473 2629,5551 2154,5551 " />
<polygon class="Window" fill="#F6BD0F" id="105" transcription="" points="2732,5544 2810,5544 2809,5707 3123,5707 3123,5785 2732,5786 " />
<polygon class="Window" fill="#F6BD0F" id="106" transcription="" points="4581.5,2044.5 5008.5,2044.5 5009.5,2122.5 4580.5,2121.5 " />
<polygon class="Door" fill="#8BBA00" id="107" transcription="" points="3840.5,2245.5 3863.5,2357.5 3969.5,2461.5 4070.5,2478.5 4069.5,2246.5 " />
<polygon class="Door" fill="#8BBA00" id="108" transcription="" points="4023.5,2730.5 4249.5,2730.5 4230.5,2850.5 4136.5,2930.5 4022.5,2947.5 " />
<polygon class="Door" fill="#8BBA00" id="109" transcription="" points="4698.5,4246 4893.5,4244 4892.5,4053 4783.5,4066 4713.5,4138 " />
<polygon class="Door" fill="#8BBA00" id="110" transcription="" points="4695.5,4585.5 4888.5,4585.5 4887.5,4392.5 4796.5,4400.5 4708.5,4478.5 " />
<polygon class="Door" fill="#8BBA00" id="111" transcription="" points="4309.5,4754 4503.5,4754 4504.5,4950 4388.5,4938 4324.5,4852 " />
<polygon class="Window" fill="#F6BD0F" id="112" transcription="" points="3845,5485 3845,5563 4319,5563 4319,5485 " />
<polygon class="Window" fill="#F6BD0F" id="113" transcription="" points="4423,5557.5 4501,5557.5 4501,5723.5 4815,5723.5 4815,5800.5 4423,5800.5 " />
<polygon class="Door" fill="#8BBA00" id="114" transcription="" points="3736.5,4555.5 3740.5,4747.5 3932.5,4748.5 3924.5,4664.5 3855.5,4566.5 " />
<polygon class="Wall" fill="#AFD8F8" id="115" transcription="" points="3729,4735 3740,4735 3741,4752 3729,4752 " />
<polygon class="Door" fill="#8BBA00" id="116" transcription="" points="2792.5,4938 2988.5,4936 2968.5,5037 2888.5,5098 2795.5,5128 " />
<polygon class="Door" fill="#8BBA00" id="117" transcription="" points="3413,4584 3411,4774 3221,4774 3232,4690 3301,4598 " />
<polygon class="Window" fill="#F6BD0F" id="118" transcription="" points="2789,4330.5 2933,4329.5 2933,4406.5 2789,4407.5 " />
<polygon class="Window" fill="#F6BD0F" id="119" transcription="" points="2967,4331 3110,4332 3110,4409 2967,4409 " />
<polygon class="Window" fill="#F6BD0F" id="120" transcription="" points="3097,3556.5 3381,3556.5 3381,3633.5 3095,3633.5 " />
<polygon class="Wall" fill="#AFD8F8" id="121" transcription="" points="4010,3837 4009,3912 4049,3912 4049,3837 " />
<polygon class="Window" fill="#F6BD0F" id="122" transcription="" points="2802,3824 3024,3825 3024,3708 3064,3709 3063,3869 2802,3868 " />
<polygon class="Door" fill="#8BBA00" id="123" transcription="" points="3208.5,3009.5 3403.5,3008.5 3402.5,3203.5 3292.5,3189.5 3231.5,3114.5 " />
<polygon class="Wall" fill="#AFD8F8" id="124" transcription="" points="3405.5,2996 3405,3013 3416,3013 3416.5,2996 " />
<polygon class="Door" fill="#8BBA00" id="125" transcription="" points="2796,2836.5 2994,2836.5 2973,2725.5 2893,2660.5 2796,2645.5 " />
<polygon class="Wall" fill="#AFD8F8" id="126" transcription="" points="2037,3293.5 2063,3293.5 2063,3332.5 2037,3332.5 " />
<polygon class="Door" fill="#8BBA00" id="127" transcription="" points="2051.5,3089.5 2051.5,3313.5 2278.5,3312.5 2269.5,3217.5 2168.5,3092.5 " />
<polygon class="Door" fill="#8BBA00" id="128" transcription="" points="2058,4224 2280,4224 2272,4347 2174,4449 2044,4456 " />
<polygon class="Room" fill="#FF8E46" id="129" transcription="" points="2033,2113.5 2788,2113.5 2785,3018.5 2929,3018.5 2929,3296.5 2035,3296.5 " />
<polygon class="Room" fill="#FF8E46" id="130" transcription="" points="2808,2108.5 3417,2110.5 3416,2997.5 2808,2997.5 " />
<polygon class="Room" fill="#FF8E46" id="131" transcription="" points="3059.5,3012 3418.5,3011 3418.5,3557 3060.5,3558 " />
<polygon class="Room" fill="#FF8E46" id="132" transcription="" points="2041,3333.5 2323,3334.5 2320,4217.5 2041,4216.5 " />
<polygon class="Room" fill="#FF8E46" id="133" transcription="" points="2037,4251 2371,4253 2377,4411 2940,4405 2940,4756 2791,4756 2791,5471 2037,5471 " />
<polygon class="Room" fill="#FF8E46" id="134" transcription="" points="2961,4407 3419,4407 3419,4759 2961,4759 " />
<polygon class="Room" fill="#FF8E46" id="135" transcription="" points="2815,4775.5 3421,4775.5 3421,5708.5 2815,5708.5 " />
<polygon class="Room" fill="#FF8E46" id="136" transcription="" points="3731,2267.5 4243,2265.5 4240,2440 4121,2440 4121,2459 4241,2458.5 4240,2687.5 4011,2686 4008,4230.5 3731,4230.5 " />
<polygon class="Separation" fill="#008E8E" id="137" transcription="" points="4890,3168.5 5107,3168.5 5108,3183.5 4888,3183.5 " />
<polygon class="Room" fill="#FF8E46" id="138" transcription="" points="4278,2122 5102,2122 5100,3168 4870,3164 4866,3308 4044,3306 4042,2720 4276,2720 " />
<polygon class="Room" fill="#FF8E46" id="139" transcription="" points="4893,3180.5 5106,3180.5 5106,4957.5 4506,4960.5 4500,4607.5 4873,4607.5 4873,4754.5 4893,4750.5 4893,3854.5 4756,3854.5 4750,3390.5 4800,3390.5 4803,3324.5 4893,3327.5 " />
<polygon class="Room" fill="#FF8E46" id="140" transcription="" points="4459,3879 4513,3876 4512,3343 4714,3344 4711,3877 4872.5,3879.5 4871.5,4252.5 4459.5,4251.5 " />
<polygon class="Room" fill="#FF8E46" id="141" transcription="" points="4377,4262 4869,4262 4869,4594 4377,4594 " />
<polygon class="Door" fill="#8BBA00" id="142" transcription="" points="5095,4961 5097,5155 4983,5143 4915,5070 4905,4963 " />
<polygon class="Room" fill="#FF8E46" id="143" transcription="" points="4505,4976 5111,4976 5111,5720 4505,5720 " />
<polygon class="Room" fill="#FF8E46" id="144" transcription="" points="3729.5,4261.5 4365.5,4262.5 4364.5,4591.5 3939.5,4591.5 3939.5,4732.5 3728.5,4732.5 " />
<polygon class="Room" fill="#FF8E46" id="145" transcription="" points="3730.5,4754 3959.5,4754 3958.5,4664 4015.5,4664 4013.5,4611 4488.5,4610 4488.5,5486 3733.5,5486 " />
<polygon class="Wall" fill="#AFD8F8" id="146" transcription="" points="4276,2045 4580,2045 4580.5,2108 4571.5,2108 4571,2121 4275,2122 " />
<polygon class="Wall" fill="#AFD8F8" id="148" transcription="" points="4239,2085 4277,2085 4278,2720 4239,2720 " />
<polygon class="Wall" fill="#AFD8F8" id="149" transcription="" points="4010,2745 4050,2745 4049,2681 4009.5,2681 " />
<polygon class="Wall" fill="#AFD8F8" id="150" transcription="" points="4047.5,2681.5 4241,2680 4240,2720 4048,2720 " />
<polygon class="Wall" fill="#AFD8F8" id="151" transcription="" points="4122,2436.5 4241,2437 4241,2453 4122,2453.5 " />
<polygon class="Wall" fill="#AFD8F8" id="152" transcription="" points="4116,2245 4240,2245 4240,2262 4117,2263 " />
<polygon class="Wall" fill="#AFD8F8" id="153" transcription="" points="4116,2046 4277,2046 4277,2085 4116,2085 " />
<polygon class="Wall" fill="#AFD8F8" id="154" transcription="" points="4787.5,3323 4786.5,3384 4800,3384 4800,3322 " />
<polygon class="Wall" fill="#AFD8F8" id="155" transcription="" points="4748.5,3382.5 4799,3383 4800,3396 4749.5,3395.5 " />
<relation type="outerP" objects="98,100,65,101,99,70,71,105,72,104,68,67"/>
<relation type="incident" objects="98,100"/>
<relation type="incident" objects="100,65"/>
<relation type="incident" objects="65,101"/>
<relation type="incident" objects="101,99"/>
<relation type="incident" objects="99,70"/>
<relation type="incident" objects="65,66"/>
<relation type="incident" objects="66,125"/>
<relation type="incident" objects="125,97"/>
<relation type="incident" objects="97,94"/>
<relation type="incident" objects="94,123"/>
<relation type="incident" objects="123,70"/>
<relation type="incident" objects="94,95"/>
<relation type="incident" objects="95,93"/>
<relation type="incident" objects="93,96"/>
<relation type="incident" objects="96,94"/>
<relation type="incident" objects="93,127"/>
<relation type="incident" objects="127,126"/>
<relation type="incident" objects="126,67"/>
<relation type="incident" objects="93,91"/>
<relation type="incident" objects="91,92"/>
<relation type="incident" objects="92,120"/>
<relation type="incident" objects="120,90"/>
<relation type="incident" objects="90,70"/>
<relation type="incident" objects="67,98"/>
<relation type="incident" objects="91,122"/>
<relation type="incident" objects="122,85"/>
<relation type="incident" objects="85,86"/>
<relation type="incident" objects="88,85"/>
<relation type="incident" objects="88,82"/>
<relation type="incident" objects="82,83"/>
<relation type="incident" objects="82,128"/>
<relation type="incident" objects="128,84"/>
<relation type="incident" objects="84,67"/>
<relation type="incident" objects="82,81"/>
<relation type="incident" objects="81,80"/>
<relation type="incident" objects="80,79"/>
<relation type="incident" objects="79,88"/>
<relation type="incident" objects="79,118"/>
<relation type="incident" objects="118,76"/>
<relation type="incident" objects="76,119"/>
<relation type="incident" objects="119,78"/>
<relation type="incident" objects="78,70"/>
<relation type="incident" objects="76,77"/>
<relation type="incident" objects="77,74"/>
<relation type="incident" objects="74,117"/>
<relation type="incident" objects="117,73"/>
<relation type="incident" objects="73,70"/>
<relation type="incident" objects="74,75"/>
<relation type="incident" objects="75,116"/>
<relation type="incident" objects="116,69"/>
<relation type="incident" objects="69,72"/>
<relation type="incident" objects="72,104"/>
<relation type="incident" objects="104,68"/>
<relation type="incident" objects="68,67"/>
<relation type="incident" objects="72,105"/>
<relation type="incident" objects="105,71"/>
<relation type="incident" objects="71,70"/>
<relation type="incident" objects="60,59"/>
<relation type="incident" objects="59,102"/>
<relation type="incident" objects="102,61"/>
<relation type="incident" objects="61,62"/>
<relation type="incident" objects="61,103"/>
<relation type="incident" objects="103,63"/>
<relation type="incident" objects="63,64"/>
<relation type="incident" objects="32,33"/>
<relation type="incident" objects="33,31"/>
<relation type="incident" objects="31,30"/>
<relation type="incident" objects="31,107"/>
<relation type="incident" objects="107,152"/>
<relation type="incident" objects="152,148"/>
<relation type="incident" objects="148,151"/>
<relation type="incident" objects="148,150"/>
<relation type="incident" objects="150,149"/>
<relation type="incident" objects="148,153"/>
<relation type="incident" objects="149,108"/>
<relation type="incident" objects="146,106"/>
<relation type="incident" objects="106,34"/>
<relation type="incident" objects="34,27"/>
<relation type="incident" objects="27,137"/>
<relation type="incident" objects="137,37"/>
<relation type="incident" objects="37,38"/>
<relation type="incident" objects="38,154"/>
<relation type="incident" objects="154,155"/>
<relation type="incident" objects="155,39"/>
<relation type="incident" objects="39,36"/>
<relation type="incident" objects="36,38"/>
<relation type="incident" objects="36,35"/>
<relation type="incident" objects="35,108"/>
<relation type="incident" objects="36,44"/>
<relation type="incident" objects="44,43"/>
<relation type="incident" objects="43,121"/>
<relation type="incident" objects="43,45"/>
<relation type="incident" objects="41,42"/>
<relation type="incident" objects="42,109"/>
<relation type="incident" objects="109,47"/>
<relation type="incident" objects="47,46"/>
<relation type="incident" objects="46,50"/>
<relation type="incident" objects="50,51"/>
<relation type="incident" objects="50,30"/>
<relation type="incident" objects="47,110"/>
<relation type="incident" objects="110,57"/>
<relation type="incident" objects="57,52"/>
<relation type="incident" objects="52,58"/>
<relation type="incident" objects="58,50"/>
<relation type="incident" objects="52,22"/>
<relation type="incident" objects="22,55"/>
<relation type="incident" objects="55,54"/>
<relation type="incident" objects="54,52"/>
<relation type="incident" objects="54,53"/>
<relation type="incident" objects="53,114"/>
<relation type="incident" objects="114,115"/>
<relation type="incident" objects="115,30"/>
<relation type="incident" objects="52,56"/>
<relation type="incident" objects="56,111"/>
<relation type="incident" objects="111,24"/>
<relation type="incident" objects="24,25"/>
<relation type="incident" objects="25,142"/>
<relation type="incident" objects="142,27"/>
<relation type="incident" objects="24,14"/>
<relation type="incident" objects="14,113"/>
<relation type="incident" objects="113,26"/>
<relation type="incident" objects="26,27"/>
<relation type="incident" objects="27,28"/>
<relation type="incident" objects="14,112"/>
<relation type="incident" objects="112,23"/>
<relation type="incident" objects="23,30"/>
<relation type="incident" objects="30,28"/>
<relation type="neighbour" objects="129,130"/>
<relation type="neighbour" objects="130,131"/>
<relation type="neighbour" objects="129,132"/>
<relation type="neighbour" objects="132,133"/>
<relation type="neighbour" objects="133,134"/>
<relation type="neighbour" objects="134,135"/>
<relation type="neighbour" objects="135,133"/>
<relation type="neighbour" objects="136,138"/>
<relation type="neighbour" objects="138,139"/>
<relation type="neighbour" objects="139,140"/>
<relation type="neighbour" objects="139,141"/>
<relation type="neighbour" objects="141,140"/>
<relation type="neighbour" objects="139,143"/>
<relation type="neighbour" objects="143,145"/>
<relation type="neighbour" objects="145,139"/>
<relation type="neighbour" objects="145,141"/>
<relation type="neighbour" objects="145,144"/>
<relation type="neighbour" objects="144,141"/>
<relation type="neighbour" objects="144,136"/>
<relation type="access" objects="136,107,136"/>
<relation type="access" objects="136,108,138"/>
<relation type="access" objects="138,137,139"/>
<relation type="access" objects="139,109,140"/>
<relation type="access" objects="139,110,141"/>
<relation type="access" objects="139,142,143"/>
<relation type="access" objects="139,111,145"/>
<relation type="access" objects="145,114,144"/>
<relation type="access" objects="132,127,129"/>
<relation type="access" objects="129,125,130"/>
<relation type="access" objects="130,123,131"/>
<relation type="access" objects="132,128,133"/>
<relation type="access" objects="135,117,134"/>
<relation type="access" objects="133,116,135"/>
<relation type="surround" objects="98,100,65,66,125,97,94,96,93,127,126,67,98,129"/>
<relation type="surround" objects="65,101,99,70,123,94,97,125,66,65,130"/>
<relation type="surround" objects="94,123,70,90,120,92,91,93,95,94,131"/>
<relation type="surround" objects="126,127,93,91,122,85,88,82,128,84,67,126,132"/>
<relation type="surround" objects="76,119,78,70,117,74,77,76,134"/>
<relation type="surround" objects="74,117,70,71,105,72,69,116,75,74,135"/>
<relation type="surround" objects="84,128,82,81,80,79,118,76,77,74,75,116,69,72,104,68,67,84,133"/>
<relation type="surround" objects="31,107,152,148,150,149,108,35,36,44,43,45,50,30,31,136"/>
<relation type="surround" objects="25,142,29,27,26,113,14,24,25,143"/>
<relation type="surround" objects="50,46,47,110,57,52,58,50,141"/>
<relation type="surround" objects="50,58,52,54,53,114,115,30,50,144"/>
<relation type="surround" objects="114,53,54,55,22,52,56,111,24,14,112,23,30,115,114,145"/>
<relation type="incident" objects="146,148"/>
<relation type="incident" objects="146,153"/>
<relation type="incident" objects="45,50"/>
<relation type="surround" objects="38,37,137,27,29,142,25,24,111,56,52,57,110,47,109,42,41,39,155,154,38,139"/>
<relation type="surround" objects="43,44,36,39,41,42,109,47,46,45,43,140"/>
<relation type="outerP" objects="31,107,152,148,146,106,34,27,28,30"/>
</svg>