<?xml version="1.0" encoding="UTF-8"?><!DOCTYPE svg PUBLIC "-//W3C//DTD SVG 1.1//EN" "http://www.w3.org/Graphics/SVG/1.1/DTD/svg11.dtd">
<svg xmlns="http://www.w3.org/2000/svg" version="1.1">
<width>5671</width>
<height>7383</height>
<nclasslabel>6</nclasslabel>
<nclassappear>6</nclassappear>
<class>Door</class>
<class>Parking</class>
<class>Room</class>
<class>Separation</class>
<class>Wall</class>
<class>Window</class>
<polygon class="Wall" fill="#AFD8F8" id="65" transcription="" points="4060,2155.8125 4124,2156.4375 4124,2217.4375 4114,2219.4375 4112,2230.4375 4072,2230.4375 4072,2219.1875 4060,2218.1875 " />
<polygon class="Wall" fill="#AFD8F8" id="67" transcription="" points="3612,2156 3651,2156 3651,5669 3612,5670 " />
<polygon class="Wall" fill="#AFD8F8" id="68" transcription="" points="3651,5592 3772.5,5593 3772.5,5667 3650,5669 " />
<polygon class="Wall" fill="#AFD8F8" id="69" transcription="" points="4407,5251 4423,5251 4423,5595 4407,5595 " />
<polygon class="Wall" fill="#AFD8F8" id="70" transcription="" points="5029.5,2157 5068.5,2157 5068.5,5831 5030.5,5831 " />
<polygon class="Wall" fill="#AFD8F8" id="71" transcription="" points="4734,5830 5067,5830 5067,5904 4734,5904 " />
<polygon class="Wall" fill="#AFD8F8" id="72" transcription="" points="4240,5594.5 4424,5594.5 4424,5667.5 4240,5667.5 " />
<polygon class="Wall" fill="#AFD8F8" id="73" transcription="" points="5019,4882.5 5033,4882.5 5033,4899.5 5019,4899.5 " />
<polygon class="Wall" fill="#AFD8F8" id="74" transcription="" points="4410,4880.5 4832,4880.5 4832,4898 4410,4897.5 " />
<polygon class="Wall" fill="#AFD8F8" id="75" transcription="" points="4407,4898 4424,4898 4423,5064 4407,5064 " />
<polygon class="Wall" fill="#AFD8F8" id="76" transcription="" points="4547,4454 4585,4454 4585,4528 4547,4528 " />
<polygon class="Wall" fill="#AFD8F8" id="77" transcription="" points="4558,4526.75 4573,4526 4572,4879.75 4558,4881.25 " />
<polygon class="Wall" fill="#AFD8F8" id="78" transcription="" points="4725,4455.5 5033,4455.5 5033,4528.5 4725,4528.5 " />
<polygon class="Wall" fill="#AFD8F8" id="79" transcription="" points="4345.5,4454.5 4407.5,4454.5 4407.5,4527.5 4344.5,4527.5 " />
<polygon class="Wall" fill="#AFD8F8" id="80" transcription="" points="4009,4514 4347,4514 4347,4528 4008,4529 " />
<polygon class="Wall" fill="#AFD8F8" id="81" transcription="" points="3992.5,4374 3993,4529 4009,4529 4009,4374 " />
<polygon class="Wall" fill="#AFD8F8" id="82" transcription="" points="3887,4337 4346,4336 4347,4377 3888,4377 " />
<polygon class="Wall" fill="#AFD8F8" id="83" transcription="" points="3932,4301.5 3971,4302 3972,4337 3932,4336.5 " />
<polygon class="Wall" fill="#AFD8F8" id="84" transcription="" points="3674,4307 3699,4307 3699,4345 3674,4345 " />
<polygon class="Wall" fill="#AFD8F8" id="85" transcription="" points="3931,3947 4408,3947 4409,3960 4418,3959 4419,3986 3932,3987 " />
<polygon class="Wall" fill="#AFD8F8" id="86" transcription="" points="3932,3986.5 3970,3986.5 3970,4021.5 3932,4021.5 " />
<polygon class="Wall" fill="#AFD8F8" id="88" transcription="" points="4344.5,3986 4382.5,3986 4383.5,4457 4345.5,4458 " />
<polygon class="Wall" fill="#AFD8F8" id="90" transcription="" points="4993,3755.5 5032,3755.5 5032,3682.5 4993,3682.5 " />
<polygon class="Wall" fill="#AFD8F8" id="91" transcription="" points="4638,3452 4671,3452 4671,3830 4638,3830 " />
<polygon class="Wall" fill="#AFD8F8" id="92" transcription="" points="4670,3683.5 4709,3683.5 4709,3756.5 4670,3756.5 " />
<polygon class="Wall" fill="#AFD8F8" id="94" transcription="" points="4408.5,3118.5 4830.5,3118.5 4830.5,3135.5 4409.5,3135.5 " />
<polygon class="Wall" fill="#AFD8F8" id="95" transcription="" points="4654.5,3133.25 4671.5,3133.75 4671.5,3416.75 4655.5,3416.75 " />
<polygon class="Wall" fill="#AFD8F8" id="96" transcription="" points="4547,3134 4547,3416 4565,3418 4564,3134 " />
<polygon class="Wall" fill="#AFD8F8" id="98" transcription="" points="3648,2155 3851,2155 3853,2218 3838.5,2216.5 3840,2232 3649,2232 " />
<polygon class="Wall" fill="#AFD8F8" id="99" transcription="" points="4416,2154.5 5029,2156 5029,2232 4426,2232 4425,2215.5 4416,2215.5 " />
<polygon class="Window" fill="#F6BD0F" id="100" transcription="" points="3849,2154 4065.5,2152.5 4064.5,2229.5 3849,2230 " />
<polygon class="Window" fill="#F6BD0F" id="101" transcription="" points="4119,2154.5 4415,2154 4417,2233 4119,2231.5 " />
<polygon class="Window" fill="#F6BD0F" id="104" transcription="" points="3768,5593 4241,5593 4241,5671 3766,5671 " />
<polygon class="Window" fill="#F6BD0F" id="105" transcription="" points="4343,5665 4421,5665 4420,5828 4734,5828 4734,5906 4343,5907 " />
<polygon class="Door" fill="#8BBA00" id="116" transcription="" points="4404.5,5060 4600.5,5058 4580.5,5159 4500.5,5220 4407.5,5250 " />
<polygon class="Door" fill="#8BBA00" id="117" transcription="" points="5027,4706 5025,4896 4835,4896 4846,4812 4915,4720 " />
<polygon class="Window" fill="#F6BD0F" id="118" transcription="" points="4405,4451.5 4549,4450.5 4549,4527.5 4405,4528.5 " />
<polygon class="Window" fill="#F6BD0F" id="119" transcription="" points="4583,4451 4726,4452 4726,4529 4583,4529 " />
<polygon class="Window" fill="#F6BD0F" id="120" transcription="" points="4710,3682.5 4994,3682.5 4994,3759.5 4708,3759.5 " />
<polygon class="Window" fill="#F6BD0F" id="122" transcription="" points="4416,3948 4640,3948 4640,3829 4678,3829 4677,3989 4417,3989 " />
<polygon class="Door" fill="#8BBA00" id="123" transcription="" points="4827.5,3118.5 5022.5,3117.5 5021.5,3312.5 4911.5,3298.5 4850.5,3223.5 " />
<polygon class="Wall" fill="#AFD8F8" id="124" transcription="" points="5019.5,3120 5019.5,3136 5030.5,3136 5030.5,3120 " />
<polygon class="Wall" fill="#AFD8F8" id="126" transcription="" points="3649,3664.5 3675,3664.5 3675,3684 3675,3703.5 3649,3703.5 " />
<polygon class="Door" fill="#8BBA00" id="127" transcription="" points="3666.5,3451.5 3666.5,3675.5 3893.5,3674.5 3884.5,3579.5 3783.5,3454.5 " />
<polygon class="Door" fill="#8BBA00" id="128" transcription="" points="3698,4328 3920,4328 3912,4451 3814,4553 3684,4560 " />
<polygon class="Room" fill="#FF8E46" id="133" transcription="" points="3658,4382 3992,4384 3998,4542 4561,4536 4561,4887 4412,4887 4412,5602 3658,5602 " />
<polygon class="Room" fill="#FF8E46" id="134" transcription="" points="4572,4530 5030,4530 5030,4882 4572,4882 " />
<polygon class="Room" fill="#FF8E46" id="135" transcription="" points="4426,4901.5 5032,4901.5 5032,5834.5 4426,5834.5 " />
<polygon class="Wall" fill="#AFD8F8" id="136" transcription="" points="4771,2452 4810,2451 4809,2909 4769,2909 " />
<polygon class="Wall" fill="#AFD8F8" id="137" transcription="" points="4806.5,2909 4831.5,2909 4830.5,2891 4807.5,2891 " />
<polygon class="Wall" fill="#AFD8F8" id="138" transcription="" points="5020.5,2895 5031.5,2893 5031.5,2907 5019.5,2907 " />
<polygon class="Wall" fill="#AFD8F8" id="139" transcription="" points="4030,3416 4672,3415.5 4671,3455 4031,3455 " />
<polygon class="Wall" fill="#AFD8F8" id="140" transcription="" points="3992,3417 4031,3417 4031,3703 3992,3703 " />
<polygon class="Wall" fill="#AFD8F8" id="141" transcription="" points="3888,3664 3994,3664 3995,3704 3888,3703 " />
<polygon class="Room" fill="#FF8E46" id="143" transcription="" points="4673,3136 5028,3136 5028,3682 4673,3682 " />
<polygon class="Room" fill="#FF8E46" id="144" transcription="" points="3653,3702.5 3932,3702.5 3932,4333.5 3653,4333.5 " />
<polygon class="Room" fill="#FF8E46" id="145" transcription="" points="3657,3662.5 3997,3663.5 3998,3416.5 4551,3414.5 4551,3134.5 3655,3137.5 " />
<polygon class="Separation" fill="#008E8E" id="146" transcription="" points="3652,3121 4406,3121 4406,3133 3652,3133 " />
<polygon class="Room" fill="#FF8E46" id="147" transcription="" points="3655,2228.5 5027,2228.5 5031,3111.5 3655,3111.5 " />
<polygon class="Door" fill="#8BBA00" id="148" transcription="" points="5024,2715 5021,2909 4834,2907 4836,2829 4914,2727 " />
<polygon class="Wall" fill="#AFD8F8" id="149" transcription="" points="3135.5,2186.75 3174,2187 3173,3637 3136,3637 " />
<polygon class="Wall" fill="#AFD8F8" id="150" transcription="" points="2586.5,2113 3175,2114 3175,2187 2587.5,2187 " />
<polygon class="Wall" fill="#AFD8F8" id="151" transcription="" points="3096,3648.75 3104,3648.75 3104,3637.75 3175,3636.25 3175,3712.25 3096,3713.25 " />
<polygon class="Wall" fill="#AFD8F8" id="152" transcription="" points="2708.5,3637 2708.5,3778 2719.5,3778 2720,3790 2779,3789 2777.5,3637 " />
<polygon class="Wall" fill="#AFD8F8" id="153" transcription="" points="2777,3636 2949,3637 2949,3646 2958,3646 2959,3711 2777,3712 " />
<polygon class="Wall" fill="#AFD8F8" id="154" transcription="" points="2750.5,3386 2777.5,3386 2778,3638 2752,3639 " />
<polygon class="Wall" fill="#AFD8F8" id="155" transcription="" points="2760,3075.5 2778,3075.5 2776,3388.5 2760,3388.5 " />
<polygon class="Wall" fill="#AFD8F8" id="156" transcription="" points="2666,3075.5 2762,3076 2762,3092.5 2668,3092.5 " />
<polygon class="Wall" fill="#AFD8F8" id="157" transcription="" points="2653,3076.5 2653,3389.5 2668,3389 2667,3077.5 " />
<polygon class="Wall" fill="#AFD8F8" id="158" transcription="" points="2668,3372.25 2761,3372.25 2760,3387.25 2668,3387.75 " />
<polygon class="Wall" fill="#AFD8F8" id="159" transcription="" points="2377.5,3077 2658,3077 2657,3104 2378.5,3103 " />
<polygon class="Wall" fill="#AFD8F8" id="160" transcription="" points="2535,3065.5 2553,3065.5 2553,3076.5 2535,3076.5 " />
<polygon class="Wall" fill="#AFD8F8" id="161" transcription="" points="2353.5,3074.75 2381.5,3075.75 2381.5,3505.75 2354.5,3505.25 " />
<polygon class="Wall" fill="#AFD8F8" id="163" transcription="" points="2332.5,2789.5 2648.5,2789.5 2652.5,2801.5 2664.5,2802.5 2664.5,2868.5 2342.5,2867.5 2345.5,2853.5 2335.5,2852.5 " />
<polygon class="Wall" fill="#AFD8F8" id="164" transcription="" points="2535,2861.5 2553,2861.5 2553,2878.5 2535,2878.5 " />
<polygon class="Wall" fill="#AFD8F8" id="165" transcription="" points="1719,2788 1863,2789 1863,2853 1854,2853 1854,2866 1719,2866 " />
<polygon class="Wall" fill="#AFD8F8" id="166" transcription="" points="2587,2176.5 2661,2176.5 2660,2401.5 2647,2400.5 2647,2411.5 2587,2411.5 " />
<polygon class="Wall" fill="#AFD8F8" id="167" transcription="" points="1720,2866.5 1758,2867 1758,5624 1720,5625.5 " />
<polygon class="Wall" fill="#AFD8F8" id="168" transcription="" points="1756,5586.5 2452,5587 2452,5625 1756,5625.5 " />
<polygon class="Wall" fill="#AFD8F8" id="169" transcription="" points="2450.5,5145.5 2462.5,5144.5 2462.5,5134.5 2488.5,5134.5 2488.5,5624.5 2451.5,5624.5 " />
<polygon class="Wall" fill="#AFD8F8" id="170" transcription="" points="1753,3904.5 2453,3903 2452,3944 1753,3943.5 " />
<polygon class="Wall" fill="#AFD8F8" id="171" transcription="" points="2451.5,3869 2514.5,3869 2514.5,3880 2525.5,3881 2525.5,3944 2450.5,3943 " />
<polygon class="Wall" fill="#AFD8F8" id="172" transcription="" points="2450.5,3943 2489,3942 2486.5,4464 2462.5,4464 2460.5,4454 2449.5,4453 " />
<polygon class="Wall" fill="#AFD8F8" id="173" transcription="" points="2113,4435.5 2454,4435.5 2454,4450.5 2113,4450.5 " />
<polygon class="Wall" fill="#AFD8F8" id="174" transcription="" points="2099,4319 2113,4319 2113,4451 2099,4451 " />
<polygon class="Wall" fill="#AFD8F8" id="175" transcription="" points="2112,4317 2452,4317 2452,4331 2112,4331 " />
<polygon class="Wall" fill="#AFD8F8" id="178" transcription="" points="2353,3905 2354,3691 2380,3692 2379,3905 " />
<polygon class="Window" fill="#F6BD0F" id="179" transcription="" points="2582.5,2410.75 2662.5,2410.75 2661.5,2792.25 2583.5,2791.25 " />
<polygon class="Window" fill="#F6BD0F" id="180" transcription="" points="1861,2783.5 2335,2783.5 2335,2866.5 1861,2866.5 " />
<polygon class="Window" fill="#F6BD0F" id="181" transcription="" points="2955,3637.5 3099,3637.5 3099,3716.5 2955,3716.5 " />
<polygon class="Window" fill="#F6BD0F" id="182" transcription="" points="2708.5,3786.5 2782.5,3786.5 2782.5,3949.5 2521,3946 2522,3870 2709.5,3869.5 " />
<polygon class="Parking" fill="#D64646" id="183" transcription="" points="2451.5,4458.5 2490.5,4457.5 2490.5,5138.5 2452.5,5137.5 " />
<polygon class="Door" fill="#8BBA00" id="184" transcription="" points="2356,3694.5 2561,3696.5 2546,3573.5 2434,3516.5 2356,3505.5 " />
<polygon class="Door" fill="#8BBA00" id="185" transcription="" points="2550,2875.5 2552,3064.5 2438,3058.5 2381,3001.5 2352,2870.5 " />
<polygon class="Room" fill="#FF8E46" id="186" transcription="" points="1767,2869.5 2542,2871.5 2543,3079.5 2360,3079.5 2363,3906.5 1767,3908.5 " />
<polygon class="Room" fill="#FF8E46" id="187" transcription="" points="2389.5,3106 2657.5,3106 2661.5,3393 2758.5,3395 2756.5,3641 2713.5,3642 2716.5,3875 2458.5,3875 2456.5,3909 2386.5,3906 " />
<polygon class="Room" fill="#FF8E46" id="188" transcription="" points="2664.5,2192 3128.5,2189 3144.5,3636 2784.5,3636 2774.5,3072 2554.5,3069 2551.5,2862 2671.5,2866 " />
<polygon class="Wall" fill="#AFD8F8" id="189" transcription="" points="2874,2409.5 2916,2409.5 2916,2868.5 2874,2868.5 " />
<relation type="incident" objects="98,100"/>
<relation type="incident" objects="101,99"/>
<relation type="incident" objects="99,70"/>
<relation type="incident" objects="94,123"/>
<relation type="incident" objects="94,95"/>
<relation type="incident" objects="96,94"/>
<relation type="incident" objects="127,126"/>
<relation type="incident" objects="126,67"/>
<relation type="incident" objects="91,92"/>
<relation type="incident" objects="92,120"/>
<relation type="incident" objects="120,90"/>
<relation type="incident" objects="90,70"/>
<relation type="incident" objects="67,98"/>
<relation type="incident" objects="91,122"/>
<relation type="incident" objects="122,85"/>
<relation type="incident" objects="85,86"/>
<relation type="incident" objects="88,85"/>
<relation type="incident" objects="88,82"/>
<relation type="incident" objects="82,83"/>
<relation type="incident" objects="82,128"/>
<relation type="incident" objects="128,84"/>
<relation type="incident" objects="84,67"/>
<relation type="incident" objects="82,81"/>
<relation type="incident" objects="81,80"/>
<relation type="incident" objects="80,79"/>
<relation type="incident" objects="79,88"/>
<relation type="incident" objects="79,118"/>
<relation type="incident" objects="118,76"/>
<relation type="incident" objects="76,119"/>
<relation type="incident" objects="119,78"/>
<relation type="incident" objects="78,70"/>
<relation type="incident" objects="76,77"/>
<relation type="incident" objects="77,74"/>
<relation type="incident" objects="74,117"/>
<relation type="incident" objects="117,73"/>
<relation type="incident" objects="73,70"/>
<relation type="incident" objects="74,75"/>
<relation type="incident" objects="75,116"/>
<relation type="incident" objects="116,69"/>
<relation type="incident" objects="69,72"/>
<relation type="incident" objects="72,104"/>
<relation type="incident" objects="104,68"/>
<relation type="incident" objects="68,67"/>
<relation type="incident" objects="72,105"/>
<relation type="incident" objects="105,71"/>
<relation type="incident" objects="71,70"/>
<relation type="neighbour" objects="133,134"/>
<relation type="neighbour" objects="134,135"/>
<relation type="neighbour" objects="135,133"/>
<relation type="access" objects="135,117,134"/>
<relation type="access" objects="133,116,135"/>
<relation type="surround" objects="76,119,78,70,117,74,77,76,134"/>
<relation type="surround" objects="74,117,70,71,105,72,69,116,75,74,135"/>
<relation type="surround" objects="84,128,82,81,80,79,118,76,77,74,75,116,69,72,104,68,67,84,133"/>
<relation type="incident" objects="96,139"/>
<relation type="incident" objects="139,140"/>
<relation type="incident" objects="140,141"/>
<relation type="incident" objects="141,127"/>
<relation type="incident" objects="91,139"/>
<relation type="incident" objects="139,95"/>
<relation type="incident" objects="70,138"/>
<relation type="incident" objects="124,123"/>
<relation type="incident" objects="70,138"/>
<relation type="incident" objects="138,148"/>
<relation type="incident" objects="148,137"/>
<relation type="incident" objects="137,136"/>
<relation type="incident" objects="94,146"/>
<relation type="incident" objects="146,67"/>
<relation type="neighbour" objects="133,144"/>
<relation type="neighbour" objects="144,145"/>
<relation type="neighbour" objects="145,147"/>
<relation type="neighbour" objects="147,143"/>
<relation type="access" objects="144,128,133"/>
<relation type="access" objects="144,127,145"/>
<relation type="access" objects="147,123,143"/>
<relation type="access" objects="145,146,147"/>
<relation type="surround" objects="126,127,141,140,139,91,122,85,88,82,128,67,126,144"/>
<relation type="surround" objects="146,94,96,139,140,141,127,126,67,146,145"/>
<relation type="surround" objects="94,123,124,70,90,120,92,91,139,95,94,143"/>
<relation type="incident" objects="150,149"/>
<relation type="incident" objects="149,151"/>
<relation type="incident" objects="151,181"/>
<relation type="incident" objects="181,153"/>
<relation type="incident" objects="153,152"/>
<relation type="incident" objects="152,154"/>
<relation type="incident" objects="154,155"/>
<relation type="incident" objects="154,158"/>
<relation type="incident" objects="158,155"/>
<relation type="incident" objects="155,156"/>
<relation type="incident" objects="156,157"/>
<relation type="incident" objects="157,158"/>
<relation type="incident" objects="157,159"/>
<relation type="incident" objects="159,160"/>
<relation type="incident" objects="160,185"/>
<relation type="incident" objects="185,164"/>
<relation type="incident" objects="164,163"/>
<relation type="incident" objects="163,180"/>
<relation type="incident" objects="179,166"/>
<relation type="incident" objects="166,150"/>
<relation type="incident" objects="180,165"/>
<relation type="incident" objects="165,167"/>
<relation type="incident" objects="159,161"/>
<relation type="incident" objects="161,184"/>
<relation type="incident" objects="184,178"/>
<relation type="incident" objects="152,182"/>
<relation type="incident" objects="182,171"/>
<relation type="incident" objects="172,171"/>
<relation type="incident" objects="171,170"/>
<relation type="incident" objects="172,170"/>
<relation type="incident" objects="170,178"/>
<relation type="incident" objects="170,167"/>
<relation type="incident" objects="172,183"/>
<relation type="incident" objects="172,175"/>
<relation type="incident" objects="175,174"/>
<relation type="incident" objects="174,173"/>
<relation type="incident" objects="173,172"/>
<relation type="incident" objects="168,169"/>
<relation type="incident" objects="168,167"/>
<relation type="incident" objects="169,183"/>
<relation type="neighbour" objects="186,187"/>
<relation type="neighbour" objects="187,188"/>
<relation type="neighbour" objects="188,186"/>
<relation type="access" objects="188,185,186"/>
<relation type="access" objects="186,184,187"/>
<relation type="surround" objects="165,180,163,185,159,161,184,178,170,167,165,186"/>
<relation type="surround" objects="159,157,158,154,152,182,171,170,178,184,161,159,187"/>
<relation type="outerP" objects="150,149,151,181,153,152,182,171,172,183,169,168,167,165,180,163,179,166"/>
<relation type="surround" objects="150,149,151,181,153,154,155,156,157,159,160,185,164,163,179,166,150,188"/>
<relation type="incident" objects="100,65"/>
<relation type="incident" objects="101,65"/>
<relation type="outerP" objects="98,100,65,101,99,70,71,105,72,104,68,67"/>
<relation type="surround" objects="98,100,65,101,99,70,124,123,94,146,67,98,147"/>
</svg>