<?xml version="1.0" encoding="UTF-8"?><!DOCTYPE svg PUBLIC "-//W3C//DTD SVG 1.1//EN" "http://www.w3.org/Graphics/SVG/1.1/DTD/svg11.dtd">
<svg xmlns="http://www.w3.org/2000/svg" version="1.1">
<width>5671</width>
<height>7383</height>
<nclasslabel>6</nclasslabel>
<nclassappear>6</nclassappear>
<class>Door</class>
<class>Parking</class>
<class>Room</class>
<class>Separation</class>
<class>Wall</class>
<class>Window</class>
<polygon class="Wall" fill="#AFD8F8" id="65" transcription="" points="4103,1116 4167,1116.625 4167,1177.625 4157,1179.625 4155,1190.625 4115,1190.625 4115,1179.375 4103,1178.375 " />
<polygon class="Wall" fill="#AFD8F8" id="67" transcription="" points="3654,1116 3693,1116 3693,4629 3654,4630 " />
<polygon class="Wall" fill="#AFD8F8" id="68" transcription="" points="3693,4552 3814.5,4553 3814.5,4627 3692,4629 " />
<polygon class="Wall" fill="#AFD8F8" id="69" transcription="" points="4449,4211 4465,4211 4465,4555 4449,4555 " />
<polygon class="Wall" fill="#AFD8F8" id="70" transcription="" points="5071.5,1117 5110.5,1117 5110.5,4791 5072.5,4791 " />
<polygon class="Wall" fill="#AFD8F8" id="71" transcription="" points="4776,4790 5109,4790 5109,4864 4776,4864 " />
<polygon class="Wall" fill="#AFD8F8" id="72" transcription="" points="4282,4554.5 4466,4554.5 4466,4627.5 4282,4627.5 " />
<polygon class="Wall" fill="#AFD8F8" id="73" transcription="" points="5061,3842.5 5075,3842.5 5075,3859.5 5061,3859.5 " />
<polygon class="Wall" fill="#AFD8F8" id="74" transcription="" points="4452,3840.5 4874,3840.5 4874,3858 4452,3857.5 " />
<polygon class="Wall" fill="#AFD8F8" id="75" transcription="" points="4449,3858 4466,3858 4465,4024 4449,4024 " />
<polygon class="Wall" fill="#AFD8F8" id="76" transcription="" points="4589,3414 4627,3414 4627,3488 4589,3488 " />
<polygon class="Wall" fill="#AFD8F8" id="77" transcription="" points="4600,3486.75 4615,3486 4614,3839.75 4600,3841.25 " />
<polygon class="Wall" fill="#AFD8F8" id="78" transcription="" points="4767,3415.5 5075,3415.5 5075,3488.5 4767,3488.5 " />
<polygon class="Wall" fill="#AFD8F8" id="79" transcription="" points="4387.5,3414.5 4449.5,3414.5 4449.5,3487.5 4386.5,3487.5 " />
<polygon class="Wall" fill="#AFD8F8" id="80" transcription="" points="4051,3474 4389,3474 4389,3488 4050,3489 " />
<polygon class="Wall" fill="#AFD8F8" id="81" transcription="" points="4034.5,3334 4035,3489 4051,3489 4051,3334 " />
<polygon class="Wall" fill="#AFD8F8" id="82" transcription="" points="3929,3297 4388,3296 4389,3337 3930,3337 " />
<polygon class="Wall" fill="#AFD8F8" id="83" transcription="" points="3974,3261.5 4013,3262 4014,3297 3974,3296.5 " />
<polygon class="Wall" fill="#AFD8F8" id="84" transcription="" points="3716,3267 3741,3267 3741,3305 3716,3305 " />
<polygon class="Wall" fill="#AFD8F8" id="85" transcription="" points="3973,2907 4450,2907 4451,2920 4460,2919 4461,2946 3974,2947 " />
<polygon class="Wall" fill="#AFD8F8" id="86" transcription="" points="3974,2946.5 4012,2946.5 4012,2981.5 3974,2981.5 " />
<polygon class="Wall" fill="#AFD8F8" id="88" transcription="" points="4386.5,2946 4424.5,2946 4425.5,3417 4387.5,3418 " />
<polygon class="Wall" fill="#AFD8F8" id="90" transcription="" points="5035,2715.5 5074,2715.5 5074,2642.5 5035,2642.5 " />
<polygon class="Wall" fill="#AFD8F8" id="91" transcription="" points="4680,2412 4713,2412 4713,2790 4680,2790 " />
<polygon class="Wall" fill="#AFD8F8" id="92" transcription="" points="4712,2643.5 4751,2643.5 4751,2716.5 4712,2716.5 " />
<polygon class="Wall" fill="#AFD8F8" id="94" transcription="" points="4450.5,2078.5 4872.5,2078.5 4872.5,2095.5 4451.5,2095.5 " />
<polygon class="Wall" fill="#AFD8F8" id="95" transcription="" points="4696.5,2093.25 4713.5,2093.75 4713.5,2376.75 4697.5,2376.75 " />
<polygon class="Wall" fill="#AFD8F8" id="96" transcription="" points="4589,2094 4589,2376 4607,2378 4606,2094 " />
<polygon class="Wall" fill="#AFD8F8" id="98" transcription="" points="3690,1115 3893,1115 3895,1178 3880.5,1176.5 3882,1192 3691,1192 " />
<polygon class="Wall" fill="#AFD8F8" id="99" transcription="" points="4458,1114.5 5071,1116 5071,1192 4468,1192 4467,1175.5 4458,1175.5 " />
<polygon class="Window" fill="#F6BD0F" id="100" transcription="" points="3891,1114 4107.5,1112.5 4106.5,1189.5 3891,1190 " />
<polygon class="Window" fill="#F6BD0F" id="101" transcription="" points="4161,1114.5 4457,1114 4459,1193 4161,1191.5 " />
<polygon class="Window" fill="#F6BD0F" id="104" transcription="" points="3810,4553 4283,4553 4283,4631 3808,4631 " />
<polygon class="Window" fill="#F6BD0F" id="105" transcription="" points="4385,4625 4463,4625 4462,4788 4776,4788 4776,4866 4385,4867 " />
<polygon class="Door" fill="#8BBA00" id="116" transcription="" points="4446.5,4020 4642.5,4018 4622.5,4119 4542.5,4180 4449.5,4210 " />
<polygon class="Door" fill="#8BBA00" id="117" transcription="" points="5069,3666 5067,3856 4877,3856 4888,3772 4957,3680 " />
<polygon class="Window" fill="#F6BD0F" id="118" transcription="" points="4447,3411.5 4591,3410.5 4591,3487.5 4447,3488.5 " />
<polygon class="Window" fill="#F6BD0F" id="119" transcription="" points="4625,3411 4768,3412 4768,3489 4625,3489 " />
<polygon class="Window" fill="#F6BD0F" id="120" transcription="" points="4752,2642.5 5036,2642.5 5036,2719.5 4750,2719.5 " />
<polygon class="Window" fill="#F6BD0F" id="122" transcription="" points="4458,2908 4682,2908 4682,2789 4720,2789 4719,2949 4459,2949 " />
<polygon class="Door" fill="#8BBA00" id="123" transcription="" points="4869.5,2078.5 5064.5,2077.5 5063.5,2272.5 4953.5,2258.5 4892.5,2183.5 " />
<polygon class="Wall" fill="#AFD8F8" id="124" transcription="" points="5061.5,2080 5061.5,2096 5072.5,2096 5072.5,2080 " />
<polygon class="Wall" fill="#AFD8F8" id="126" transcription="" points="3691,2624.5 3717,2624.5 3717,2644 3717,2663.5 3691,2663.5 " />
<polygon class="Door" fill="#8BBA00" id="127" transcription="" points="3708.5,2411.5 3708.5,2635.5 3935.5,2634.5 3926.5,2539.5 3825.5,2414.5 " />
<polygon class="Door" fill="#8BBA00" id="128" transcription="" points="3740,3288 3962,3288 3954,3411 3856,3513 3726,3520 " />
<polygon class="Room" fill="#FF8E46" id="133" transcription="" points="3700,3342 4034,3344 4040,3502 4603,3496 4603,3847 4454,3847 4454,4562 3700,4562 " />
<polygon class="Room" fill="#FF8E46" id="134" transcription="" points="4614,3490 5072,3490 5072,3842 4614,3842 " />
<polygon class="Room" fill="#FF8E46" id="135" transcription="" points="4468,3861.5 5074,3861.5 5074,4794.5 4468,4794.5 " />
<polygon class="Wall" fill="#AFD8F8" id="136" transcription="" points="4813,1412 4852,1411 4851,1869 4811,1869 " />
<polygon class="Wall" fill="#AFD8F8" id="137" transcription="" points="4848.5,1869 4873.5,1869 4872.5,1851 4849.5,1851 " />
<polygon class="Wall" fill="#AFD8F8" id="138" transcription="" points="5062.5,1855 5073.5,1853 5073.5,1867 5061.5,1867 " />
<polygon class="Wall" fill="#AFD8F8" id="139" transcription="" points="4072,2376 4714,2375.5 4713,2415 4073,2415 " />
<polygon class="Wall" fill="#AFD8F8" id="140" transcription="" points="4034,2377 4073,2377 4073,2663 4034,2663 " />
<polygon class="Wall" fill="#AFD8F8" id="141" transcription="" points="3930,2624 4036,2624 4037,2664 3930,2663 " />
<polygon class="Room" fill="#FF8E46" id="143" transcription="" points="4715,2096 5070,2096 5070,2642 4715,2642 " />
<polygon class="Room" fill="#FF8E46" id="144" transcription="" points="3695,2662.5 3974,2662.5 3974,3293.5 3695,3293.5 " />
<polygon class="Room" fill="#FF8E46" id="145" transcription="" points="3699,2618.5 4039,2619.5 4040,2372.5 4593,2370.5 4593,2090.5 3697,2093.5 " />
<polygon class="Separation" fill="#008E8E" id="146" transcription="" points="3694,2081 4448,2081 4448,2093 3694,2093 " />
<polygon class="Room" fill="#FF8E46" id="147" transcription="" points="3697,1188.5 5069,1188.5 5073,2071.5 3697,2071.5 " />
<polygon class="Door" fill="#8BBA00" id="148" transcription="" points="5066,1675 5063,1869 4876,1867 4878,1789 4956,1687 " />
<polygon class="Wall" fill="#AFD8F8" id="149" transcription="" points="3193.5,1179.75 3232,1180 3230.5,2628.25 3192.5,2628.25 " />
<polygon class="Wall" fill="#AFD8F8" id="150" transcription="" points="2644.5,1106 3233,1107 3233,1180 2645.5,1180 " />
<polygon class="Wall" fill="#AFD8F8" id="151" transcription="" points="3153,2640.5 3161,2640.5 3161,2629.5 3232,2628 3232,2704 3153,2705 " />
<polygon class="Wall" fill="#AFD8F8" id="152" transcription="" points="2764.5,2629 2764.5,2770 2775.5,2770 2776,2782 2835,2781 2833.5,2629 " />
<polygon class="Wall" fill="#AFD8F8" id="153" transcription="" points="2833,2629 3005,2630 3005,2639 3014,2639 3015,2704 2833,2705 " />
<polygon class="Wall" fill="#AFD8F8" id="154" transcription="" points="2807.5,2380 2834.5,2380 2834.5,2630 2808.5,2630 " />
<polygon class="Wall" fill="#AFD8F8" id="155" transcription="" points="2817,2067.5 2835,2067.5 2833,2380.5 2817,2380.5 " />
<polygon class="Wall" fill="#AFD8F8" id="156" transcription="" points="2721,2067.5 2817,2068 2817,2084.5 2723,2084.5 " />
<polygon class="Wall" fill="#AFD8F8" id="157" transcription="" points="2711,2067.5 2711,2380.5 2726,2380 2725,2068.5 " />
<polygon class="Wall" fill="#AFD8F8" id="158" transcription="" points="2725,2365.5 2818,2365.5 2817,2380.5 2725,2381 " />
<polygon class="Wall" fill="#AFD8F8" id="159" transcription="" points="2433.5,2067 2714,2067 2713,2094 2434.5,2093 " />
<polygon class="Wall" fill="#AFD8F8" id="160" transcription="" points="2591,2059.5 2609,2059.5 2609,2070.5 2591,2070.5 " />
<polygon class="Wall" fill="#AFD8F8" id="161" transcription="" points="2411,2067 2439,2068 2439,2498 2412,2497.5 " />
<polygon class="Wall" fill="#AFD8F8" id="163" transcription="" points="2388.5,1780.5 2704.5,1780.5 2708.5,1792.5 2720.5,1793.5 2720.5,1859.5 2398.5,1858.5 2401.5,1844.5 2391.5,1843.5 " />
<polygon class="Wall" fill="#AFD8F8" id="164" transcription="" points="2591,1855.5 2609,1855.5 2609,1872.5 2591,1872.5 " />
<polygon class="Wall" fill="#AFD8F8" id="165" transcription="" points="1774,1780 1918,1781 1918,1845 1909,1845 1909,1858 1774,1858 " />
<polygon class="Wall" fill="#AFD8F8" id="166" transcription="" points="2645,1169.5 2719,1169.5 2718,1394.5 2705,1393.5 2705,1404.5 2645,1404.5 " />
<polygon class="Wall" fill="#AFD8F8" id="167" transcription="" points="1775,1856.5 1813,1857 1813,4614 1775,4615.5 " />
<polygon class="Wall" fill="#AFD8F8" id="168" transcription="" points="1812,4578.5 2508,4579 2508,4617 1812,4617.5 " />
<polygon class="Wall" fill="#AFD8F8" id="169" transcription="" points="2508,4138 2520,4137 2520,4127 2546,4127 2546,4617 2509,4617 " />
<polygon class="Wall" fill="#AFD8F8" id="170" transcription="" points="1809,2896.5 2509,2895 2508,2936 1809,2935.5 " />
<polygon class="Wall" fill="#AFD8F8" id="171" transcription="" points="2509,2862 2572,2862 2572,2873 2583,2874 2583,2937 2508,2936 " />
<polygon class="Wall" fill="#AFD8F8" id="172" transcription="" points="2508.5,2934 2547,2933 2544.5,3455 2520.5,3455 2518.5,3445 2507.5,3444 " />
<polygon class="Wall" fill="#AFD8F8" id="173" transcription="" points="2168,3428.5 2509,3428.5 2509,3443.5 2168,3443.5 " />
<polygon class="Wall" fill="#AFD8F8" id="174" transcription="" points="2156,3313 2170,3313 2170,3445 2156,3445 " />
<polygon class="Wall" fill="#AFD8F8" id="175" transcription="" points="2169,3310 2509,3310 2509,3324 2169,3324 " />
<polygon class="Wall" fill="#AFD8F8" id="178" transcription="" points="2411,2899 2412,2685 2438,2686 2437,2899 " />
<polygon class="Window" fill="#F6BD0F" id="179" transcription="" points="2640,1404.5 2720,1404.5 2719,1786 2641,1785 " />
<polygon class="Window" fill="#F6BD0F" id="180" transcription="" points="1919,1777.5 2393,1777.5 2393,1860.5 1919,1860.5 " />
<polygon class="Window" fill="#F6BD0F" id="181" transcription="" points="3012,2628.5 3156,2628.5 3156,2707.5 3012,2707.5 " />
<polygon class="Window" fill="#F6BD0F" id="182" transcription="" points="2765.5,2778.5 2839.5,2778.5 2839.5,2941.5 2578,2938 2579,2862 2766.5,2861.5 " />
<polygon class="Parking" fill="#D64646" id="183" transcription="" points="2509,3454 2548,3453 2548,4134 2510,4133 " />
<polygon class="Door" fill="#8BBA00" id="184" transcription="" points="2410,2684.5 2615,2686.5 2600,2563.5 2488,2506.5 2410,2495.5 " />
<polygon class="Door" fill="#8BBA00" id="185" transcription="" points="2610,1870.5 2612,2059.5 2498,2053.5 2441,1996.5 2412,1865.5 " />
<polygon class="Room" fill="#FF8E46" id="186" transcription="" points="1819,1859.5 2594,1861.5 2595,2069.5 2412,2069.5 2415,2896.5 1819,2898.5 " />
<polygon class="Room" fill="#FF8E46" id="187" transcription="" points="2441.5,2096 2709.5,2096 2713.5,2383 2810.5,2385 2808.5,2631 2765.5,2632 2768.5,2865 2510.5,2865 2508.5,2899 2438.5,2896 " />
<polygon class="Room" fill="#FF8E46" id="188" transcription="" points="2726.5,1187 3190.5,1184 3206.5,2631 2846.5,2631 2836.5,2067 2616.5,2064 2613.5,1857 2733.5,1861 " />
<polygon class="Wall" fill="#AFD8F8" id="189" transcription="" points="2931,1400 2973,1400 2973,1859 2931,1859 " />
<relation type="outerP" objects="98,100,65,101,99,70,71,105,72,104,68,67"/>
<relation type="incident" objects="98,100"/>
<relation type="incident" objects="100,65"/>
<relation type="incident" objects="65,101"/>
<relation type="incident" objects="101,99"/>
<relation type="incident" objects="99,70"/>
<relation type="incident" objects="94,123"/>
<relation type="incident" objects="94,95"/>
<relation type="incident" objects="96,94"/>
<relation type="incident" objects="127,126"/>
<relation type="incident" objects="126,67"/>
<relation type="incident" objects="91,92"/>
<relation type="incident" objects="92,120"/>
<relation type="incident" objects="120,90"/>
<relation type="incident" objects="90,70"/>
<relation type="incident" objects="67,98"/>
<relation type="incident" objects="91,122"/>
<relation type="incident" objects="122,85"/>
<relation type="incident" objects="85,86"/>
<relation type="incident" objects="88,85"/>
<relation type="incident" objects="88,82"/>
<relation type="incident" objects="82,83"/>
<relation type="incident" objects="82,128"/>
<relation type="incident" objects="128,84"/>
<relation type="incident" objects="84,67"/>
<relation type="incident" objects="82,81"/>
<relation type="incident" objects="81,80"/>
<relation type="incident" objects="80,79"/>
<relation type="incident" objects="79,88"/>
<relation type="incident" objects="79,118"/>
<relation type="incident" objects="118,76"/>
<relation type="incident" objects="76,119"/>
<relation type="incident" objects="119,78"/>
<relation type="incident" objects="78,70"/>
<relation type="incident" objects="76,77"/>
<relation type="incident" objects="77,74"/>
<relation type="incident" objects="74,117"/>
<relation type="incident" objects="117,73"/>
<relation type="incident" objects="73,70"/>
<relation type="incident" objects="74,75"/>
<relation type="incident" objects="75,116"/>
<relation type="incident" objects="116,69"/>
<relation type="incident" objects="69,72"/>
<relation type="incident" objects="72,104"/>
<relation type="incident" objects="104,68"/>
<relation type="incident" objects="68,67"/>
<relation type="incident" objects="72,105"/>
<relation type="incident" objects="105,71"/>
<relation type="incident" objects="71,70"/>
<relation type="neighbour" objects="133,134"/>
<relation type="neighbour" objects="134,135"/>
<relation type="neighbour" objects="135,133"/>
<relation type="access" objects="135,117,134"/>
<relation type="access" objects="133,116,135"/>
<relation type="surround" objects="76,119,78,70,117,74,77,76,134"/>
<relation type="surround" objects="74,117,70,71,105,72,69,116,75,74,135"/>
<relation type="surround" objects="84,128,82,81,80,79,118,76,77,74,75,116,69,72,104,68,67,84,133"/>
<relation type="incident" objects="96,139"/>
<relation type="incident" objects="139,140"/>
<relation type="incident" objects="140,141"/>
<relation type="incident" objects="141,127"/>
<relation type="incident" objects="91,139"/>
<relation type="incident" objects="139,95"/>
<relation type="incident" objects="70,138"/>
<relation type="incident" objects="124,123"/>
<relation type="incident" objects="70,138"/>
<relation type="incident" objects="138,148"/>
<relation type="incident" objects="148,137"/>
<relation type="incident" objects="137,136"/>
<relation type="incident" objects="94,146"/>
<relation type="incident" objects="146,67"/>
<relation type="neighbour" objects="133,144"/>
<relation type="neighbour" objects="144,145"/>
<relation type="neighbour" objects="145,147"/>
<relation type="neighbour" objects="147,143"/>
<relation type="access" objects="144,128,133"/>
<relation type="access" objects="144,127,145"/>
<relation type="access" objects="147,123,143"/>
<relation type="access" objects="145,146,147"/>
<relation type="surround" objects="126,127,141,140,139,91,122,85,88,82,128,67,126,144"/>
<relation type="surround" objects="146,94,96,139,140,141,127,126,67,146,145"/>
<relation type="surround" objects="94,123,124,70,90,120,92,91,139,95,94,143"/>
<relation type="surround" objects="98,100,65,101,99,70,124,123,94,146,67,98,147"/>
<relation type="incident" objects="150,149"/>
<relation type="incident" objects="149,151"/>
<relation type="incident" objects="151,181"/>
<relation type="incident" objects="181,153"/>
<relation type="incident" objects="153,152"/>
<relation type="incident" objects="152,154"/>
<relation type="incident" objects="154,155"/>
<relation type="incident" objects="154,158"/>
<relation type="incident" objects="158,155"/>
<relation type="incident" objects="155,156"/>
<relation type="incident" objects="156,157"/>
<relation type="incident" objects="157,158"/>
<relation type="incident" objects="157,159"/>
<relation type="incident" objects="159,160"/>
<relation type="incident" objects="160,185"/>
<relation type="incident" objects="185,164"/>
<relation type="incident" objects="164,163"/>
<relation type="incident" objects="163,180"/>
<relation type="incident" objects="179,166"/>
<relation type="incident" objects="166,150"/>
<relation type="incident" objects="180,165"/>
<relation type="incident" objects="165,167"/>
<relation type="incident" objects="159,161"/>
<relation type="incident" objects="161,184"/>
<relation type="incident" objects="184,178"/>
<relation type="incident" objects="152,182"/>
<relation type="incident" objects="182,171"/>
<relation type="incident" objects="172,171"/>
<relation type="incident" objects="171,170"/>
<relation type="incident" objects="172,170"/>
<relation type="incident" objects="170,178"/>
<relation type="incident" objects="170,167"/>
<relation type="incident" objects="172,183"/>
<relation type="incident" objects="172,175"/>
<relation type="incident" objects="175,174"/>
<relation type="incident" objects="174,173"/>
<relation type="incident" objects="173,172"/>
<relation type="incident" objects="168,169"/>
<relation type="incident" objects="168,167"/>
<relation type="incident" objects="169,183"/>
<relation type="neighbour" objects="186,187"/>
<relation type="neighbour" objects="187,188"/>
<relation type="neighbour" objects="188,186"/>
<relation type="access" objects="188,185,186"/>
<relation type="access" objects="186,184,187"/>
<relation type="surround" objects="165,180,163,185,159,161,184,178,170,167,165,186"/>
<relation type="surround" objects="159,157,158,154,152,182,171,170,178,184,161,159,187"/>
<relation type="outerP" objects="150,149,151,181,153,152,182,171,172,183,169,168,167,165,180,163,179,166"/>
<relation type="surround" objects="150,149,151,181,153,154,155,156,157,159,160,185,164,163,179,166,150,188"/>
</svg>