<?xml version="1.0" encoding="UTF-8"?><!DOCTYPE svg PUBLIC "-//W3C//DTD SVG 1.1//EN" "http://www.w3.org/Graphics/SVG/1.1/DTD/svg11.dtd">
<svg xmlns="http://www.w3.org/2000/svg" version="1.1">
<width>5671</width>
<height>7383</height>
<nclasslabel>6</nclasslabel>
<nclassappear>5</nclassappear>
<class>Door</class>
<class>Parking</class>
<class>Room</class>
<class>Separation</class>
<class>Wall</class>
<class>Window</class>
<polygon class="Wall" fill="#AFD8F8" id="14" transcription="" points="4501,5580 4490,5579 4489,5588 4316,5587 4317,5526 4328,5527 4327,5514 4501,5514 " />
<polygon class="Wall" fill="#AFD8F8" id="22" transcription="" points="4009,4682 4009,4637 3997,4637 3997,4682 " />
<polygon class="Wall" fill="#AFD8F8" id="23" transcription="" points="3727,5513.75 3838,5514.75 3839,5525.75 3849,5525.75 3848,5586.75 3728,5588 " />
<polygon class="Wall" fill="#AFD8F8" id="24" transcription="" points="4485,4980.5 4502,4981.5 4501,5514.5 4485,5513.5 " />
<polygon class="Wall" fill="#AFD8F8" id="25" transcription="" points="4906.5,4991.5 4500.5,4991.5 4500.5,5009.5 4907.5,5008.5 " />
<polygon class="Wall" fill="#AFD8F8" id="26" transcription="" points="4812.5,5762 4821.5,5762 4822.5,5750 5107.5,5750 5108.5,5824 4811.5,5824 " />
<polygon class="Wall" fill="#AFD8F8" id="27" transcription="" points="5108.5,2149 5146.5,2150 5147.5,6295 5107.5,6293 " />
<polygon class="Wall" fill="#AFD8F8" id="28" transcription="" points="3726.5,6331 5144.5,6331 5144.5,6293 3725.5,6293 " />
<polygon class="Wall" fill="#AFD8F8" id="29" transcription="" points="5096,4991.5 5109,4991.5 5109,5008.5 5096,5008.5 " />
<polygon class="Wall" fill="#AFD8F8" id="30" transcription="" points="3691,2288.25 3729,2287.25 3728,6331.25 3691,6331.75 " />
<polygon class="Wall" fill="#AFD8F8" id="31" transcription="" points="3837,2253 3836.5,2292.5 3691.5,2291.5 3691,2254 " />
<polygon class="Wall" fill="#AFD8F8" id="32" transcription="" points="3691,2090 3730,2090 3730,2116 3691,2116 " />
<polygon class="Wall" fill="#AFD8F8" id="33" transcription="" points="3691,2112.5 3718,2113.5 3717,2253.5 3691,2253.5 " />
<polygon class="Wall" fill="#AFD8F8" id="34" transcription="" points="5002.5,2077 5146.5,2077 5146.5,2150 5011.5,2150 5011.5,2139 5003.5,2139 " />
<polygon class="Wall" fill="#AFD8F8" id="35" transcription="" points="4011,2987.5 4048,2987.5 4048,3374.5 4011,3374.5 " />
<polygon class="Wall" fill="#AFD8F8" id="36" transcription="" points="4047,3335 4751,3335.5 4751,3374.5 4047,3374 " />
<polygon class="Wall" fill="#AFD8F8" id="37" transcription="" points="4873,3192.5 4892,3192.5 4892,3351.5 4873,3351.5 " />
<polygon class="Wall" fill="#AFD8F8" id="38" transcription="" points="4749,3335.5 4874,3335.5 4874,3354.5 4749,3354.5 " />
<polygon class="Wall" fill="#AFD8F8" id="39" transcription="" points="4717,3372 4750,3373 4750,3869 4717,3868 " />
<polygon class="Wall" fill="#AFD8F8" id="40" transcription="" points="4759.5,3375 4770.5,3374 4781.5,3379 4787.5,3392 4784.5,3404 4776.5,3411 4766.5,3412 4757.5,3411 4749.5,3402 4748.5,3389 4752.5,3379 " />
<polygon class="Wall" fill="#AFD8F8" id="41" transcription="" points="4749,3887.5 4892,3887.5 4892,3904.5 4749,3904.5 " />
<polygon class="Wall" fill="#AFD8F8" id="42" transcription="" points="4874.5,3905.5 4874.5,4078.5 4892.5,4078.5 4891.5,3904.5 " />
<polygon class="Wall" fill="#AFD8F8" id="43" transcription="" points="4045,3867 4749,3867 4749,3906 4047,3905 " />
<polygon class="Wall" fill="#AFD8F8" id="44" transcription="" points="4474,3374 4512,3371 4512,3871 4471,3872 " />
<polygon class="Wall" fill="#AFD8F8" id="45" transcription="" points="4423,3906 4423.5,4260.5 4461.5,4260.5 4461.5,3906.5 " />
<polygon class="Wall" fill="#AFD8F8" id="46" transcription="" points="4461.5,4277.5 4875.5,4278.5 4874.5,4294.5 4460.5,4294.5 " />
<polygon class="Wall" fill="#AFD8F8" id="47" transcription="" points="4874,4265 4892,4265 4892,4421 4874,4421 " />
<polygon class="Wall" fill="#AFD8F8" id="48" transcription="" points="4530,3904.5 4568,3904.5 4568,4059 4530,4059 " />
<polygon class="Wall" fill="#AFD8F8" id="49" transcription="" points="4461,4021 4532,4021 4532,4059 4461,4059 " />
<polygon class="Wall" fill="#AFD8F8" id="50" transcription="" points="3727,4258 4463,4257 4463,4295.5 3727,4295 " />
<polygon class="Wall" fill="#AFD8F8" id="51" transcription="" points="4011,4222 4048,4222 4048,4258 4011,4258 " />
<polygon class="Wall" fill="#AFD8F8" id="52" transcription="" points="3942,4640 4876,4640 4877,4623 3942,4624 " />
<polygon class="Wall" fill="#AFD8F8" id="53" transcription="" points="3932,4764.5 3954,4764.5 3954,4781.5 3932,4781.5 " />
<polygon class="Wall" fill="#AFD8F8" id="54" transcription="" points="3940,4640 3940,4767 3955,4767 3954,4640 " />
<polygon class="Wall" fill="#AFD8F8" id="55" transcription="" points="3952,4682.5 4007,4682.5 4007,4693.5 3952,4693.5 " />
<polygon class="Wall" fill="#AFD8F8" id="56" transcription="" points="4485,4638.5 4502,4639.5 4502,4789.5 4485,4789.5 " />
<polygon class="Wall" fill="#AFD8F8" id="57" transcription="" points="4875.5,4612 4875.5,4782 4892.5,4782 4892.5,4612 " />
<polygon class="Wall" fill="#AFD8F8" id="58" transcription="" points="4365,4295 4365,4626 4382,4626 4381,4294 " />
<polygon class="Wall" fill="#AFD8F8" id="59" transcription="" points="2089,1777 2090,1702 1912,1702 1914,1776 " />
<polygon class="Wall" fill="#AFD8F8" id="60" transcription="" points="1875,1703 1913,1702 1913,1829.5 1875,1829.5 " />
<polygon class="Wall" fill="#AFD8F8" id="61" transcription="" points="2381,1703 2764,1702 2767,1774.5 2385,1774 " />
<polygon class="Wall" fill="#AFD8F8" id="62" transcription="" points="2670,1775 2685,1774 2685,1830 2669,1830 " />
<polygon class="Wall" fill="#AFD8F8" id="63" transcription="" points="2973.5,1703.5 3294,1703 3294,1775 2974,1773 " />
<polygon class="Wall" fill="#AFD8F8" id="64" transcription="" points="3290,1702 3331,1703 3331,1829.5 3292,1829.5 " />
<polygon class="Wall" fill="#AFD8F8" id="65" transcription="" points="2486,2066.5 2760,2066.5 2760,2127.5 2750,2127.5 2750,2139.5 2497,2140.5 2496,2127.5 2486,2127.5 " />
<polygon class="Wall" fill="#AFD8F8" id="66" transcription="" points="2668,2137.5 2685,2138.5 2684,2670.5 2668,2670.5 " />
<polygon class="Wall" fill="#AFD8F8" id="67" transcription="" points="1875,2065 1914,2065 1913,5575 1875,5575 " />
<polygon class="Wall" fill="#AFD8F8" id="68" transcription="" points="1912.5,5501 2030.5,5501 2030.5,5575 1911.5,5575 " />
<polygon class="Wall" fill="#AFD8F8" id="69" transcription="" points="2668,5159 2684,5159 2684,5503 2668,5503 " />
<polygon class="Wall" fill="#AFD8F8" id="70" transcription="" points="3290.5,2065 3329.5,2065 3329.5,5739 3291.5,5739 " />
<polygon class="Wall" fill="#AFD8F8" id="71" transcription="" points="2999,5737 3332,5737 3332,5811 2999,5811 " />
<polygon class="Wall" fill="#AFD8F8" id="72" transcription="" points="2500,5503.5 2684,5503.5 2684,5576.5 2500,5576.5 " />
<polygon class="Wall" fill="#AFD8F8" id="73" transcription="" points="3279,4789.5 3293,4789.5 3293,4806.5 3279,4806.5 " />
<polygon class="Wall" fill="#AFD8F8" id="74" transcription="" points="2670,4788.5 3092,4788.5 3092,4804.5 2670,4805.5 " />
<polygon class="Wall" fill="#AFD8F8" id="75" transcription="" points="2669,4804 2685,4805 2685,4970 2669,4970 " />
<polygon class="Wall" fill="#AFD8F8" id="76" transcription="" points="2808,4362 2846,4362 2846,4436 2808,4436 " />
<polygon class="Wall" fill="#AFD8F8" id="77" transcription="" points="2821,4437.5 2835,4437.5 2835,4790.5 2821,4790.5 " />
<polygon class="Wall" fill="#AFD8F8" id="78" transcription="" points="2986,4363.5 3294,4363.5 3294,4436.5 2986,4436.5 " />
<polygon class="Wall" fill="#AFD8F8" id="79" transcription="" points="2606.5,4364.5 2668.5,4364.5 2668.5,4437.5 2605.5,4437.5 " />
<polygon class="Wall" fill="#AFD8F8" id="80" transcription="" points="2267,4422 2605,4422 2605,4436 2267,4436 " />
<polygon class="Wall" fill="#AFD8F8" id="81" transcription="" points="2254.5,4283 2254.5,4436 2269.5,4436 2269.5,4283 " />
<polygon class="Wall" fill="#AFD8F8" id="82" transcription="" points="2150,4245 2609,4244 2609,4283 2150,4283 " />
<polygon class="Wall" fill="#AFD8F8" id="83" transcription="" points="2194,4210.5 2232,4210.5 2232,4245.5 2194,4245.5 " />
<polygon class="Wall" fill="#AFD8F8" id="84" transcription="" points="1910,4246 1935,4246 1935,4284 1910,4284 " />
<polygon class="Wall" fill="#AFD8F8" id="85" transcription="" points="2195,3855 2752,3854 2752,3893 2195,3893 " />
<polygon class="Wall" fill="#AFD8F8" id="86" transcription="" points="2193,3892 2232,3893 2232,3928.5 2194,3928.5 " />
<polygon class="Wall" fill="#AFD8F8" id="87" transcription="" points="2713,3893 2751,3892 2751,4046.5 2714,4046.5 " />
<polygon class="Wall" fill="#AFD8F8" id="88" transcription="" points="2608,3892 2645,3892 2645,4364 2607,4364 " />
<polygon class="Wall" fill="#AFD8F8" id="89" transcription="" points="2645,4009.5 2714,4009.5 2714,4046.5 2645,4046.5 " />
<polygon class="Wall" fill="#AFD8F8" id="90" transcription="" points="3254,3662.5 3293,3662.5 3293,3589.5 3254,3589.5 " />
<polygon class="Wall" fill="#AFD8F8" id="91" transcription="" points="2901,3359 2934,3359 2934,3737 2901,3737 " />
<polygon class="Wall" fill="#AFD8F8" id="92" transcription="" points="2931,3588.5 2970,3588.5 2970,3661.5 2931,3661.5 " />
<polygon class="Wall" fill="#AFD8F8" id="93" transcription="" points="2151,3324.5 2934,3324.5 2934,3361.5 2151,3361.5 " />
<polygon class="Wall" fill="#AFD8F8" id="94" transcription="" points="2686,3027 3092,3027 3093,3043 2686,3043 " />
<polygon class="Wall" fill="#AFD8F8" id="95" transcription="" points="2809,3041.5 2825,3041.5 2825,3324.5 2809,3324.5 " />
<polygon class="Wall" fill="#AFD8F8" id="96" transcription="" points="2918,3044 2918,3326 2932,3326 2932,3044 " />
<polygon class="Wall" fill="#AFD8F8" id="97" transcription="" points="2670,2863.5 2686,2863.5 2686,3044.5 2670,3044.5 " />
<polygon class="Wall" fill="#AFD8F8" id="98" transcription="" points="1915.5,2066.5 2197.5,2066.5 2197.5,2127.5 2187.5,2127.5 2187.5,2139.5 1914.5,2139.5 " />
<polygon class="Wall" fill="#AFD8F8" id="99" transcription="" points="2973,2066.5 3291,2066.5 3291,2140.5 2982,2139.5 2982,2127.5 2973,2127.5 " />
<polygon class="Window" fill="#F6BD0F" id="100" transcription="" points="2193.5,2060.5 2490.5,2060.5 2489.5,2137.5 2194.5,2137.5 " />
<polygon class="Window" fill="#F6BD0F" id="101" transcription="" points="2762,2061.5 2978,2061.5 2975,2138.5 2762,2138.5 " />
<polygon class="Window" fill="#F6BD0F" id="102" transcription="" points="2089,1697.5 2384,1700 2386,1774.5 2089,1773 " />
<polygon class="Window" fill="#F6BD0F" id="103" transcription="" points="2759,1700.25 2972,1698.75 2974,1777.25 2761,1775.75 " />
<polygon class="Window" fill="#F6BD0F" id="104" transcription="" points="2028,5501 2501,5501 2501,5579 2026,5579 " />
<polygon class="Window" fill="#F6BD0F" id="105" transcription="" points="2610,5576 2688,5576 2687,5739 3001,5739 3001,5817 2610,5818 " />
<polygon class="Window" fill="#F6BD0F" id="106" transcription="" points="4579.5,2070.5 5006.5,2070.5 5007.5,2148.5 4579,2150 " />
<polygon class="Door" fill="#8BBA00" id="107" transcription="" points="3837.5,2278.5 3860.5,2390.5 3966.5,2494.5 4067.5,2511.5 4066.5,2279.5 " />
<polygon class="Door" fill="#8BBA00" id="108" transcription="" points="4034.5,2759.5 4260.5,2759.5 4241.5,2879.5 4155,2966 4032,2984 " />
<polygon class="Door" fill="#8BBA00" id="109" transcription="" points="4698.5,4272 4893.5,4270 4892.5,4079 4783.5,4092 4713.5,4164 " />
<polygon class="Door" fill="#8BBA00" id="110" transcription="" points="4701.5,4613.5 4894.5,4613.5 4893.5,4420.5 4802.5,4428.5 4714.5,4506.5 " />
<polygon class="Door" fill="#8BBA00" id="111" transcription="" points="4310.5,4788 4504.5,4788 4505.5,4984 4389.5,4972 4325.5,4886 " />
<polygon class="Window" fill="#F6BD0F" id="112" transcription="" points="3847,5513 3847,5591 4321,5591 4321,5513 " />
<polygon class="Window" fill="#F6BD0F" id="113" transcription="" points="4422,5584.5 4500,5584.5 4500,5750.5 4814,5750.5 4814,5827.5 4422,5827.5 " />
<polygon class="Door" fill="#8BBA00" id="114" transcription="" points="3734.5,4586.5 3738.5,4778.5 3930.5,4779.5 3922.5,4695.5 3853.5,4597.5 " />
<polygon class="Wall" fill="#AFD8F8" id="115" transcription="" points="3727,4766 3738,4766 3739,4782 3727,4782 " />
<polygon class="Door" fill="#8BBA00" id="116" transcription="" points="2668.5,4965 2864.5,4963 2844.5,5064 2764.5,5125 2671.5,5155 " />
<polygon class="Door" fill="#8BBA00" id="117" transcription="" points="3284,4612 3282,4802 3092,4802 3103,4718 3172,4626 " />
<polygon class="Window" fill="#F6BD0F" id="118" transcription="" points="2665,4359.5 2809,4358.5 2809,4435.5 2665,4436.5 " />
<polygon class="Window" fill="#F6BD0F" id="119" transcription="" points="2843,4358 2986,4359 2986,4436 2843,4436 " />
<polygon class="Window" fill="#F6BD0F" id="120" transcription="" points="2970,3586 3256,3586.5 3256,3663.5 2970,3663.5 " />
<polygon class="Wall" fill="#AFD8F8" id="121" transcription="" points="4010,3867 4010,3940 4047,3940 4046,3867 " />
<polygon class="Window" fill="#F6BD0F" id="122" transcription="" points="2748,3856 2900,3857 2900,3738 2938,3738 2937,3898 2748,3898 " />
<polygon class="Door" fill="#8BBA00" id="123" transcription="" points="3088.5,3028.5 3283.5,3027.5 3282.5,3222.5 3172.5,3208.5 3111.5,3133.5 " />
<polygon class="Wall" fill="#AFD8F8" id="124" transcription="" points="3281.5,3028 3281.5,3044 3292.5,3044 3292.5,3028 " />
<polygon class="Door" fill="#8BBA00" id="125" transcription="" points="2670,2864.5 2868,2864.5 2847,2753.5 2767,2688.5 2670,2673.5 " />
<polygon class="Wall" fill="#AFD8F8" id="126" transcription="" points="1911,3324.5 1937,3324.5 1937,3363.5 1911,3363.5 " />
<polygon class="Door" fill="#8BBA00" id="127" transcription="" points="1925,3125 1928.5,3345.5 2155.5,3344.5 2146.5,3249.5 2045.5,3124.5 " />
<polygon class="Door" fill="#8BBA00" id="128" transcription="" points="1932,4256 2154,4256 2146,4379 2048,4481 1918,4488 " />
<polygon class="Room" fill="#FF8E46" id="129" transcription="" points="1913,2144.5 2668,2144.5 2665,3049.5 2809,3049.5 2809,3327.5 1915,3327.5 " />
<polygon class="Room" fill="#FF8E46" id="130" transcription="" points="2691,2142.5 3300,2144.5 3299,3031.5 2691,3031.5 " />
<polygon class="Room" fill="#FF8E46" id="131" transcription="" points="2932.5,3043 3291.5,3042 3291.5,3588 2933.5,3589 " />
<polygon class="Room" fill="#FF8E46" id="132" transcription="" points="1916,3359.5 2198,3360.5 2195,4243.5 1916,4242.5 " />
<polygon class="Room" fill="#FF8E46" id="133" transcription="" points="1915,4285 2249,4287 2255,4445 2818,4439 2818,4790 2669,4790 2669,5505 1915,5505 " />
<polygon class="Room" fill="#FF8E46" id="134" transcription="" points="2836,4441 3294,4441 3294,4793 2836,4793 " />
<polygon class="Room" fill="#FF8E46" id="135" transcription="" points="2685,4806.5 3291,4806.5 3291,5739.5 2685,5739.5 " />
<polygon class="Room" fill="#FF8E46" id="136" transcription="" points="3728,2294.5 4240,2292.5 4237,2467 4118,2467 4118,2486 4238,2485.5 4237,2714.5 4008,2713 4005,4257.5 3728,4257.5 " />
<polygon class="Separation" fill="#008E8E" id="137" transcription="" points="4895,3191.5 5112,3191.5 5113,3206.5 4893,3206.5 " />
<polygon class="Room" fill="#FF8E46" id="138" transcription="" points="4278,2194 4458,2194 4456,2158 5108,2158 5106,3204 4876,3200 4872,3344 4050,3342 4048,2756 4282,2756 " />
<polygon class="Room" fill="#FF8E46" id="139" transcription="" points="4893,3208.5 5106,3208.5 5106,4985.5 4506,4988.5 4500,4635.5 4873,4635.5 4873,4782.5 4893,4778.5 4893,3882.5 4756,3882.5 4750,3418.5 4800,3418.5 4803,3352.5 4893,3355.5 " />
<polygon class="Room" fill="#FF8E46" id="140" transcription="" points="4568.5,3904.5 4875.5,3904.5 4874.5,4277.5 4462.5,4276.5 4461.5,4057.5 4567.5,4057.5 " />
<polygon class="Room" fill="#FF8E46" id="141" transcription="" points="4383,4297 4875,4297 4875,4629 4383,4629 " />
<polygon class="Door" fill="#8BBA00" id="142" transcription="" points="5098,4989 5100,5183 4986,5171 4918,5098 4908,4991 " />
<polygon class="Room" fill="#FF8E46" id="143" transcription="" points="4499,5006 5105,5006 5105,5750 4499,5750 " />
<polygon class="Room" fill="#FF8E46" id="144" transcription="" points="3726.5,4297.5 4362.5,4298.5 4361.5,4627.5 3936.5,4627.5 3936.5,4768.5 3725.5,4768.5 " />
<polygon class="Room" fill="#FF8E46" id="145" transcription="" points="3722.5,4784 3951.5,4784 3950.5,4694 4007.5,4694 4005.5,4641 4480.5,4640 4480.5,5516 3725.5,5516 " />
<polygon class="Wall" fill="#AFD8F8" id="146" transcription="" points="4417.5,2076 4580.5,2077 4580.5,2139 4571.5,2139 4571,2151 4418.5,2150 " />
<polygon class="Wall" fill="#AFD8F8" id="147" transcription="" points="4278,2147 4455,2148 4455,2186 4278,2185 " />
<polygon class="Wall" fill="#AFD8F8" id="148" transcription="" points="4240,2116 4278,2116 4278,2750 4240,2750 " />
<polygon class="Wall" fill="#AFD8F8" id="149" transcription="" points="4009.5,2772 4048.5,2772 4048.5,2710 4010.5,2710 " />
<polygon class="Wall" fill="#AFD8F8" id="150" transcription="" points="4047.5,2711.5 4239.5,2711.5 4239.5,2748.5 4046.5,2748.5 " />
<polygon class="Wall" fill="#AFD8F8" id="151" transcription="" points="4123,2466.5 4242,2467 4242,2483 4123,2483.5 " />
<polygon class="Wall" fill="#AFD8F8" id="152" transcription="" points="4118,2276 4242,2276 4241,2292 4118,2292 " />
<polygon class="Wall" fill="#AFD8F8" id="153" transcription="" points="4117,2078 4278,2078 4278,2116 4117,2116 " />
<polygon class="Wall" fill="#AFD8F8" id="154" transcription="" points="4788.5,3352 4787.5,3413 4799.5,3413 4799.5,3352 " />
<polygon class="Wall" fill="#AFD8F8" id="155" transcription="" points="4749.5,3412.5 4799.5,3413.5 4799.5,3426.5 4750.5,3425.5 " />
<relation type="incident" objects="98,100"/>
<relation type="incident" objects="100,65"/>
<relation type="incident" objects="65,101"/>
<relation type="incident" objects="101,99"/>
<relation type="incident" objects="99,70"/>
<relation type="incident" objects="65,66"/>
<relation type="incident" objects="66,125"/>
<relation type="incident" objects="125,97"/>
<relation type="incident" objects="97,94"/>
<relation type="incident" objects="94,123"/>
<relation type="incident" objects="123,70"/>
<relation type="incident" objects="94,95"/>
<relation type="incident" objects="95,93"/>
<relation type="incident" objects="93,96"/>
<relation type="incident" objects="96,94"/>
<relation type="incident" objects="93,127"/>
<relation type="incident" objects="127,126"/>
<relation type="incident" objects="126,67"/>
<relation type="incident" objects="93,91"/>
<relation type="incident" objects="91,92"/>
<relation type="incident" objects="92,120"/>
<relation type="incident" objects="120,90"/>
<relation type="incident" objects="90,70"/>
<relation type="incident" objects="67,98"/>
<relation type="incident" objects="91,122"/>
<relation type="incident" objects="122,85"/>
<relation type="incident" objects="85,86"/>
<relation type="incident" objects="85,87"/>
<relation type="incident" objects="87,89"/>
<relation type="incident" objects="89,88"/>
<relation type="incident" objects="88,85"/>
<relation type="incident" objects="88,82"/>
<relation type="incident" objects="82,83"/>
<relation type="incident" objects="82,128"/>
<relation type="incident" objects="128,84"/>
<relation type="incident" objects="84,67"/>
<relation type="incident" objects="82,81"/>
<relation type="incident" objects="81,80"/>
<relation type="incident" objects="80,79"/>
<relation type="incident" objects="79,88"/>
<relation type="incident" objects="79,118"/>
<relation type="incident" objects="118,76"/>
<relation type="incident" objects="76,119"/>
<relation type="incident" objects="119,78"/>
<relation type="incident" objects="78,70"/>
<relation type="incident" objects="76,77"/>
<relation type="incident" objects="77,74"/>
<relation type="incident" objects="74,117"/>
<relation type="incident" objects="117,73"/>
<relation type="incident" objects="73,70"/>
<relation type="incident" objects="74,75"/>
<relation type="incident" objects="75,116"/>
<relation type="incident" objects="116,69"/>
<relation type="incident" objects="69,72"/>
<relation type="incident" objects="72,104"/>
<relation type="incident" objects="104,68"/>
<relation type="incident" objects="68,67"/>
<relation type="incident" objects="72,105"/>
<relation type="incident" objects="105,71"/>
<relation type="incident" objects="71,70"/>
<relation type="incident" objects="60,59"/>
<relation type="incident" objects="59,102"/>
<relation type="incident" objects="102,61"/>
<relation type="incident" objects="61,62"/>
<relation type="incident" objects="61,103"/>
<relation type="incident" objects="103,63"/>
<relation type="incident" objects="63,64"/>
<relation type="incident" objects="32,33"/>
<relation type="incident" objects="33,31"/>
<relation type="incident" objects="31,30"/>
<relation type="incident" objects="31,107"/>
<relation type="incident" objects="107,152"/>
<relation type="incident" objects="152,148"/>
<relation type="incident" objects="148,151"/>
<relation type="incident" objects="148,150"/>
<relation type="incident" objects="150,149"/>
<relation type="incident" objects="148,153"/>
<relation type="incident" objects="148,147"/>
<relation type="incident" objects="147,146"/>
<relation type="incident" objects="149,108"/>
<relation type="incident" objects="146,106"/>
<relation type="incident" objects="106,34"/>
<relation type="incident" objects="34,27"/>
<relation type="incident" objects="27,137"/>
<relation type="incident" objects="137,37"/>
<relation type="incident" objects="37,38"/>
<relation type="incident" objects="38,154"/>
<relation type="incident" objects="154,155"/>
<relation type="incident" objects="155,39"/>
<relation type="incident" objects="39,36"/>
<relation type="incident" objects="36,38"/>
<relation type="incident" objects="36,35"/>
<relation type="incident" objects="35,108"/>
<relation type="incident" objects="36,44"/>
<relation type="incident" objects="44,43"/>
<relation type="incident" objects="43,39"/>
<relation type="incident" objects="43,121"/>
<relation type="incident" objects="43,45"/>
<relation type="incident" objects="43,48"/>
<relation type="incident" objects="48,49"/>
<relation type="incident" objects="49,45"/>
<relation type="incident" objects="43,41"/>
<relation type="incident" objects="41,42"/>
<relation type="incident" objects="42,109"/>
<relation type="incident" objects="109,47"/>
<relation type="incident" objects="47,46"/>
<relation type="incident" objects="46,50"/>
<relation type="incident" objects="50,51"/>
<relation type="incident" objects="50,30"/>
<relation type="incident" objects="47,110"/>
<relation type="incident" objects="110,57"/>
<relation type="incident" objects="57,52"/>
<relation type="incident" objects="52,58"/>
<relation type="incident" objects="58,50"/>
<relation type="incident" objects="52,22"/>
<relation type="incident" objects="22,55"/>
<relation type="incident" objects="55,54"/>
<relation type="incident" objects="54,52"/>
<relation type="incident" objects="54,53"/>
<relation type="incident" objects="53,114"/>
<relation type="incident" objects="114,115"/>
<relation type="incident" objects="115,30"/>
<relation type="incident" objects="52,56"/>
<relation type="incident" objects="56,111"/>
<relation type="incident" objects="111,24"/>
<relation type="incident" objects="24,25"/>
<relation type="incident" objects="25,142"/>
<relation type="incident" objects="142,27"/>
<relation type="incident" objects="113,26"/>
<relation type="incident" objects="26,27"/>
<relation type="incident" objects="27,28"/>
<relation type="incident" objects="112,23"/>
<relation type="incident" objects="23,30"/>
<relation type="incident" objects="30,28"/>
<relation type="neighbour" objects="129,130"/>
<relation type="neighbour" objects="130,131"/>
<relation type="neighbour" objects="129,132"/>
<relation type="neighbour" objects="132,133"/>
<relation type="neighbour" objects="133,134"/>
<relation type="neighbour" objects="134,135"/>
<relation type="neighbour" objects="135,133"/>
<relation type="neighbour" objects="136,138"/>
<relation type="neighbour" objects="138,139"/>
<relation type="neighbour" objects="139,140"/>
<relation type="neighbour" objects="139,141"/>
<relation type="neighbour" objects="141,140"/>
<relation type="neighbour" objects="139,143"/>
<relation type="neighbour" objects="143,145"/>
<relation type="neighbour" objects="145,139"/>
<relation type="neighbour" objects="145,141"/>
<relation type="neighbour" objects="145,144"/>
<relation type="neighbour" objects="144,141"/>
<relation type="neighbour" objects="144,136"/>
<relation type="access" objects="136,107,136"/>
<relation type="access" objects="136,108,138"/>
<relation type="access" objects="138,137,139"/>
<relation type="access" objects="139,109,140"/>
<relation type="access" objects="139,110,141"/>
<relation type="access" objects="139,142,143"/>
<relation type="access" objects="139,111,145"/>
<relation type="access" objects="145,114,144"/>
<relation type="access" objects="132,127,129"/>
<relation type="access" objects="129,125,130"/>
<relation type="access" objects="130,123,131"/>
<relation type="access" objects="132,128,133"/>
<relation type="access" objects="135,117,134"/>
<relation type="access" objects="133,116,135"/>
<relation type="surround" objects="98,100,65,66,125,97,94,96,93,127,126,67,98,129"/>
<relation type="surround" objects="65,101,99,70,123,94,97,125,66,65,130"/>
<relation type="surround" objects="94,123,70,90,120,92,91,93,95,94,131"/>
<relation type="surround" objects="126,127,93,91,122,85,88,82,128,84,67,126,132"/>
<relation type="surround" objects="76,119,78,70,117,74,77,76,134"/>
<relation type="surround" objects="74,117,70,71,105,72,69,116,75,74,135"/>
<relation type="surround" objects="84,128,82,81,80,79,118,76,77,74,75,116,69,72,104,68,67,84,133"/>
<relation type="surround" objects="31,107,152,148,150,149,108,35,36,44,43,45,50,30,31,136"/>
<relation type="surround" objects="150,148,147,146,106,34,27,137,37,38,36,35,108,149,150,138"/>
<relation type="surround" objects="49,48,43,41,42,109,47,46,50,45,49,140"/>
<relation type="surround" objects="155,154,38,37,137,27,142,25,24,111,56,52,57,110,47,109,42,41,43,39,155,139"/>
<relation type="surround" objects="50,46,47,110,57,52,58,50,141"/>
<relation type="surround" objects="50,58,52,54,53,114,115,30,50,144"/>
<relation type="outerP" objects="98,100,65,101,99,70,71,105,72,104,68,67"/>
<relation type="incident" objects="113,14"/>
<relation type="incident" objects="14,112"/>
<relation type="incident" objects="14,24"/>
<relation type="outerP" objects="31,107,152,148,147,146,106,34,27,28,30"/>
<relation type="surround" objects="114,53,54,55,22,52,56,111,24,14,112,23,30,115,114,145"/>
<relation type="surround" objects="25,142,29,27,26,113,14,24,25,143"/>
</svg>