<?xml version="1.0" encoding="UTF-8"?><!DOCTYPE svg PUBLIC "-//W3C//DTD SVG 1.1//EN" "http://www.w3.org/Graphics/SVG/1.1/DTD/svg11.dtd">
<svg xmlns="http://www.w3.org/2000/svg" version="1.1">
<width>5671</width>
<height>7383</height>
<nclasslabel>6</nclasslabel>
<nclassappear>6</nclassappear>
<class>Door</class>
<class>Parking</class>
<class>Room</class>
<class>Separation</class>
<class>Wall</class>
<class>Window</class>
<polygon class="Wall" fill="#AFD8F8" id="65" transcription="" points="4192,2094.25 4254,2093.25 4254,2154.25 4244,2156.25 4242,2167.25 4202,2167.25 4202,2156 4190,2155 " />
<polygon class="Wall" fill="#AFD8F8" id="67" transcription="" points="3743,2095 3782,2095 3781,5605 3743,5605 " />
<polygon class="Wall" fill="#AFD8F8" id="68" transcription="" points="3778.5,5530 3896.5,5530 3896.5,5604 3777.5,5604 " />
<polygon class="Wall" fill="#AFD8F8" id="69" transcription="" points="4537,5188 4553,5188 4553,5532 4537,5532 " />
<polygon class="Wall" fill="#AFD8F8" id="70" transcription="" points="5158.5,2095 5197.5,2095 5197.5,5769 5159.5,5769 " />
<polygon class="Wall" fill="#AFD8F8" id="71" transcription="" points="4864,5767 5197,5767 5197,5841 4864,5841 " />
<polygon class="Wall" fill="#AFD8F8" id="72" transcription="" points="4369,5531.5 4553,5531.5 4553,5604.5 4369,5604.5 " />
<polygon class="Wall" fill="#AFD8F8" id="73" transcription="" points="5148,4816.5 5162,4816.5 5162,4833.5 5148,4833.5 " />
<polygon class="Wall" fill="#AFD8F8" id="74" transcription="" points="4536,4816.5 4958,4816.5 4958,4834 4536,4833.5 " />
<polygon class="Wall" fill="#AFD8F8" id="75" transcription="" points="4536,4833 4553,4833 4552,4999 4536,4999 " />
<polygon class="Wall" fill="#AFD8F8" id="76" transcription="" points="4678,4391 4716,4391 4716,4465 4678,4465 " />
<polygon class="Wall" fill="#AFD8F8" id="77" transcription="" points="4688,4462.5 4702,4462.5 4702,4815.5 4688,4817 " />
<polygon class="Wall" fill="#AFD8F8" id="78" transcription="" points="4853,4391.5 5161,4391.5 5161,4464.5 4853,4464.5 " />
<polygon class="Wall" fill="#AFD8F8" id="79" transcription="" points="4473.5,4392.5 4535.5,4392.5 4535.5,4465.5 4472.5,4465.5 " />
<polygon class="Wall" fill="#AFD8F8" id="80" transcription="" points="4136,4452 4474,4452 4474,4466 4136,4466 " />
<polygon class="Wall" fill="#AFD8F8" id="81" transcription="" points="4122.5,4310 4122.5,4463 4137.5,4463 4137.5,4310 " />
<polygon class="Wall" fill="#AFD8F8" id="82" transcription="" points="4019,4274 4478,4273 4478,4312 4019,4312 " />
<polygon class="Wall" fill="#AFD8F8" id="83" transcription="" points="4062,4240.5 4100,4240.5 4100,4275.5 4062,4275.5 " />
<polygon class="Wall" fill="#AFD8F8" id="84" transcription="" points="3780,4273 3805,4273 3805,4311 3780,4311 " />
<polygon class="Wall" fill="#AFD8F8" id="85" transcription="" points="4061,3885 4618,3884 4618,3923 4061,3923 " />
<polygon class="Wall" fill="#AFD8F8" id="86" transcription="" points="4062,3921.5 4100,3921.5 4100,3956.5 4062,3956.5 " />
<polygon class="Wall" fill="#AFD8F8" id="87" transcription="" points="4582,3922.5 4619,3922.5 4619,4075.5 4582,4075.5 " />
<polygon class="Wall" fill="#AFD8F8" id="88" transcription="" points="4474,3921 4512,3921 4513,4392 4475,4393 " />
<polygon class="Wall" fill="#AFD8F8" id="89" transcription="" points="4513,4036.5 4582,4036.5 4582,4073.5 4513,4073.5 " />
<polygon class="Wall" fill="#AFD8F8" id="90" transcription="" points="5123,3690.5 5162,3690.5 5162,3617.5 5123,3617.5 " />
<polygon class="Wall" fill="#AFD8F8" id="91" transcription="" points="4768,3388 4801,3388 4801,3766 4768,3766 " />
<polygon class="Wall" fill="#AFD8F8" id="92" transcription="" points="4801,3616.5 4840,3616.5 4840,3689.5 4801,3689.5 " />
<polygon class="Wall" fill="#AFD8F8" id="94" transcription="" points="4536,3055 4958,3055 4958,3072 4537,3072 " />
<polygon class="Wall" fill="#AFD8F8" id="95" transcription="" points="4784,3070 4801,3070.5 4801,3353.5 4785,3353.5 " />
<polygon class="Wall" fill="#AFD8F8" id="96" transcription="" points="4678,3071 4678,3353 4692,3353 4692,3071 " />
<polygon class="Wall" fill="#AFD8F8" id="98" transcription="" points="3781,2094 3981.5,2094.5 3981.5,2155.5 3971.5,2155.5 3971.5,2167.5 3781,2168 " />
<polygon class="Wall" fill="#AFD8F8" id="99" transcription="" points="4546,2093.5 5159,2095 5159,2168 4556,2168 4555,2154.5 4546,2154.5 " />
<polygon class="Window" fill="#F6BD0F" id="100" transcription="" points="3979,2090 4195.5,2088.5 4194.5,2165.5 3979,2166 " />
<polygon class="Window" fill="#F6BD0F" id="101" transcription="" points="4251,2088.5 4547,2088 4549,2167 4251,2165.5 " />
<polygon class="Window" fill="#F6BD0F" id="104" transcription="" points="3898,5530 4371,5530 4371,5608 3896,5608 " />
<polygon class="Window" fill="#F6BD0F" id="105" transcription="" points="4476,5603 4554,5603 4553,5766 4867,5766 4867,5844 4476,5845 " />
<polygon class="Door" fill="#8BBA00" id="116" transcription="" points="4534.5,4994 4730.5,4992 4710.5,5093 4630.5,5154 4537.5,5184 " />
<polygon class="Door" fill="#8BBA00" id="117" transcription="" points="5151,4639 5149,4829 4959,4829 4970,4745 5039,4653 " />
<polygon class="Window" fill="#F6BD0F" id="118" transcription="" points="4533,4387.5 4677,4386.5 4677,4463.5 4533,4464.5 " />
<polygon class="Window" fill="#F6BD0F" id="119" transcription="" points="4711,4388 4854,4389 4854,4466 4711,4466 " />
<polygon class="Window" fill="#F6BD0F" id="120" transcription="" points="4839,3618.5 5123,3618.5 5123,3695.5 4837,3695.5 " />
<polygon class="Window" fill="#F6BD0F" id="122" transcription="" points="4616,3883 4768,3884 4768,3765 4806,3765 4805,3925 4616,3925 " />
<polygon class="Door" fill="#8BBA00" id="123" transcription="" points="4955.5,3052.5 5145,3058 5149.5,3246.5 5039.5,3232.5 4978.5,3157.5 " />
<polygon class="Wall" fill="#AFD8F8" id="124" transcription="" points="5148.5,3055 5148.5,3071 5159.5,3071 5159.5,3055 " />
<polygon class="Wall" fill="#AFD8F8" id="126" transcription="" points="3783,3600.5 3809,3600.5 3809,3620 3809,3639.5 3783,3639.5 " />
<polygon class="Door" fill="#8BBA00" id="127" transcription="" points="3800.5,3417.5 3800.5,3641.5 4027.5,3640.5 4018.5,3545.5 3917.5,3420.5 " />
<polygon class="Door" fill="#8BBA00" id="128" transcription="" points="3804,4294 4026,4294 4018,4417 3920,4519 3790,4526 " />
<polygon class="Room" fill="#FF8E46" id="133" transcription="" points="3782,4314 4116,4316 4122,4474 4685,4468 4685,4819 4536,4819 4536,5534 3782,5534 " />
<polygon class="Room" fill="#FF8E46" id="134" transcription="" points="4700,4468 5158,4468 5158,4820 4700,4820 " />
<polygon class="Room" fill="#FF8E46" id="135" transcription="" points="4552,4835.5 5158,4835.5 5158,5768.5 4552,5768.5 " />
<polygon class="Wall" fill="#AFD8F8" id="136" transcription="" points="4936,2613.5 4954,2626.5 4952,2828 4936,2826.5 " />
<polygon class="Wall" fill="#AFD8F8" id="137" transcription="" points="4936,2845 4961,2845 4960,2827 4937,2827 " />
<polygon class="Wall" fill="#AFD8F8" id="138" transcription="" points="5149,2829 5161,2829 5161,2843 5149,2843 " />
<polygon class="Wall" fill="#AFD8F8" id="139" transcription="" points="4161,3353 4801,3353 4801,3390 4161,3390 " />
<polygon class="Wall" fill="#AFD8F8" id="140" transcription="" points="4123,3353 4162,3353 4162,3639 4123,3639 " />
<polygon class="Wall" fill="#AFD8F8" id="141" transcription="" points="4018,3600 4124,3600 4124,3638 4018,3638 " />
<polygon class="Room" fill="#FF8E46" id="143" transcription="" points="4803,3070 5158,3070 5158,3616 4803,3616 " />
<polygon class="Room" fill="#FF8E46" id="144" transcription="" points="3781,3639 4060,3639 4060,4270 3781,4270 " />
<polygon class="Room" fill="#FF8E46" id="145" transcription="" points="3783,3599 4123,3600 4124,3353 4677,3351 4677,3071 3781,3074 " />
<polygon class="Separation" fill="#008E8E" id="146" transcription="" points="3780,3057 4534,3057 4534,3069 3780,3069 " />
<polygon class="Room" fill="#FF8E46" id="147" transcription="" points="3781,2167 5153,2167 5157,3050 3781,3050 " />
<polygon class="Door" fill="#8BBA00" id="148" transcription="" points="5151,2653 5148,2847 4961,2845 4963,2767 5041,2665 " />
<polygon class="Wall" fill="#AFD8F8" id="149" transcription="" points="3267,2147 3305,2145 3304.5,3598.25 3266.5,3598.25 " />
<polygon class="Wall" fill="#AFD8F8" id="150" transcription="" points="2718.5,2074 3304.5,2074 3304.5,2148 2719.5,2148 " />
<polygon class="Wall" fill="#AFD8F8" id="151" transcription="" points="3228,3610.5 3236,3610.5 3236,3599.5 3303,3597.5 3303,3673.5 3228,3671.5 " />
<polygon class="Wall" fill="#AFD8F8" id="152" transcription="" points="2837.5,3597 2837.5,3738 2848.5,3738 2849.5,3748 2906.5,3748 2906.5,3597 " />
<polygon class="Wall" fill="#AFD8F8" id="153" transcription="" points="2906,3598 3078,3599 3078,3608 3087,3608 3086,3671 2906,3672 " />
<polygon class="Wall" fill="#AFD8F8" id="154" transcription="" points="2881.5,3348 2908.5,3348 2908.5,3598 2882.5,3598 " />
<polygon class="Wall" fill="#AFD8F8" id="155" transcription="" points="2889,3037.5 2907,3037.5 2905,3350.5 2889,3350.5 " />
<polygon class="Wall" fill="#AFD8F8" id="156" transcription="" points="2798,3035.5 2893,3035.5 2894,3052.5 2800,3052.5 " />
<polygon class="Wall" fill="#AFD8F8" id="157" transcription="" points="2785,3037.5 2785,3350.5 2799,3349.5 2799,3038.5 " />
<polygon class="Wall" fill="#AFD8F8" id="158" transcription="" points="2796,3333.5 2889,3333.5 2888,3348.5 2796,3346.5 " />
<polygon class="Wall" fill="#AFD8F8" id="159" transcription="" points="2511.5,3035 2787.5,3036 2786.5,3061 2512.5,3061 " />
<polygon class="Wall" fill="#AFD8F8" id="160" transcription="" points="2666,3026.5 2684,3026.5 2684,3037.5 2666,3037.5 " />
<polygon class="Wall" fill="#AFD8F8" id="161" transcription="" points="2485,3037.5 2512,3036.5 2514,3467 2487,3466.5 " />
<polygon class="Wall" fill="#AFD8F8" id="162" transcription="" points="2718,2715.5 2718,2826.5 2792,2826.5 2792,2724.5 2780,2724.5 2780,2714.5 " />
<polygon class="Wall" fill="#AFD8F8" id="163" transcription="" points="2461.5,2749 2718.5,2749 2717.5,2825 2471.5,2825 2471.5,2814 2462.5,2813 " />
<polygon class="Wall" fill="#AFD8F8" id="164" transcription="" points="2666,2822.5 2684,2822.5 2684,2839.5 2666,2839.5 " />
<polygon class="Wall" fill="#AFD8F8" id="165" transcription="" points="1849,2749 1993,2750 1993,2814 1984,2814 1984,2827 1849,2827 " />
<polygon class="Wall" fill="#AFD8F8" id="166" transcription="" points="2718,2146.5 2792,2146.5 2791,2371.5 2778,2370.5 2778,2381.5 2718,2381.5 " />
<polygon class="Wall" fill="#AFD8F8" id="167" transcription="" points="1849,2825.5 1887,2826 1887,5583 1849,5584.5 " />
<polygon class="Wall" fill="#AFD8F8" id="168" transcription="" points="1888,5545.5 2584,5546 2584,5584 1888,5584.5 " />
<polygon class="Wall" fill="#AFD8F8" id="169" transcription="" points="2583,4901 2594,4899 2595,4890 2620,4890 2620,5583 2583,5583 " />
<polygon class="Wall" fill="#AFD8F8" id="170" transcription="" points="1887,3863.5 2584,3864 2584,3903 1887,3902.5 " />
<polygon class="Wall" fill="#AFD8F8" id="171" transcription="" points="2580.5,3830 2715.5,3830 2715.5,3842 2725.5,3842 2725.5,3904 2581.5,3902 " />
<polygon class="Wall" fill="#AFD8F8" id="172" transcription="" points="2583.5,3903 2618.5,3903 2619.5,4424 2595.5,4424 2593.5,4414 2582.5,4413 " />
<polygon class="Wall" fill="#AFD8F8" id="173" transcription="" points="2240,4394.5 2581,4394.5 2581,4409.5 2240,4409.5 " />
<polygon class="Wall" fill="#AFD8F8" id="174" transcription="" points="2230,4279 2244,4279 2244,4411 2230,4411 " />
<polygon class="Wall" fill="#AFD8F8" id="175" transcription="" points="2243,4278 2583,4278 2583,4292 2243,4292 " />
<polygon class="Wall" fill="#AFD8F8" id="176" transcription="" points="2687,3903 2687,4056 2725,4056 2725,3901 " />
<polygon class="Wall" fill="#AFD8F8" id="177" transcription="" points="2619,4017.5 2689,4017.5 2690,4053 2619,4054.5 " />
<polygon class="Wall" fill="#AFD8F8" id="178" transcription="" points="2485,3865 2486,3651 2511,3652 2511,3865 " />
<polygon class="Window" fill="#F6BD0F" id="179" transcription="" points="2713,2376.5 2793,2376.5 2793,2715.5 2713,2715.5 " />
<polygon class="Window" fill="#F6BD0F" id="180" transcription="" points="1991,2743.5 2465,2743.5 2465,2826.5 1991,2826.5 " />
<polygon class="Window" fill="#F6BD0F" id="181" transcription="" points="3086,3598.5 3230,3598.5 3230,3677.5 3086,3677.5 " />
<polygon class="Window" fill="#F6BD0F" id="182" transcription="" points="2838.5,3744.5 2912.5,3744.5 2912.5,3907.5 2723.5,3905.5 2723.5,3826.5 2839.5,3827.5 " />
<polygon class="Parking" fill="#D64646" id="183" transcription="" points="2581,4422 2622,4421 2625,4891 2581,4892 " />
<polygon class="Door" fill="#8BBA00" id="184" transcription="" points="2483,3653.5 2688,3655.5 2673,3532.5 2561,3475.5 2483,3464.5 " />
<polygon class="Door" fill="#8BBA00" id="185" transcription="" points="2669,2836.5 2671,3025.5 2557,3019.5 2500,2962.5 2471,2831.5 " />
<polygon class="Room" fill="#FF8E46" id="186" transcription="" points="1889,2827.5 2664,2829.5 2665,3037.5 2482,3037.5 2485,3864.5 1889,3866.5 " />
<polygon class="Room" fill="#FF8E46" id="187" transcription="" points="2512.5,3059 2780.5,3059 2784.5,3346 2881.5,3348 2879.5,3594 2836.5,3595 2839.5,3828 2581.5,3828 2579.5,3862 2509.5,3859 " />
<polygon class="Room" fill="#FF8E46" id="188" transcription="" points="2797.5,2154 3261.5,2151 3277.5,3598 2917.5,3598 2907.5,3034 2687.5,3031 2684.5,2824 2804.5,2828 " />
<relation type="incident" objects="101,99"/>
<relation type="incident" objects="99,70"/>
<relation type="incident" objects="94,123"/>
<relation type="incident" objects="94,95"/>
<relation type="incident" objects="96,94"/>
<relation type="incident" objects="127,126"/>
<relation type="incident" objects="126,67"/>
<relation type="incident" objects="91,92"/>
<relation type="incident" objects="92,120"/>
<relation type="incident" objects="120,90"/>
<relation type="incident" objects="90,70"/>
<relation type="incident" objects="67,98"/>
<relation type="incident" objects="91,122"/>
<relation type="incident" objects="122,85"/>
<relation type="incident" objects="85,86"/>
<relation type="incident" objects="85,87"/>
<relation type="incident" objects="87,89"/>
<relation type="incident" objects="89,88"/>
<relation type="incident" objects="88,85"/>
<relation type="incident" objects="88,82"/>
<relation type="incident" objects="82,83"/>
<relation type="incident" objects="82,128"/>
<relation type="incident" objects="128,84"/>
<relation type="incident" objects="84,67"/>
<relation type="incident" objects="82,81"/>
<relation type="incident" objects="81,80"/>
<relation type="incident" objects="80,79"/>
<relation type="incident" objects="79,88"/>
<relation type="incident" objects="79,118"/>
<relation type="incident" objects="118,76"/>
<relation type="incident" objects="76,119"/>
<relation type="incident" objects="119,78"/>
<relation type="incident" objects="78,70"/>
<relation type="incident" objects="76,77"/>
<relation type="incident" objects="77,74"/>
<relation type="incident" objects="74,117"/>
<relation type="incident" objects="117,73"/>
<relation type="incident" objects="73,70"/>
<relation type="incident" objects="74,75"/>
<relation type="incident" objects="75,116"/>
<relation type="incident" objects="116,69"/>
<relation type="incident" objects="69,72"/>
<relation type="incident" objects="72,104"/>
<relation type="incident" objects="104,68"/>
<relation type="incident" objects="68,67"/>
<relation type="incident" objects="72,105"/>
<relation type="incident" objects="105,71"/>
<relation type="incident" objects="71,70"/>
<relation type="neighbour" objects="133,134"/>
<relation type="neighbour" objects="134,135"/>
<relation type="neighbour" objects="135,133"/>
<relation type="access" objects="135,117,134"/>
<relation type="access" objects="133,116,135"/>
<relation type="surround" objects="76,119,78,70,117,74,77,76,134"/>
<relation type="surround" objects="74,117,70,71,105,72,69,116,75,74,135"/>
<relation type="surround" objects="84,128,82,81,80,79,118,76,77,74,75,116,69,72,104,68,67,84,133"/>
<relation type="incident" objects="96,139"/>
<relation type="incident" objects="139,140"/>
<relation type="incident" objects="140,141"/>
<relation type="incident" objects="141,127"/>
<relation type="incident" objects="91,139"/>
<relation type="incident" objects="139,95"/>
<relation type="incident" objects="70,138"/>
<relation type="incident" objects="124,123"/>
<relation type="incident" objects="70,138"/>
<relation type="incident" objects="138,148"/>
<relation type="incident" objects="148,137"/>
<relation type="incident" objects="137,136"/>
<relation type="incident" objects="94,146"/>
<relation type="incident" objects="146,67"/>
<relation type="neighbour" objects="133,144"/>
<relation type="neighbour" objects="144,145"/>
<relation type="neighbour" objects="145,147"/>
<relation type="neighbour" objects="147,143"/>
<relation type="access" objects="144,128,133"/>
<relation type="access" objects="144,127,145"/>
<relation type="access" objects="147,123,143"/>
<relation type="access" objects="145,146,147"/>
<relation type="surround" objects="126,127,141,140,139,91,122,85,88,82,128,67,126,144"/>
<relation type="surround" objects="146,94,96,139,140,141,127,126,67,146,145"/>
<relation type="surround" objects="94,123,124,70,90,120,92,91,139,95,94,143"/>
<relation type="outerP" objects="165,180,163,162,179,166,150,149,151,181,153,152,182,171,176,177,172,183,169,168,167"/>
<relation type="incident" objects="150,149"/>
<relation type="incident" objects="149,151"/>
<relation type="incident" objects="151,181"/>
<relation type="incident" objects="181,153"/>
<relation type="incident" objects="153,152"/>
<relation type="incident" objects="152,154"/>
<relation type="incident" objects="154,155"/>
<relation type="incident" objects="154,158"/>
<relation type="incident" objects="158,155"/>
<relation type="incident" objects="155,156"/>
<relation type="incident" objects="156,157"/>
<relation type="incident" objects="157,158"/>
<relation type="incident" objects="157,159"/>
<relation type="incident" objects="159,160"/>
<relation type="incident" objects="160,185"/>
<relation type="incident" objects="185,164"/>
<relation type="incident" objects="164,163"/>
<relation type="incident" objects="163,162"/>
<relation type="incident" objects="162,179"/>
<relation type="incident" objects="163,180"/>
<relation type="incident" objects="179,166"/>
<relation type="incident" objects="166,150"/>
<relation type="incident" objects="180,165"/>
<relation type="incident" objects="165,167"/>
<relation type="incident" objects="159,161"/>
<relation type="incident" objects="161,184"/>
<relation type="incident" objects="184,178"/>
<relation type="incident" objects="152,182"/>
<relation type="incident" objects="182,171"/>
<relation type="incident" objects="171,176"/>
<relation type="incident" objects="176,182"/>
<relation type="incident" objects="176,177"/>
<relation type="incident" objects="177,172"/>
<relation type="incident" objects="172,171"/>
<relation type="incident" objects="171,170"/>
<relation type="incident" objects="172,170"/>
<relation type="incident" objects="170,178"/>
<relation type="incident" objects="170,167"/>
<relation type="incident" objects="172,183"/>
<relation type="incident" objects="172,175"/>
<relation type="incident" objects="175,174"/>
<relation type="incident" objects="174,173"/>
<relation type="incident" objects="173,172"/>
<relation type="incident" objects="168,169"/>
<relation type="incident" objects="168,167"/>
<relation type="incident" objects="169,183"/>
<relation type="neighbour" objects="186,187"/>
<relation type="neighbour" objects="187,188"/>
<relation type="neighbour" objects="188,186"/>
<relation type="access" objects="188,185,186"/>
<relation type="access" objects="186,184,187"/>
<relation type="surround" objects="165,180,163,185,159,161,184,178,170,167,165,186"/>
<relation type="surround" objects="159,157,158,154,152,182,171,170,178,184,161,159,187"/>
<relation type="surround" objects="163,162,179,166,150,149,151,181,153,154,155,156,159,185,163,188"/>
<relation type="incident" objects="98,100"/>
<relation type="incident" objects="100,65"/>
<relation type="incident" objects="65,101"/>
<relation type="outerP" objects="98,100,65,101,99,70,71,105,72,104,68,67"/>
<relation type="surround" objects="98,100,65,101,99,70,124,123,94,146,67,98,147"/>
</svg>