<?xml version="1.0" encoding="UTF-8"?><!DOCTYPE svg PUBLIC "-//W3C//DTD SVG 1.1//EN" "http://www.w3.org/Graphics/SVG/1.1/DTD/svg11.dtd">
<svg xmlns="http://www.w3.org/2000/svg" version="1.1">
<width>5671</width>
<height>7383</height>
<nclasslabel>6</nclasslabel>
<nclassappear>5</nclassappear>
<class>Door</class>
<class>Parking</class>
<class>Room</class>
<class>Separation</class>
<class>Wall</class>
<class>Window</class>
<polygon class="Wall" fill="#AFD8F8" id="14" transcription="" points="4501,4754 4490,4753 4489,4762 4316,4761 4317,4700 4328,4701 4327,4688 4501,4688 " />
<polygon class="Wall" fill="#AFD8F8" id="22" transcription="" points="4009,3856 4009,3811 3997,3811 3997,3856 " />
<polygon class="Wall" fill="#AFD8F8" id="23" transcription="" points="3727,4687.75 3838,4688.75 3839,4699.75 3849,4699.75 3848,4760.75 3728,4762 " />
<polygon class="Wall" fill="#AFD8F8" id="24" transcription="" points="4485,4154.5 4502,4155.5 4501,4688.5 4485,4687.5 " />
<polygon class="Wall" fill="#AFD8F8" id="25" transcription="" points="4906.5,4165.5 4500.5,4165.5 4500.5,4183.5 4907.5,4182.5 " />
<polygon class="Wall" fill="#AFD8F8" id="26" transcription="" points="4812.5,4936 4821.5,4936 4822.5,4924 5107.5,4924 5108.5,4998 4811.5,4998 " />
<polygon class="Wall" fill="#AFD8F8" id="27" transcription="" points="5108.5,1323 5146.5,1324 5147.5,5469 5107.5,5467 " />
<polygon class="Wall" fill="#AFD8F8" id="28" transcription="" points="3726.5,5505 5144.5,5505 5144.5,5467 3725.5,5467 " />
<polygon class="Wall" fill="#AFD8F8" id="29" transcription="" points="5096,4165.5 5109,4165.5 5109,4182.5 5096,4182.5 " />
<polygon class="Wall" fill="#AFD8F8" id="30" transcription="" points="3691,1462.25 3729,1461.25 3728,5505.25 3691,5505.75 " />
<polygon class="Wall" fill="#AFD8F8" id="31" transcription="" points="3837,1427 3836.5,1466.5 3691.5,1465.5 3691,1428 " />
<polygon class="Wall" fill="#AFD8F8" id="32" transcription="" points="3691,1264 3730,1264 3730,1290 3691,1290 " />
<polygon class="Wall" fill="#AFD8F8" id="33" transcription="" points="3691,1286.5 3718,1287.5 3717,1427.5 3691,1427.5 " />
<polygon class="Wall" fill="#AFD8F8" id="34" transcription="" points="5002.5,1251 5146.5,1251 5146.5,1324 5011.5,1324 5011.5,1313 5003.5,1313 " />
<polygon class="Wall" fill="#AFD8F8" id="35" transcription="" points="4011,2161.5 4048,2161.5 4048,2548.5 4011,2548.5 " />
<polygon class="Wall" fill="#AFD8F8" id="36" transcription="" points="4047,2509 4751,2509.5 4751,2548.5 4047,2548 " />
<polygon class="Wall" fill="#AFD8F8" id="37" transcription="" points="4873,2366.5 4892,2366.5 4892,2525.5 4873,2525.5 " />
<polygon class="Wall" fill="#AFD8F8" id="38" transcription="" points="4749,2509.5 4874,2509.5 4874,2528.5 4749,2528.5 " />
<polygon class="Wall" fill="#AFD8F8" id="39" transcription="" points="4717,2546 4750,2547 4750,3043 4717,3042 " />
<polygon class="Wall" fill="#AFD8F8" id="40" transcription="" points="4759.5,2549 4770.5,2548 4781.5,2553 4787.5,2566 4784.5,2578 4776.5,2585 4766.5,2586 4757.5,2585 4749.5,2576 4748.5,2563 4752.5,2553 " />
<polygon class="Wall" fill="#AFD8F8" id="41" transcription="" points="4749,3061.5 4892,3061.5 4892,3078.5 4749,3078.5 " />
<polygon class="Wall" fill="#AFD8F8" id="42" transcription="" points="4874.5,3079.5 4874.5,3252.5 4892.5,3252.5 4891.5,3078.5 " />
<polygon class="Wall" fill="#AFD8F8" id="43" transcription="" points="4045,3041 4749,3041 4749,3080 4047,3079 " />
<polygon class="Wall" fill="#AFD8F8" id="44" transcription="" points="4474,2548 4512,2545 4512,3045 4471,3046 " />
<polygon class="Wall" fill="#AFD8F8" id="45" transcription="" points="4423,3080 4423.5,3434.5 4461.5,3434.5 4461.5,3080.5 " />
<polygon class="Wall" fill="#AFD8F8" id="46" transcription="" points="4461.5,3451.5 4875.5,3452.5 4874.5,3468.5 4460.5,3468.5 " />
<polygon class="Wall" fill="#AFD8F8" id="47" transcription="" points="4874,3439 4892,3439 4892,3595 4874,3595 " />
<polygon class="Wall" fill="#AFD8F8" id="48" transcription="" points="4530,3078.5 4568,3078.5 4568,3233 4530,3233 " />
<polygon class="Wall" fill="#AFD8F8" id="49" transcription="" points="4461,3195 4532,3195 4532,3233 4461,3233 " />
<polygon class="Wall" fill="#AFD8F8" id="50" transcription="" points="3727,3432 4463,3431 4463,3469.5 3727,3469 " />
<polygon class="Wall" fill="#AFD8F8" id="51" transcription="" points="4011,3396 4048,3396 4048,3432 4011,3432 " />
<polygon class="Wall" fill="#AFD8F8" id="52" transcription="" points="3942,3814 4876,3814 4877,3797 3942,3798 " />
<polygon class="Wall" fill="#AFD8F8" id="53" transcription="" points="3932,3938.5 3954,3938.5 3954,3955.5 3932,3955.5 " />
<polygon class="Wall" fill="#AFD8F8" id="54" transcription="" points="3940,3814 3940,3941 3955,3941 3954,3814 " />
<polygon class="Wall" fill="#AFD8F8" id="55" transcription="" points="3952,3856.5 4007,3856.5 4007,3867.5 3952,3867.5 " />
<polygon class="Wall" fill="#AFD8F8" id="56" transcription="" points="4485,3812.5 4502,3813.5 4502,3963.5 4485,3963.5 " />
<polygon class="Wall" fill="#AFD8F8" id="57" transcription="" points="4875.5,3786 4875.5,3956 4892.5,3956 4892.5,3786 " />
<polygon class="Wall" fill="#AFD8F8" id="58" transcription="" points="4365,3469 4365,3800 4382,3800 4381,3468 " />
<polygon class="Wall" fill="#AFD8F8" id="59" transcription="" points="2092,948.5 2091,874.5 1876,875.5 1876,949.5 " />
<polygon class="Wall" fill="#AFD8F8" id="60" transcription="" points="1875,948.5 1913,948.5 1913,1003.5 1875,1003.5 " />
<polygon class="Wall" fill="#AFD8F8" id="61" transcription="" points="2385.5,875.5 2765.5,875.5 2764.5,948.5 2384.5,948.5 " />
<polygon class="Wall" fill="#AFD8F8" id="62" transcription="" points="2669,948 2685,948 2685,1004 2669,1004 " />
<polygon class="Wall" fill="#AFD8F8" id="63" transcription="" points="2973,875.5 3329,875.5 3329,949.5 2973,948.5 " />
<polygon class="Wall" fill="#AFD8F8" id="64" transcription="" points="3292,948.5 3331,948.5 3331,1003.5 3292,1003.5 " />
<polygon class="Wall" fill="#AFD8F8" id="65" transcription="" points="2486,1240.5 2760,1240.5 2760,1301.5 2750,1301.5 2750,1313.5 2497,1314.5 2496,1301.5 2486,1301.5 " />
<polygon class="Wall" fill="#AFD8F8" id="66" transcription="" points="2668,1311.5 2685,1312.5 2684,1844.5 2668,1844.5 " />
<polygon class="Wall" fill="#AFD8F8" id="67" transcription="" points="1875,1239 1914,1239 1913,4749 1875,4749 " />
<polygon class="Wall" fill="#AFD8F8" id="68" transcription="" points="1912.5,4675 2030.5,4675 2030.5,4749 1911.5,4749 " />
<polygon class="Wall" fill="#AFD8F8" id="69" transcription="" points="2668,4333 2684,4333 2684,4677 2668,4677 " />
<polygon class="Wall" fill="#AFD8F8" id="70" transcription="" points="3290.5,1239 3329.5,1239 3329.5,4913 3291.5,4913 " />
<polygon class="Wall" fill="#AFD8F8" id="71" transcription="" points="2999,4911 3332,4911 3332,4985 2999,4985 " />
<polygon class="Wall" fill="#AFD8F8" id="72" transcription="" points="2500,4677.5 2684,4677.5 2684,4750.5 2500,4750.5 " />
<polygon class="Wall" fill="#AFD8F8" id="73" transcription="" points="3279,3963.5 3293,3963.5 3293,3980.5 3279,3980.5 " />
<polygon class="Wall" fill="#AFD8F8" id="74" transcription="" points="2670,3962.5 3092,3962.5 3092,3978.5 2670,3979.5 " />
<polygon class="Wall" fill="#AFD8F8" id="75" transcription="" points="2669,3978 2685,3979 2685,4144 2669,4144 " />
<polygon class="Wall" fill="#AFD8F8" id="76" transcription="" points="2808,3536 2846,3536 2846,3610 2808,3610 " />
<polygon class="Wall" fill="#AFD8F8" id="77" transcription="" points="2821,3611.5 2835,3611.5 2835,3964.5 2821,3964.5 " />
<polygon class="Wall" fill="#AFD8F8" id="78" transcription="" points="2986,3537.5 3294,3537.5 3294,3610.5 2986,3610.5 " />
<polygon class="Wall" fill="#AFD8F8" id="79" transcription="" points="2606.5,3538.5 2668.5,3538.5 2668.5,3611.5 2605.5,3611.5 " />
<polygon class="Wall" fill="#AFD8F8" id="80" transcription="" points="2267,3596 2605,3596 2605,3610 2267,3610 " />
<polygon class="Wall" fill="#AFD8F8" id="81" transcription="" points="2254.5,3457 2254.5,3610 2269.5,3610 2269.5,3457 " />
<polygon class="Wall" fill="#AFD8F8" id="82" transcription="" points="2150,3419 2609,3418 2609,3457 2150,3457 " />
<polygon class="Wall" fill="#AFD8F8" id="83" transcription="" points="2194,3384.5 2232,3384.5 2232,3419.5 2194,3419.5 " />
<polygon class="Wall" fill="#AFD8F8" id="84" transcription="" points="1910,3420 1935,3420 1935,3458 1910,3458 " />
<polygon class="Wall" fill="#AFD8F8" id="85" transcription="" points="2195,3029 2752,3028 2752,3067 2195,3067 " />
<polygon class="Wall" fill="#AFD8F8" id="86" transcription="" points="2193,3066 2232,3067 2232,3102.5 2194,3102.5 " />
<polygon class="Wall" fill="#AFD8F8" id="87" transcription="" points="2713,3067 2751,3066 2751,3220.5 2714,3220.5 " />
<polygon class="Wall" fill="#AFD8F8" id="88" transcription="" points="2608,3066 2645,3066 2645,3538 2607,3538 " />
<polygon class="Wall" fill="#AFD8F8" id="89" transcription="" points="2645,3183.5 2714,3183.5 2714,3220.5 2645,3220.5 " />
<polygon class="Wall" fill="#AFD8F8" id="90" transcription="" points="3254,2836.5 3293,2836.5 3293,2763.5 3254,2763.5 " />
<polygon class="Wall" fill="#AFD8F8" id="91" transcription="" points="2901,2533 2934,2533 2934,2911 2901,2911 " />
<polygon class="Wall" fill="#AFD8F8" id="92" transcription="" points="2931,2762.5 2970,2762.5 2970,2835.5 2931,2835.5 " />
<polygon class="Wall" fill="#AFD8F8" id="93" transcription="" points="2151,2498.5 2934,2498.5 2934,2535.5 2151,2535.5 " />
<polygon class="Wall" fill="#AFD8F8" id="94" transcription="" points="2686,2201 3092,2201 3093,2217 2686,2217 " />
<polygon class="Wall" fill="#AFD8F8" id="95" transcription="" points="2809,2215.5 2825,2215.5 2825,2498.5 2809,2498.5 " />
<polygon class="Wall" fill="#AFD8F8" id="96" transcription="" points="2918,2218 2918,2500 2932,2500 2932,2218 " />
<polygon class="Wall" fill="#AFD8F8" id="97" transcription="" points="2670,2037.5 2686,2037.5 2686,2218.5 2670,2218.5 " />
<polygon class="Wall" fill="#AFD8F8" id="98" transcription="" points="1915.5,1240.5 2197.5,1240.5 2197.5,1301.5 2187.5,1301.5 2187.5,1313.5 1914.5,1313.5 " />
<polygon class="Wall" fill="#AFD8F8" id="99" transcription="" points="2973,1240.5 3291,1240.5 3291,1314.5 2982,1313.5 2982,1301.5 2973,1301.5 " />
<polygon class="Window" fill="#F6BD0F" id="100" transcription="" points="2193.5,1234.5 2490.5,1234.5 2489.5,1311.5 2194.5,1311.5 " />
<polygon class="Window" fill="#F6BD0F" id="101" transcription="" points="2762,1235.5 2978,1235.5 2975,1312.5 2762,1312.5 " />
<polygon class="Window" fill="#F6BD0F" id="102" transcription="" points="2086.5,871.5 2383.5,871.5 2383.5,948.5 2085.5,948.5 " />
<polygon class="Window" fill="#F6BD0F" id="103" transcription="" points="2762.5,870.5 2977.5,870.5 2977.5,947.5 2761.5,947.5 " />
<polygon class="Window" fill="#F6BD0F" id="104" transcription="" points="2028,4675 2501,4675 2501,4753 2026,4753 " />
<polygon class="Window" fill="#F6BD0F" id="105" transcription="" points="2610,4750 2688,4750 2687,4913 3001,4913 3001,4991 2610,4992 " />
<polygon class="Window" fill="#F6BD0F" id="106" transcription="" points="4579.5,1244.5 5006.5,1244.5 5007.5,1322.5 4579,1324 " />
<polygon class="Door" fill="#8BBA00" id="107" transcription="" points="3837.5,1452.5 3860.5,1564.5 3966.5,1668.5 4067.5,1685.5 4066.5,1453.5 " />
<polygon class="Door" fill="#8BBA00" id="108" transcription="" points="4034.5,1933.5 4260.5,1933.5 4241.5,2053.5 4155,2140 4032,2158 " />
<polygon class="Door" fill="#8BBA00" id="109" transcription="" points="4698.5,3446 4893.5,3444 4892.5,3253 4783.5,3266 4713.5,3338 " />
<polygon class="Door" fill="#8BBA00" id="110" transcription="" points="4701.5,3787.5 4894.5,3787.5 4893.5,3594.5 4802.5,3602.5 4714.5,3680.5 " />
<polygon class="Door" fill="#8BBA00" id="111" transcription="" points="4310.5,3962 4504.5,3962 4505.5,4158 4389.5,4146 4325.5,4060 " />
<polygon class="Window" fill="#F6BD0F" id="112" transcription="" points="3847,4687 3847,4765 4321,4765 4321,4687 " />
<polygon class="Window" fill="#F6BD0F" id="113" transcription="" points="4422,4758.5 4500,4758.5 4500,4924.5 4814,4924.5 4814,5001.5 4422,5001.5 " />
<polygon class="Door" fill="#8BBA00" id="114" transcription="" points="3734.5,3760.5 3738.5,3952.5 3930.5,3953.5 3922.5,3869.5 3853.5,3771.5 " />
<polygon class="Wall" fill="#AFD8F8" id="115" transcription="" points="3727,3940 3738,3940 3739,3956 3727,3956 " />
<polygon class="Door" fill="#8BBA00" id="116" transcription="" points="2668.5,4139 2864.5,4137 2844.5,4238 2764.5,4299 2671.5,4329 " />
<polygon class="Door" fill="#8BBA00" id="117" transcription="" points="3284,3786 3282,3976 3092,3976 3103,3892 3172,3800 " />
<polygon class="Window" fill="#F6BD0F" id="118" transcription="" points="2665,3533.5 2809,3532.5 2809,3609.5 2665,3610.5 " />
<polygon class="Window" fill="#F6BD0F" id="119" transcription="" points="2843,3532 2986,3533 2986,3610 2843,3610 " />
<polygon class="Window" fill="#F6BD0F" id="120" transcription="" points="2970,2760 3256,2760.5 3256,2837.5 2970,2837.5 " />
<polygon class="Wall" fill="#AFD8F8" id="121" transcription="" points="4010,3041 4010,3114 4047,3114 4046,3041 " />
<polygon class="Window" fill="#F6BD0F" id="122" transcription="" points="2748,3030 2900,3031 2900,2912 2938,2912 2937,3072 2748,3072 " />
<polygon class="Door" fill="#8BBA00" id="123" transcription="" points="3088.5,2202.5 3283.5,2201.5 3282.5,2396.5 3172.5,2382.5 3111.5,2307.5 " />
<polygon class="Wall" fill="#AFD8F8" id="124" transcription="" points="3281.5,2202 3281.5,2218 3292.5,2218 3292.5,2202 " />
<polygon class="Door" fill="#8BBA00" id="125" transcription="" points="2670,2038.5 2868,2038.5 2847,1927.5 2767,1862.5 2670,1847.5 " />
<polygon class="Wall" fill="#AFD8F8" id="126" transcription="" points="1911,2498.5 1937,2498.5 1937,2537.5 1911,2537.5 " />
<polygon class="Door" fill="#8BBA00" id="127" transcription="" points="1925,2299 1928.5,2519.5 2155.5,2518.5 2146.5,2423.5 2045.5,2298.5 " />
<polygon class="Door" fill="#8BBA00" id="128" transcription="" points="1932,3430 2154,3430 2146,3553 2048,3655 1918,3662 " />
<polygon class="Room" fill="#FF8E46" id="129" transcription="" points="1913,1318.5 2668,1318.5 2665,2223.5 2809,2223.5 2809,2501.5 1915,2501.5 " />
<polygon class="Room" fill="#FF8E46" id="130" transcription="" points="2691,1316.5 3300,1318.5 3299,2205.5 2691,2205.5 " />
<polygon class="Room" fill="#FF8E46" id="131" transcription="" points="2932.5,2217 3291.5,2216 3291.5,2762 2933.5,2763 " />
<polygon class="Room" fill="#FF8E46" id="132" transcription="" points="1916,2533.5 2198,2534.5 2195,3417.5 1916,3416.5 " />
<polygon class="Room" fill="#FF8E46" id="133" transcription="" points="1915,3459 2249,3461 2255,3619 2818,3613 2818,3964 2669,3964 2669,4679 1915,4679 " />
<polygon class="Room" fill="#FF8E46" id="134" transcription="" points="2836,3615 3294,3615 3294,3967 2836,3967 " />
<polygon class="Room" fill="#FF8E46" id="135" transcription="" points="2685,3980.5 3291,3980.5 3291,4913.5 2685,4913.5 " />
<polygon class="Room" fill="#FF8E46" id="136" transcription="" points="3728,1468.5 4240,1466.5 4237,1641 4118,1641 4118,1660 4238,1659.5 4237,1888.5 4008,1887 4005,3431.5 3728,3431.5 " />
<polygon class="Separation" fill="#008E8E" id="137" transcription="" points="4895,2365.5 5112,2365.5 5113,2380.5 4893,2380.5 " />
<polygon class="Room" fill="#FF8E46" id="138" transcription="" points="4278,1368 4458,1368 4456,1332 5108,1332 5106,2378 4876,2374 4872,2518 4050,2516 4048,1930 4282,1930 " />
<polygon class="Room" fill="#FF8E46" id="139" transcription="" points="4893,2382.5 5106,2382.5 5106,4159.5 4506,4162.5 4500,3809.5 4873,3809.5 4873,3956.5 4893,3952.5 4893,3056.5 4756,3056.5 4750,2592.5 4800,2592.5 4803,2526.5 4893,2529.5 " />
<polygon class="Room" fill="#FF8E46" id="140" transcription="" points="4568.5,3078.5 4875.5,3078.5 4874.5,3451.5 4462.5,3450.5 4461.5,3231.5 4567.5,3231.5 " />
<polygon class="Room" fill="#FF8E46" id="141" transcription="" points="4383,3471 4875,3471 4875,3803 4383,3803 " />
<polygon class="Door" fill="#8BBA00" id="142" transcription="" points="5098,4163 5100,4357 4986,4345 4918,4272 4908,4165 " />
<polygon class="Room" fill="#FF8E46" id="143" transcription="" points="4499,4180 5105,4180 5105,4924 4499,4924 " />
<polygon class="Room" fill="#FF8E46" id="144" transcription="" points="3726.5,3471.5 4362.5,3472.5 4361.5,3801.5 3936.5,3801.5 3936.5,3942.5 3725.5,3942.5 " />
<polygon class="Room" fill="#FF8E46" id="145" transcription="" points="3722.5,3958 3951.5,3958 3950.5,3868 4007.5,3868 4005.5,3815 4480.5,3814 4480.5,4690 3725.5,4690 " />
<polygon class="Wall" fill="#AFD8F8" id="146" transcription="" points="4417.5,1250 4580.5,1251 4580.5,1313 4571.5,1313 4571,1325 4418.5,1324 " />
<polygon class="Wall" fill="#AFD8F8" id="147" transcription="" points="4278,1321 4455,1322 4455,1360 4278,1359 " />
<polygon class="Wall" fill="#AFD8F8" id="148" transcription="" points="4240,1290 4278,1290 4278,1924 4240,1924 " />
<polygon class="Wall" fill="#AFD8F8" id="149" transcription="" points="4009.5,1946 4048.5,1946 4048.5,1884 4010.5,1884 " />
<polygon class="Wall" fill="#AFD8F8" id="150" transcription="" points="4047.5,1885.5 4239.5,1885.5 4239.5,1922.5 4046.5,1922.5 " />
<polygon class="Wall" fill="#AFD8F8" id="151" transcription="" points="4123,1640.5 4242,1641 4242,1657 4123,1657.5 " />
<polygon class="Wall" fill="#AFD8F8" id="152" transcription="" points="4118,1450 4242,1450 4241,1466 4118,1466 " />
<polygon class="Wall" fill="#AFD8F8" id="153" transcription="" points="4117,1252 4278,1252 4278,1290 4117,1290 " />
<polygon class="Wall" fill="#AFD8F8" id="154" transcription="" points="4788.5,2526 4787.5,2587 4799.5,2587 4799.5,2526 " />
<polygon class="Wall" fill="#AFD8F8" id="155" transcription="" points="4749.5,2586.5 4799.5,2587.5 4799.5,2600.5 4750.5,2599.5 " />
<relation type="outerP" objects="98,100,65,101,99,70,71,105,72,104,68,67"/>
<relation type="outerP" objects="31,107,152,148,147,146,106,34,27,28,30"/>
<relation type="incident" objects="98,100"/>
<relation type="incident" objects="100,65"/>
<relation type="incident" objects="65,101"/>
<relation type="incident" objects="101,99"/>
<relation type="incident" objects="99,70"/>
<relation type="incident" objects="65,66"/>
<relation type="incident" objects="66,125"/>
<relation type="incident" objects="125,97"/>
<relation type="incident" objects="97,94"/>
<relation type="incident" objects="94,123"/>
<relation type="incident" objects="123,70"/>
<relation type="incident" objects="94,95"/>
<relation type="incident" objects="95,93"/>
<relation type="incident" objects="93,96"/>
<relation type="incident" objects="96,94"/>
<relation type="incident" objects="93,127"/>
<relation type="incident" objects="127,126"/>
<relation type="incident" objects="126,67"/>
<relation type="incident" objects="93,91"/>
<relation type="incident" objects="91,92"/>
<relation type="incident" objects="92,120"/>
<relation type="incident" objects="120,90"/>
<relation type="incident" objects="90,70"/>
<relation type="incident" objects="67,98"/>
<relation type="incident" objects="91,122"/>
<relation type="incident" objects="122,85"/>
<relation type="incident" objects="85,86"/>
<relation type="incident" objects="85,87"/>
<relation type="incident" objects="87,89"/>
<relation type="incident" objects="89,88"/>
<relation type="incident" objects="88,85"/>
<relation type="incident" objects="88,82"/>
<relation type="incident" objects="82,83"/>
<relation type="incident" objects="82,128"/>
<relation type="incident" objects="128,84"/>
<relation type="incident" objects="84,67"/>
<relation type="incident" objects="82,81"/>
<relation type="incident" objects="81,80"/>
<relation type="incident" objects="80,79"/>
<relation type="incident" objects="79,88"/>
<relation type="incident" objects="79,118"/>
<relation type="incident" objects="118,76"/>
<relation type="incident" objects="76,119"/>
<relation type="incident" objects="119,78"/>
<relation type="incident" objects="78,70"/>
<relation type="incident" objects="76,77"/>
<relation type="incident" objects="77,74"/>
<relation type="incident" objects="74,117"/>
<relation type="incident" objects="117,73"/>
<relation type="incident" objects="73,70"/>
<relation type="incident" objects="74,75"/>
<relation type="incident" objects="75,116"/>
<relation type="incident" objects="116,69"/>
<relation type="incident" objects="69,72"/>
<relation type="incident" objects="72,104"/>
<relation type="incident" objects="104,68"/>
<relation type="incident" objects="68,67"/>
<relation type="incident" objects="72,105"/>
<relation type="incident" objects="105,71"/>
<relation type="incident" objects="71,70"/>
<relation type="incident" objects="60,59"/>
<relation type="incident" objects="59,102"/>
<relation type="incident" objects="102,61"/>
<relation type="incident" objects="61,62"/>
<relation type="incident" objects="61,103"/>
<relation type="incident" objects="103,63"/>
<relation type="incident" objects="63,64"/>
<relation type="incident" objects="32,33"/>
<relation type="incident" objects="33,31"/>
<relation type="incident" objects="31,30"/>
<relation type="incident" objects="31,107"/>
<relation type="incident" objects="107,152"/>
<relation type="incident" objects="152,148"/>
<relation type="incident" objects="148,151"/>
<relation type="incident" objects="148,150"/>
<relation type="incident" objects="150,149"/>
<relation type="incident" objects="148,153"/>
<relation type="incident" objects="148,147"/>
<relation type="incident" objects="147,146"/>
<relation type="incident" objects="149,108"/>
<relation type="incident" objects="146,106"/>
<relation type="incident" objects="106,34"/>
<relation type="incident" objects="34,27"/>
<relation type="incident" objects="27,137"/>
<relation type="incident" objects="137,37"/>
<relation type="incident" objects="37,38"/>
<relation type="incident" objects="38,154"/>
<relation type="incident" objects="154,155"/>
<relation type="incident" objects="155,39"/>
<relation type="incident" objects="39,36"/>
<relation type="incident" objects="36,38"/>
<relation type="incident" objects="36,35"/>
<relation type="incident" objects="35,108"/>
<relation type="incident" objects="36,44"/>
<relation type="incident" objects="44,43"/>
<relation type="incident" objects="43,39"/>
<relation type="incident" objects="43,121"/>
<relation type="incident" objects="43,45"/>
<relation type="incident" objects="43,48"/>
<relation type="incident" objects="48,49"/>
<relation type="incident" objects="49,45"/>
<relation type="incident" objects="43,41"/>
<relation type="incident" objects="41,42"/>
<relation type="incident" objects="42,109"/>
<relation type="incident" objects="109,47"/>
<relation type="incident" objects="47,46"/>
<relation type="incident" objects="46,50"/>
<relation type="incident" objects="50,51"/>
<relation type="incident" objects="50,30"/>
<relation type="incident" objects="47,110"/>
<relation type="incident" objects="110,57"/>
<relation type="incident" objects="57,52"/>
<relation type="incident" objects="52,58"/>
<relation type="incident" objects="58,50"/>
<relation type="incident" objects="52,22"/>
<relation type="incident" objects="22,55"/>
<relation type="incident" objects="55,54"/>
<relation type="incident" objects="54,52"/>
<relation type="incident" objects="54,53"/>
<relation type="incident" objects="53,114"/>
<relation type="incident" objects="114,115"/>
<relation type="incident" objects="115,30"/>
<relation type="incident" objects="52,56"/>
<relation type="incident" objects="56,111"/>
<relation type="incident" objects="111,24"/>
<relation type="incident" objects="24,25"/>
<relation type="incident" objects="25,142"/>
<relation type="incident" objects="142,27"/>
<relation type="incident" objects="24,14"/>
<relation type="incident" objects="14,113"/>
<relation type="incident" objects="113,26"/>
<relation type="incident" objects="26,27"/>
<relation type="incident" objects="27,28"/>
<relation type="incident" objects="14,112"/>
<relation type="incident" objects="112,23"/>
<relation type="incident" objects="23,30"/>
<relation type="incident" objects="30,28"/>
<relation type="neighbour" objects="129,130"/>
<relation type="neighbour" objects="130,131"/>
<relation type="neighbour" objects="129,132"/>
<relation type="neighbour" objects="132,133"/>
<relation type="neighbour" objects="133,134"/>
<relation type="neighbour" objects="134,135"/>
<relation type="neighbour" objects="135,133"/>
<relation type="neighbour" objects="136,138"/>
<relation type="neighbour" objects="138,139"/>
<relation type="neighbour" objects="139,140"/>
<relation type="neighbour" objects="139,141"/>
<relation type="neighbour" objects="141,140"/>
<relation type="neighbour" objects="139,143"/>
<relation type="neighbour" objects="143,145"/>
<relation type="neighbour" objects="145,139"/>
<relation type="neighbour" objects="145,141"/>
<relation type="neighbour" objects="145,144"/>
<relation type="neighbour" objects="144,141"/>
<relation type="neighbour" objects="144,136"/>
<relation type="access" objects="136,107,136"/>
<relation type="access" objects="136,108,138"/>
<relation type="access" objects="138,137,139"/>
<relation type="access" objects="139,109,140"/>
<relation type="access" objects="139,110,141"/>
<relation type="access" objects="139,142,143"/>
<relation type="access" objects="139,111,145"/>
<relation type="access" objects="145,114,144"/>
<relation type="access" objects="132,127,129"/>
<relation type="access" objects="129,125,130"/>
<relation type="access" objects="130,123,131"/>
<relation type="access" objects="132,128,133"/>
<relation type="access" objects="135,117,134"/>
<relation type="access" objects="133,116,135"/>
<relation type="surround" objects="98,100,65,66,125,97,94,96,93,127,126,67,98,129"/>
<relation type="surround" objects="65,101,99,70,123,94,97,125,66,65,130"/>
<relation type="surround" objects="94,123,70,90,120,92,91,93,95,94,131"/>
<relation type="surround" objects="126,127,93,91,122,85,88,82,128,84,67,126,132"/>
<relation type="surround" objects="76,119,78,70,117,74,77,76,134"/>
<relation type="surround" objects="74,117,70,71,105,72,69,116,75,74,135"/>
<relation type="surround" objects="84,128,82,81,80,79,118,76,77,74,75,116,69,72,104,68,67,84,133"/>
<relation type="surround" objects="31,107,152,148,150,149,108,35,36,44,43,45,50,30,31,136"/>
<relation type="surround" objects="150,148,147,146,106,34,27,137,37,38,36,35,108,149,150,138"/>
<relation type="surround" objects="25,142,29,27,26,113,14,24,25,143"/>
<relation type="surround" objects="49,48,43,41,42,109,47,46,50,45,49,140"/>
<relation type="surround" objects="155,154,38,37,137,27,142,25,24,111,56,52,57,110,47,109,42,41,43,39,155,139"/>
<relation type="surround" objects="50,46,47,110,57,52,58,50,141"/>
<relation type="surround" objects="50,58,52,54,53,114,115,30,50,144"/>
<relation type="surround" objects="114,53,54,55,22,52,56,111,24,14,112,23,30,115,114,145"/>
</svg>