<?xml version="1.0" encoding="UTF-8"?><!DOCTYPE svg PUBLIC "-//W3C//DTD SVG 1.1//EN" "http://www.w3.org/Graphics/SVG/1.1/DTD/svg11.dtd">
<svg xmlns="http://www.w3.org/2000/svg" version="1.1">
<width>5671</width>
<height>7383</height>
<nclasslabel>6</nclasslabel>
<nclassappear>6</nclassappear>
<class>Door</class>
<class>Parking</class>
<class>Room</class>
<class>Separation</class>
<class>Wall</class>
<class>Window</class>
<polygon class="Wall" fill="#AFD8F8" id="65" transcription="" points="4085,2106.8125 4149,2107.4375 4149,2168.4375 4139,2170.4375 4137,2181.4375 4097,2181.4375 4097,2170.1875 4085,2169.1875 " />
<polygon class="Wall" fill="#AFD8F8" id="67" transcription="" points="3635,2105 3674,2105 3674,5618 3635,5619 " />
<polygon class="Wall" fill="#AFD8F8" id="68" transcription="" points="3671.5,5542.5 3793,5543.5 3793,5617.5 3670.5,5619.5 " />
<polygon class="Wall" fill="#AFD8F8" id="69" transcription="" points="4429,5201 4445,5201 4447,5545 4429,5545 " />
<polygon class="Wall" fill="#AFD8F8" id="70" transcription="" points="5053.5,2107 5092.5,2107 5092.5,5781 5052,5782 " />
<polygon class="Wall" fill="#AFD8F8" id="71" transcription="" points="4757,5780 5092,5780 5092,5854 4758,5855 " />
<polygon class="Wall" fill="#AFD8F8" id="72" transcription="" points="4264,5544.5 4448,5544.5 4448,5617.5 4264,5617.5 " />
<polygon class="Wall" fill="#AFD8F8" id="73" transcription="" points="5042,4830.5 5056,4830.5 5056,4847.5 5042,4847.5 " />
<polygon class="Wall" fill="#AFD8F8" id="74" transcription="" points="4429,4830.5 4851,4830.5 4851,4848 4430,4849 " />
<polygon class="Wall" fill="#AFD8F8" id="75" transcription="" points="4430,4846 4447,4846 4446,5012 4430,5012 " />
<polygon class="Wall" fill="#AFD8F8" id="76" transcription="" points="4567,4405 4607,4404 4607,4479 4567,4479 " />
<polygon class="Wall" fill="#AFD8F8" id="77" transcription="" points="4580,4476.75 4595,4476 4596,4831 4580,4831.25 " />
<polygon class="Wall" fill="#AFD8F8" id="78" transcription="" points="4746,4405.5 5054,4405.5 5054,4478.5 4746,4478.5 " />
<polygon class="Wall" fill="#AFD8F8" id="79" transcription="" points="4367.5,4405.5 4429.5,4405.5 4429.5,4478.5 4366.5,4478.5 " />
<polygon class="Wall" fill="#AFD8F8" id="80" transcription="" points="4029.5,4464.5 4367.5,4464.5 4367.5,4478.5 4028.5,4479.5 " />
<polygon class="Wall" fill="#AFD8F8" id="81" transcription="" points="4015.75,4322 4016.25,4477 4032.25,4477 4032.25,4322 " />
<polygon class="Wall" fill="#AFD8F8" id="82" transcription="" points="3909.5,4286 4368.5,4285 4369.5,4326 3910.5,4326 " />
<polygon class="Wall" fill="#AFD8F8" id="83" transcription="" points="3954,3936.5 3993,3937 3994,3972 3954,3971.5 " />
<polygon class="Wall" fill="#AFD8F8" id="84" transcription="" points="3671,4286 3696,4286 3696,4324 3671,4324 " />
<polygon class="Wall" fill="#AFD8F8" id="85" transcription="" points="3953.5,3897 4430.5,3897 4431.5,3910 4440.5,3909 4441.5,3936 3954.5,3937 " />
<polygon class="Wall" fill="#AFD8F8" id="86" transcription="" points="3953,4252.5 3994,4253 3994,4288 3953,4287.5 " />
<polygon class="Wall" fill="#AFD8F8" id="88" transcription="" points="4367.5,3934 4405.5,3934 4406.5,4405 4368.5,4406 " />
<polygon class="Wall" fill="#AFD8F8" id="90" transcription="" points="5015,3703.5 5054,3703.5 5054,3630.5 5015,3630.5 " />
<polygon class="Wall" fill="#AFD8F8" id="91" transcription="" points="4660,3405 4695,3405 4695,3784 4662,3784 " />
<polygon class="Wall" fill="#AFD8F8" id="92" transcription="" points="4694,3629.5 4733,3629.5 4733,3702.5 4694,3702.5 " />
<polygon class="Wall" fill="#AFD8F8" id="94" transcription="" points="4430.5,3068.5 4852.5,3068.5 4852.5,3085.5 4431.5,3085.5 " />
<polygon class="Wall" fill="#AFD8F8" id="95" transcription="" points="4676.5,3083.25 4693.5,3083.75 4696,3366 4677.5,3366.75 " />
<polygon class="Wall" fill="#AFD8F8" id="96" transcription="" points="4569.5,3085 4569.5,3367 4587.5,3369 4586.5,3085 " />
<polygon class="Wall" fill="#AFD8F8" id="98" transcription="" points="3671.5,2104.5 3874.5,2104.5 3876.5,2167.5 3862,2166 3863.5,2181.5 3672.5,2181.5 " />
<polygon class="Wall" fill="#AFD8F8" id="99" transcription="" points="4437,2105 5054,2106 5054,2182 4451,2182 4450,2165.5 4437,2166 " />
<polygon class="Window" fill="#F6BD0F" id="100" transcription="" points="3871,2104 4087.5,2102.5 4086.5,2179.5 3871,2180 " />
<polygon class="Window" fill="#F6BD0F" id="101" transcription="" points="4143,2101.5 4439,2101 4441,2180 4143,2178.5 " />
<polygon class="Window" fill="#F6BD0F" id="104" transcription="" points="3790,5544 4263,5544 4263,5622 3788,5622 " />
<polygon class="Window" fill="#F6BD0F" id="105" transcription="" points="4369,5618 4447,5618 4446,5781 4760,5781 4760,5859 4369,5860 " />
<polygon class="Door" fill="#8BBA00" id="116" transcription="" points="4435.5,5012 4631.5,5010 4611.5,5111 4531.5,5172 4438.5,5202 " />
<polygon class="Door" fill="#8BBA00" id="117" transcription="" points="5049,4656 5047,4846 4857,4846 4868,4762 4937,4670 " />
<polygon class="Window" fill="#F6BD0F" id="118" transcription="" points="4427,4402.5 4571,4401.5 4571,4478.5 4427,4479.5 " />
<polygon class="Window" fill="#F6BD0F" id="119" transcription="" points="4604,4401 4747,4402 4747,4479 4604,4479 " />
<polygon class="Window" fill="#F6BD0F" id="120" transcription="" points="4733,3631.5 5017,3631.5 5017,3708.5 4731,3708.5 " />
<polygon class="Window" fill="#F6BD0F" id="122" transcription="" points="4437.5,3897.5 4661.5,3897.5 4661.5,3778.5 4699.5,3778.5 4699,3940 4440,3941 " />
<polygon class="Door" fill="#8BBA00" id="123" transcription="" points="4846.5,3068.5 5041.5,3067.5 5040.5,3262.5 4930.5,3248.5 4869.5,3173.5 " />
<polygon class="Wall" fill="#AFD8F8" id="124" transcription="" points="5042.5,3069 5042.5,3085 5053.5,3085 5053.5,3069 " />
<polygon class="Wall" fill="#AFD8F8" id="126" transcription="" points="3671,3613.5 3697,3613.5 3697,3633 3697,3652.5 3671,3652.5 " />
<polygon class="Door" fill="#8BBA00" id="127" transcription="" points="3683.5,3410.5 3683.5,3634.5 3910.5,3633.5 3901.5,3538.5 3800.5,3413.5 " />
<polygon class="Door" fill="#8BBA00" id="128" transcription="" points="3693,4299 3915,4299 3907,4422 3809,4524 3679,4531 " />
<polygon class="Room" fill="#FF8E46" id="133" transcription="" points="3677,4326 4011,4328 4017,4486 4580,4480 4580,4831 4431,4831 4431,5546 3677,5546 " />
<polygon class="Room" fill="#FF8E46" id="134" transcription="" points="4596,4473 5054,4473 5054,4825 4596,4825 " />
<polygon class="Room" fill="#FF8E46" id="135" transcription="" points="4445,4850.5 5051,4850.5 5051,5783.5 4445,5783.5 " />
<polygon class="Wall" fill="#AFD8F8" id="136" transcription="" points="4794,2402.5 4833,2401.5 4832,2859.5 4792,2859.5 " />
<polygon class="Wall" fill="#AFD8F8" id="137" transcription="" points="4827.5,2860 4852.5,2860 4851.5,2842 4828.5,2842 " />
<polygon class="Wall" fill="#AFD8F8" id="138" transcription="" points="5043,2841 5055,2841 5054,2859 5042,2859 " />
<polygon class="Wall" fill="#AFD8F8" id="139" transcription="" points="4054.5,3366.5 4696.5,3366 4695.5,3405.5 4055.5,3405.5 " />
<polygon class="Wall" fill="#AFD8F8" id="140" transcription="" points="4016,3365 4055,3365 4055,3653 4015,3653 " />
<polygon class="Wall" fill="#AFD8F8" id="141" transcription="" points="3910,3613.5 4016,3613.5 4017,3653.5 3910,3652.5 " />
<polygon class="Room" fill="#FF8E46" id="143" transcription="" points="4700,3089 5055,3089 5055,3635 4700,3635 " />
<polygon class="Room" fill="#FF8E46" id="144" transcription="" points="3670,3651.5 3949,3651.5 3949,4282.5 3670,4282.5 " />
<polygon class="Room" fill="#FF8E46" id="145" transcription="" points="3674,3614.5 4014,3615.5 4015,3368.5 4568,3366.5 4568,3086.5 3672,3089.5 " />
<polygon class="Separation" fill="#008E8E" id="146" transcription="" points="3678,3070 4432,3070 4432,3082 3678,3082 " />
<polygon class="Room" fill="#FF8E46" id="147" transcription="" points="3679,2184.5 5051,2184.5 5055,3067.5 3679,3067.5 " />
<polygon class="Door" fill="#8BBA00" id="148" transcription="" points="5046,2666 5043,2860 4856,2858 4858,2780 4936,2678 " />
<polygon class="Wall" fill="#AFD8F8" id="149" transcription="" points="3208.5,2188.75 3247,2189 3247,3640 3208,3639 " />
<polygon class="Wall" fill="#AFD8F8" id="150" transcription="" points="2659.5,2116 3248,2117 3248,2190 2660.5,2190 " />
<polygon class="Wall" fill="#AFD8F8" id="151" transcription="" points="3167,3650.75 3175,3650.75 3175,3639.75 3246,3638.25 3246,3714.25 3167,3715.25 " />
<polygon class="Wall" fill="#AFD8F8" id="152" transcription="" points="2779.5,3641 2779.5,3782 2790.5,3782 2791,3794 2850,3793 2848.5,3641 " />
<polygon class="Wall" fill="#AFD8F8" id="153" transcription="" points="2849,3640 3022,3640 3022,3649 3031,3649 3032,3714 2848,3715 " />
<polygon class="Wall" fill="#AFD8F8" id="154" transcription="" points="2822,3390 2849,3390 2849,3640 2821.5,3642 " />
<polygon class="Wall" fill="#AFD8F8" id="155" transcription="" points="2833,3077.5 2851,3077.5 2849,3390.5 2831,3390 " />
<polygon class="Wall" fill="#AFD8F8" id="156" transcription="" points="2737,3077.5 2833,3078 2833,3094.5 2739,3094.5 " />
<polygon class="Wall" fill="#AFD8F8" id="157" transcription="" points="2725,3077.5 2725,3390.5 2740,3390 2740,3076 " />
<polygon class="Wall" fill="#AFD8F8" id="158" transcription="" points="2738,3375.25 2831,3375.25 2831,3390 2738,3390.75 " />
<polygon class="Wall" fill="#AFD8F8" id="159" transcription="" points="2446.5,3077 2727,3077 2726,3104 2447.5,3103 " />
<polygon class="Wall" fill="#AFD8F8" id="160" transcription="" points="2606,3068.5 2624,3068.5 2624,3079.5 2606,3079.5 " />
<polygon class="Wall" fill="#AFD8F8" id="161" transcription="" points="2423.5,3076.75 2452,3077 2451.5,3507.75 2424.5,3507.25 " />
<polygon class="Wall" fill="#AFD8F8" id="163" transcription="" points="2401.5,2790.5 2717.5,2790.5 2721.5,2802.5 2733.5,2803.5 2733.5,2869.5 2411.5,2868.5 2414.5,2854.5 2404.5,2853.5 " />
<polygon class="Wall" fill="#AFD8F8" id="164" transcription="" points="2607,2864.5 2625,2864.5 2625,2881.5 2607,2881.5 " />
<polygon class="Wall" fill="#AFD8F8" id="165" transcription="" points="1790,2790 1934,2791 1934,2855 1925,2855 1925,2868 1790,2868 " />
<polygon class="Wall" fill="#AFD8F8" id="166" transcription="" points="2659,2181.5 2733,2181.5 2732,2406.5 2719,2405.5 2719,2416.5 2659,2416.5 " />
<polygon class="Wall" fill="#AFD8F8" id="167" transcription="" points="1790,2866 1828,2866 1828,5627 1789,5627.5 " />
<polygon class="Wall" fill="#AFD8F8" id="168" transcription="" points="1827,5587.5 2523,5588 2523,5626 1827,5626.5 " />
<polygon class="Wall" fill="#AFD8F8" id="169" transcription="" points="2523.5,5147.5 2535.5,5146.5 2535.5,5136.5 2561.5,5136.5 2561.5,5626.5 2522,5626 " />
<polygon class="Wall" fill="#AFD8F8" id="170" transcription="" points="1824,3906.5 2524,3905 2523,3946 1824,3945.5 " />
<polygon class="Wall" fill="#AFD8F8" id="171" transcription="" points="2522.5,3870 2585.5,3870 2585.5,3881 2596.5,3882 2596.5,3945 2521.5,3944 " />
<polygon class="Wall" fill="#AFD8F8" id="172" transcription="" points="2522,3943 2561,3942 2560.5,4464 2536.5,4464 2534.5,4454 2522,4455 " />
<polygon class="Wall" fill="#AFD8F8" id="173" transcription="" points="2183,4437.5 2524,4437.5 2524,4452.5 2183,4452.5 " />
<polygon class="Wall" fill="#AFD8F8" id="174" transcription="" points="2170,4320 2185,4320 2185,4453 2170,4453 " />
<polygon class="Wall" fill="#AFD8F8" id="175" transcription="" points="2185,4320 2525,4320 2525,4334 2185,4335 " />
<polygon class="Wall" fill="#AFD8F8" id="178" transcription="" points="2425,3906 2426,3692 2452,3693 2451,3906 " />
<polygon class="Window" fill="#F6BD0F" id="179" transcription="" points="2651.5,2408.75 2731.5,2408.75 2730.5,2790.25 2652.5,2789.25 " />
<polygon class="Window" fill="#F6BD0F" id="180" transcription="" points="1933,2785.5 2407,2785.5 2407,2868.5 1933,2868.5 " />
<polygon class="Window" fill="#F6BD0F" id="181" transcription="" points="3025,3638.5 3169,3638.5 3169,3717.5 3025,3717.5 " />
<polygon class="Window" fill="#F6BD0F" id="182" transcription="" points="2780.5,3786.5 2854.5,3786.5 2854.5,3949.5 2593,3946 2594,3870 2781.5,3869.5 " />
<polygon class="Parking" fill="#D64646" id="183" transcription="" points="2521.5,4458.5 2564,4460 2566,5139 2522.5,5137.5 " />
<polygon class="Door" fill="#8BBA00" id="184" transcription="" points="2430,3692.5 2635,3694.5 2620,3571.5 2508,3514.5 2430,3503.5 " />
<polygon class="Door" fill="#8BBA00" id="185" transcription="" points="2623,2878.5 2625,3067.5 2511,3061.5 2454,3004.5 2425,2873.5 " />
<polygon class="Room" fill="#FF8E46" id="186" transcription="" points="1834,2872.5 2609,2874.5 2610,3082.5 2427,3082.5 2430,3909.5 1834,3911.5 " />
<polygon class="Room" fill="#FF8E46" id="187" transcription="" points="2453.5,3105 2721.5,3105 2725.5,3392 2822.5,3394 2820.5,3640 2777.5,3641 2780.5,3874 2522.5,3874 2520.5,3908 2450.5,3905 " />
<polygon class="Room" fill="#FF8E46" id="188" transcription="" points="2734.5,2196 3198.5,2193 3214.5,3640 2854.5,3640 2844.5,3076 2624.5,3073 2621.5,2866 2741.5,2870 " />
<polygon class="Wall" fill="#AFD8F8" id="189" transcription="" points="2946,2409.5 2988,2409.5 2988,2868.5 2946,2868.5 " />
<relation type="incident" objects="98,100"/>
<relation type="incident" objects="101,99"/>
<relation type="incident" objects="99,70"/>
<relation type="incident" objects="94,123"/>
<relation type="incident" objects="94,95"/>
<relation type="incident" objects="96,94"/>
<relation type="incident" objects="127,126"/>
<relation type="incident" objects="126,67"/>
<relation type="incident" objects="91,92"/>
<relation type="incident" objects="92,120"/>
<relation type="incident" objects="120,90"/>
<relation type="incident" objects="90,70"/>
<relation type="incident" objects="67,98"/>
<relation type="incident" objects="91,122"/>
<relation type="incident" objects="122,85"/>
<relation type="incident" objects="85,86"/>
<relation type="incident" objects="88,85"/>
<relation type="incident" objects="88,82"/>
<relation type="incident" objects="82,83"/>
<relation type="incident" objects="82,128"/>
<relation type="incident" objects="128,84"/>
<relation type="incident" objects="84,67"/>
<relation type="incident" objects="82,81"/>
<relation type="incident" objects="81,80"/>
<relation type="incident" objects="80,79"/>
<relation type="incident" objects="79,88"/>
<relation type="incident" objects="79,118"/>
<relation type="incident" objects="118,76"/>
<relation type="incident" objects="76,119"/>
<relation type="incident" objects="119,78"/>
<relation type="incident" objects="78,70"/>
<relation type="incident" objects="76,77"/>
<relation type="incident" objects="77,74"/>
<relation type="incident" objects="74,117"/>
<relation type="incident" objects="117,73"/>
<relation type="incident" objects="73,70"/>
<relation type="incident" objects="74,75"/>
<relation type="incident" objects="75,116"/>
<relation type="incident" objects="116,69"/>
<relation type="incident" objects="69,72"/>
<relation type="incident" objects="72,104"/>
<relation type="incident" objects="104,68"/>
<relation type="incident" objects="68,67"/>
<relation type="incident" objects="72,105"/>
<relation type="incident" objects="105,71"/>
<relation type="incident" objects="71,70"/>
<relation type="neighbour" objects="133,134"/>
<relation type="neighbour" objects="134,135"/>
<relation type="neighbour" objects="135,133"/>
<relation type="access" objects="135,117,134"/>
<relation type="access" objects="133,116,135"/>
<relation type="surround" objects="76,119,78,70,117,74,77,76,134"/>
<relation type="surround" objects="74,117,70,71,105,72,69,116,75,74,135"/>
<relation type="surround" objects="84,128,82,81,80,79,118,76,77,74,75,116,69,72,104,68,67,84,133"/>
<relation type="incident" objects="96,139"/>
<relation type="incident" objects="139,140"/>
<relation type="incident" objects="140,141"/>
<relation type="incident" objects="141,127"/>
<relation type="incident" objects="91,139"/>
<relation type="incident" objects="139,95"/>
<relation type="incident" objects="70,138"/>
<relation type="incident" objects="124,123"/>
<relation type="incident" objects="70,138"/>
<relation type="incident" objects="138,148"/>
<relation type="incident" objects="148,137"/>
<relation type="incident" objects="137,136"/>
<relation type="incident" objects="94,146"/>
<relation type="incident" objects="146,67"/>
<relation type="neighbour" objects="133,144"/>
<relation type="neighbour" objects="144,145"/>
<relation type="neighbour" objects="145,147"/>
<relation type="neighbour" objects="147,143"/>
<relation type="access" objects="144,128,133"/>
<relation type="access" objects="144,127,145"/>
<relation type="access" objects="147,123,143"/>
<relation type="access" objects="145,146,147"/>
<relation type="surround" objects="126,127,141,140,139,91,122,85,88,82,128,67,126,144"/>
<relation type="surround" objects="146,94,96,139,140,141,127,126,67,146,145"/>
<relation type="surround" objects="94,123,124,70,90,120,92,91,139,95,94,143"/>
<relation type="incident" objects="150,149"/>
<relation type="incident" objects="149,151"/>
<relation type="incident" objects="151,181"/>
<relation type="incident" objects="181,153"/>
<relation type="incident" objects="153,152"/>
<relation type="incident" objects="152,154"/>
<relation type="incident" objects="154,155"/>
<relation type="incident" objects="154,158"/>
<relation type="incident" objects="158,155"/>
<relation type="incident" objects="155,156"/>
<relation type="incident" objects="156,157"/>
<relation type="incident" objects="157,158"/>
<relation type="incident" objects="157,159"/>
<relation type="incident" objects="159,160"/>
<relation type="incident" objects="160,185"/>
<relation type="incident" objects="185,164"/>
<relation type="incident" objects="164,163"/>
<relation type="incident" objects="163,180"/>
<relation type="incident" objects="179,166"/>
<relation type="incident" objects="166,150"/>
<relation type="incident" objects="180,165"/>
<relation type="incident" objects="165,167"/>
<relation type="incident" objects="159,161"/>
<relation type="incident" objects="161,184"/>
<relation type="incident" objects="184,178"/>
<relation type="incident" objects="152,182"/>
<relation type="incident" objects="182,171"/>
<relation type="incident" objects="172,171"/>
<relation type="incident" objects="171,170"/>
<relation type="incident" objects="172,170"/>
<relation type="incident" objects="170,178"/>
<relation type="incident" objects="170,167"/>
<relation type="incident" objects="172,183"/>
<relation type="incident" objects="172,175"/>
<relation type="incident" objects="175,174"/>
<relation type="incident" objects="174,173"/>
<relation type="incident" objects="173,172"/>
<relation type="incident" objects="168,169"/>
<relation type="incident" objects="168,167"/>
<relation type="incident" objects="169,183"/>
<relation type="neighbour" objects="186,187"/>
<relation type="neighbour" objects="187,188"/>
<relation type="neighbour" objects="188,186"/>
<relation type="access" objects="188,185,186"/>
<relation type="access" objects="186,184,187"/>
<relation type="surround" objects="165,180,163,185,159,161,184,178,170,167,165,186"/>
<relation type="surround" objects="159,157,158,154,152,182,171,170,178,184,161,159,187"/>
<relation type="outerP" objects="150,149,151,181,153,152,182,171,172,183,169,168,167,165,180,163,179,166"/>
<relation type="surround" objects="150,149,151,181,153,154,155,156,157,159,160,185,164,163,179,166,150,188"/>
<relation type="outerP" objects="98,100,65,101,99,70,71,105,72,104,68,67"/>
<relation type="incident" objects="100,65"/>
<relation type="incident" objects="101,65"/>
<relation type="incident" objects="179,163"/>
<relation type="surround" objects="98,100,65,101,99,70,124,123,94,146,67,98,147"/>
</svg>