<?xml version="1.0" encoding="UTF-8"?><!DOCTYPE svg PUBLIC "-//W3C//DTD SVG 1.1//EN" "http://www.w3.org/Graphics/SVG/1.1/DTD/svg11.dtd">
<svg xmlns="http://www.w3.org/2000/svg" version="1.1">
<width>5671</width>
<height>7383</height>
<nclasslabel>6</nclasslabel>
<nclassappear>5</nclassappear>
<class>Door</class>
<class>Parking</class>
<class>Room</class>
<class>Separation</class>
<class>Wall</class>
<class>Window</class>
<polygon class="Wall" fill="#AFD8F8" id="14" transcription="" points="4501,5517 4490,5516 4489,5525 4316,5524 4317,5463 4328,5464 4327,5451 4501,5451 " />
<polygon class="Wall" fill="#AFD8F8" id="22" transcription="" points="4009,4619 4009,4574 3997,4574 3997,4619 " />
<polygon class="Wall" fill="#AFD8F8" id="23" transcription="" points="3727,5450.75 3838,5451.75 3839,5462.75 3849,5462.75 3848,5523.75 3728,5525 " />
<polygon class="Wall" fill="#AFD8F8" id="24" transcription="" points="4485,4917.5 4502,4918.5 4501,5451.5 4485,5450.5 " />
<polygon class="Wall" fill="#AFD8F8" id="25" transcription="" points="4906.5,4928.5 4500.5,4928.5 4500.5,4946.5 4907.5,4945.5 " />
<polygon class="Wall" fill="#AFD8F8" id="26" transcription="" points="4812.5,5699 4821.5,5699 4822.5,5687 5107.5,5687 5108.5,5761 4811.5,5761 " />
<polygon class="Wall" fill="#AFD8F8" id="27" transcription="" points="5108.5,2086 5146.5,2087 5147.5,6232 5107.5,6230 " />
<polygon class="Wall" fill="#AFD8F8" id="28" transcription="" points="3726.5,6268 5144.5,6268 5144.5,6230 3725.5,6230 " />
<polygon class="Wall" fill="#AFD8F8" id="29" transcription="" points="5096,4928.5 5109,4928.5 5109,4945.5 5096,4945.5 " />
<polygon class="Wall" fill="#AFD8F8" id="30" transcription="" points="3691,2225.25 3729,2224.25 3728,6268.25 3691,6268.75 " />
<polygon class="Wall" fill="#AFD8F8" id="31" transcription="" points="3837,2190 3836.5,2229.5 3691.5,2228.5 3691,2191 " />
<polygon class="Wall" fill="#AFD8F8" id="32" transcription="" points="3691,2027 3730,2027 3730,2053 3691,2053 " />
<polygon class="Wall" fill="#AFD8F8" id="33" transcription="" points="3691,2049.5 3718,2050.5 3717,2190.5 3691,2190.5 " />
<polygon class="Wall" fill="#AFD8F8" id="34" transcription="" points="5002.5,2014 5146.5,2014 5146.5,2087 5011.5,2087 5011.5,2076 5003.5,2076 " />
<polygon class="Wall" fill="#AFD8F8" id="35" transcription="" points="4011,2924.5 4048,2924.5 4048,3311.5 4011,3311.5 " />
<polygon class="Wall" fill="#AFD8F8" id="36" transcription="" points="4047,3272 4751,3272.5 4751,3311.5 4047,3311 " />
<polygon class="Wall" fill="#AFD8F8" id="37" transcription="" points="4873,3129.5 4892,3129.5 4892,3288.5 4873,3288.5 " />
<polygon class="Wall" fill="#AFD8F8" id="38" transcription="" points="4749,3272.5 4874,3272.5 4874,3291.5 4749,3291.5 " />
<polygon class="Wall" fill="#AFD8F8" id="39" transcription="" points="4717,3309 4750,3310 4750,3806 4717,3805 " />
<polygon class="Wall" fill="#AFD8F8" id="40" transcription="" points="4759.5,3312 4770.5,3311 4781.5,3316 4787.5,3329 4784.5,3341 4776.5,3348 4766.5,3349 4757.5,3348 4749.5,3339 4748.5,3326 4752.5,3316 " />
<polygon class="Wall" fill="#AFD8F8" id="41" transcription="" points="4749,3824.5 4892,3824.5 4892,3841.5 4749,3841.5 " />
<polygon class="Wall" fill="#AFD8F8" id="42" transcription="" points="4874.5,3842.5 4874.5,4015.5 4892.5,4015.5 4891.5,3841.5 " />
<polygon class="Wall" fill="#AFD8F8" id="43" transcription="" points="4045,3804 4749,3804 4749,3843 4047,3842 " />
<polygon class="Wall" fill="#AFD8F8" id="44" transcription="" points="4474,3311 4512,3308 4512,3808 4471,3809 " />
<polygon class="Wall" fill="#AFD8F8" id="45" transcription="" points="4423,3843 4423.5,4197.5 4461.5,4197.5 4461.5,3843.5 " />
<polygon class="Wall" fill="#AFD8F8" id="46" transcription="" points="4461.5,4214.5 4875.5,4215.5 4874.5,4231.5 4460.5,4231.5 " />
<polygon class="Wall" fill="#AFD8F8" id="47" transcription="" points="4874,4202 4892,4202 4892,4358 4874,4358 " />
<polygon class="Wall" fill="#AFD8F8" id="48" transcription="" points="4530,3841.5 4568,3841.5 4568,3996 4530,3996 " />
<polygon class="Wall" fill="#AFD8F8" id="49" transcription="" points="4461,3958 4532,3958 4532,3996 4461,3996 " />
<polygon class="Wall" fill="#AFD8F8" id="50" transcription="" points="3727,4195 4463,4194 4463,4232.5 3727,4232 " />
<polygon class="Wall" fill="#AFD8F8" id="51" transcription="" points="4011,4159 4048,4159 4048,4195 4011,4195 " />
<polygon class="Wall" fill="#AFD8F8" id="52" transcription="" points="3942,4577 4876,4577 4877,4560 3942,4561 " />
<polygon class="Wall" fill="#AFD8F8" id="53" transcription="" points="3932,4701.5 3954,4701.5 3954,4718.5 3932,4718.5 " />
<polygon class="Wall" fill="#AFD8F8" id="54" transcription="" points="3940,4577 3940,4704 3955,4704 3954,4577 " />
<polygon class="Wall" fill="#AFD8F8" id="55" transcription="" points="3952,4619.5 4007,4619.5 4007,4630.5 3952,4630.5 " />
<polygon class="Wall" fill="#AFD8F8" id="56" transcription="" points="4485,4575.5 4502,4576.5 4502,4726.5 4485,4726.5 " />
<polygon class="Wall" fill="#AFD8F8" id="57" transcription="" points="4875.5,4549 4875.5,4719 4892.5,4719 4892.5,4549 " />
<polygon class="Wall" fill="#AFD8F8" id="58" transcription="" points="4365,4232 4365,4563 4382,4563 4381,4231 " />
<polygon class="Wall" fill="#AFD8F8" id="59" transcription="" points="2089,1714 2090,1639 1912,1639 1914,1713 " />
<polygon class="Wall" fill="#AFD8F8" id="60" transcription="" points="1875,1640 1913,1639 1913,1766.5 1875,1766.5 " />
<polygon class="Wall" fill="#AFD8F8" id="61" transcription="" points="2381,1640 2764,1639 2767,1711.5 2385,1711 " />
<polygon class="Wall" fill="#AFD8F8" id="62" transcription="" points="2670,1712 2685,1711 2685,1767 2669,1767 " />
<polygon class="Wall" fill="#AFD8F8" id="63" transcription="" points="2973.5,1640.5 3294,1640 3294,1712 2974,1710 " />
<polygon class="Wall" fill="#AFD8F8" id="64" transcription="" points="3290,1639 3331,1640 3331,1766.5 3292,1766.5 " />
<polygon class="Wall" fill="#AFD8F8" id="65" transcription="" points="2486,2003.5 2760,2003.5 2760,2064.5 2750,2064.5 2750,2076.5 2497,2077.5 2496,2064.5 2486,2064.5 " />
<polygon class="Wall" fill="#AFD8F8" id="66" transcription="" points="2668,2074.5 2685,2075.5 2684,2607.5 2668,2607.5 " />
<polygon class="Wall" fill="#AFD8F8" id="67" transcription="" points="1875,2002 1914,2002 1913,5512 1875,5512 " />
<polygon class="Wall" fill="#AFD8F8" id="68" transcription="" points="1912.5,5438 2030.5,5438 2030.5,5512 1911.5,5512 " />
<polygon class="Wall" fill="#AFD8F8" id="69" transcription="" points="2668,5096 2684,5096 2684,5440 2668,5440 " />
<polygon class="Wall" fill="#AFD8F8" id="70" transcription="" points="3290.5,2002 3329.5,2002 3329.5,5676 3291.5,5676 " />
<polygon class="Wall" fill="#AFD8F8" id="71" transcription="" points="2999,5674 3332,5674 3332,5748 2999,5748 " />
<polygon class="Wall" fill="#AFD8F8" id="72" transcription="" points="2500,5440.5 2684,5440.5 2684,5513.5 2500,5513.5 " />
<polygon class="Wall" fill="#AFD8F8" id="73" transcription="" points="3279,4726.5 3293,4726.5 3293,4743.5 3279,4743.5 " />
<polygon class="Wall" fill="#AFD8F8" id="74" transcription="" points="2670,4725.5 3092,4725.5 3092,4741.5 2670,4742.5 " />
<polygon class="Wall" fill="#AFD8F8" id="75" transcription="" points="2669,4741 2685,4742 2685,4907 2669,4907 " />
<polygon class="Wall" fill="#AFD8F8" id="76" transcription="" points="2808,4299 2846,4299 2846,4373 2808,4373 " />
<polygon class="Wall" fill="#AFD8F8" id="77" transcription="" points="2821,4374.5 2835,4374.5 2835,4727.5 2821,4727.5 " />
<polygon class="Wall" fill="#AFD8F8" id="78" transcription="" points="2986,4300.5 3294,4300.5 3294,4373.5 2986,4373.5 " />
<polygon class="Wall" fill="#AFD8F8" id="79" transcription="" points="2606.5,4301.5 2668.5,4301.5 2668.5,4374.5 2605.5,4374.5 " />
<polygon class="Wall" fill="#AFD8F8" id="80" transcription="" points="2267,4359 2605,4359 2605,4373 2267,4373 " />
<polygon class="Wall" fill="#AFD8F8" id="81" transcription="" points="2254.5,4220 2254.5,4373 2269.5,4373 2269.5,4220 " />
<polygon class="Wall" fill="#AFD8F8" id="82" transcription="" points="2150,4182 2609,4181 2609,4220 2150,4220 " />
<polygon class="Wall" fill="#AFD8F8" id="83" transcription="" points="2194,4147.5 2232,4147.5 2232,4182.5 2194,4182.5 " />
<polygon class="Wall" fill="#AFD8F8" id="84" transcription="" points="1910,4183 1935,4183 1935,4221 1910,4221 " />
<polygon class="Wall" fill="#AFD8F8" id="85" transcription="" points="2195,3792 2752,3791 2752,3830 2195,3830 " />
<polygon class="Wall" fill="#AFD8F8" id="86" transcription="" points="2193,3829 2232,3830 2232,3865.5 2194,3865.5 " />
<polygon class="Wall" fill="#AFD8F8" id="87" transcription="" points="2713,3830 2751,3829 2751,3983.5 2714,3983.5 " />
<polygon class="Wall" fill="#AFD8F8" id="88" transcription="" points="2608,3829 2645,3829 2645,4301 2607,4301 " />
<polygon class="Wall" fill="#AFD8F8" id="89" transcription="" points="2645,3946.5 2714,3946.5 2714,3983.5 2645,3983.5 " />
<polygon class="Wall" fill="#AFD8F8" id="90" transcription="" points="3254,3599.5 3293,3599.5 3293,3526.5 3254,3526.5 " />
<polygon class="Wall" fill="#AFD8F8" id="91" transcription="" points="2901,3296 2934,3296 2934,3674 2901,3674 " />
<polygon class="Wall" fill="#AFD8F8" id="92" transcription="" points="2931,3525.5 2970,3525.5 2970,3598.5 2931,3598.5 " />
<polygon class="Wall" fill="#AFD8F8" id="93" transcription="" points="2151,3261.5 2934,3261.5 2934,3298.5 2151,3298.5 " />
<polygon class="Wall" fill="#AFD8F8" id="94" transcription="" points="2686,2964 3092,2964 3093,2980 2686,2980 " />
<polygon class="Wall" fill="#AFD8F8" id="95" transcription="" points="2809,2978.5 2825,2978.5 2825,3261.5 2809,3261.5 " />
<polygon class="Wall" fill="#AFD8F8" id="96" transcription="" points="2918,2981 2918,3263 2932,3263 2932,2981 " />
<polygon class="Wall" fill="#AFD8F8" id="97" transcription="" points="2670,2800.5 2686,2800.5 2686,2981.5 2670,2981.5 " />
<polygon class="Wall" fill="#AFD8F8" id="98" transcription="" points="1915.5,2003.5 2197.5,2003.5 2197.5,2064.5 2187.5,2064.5 2187.5,2076.5 1914.5,2076.5 " />
<polygon class="Wall" fill="#AFD8F8" id="99" transcription="" points="2973,2003.5 3291,2003.5 3291,2077.5 2982,2076.5 2982,2064.5 2973,2064.5 " />
<polygon class="Window" fill="#F6BD0F" id="100" transcription="" points="2193.5,1997.5 2490.5,1997.5 2489.5,2074.5 2194.5,2074.5 " />
<polygon class="Window" fill="#F6BD0F" id="101" transcription="" points="2762,1998.5 2978,1998.5 2975,2075.5 2762,2075.5 " />
<polygon class="Window" fill="#F6BD0F" id="102" transcription="" points="2089,1634.5 2384,1637 2386,1711.5 2089,1710 " />
<polygon class="Window" fill="#F6BD0F" id="103" transcription="" points="2759,1637.25 2972,1635.75 2974,1714.25 2761,1712.75 " />
<polygon class="Window" fill="#F6BD0F" id="104" transcription="" points="2028,5438 2501,5438 2501,5516 2026,5516 " />
<polygon class="Window" fill="#F6BD0F" id="105" transcription="" points="2610,5513 2688,5513 2687,5676 3001,5676 3001,5754 2610,5755 " />
<polygon class="Window" fill="#F6BD0F" id="106" transcription="" points="4579.5,2007.5 5006.5,2007.5 5007.5,2085.5 4579,2087 " />
<polygon class="Door" fill="#8BBA00" id="107" transcription="" points="3837.5,2215.5 3860.5,2327.5 3966.5,2431.5 4067.5,2448.5 4066.5,2216.5 " />
<polygon class="Door" fill="#8BBA00" id="108" transcription="" points="4034.5,2696.5 4260.5,2696.5 4241.5,2816.5 4155,2903 4032,2921 " />
<polygon class="Door" fill="#8BBA00" id="109" transcription="" points="4698.5,4209 4893.5,4207 4892.5,4016 4783.5,4029 4713.5,4101 " />
<polygon class="Door" fill="#8BBA00" id="110" transcription="" points="4701.5,4550.5 4894.5,4550.5 4893.5,4357.5 4802.5,4365.5 4714.5,4443.5 " />
<polygon class="Door" fill="#8BBA00" id="111" transcription="" points="4310.5,4725 4504.5,4725 4505.5,4921 4389.5,4909 4325.5,4823 " />
<polygon class="Window" fill="#F6BD0F" id="112" transcription="" points="3847,5450 3847,5528 4321,5528 4321,5450 " />
<polygon class="Window" fill="#F6BD0F" id="113" transcription="" points="4422,5521.5 4500,5521.5 4500,5687.5 4814,5687.5 4814,5764.5 4422,5764.5 " />
<polygon class="Door" fill="#8BBA00" id="114" transcription="" points="3734.5,4523.5 3738.5,4715.5 3930.5,4716.5 3922.5,4632.5 3853.5,4534.5 " />
<polygon class="Wall" fill="#AFD8F8" id="115" transcription="" points="3727,4703 3738,4703 3739,4719 3727,4719 " />
<polygon class="Door" fill="#8BBA00" id="116" transcription="" points="2668.5,4902 2864.5,4900 2844.5,5001 2764.5,5062 2671.5,5092 " />
<polygon class="Door" fill="#8BBA00" id="117" transcription="" points="3284,4549 3282,4739 3092,4739 3103,4655 3172,4563 " />
<polygon class="Window" fill="#F6BD0F" id="118" transcription="" points="2665,4296.5 2809,4295.5 2809,4372.5 2665,4373.5 " />
<polygon class="Window" fill="#F6BD0F" id="119" transcription="" points="2843,4295 2986,4296 2986,4373 2843,4373 " />
<polygon class="Window" fill="#F6BD0F" id="120" transcription="" points="2970,3523 3256,3523.5 3256,3600.5 2970,3600.5 " />
<polygon class="Wall" fill="#AFD8F8" id="121" transcription="" points="4010,3804 4010,3877 4047,3877 4046,3804 " />
<polygon class="Window" fill="#F6BD0F" id="122" transcription="" points="2748,3793 2900,3794 2900,3675 2938,3675 2937,3835 2748,3835 " />
<polygon class="Door" fill="#8BBA00" id="123" transcription="" points="3088.5,2965.5 3283.5,2964.5 3282.5,3159.5 3172.5,3145.5 3111.5,3070.5 " />
<polygon class="Wall" fill="#AFD8F8" id="124" transcription="" points="3281.5,2965 3281.5,2981 3292.5,2981 3292.5,2965 " />
<polygon class="Door" fill="#8BBA00" id="125" transcription="" points="2670,2801.5 2868,2801.5 2847,2690.5 2767,2625.5 2670,2610.5 " />
<polygon class="Wall" fill="#AFD8F8" id="126" transcription="" points="1911,3261.5 1937,3261.5 1937,3300.5 1911,3300.5 " />
<polygon class="Door" fill="#8BBA00" id="127" transcription="" points="1925,3062 1928.5,3282.5 2155.5,3281.5 2146.5,3186.5 2045.5,3061.5 " />
<polygon class="Door" fill="#8BBA00" id="128" transcription="" points="1932,4193 2154,4193 2146,4316 2048,4418 1918,4425 " />
<polygon class="Room" fill="#FF8E46" id="129" transcription="" points="1913,2081.5 2668,2081.5 2665,2986.5 2809,2986.5 2809,3264.5 1915,3264.5 " />
<polygon class="Room" fill="#FF8E46" id="130" transcription="" points="2691,2079.5 3300,2081.5 3299,2968.5 2691,2968.5 " />
<polygon class="Room" fill="#FF8E46" id="131" transcription="" points="2932.5,2980 3291.5,2979 3291.5,3525 2933.5,3526 " />
<polygon class="Room" fill="#FF8E46" id="132" transcription="" points="1916,3296.5 2198,3297.5 2195,4180.5 1916,4179.5 " />
<polygon class="Room" fill="#FF8E46" id="133" transcription="" points="1915,4222 2249,4224 2255,4382 2818,4376 2818,4727 2669,4727 2669,5442 1915,5442 " />
<polygon class="Room" fill="#FF8E46" id="134" transcription="" points="2836,4378 3294,4378 3294,4730 2836,4730 " />
<polygon class="Room" fill="#FF8E46" id="135" transcription="" points="2685,4743.5 3291,4743.5 3291,5676.5 2685,5676.5 " />
<polygon class="Room" fill="#FF8E46" id="136" transcription="" points="3728,2231.5 4240,2229.5 4237,2404 4118,2404 4118,2423 4238,2422.5 4237,2651.5 4008,2650 4005,4194.5 3728,4194.5 " />
<polygon class="Separation" fill="#008E8E" id="137" transcription="" points="4895,3128.5 5112,3128.5 5113,3143.5 4893,3143.5 " />
<polygon class="Room" fill="#FF8E46" id="138" transcription="" points="4278,2131 4458,2131 4456,2095 5108,2095 5106,3141 4876,3137 4872,3281 4050,3279 4048,2693 4282,2693 " />
<polygon class="Room" fill="#FF8E46" id="139" transcription="" points="4893,3145.5 5106,3145.5 5106,4922.5 4506,4925.5 4500,4572.5 4873,4572.5 4873,4719.5 4893,4715.5 4893,3819.5 4756,3819.5 4750,3355.5 4800,3355.5 4803,3289.5 4893,3292.5 " />
<polygon class="Room" fill="#FF8E46" id="140" transcription="" points="4568.5,3841.5 4875.5,3841.5 4874.5,4214.5 4462.5,4213.5 4461.5,3994.5 4567.5,3994.5 " />
<polygon class="Room" fill="#FF8E46" id="141" transcription="" points="4383,4234 4875,4234 4875,4566 4383,4566 " />
<polygon class="Door" fill="#8BBA00" id="142" transcription="" points="5098,4926 5100,5120 4986,5108 4918,5035 4908,4928 " />
<polygon class="Room" fill="#FF8E46" id="143" transcription="" points="4499,4943 5105,4943 5105,5687 4499,5687 " />
<polygon class="Room" fill="#FF8E46" id="144" transcription="" points="3726.5,4234.5 4362.5,4235.5 4361.5,4564.5 3936.5,4564.5 3936.5,4705.5 3725.5,4705.5 " />
<polygon class="Room" fill="#FF8E46" id="145" transcription="" points="3722.5,4721 3951.5,4721 3950.5,4631 4007.5,4631 4005.5,4578 4480.5,4577 4480.5,5453 3725.5,5453 " />
<polygon class="Wall" fill="#AFD8F8" id="146" transcription="" points="4417.5,2013 4580.5,2014 4580.5,2076 4571.5,2076 4571,2088 4418.5,2087 " />
<polygon class="Wall" fill="#AFD8F8" id="147" transcription="" points="4278,2084 4455,2085 4455,2123 4278,2122 " />
<polygon class="Wall" fill="#AFD8F8" id="148" transcription="" points="4240,2053 4278,2053 4278,2687 4240,2687 " />
<polygon class="Wall" fill="#AFD8F8" id="149" transcription="" points="4009.5,2709 4048.5,2709 4048.5,2647 4010.5,2647 " />
<polygon class="Wall" fill="#AFD8F8" id="150" transcription="" points="4047.5,2648.5 4239.5,2648.5 4239.5,2685.5 4046.5,2685.5 " />
<polygon class="Wall" fill="#AFD8F8" id="151" transcription="" points="4123,2403.5 4242,2404 4242,2420 4123,2420.5 " />
<polygon class="Wall" fill="#AFD8F8" id="152" transcription="" points="4118,2213 4242,2213 4241,2229 4118,2229 " />
<polygon class="Wall" fill="#AFD8F8" id="153" transcription="" points="4117,2015 4278,2015 4278,2053 4117,2053 " />
<polygon class="Wall" fill="#AFD8F8" id="154" transcription="" points="4788.5,3289 4787.5,3350 4799.5,3350 4799.5,3289 " />
<polygon class="Wall" fill="#AFD8F8" id="155" transcription="" points="4749.5,3349.5 4799.5,3350.5 4799.5,3363.5 4750.5,3362.5 " />
<relation type="outerP" objects="31,107,152,148,147,146,106,34,27,28,30"/>
<relation type="incident" objects="98,100"/>
<relation type="incident" objects="100,65"/>
<relation type="incident" objects="65,101"/>
<relation type="incident" objects="101,99"/>
<relation type="incident" objects="99,70"/>
<relation type="incident" objects="65,66"/>
<relation type="incident" objects="66,125"/>
<relation type="incident" objects="125,97"/>
<relation type="incident" objects="97,94"/>
<relation type="incident" objects="94,123"/>
<relation type="incident" objects="123,70"/>
<relation type="incident" objects="94,95"/>
<relation type="incident" objects="95,93"/>
<relation type="incident" objects="93,96"/>
<relation type="incident" objects="96,94"/>
<relation type="incident" objects="93,127"/>
<relation type="incident" objects="127,126"/>
<relation type="incident" objects="126,67"/>
<relation type="incident" objects="93,91"/>
<relation type="incident" objects="91,92"/>
<relation type="incident" objects="92,120"/>
<relation type="incident" objects="120,90"/>
<relation type="incident" objects="90,70"/>
<relation type="incident" objects="67,98"/>
<relation type="incident" objects="91,122"/>
<relation type="incident" objects="122,85"/>
<relation type="incident" objects="85,86"/>
<relation type="incident" objects="85,87"/>
<relation type="incident" objects="87,89"/>
<relation type="incident" objects="89,88"/>
<relation type="incident" objects="88,85"/>
<relation type="incident" objects="88,82"/>
<relation type="incident" objects="82,83"/>
<relation type="incident" objects="82,128"/>
<relation type="incident" objects="128,84"/>
<relation type="incident" objects="84,67"/>
<relation type="incident" objects="82,81"/>
<relation type="incident" objects="81,80"/>
<relation type="incident" objects="80,79"/>
<relation type="incident" objects="79,88"/>
<relation type="incident" objects="79,118"/>
<relation type="incident" objects="118,76"/>
<relation type="incident" objects="76,119"/>
<relation type="incident" objects="119,78"/>
<relation type="incident" objects="78,70"/>
<relation type="incident" objects="76,77"/>
<relation type="incident" objects="77,74"/>
<relation type="incident" objects="74,117"/>
<relation type="incident" objects="117,73"/>
<relation type="incident" objects="73,70"/>
<relation type="incident" objects="74,75"/>
<relation type="incident" objects="75,116"/>
<relation type="incident" objects="116,69"/>
<relation type="incident" objects="69,72"/>
<relation type="incident" objects="72,104"/>
<relation type="incident" objects="104,68"/>
<relation type="incident" objects="68,67"/>
<relation type="incident" objects="72,105"/>
<relation type="incident" objects="105,71"/>
<relation type="incident" objects="71,70"/>
<relation type="incident" objects="60,59"/>
<relation type="incident" objects="59,102"/>
<relation type="incident" objects="102,61"/>
<relation type="incident" objects="61,62"/>
<relation type="incident" objects="61,103"/>
<relation type="incident" objects="103,63"/>
<relation type="incident" objects="63,64"/>
<relation type="incident" objects="32,33"/>
<relation type="incident" objects="33,31"/>
<relation type="incident" objects="31,30"/>
<relation type="incident" objects="31,107"/>
<relation type="incident" objects="107,152"/>
<relation type="incident" objects="152,148"/>
<relation type="incident" objects="148,151"/>
<relation type="incident" objects="148,150"/>
<relation type="incident" objects="150,149"/>
<relation type="incident" objects="148,153"/>
<relation type="incident" objects="148,147"/>
<relation type="incident" objects="147,146"/>
<relation type="incident" objects="149,108"/>
<relation type="incident" objects="146,106"/>
<relation type="incident" objects="106,34"/>
<relation type="incident" objects="34,27"/>
<relation type="incident" objects="27,137"/>
<relation type="incident" objects="137,37"/>
<relation type="incident" objects="37,38"/>
<relation type="incident" objects="38,154"/>
<relation type="incident" objects="154,155"/>
<relation type="incident" objects="155,39"/>
<relation type="incident" objects="39,36"/>
<relation type="incident" objects="36,38"/>
<relation type="incident" objects="36,35"/>
<relation type="incident" objects="35,108"/>
<relation type="incident" objects="36,44"/>
<relation type="incident" objects="44,43"/>
<relation type="incident" objects="43,39"/>
<relation type="incident" objects="43,121"/>
<relation type="incident" objects="43,45"/>
<relation type="incident" objects="43,48"/>
<relation type="incident" objects="48,49"/>
<relation type="incident" objects="49,45"/>
<relation type="incident" objects="43,41"/>
<relation type="incident" objects="41,42"/>
<relation type="incident" objects="42,109"/>
<relation type="incident" objects="109,47"/>
<relation type="incident" objects="47,46"/>
<relation type="incident" objects="46,50"/>
<relation type="incident" objects="50,51"/>
<relation type="incident" objects="50,30"/>
<relation type="incident" objects="47,110"/>
<relation type="incident" objects="110,57"/>
<relation type="incident" objects="57,52"/>
<relation type="incident" objects="52,58"/>
<relation type="incident" objects="58,50"/>
<relation type="incident" objects="52,22"/>
<relation type="incident" objects="22,55"/>
<relation type="incident" objects="55,54"/>
<relation type="incident" objects="54,52"/>
<relation type="incident" objects="54,53"/>
<relation type="incident" objects="53,114"/>
<relation type="incident" objects="114,115"/>
<relation type="incident" objects="115,30"/>
<relation type="incident" objects="52,56"/>
<relation type="incident" objects="56,111"/>
<relation type="incident" objects="111,24"/>
<relation type="incident" objects="24,25"/>
<relation type="incident" objects="25,142"/>
<relation type="incident" objects="142,27"/>
<relation type="incident" objects="113,26"/>
<relation type="incident" objects="26,27"/>
<relation type="incident" objects="27,28"/>
<relation type="incident" objects="112,23"/>
<relation type="incident" objects="23,30"/>
<relation type="incident" objects="30,28"/>
<relation type="neighbour" objects="129,130"/>
<relation type="neighbour" objects="130,131"/>
<relation type="neighbour" objects="129,132"/>
<relation type="neighbour" objects="132,133"/>
<relation type="neighbour" objects="133,134"/>
<relation type="neighbour" objects="134,135"/>
<relation type="neighbour" objects="135,133"/>
<relation type="neighbour" objects="136,138"/>
<relation type="neighbour" objects="138,139"/>
<relation type="neighbour" objects="139,140"/>
<relation type="neighbour" objects="139,141"/>
<relation type="neighbour" objects="141,140"/>
<relation type="neighbour" objects="139,143"/>
<relation type="neighbour" objects="143,145"/>
<relation type="neighbour" objects="145,139"/>
<relation type="neighbour" objects="145,141"/>
<relation type="neighbour" objects="145,144"/>
<relation type="neighbour" objects="144,141"/>
<relation type="neighbour" objects="144,136"/>
<relation type="access" objects="136,107,136"/>
<relation type="access" objects="136,108,138"/>
<relation type="access" objects="138,137,139"/>
<relation type="access" objects="139,109,140"/>
<relation type="access" objects="139,110,141"/>
<relation type="access" objects="139,142,143"/>
<relation type="access" objects="139,111,145"/>
<relation type="access" objects="145,114,144"/>
<relation type="access" objects="132,127,129"/>
<relation type="access" objects="129,125,130"/>
<relation type="access" objects="130,123,131"/>
<relation type="access" objects="132,128,133"/>
<relation type="access" objects="135,117,134"/>
<relation type="access" objects="133,116,135"/>
<relation type="surround" objects="98,100,65,66,125,97,94,96,93,127,126,67,98,129"/>
<relation type="surround" objects="65,101,99,70,123,94,97,125,66,65,130"/>
<relation type="surround" objects="94,123,70,90,120,92,91,93,95,94,131"/>
<relation type="surround" objects="126,127,93,91,122,85,88,82,128,84,67,126,132"/>
<relation type="surround" objects="76,119,78,70,117,74,77,76,134"/>
<relation type="surround" objects="74,117,70,71,105,72,69,116,75,74,135"/>
<relation type="surround" objects="84,128,82,81,80,79,118,76,77,74,75,116,69,72,104,68,67,84,133"/>
<relation type="surround" objects="31,107,152,148,150,149,108,35,36,44,43,45,50,30,31,136"/>
<relation type="surround" objects="150,148,147,146,106,34,27,137,37,38,36,35,108,149,150,138"/>
<relation type="surround" objects="49,48,43,41,42,109,47,46,50,45,49,140"/>
<relation type="surround" objects="155,154,38,37,137,27,142,25,24,111,56,52,57,110,47,109,42,41,43,39,155,139"/>
<relation type="surround" objects="50,46,47,110,57,52,58,50,141"/>
<relation type="surround" objects="50,58,52,54,53,114,115,30,50,144"/>
<relation type="incident" objects="112,14"/>
<relation type="incident" objects="14,113"/>
<relation type="incident" objects="14,24"/>
<relation type="outerP" objects="98,100,65,101,99,70,71,105,72,104,68,67"/>
<relation type="surround" objects="114,53,54,55,22,52,56,111,24,14,112,23,30,115,114,145"/>
<relation type="surround" objects="25,142,27,26,113,14,24,25,143"/>
</svg>