<?xml version="1.0" encoding="UTF-8"?><!DOCTYPE svg PUBLIC "-//W3C//DTD SVG 1.1//EN" "http://www.w3.org/Graphics/SVG/1.1/DTD/svg11.dtd">
<svg xmlns="http://www.w3.org/2000/svg" version="1.1">
<width>5671</width>
<height>7383</height>
<nclasslabel>6</nclasslabel>
<nclassappear>6</nclassappear>
<class>Door</class>
<class>Parking</class>
<class>Room</class>
<class>Separation</class>
<class>Wall</class>
<class>Window</class>
<polygon class="Wall" fill="#AFD8F8" id="65" transcription="" points="4150,2090.25 4212,2089.25 4212,2150.25 4202,2152.25 4200,2163.25 4160,2163.25 4160,2152 4148,2151 " />
<polygon class="Wall" fill="#AFD8F8" id="67" transcription="" points="3701,2091 3740,2091 3739,5601 3701,5601 " />
<polygon class="Wall" fill="#AFD8F8" id="68" transcription="" points="3736.5,5526 3854.5,5526 3854.5,5600 3735.5,5600 " />
<polygon class="Wall" fill="#AFD8F8" id="69" transcription="" points="4495,5184 4511,5184 4511,5528 4495,5528 " />
<polygon class="Wall" fill="#AFD8F8" id="70" transcription="" points="5116.5,2091 5155.5,2091 5155.5,5765 5117.5,5765 " />
<polygon class="Wall" fill="#AFD8F8" id="71" transcription="" points="4822,5763 5155,5763 5155,5837 4822,5837 " />
<polygon class="Wall" fill="#AFD8F8" id="72" transcription="" points="4327,5527.5 4511,5527.5 4511,5600.5 4327,5600.5 " />
<polygon class="Wall" fill="#AFD8F8" id="73" transcription="" points="5106,4812.5 5120,4812.5 5120,4829.5 5106,4829.5 " />
<polygon class="Wall" fill="#AFD8F8" id="74" transcription="" points="4494,4812.5 4916,4812.5 4916,4830 4494,4829.5 " />
<polygon class="Wall" fill="#AFD8F8" id="75" transcription="" points="4494,4829 4511,4829 4510,4995 4494,4995 " />
<polygon class="Wall" fill="#AFD8F8" id="76" transcription="" points="4636,4387 4674,4387 4674,4461 4636,4461 " />
<polygon class="Wall" fill="#AFD8F8" id="77" transcription="" points="4646,4458.5 4660,4458.5 4660,4811.5 4646,4813 " />
<polygon class="Wall" fill="#AFD8F8" id="78" transcription="" points="4811,4387.5 5119,4387.5 5119,4460.5 4811,4460.5 " />
<polygon class="Wall" fill="#AFD8F8" id="79" transcription="" points="4431.5,4388.5 4493.5,4388.5 4493.5,4461.5 4430.5,4461.5 " />
<polygon class="Wall" fill="#AFD8F8" id="80" transcription="" points="4094,4448 4432,4448 4432,4462 4094,4462 " />
<polygon class="Wall" fill="#AFD8F8" id="81" transcription="" points="4080.5,4306 4080.5,4459 4095.5,4459 4095.5,4306 " />
<polygon class="Wall" fill="#AFD8F8" id="82" transcription="" points="3977,4270 4436,4269 4436,4308 3977,4308 " />
<polygon class="Wall" fill="#AFD8F8" id="83" transcription="" points="4020,4236.5 4058,4236.5 4058,4271.5 4020,4271.5 " />
<polygon class="Wall" fill="#AFD8F8" id="84" transcription="" points="3738,4269 3763,4269 3763,4307 3738,4307 " />
<polygon class="Wall" fill="#AFD8F8" id="85" transcription="" points="4019,3881 4576,3880 4576,3919 4019,3919 " />
<polygon class="Wall" fill="#AFD8F8" id="86" transcription="" points="4020,3917.5 4058,3917.5 4058,3952.5 4020,3952.5 " />
<polygon class="Wall" fill="#AFD8F8" id="87" transcription="" points="4540,3918.5 4577,3918.5 4577,4071.5 4540,4071.5 " />
<polygon class="Wall" fill="#AFD8F8" id="88" transcription="" points="4432,3917 4470,3917 4471,4388 4433,4389 " />
<polygon class="Wall" fill="#AFD8F8" id="89" transcription="" points="4471,4032.5 4540,4032.5 4540,4069.5 4471,4069.5 " />
<polygon class="Wall" fill="#AFD8F8" id="90" transcription="" points="5081,3686.5 5120,3686.5 5120,3613.5 5081,3613.5 " />
<polygon class="Wall" fill="#AFD8F8" id="91" transcription="" points="4726,3384 4759,3384 4759,3762 4726,3762 " />
<polygon class="Wall" fill="#AFD8F8" id="92" transcription="" points="4759,3612.5 4798,3612.5 4798,3685.5 4759,3685.5 " />
<polygon class="Wall" fill="#AFD8F8" id="94" transcription="" points="4494,3051 4916,3051 4916,3068 4495,3068 " />
<polygon class="Wall" fill="#AFD8F8" id="95" transcription="" points="4742,3066 4759,3066.5 4759,3349.5 4743,3349.5 " />
<polygon class="Wall" fill="#AFD8F8" id="96" transcription="" points="4636,3067 4636,3349 4650,3349 4650,3067 " />
<polygon class="Wall" fill="#AFD8F8" id="98" transcription="" points="3739,2090 3939.5,2090.5 3939.5,2151.5 3929.5,2151.5 3929.5,2163.5 3739,2164 " />
<polygon class="Wall" fill="#AFD8F8" id="99" transcription="" points="4504,2089.5 5117,2091 5117,2164 4514,2164 4513,2150.5 4504,2150.5 " />
<polygon class="Window" fill="#F6BD0F" id="100" transcription="" points="3937,2086 4153.5,2084.5 4152.5,2161.5 3937,2162 " />
<polygon class="Window" fill="#F6BD0F" id="101" transcription="" points="4209,2084.5 4505,2084 4507,2163 4209,2161.5 " />
<polygon class="Window" fill="#F6BD0F" id="104" transcription="" points="3856,5526 4329,5526 4329,5604 3854,5604 " />
<polygon class="Window" fill="#F6BD0F" id="105" transcription="" points="4434,5599 4512,5599 4511,5762 4825,5762 4825,5840 4434,5841 " />
<polygon class="Door" fill="#8BBA00" id="116" transcription="" points="4492.5,4990 4688.5,4988 4668.5,5089 4588.5,5150 4495.5,5180 " />
<polygon class="Door" fill="#8BBA00" id="117" transcription="" points="5109,4635 5107,4825 4917,4825 4928,4741 4997,4649 " />
<polygon class="Window" fill="#F6BD0F" id="118" transcription="" points="4491,4383.5 4635,4382.5 4635,4459.5 4491,4460.5 " />
<polygon class="Window" fill="#F6BD0F" id="119" transcription="" points="4669,4384 4812,4385 4812,4462 4669,4462 " />
<polygon class="Window" fill="#F6BD0F" id="120" transcription="" points="4797,3614.5 5081,3614.5 5081,3691.5 4795,3691.5 " />
<polygon class="Window" fill="#F6BD0F" id="122" transcription="" points="4574,3879 4726,3880 4726,3761 4764,3761 4763,3921 4574,3921 " />
<polygon class="Door" fill="#8BBA00" id="123" transcription="" points="4913.5,3048.5 5108.5,3047.5 5107.5,3242.5 4997.5,3228.5 4936.5,3153.5 " />
<polygon class="Wall" fill="#AFD8F8" id="124" transcription="" points="5106.5,3051 5106.5,3067 5117.5,3067 5117.5,3051 " />
<polygon class="Wall" fill="#AFD8F8" id="126" transcription="" points="3741,3596.5 3767,3596.5 3767,3616 3767,3635.5 3741,3635.5 " />
<polygon class="Door" fill="#8BBA00" id="127" transcription="" points="3758.5,3413.5 3758.5,3637.5 3985.5,3636.5 3976.5,3541.5 3875.5,3416.5 " />
<polygon class="Door" fill="#8BBA00" id="128" transcription="" points="3762,4290 3984,4290 3976,4413 3878,4515 3748,4522 " />
<polygon class="Room" fill="#FF8E46" id="133" transcription="" points="3740,4310 4074,4312 4080,4470 4643,4464 4643,4815 4494,4815 4494,5530 3740,5530 " />
<polygon class="Room" fill="#FF8E46" id="134" transcription="" points="4658,4464 5116,4464 5116,4816 4658,4816 " />
<polygon class="Room" fill="#FF8E46" id="135" transcription="" points="4510,4831.5 5116,4831.5 5116,5764.5 4510,5764.5 " />
<polygon class="Wall" fill="#AFD8F8" id="136" transcription="" points="4894,2609.5 4912,2622.5 4910,2824 4894,2822.5 " />
<polygon class="Wall" fill="#AFD8F8" id="137" transcription="" points="4894,2841 4919,2841 4918,2823 4895,2823 " />
<polygon class="Wall" fill="#AFD8F8" id="138" transcription="" points="5107,2825 5119,2825 5119,2839 5107,2839 " />
<polygon class="Wall" fill="#AFD8F8" id="139" transcription="" points="4119,3349 4759,3349 4759,3386 4119,3386 " />
<polygon class="Wall" fill="#AFD8F8" id="140" transcription="" points="4081,3349 4120,3349 4120,3635 4081,3635 " />
<polygon class="Wall" fill="#AFD8F8" id="141" transcription="" points="3976,3596 4082,3596 4082,3634 3976,3634 " />
<polygon class="Room" fill="#FF8E46" id="143" transcription="" points="4761,3066 5116,3066 5116,3612 4761,3612 " />
<polygon class="Room" fill="#FF8E46" id="144" transcription="" points="3739,3635 4018,3635 4018,4266 3739,4266 " />
<polygon class="Room" fill="#FF8E46" id="145" transcription="" points="3741,3595 4081,3596 4082,3349 4635,3347 4635,3067 3739,3070 " />
<polygon class="Separation" fill="#008E8E" id="146" transcription="" points="3738,3053 4492,3053 4492,3065 3738,3065 " />
<polygon class="Room" fill="#FF8E46" id="147" transcription="" points="3739,2163 5111,2163 5115,3046 3739,3046 " />
<polygon class="Door" fill="#8BBA00" id="148" transcription="" points="5109,2649 5106,2843 4919,2841 4921,2763 4999,2661 " />
<polygon class="Wall" fill="#AFD8F8" id="149" transcription="" points="3234.5,2162.75 3271.5,2161.25 3271.5,3611.25 3233.5,3611.25 " />
<polygon class="Wall" fill="#AFD8F8" id="150" transcription="" points="2687.5,2089 3273.5,2089 3273.5,2163 2688.5,2163 " />
<polygon class="Wall" fill="#AFD8F8" id="151" transcription="" points="3196,3623.5 3204,3623.5 3204,3612.5 3271,3610.5 3271,3686.5 3196,3684.5 " />
<polygon class="Wall" fill="#AFD8F8" id="152" transcription="" points="2806.5,3613 2806.5,3754 2817.5,3754 2818.5,3764 2875.5,3764 2875.5,3613 " />
<polygon class="Wall" fill="#AFD8F8" id="153" transcription="" points="2874,3614 3046,3615 3046,3624 3055,3624 3054,3687 2874,3688 " />
<polygon class="Wall" fill="#AFD8F8" id="154" transcription="" points="2849.5,3360 2876.5,3360 2876.5,3610 2850.5,3610 " />
<polygon class="Wall" fill="#AFD8F8" id="155" transcription="" points="2859,3050.5 2877,3050.5 2875,3363.5 2859,3363.5 " />
<polygon class="Wall" fill="#AFD8F8" id="156" transcription="" points="2765,3051.5 2860,3051.5 2861,3068.5 2767,3068.5 " />
<polygon class="Wall" fill="#AFD8F8" id="157" transcription="" points="2753,3050.5 2753,3363.5 2767,3362.5 2767,3051.5 " />
<polygon class="Wall" fill="#AFD8F8" id="158" transcription="" points="2766,3348.5 2859,3348.5 2858,3363.5 2766,3361.5 " />
<polygon class="Wall" fill="#AFD8F8" id="159" transcription="" points="2475.5,3051 2751.5,3052 2750.5,3077 2476.5,3077 " />
<polygon class="Wall" fill="#AFD8F8" id="160" transcription="" points="2634,3039.5 2652,3039.5 2652,3050.5 2634,3050.5 " />
<polygon class="Wall" fill="#AFD8F8" id="161" transcription="" points="2451,3050.5 2478,3049.5 2480,3480 2453,3479.5 " />
<polygon class="Wall" fill="#AFD8F8" id="162" transcription="" points="2687,2730.5 2687,2841.5 2761,2841.5 2761,2739.5 2749,2739.5 2749,2729.5 " />
<polygon class="Wall" fill="#AFD8F8" id="163" transcription="" points="2431.5,2764 2688.5,2764 2687.5,2840 2441.5,2840 2441.5,2829 2432.5,2828 " />
<polygon class="Wall" fill="#AFD8F8" id="164" transcription="" points="2634,2838.5 2652,2838.5 2652,2855.5 2634,2855.5 " />
<polygon class="Wall" fill="#AFD8F8" id="165" transcription="" points="1842,2764 1986,2765 1986,2829 1977,2829 1977,2842 1842,2842 " />
<polygon class="Wall" fill="#AFD8F8" id="166" transcription="" points="2686,2156.5 2760,2156.5 2759,2381.5 2746,2380.5 2746,2391.5 2686,2391.5 " />
<polygon class="Wall" fill="#AFD8F8" id="167" transcription="" points="1817,2841.5 1855,2842 1855,5599 1817,5600.5 " />
<polygon class="Wall" fill="#AFD8F8" id="168" transcription="" points="1856,5561.5 2552,5562 2552,5600 1856,5600.5 " />
<polygon class="Wall" fill="#AFD8F8" id="169" transcription="" points="2550,4919 2561,4917 2562,4908 2587,4908 2587,5601 2550,5601 " />
<polygon class="Wall" fill="#AFD8F8" id="170" transcription="" points="1852,3879.5 2549,3880 2549,3919 1852,3918.5 " />
<polygon class="Wall" fill="#AFD8F8" id="171" transcription="" points="2544.5,3844 2679.5,3844 2679.5,3856 2689.5,3856 2689.5,3918 2545.5,3916 " />
<polygon class="Wall" fill="#AFD8F8" id="172" transcription="" points="2550.5,3917 2585.5,3917 2586.5,4438 2562.5,4438 2560.5,4428 2549.5,4427 " />
<polygon class="Wall" fill="#AFD8F8" id="173" transcription="" points="2209,4409.5 2550,4409.5 2550,4424.5 2209,4424.5 " />
<polygon class="Wall" fill="#AFD8F8" id="174" transcription="" points="2198,4293 2212,4293 2212,4425 2198,4425 " />
<polygon class="Wall" fill="#AFD8F8" id="175" transcription="" points="2212,4294 2552,4294 2552,4308 2212,4308 " />
<polygon class="Wall" fill="#AFD8F8" id="176" transcription="" points="2655,3916 2655,4069 2693,4069 2693,3914 " />
<polygon class="Wall" fill="#AFD8F8" id="177" transcription="" points="2586,4032.5 2656,4032.5 2657,4068 2586,4069.5 " />
<polygon class="Wall" fill="#AFD8F8" id="178" transcription="" points="2453,3881 2454,3667 2479,3668 2479,3881 " />
<polygon class="Window" fill="#F6BD0F" id="179" transcription="" points="2681,2392.5 2761,2392.5 2761,2731.5 2681,2731.5 " />
<polygon class="Window" fill="#F6BD0F" id="180" transcription="" points="1958,2758.5 2432,2758.5 2432,2841.5 1958,2841.5 " />
<polygon class="Window" fill="#F6BD0F" id="181" transcription="" points="3051,3611.5 3195,3611.5 3195,3690.5 3051,3690.5 " />
<polygon class="Window" fill="#F6BD0F" id="182" transcription="" points="2804.5,3761.5 2878.5,3761.5 2878.5,3924.5 2689.5,3922.5 2689.5,3843.5 2805.5,3844.5 " />
<polygon class="Parking" fill="#D64646" id="183" transcription="" points="2551,4436 2592,4435 2595,4905 2551,4906 " />
<polygon class="Door" fill="#8BBA00" id="184" transcription="" points="2456,3668.5 2661,3670.5 2646,3547.5 2534,3490.5 2456,3479.5 " />
<polygon class="Door" fill="#8BBA00" id="185" transcription="" points="2644,2851.5 2646,3040.5 2532,3034.5 2475,2977.5 2446,2846.5 " />
<polygon class="Room" fill="#FF8E46" id="186" transcription="" points="1860,2840.5 2635,2842.5 2636,3050.5 2453,3050.5 2456,3877.5 1860,3879.5 " />
<polygon class="Room" fill="#FF8E46" id="187" transcription="" points="2484.5,3077 2752.5,3077 2756.5,3364 2853.5,3366 2851.5,3612 2808.5,3613 2811.5,3846 2553.5,3846 2551.5,3880 2481.5,3877 " />
<polygon class="Room" fill="#FF8E46" id="188" transcription="" points="2765.5,2169 3229.5,2166 3245.5,3613 2885.5,3613 2875.5,3049 2655.5,3046 2652.5,2839 2772.5,2843 " />
<relation type="incident" objects="98,100"/>
<relation type="incident" objects="101,99"/>
<relation type="incident" objects="99,70"/>
<relation type="incident" objects="94,123"/>
<relation type="incident" objects="94,95"/>
<relation type="incident" objects="96,94"/>
<relation type="incident" objects="127,126"/>
<relation type="incident" objects="126,67"/>
<relation type="incident" objects="91,92"/>
<relation type="incident" objects="92,120"/>
<relation type="incident" objects="120,90"/>
<relation type="incident" objects="90,70"/>
<relation type="incident" objects="67,98"/>
<relation type="incident" objects="91,122"/>
<relation type="incident" objects="122,85"/>
<relation type="incident" objects="85,86"/>
<relation type="incident" objects="85,87"/>
<relation type="incident" objects="87,89"/>
<relation type="incident" objects="89,88"/>
<relation type="incident" objects="88,85"/>
<relation type="incident" objects="88,82"/>
<relation type="incident" objects="82,83"/>
<relation type="incident" objects="82,128"/>
<relation type="incident" objects="128,84"/>
<relation type="incident" objects="84,67"/>
<relation type="incident" objects="82,81"/>
<relation type="incident" objects="81,80"/>
<relation type="incident" objects="80,79"/>
<relation type="incident" objects="79,88"/>
<relation type="incident" objects="79,118"/>
<relation type="incident" objects="118,76"/>
<relation type="incident" objects="76,119"/>
<relation type="incident" objects="119,78"/>
<relation type="incident" objects="78,70"/>
<relation type="incident" objects="76,77"/>
<relation type="incident" objects="77,74"/>
<relation type="incident" objects="74,117"/>
<relation type="incident" objects="117,73"/>
<relation type="incident" objects="73,70"/>
<relation type="incident" objects="74,75"/>
<relation type="incident" objects="75,116"/>
<relation type="incident" objects="116,69"/>
<relation type="incident" objects="69,72"/>
<relation type="incident" objects="72,104"/>
<relation type="incident" objects="104,68"/>
<relation type="incident" objects="68,67"/>
<relation type="incident" objects="72,105"/>
<relation type="incident" objects="105,71"/>
<relation type="incident" objects="71,70"/>
<relation type="neighbour" objects="133,134"/>
<relation type="neighbour" objects="134,135"/>
<relation type="neighbour" objects="135,133"/>
<relation type="access" objects="135,117,134"/>
<relation type="access" objects="133,116,135"/>
<relation type="surround" objects="76,119,78,70,117,74,77,76,134"/>
<relation type="surround" objects="74,117,70,71,105,72,69,116,75,74,135"/>
<relation type="surround" objects="84,128,82,81,80,79,118,76,77,74,75,116,69,72,104,68,67,84,133"/>
<relation type="incident" objects="96,139"/>
<relation type="incident" objects="139,140"/>
<relation type="incident" objects="140,141"/>
<relation type="incident" objects="141,127"/>
<relation type="incident" objects="91,139"/>
<relation type="incident" objects="139,95"/>
<relation type="incident" objects="70,138"/>
<relation type="incident" objects="124,123"/>
<relation type="incident" objects="70,138"/>
<relation type="incident" objects="138,148"/>
<relation type="incident" objects="148,137"/>
<relation type="incident" objects="137,136"/>
<relation type="incident" objects="94,146"/>
<relation type="incident" objects="146,67"/>
<relation type="neighbour" objects="133,144"/>
<relation type="neighbour" objects="144,145"/>
<relation type="neighbour" objects="145,147"/>
<relation type="neighbour" objects="147,143"/>
<relation type="access" objects="144,128,133"/>
<relation type="access" objects="144,127,145"/>
<relation type="access" objects="147,123,143"/>
<relation type="access" objects="145,146,147"/>
<relation type="surround" objects="126,127,141,140,139,91,122,85,88,82,128,67,126,144"/>
<relation type="surround" objects="146,94,96,139,140,141,127,126,67,146,145"/>
<relation type="surround" objects="94,123,124,70,90,120,92,91,139,95,94,143"/>
<relation type="outerP" objects="165,180,163,162,179,166,150,149,151,181,153,152,182,171,176,177,172,183,169,168,167"/>
<relation type="incident" objects="150,149"/>
<relation type="incident" objects="149,151"/>
<relation type="incident" objects="151,181"/>
<relation type="incident" objects="181,153"/>
<relation type="incident" objects="153,152"/>
<relation type="incident" objects="152,154"/>
<relation type="incident" objects="154,155"/>
<relation type="incident" objects="154,158"/>
<relation type="incident" objects="158,155"/>
<relation type="incident" objects="155,156"/>
<relation type="incident" objects="156,157"/>
<relation type="incident" objects="157,158"/>
<relation type="incident" objects="157,159"/>
<relation type="incident" objects="159,160"/>
<relation type="incident" objects="160,185"/>
<relation type="incident" objects="185,164"/>
<relation type="incident" objects="164,163"/>
<relation type="incident" objects="163,162"/>
<relation type="incident" objects="162,179"/>
<relation type="incident" objects="163,180"/>
<relation type="incident" objects="179,166"/>
<relation type="incident" objects="166,150"/>
<relation type="incident" objects="180,165"/>
<relation type="incident" objects="165,167"/>
<relation type="incident" objects="159,161"/>
<relation type="incident" objects="161,184"/>
<relation type="incident" objects="184,178"/>
<relation type="incident" objects="152,182"/>
<relation type="incident" objects="182,171"/>
<relation type="incident" objects="171,176"/>
<relation type="incident" objects="176,182"/>
<relation type="incident" objects="176,177"/>
<relation type="incident" objects="177,172"/>
<relation type="incident" objects="172,171"/>
<relation type="incident" objects="171,170"/>
<relation type="incident" objects="172,170"/>
<relation type="incident" objects="170,178"/>
<relation type="incident" objects="170,167"/>
<relation type="incident" objects="172,183"/>
<relation type="incident" objects="172,175"/>
<relation type="incident" objects="175,174"/>
<relation type="incident" objects="174,173"/>
<relation type="incident" objects="173,172"/>
<relation type="incident" objects="168,169"/>
<relation type="incident" objects="168,167"/>
<relation type="incident" objects="169,183"/>
<relation type="neighbour" objects="186,187"/>
<relation type="neighbour" objects="187,188"/>
<relation type="neighbour" objects="188,186"/>
<relation type="access" objects="188,185,186"/>
<relation type="access" objects="186,184,187"/>
<relation type="surround" objects="165,180,163,185,159,161,184,178,170,167,165,186"/>
<relation type="surround" objects="159,157,158,154,152,182,171,170,178,184,161,159,187"/>
<relation type="surround" objects="163,162,179,166,150,149,151,181,153,154,155,156,159,185,163,188"/>
<relation type="outerP" objects="98,100,65,101,99,70,71,105,72,104,68,67"/>
<relation type="incident" objects="100,65"/>
<relation type="incident" objects="101,65"/>
<relation type="surround" objects="98,100,65,101,99,70,124,123,94,146,67,98,147"/>
</svg>